<svg xmlns="http://www.w3.org/2000/svg" viewBox="0 0 852.71 641.35"><defs><style>.cls-1{isolation:isolate;}.cls-2{fill:#a9c8b9;}.cls-3{fill:#b35730;}.cls-4{fill:#f1f6f9;}.cls-5,.cls-8{fill:#f2f2f2;}.cls-5{mix-blend-mode:multiply;}.cls-6{fill:#424242;}.cls-7{fill:#ffd3ba;}.cls-9{fill:gray;}</style></defs><title>mission</title><g class="cls-1"><g id="Layer_1" data-name="Layer 1"><path class="cls-2" d="M807.4,239a37,37,0,0,0,.25-4.23A37.6,37.6,0,0,0,762.43,198a49.66,49.66,0,0,0-92.79,11.7l-.71,0A33.35,33.35,0,0,0,635.84,239Z"/><path class="cls-2" d="M52.53,352.85a46.38,46.38,0,0,1-.29-5A44.74,44.74,0,0,1,106.06,304,59.09,59.09,0,0,1,216.48,318l.84,0a39.67,39.67,0,0,1,39.38,34.91Z"/><path class="cls-3" d="M542.24,22.47C590,63,637.76,28,685.52,68.55,637.76,58,590,122.94,542.24,112.38Z"/><polygon class="cls-4" points="0 641.35 87.96 571.6 199.51 536.64 265.12 461.79 414.39 431.81 478.46 367.91 576.75 354.57 644.07 434.43 713.81 480.51 737.79 538.3 800 593.59 852.71 641.35 0 641.35"/><polygon class="cls-5" points="576.75 354.57 576.75 451.23 645.4 521.27 600.01 599.61 516.84 641.35 852.71 641.35 800 593.59 737.79 538.3 713.81 480.51 644.07 434.43 576.75 354.57"/><polygon class="cls-6" points="497.27 362.46 482.78 268.87 429.44 255.91 428.09 151.07 378.31 151.46 347.82 159.45 303.88 184.84 349.98 282.25 364.49 357.69 356.51 444.35 367.23 444.59 361 441.27 389.25 360.52 401.57 299.45 465.73 291.03 493.44 366.68 506.78 365.08 497.27 362.46"/><polygon class="cls-7" points="342.77 128.72 347.82 159.45 378.31 151.46 367.27 121.94 342.77 128.72"/><path class="cls-7" d="M349.91,279.35c2.23,1.13,3.54,3,2.94,4.21s-2.9,1.24-5.13.11-3.55-3-2.94-4.2S347.68,278.23,349.91,279.35Z"/><path class="cls-7" d="M538.53,175.73c-2.4.71-4.77,0-5.08-1.26s1.31-2.68,3.71-3.39,4.64-.24,5,1S540.93,175,538.53,175.73Z"/><path class="cls-6" d="M347.66,131.59l1.55,9.31s-3-1.07-3.07,1.22c-.07,3.19,3.4,1.47,3.4,1.47a44,44,0,0,1-1.72,15.86s-15.46-29.13-5.25-31c-1.06-17.36,28.91-3,30.83-16.9C378.05,122.15,372.35,128.74,347.66,131.59Z"/><polygon class="cls-8" points="347.82 159.45 370.69 185.39 378.31 151.46 347.82 159.45"/><polygon class="cls-3" points="365.35 157.35 361.35 158.4 360.48 161.44 363.56 164.36 362.95 176.6 370.69 185.39 373.21 174.18 366.42 163.5 367.79 159.29 365.35 157.35"/><polygon class="cls-6" points="303.88 184.84 277.84 261.76 347.65 283.83 350.05 279.25 300.94 253.44 320.65 220.27 303.88 184.84"/><polygon class="cls-6" points="428.09 151.07 478.17 181.72 537.07 170.76 538.62 175.96 478.52 196.06 428.58 189.19 428.09 151.07"/><polygon class="cls-9" points="370.69 185.39 382.37 166.96 378.67 162.56 382.74 157.38 378.31 151.46 370.69 185.39"/><polygon class="cls-9" points="370.69 185.39 351.48 175.06 352.54 169.41 346.45 166.89 347.82 159.45 370.69 185.39"/><path class="cls-6" d="M542.24,361.47a2,2,0,0,1-1.71-2.24V24.71a1.77,1.77,0,1,1,3.41,0V359.23A2,2,0,0,1,542.24,361.47Z"/><path class="cls-2" d="M265.65,100.31a36.36,36.36,0,0,0,.76-7.35A35.76,35.76,0,0,0,197.8,78.84,25.35,25.35,0,0,0,159,100.31Z"/></g></g></svg>