<svg id="Réteg_1" data-name="Réteg 1" xmlns="http://www.w3.org/2000/svg" xmlns:xlink="http://www.w3.org/1999/xlink" viewBox="0 0 1920 1000"><defs><style>.cls-1{fill:#333;}.cls-2{fill:#009db1;}.cls-3{fill:#00abaa;opacity:0.58;}.cls-4{opacity:0.43;fill:url(#Névtelen_színátmenet_67);}</style><linearGradient id="Névtelen_színátmenet_67" x1="689.56" y1="526.68" x2="2089" y2="526.68" gradientUnits="userSpaceOnUse"><stop offset="0" stop-color="#0071bc"/><stop offset="1" stop-color="#00a99d"/></linearGradient></defs><title>bg-2-v2</title><rect class="cls-1" x="-57" y="-100" width="2396" height="1271"/><path class="cls-2" d="M1216,768c290.92-.71,142.51,155.8,300,239,208.66,110.24,341.65,32.84,527-80V7H984C902.21,9.8,772.57,158.06,737,192,532.44,387.2,651.47,769.38,1216,768Z"/><path class="cls-3" d="M1241,786c290.92-.71,142.51,155.8,300,239,208.66,110.24,341.65,32.84,527-80V25H1009C886.63,29.19,838.15,137.34,762,210,557.44,405.2,676.47,787.38,1241,786Z"/><path class="cls-4" d="M1262,761c290.92-.71,142.51,155.8,300,239,208.66,110.24,341.65,32.84,527-80V0H1030C940.63,3.06,891.5,62.26,840.57,121.2,820,145,803.54,165.4,783,185,578.44,380.2,697.47,762.38,1262,761Z"/></svg>