<svg id="Réteg_1" data-name="Réteg 1" xmlns="http://www.w3.org/2000/svg" viewBox="0 0 800 800"><defs><style>.cls-1{fill:#f9d35b;}.cls-2{fill:#eaa24b;}.cls-3{fill:#fff;}.cls-4{fill:#503d20;}</style></defs><title>elmegy</title><path class="cls-1" d="M777.88,401.53c0,198.13-160.62,358.75-358.74,358.75S60.39,599.66,60.39,401.53,221,42.79,419.14,42.79,777.88,203.4,777.88,401.53Z"/><path class="cls-2" d="M551,50.1C403.66-5.81,230.84,40.19,130.56,161.59,29.89,283.46,15.62,460.38,98,595.93c81.22,133.7,240.07,203.31,393.46,173.92,175.59-33.65,300.8-191.49,303-368.32C792.52,246,697.12,105.54,551,50.1ZM533.92,724c-135.14,47.82-289,4.88-379.87-106S52.32,346.25,126.67,223.88C200.61,102.17,347.24,37.49,487,66.08,646.2,98.66,759.23,240.2,761.27,401.53,759.46,544.79,670.17,675.74,533.92,724Z"/><path class="cls-3" d="M381.26,298.43a88.55,88.55,0,1,1-88.54-88.54A88.55,88.55,0,0,1,381.26,298.43Z"/><circle class="cls-4" cx="292.72" cy="264.56" r="54.67"/><path class="cls-3" d="M634.83,298.43a88.55,88.55,0,1,1-88.55-88.54A88.55,88.55,0,0,1,634.83,298.43Z"/><circle class="cls-4" cx="546.28" cy="264.56" r="54.67"/><path class="cls-4" d="M286.72,575.9H552.28c16.9,0,16.93-26.29,0-26.29H286.72c-16.91,0-16.93,26.29,0,26.29Z"/></svg>