<svg xmlns="http://www.w3.org/2000/svg" xmlns:xlink="http://www.w3.org/1999/xlink" viewBox="0 0 800 295"><defs><style>.cls-1{fill:none;}.cls-2{isolation:isolate;}.cls-3,.cls-4{opacity:0.3;mix-blend-mode:multiply;}.cls-3{fill:url(#radial-gradient);}.cls-4{fill:url(#radial-gradient-2);}.cls-5{clip-path:url(#clip-path);}.cls-6{fill:#272727;}.cls-7{opacity:0.7;}.cls-8{fill:#545454;}.cls-9{fill:#424242;}.cls-10{clip-path:url(#clip-path-2);}.cls-11{fill:#595959;}.cls-12{fill:#313534;}.cls-13,.cls-17,.cls-18,.cls-19{mix-blend-mode:screen;}.cls-14{fill:url(#linear-gradient);}.cls-15{fill:url(#linear-gradient-2);}.cls-16{fill:url(#linear-gradient-3);}.cls-17,.cls-18,.cls-19{opacity:0.15;}.cls-17{fill:url(#linear-gradient-4);}.cls-18{fill:url(#linear-gradient-5);}.cls-19{fill:url(#linear-gradient-6);}</style><radialGradient id="radial-gradient" cx="211.75" cy="190.65" r="25.49" gradientTransform="translate(0 177.19) scale(1 0.1)" gradientUnits="userSpaceOnUse"><stop offset="0" stop-color="#130c0e" stop-opacity="0.95"/><stop offset="0.24" stop-color="#130c0e" stop-opacity="0.65"/><stop offset="0.84" stop-color="#130c0e" stop-opacity="0"/></radialGradient><radialGradient id="radial-gradient-2" cx="586.63" cy="190.65" r="25.49" xlink:href="#radial-gradient"/><clipPath id="clip-path"><path class="cls-1" d="M96.87,86.43V82.86c0,.45,0,.9,0,1.35v3.57C96.89,87.32,96.87,86.87,96.87,86.43Z"/></clipPath><clipPath id="clip-path-2"><path class="cls-1" d="M416.2,143l5.34,5.35c-.51-.51-1.05-1-1.62-1.58l-5.34-5.35C415.16,142,415.69,142.52,416.2,143Z"/></clipPath><linearGradient id="linear-gradient" x1="63.79" y1="59.36" x2="378.59" y2="59.36" gradientUnits="userSpaceOnUse"><stop offset="0.02"/><stop offset="0.05" stop-color="#030303"/><stop offset="0.07" stop-color="#0d0d0e"/><stop offset="0.09" stop-color="#1e1e1f"/><stop offset="0.11" stop-color="#363637"/><stop offset="0.13" stop-color="#545556"/><stop offset="0.13" stop-color="#58595b"/><stop offset="0.14" stop-color="#505153"/><stop offset="0.18" stop-color="#2d2e2f"/><stop offset="0.22" stop-color="#141515"/><stop offset="0.25" stop-color="#050505"/><stop offset="0.28"/><stop offset="0.74"/><stop offset="0.76" stop-color="#050505"/><stop offset="0.79" stop-color="#121313"/><stop offset="0.82" stop-color="#292a2b"/><stop offset="0.85" stop-color="#494a4b"/><stop offset="0.86" stop-color="#58595b"/><stop offset="0.87" stop-color="#4c4d4f"/><stop offset="0.89" stop-color="#313132"/><stop offset="0.91" stop-color="#1b1b1c"/><stop offset="0.94" stop-color="#0c0c0c"/><stop offset="0.96" stop-color="#030303"/><stop offset="1"/></linearGradient><linearGradient id="linear-gradient-2" x1="426.55" y1="59.06" x2="743.71" y2="59.06" xlink:href="#linear-gradient"/><linearGradient id="linear-gradient-3" x1="332.11" y1="180.9" x2="401.51" y2="180.9" gradientUnits="userSpaceOnUse"><stop offset="0.02"/><stop offset="0.09" stop-color="#1c1c1d"/><stop offset="0.22" stop-color="#58595b"/><stop offset="0.23" stop-color="#505153"/><stop offset="0.27" stop-color="#2d2e2f"/><stop offset="0.31" stop-color="#141515"/><stop offset="0.35" stop-color="#050505"/><stop offset="0.38"/><stop offset="0.59"/><stop offset="0.7" stop-color="#272728"/><stop offset="0.86" stop-color="#58595b"/><stop offset="0.93" stop-color="#565759"/><stop offset="0.95" stop-color="#505152"/><stop offset="0.96" stop-color="#444547"/><stop offset="0.98" stop-color="#343436"/><stop offset="0.99" stop-color="#1f1f20"/><stop offset="1" stop-color="#050505"/><stop offset="1"/></linearGradient><linearGradient id="linear-gradient-4" x1="371.61" y1="113.46" x2="429.49" y2="113.46" gradientUnits="userSpaceOnUse"><stop offset="0" stop-color="#231f20" stop-opacity="0"/><stop offset="0.08" stop-color="#262223" stop-opacity="0.01"/><stop offset="0.15" stop-color="#2f2b2c" stop-opacity="0.05"/><stop offset="0.22" stop-color="#3e3a3b" stop-opacity="0.12"/><stop offset="0.28" stop-color="#535050" stop-opacity="0.22"/><stop offset="0.34" stop-color="#6e6b6c" stop-opacity="0.34"/><stop offset="0.39" stop-color="#8f8d8e" stop-opacity="0.49"/><stop offset="0.45" stop-color="#b7b6b6" stop-opacity="0.67"/><stop offset="0.5" stop-color="#e4e3e3" stop-opacity="0.88"/><stop offset="0.53" stop-color="#fff"/><stop offset="0.56" stop-color="#e9e9e9" stop-opacity="0.9"/><stop offset="0.63" stop-color="#b6b4b5" stop-opacity="0.67"/><stop offset="0.7" stop-color="#898787" stop-opacity="0.46"/><stop offset="0.77" stop-color="#646162" stop-opacity="0.3"/><stop offset="0.83" stop-color="#484445" stop-opacity="0.17"/><stop offset="0.89" stop-color="#333031" stop-opacity="0.07"/><stop offset="0.95" stop-color="#272324" stop-opacity="0.02"/><stop offset="1" stop-color="#231f20" stop-opacity="0"/></linearGradient><linearGradient id="linear-gradient-5" x1="92.2" y1="163.7" x2="366.69" y2="163.7" gradientUnits="userSpaceOnUse"><stop offset="0" stop-color="#6d6e70"/><stop offset="0.16" stop-color="#6f7072"/><stop offset="0.23" stop-color="#777879"/><stop offset="0.29" stop-color="#838486"/><stop offset="0.34" stop-color="#969798"/><stop offset="0.38" stop-color="#aeaeaf"/><stop offset="0.42" stop-color="#cbcbcc"/><stop offset="0.46" stop-color="#ededed"/><stop offset="0.47" stop-color="#fff"/><stop offset="0.48" stop-color="#f7f7f7"/><stop offset="0.53" stop-color="#d2d2d3"/><stop offset="0.58" stop-color="#b3b3b4"/><stop offset="0.63" stop-color="#999a9b"/><stop offset="0.69" stop-color="#858688"/><stop offset="0.76" stop-color="#78787a"/><stop offset="0.85" stop-color="#6f7072"/><stop offset="1" stop-color="#6d6e70"/></linearGradient><linearGradient id="linear-gradient-6" x1="-261.71" y1="163.7" x2="12.78" y2="163.7" gradientTransform="matrix(-1, 0, 0, 1, 450, 0)" xlink:href="#linear-gradient-5"/></defs><title>glass</title><g class="cls-2"><g id="Réteg_1" data-name="Réteg 1"><path class="cls-3" d="M247.3,196.67c0,3.41-15.92,6.17-35.55,6.17s-35.55-2.76-35.55-6.17,15.92-6.16,35.55-6.16S247.3,193.27,247.3,196.67Z"/><path class="cls-4" d="M622.18,196.67c0,3.41-15.92,6.17-35.55,6.17s-35.54-2.76-35.54-6.17,15.91-6.16,35.54-6.16S622.18,193.27,622.18,196.67Z"/><g class="cls-2"><g class="cls-5"><g class="cls-2"><path class="cls-6" d="M96.92,84.21v3.57c0-.46,0-.91,0-1.35V82.86c0,.45,0,.9,0,1.35"/></g></g></g><g class="cls-7"><path class="cls-8" d="M217.32,190.06c0-.23,0-.44.05-.69s0-.73,0-1.11c0-.21,0-.41,0-.63,0-.63,0-1.29,0-2v-3.57q0,1.08,0,2c0,.23,0,.42,0,.64,0,.37,0,.76,0,1.1s0,.47-.05.7,0,.55-.06.8,0,.43-.07.64-.05.43-.08.62-.08.47-.12.69-.05.31-.08.45-.09.36-.14.53-.07.26-.1.37a5.4,5.4,0,0,1-.38.89,1.12,1.12,0,0,1-.13.24,2,2,0,0,1-.19.28l-.16.2a1.45,1.45,0,0,1-.22.21.86.86,0,0,1-.18.14,1.14,1.14,0,0,1-.23.15l-.19.1-.26.1a1.06,1.06,0,0,1-.19.06l-.3.08-.18,0c-.12,0-.25,0-.38.06l-.13,0-.53.07c-.18,0-.37,0-.56.08-3.29,0-5.93-5.33-7.39-12.89-1.54-7.92-3.75-22.49-8-38.53C192.81,126.18,177.6,97.75,175.56,96c-3.44-3.07-18.38-3.58-42.12-6.26-22.91-2.57-35.84-5.33-36.52-5.48v3.57c.68.14,13.61,2.9,36.52,5.47,23.74,2.69,38.68,3.2,42.12,6.27,2,1.8,17.25,30.22,21.46,45.94,4.3,16,6.51,30.61,8,38.53,1.46,7.56,4.1,12.91,7.39,12.88l.56-.08.53-.07h.13l.38-.06.18,0,.3-.07.19-.06.27-.11.18-.09.24-.15.17-.14.22-.22c.05-.06.11-.12.16-.19s.13-.19.2-.29l.09-.15,0-.08a6.26,6.26,0,0,0,.38-.89s0,0,0,0,.06-.21.09-.32.1-.35.14-.55.05-.29.08-.44.09-.44.12-.69c0,0,0-.06,0-.1s0-.35.06-.52.05-.42.07-.65S217.31,190.33,217.32,190.06Z"/><path class="cls-9" d="M122.61,60.56a8.56,8.56,0,0,1,2.9.43c7.16,2.55,32.57,14.29,42.4,18.11,11.29,4.39,16,7.75,16.22,7.92,13.66,12.75,28,47.59,30,56.65,1.67,7.46,3.05,22.2,3.31,36.24s-1.91,12.88-5,13.4c-3.29,0-5.93-5.33-7.39-12.89-1.54-7.92-3.75-22.49-8-38.53C192.81,126.18,177.6,97.75,175.56,96c-3.44-3.07-18.38-3.58-42.12-6.26-22.91-2.57-35.84-5.33-36.52-5.48C95.78,69.46,113.61,60.56,122.61,60.56Z"/></g><g class="cls-7"><path class="cls-8" d="M580.71,190.06c0-.23,0-.44-.05-.69s0-.73,0-1.11c0-.21,0-.41,0-.63,0-.63,0-1.29,0-2v-3.57q0,1.08,0,2c0,.23,0,.42,0,.64,0,.37,0,.76,0,1.1s0,.47.05.7,0,.55.06.8.05.43.08.64a5.82,5.82,0,0,0,.08.62c0,.25.07.47.11.69l.09.45c0,.19.09.36.14.53a3.29,3.29,0,0,0,.1.37,5.43,5.43,0,0,0,.37.89c0,.09.09.16.13.24a3.39,3.39,0,0,0,.2.28,1.56,1.56,0,0,0,.16.2,2.08,2.08,0,0,0,.21.21l.18.14a1.5,1.5,0,0,0,.23.15l.19.1.26.1a1.17,1.17,0,0,0,.2.06l.3.08.18,0c.12,0,.24,0,.37.06l.14,0,.52.07c.18,0,.37,0,.56.08,3.3,0,5.93-5.33,7.39-12.89,1.55-7.92,3.75-22.49,8.06-38.53,4.21-15.71,19.41-44.14,21.45-45.94,3.44-3.07,18.39-3.58,42.13-6.26,22.91-2.57,35.83-5.33,36.51-5.48v3.57c-.68.14-13.6,2.9-36.51,5.47-23.74,2.69-38.69,3.2-42.13,6.27-2,1.8-17.24,30.22-21.45,45.94-4.31,16-6.51,30.61-8.06,38.53-1.46,7.56-4.09,12.91-7.39,12.88l-.56-.08-.52-.07h-.14l-.37-.06-.18,0-.31-.07-.18-.06-.27-.11-.18-.09-.25-.15-.16-.14a2.28,2.28,0,0,1-.22-.22,1.46,1.46,0,0,1-.16-.19,3,3,0,0,1-.2-.29l-.1-.15,0-.08a6.29,6.29,0,0,1-.37-.89s0,0,0,0-.06-.21-.09-.32-.1-.35-.14-.55-.06-.29-.09-.44-.08-.44-.11-.69a.36.36,0,0,1,0-.1c0-.16,0-.35-.06-.52s-.06-.42-.08-.65S580.73,190.33,580.71,190.06Z"/><path class="cls-9" d="M675.43,60.56a8.59,8.59,0,0,0-2.91.43c-7.15,2.55-32.56,14.29-42.4,18.11-11.28,4.39-16,7.75-16.21,7.92-13.67,12.75-28,47.59-30,56.65-1.67,7.46-3,22.2-3.31,36.24s1.91,12.88,5,13.4c3.3,0,5.93-5.33,7.39-12.89,1.55-7.92,3.75-22.49,8.06-38.53,4.21-15.71,19.41-44.14,21.45-45.94,3.44-3.07,18.39-3.58,42.13-6.26,22.91-2.57,35.83-5.33,36.51-5.48C702.26,69.46,684.43,60.56,675.43,60.56Z"/></g><g class="cls-2"><g class="cls-10"><g class="cls-2"><path class="cls-6" d="M416.2,143l5.34,5.35c-.51-.51-1.05-1-1.62-1.58l-5.34-5.35c.58.55,1.11,1.07,1.62,1.58"/></g></g></g><path class="cls-11" d="M356.67,91.32,351.33,86c15.8,15.83,8.33,45.68,7.93,47.29-13.58,52.64-46.17,92.43-63.16,108.07-.39.36-.85.75-1.35,1.16l-.27.22c-.49.39-1,.81-1.63,1.24l-.34.25c-.63.45-1.3.92-2,1.41h0c-.72.48-1.5,1-2.31,1.48l-.45.28c-.8.49-1.65,1-2.53,1.5l-.53.3c-.93.53-1.89,1.06-2.91,1.6l-.08.05c-1,.52-2,1-3.11,1.58l-.61.31c-1.06.52-2.17,1-3.31,1.56l-.93.42-1.58.71-1.12.48-1.63.68-1.15.47-1.76.68-1.12.44-2.17.79-.8.29c-1,.35-2,.7-3,1l-1,.31c-.73.24-1.45.47-2.19.69l-1.25.37-2,.58-1.34.37-2,.53-1.19.3c-1.46.36-3,.71-4.46,1l-.61.12c-1.38.29-2.78.55-4.2.8l-.94.17c-1.53.26-3.08.49-4.65.7l-1,.13c-1.49.19-3,.36-4.52.49l-.5.05c-1.57.14-3.16.24-4.75.32l-1.18,0c-1.63.06-3.27.11-4.92.11-1.2,0-2.41,0-3.61-.06l-1.21-.05-2.43-.12-1.29-.09c-1-.07-2-.15-2.94-.25l-1.29-.13c-1.26-.13-2.52-.29-3.78-.47l-.33,0c-1.37-.2-2.73-.43-4.1-.69l-1.24-.24c-1-.2-2-.41-3-.64l-1.23-.28c-1.55-.37-3.11-.77-4.67-1.21l-.82-.25c-1.39-.41-2.77-.84-4.16-1.31l-1-.34c-1.57-.54-3.13-1.13-4.7-1.75l-1-.4c-1.39-.58-2.78-1.18-4.17-1.82-.31-.14-.61-.27-.91-.42-.83-.39-1.67-.81-2.5-1.23L165,255c-1.22-.64-2.45-1.3-3.67-2q-2.25-1.28-4.4-2.59c-.57-.35-1.11-.71-1.68-1.07-.85-.53-1.7-1.07-2.53-1.61-2.13-1.41-4.16-2.85-6.14-4.32-.57-.42-1.17-.84-1.73-1.27l-.59-.47c-1-.8-2.07-1.61-3.07-2.43l-1-.82c-2-1.69-4-3.41-5.86-5.16-.54-.5-1.06-1-1.59-1.53s-1.06-1-1.57-1.53l5.34,5.34a139.44,139.44,0,0,0,30.13,22.81c1.21.69,2.44,1.34,3.66,2l1.23.61c.82.41,1.64.82,2.46,1.21l.31.15c.2.1.4.17.59.26,1.39.64,2.79,1.25,4.18,1.83l1,.39q2.34.94,4.7,1.76l1,.34c1.39.46,2.78.9,4.16,1.31l.81.24c1.57.45,3.13.85,4.7,1.22l.42.11.76.16c1,.24,2.07.45,3.11.66l1.18.23c1.38.25,2.76.49,4.13.69l.19,0c1.32.19,2.63.35,3.94.49l1.19.12c1,.1,2.05.19,3.07.26l.72.06.46,0c.86.05,1.71.09,2.57.12l1.1.05c1.21,0,2.42.05,3.63.05,1.66,0,3.31,0,4.94-.11l1.13-.05c1.62-.07,3.22-.18,4.81-.31h.09l.28,0c1.58-.14,3.13-.32,4.67-.51l.95-.12c1.59-.21,3.16-.45,4.72-.71l.86-.15c1.44-.26,2.87-.53,4.29-.82l.55-.11c1.52-.32,3-.67,4.48-1l.46-.11.73-.19,2.06-.54,1.29-.35,2.09-.61,1.16-.34,2.37-.75.78-.25,3.1-1.05.44-.16,2.54-.94.91-.35,2-.77,1-.41,1.78-.75,1-.42c.59-.25,1.17-.51,1.74-.77l.56-.25.24-.11c1.16-.53,2.29-1.07,3.38-1.6l.53-.27c2.23-1.1,4.29-2.2,6.19-3.28l.47-.26c.89-.52,1.75-1,2.57-1.53l.41-.25c1.65-1,3.11-2,4.38-2.92l.33-.24c.59-.43,1.14-.85,1.63-1.25l.27-.21c.5-.41,1-.8,1.35-1.16,17-15.64,49.58-55.43,63.16-108.07C365,137,372.47,107.15,356.67,91.32Z"/><path class="cls-12" d="M745.71,38.55c5.75,1,8.77,8.14,8.23,13.41C752.66,63.38,728.25,280.63,579,280.63a53.53,53.53,0,0,1-7.26.39C554,281,507,275.54,469.31,222.59c-43.45-64.69-39.44-66.4-52-78.44-6.65-5.86-12.56-6.48-15.08-6.61-2.49.13-8.41.75-15.13,6.61-12.72,12-8.74,13.75-52.89,78.44-38.3,53-85.34,58.43-103.09,58.43a53.36,53.36,0,0,1-7.26-.39C74.58,280.63,52.54,63.38,51.38,52c-.46-5.27,2.62-12.4,8.41-13.41,3.43-.62,25.27-2.79,61.84-2.79,24.74,0,56.22,1,93.32,4.13,92,7.83,153.68,38.22,156.92,39.83,16.87,8.56,27.88,9.73,30.6,9.9,2.7-.17,13.74-1.34,30.69-9.9,3.26-1.61,65.29-32,157.36-39.83,37.13-3.13,68.62-4.13,93.36-4.13C720.45,35.76,742.26,37.93,745.71,38.55ZM709.2,146.68c3.49-17.82,7.73-56.18-19.75-73.68-21.06-13.38-56.16-18.51-93.52-18.51-11.42,0-23.06.48-34.58,1.34-49.14,3.71-94.3,18.86-111.87,34.34s-10.09,46.78-9.71,48.44c13,52.64,45.18,92.43,62,108.07,8.22,7.66,40.51,26.05,79.19,26.05a111.68,111.68,0,0,0,55.39-14.35c61.07-34.39,69.4-93.87,72.84-111.7m-344.6-8.07c.41-1.66,8.25-33-9.15-48.44S293,59.54,243.94,55.83c-11.49-.86-23.13-1.34-34.57-1.34-37.35,0-72.5,5.13-93.71,18.51C88,90.5,91.82,128.86,95.07,146.68s11,77.31,71.64,111.7a110.77,110.77,0,0,0,55.23,14.35c38.68,0,71.18-18.39,79.5-26.05,17-15.64,49.58-55.43,63.16-108.07"/><path class="cls-11" d="M696.94,79l-5.34-5.35c19.12,19.16,15.39,51.69,12.26,67.69C700.42,159.17,692.09,218.64,631,253c-1.33.74-2.65,1.44-4,2.12l-1.25.62c-.93.46-1.85.91-2.78,1.34l-1.31.59c-1.13.51-2.26,1-3.39,1.45l-1,.4c-1.42.56-2.84,1.09-4.25,1.58l-1,.32c-1.13.39-2.26.75-3.38,1.09l-1.27.38c-1.18.34-2.35.66-3.52,1l-.78.2c-1.34.34-2.68.64-4,.92l-1,.18c-1,.2-2,.4-3.06.57l-1.35.22-2.72.39-1.33.18-3.12.33-.81.08c-1.53.13-3.05.23-4.57.29l-1.09.05c-1.53.06-3.05.1-4.55.1-1.3,0-2.59,0-3.88-.06l-1.28-.06-2.57-.13-1-.07c-1.59-.12-3.16-.25-4.72-.42l-.49,0c-1.65-.18-3.28-.4-4.89-.64l-1-.16c-1.59-.25-3.17-.52-4.72-.81l-.63-.13c-1.44-.29-2.87-.59-4.28-.92-.27-.06-.54-.11-.8-.18-1.23-.29-2.45-.59-3.65-.9l-.61-.17c-1-.27-2-.54-3-.83l-1.16-.34c-.81-.25-1.61-.49-2.4-.75-.38-.12-.75-.23-1.12-.36-1-.31-1.91-.63-2.84-1l-.48-.17c-1.08-.38-2.14-.77-3.19-1.17l-.91-.35-2.24-.89-1-.4c-.76-.31-1.51-.63-2.24-1l-.71-.31c-1-.42-1.89-.84-2.8-1.27l-.35-.16c-1-.49-2-1-3-1.46l-.57-.28c-1-.51-2-1-2.9-1.52l-.57-.31c-.88-.49-1.75-1-2.57-1.45l-.18-.1c-.85-.5-1.66-1-2.44-1.47l-.5-.32c-.74-.47-1.45-.94-2.12-1.38l-.29-.21c-.6-.41-1.17-.81-1.7-1.2a3.3,3.3,0,0,1-.3-.22c-.56-.41-1.08-.81-1.55-1.19l-.29-.24c-.46-.39-.9-.76-1.27-1.11q-1.6-1.49-3.38-3.26l5.34,5.35q1.77,1.77,3.38,3.26c.37.34.8.71,1.26,1.1l.31.25c.47.38,1,.77,1.53,1.18l.31.24,1.69,1.19.31.2c.66.45,1.37.92,2.11,1.39l.5.31c.78.49,1.59,1,2.44,1.48l.17.09c.83.48,1.69,1,2.59,1.46l.55.3c.94.51,1.91,1,2.92,1.53l.55.27c1,.49,2,1,3,1.46a1.92,1.92,0,0,0,.25.12l.1.05c.91.43,1.84.85,2.8,1.27l.71.31,2.24.95,1,.39c.74.31,1.51.61,2.28.91l.85.33c1.06.4,2.14.8,3.23,1.18a3.4,3.4,0,0,0,.34.12c1,.34,2,.68,3,1l1,.33c.84.27,1.68.53,2.54.78l1,.31c1.06.31,2.14.62,3.24.91l.34.09c1.23.32,2.47.63,3.73.93l.25.06.43.09c1.45.34,2.92.65,4.41,1l.57.11c1.56.3,3.15.57,4.76.82.32.05.65.11,1,.15,1.63.25,3.27.47,4.94.65l.42,0c1.58.17,3.17.31,4.78.42l.59.06.43,0,2.63.13,1.2.05c1.29,0,2.59.06,3.89.06,1.52,0,3,0,4.58-.09l1.05-.05c1.53-.07,3.07-.16,4.61-.3h.1c.19,0,.37-.05.56-.06,1.08-.1,2.18-.22,3.27-.35l1.28-.17c.92-.12,1.84-.25,2.77-.4l1.32-.21c1-.18,2-.37,3.08-.58l.94-.18c1.34-.28,2.68-.58,4-.91l.16,0,.56-.15c1.19-.31,2.37-.63,3.56-1l1.26-.37c1.13-.34,2.27-.71,3.41-1.1l.93-.31c1.42-.49,2.84-1,4.26-1.59.32-.12.63-.26.95-.39,1.13-.46,2.27-.95,3.4-1.45l.66-.29c.22-.09.43-.21.65-.3.92-.43,1.84-.88,2.76-1.34l1.28-.63c1.31-.67,2.64-1.37,4-2.11,61.07-34.39,69.4-93.87,72.84-111.7C712.33,130.68,716.06,98.15,696.94,79Z"/><path class="cls-11" d="M469.31,222.59c-41.54-61.84-39.71-66.12-50.47-76.9l-5.34-5.35.05.06-.05-.06c10.37,10.39,9.06,14.76,46.12,70.4l4.35,6.5A162.78,162.78,0,0,0,481.4,238l5.34,5.35A162.78,162.78,0,0,1,469.31,222.59Z"/><path class="cls-11" d="M747.44,39.1c.16.07.31.13.46.21a7.07,7.07,0,0,1,.84.49l.38.25a9.38,9.38,0,0,1,1.08.92l-5.34-5.34a9.47,9.47,0,0,0-1.08-.93l-.39-.25a7,7,0,0,0-.83-.49c-.06,0-.12-.08-.19-.11s-.18-.06-.27-.1a8.29,8.29,0,0,0-1-.35c-.1,0-.2-.08-.3-.1a3.43,3.43,0,0,0-.44-.09l-.81-.13-.49-.06-.7-.09-.72-.09-.85-.09-.91-.09-1-.11-1.13-.1-1.18-.11-1.34-.11-1.36-.11-1.5-.11-1.58-.11-1.65-.12-.38,0-2.5-.16-.82-.05L718,31.36l-.71,0-3.94-.19-.37,0L708.81,31l-.59,0-4.56-.15-.85,0L698,30.63l-.91,0-5.16-.09H691l-5.59-.07h-.7c-2,0-4.08,0-6.21,0-24.73,0-56.23,1-93.36,4.13l-1.3.11-1.89.19c-2.61.23-5.19.49-7.74.76-1.09.12-2.17.23-3.24.36q-3.66.41-7.24.87l-2.64.33q-4.78.63-9.43,1.34l-1.65.26c-2.57.4-5.1.8-7.6,1.23l-2.87.5c-2.18.38-4.32.77-6.44,1.17l-2.59.49q-4.31.84-8.46,1.71l-.82.18c-2.51.53-5,1.08-7.38,1.63l-2.59.6c-1.86.44-3.71.88-5.52,1.33l-1.55.37-1.12.29-3.51.9c-1,.25-2,.51-3,.78l-3.48.94-2.77.76c-1.19.33-2.33.66-3.49,1l-2.51.72-3.69,1.1-2,.61c-1.79.55-3.53,1.1-5.24,1.65l-.54.17L468,58.48l-1.81.61c-1,.35-2.09.7-3.09,1l-1.95.69-2.67.94-1.94.7-2.35.87-1.92.71-2.08.79-1.83.71-1.87.73-1.69.67-1.69.68-1.58.65-1.46.6-1.46.62-1.27.54-1.33.57-1,.45-1.23.55L433,72l-.82.37-.31.14c-.18.08-.33.16-.51.23l-1,.49-.29.13-.9.42-.07,0-1.23.59c-1.49.76-2.92,1.43-4.31,2.08l-1.19.54-1.16.51-1.58.67-1.06.44-1.57.62-.94.37-1.71.62c-.22.08-.44.17-.66.24-.76.27-1.51.52-2.22.75l-.43.13-1.66.51-.72.21-1.23.34-.72.19-1.12.28L405,83l-1.14.26-.4.09-1.39.27-.21,0-1,.17-.38.06-.74.11-.33,0-.72.09h-.15l-.74.08-.63,0c-.33,0-.78,0-1.36-.12l-.18,0-.72-.08-.3,0-.77-.11-.37-.06-.95-.16-.32-.06-1.44-.28-.15,0c-.43-.09-.89-.19-1.37-.31l-.95-.23-.9-.23-1-.28-1-.28-1.1-.33-1.07-.33L382,80.91l-1.15-.39-1.26-.46-1.23-.45c-.44-.16-.89-.35-1.34-.52l-1.31-.52-1.41-.6-1.38-.59c-.49-.21-1-.45-1.5-.68L370,76.06c-1.13-.53-2.28-1.08-3.47-1.69l-1.24-.6-.08,0-1-.49-.11,0-.22-.11-1.16-.53-.15-.07c-1-.47-2.21-1-3.59-1.61l-.37-.17-2.09-.9-.48-.2-2.25-.95-.23-.1-2.59-1.07-.68-.27-2.78-1.11-.69-.27c-.92-.37-1.87-.73-2.85-1.11l-.43-.16-3.32-1.25-.87-.33-3.51-1.27-.83-.3-3.42-1.21c-.23-.07-.44-.15-.65-.23l-4-1.36-1-.35c-1.38-.46-2.78-.92-4.22-1.38l-.86-.27-4.09-1.29-.81-.25c-1.52-.47-3.09-.94-4.67-1.41L310,53.31c-1.61-.48-3.24-1-4.91-1.42l-.9-.25-4.67-1.29-1-.27-5.28-1.38-1.34-.34c-1.83-.46-3.67-.92-5.55-1.37l-.88-.21-2.87-.68-1.28-.29-5-1.13-2.66-.58c-2-.42-3.94-.82-5.94-1.23l-2-.4c-2.66-.52-5.38-1-8.13-1.54l-1.75-.3c-2.18-.39-4.38-.77-6.62-1.14l-3-.47c-1.89-.29-3.78-.59-5.7-.87l-3.33-.47q-2.82-.41-5.67-.76c-1.13-.15-2.26-.3-3.4-.43-2.05-.26-4.13-.49-6.22-.72l-3-.33c-3.11-.32-6.23-.62-9.41-.89-3.69-.31-7.32-.6-10.91-.87L197,33.55c-3.42-.25-6.78-.49-10.1-.71l-.86-.06-1-.06-8.9-.54-.45,0c-2.8-.16-5.55-.3-8.27-.44l-1.73-.08c-2.78-.13-5.51-.26-8.19-.36l-1.18-.05-7.2-.26-1.36,0-7.51-.21-1.53,0-6.55-.13h-.93q-3.51-.06-6.87-.08l-1.54,0-6.6,0c-2,0-4,0-6,0h-1.65l-4.5.05-1.23,0-5.28.09-1.19,0-4,.11-1.36,0-4.62.16h-.43l-3.93.16-1.27.06-3.18.15-.85,0-3.57.2-1,.06-2.45.15-1,.07L66,32l-.6.05-2,.16-.88.07-.52,0-1.47.13-.37,0-1.65.16-.28,0-1.47.16-.28,0-1.1.15-.15,0c-.31,0-.58.08-.77.12l-.57.12-.18.06a7.69,7.69,0,0,0-1.05.37l-.15.05,0,0a9,9,0,0,0-1.42.86l-.22.16a9.6,9.6,0,0,0-1.2,1.1l-.2.22a12.91,12.91,0,0,0-1,1.32l-.12.2a16.65,16.65,0,0,0-.83,1.49.79.79,0,0,1,0,.09,14.05,14.05,0,0,0-.63,1.63c0,.09-.07.18-.1.28a15.14,15.14,0,0,0-.4,1.61l-.06.32c-.09.54-.16,1.08-.2,1.62V45a11.17,11.17,0,0,0,0,1.64c.84,8.28,12.66,124.79,76,188.22l5.34,5.34h0c-.42-.42-.83-.85-1.25-1.28s-1.13-1.14-1.68-1.73c-1.82-1.92-3.6-3.89-5.33-5.89l-.31-.35c-.5-.57-1-1.16-1.47-1.75l-1.25-1.47c-.67-.82-1.33-1.66-2-2.49l-.64-.8c-1.72-2.19-3.39-4.41-5-6.68l0-.06q-3.26-4.54-6.27-9.25c-1-1.6-2.05-3.21-3-4.84l-.1-.17c-2.76-4.54-5.36-9.17-7.82-13.85-1.15-2.19-2.27-4.4-3.35-6.61q-1.31-2.64-2.55-5.3-2.54-5.44-4.83-10.91l-.19-.45c-1.4-3.33-2.72-6.66-4-10q-1-2.58-1.93-5.15l-.12-.33c-4.45-12.25-8.08-24.26-11-35.46q-.67-2.57-1.3-5.07c-2.32-9.29-4.16-17.93-5.61-25.57-.13-.68-.25-1.35-.38-2-1.13-6.11-2-11.54-2.67-16.08-.17-1.11-.32-2.17-.46-3.18-.35-2.51-.62-4.68-.83-6.44,0-.43-.1-.83-.14-1.21-.09-.75-.17-1.42-.23-2-.09-.85-.15-1.47-.19-1.86a11.17,11.17,0,0,1,0-1.64v-.25a12.87,12.87,0,0,1,.2-1.61l.06-.32a15.94,15.94,0,0,1,.4-1.62l.09-.27a16.2,16.2,0,0,1,.64-1.63l0-.08A17,17,0,0,1,53.62,43l.12-.19a12.18,12.18,0,0,1,1-1.32c.06-.08.13-.15.2-.23a9.6,9.6,0,0,1,1.2-1.1l.22-.15a8,8,0,0,1,1.43-.86,1,1,0,0,1,.16-.06,6.58,6.58,0,0,1,1.08-.38c.24-.07.48-.14.74-.19l.77-.12.15,0,1.13-.14.21,0,1.52-.17.22,0,1.8-.18.23,0,2.11-.19.71-.06,2.25-.18.42,0,3-.21.8,0L77.72,37l.84-.05,3.68-.2.65,0,3.39-.16,1.16,0,4.09-.17h.29l4.66-.15,1.33,0,4-.1L103,36l5.3-.1h1.15L114,35.8h1.61c2,0,3.94,0,6,0l6.61,0h1.54l6.86.08.94,0c2.14,0,4.31.08,6.53.13l1.56,0,7.46.21,1.48,0,7,.25,1.33.06c2.66.1,5.38.22,8.12.36l1.8.08c2.66.13,5.35.27,8.09.43l.63,0,8.83.54,1.88.12c3.31.22,6.67.45,10.08.71L204,39c3.59.28,7.21.56,10.91.87,3.17.27,6.3.58,9.4.9,1,.1,2,.22,3,.33,2.09.23,4.16.46,6.22.71l3.39.43,5.67.76c1.12.16,2.23.31,3.34.48,1.92.28,3.81.57,5.7.87l3,.47c2.24.37,4.44.75,6.62,1.13l1.75.31q4.13.75,8.13,1.54l1.95.4c2,.4,4,.81,5.94,1.23l2.66.58c1.69.37,3.36.74,5,1.13l4.15,1,.88.21,5.54,1.37,1.35.35,5.29,1.38,1,.27c1.58.42,3.13.85,4.66,1.28l.93.26,4.89,1.41,1.2.35,4.67,1.41.82.26c1.38.42,2.74.85,4.06,1.28l.88.28,4.21,1.37,1.07.36,4,1.36.69.24c1.16.4,2.28.79,3.39,1.19l.86.31c1.18.42,2.34.84,3.46,1.26l.94.35,3.25,1.22.55.21,2.7,1.05.79.31,2.69,1.07.8.33,2.41,1,.49.21,2,.84.65.28c.67.29,1.32.56,1.92.83l.62.27,1.44.64.63.29,1.17.52.5.23,1.09.51.47.22.75.36.18.08,1.2.59c1.19.6,2.34,1.16,3.47,1.69l.25.13,1.13.5,1.52.69,1.36.58c.47.21,1,.42,1.42.6l1.32.53,1.32.51,1.26.47,1.23.44,1.2.41,1.13.37,1.12.34,1.07.33,1,.28,1,.28.87.22,1,.24.15,0,1.07.24.31.07,1.39.27.44.08.82.15.46.06.66.1.41.06.56.06.33,0,.46,0,.67,0h.19l.67-.05h0l.67-.07.23,0,.65-.07.36-.05.71-.11.39-.06,1-.17.25-.05c.43-.07.89-.17,1.37-.27l.43-.09,1.11-.25.57-.14.45-.1.64-.17.75-.2,1.21-.34.73-.2,1.66-.51.43-.14c.72-.23,1.46-.48,2.23-.75l.61-.22c.57-.2,1.16-.41,1.76-.64l.88-.34,1.64-.65,1-.41,1.67-.71,1.06-.47.75-.34c.17-.07.35-.17.52-.25,1.39-.63,2.8-1.3,4.28-2l.89-.43.46-.23.42-.19.81-.38.53-.25,1-.48.68-.3,1.25-.57.84-.37,1.42-.62,1-.43,1.62-.69,1.13-.47,1.8-.75,1.28-.53,2-.8,1.4-.56,2.18-.85,1.54-.6,2.39-.9,1.62-.61,2.67-1,1.65-.6,3-1.07,1.59-.56,3.65-1.24,1.26-.43c3.38-1.12,6.95-2.27,10.71-3.42l1.58-.48c1.37-.41,2.74-.83,4.15-1.24l2.17-.62c1.27-.37,2.54-.74,3.84-1.1l2.48-.68,3.78-1,2.73-.71,3.8-1L511,53q2.84-.7,5.76-1.38l2.43-.57c2.49-.57,5-1.13,7.58-1.68l.66-.14c2.78-.59,5.62-1.16,8.5-1.72l2.53-.47c2.14-.41,4.3-.8,6.49-1.19l2.85-.49q3.75-.65,7.61-1.24l1.65-.26q4.65-.7,9.43-1.33l2.63-.34q3.58-.45,7.25-.87l3.24-.35c2.55-.28,5.13-.53,7.74-.77l3.19-.3c37.13-3.13,68.62-4.13,93.36-4.13q3.2,0,6.25,0h.64l5.64.06.83,0c1.8,0,3.54.06,5.24.09l.81,0,4.92.12.69,0c1.62,0,3.21.1,4.73.15H714l4.55.19h.11l4.21.2.4,0,3.65.21.59,0,3,.19,1.52.11,1.71.12,1.41.11,1.45.11,1.26.11,1.24.11,1.09.1,1.05.1.91.1.87.09.7.08.72.1.47.06.81.12c.25.05.49.13.73.2A7,7,0,0,1,747.44,39.1Z"/><g class="cls-13"><path class="cls-14" d="M63.79,38.05c13.35-1,26.73-1.6,40.11-2s26.78-.4,40.17-.21c6.7.07,13.39.3,20.08.51,3.35.12,6.69.31,10,.46l5,.24,5,.34c13.38.77,26.71,2.16,40,3.8s26.54,3.66,39.74,5.89,26.36,4.86,39.34,8.17a363.69,363.69,0,0,1,38.32,12.05c12.53,4.73,24.8,10.11,37,15.67-24.43-10.91-49.45-20.72-75.45-27.13-13-3.25-26.12-5.81-39.31-8s-26.46-4.05-39.73-5.74-26.58-3.13-39.94-4l-5-.35-5-.26c-3.34-.17-6.68-.37-10-.5-6.68-.24-13.37-.49-20.06-.59q-20.07-.37-40.15,0C90.53,36.75,77.15,37.21,63.79,38.05Z"/></g><g class="cls-13"><path class="cls-15" d="M426.55,82.83q18.4-8.4,37.31-15.65,9.45-3.6,19.09-6.72c3.2-1.06,6.44-2,9.68-3l4.89-1.32c1.63-.43,3.28-.81,4.91-1.21,13.12-3.17,26.35-5.85,39.63-8.23s26.63-4.42,40.05-5.87c6.72-.74,13.47-1.12,20.19-1.57L622.48,38c13.46-.87,26.93-1.6,40.41-2.08,26.94-.9,54.05-1.14,80.82,2.4a360.51,360.51,0,0,0-40.36-2.41c-13.48-.19-27,.09-40.43.62S636,37.8,622.53,38.71l-20.18,1.43c-6.73.48-13.45.89-20.14,1.64-13.4,1.4-26.73,3.43-40,5.71s-26.5,5-39.62,8.07c-1.63.4-3.27.77-4.9,1.2l-4.89,1.29c-3.23.94-6.47,1.87-9.67,2.91-6.42,2-12.78,4.28-19.09,6.64Q445,74.62,426.55,82.83Z"/></g><g class="cls-13"><path class="cls-16" d="M332.49,224.5,340,212.44l7.57-12,15.23-24,7.63-12a129.5,129.5,0,0,1,7.82-11.89,48,48,0,0,1,10.09-10,29.06,29.06,0,0,1,13.1-5.25,28.88,28.88,0,0,0-12.84,5.61,47.85,47.85,0,0,0-9.79,10.1c-2.82,3.78-5.22,7.84-7.67,11.9l-7.56,12c-5.13,8-10.24,15.94-15.41,23.87l-7.79,11.88Z"/></g><path class="cls-17" d="M429.49,83.84c-10.89,8.85-20,11.57-27.07,11.57s-18.92-4.18-30.81-11.57l12.6,59.24s9.05-7.87,16.34-7.66c9.2-.34,16.35,7.66,16.35,7.66Z"/><path class="cls-18" d="M364.82,138.62s8.1-33.07-9.44-48.58-62.75-30.7-112-34.41-100.87-.34-128.53,17.2-23.62,56-20.24,73.88,11.39,77.52,72.44,112c59.43,33.57,122.94-.54,135-11.71C319,231.31,351.5,191.41,364.82,138.62Z"/><path class="cls-19" d="M439.09,138.62S431,105.55,448.54,90s62.74-30.7,112-34.41,100.87-.34,128.54,17.2,23.61,56,20.24,73.88-11.4,77.52-72.45,112c-59.43,33.57-122.94-.54-135-11.71C484.89,231.31,452.41,191.41,439.09,138.62Z"/></g></g></svg>