<svg id="Layer_1" data-name="Layer 1" xmlns="http://www.w3.org/2000/svg" viewBox="0 0 1200 1200"><defs><style>.cls-1,.cls-2{fill:#fff;}.cls-2{opacity:0.5;}.cls-3{fill:#f9b546;}.cls-4{fill:#f9f9f9;}.cls-5{fill:#b0b0b0;}.cls-6{fill:#fcbe4f;}.cls-7{fill:#0e2a30;}.cls-8{fill:#d4d4d4;}.cls-9{fill:#ffc661;}</style></defs><title>hurra</title><path class="cls-1" d="M192.16,612.21c-1.3-112.82,43.17-225.76,132.26-308.29S529.52,185.68,641.91,195.6l3-2.79q-11.73-1.11-23.61-1.58c-111.12-4.25-217.24,35-298.82,110.6s-128.85,178.38-133.1,289.5q-.45,11.88-.22,23.66Z"/><path class="cls-1" d="M962.3,398.48l2.23-2.06A420.68,420.68,0,0,0,811.29,245.2L809,247.35A413.85,413.85,0,0,1,962.3,398.48Z"/><path class="cls-1" d="M1015.47,555.73c15.86,127.66-27.73,260.93-129.1,354.83C719.12,1065.49,457,1055.47,302.08,888.22A412,412,0,0,1,231,782.73l-2.33,2.15A417.52,417.52,0,0,0,300,890.16c75.57,81.58,178.39,128.85,289.51,133.09s217.24-35,298.83-110.59,128.84-178.38,133.09-289.51a422.13,422.13,0,0,0-3.14-70Z"/><path class="cls-1" d="M304.88,442.51a342.16,342.16,0,0,1,46.51-65.31C475.64,240,686.52,226.9,826.73,345.64l1.84-2a345.4,345.4,0,0,0-479.21,31.76,348.06,348.06,0,0,0-47.71,67.14Z"/><path class="cls-1" d="M263.44,587.49h-2.93a353.51,353.51,0,0,0-.12,36.84,343,343,0,0,0,104.71,231l1.84-2C292.92,781.68,258,683.82,263.44,587.49Z"/><path class="cls-1" d="M909.2,442.51q-5.22-9.6-11-18.86l-2,2.22q5.11,8.2,9.71,16.64Z"/><path class="cls-1" d="M950.25,587.49h-2.92a341.58,341.58,0,0,1-87.92,249.8c-105,116-271.95,143.24-405.77,77.19l-2,2.22A345.54,345.54,0,0,0,950.41,590.16C950.37,589.27,950.3,588.38,950.25,587.49Z"/><path class="cls-1" d="M745.24,950.55c5-2.11,10.1-4.35,15-6.68l-1.16-2.47c-4.9,2.31-9.92,4.54-14.92,6.62Z"/><path class="cls-1" d="M305.53,827.79l-2.2,1.63c3.27,4.38,6.66,8.74,10.1,13l2.13-1.73C312.14,836.46,308.76,832.13,305.53,827.79Z"/><path class="cls-1" d="M287.23,800.83l-2.33,1.44c2.85,4.62,5.85,9.27,8.91,13.77l2.26-1.53C293,810,290.06,805.43,287.23,800.83Z"/><path class="cls-1" d="M247.56,711.61l-2.62.77c1.54,5.25,3.21,10.52,5,15.68l2.59-.88C250.75,722.06,249.09,716.82,247.56,711.61Z"/><path class="cls-1" d="M348.92,876.39l-1.87,2c4,3.73,8.09,7.42,12.24,11l1.78-2.08C357,883.77,352.87,880.09,348.92,876.39Z"/><path class="cls-1" d="M271.38,772.33l-2.45,1.22c2.44,4.88,5,9.78,7.68,14.55l2.39-1.33C276.36,782,273.8,777.18,271.38,772.33Z"/><path class="cls-1" d="M258.12,742.5l-2.54,1c2,5.09,4.12,10.2,6.34,15.18l2.5-1.11C262.22,752.62,260.1,747.55,258.12,742.5Z"/><path class="cls-1" d="M714.36,961.85c5.2-1.64,10.44-3.43,15.56-5.3L729,954c-5.08,1.86-10.28,3.64-15.45,5.27Z"/><path class="cls-1" d="M649.86,973.38l.35,2.71c5.41-.71,10.88-1.55,16.26-2.5L666,970.9C660.66,971.84,655.23,972.67,649.86,973.38Z"/><path class="cls-1" d="M682,967.72l.59,2.66c5.33-1.18,10.71-2.5,16-3.91l-.71-2.64C692.64,965.23,687.3,966.54,682,967.72Z"/><path class="cls-1" d="M373.68,897.66,372,899.82c4.3,3.37,8.72,6.7,13.16,9.87l1.59-2.23C382.34,904.32,377.94,901,373.68,897.66Z"/><path class="cls-1" d="M400.22,916.69l-1.5,2.29c4.58,3,9.28,5.9,14,8.68l1.4-2.35C409.43,922.55,404.76,919.66,400.22,916.69Z"/><path class="cls-1" d="M468.06,951.53c-3.44-1.34-6.86-2.71-10.23-4.14l-1.07,2.52c3.85,1.64,7.78,3.2,11.7,4.71Z"/><path class="cls-1" d="M428.34,933.31l-1.29,2.42c4.82,2.57,9.77,5.06,14.7,7.41l1.17-2.46C438,938.34,433.13,935.86,428.34,933.31Z"/><path class="cls-1" d="M326.15,853l-2,1.82c3.63,4.07,7.4,8.11,11.21,12l2-1.91C333.5,861.09,329.75,857.08,326.15,853Z"/><path class="cls-1" d="M316.46,373.19l-2.11-1.74c-3.47,4.23-6.89,8.58-10.15,12.94l2.19,1.64C309.63,381.7,313,377.38,316.46,373.19Z"/><path class="cls-1" d="M360.31,324.55c-4.13,3.54-8.25,7.22-12.25,10.95l1.87,2c4-3.7,8.05-7.36,12.16-10.87Z"/><path class="cls-1" d="M336.31,347c-3.82,3.89-7.6,7.93-11.25,12l2,1.83c3.62-4,7.37-8,11.16-11.9Z"/><path class="cls-1" d="M383.86,306c-3.65,2.65-7.29,5.36-10.83,8.12l1.69,2.16c3.12-2.44,6.32-4.84,9.54-7.19Z"/><path class="cls-1" d="M537,244l-.48-2.69c-4.85.86-9.73,1.83-14.56,2.89l.36,2.72C527.22,245.88,532.15,244.89,537,244Z"/><path class="cls-1" d="M617.48,976.21l.35,2.72c5.33-.24,10.72-.59,16-1l-.24-2.73C628.28,975.62,622.84,976,617.48,976.21Z"/><path class="cls-1" d="M294.62,397.77c-3.08,4.5-6.1,9.14-9,13.78L288,413c2.86-4.6,5.86-9.21,8.92-13.68Z"/><path class="cls-1" d="M277.27,425.72c-2.67,4.76-5.27,9.65-7.73,14.53l2.44,1.24c2.44-4.85,5-9.7,7.68-14.43Z"/><path class="cls-1" d="M240.86,517.3c-1.32,5.3-2.55,10.71-3.64,16.08l2.68.54c1.08-5.32,2.3-10.69,3.62-16Z"/><path class="cls-1" d="M262.45,455.11c-2.25,5-4.41,10.09-6.43,15.17l2.54,1c2-5,4.15-10.11,6.38-15.05Z"/><path class="cls-1" d="M250.27,485.72c-1.79,5.16-3.49,10.44-5.05,15.68l2.62.78c1.55-5.2,3.24-10.44,5-15.57Z"/><path class="cls-1" d="M958.09,713.85c1.57-5.25,3-10.6,4.37-15.89l-2.65-.67c-1.32,5.26-2.78,10.56-4.34,15.77Z"/><path class="cls-1" d="M939.17,457.66l2.5-1.1c-2.21-5-4.57-10-7-14.89l-2.46,1.22C934.63,447.74,937,452.72,939.17,457.66Z"/><path class="cls-1" d="M888.12,374.53l2.12-1.73c-3.45-4.23-7-8.44-10.65-12.51l-2.05,1.83C881.14,366.15,884.7,370.33,888.12,374.53Z"/><path class="cls-1" d="M775,936.53c4.82-2.53,9.64-5.21,14.34-8L788,926.21c-4.66,2.73-9.46,5.39-14.23,7.91Z"/><path class="cls-1" d="M907.57,400.68l2.27-1.53c-3.06-4.51-6.26-9-9.51-13.39l-2.19,1.63C901.37,391.73,904.54,396.21,907.57,400.68Z"/><path class="cls-1" d="M602.82,238.29v-2.74c-5.45,0-11,.11-16.44.34l.11,2.73C591.91,238.39,597.41,238.28,602.82,238.29Z"/><path class="cls-1" d="M553.17,241.53l.8-.1c5.39-.7,10.85-1.3,16.23-1.76l-.24-2.73c-5.42.47-10.91,1.07-16.35,1.78l-.79.1Z"/><path class="cls-1" d="M635.42,239.79l.25-2.72c-5.44-.5-11-.87-16.41-1.12l-.12,2.73C624.55,238.93,630,239.3,635.42,239.79Z"/><path class="cls-1" d="M730.79,261.55l1-2.56c-5.14-1.92-10.37-3.75-15.56-5.43l-.85,2.6C720.49,257.83,725.69,259.65,730.79,261.55Z"/><path class="cls-1" d="M699.67,251.47l.73-2.64c-5.26-1.45-10.64-2.81-16-4l-.6,2.67C689.11,248.68,694.45,250,699.67,251.47Z"/><path class="cls-1" d="M667.77,244.19l.49-2.69c-5.38-1-10.85-1.85-16.25-2.58l-.36,2.71C657,242.36,662.43,243.22,667.77,244.19Z"/><path class="cls-1" d="M924.62,428.44l2.39-1.33c-2.64-4.77-5.43-9.54-8.27-14.17l-2.34,1.43C919.23,419,922,423.7,924.62,428.44Z"/><path class="cls-1" d="M878.1,856.19c3.65-4.06,7.25-8.25,10.72-12.47L886.71,842c-3.44,4.18-7,8.34-10.65,12.38Z"/><path class="cls-1" d="M899,830.79c3.28-4.36,6.51-8.85,9.6-13.36l-2.26-1.55c-3.07,4.48-6.27,8.94-9.52,13.27Z"/><path class="cls-1" d="M917.57,803.65c2.89-4.64,5.71-9.4,8.39-14.16l-2.39-1.34c-2.66,4.72-5.46,9.45-8.32,14.06Z"/><path class="cls-1" d="M803.31,920c4.57-3,9.15-6.05,13.59-9.21l-1.58-2.23c-4.42,3.14-9,6.22-13.49,9.14Z"/><path class="cls-1" d="M933.71,775c2.46-4.88,4.85-9.87,7.1-14.85L938.32,759c-2.23,5-4.6,9.9-7.05,14.74Z"/><path class="cls-1" d="M830.07,901c4.3-3.35,8.58-6.84,12.73-10.39L841,888.49c-4.13,3.52-8.38,7-12.64,10.31Z"/><path class="cls-1" d="M855.07,879.63c4-3.72,7.95-7.58,11.77-11.46l-2-1.92c-3.79,3.86-7.72,7.69-11.68,11.38Z"/><path class="cls-1" d="M966.54,551.42l2.7-.41c-.83-5.42-1.78-10.87-2.84-16.2l-2.68.53C964.76,540.63,965.71,546,966.54,551.42Z"/><path class="cls-1" d="M947.25,745c2-5.07,4-10.27,5.77-15.43l-2.59-.9c-1.78,5.13-3.71,10.28-5.72,15.31Z"/><path class="cls-1" d="M951.05,488.06l2.59-.88C951.88,482,950,476.81,948,471.74l-2.55,1C947.42,477.77,949.31,482.93,951.05,488.06Z"/><path class="cls-1" d="M960.2,519.4l2.65-.65c-1.29-5.29-2.72-10.64-4.25-15.88l-2.63.76C957.49,508.84,958.91,514.14,960.2,519.4Z"/><path class="cls-1" d="M972.8,583.7c-.35-5.42-.83-10.93-1.42-16.38l-2.72.3c.59,5.41,1.06,10.88,1.41,16.26Z"/><path class="cls-1" d="M966.12,681.88c1.09-5.35,2.08-10.8,2.93-16.19l-2.7-.43c-.84,5.36-1.82,10.76-2.91,16.07Z"/><path class="cls-1" d="M971.26,649.39c.61-5.42,1.11-10.93,1.48-16.38l-2.73-.18c-.37,5.4-.86,10.88-1.47,16.26Z"/><path class="cls-1" d="M973.49,616.58c.13-5.46.13-11,0-16.45l-2.74.06c.12,5.41.11,10.9,0,16.33Z"/><circle class="cls-2" cx="605.4" cy="607.24" r="317.84" transform="translate(-252.07 605.94) rotate(-45)"/><path class="cls-1" d="M445.78,747.78c-12.54,0-22.75-9-22.75-20.07V724C423,713,433.24,704,445.78,704l41.5,0c13.89,0,25.2-10,25.37-22.43H510c-.17,10.94-10.3,19.8-22.74,19.8l-41.5,0c-14,0-25.38,10.18-25.38,22.7v3.67c0,12.52,11.38,22.71,25.38,22.71H794v-2.64Z"/><polygon class="cls-3" points="802.78 231.04 877.47 291.97 802.49 356.27 728.09 291.97 802.78 231.04"/><rect class="cls-4" x="738.15" y="251.54" width="128.84" height="124.13"/><rect class="cls-5" x="749.24" y="285.86" width="48.27" height="2.93"/><rect class="cls-5" x="749.24" y="297.85" width="106.65" height="2.93"/><rect class="cls-5" x="749.24" y="304.51" width="106.65" height="2.93"/><rect class="cls-5" x="749.24" y="311.16" width="106.65" height="2.93"/><rect class="cls-5" x="749.24" y="317.82" width="106.65" height="2.93"/><rect class="cls-5" x="749.24" y="324.49" width="106.65" height="2.93"/><rect class="cls-5" x="749.24" y="331.15" width="106.65" height="2.93"/><rect class="cls-5" x="749.24" y="337.8" width="106.65" height="2.93"/><rect class="cls-5" x="749.24" y="344.46" width="106.65" height="2.93"/><path class="cls-6" d="M877.47,292v92.5a8.17,8.17,0,0,1-8.14,8.14H736.23C731.09,392.61,877.47,292,877.47,292Z"/><path class="cls-3" d="M728.09,292v92.5a8.16,8.16,0,0,0,8.14,8.14h133.1C874.47,392.61,728.09,292,728.09,292Z"/><polygon class="cls-3" points="953.98 408.14 1010.28 454.07 953.76 502.54 897.68 454.07 953.98 408.14"/><rect class="cls-4" x="905.26" y="423.6" width="97.12" height="93.57"/><rect class="cls-5" x="913.62" y="449.47" width="36.38" height="2.21"/><rect class="cls-5" x="913.62" y="458.5" width="80.39" height="2.21"/><rect class="cls-5" x="913.62" y="463.52" width="80.39" height="2.21"/><rect class="cls-5" x="913.62" y="468.54" width="80.39" height="2.21"/><rect class="cls-5" x="913.62" y="473.55" width="80.39" height="2.21"/><rect class="cls-5" x="913.62" y="478.58" width="80.39" height="2.21"/><rect class="cls-5" x="913.62" y="483.6" width="80.39" height="2.21"/><rect class="cls-5" x="913.62" y="488.62" width="80.39" height="2.21"/><rect class="cls-5" x="913.62" y="493.64" width="80.39" height="2.21"/><path class="cls-6" d="M1010.28,454.07v69.72a6.15,6.15,0,0,1-6.14,6.14H903.81C899.94,529.93,1010.28,454.07,1010.28,454.07Z"/><path class="cls-3" d="M897.68,454.07v69.72a6.15,6.15,0,0,0,6.13,6.14h100.33C1008,529.93,897.68,454.07,897.68,454.07Z"/><polygon class="cls-3" points="974.35 184.72 1015.6 218.37 974.2 253.88 933.11 218.37 974.35 184.72"/><rect class="cls-4" x="938.66" y="196.04" width="71.16" height="68.56"/><rect class="cls-5" x="944.78" y="215" width="26.66" height="1.62"/><rect class="cls-5" x="944.78" y="221.62" width="58.9" height="1.62"/><rect class="cls-5" x="944.78" y="225.29" width="58.9" height="1.62"/><rect class="cls-5" x="944.78" y="228.97" width="58.9" height="1.62"/><rect class="cls-5" x="944.78" y="232.65" width="58.9" height="1.62"/><rect class="cls-5" x="944.78" y="236.33" width="58.9" height="1.62"/><rect class="cls-5" x="944.78" y="240.01" width="58.9" height="1.62"/><rect class="cls-5" x="944.78" y="243.69" width="58.9" height="1.62"/><rect class="cls-5" x="944.78" y="247.36" width="58.9" height="1.62"/><path class="cls-6" d="M1015.6,218.37v51.09a4.5,4.5,0,0,1-4.49,4.49H937.6C934.76,274,1015.6,218.37,1015.6,218.37Z"/><path class="cls-3" d="M933.11,218.37v51.09A4.5,4.5,0,0,0,937.6,274h73.51C1014,274,933.11,218.37,933.11,218.37Z"/><path class="cls-7" d="M859.43,651.17V363.7A23.8,23.8,0,0,0,835.71,340H376.13A23.8,23.8,0,0,0,352.4,363.7V651.17Z"/><rect class="cls-1" x="368.71" y="357.77" width="474.4" height="275.75"/><rect class="cls-8" x="368.71" y="357.77" width="474.4" height="11.8"/><rect class="cls-1" x="574.31" y="678.05" width="63.21" height="39.45"/><path class="cls-1" d="M674.37,727.54H537.47c-3.94,0-3.94-12.77,0-12.77h136.9C678.3,714.77,678.3,727.54,674.37,727.54Z"/><path class="cls-1" d="M352.4,644.17v14.68a23.79,23.79,0,0,0,23.73,23.72H835.71a23.79,23.79,0,0,0,23.72-23.72V644.17Z"/><rect class="cls-1" x="734.34" y="738.32" width="323.91" height="95.49"/><rect class="cls-7" x="891.04" y="750.31" width="13.75" height="13.75"/><rect class="cls-7" x="914.69" y="750.31" width="13.74" height="13.75"/><rect class="cls-7" x="895.54" y="769.56" width="13.75" height="13.75"/><rect class="cls-7" x="919.18" y="769.56" width="13.75" height="13.75"/><rect class="cls-7" x="1011.43" y="808.06" width="13.75" height="13.74"/><rect class="cls-7" x="1035.08" y="808.06" width="13.75" height="13.74"/><rect class="cls-7" x="891.04" y="750.31" width="13.75" height="13.75"/><rect class="cls-7" x="914.69" y="750.31" width="13.74" height="13.75"/><rect class="cls-7" x="904.54" y="788.8" width="13.75" height="13.75"/><rect class="cls-7" x="928.18" y="788.8" width="13.75" height="13.75"/><rect class="cls-7" x="891.04" y="808.06" width="13.75" height="13.74"/><rect class="cls-7" x="914.69" y="808.06" width="13.74" height="13.74"/><rect class="cls-7" x="939.39" y="750.31" width="13.75" height="13.75"/><rect class="cls-7" x="963.03" y="750.31" width="13.75" height="13.75"/><rect class="cls-7" x="986.68" y="750.31" width="13.75" height="13.75"/><rect class="cls-7" x="942.99" y="769.56" width="13.75" height="13.75"/><rect class="cls-7" x="966.63" y="769.56" width="13.75" height="13.75"/><rect class="cls-7" x="990.28" y="769.56" width="13.75" height="33"/><rect class="cls-7" x="952.56" y="788.8" width="13.75" height="13.75"/><rect class="cls-7" x="976.78" y="788.8" width="16.77" height="13.75"/><rect class="cls-7" x="939.39" y="808.06" width="13.75" height="13.74"/><rect class="cls-7" x="963.03" y="808.06" width="13.75" height="13.74"/><rect class="cls-7" x="986.68" y="808.06" width="13.75" height="13.74"/><rect class="cls-7" x="747.74" y="750.31" width="13.75" height="13.75"/><rect class="cls-7" x="771.39" y="750.31" width="13.75" height="13.75"/><rect class="cls-7" x="747.74" y="769.56" width="17.96" height="13.75"/><rect class="cls-7" x="774.99" y="769.56" width="13.75" height="13.75"/><rect class="cls-7" x="747.74" y="788.8" width="27.25" height="13.75"/><rect class="cls-7" x="784.88" y="788.8" width="13.74" height="13.75"/><rect class="cls-7" x="794.48" y="750.31" width="13.75" height="13.75"/><rect class="cls-7" x="818.13" y="750.31" width="13.75" height="13.75"/><rect class="cls-7" x="798.08" y="769.56" width="13.75" height="13.75"/><rect class="cls-7" x="821.73" y="769.56" width="13.75" height="13.75"/><rect class="cls-7" x="807.98" y="788.8" width="13.75" height="13.75"/><rect class="cls-7" x="831.62" y="788.8" width="13.75" height="13.75"/><rect class="cls-7" x="747.74" y="808.06" width="13.75" height="13.74"/><rect class="cls-7" x="771.39" y="808.06" width="13.75" height="13.74"/><rect class="cls-7" x="794.48" y="808.06" width="86.34" height="13.74"/><rect class="cls-7" x="843.43" y="750.31" width="13.75" height="13.75"/><rect class="cls-7" x="867.07" y="750.31" width="13.75" height="13.75"/><rect class="cls-7" x="847.03" y="769.56" width="13.75" height="13.75"/><rect class="cls-7" x="870.67" y="769.56" width="13.75" height="13.75"/><rect class="cls-7" x="856.92" y="788.8" width="13.75" height="13.75"/><rect class="cls-7" x="880.57" y="788.8" width="13.75" height="13.75"/><rect class="cls-7" x="1011.43" y="750.31" width="13.75" height="13.75"/><rect class="cls-7" x="1035.08" y="750.31" width="13.75" height="13.75"/><rect class="cls-7" x="1011.43" y="769.56" width="13.75" height="13.75"/><rect class="cls-7" x="1035.08" y="769.56" width="13.75" height="13.75"/><rect class="cls-7" x="1011.43" y="788.8" width="13.75" height="13.75"/><rect class="cls-7" x="1035.08" y="788.8" width="13.75" height="13.75"/><polygon class="cls-5" points="483.54 369.57 495.71 592.17 716.12 592.17 728.29 369.57 483.54 369.57"/><rect class="cls-3" x="495.71" y="326.24" width="220.41" height="19.38"/><rect class="cls-4" x="495.71" y="345.62" width="220.41" height="248.37"/><rect class="cls-5" x="514.68" y="414.28" width="82.57" height="5.86"/><rect class="cls-5" x="514.68" y="438.26" width="182.46" height="5.86"/><rect class="cls-5" x="514.68" y="451.58" width="182.46" height="5.86"/><rect class="cls-5" x="514.68" y="464.91" width="182.46" height="5.86"/><rect class="cls-5" x="514.68" y="478.22" width="182.46" height="5.86"/><rect class="cls-5" x="514.68" y="491.57" width="182.46" height="5.86"/><rect class="cls-5" x="514.68" y="504.89" width="182.46" height="5.86"/><rect class="cls-5" x="514.68" y="518.21" width="182.46" height="5.86"/><rect class="cls-5" x="514.68" y="531.53" width="182.46" height="5.86"/><path class="cls-6" d="M1045.65,356.63c24.37,17.07,47.82,33.8,46.08,33.8a5.64,5.64,0,0,0,5.63-5.63V320.75S1071,338.87,1045.65,356.63Z"/><path class="cls-6" d="M1045.65,356.63c-25.36-17.76-51.71-35.88-51.71-35.88V384.8a5.64,5.64,0,0,0,5.63,5.63C997.83,390.43,1021.28,373.7,1045.65,356.63Z"/><path class="cls-3" d="M1045.65,356.63c-24.37,17.07-47.82,33.8-46.08,33.8h92.16C1093.47,390.43,1070,373.7,1045.65,356.63Z"/><polygon class="cls-9" points="1097.36 320.75 1045.45 365.27 993.94 320.75 1097.36 320.75"/></svg>