<svg id="Réteg_1" data-name="Réteg 1" xmlns="http://www.w3.org/2000/svg" viewBox="0 0 1070 948"><defs><style>.cls-1,.cls-4{fill:#ccc;}.cls-1,.cls-2,.cls-4{stroke:#f2f2f2;stroke-miterlimit:10;stroke-width:0.25px;}.cls-1,.cls-3{opacity:0.71;}.cls-2{fill:#b3b3b3;}</style></defs><title>kapcolat-bg</title><path class="cls-1" d="M356.72,458.53c.81-.77,2.2.71,3.41.84a4.43,4.43,0,0,0,2.48-.73,7.46,7.46,0,0,0-2.19-.26c-2-.11-2.17-2.45-3.89-1.58a8.3,8.3,0,0,1-5.1.94c0,.67-.38,1.56-.47,2.45a8.35,8.35,0,0,1,1.17-.28C353.34,459.81,355.9,459.3,356.72,458.53Z"/><path class="cls-1" d="M357.85,467.87c.89-.65,2.65-2.3,3.28-2s1.43-.3,1.42-.66-1.29-1.5-.31-1.87a1.69,1.69,0,0,0,.86-1.53,2.24,2.24,0,0,0-1-.25l-5.88.57a5.54,5.54,0,0,1-2.25,1c-.64-.05,0-1.08-2.06-.51,1.05,1.25,1.19,1.89,3.29,2.43,2.34.6-.14,1.85,1.79,3,.18.11.32.22.47.33A4.79,4.79,0,0,1,357.85,467.87Z"/><path class="cls-1" d="M525.44,405.09c.66,1.65,1.41,7.47,0,9.79s-.77,2.94.7,3.73,2.15,2.88,2.18,4.55,1.08,1.44,1.36,5,1.17,6,2.45,7.45c1,1.12.86,2.87.37,4.2a22.93,22.93,0,0,0,5.5,3c4.37,1.46,6,2.67,6.29,4.21s4.13,4.27,5,2.07,3.39-1,5.25-1,2.22,2.13,2.55,3.36,4.66.53,6.24,1.42,2.26,4.3,4.46,5.5,4-1.64,5.57-.74,5.63,1.74,8.09.76,4,.84,7.15.47,7.15.78,8.1,1.69c.5.48,3.13.91,5.53,1.22.59-1.29-.69-5.19-.52-6.16s7.34-7.65,8.56-9.14,3.09-1.52,4.09-3.42-3.08-7.85-3.94-9.08-1.37-6.22-.79-8.32-3.2-3.27-3.23-4.73,3.45-4,5.32-4.9,1.11-6.7-.59-8.12a6.42,6.42,0,0,1-1.61-7.05c1-2.93-6.36-5.07-7.4-5.05-.17,0-.28-.18-.35-.43-6.49,1.34-23.18,0-24.45-.52-.83-.31-3-1-4.78-1.63a5.77,5.77,0,0,1-5.08,2.75c-4,.08-4.39-3.94-4.57-5.74s-16.21,1.87-20.43,6.26-14.24,2.94-14.47,5.3c-.17,1.73-1.65,2.65-2.64,2.19A2.26,2.26,0,0,0,525.44,405.09Z"/><path class="cls-1" d="M565.05,538.33c-.41-1.86,5.39-10.57,6.88-10.6,1.24,0,1.53-8.29.91-12.57a31.91,31.91,0,0,0-8.56-4.11s-12.45-.35-14.54-1.14-4.1,2.78-6,1.37a2.65,2.65,0,0,0-4.1,2.58c.46,2.06,4.43,3.22,4.49,6.33s8.05,7.51,7.87,9.17c-.12,1.17,4.82,4.23,7.82,8.43a53,53,0,0,1,4.89,3.46A8.94,8.94,0,0,0,565.05,538.33Z"/><path class="cls-1" d="M552,529.36c.18-1.66-7.8-6.06-7.87-9.17s-4-4.27-4.49-6.33a2.65,2.65,0,0,1,4.1-2.58c1.89,1.41,3.9-2.16,6-1.37s14.54,1.14,14.54,1.14a31.91,31.91,0,0,1,8.56,4.11,7.34,7.34,0,0,0-.47-2c-1.17-2.6-.12-5.6-3.13-6.66-1.55-.54-2.25-3.19-2.57-5.63-1.4.46-2.58.83-3.22,1-2.47.67-7.75.47-9.67-2-1.42-1.82-5.79-4.44-7.93-5.66-.85.78-4.1,3.68-5.54,3.88-1.66.25-.52,4.6-2.19,4.64s-2.86,3-3.25,4.23-4.17-.75-5.83-.09a49.13,49.13,0,0,1-6.6,1.42c.34,1.89.26,4,1.78,4,2.5,0,7.08-.42,7.29,2.91s6.33,10.57,8.6,13,7.26,1.79,7.58,3.87,4,3.94,8.15,4.14a9.35,9.35,0,0,1,4,1.56C556.83,533.59,551.89,530.53,552,529.36Z"/><path class="cls-1" d="M583.68,568.7c2.08-.46.79-2.1,2.22-3.59a15.94,15.94,0,0,0,3.22-5.48.44.44,0,0,1,.19-.27c-2.87-2.06-4.88-3.54-5.55-5.71s-.12-6.58.81-9.77c-1.64-1.12-6.67-4.44-8.23-4.41s-3.85,3.51-4.37,6.82c3.69,1.87,5.15,3.22,2.68,5.79s-2.95,11.6,0,13.89,3.72,6.64,6.43,7.86C581.8,571.57,582.31,569,583.68,568.7Z"/><path class="cls-1" d="M541.92,467c-2.54-2.74-8.74-2.61-8.74-2.61a18.53,18.53,0,0,1-1.47,4.38c-.75,1.31-5.26,1.39-8.16.67-.8,1.09-4.53,2-5,3.57-.59,1.89-5.19.94-3.62,5.91s-2.22,3.38-3.69,2.78-7.92.38-9.55,2.08a4.44,4.44,0,0,1-5.41.53c-1.47-.8-4.4-1.16-5.6.95s-3.58-1.58-5.45-1.34-1,4.18-.94,5,3,3.27,4.84,2.4,4.18.12,5.86,1.12,4.78-.93,5.8-2,6.85-1.19,7.47-1.2.9,3.32,2,3.92,5,.94,8.57,1.07,8.79,1.69,10.46,1.65,4.31-3,8-3.09,5.79-2.41,6.42-2.21l0,0c.25-1.16.67-2.11,1.48-2.25,1.51-.24.37-2.83,1.43-4.15s-.95-3.9,1-3.72,4.14.35,4.08-2.47a3.49,3.49,0,0,1,1.2-2.53,34.12,34.12,0,0,1-3.85-7.74S544.46,469.69,541.92,467Z"/><path class="cls-2" d="M602.31,473.49a6.71,6.71,0,0,1-2.23-1.3c-2.63-.52-5.17-1.24-6-2-1.58-1.52-7.8-2.32-8.75-2.61s-6.7,5.73-8.57,5.76-9.91,1.15-9.86,3.31-9.87,2.7-12.72.27a9,9,0,0,1-1.3-1.46,3.49,3.49,0,0,0-1.2,2.53c.06,2.82-2.12,2.65-4.08,2.47s.05,2.39-1,3.72.08,3.91-1.43,4.15c-.81.14-1.23,1.09-1.48,2.25.66.3,2.33,3.46,2.33,3.46l-.21.2c2.14,1.22,6.51,3.84,7.93,5.66,1.92,2.44,7.2,2.64,9.67,2s12.95-4.3,12.95-4.3a35.4,35.4,0,0,0,4.05,1.15c.37.07,1.36.21,2.65.37.74-.8,3.06-1.52,5.5-4.06,2.85-3,7-13.49,8.24-14.35s4.53-2.8,6.17-4.08S604.21,474.08,602.31,473.49Z"/><path class="cls-1" d="M563.35,452.84c-1.58-.89-5.9-.18-6.24-1.42s-.68-3.39-2.55-3.36-4.37-1.14-5.25,1-4.67-.52-5-2.07-1.92-2.75-6.29-4.21a22.93,22.93,0,0,1-5.5-3,5.28,5.28,0,0,1-.48,1c-.8,1.27-3.76-1-5,.31s-5.39,1.57-7.63,3.71-7,3.27-9.71,3.95-.35,3.14.73,5,1.18,6.43,3.29,7.85,9.08,5.64,9.94,7.08a.59.59,0,0,1-.1.71c2.9.72,7.41.64,8.16-.67a18.53,18.53,0,0,0,1.47-4.38s6.2-.13,8.74,2.61,7.16.78,7.16.78.27.79.71,1.88c.64-1.55,1.49-2.91,2.55-3.09,2.61-.43,6.33-.88,8.87-4.67a16.49,16.49,0,0,1,5.34-4.59C565.27,455.75,564.57,453.54,563.35,452.84Z"/><path class="cls-1" d="M588.62,458.83c-3.1.37-4.69-1.45-7.15-.47s-6.52.14-8.09-.76-3.37,1.93-5.57.74a4.79,4.79,0,0,1-1.26-1.08,16.49,16.49,0,0,0-5.34,4.59c-2.54,3.79-6.26,4.24-8.87,4.67-1.06.18-1.91,1.54-2.55,3.09.9,2.18,2.54,5.7,4.44,7.32,2.85,2.43,12.76,1.91,12.72-.27s8-3.27,9.86-3.31,7.64-6.06,8.57-5.76,7.17,1.09,8.75,2.61c.78.75,3.32,1.47,6,2a5,5,0,0,1-2-3.2c0-1.66,3-6.1,4-6.95a.83.83,0,0,0,.18-.3c-2.4-.31-5-.74-5.53-1.22C595.77,459.61,591.7,458.45,588.62,458.83Z"/><path class="cls-1" d="M328.45,597.54c3.7-.75-1.1-3.7-2.13-4.69s.23-5.08,2.26-5.12-.05-2.36-2.81-5-.08-3.72,2.29-3.77-.76-4,1.54-6.45-.81-6.75-.86-8.78,3.33-2.77,6-5.53-2.4-1.64-2.44-3.66-3.45-2.64-5.77-.9-1.69,0-3.72.08-5.73.8-5.77-1.23-1.74-2.33-3.39-.27a3.68,3.68,0,0,1-2.48,1.11c-.19,2.66-.41,5.14.39,6.37,1.87,2.88-1.84,18.38-5.36,22.62s0,5.28,3.78,8.12,1.54,13.44,1.59,15.94,3.37,1.74,7.26,1.66c2.31,0,4.91-1.14,7.47-1.64a6.93,6.93,0,0,1-1.43-3C324.8,601.33,324.74,598.29,328.45,597.54Z"/><path class="cls-1" d="M434.24,437.12c1.67-1.73,4.65-.94,6.39.72s4.29,2,6.89,4.52a19.46,19.46,0,0,0,2.09,1.74c.2-1.8.17-5.36.92-7.22s-.92-4.43.47-4.46,5.27-.11,5.22-2.61,1.08-1.69,1.88-3.1-2.58-4.11-3.16-4.94,2.47-1.16,4.63-4.53c.78-1.23.39-3.7-.41-6.36-.34,1-1.07,1.72-2.35,1-2.11-1.21-5.28-.45-9.43.47s-5.31,5-3.76,6.61-4,2.59-4.43.38-4.59-.61-4.26,2.3-4.5,4.13-4.14,7.73-4.3,7-7.32,8.91c-.47.3-1,.59-1.45.89a11.62,11.62,0,0,0,3.37,1.11C427.94,440.22,432.58,438.86,434.24,437.12Z"/><path class="cls-1" d="M450.38,452.94c-1.83,1.07-3.47,3.33-3.12,8a22.31,22.31,0,0,1,6.21.57c-.55-5.13-2.59-6.68-3.13-7.72A.91.91,0,0,1,450.38,452.94Z"/><path class="cls-1" d="M417.05,443.2c.23,1.46,2.6,4.95,3.4,3.48s3,1.81,4.85,2.81,5.67,2.18,5.91,3.42.92,3.94,2.77,3.07,4.09-3.84,4.12-2.17.73,4.78,2.8,4.31,2.79,3.49,4.86,3a11.89,11.89,0,0,1,1.5-.16c-.35-4.71,1.29-7,3.12-8,.41-.84,1.64-1.74,1.82-2.76.25-1.39-2.86-4.11-2.62-5.78l0-.3a19.46,19.46,0,0,1-2.09-1.74c-2.6-2.49-5.16-2.86-6.89-4.52s-4.72-2.45-6.39-.72-6.3,3.1-8.85,3.16a11.62,11.62,0,0,1-3.37-1.11,22,22,0,0,1-6.21,2.82C416.24,442.56,416.89,442.24,417.05,443.2Z"/><path class="cls-1" d="M659,506.69c-2-.24-4.47-1-3.66-2.15l.24-.32c-2.64-2.05-3.47-8.85-1.84-10.55,2.07-2.16-3.62-10.11-6.22-13-1.23-1.37-3.91-6-6.42-10.46-2.19.76-4.12,1.61-4.49,2.25a7.65,7.65,0,0,1-5.22,2.89c-1.66,0-3.35-.76-4.71.65s-3.29,2-4.14,1.2-3.65-1.59-5.6-1.54-8.08-1.51-9.47-1.48a30.61,30.61,0,0,0-3.61.39c.33.59.1,1.32-.85,2.07-1.64,1.28-4.94,3.22-6.17,4.08s-5.39,11.37-8.24,14.35-5.56,3.45-5.75,4.49,3.42,3.68,3.45,5.35.9,3.31,3.2,3.27-.1,5.42,1.36,5.8,10.44.82,10.49,2.91c0,1.62,1,3,.64,4.1,2.53.36,4.45,3.75,5.43,3.48s8.64,1.21,10,.91a62.17,62.17,0,0,1,10,.06,8.4,8.4,0,0,0,6.6-2.92c1.91-2,8.86-2.4,11.08-2.18s6.68.7,7.55,2.08c.45.71,3.08,1.75,5.75,2.58.28-1.38-.16-3.17-.11-4.93.07-2.92,1.64-7.4,4.56-7.74s5.27-.39,4.75-5.23c0-.17,0-.3,0-.45-1.5-1.23-2.91-2.27-3.36-2.26C663.12,504.38,659.83,506.79,659,506.69Z"/><path class="cls-1" d="M662.27,477.17a7.34,7.34,0,0,0-6.77-4.86c-1.94,0-5.37-4.33-7.59-4a46.94,46.94,0,0,0-6.81,1.88c2.51,4.5,5.19,9.09,6.42,10.46,2.6,2.92,8.29,10.87,6.22,13-1.63,1.7-.8,8.5,1.84,10.55,1.18-1.6,5.17-6.84,5.13-8.4s.18-5,3.53-4.25,6.43,2.09,6.41,1-.94-4.7-2.35-6.07A29.1,29.1,0,0,1,662.27,477.17Z"/><path class="cls-1" d="M645.12,520.31c-2.22-.22-9.17.2-11.08,2.18a8.4,8.4,0,0,1-6.6,2.92,62.17,62.17,0,0,0-10-.06c-1.38.3-8.92-1.21-10-.91s-2.9-3.12-5.43-3.48a1.9,1.9,0,0,1-.75.9c-1.84,1.3-2,4.62.14,6.46s4.92,5.94,3,6-3.28,2.57-3,3.81-.55,4,.09,4.59,5.1,4.69,5.33,5.93,2,1.63,1.9,2.59c3.49-.33,10.91-.92,12.61-.11,2.24,1.06,10,1.45,10,1.45,2.21,0,4.14-.92,3.56-2.29-.5-1.17,2.38-2,4.46-2.26-.38-1.28-.65-2.33-.12-2.57,1-.43,7.06-1.39,9.58-.2,1.28.62,2.7,0,3.78-.78-.36-1.16-.7-2.08-1.34-2.19-1.54-.24-4-6.58-2.09-7s4.29-7.17,7.33-8.21a2.61,2.61,0,0,0,1.91-2c-2.67-.83-5.3-1.87-5.75-2.58C651.8,521,647.34,520.55,645.12,520.31Z"/><path class="cls-1" d="M589.31,559.36h0a1.21,1.21,0,0,1,.36-.16l.08,0a3.36,3.36,0,0,1,.52-.08h.08c.81-.09,1.89-.07,3-.12h.22l.75-.07a2.58,2.58,0,0,1,.29,0,9.19,9.19,0,0,0,.94-.19c2.48-.68,3.05-3.4,4.31-2.8s7.86-2.94,8.67-4.21a.88.88,0,0,0,.16-.43c.12-1-1.69-1.5-1.9-2.59s-4.69-5.32-5.33-5.93a1.1,1.1,0,0,1-.22-.64s0-.06,0-.08a5.85,5.85,0,0,1,0-1c-6.49,1.08-16.11,3.3-16.11,3.3l-.57-.38c-.93,3.19-1.49,7.56-.81,9.77S586.44,557.3,589.31,559.36Z"/><path class="cls-1" d="M762.47,459.08c0-.83,2.87-2.35,2.63-4s-2.75-1.82-5.48-3.22-5.44-.72-8-1.91-7.71-.26-7.73-1.09-3.4-3.47-4.27-4.91-3.55-.56-5.2.52-3.1,1.52-4.78.52-3.18-2.64-4.63-2-4.16.3-3.58-1.8-2.84-6.6-4.32-7.2-5.82.53-6.9-1.52-3-3.69-2.2-5.17-.32-5.41-1.4-7.05-6.28-1.33-7.72-.68-4.81-.52-6.25.34-2.24,2.34-4.32,2.38a2.64,2.64,0,0,1-2.59-1,21.15,21.15,0,0,1-6,1.34s-5.48,4.56-5.44,6.22-.17,4.46-1.6,3.1-7.25-1.24-8.61-.38-3.69-3.26-6.16-1.81-5.87-1.82-6.12-.43-3.88.36-6.41-.7-6.93.7-8.64-1.21-12.54-1.68-16.14-1.61-4.41,2-6,3.75c-1.47,1.54-3.23,1.26-5,1.22a8.58,8.58,0,0,0,.85,3.17c.86,1.23,4.95,7.18,3.94,9.08s-2.87,1.94-4.09,3.42-8.38,8.1-8.56,9.14,1.37,5.6.34,6.46-4.06,5.29-4,6.95,2.37,3.92,4.26,4.5a2.55,2.55,0,0,1,1.55,1.05,30.61,30.61,0,0,1,3.61-.39c1.39,0,7.54,1.52,9.47,1.48s4.75.72,5.6,1.54,2.78.22,4.14-1.2,3.05-.61,4.71-.65a7.65,7.65,0,0,0,5.22-2.89c.8-1.4,9.09-3.81,11.3-4.13s5.65,4.05,7.59,4a7.34,7.34,0,0,1,6.77,4.86,29.1,29.1,0,0,0,6,9.31c1.41,1.37,2.32,5,2.35,6.07s-3.06-.21-6.41-1-3.56,2.58-3.53,4.25-4.56,7.59-5.37,8.72,1.71,1.91,3.66,2.15c.83.1,4.12-2.31,5.23-2.33.45,0,1.86,1,3.36,2.26-.41-4.34.5-4.11,4.31-7.14,4-3.14,4.27-8.84,7.86-9.62s5.09-2.47,10.39-1.75-2.55,4.22,1.09,6.09c2.4,1.23,8,.48,11.71.6a41.77,41.77,0,0,1,14.63-.11c2.38-2.24,7-5.34,10.09-5.69a35.08,35.08,0,0,0,11.87-3.86,36.85,36.85,0,0,1,7.59-2.32c-.49-1.95-1.12-4.24.12-4.45,1.45-.24,5.73-5.12,7.19-5.15s7.73,1.08,7.7,0,2-4.63,1.55-5.67-2.55-2.44-2.15-3.49,3.31-1.11,3.28-2.37S762.49,459.92,762.47,459.08Z"/><path class="cls-1" d="M606.51,368.53c2.55-.06,8.53,1.09,11.89-.25s3.45,2.48,5.57,2,6.41,2.42,9,4.49a34.39,34.39,0,0,0,4.82,3,6.64,6.64,0,0,1,1.78-2.07c2.19-1.71,4.42-.93,6.37-1s2.17-2.27,3.54-3.41a7.36,7.36,0,0,1,2.9-1.23c-.78-1.52-.88-4.52-2.14-5.73-1.49-1.43-3.63-3.89-3-5.36a4.64,4.64,0,0,0-1.16-5.18,6.78,6.78,0,0,1-1.63-2.37c-3.4-.36-8-.75-9-.39-1.66.59-8.43-4.55-9.56-5.36-.74-.53-5.68-.14-10.12.37-2.5,2.89-.61,4.94-.65,9.3s-4.93,3.72-7.56,3.78-7.12-7.78-8.54-9.55-5.79,2.34-8.94,4.35-1.41,5.73-3.59,7.58-3.51,4.94-1.21,8.92c.09.16.16.33.25.49,2.77-.28,5.72-.85,7.4-2.1C595.86,366.62,604,368.58,606.51,368.53Z"/><path class="cls-1" d="M591.06,384.12c1.07,1.44,4.43,2.62,5.67,2s5.23,1.34,5.27,3-.9,6.69.14,6.67,7,1.71,7.45,4.22a46,46,0,0,1,6.89.34c2.24.51,3.59-.91,4.67-2.32s5-2.05,6.07-2.07,1-3.08,1.3-4.48,3-3.95,4.63-4.54,1.33-2.53,3-2.56,1.34-2.26,1-3.64a4.25,4.25,0,0,1,.62-3,34.39,34.39,0,0,1-4.82-3c-2.6-2.07-6.91-5-9-4.49s-2.2-3.35-5.57-2-9.34.19-11.89.25-10.65-1.91-13.58.28c-1.68,1.25-4.63,1.82-7.4,2.1,2,3.84,1.37,7.78-.71,10.22-1.48,1.74-.6,1.94.53,2.59C587.62,383.46,590.2,383,591.06,384.12Z"/><path class="cls-1" d="M489.11,491.29c-1.85.87-4.82-1.57-4.84-2.4a13.08,13.08,0,0,1-.07-3.95,37.14,37.14,0,0,0-5.48-2.25c-2.79-.77-4.18-.74-6.37.41-1.41.73-5.32.62-8,.44-.21.84-.58,1.4-1.24,1.42a5.56,5.56,0,0,0-4.71,4.06c-.37,2.09-4.71,3.84-5.88,7.62s-.51,5.43,1.32,3.1,4.13-1.54,4.17.33,2.55,2,1.76,4.55c0,.06,0,.09,0,.15,2.84-.31,6.8-.71,8-.74,2,0,3.76-6.19,4.58-6.76s3.15,4.38,5.42,6.28,2.46-1.72,2.43-3.39,1.89-2.26,3.29-2,4.46.74,4.42-1.21,1.65-1.14,2.75-1.16,1.35-2.26,1.35-2.26l1.78-1.72C492.3,491.08,490.57,490.61,489.11,491.29Z"/><path class="cls-1" d="M459.57,417.24c-2.16,3.37-5.2,3.72-4.63,4.53s4,3.54,3.16,4.94-1.93.61-1.88,3.1-3.84,2.58-5.22,2.61.32,2.5-.47,4.46-.71,5.85-.95,7.52,2.87,4.39,2.62,5.78-2.45,2.55-1.86,3.65,2.58,2.59,3.13,7.72a4.07,4.07,0,0,1,2.11,1.06,7.44,7.44,0,0,0,6.1,2.79c2.72-.06,3.8,1.8,5,1.56s4.6.74,1.95,3.09-3,5.06-3.59,7.78c-.37,1.77-.3,4.2-.7,5.71,2.65.18,6.56.29,8-.44,2.19-1.15,3.58-1.18,6.37-.41a37.14,37.14,0,0,1,5.48,2.25,1.25,1.25,0,0,1,1-1.07c1.87-.24,4.24,3.45,5.45,1.34s4.13-1.75,5.6-.95a4.44,4.44,0,0,0,5.41-.53c1.63-1.7,8.07-2.67,9.55-2.08s5.25,2.19,3.69-2.78,3-4,3.62-5.91,6-2.83,5.12-4.28-7.83-5.67-9.94-7.08-2.21-6-3.29-7.85-3.43-4.3-.73-5,7.46-1.82,9.71-3.95,6.41-2.43,7.63-3.71,4.19,1,5-.31,1.38-3.78.11-5.21-2.17-3.91-2.45-7.45-1.32-3.31-1.36-5-.7-3.74-2.18-4.55-2.11-1.41-.7-3.73.66-8.14,0-9.79a2.26,2.26,0,0,1-.07-1.14,1.51,1.51,0,0,1-.81-1.14c-.46-2.21-2-3-5.61-2.94s2.14-3.65.71-5.43-4.93,3.43-8.28,2.39-7.55,4.06-10.42,6.34-7.1-.27-4.94-3.51-.06-2.92-3.37-1.59-7.37-.13-7-3.19a3.28,3.28,0,0,0-.59-2.15,9.74,9.74,0,0,1-3.47.15,38.3,38.3,0,0,0-8.59-.66c1.13,1.59,2.36,3.15,1.71,4.42-1.19,2.39.8,4.57,2.67,8s-3.85,1.61-3.94,3.83-5.28,0-7-.83-7.22-.12-7.05,1.27a4.82,4.82,0,0,1-.24,2C460,413.54,460.35,416,459.57,417.24Z"/><path class="cls-1" d="M667.28,292c2.12-5,12-9.11,13.61-13.62.78-2.25,1-3.36-2.66-7.45s-11.81-6.7-12.14-8.91,6.06-2.63,5.72-5.4-3.66-2.7-5.11-4.89,1.6-3.66,1.3-4.75-4.48-1.58-4.79-3,2.76-1.17,2.16-2.82-3.42-4.66-1.53-7.2,6.11-.13,2.93-5.61-8-12.34-9.18-14,1-4.47,2.66-5.6,5.72-5.41,5.69-7.07-5.41-6-6.81-6.81-4.46-.46-5.9-3.21-2.86-3.55-1.51-5.25,1.33-3.35,1.29-5,3-.34,3.54-2.85a7.67,7.67,0,0,1,2-3.46,40.68,40.68,0,0,0-.11-5.23c-.5-2.68-8.11-3.41-10-6.49s-6.29-1.66-7.59.15-9.38-.24-9.33,2.44-5.73,3.24-5.66,6.36,2.85,8.42-1.62,8.08-1.3,1.81-3.9,5.43-2.73-2.18-5.39-1.23-5.85-2.56-7.15-.3-5.79.57-10.27-.23-6.84-7-10.42-7.36c-2.38-.25-4.87,1.69-6.13,4.71,3.5,2.16,5.83,5.29,10.4,7.25,4.95,2.13,13.93,4.61,13.56,7.75s-1.63,7.62.62,8.92-.28,7.15,2.42,8.43,2,8-.28,8,.52,3.56,1.89,4.86c.62.6,1.15,2.41,1.42,4.61a43.83,43.83,0,0,1,7.62,3c3.79,1.59,3.28,4.23,3.49,7.15s.36,4.57-1.6,3.36-4,.09-5.05,4.28-6.2,9.3-9.39,9.64-2.84,3.67-5.46,4.42-5.09,2.33-4.89,5.24-3.82,3.28-6.47,3.34-2,4.76-4,6.05-1.6,2.95.4,5.41.37,4.72,1.1,6.51,3.88,5.89,1.89,10.52-4.08,10.37-2.29,9.78,6,3.62,8.82,3.29,3.14,3.81,5.76,2.93,2.69,2.43,10.32,2,22.91-7.15,29-7.28a35.15,35.15,0,0,0,8.4-1.13,38.87,38.87,0,0,1,4.37-5.81C656.89,300,665.16,297.06,667.28,292Z"/><path class="cls-1" d="M466.72,467c-1.24.24-2.32-1.62-5-1.56a7.44,7.44,0,0,1-6.1-2.79c-1.28-1.65-7.74-1.92-9.82-1.47s-2.78-3.48-4.86-3-2.76-2.65-2.8-4.31S435.84,455.1,434,456s-2.54-1.83-2.77-3.07-4-2.42-5.91-3.42-4.05-4.29-4.85-2.81-3.17-2-3.4-3.48c-.16-1-.81-.64-1.24-1.21a8.57,8.57,0,0,1-2.12.24c-3.34-.07-6.2,2.63-5.52,8.18s-3.91,6.19-9.59,6.73-3.64,4.94-6,6.79-10.71-.74-11.89-3.77-8.6.18-5.34,3.71,3.24,8.56,1.46,10-5.74-2.1-8.2-.25S366,472,362.89,471s-4.28,1.46-9.14,1.16-7.6,2.51-5.75,4.56-.19,4,1.24,5.81,7.81,1.36,12.58,3.76,5.84.29,8.24,2.06,2.93.62,3.14,4.1,2.92,6.74,7.53,7.9,1.2,4.28,2.66,7.3-1.93,7.54-1.16,11.28-1.89,15.87-4.08,17a2.22,2.22,0,0,1-.55.12c2.1,1,4.31,1.86,5.39,2.54,2.06,1.32,6.47,2.57,9.22,4.2s7.46,1.21,7.41-.83,2.69-.72,4.42.92,8.15,1.86,11.21,2.47c2.57.51,6.3.08,9.65.08a20.15,20.15,0,0,0-.61-2.4c-1.78-5.39,3-8.68,7.57-9.48s14.63,1.78,17.31,3.39,6.27,1.12,10.75-3.84a12.52,12.52,0,0,1,5.8-4,13.83,13.83,0,0,1,1-3.2c.59-1.68-2.32-1.21-4.4-1.37a2.83,2.83,0,0,1-2.18-4.54c1.41-2.32-1.3-2.48-2.81-4.73s.59-1.68,1.82-2.33,2.86-3.19,1.8-3.79-1.92-2-1.14-4.56-1.72-2.68-1.76-4.55-2.35-2.66-4.17-.33-2.49.68-1.32-3.1,5.51-5.53,5.88-7.62a5.56,5.56,0,0,1,4.71-4.06c1.88,0,1.37-4.41,1.94-7.13s.92-5.44,3.59-7.78S468,466.73,466.72,467Zm16.35,70.37c-1.54-.1-1.89,2.68-5.73,5.13s.3,13,4.15,12.41C485.5,554.23,484.6,537.44,483.07,537.33Z"/><path class="cls-1" d="M424.9,545.42c-3.35,0-7.08.43-9.65-.08-3.06-.61-9.49-.81-11.21-2.47s-4.46-2.94-4.42-.92-4.68,2.47-7.41.83-7.16-2.88-9.22-4.2c-1.08-.68-3.29-1.54-5.39-2.54-2.81.61-11-2.2-16.29-1.43-5.68.81-23.91-.33-31,.38s-7.56-2.76-11.45-2.68-2.12,4.76-7.67,5-6,3.74-1.94,6.85c2.33,1.78,2.14,5.62,1.88,9.14a3.68,3.68,0,0,0,2.48-1.11c1.65-2.06,3.34-1.77,3.39.27s3.74,1.28,5.77,1.23,1.38,1.67,3.72-.08,5.72-1.13,5.77.9,5.08.9,2.44,3.66-6,3.51-6,5.53,3.18,6.35.86,8.78.82,6.4-1.54,6.45-5.05,1.12-2.29,3.77,4.83,5,2.81,5-3.3,4.13-2.26,5.12,5.83,3.94,2.13,4.69-3.65,3.79-3.6,5.82a6.93,6.93,0,0,0,1.43,3,8.18,8.18,0,0,1,5,.27c3.92,1.71,6.38,11.35,11.61,10.58,2.23-.32,1.08-2,2.17-3.1s3.18-.34,5.41-.39,3.26-3.27,8.53-3.51,8.6-.74,11.94-.67,5.95-1.1,6.73-3.48,3.52-4.51,7.26-5.15,3.1-4.52,3.32-6.74,6.42-5.69,6.8-7.37-3.78-8-.15-13.75,7.65-6.13,7.59-9.33c-.06-2.92,3.8-4.1,8.51-4.77s6.17-3.87,10.17-5.62C424.51,551.89,425.66,549.37,424.9,545.42Z"/><path class="cls-1" d="M514.77,506.46c2.22-.95,4.74-1.37,6-.9s1.47,1.55,1.69,2.77a49.13,49.13,0,0,0,6.6-1.42c1.66-.66,5.44,1.35,5.83.09s1.58-4.2,3.25-4.23.53-4.39,2.19-4.64,5.75-4.08,5.75-4.08-1.73-3.29-2.36-3.49-2.67,2.14-6.42,2.21-6.39,3.06-8,3.09-6.92-1.52-10.46-1.65c-1.25,0-2.56-.12-3.77-.22A81.43,81.43,0,0,0,514.77,506.46Z"/><path class="cls-1" d="M639.37,548c-2.08.26-5,1.09-4.46,2.26.58,1.37-1.35,2.24-3.56,2.29,0,0-7.8-.39-10-1.45-1.7-.81-9.12-.22-12.61.11a.88.88,0,0,1-.16.43c-.81,1.27-7.41,4.81-8.67,4.21s-1.83,2.12-4.31,2.8-6.26-.08-6.44,1a15.94,15.94,0,0,1-3.22,5.48c-1.43,1.49-.14,3.13-2.22,3.59-1.37.31-1.88,2.87-2.59,5.13a2.6,2.6,0,0,0,.41.2,7.82,7.82,0,0,1,5.17,8c-.34,3.48,4.54,4.63,6.71,2.08s8.5,1.21,8.54,2.88-6.43-1.67-10,1,2.89,5.07,2.12,7.87,1.8,6.62,5,6.42,6.91,5,8.84,4-2.53-8.28-1.87-9.4,4.63,1.85,6.52-.42-1.46-3.86-4.38-3.66-.22-3.88,3.3-1.87,5.12-.66,6.78-1,1.95-6.29-3.22-7.57-4.36,3.85-7.77.43,3-2.14,3-5.06-5.29-7-7.87-10.39,3.37-5.21,4.81-2.74,5.18,2,7.52.95-2.61-5.36,1.66-7.12,4.33,1.16,5.74,1.69,2.56-3.53,7-3.62c2.31,0,4.39,1.44,6.41,2.88,1.18-1.36,2.15-2.14,2.13-3.27,0-1.46,2.66-2.14,2.61-4.43A15.22,15.22,0,0,0,639.37,548ZM633,618.24c-2.25-1.2-12.21,1.09-14.89-1.35s-8,2.14-5.65,2.48c3.34.48,8.4,3.3,13.82,3.32s12.72-2.77,12.56-4.16S635.25,619.44,633,618.24Z"/><path class="cls-1" d="M330.38,406a19.07,19.07,0,0,1-3.16-2.76c-3.66-4.12-5.06-.73-5.42,1.8s-3.8-.77-5.91-1.14.54-4.42,2-5.5c1-.72,1.9-2.69,2.44-5.41a2.91,2.91,0,0,1-1.16-.18c-3.92-1.44-9.34-1.33-9.41,2.15s4.35,2.13,4.54,4.34-4.41,1.76-7.56,4.06-6.7-1.39-10,.35,3.68,3.54,1.25,7.06.21,3.32,4.45,6.57-2.41,4.22-2.33,8S295,429,294,431.55s4.6,7.4,9.47,7.3c3.47-.07,11.48-2.46,16.11-7s7.21-.3,11.47-2.6,1.28-18.5-.46-21.81A1.84,1.84,0,0,1,330.38,406Z"/><g class="cls-3"><path class="cls-4" d="M332,390.88c-3.59-3.32-8,2.09-11.72,2.11-.54,2.72-1.47,4.69-2.44,5.41-1.45,1.08-4.09,5.12-2,5.5s5.53,3.66,5.91,1.14,1.76-5.92,5.42-1.8a19.07,19.07,0,0,0,3.16,2.76c.54-1.92,4.92-2.34,7.15-4.68C340.25,398.48,336,394.55,332,390.88Zm76.67,32.84c.2-4.17-9-6.89-10-4.66s-3,2-4.6-.44,1.3-4.9-.23-5.14-3.56-3.68-3.16-5.08-2.58-10.22-7.33-11.24-5.58-7.66-6.48-11.25-3.94-1.59-6.35-4.59-6.43-1.4-8.51-1.21-.08-3.9,3.2-6.18,6.94-14.19,6.89-16.54-14.63-1.92-17.38-.47-5.6-2-3.26-3,7.24-6,6.92-7.93,3.4-3.82,1.27-5.58-2.31,2.41-4.08,3.84-5.82,1.1-10.14.35-5.86,5.4-5.67,8-4.91,4.27-4,6.47-.89,3.91-2.3,2.68-3-4.24-5.74-1.95,3.3,5.07,6.91,5.42-2.7,3.11-3.32,7,4.77,2.13,5.11,4.9-7.71,3.36-7.66,6,4.56-1.34,6.62-2.49-1,6.54,4,5.61,3.45-7.71,5.26-7.48-.75,3.63.84,6.51-3.46,7.44-3.14,9.52,10.32,1.87,13.44-1.53,4.72.18,2.56,2.72-1.15,4.89,1.65,5.81,3.78,1.16,2.58,3.4,0,6.4-.67,8.49-9.26,2-9.57.63-3.9-.34-2.88,1.58-3,4.09-2.66,5.9,5.45,1.27,5.63,3.49-3.65,4.94-8.88,6.58,1.22,5.67,3.68,3.81,2,1.2,5.58,1.13,5.91,2.8,9.89,1.19,3.89-.09.89,2.34-7.64,0-10.39,1.6-13.82,12.42-11.63,15c1.28,1.49,2.86-2.28,6.85-4s4.75,1,7,1.24,2.26-4.63,4.07-4.25,3.44-1.6,6.78-1.11a8.77,8.77,0,0,0,7.32-2.24c1.64-1.42,6.16,2.64,7.54,1.65s7.45-2.25,10.51-2.18,10.9-3.69,12.94-5.68-1.3-2.33-4.07-1.86-2.28-2.73.58-5.57S408.53,427.89,408.71,423.72Zm-84.92-68c3.75-.21,7.92-6.69,6.08-8.47S321,355.92,323.79,355.76Z"/><path class="cls-4" d="M332,390.88c-3.59-3.32-8,2.09-11.72,2.11-.54,2.72-1.47,4.69-2.44,5.41-1.45,1.08-4.09,5.12-2,5.5s5.53,3.66,5.91,1.14,1.76-5.92,5.42-1.8a19.07,19.07,0,0,0,3.16,2.76c.54-1.92,4.92-2.34,7.15-4.68C340.25,398.48,336,394.55,332,390.88Zm76.67,32.84c.2-4.17-9-6.89-10-4.66s-3,2-4.6-.44,1.3-4.9-.23-5.14-3.56-3.68-3.16-5.08-2.58-10.22-7.33-11.24-5.58-7.66-6.48-11.25-3.94-1.59-6.35-4.59-6.43-1.4-8.51-1.21-.08-3.9,3.2-6.18,6.94-14.19,6.89-16.54-14.63-1.92-17.38-.47-5.6-2-3.26-3,7.24-6,6.92-7.93,3.4-3.82,1.27-5.58-2.31,2.41-4.08,3.84-5.82,1.1-10.14.35-5.86,5.4-5.67,8-4.91,4.27-4,6.47-.89,3.91-2.3,2.68-3-4.24-5.74-1.95,3.3,5.07,6.91,5.42-2.7,3.11-3.32,7,4.77,2.13,5.11,4.9-7.71,3.36-7.66,6,4.56-1.34,6.62-2.49-1,6.54,4,5.61,3.45-7.71,5.26-7.48-.75,3.63.84,6.51-3.46,7.44-3.14,9.52,10.32,1.87,13.44-1.53,4.72.18,2.56,2.72-1.15,4.89,1.65,5.81,3.78,1.16,2.58,3.4,0,6.4-.67,8.49-9.26,2-9.57.63-3.9-.34-2.88,1.58-3,4.09-2.66,5.9,5.45,1.27,5.63,3.49-3.65,4.94-8.88,6.58,1.22,5.67,3.68,3.81,2,1.2,5.58,1.13,5.91,2.8,9.89,1.19,3.89-.09.89,2.34-7.64,0-10.39,1.6-13.82,12.42-11.63,15c1.28,1.49,2.86-2.28,6.85-4s4.75,1,7,1.24,2.26-4.63,4.07-4.25,3.44-1.6,6.78-1.11a8.77,8.77,0,0,0,7.32-2.24c1.64-1.42,6.16,2.64,7.54,1.65s7.45-2.25,10.51-2.18,10.9-3.69,12.94-5.68-1.3-2.33-4.07-1.86-2.28-2.73.58-5.57S408.53,427.89,408.71,423.72Zm-84.92-68c3.75-.21,7.92-6.69,6.08-8.47S321,355.92,323.79,355.76Z"/></g><path class="cls-1" d="M488.83,368.55c-1.4-.66-2.05-5.1-.42-6.51s2.23-6.73.81-8.08-6.39.13-6.73,3.89-4.39,2.17-5.49,3,2.27,2.45.5,4.16-2.55-2.45-5.47-2.66-3.1,4.5-4.57,6.9-.41,7.37.22,10.7,4.69,5.31,3.78,8.11c-.42,1.3.52,2.73,1.52,4.13a38.3,38.3,0,0,1,8.59.66,9.74,9.74,0,0,0,3.47-.15c-1.26-2-4-3.53-3.86-5,.24-1.94,2.9-.76,4.88.86s6.3,1.82,6.66-.27c.23-1.29-.84-7.21-3.45-5.76s-3.31.9-4.32-.47,1.87-3.65,2.52-5.88,5.24-1.51,5.9-3.33S490.23,369.22,488.83,368.55Zm21.16,8c-1.13-.68-1.91,2-3.16,2.29s-2.74-5.23-3.24-2.16-3.36-1.18-6,2.76,1.82,7.33,3.79,8.54-.08,3.06-2.59,2.56-.89,3.62,2.59,4.11,7.09-6.26,6.64-7.92S511.32,377.38,510,376.59Z"/><path class="cls-1" d="M609.65,226.71c-1.37-1.3-4.12-4.82-1.89-4.86s3-6.75.28-8-.15-7.15-2.42-8.43-1-5.79-.62-8.92-8.61-5.62-13.56-7.75-7.26-5.65-11.32-7.8-5.28,3.68-5.21,7.26-3.48,4.09-6.21,1.91-5.8.12-9.85-1.57-2.15,4.06-2.09,6.73-4.41,2.77-7.08,2.82-7.1,2.39-7,5.51-3.91,5-2.54,6.75-.37,3.58-2.13,5-3.44,5.87-4.76,7.24,1,3.55-1.67,5.39-5.79.56-7.1,1.93.1,4.47-.26,8.5-3.4,8.54-6,12.16,1,4.46,2.34,4.86,1.39,2.66.11,5.36-4.45,1-6.24.59-6.65,1.92-9.24,6.44-1.64,7.17-.7,9.38-2.12,5,.2,9.38-.78,5.37-.25,8.93,5.86,3,6.38,6.56-1.68,4.94-3.47,5-1.26,3.6.55,4.45,1.48,7.11.63,8.92-6.69.15-6.2,2.36-1.22,5.83-1.18,7.62-.29,7.59-2.1,6.28a4.23,4.23,0,0,0-2.94-.35c0,.28,0,.56,0,.88a11.32,11.32,0,0,0,4.37,9.35c3.1,2.45.82,6.24,3.53,9.66s1.93,5.93,4.9,8.37,3.28,3.82,2.09,7,2.55,2.31,2.73,4.25-.7,6,.31,7.92,2.92-.07,7.36-.3,3.27-3,3.35-5.63,2.34-1.43,2.85-3.11,4.54-2.18,7.76-.87,4.84-1.06,5.33-4.41,2.37.65,3.36,1.32,3.78-5.22,5.09-9-.2-3.05-3.32.62-1.46-3.57-.27-6.52.87-11.42,1.24-13.36,1.15-4.89,5.16-5.81,9.18-6,8.31-8.08,5.44-5.67,5.39-7.76-6.84-8.34-9.09-9.67-7.09-.13-6.71-1.67S549.11,302,548.5,299s3.33-6.32,3.27-9.24-.26-6.25,2.35-7.27.91-3.49,4.36-4.4,2.66-5.89,6.37-7.5,4-2.86,8.78-5.32,12.89-8.19,14.22-11.14-5.13-5.87-1.16-9,.55-6.54,3.44-7.71,4-2.72,6-5,4.85-.24,9.83-1.18a12.37,12.37,0,0,1,5.09.12C610.8,229.12,610.27,227.31,609.65,226.71ZM565.26,349.86c-5.27.25-7.52,10.69-6.13,12.36C560.28,363.58,570.53,349.61,565.26,349.86Z"/><path class="cls-1" d="M647.24,330.42c1.1-2.5,4.1-3,1.79-6.2a5.34,5.34,0,0,1-2,1c-4,1.2-12.84-2.5-17.82-1.43s-15.12,1.29-17.42,3.84-8.27,3.37-5.59,5.53.07,3.34,2.07,5.94,3,3.69,5.63,3.07,4.74.73,2,3.71a.57.57,0,0,1-.11.16c4.44-.51,9.38-.9,10.12-.37,1.13.81,7.9,5.95,9.56,5.36,1-.36,5.58,0,9,.39a2.19,2.19,0,0,1,.28-2.6c1.23-1.07,3.94-1.13,2.43-3.18s-1.92-2.46-2.18-5-.92-3.73-.74-5.4S646.05,333.16,647.24,330.42Zm-49,7.77c-5,1.5-5.56,8.43-3.57,8.28,2.49-.2,8.09-5,9.59-6.6S603.19,336.7,598.22,338.19Zm4.08-4.11c1.08-2.11-8-1-5.95.82C597.91,336.26,601.24,336.18,602.3,334.08Z"/><path class="cls-1" d="M668.25,166.12c-.52,2.1-4.27,1.76-4.18-.33s-5.91-3.62-6.21-4.6,2.48-.88,4.74.32,3.75.34,6.2-2.07,6-.54,6.34-2.63-4.11-3.39-5-4.62-4.09-2.84-7.13-2.21-3.21-.63-5.06-2.26-7.32,1.27-7.24,5.15-3.42,3-2.22.88-1.76-4.55,1-5.3,1.14-4.88-4-5.19-7,4-5.72,5.4-3.33,7.43-5.41,7.47.18-5.14,0-7.91-2.11-1.21-5.91,3.32-6.62,8.61-8.83,9.07-2-4,1.54-6,3.6-7.31,5.95-7.36,2.3-2.82-1.18-3.58-4,3.14-5.06,4.27-6.84-1.8-6.68-.69-3,1.59-1.59,3.64-.61,3.91-2,1.44-4.87-.46-6.48,2.35-3.84,2.73-2.15,3.67,1.63,4.68-.85,5.43-1.68-6.78-3.6-6-.78-3.6,1.86-3.65,5.2-4,4.9-5c-.5-1.62-3.36-1.18-3.32.9s-4.13,1.76-7.6,1.68-3.25,4.11.69,6.24-.62,3.63-2.6,2-5-.73-7.08.29,5.07,3.37,5.38,4.61-3.65-1.45-4.46-.46-4.74-.59-5.07-2.95-6.51,1.11-3,1.86,2.28,3,2.35,6.07-4,.79-3.24-1.88-2.55-2-5.28-.31.36-3.06-.81-5.39-3.62.07-6.52.69-4.42.78-2.58,2.7,1.63,4.68-.75,4.32-3.32.07-3,2.28-3,2.42-3.32.49-5-1.29-6.37,1-5.19,4-4.72,6.49,3.45-1.33,6-.55-.1,2.09,1.32,3.31,1.2,4.28-.78,2.52-4.49-2.28-4.85.65-2.51-.36-4.22-2.41-3.25,4-5.08,2.61,3.49-5.76,2.05-7.82-2.33,1.3-5.45,4.56-7.43,3.21-5.87,4.71-3.15,2.43-3.93,5.08-7.28,3.77-11.4,6.64.9,2.89,3.21.2,3.17-1.17,6.87-3.62,7.68-4.46,9.1-3.53,3.78,1.6,5.53-.94,4-2,5.82-.54-3,2.84-.73,5-2.56,3.51-2.6,1.58-2.85-3.55-3.79-1.73-2.56,3.8-4.36,4-3.67,3.56-3.6,6.89-3.2.07-3.41,3-4.56,8.15-8.37,12-.18,4.59-1.38,7-5.83.4-7.33,1.4,1,6.79-1.07,8.64.09,4.3.14,6.38-5.45-1.13-5.82,1-5.11,1.64-6.49,2.22,2.87,3.82,5.41,5.72-2.29,3.52-2.9,1.31-4,1.48-8.26,3.51-2.37,5.88-5.7,6.09-2.25,5.46-4.44,7.18-1.75-3.85-5.23-3.92-3.14,2.43-1,5.3-3.17.77-5.07,3.31-7.47,1.4-9,3.52,4.2,2,5.07,3.64-5,.94-8,.31-2.13,3.93-4.93,3.44-6.19,2.49-4.2,4.4-1.49,2.25-3.46,1-3.57,1.88-4.22,4.25,3.83,3.54,3.71,4.64-3.55,3-1,3.51.76,2.76-.89,3.48-1.62,2.41.09,4.45-2.87,2.56-.58,5.71,3.87-.92,4.89,1.42,3.62.21,6.62-2.64,4.23,3,1.73,2.89-5.39,1.49-4.79,4-3.83,2.16-3.76-.9-5.13.66-3.14,2.85-.62,3.48-.57,5.56,3.78,1.59,5.26-.8,4-1.89,5,.45-2.35.61-2.29,3.8-2.07.46-3.83,3,7.24,6.93,10,7.57,5.49,3.63,11,2.69,15.88-11.45,17.23-13.29,4.45.19,6.5-1.53.7-6,2.22-6.84,2.45,4.53,3.85,5.05,2.2,1.44,2.32,4.21a4.23,4.23,0,0,1,2.94.35c1.81,1.31,2.13-4.5,2.1-6.28s1.67-5.4,1.18-7.62,5.34-.55,6.2-2.36,1.17-8.05-.63-8.92-2.33-4.41-.55-4.45,4-1.42,3.47-5-5.87-3-6.38-6.56,2.57-4.52.25-8.93.74-7.16-.2-9.38-1.88-4.87.7-9.38,7.45-6.86,9.24-6.44,5,2.13,6.24-.59,1.23-4.93-.11-5.36-4.93-1.23-2.34-4.86,5.63-8.15,6-12.16-1.05-7.13.26-8.5,4.47-.09,7.1-1.93.36-4,1.67-5.39,3-5.87,4.76-7.24,3.5-3.2,2.13-5,2.6-3.63,2.54-6.75,4.34-5.45,7-5.51,7.14-.15,7.08-2.82-2-8.44,2.09-6.73,7.13-.61,9.85,1.57,6.29,1.66,6.21-1.91,1.15-9.4,5.21-7.26c.31.17.61.36.92.55,1.26-3,3.75-5,6.13-4.71,3.58.38,5.94,6.57,10.42,7.36s9,2.5,10.27.23,4.5,1.25,7.15.3,2.78,4.86,5.39,1.23-.57-5.79,3.9-5.43,1.68-4.95,1.62-8.08,5.72-3.69,5.66-6.36,8-.62,9.33-2.44,5.73-3.23,7.59-.15,9.45,3.81,10,6.49a40.68,40.68,0,0,1,.11,5.23,6.55,6.55,0,0,1,4.28-2.23c2.77-.06,5.18-4.27,7.69-3.77,2.09.42,4.14,0,4.71-3.46C673,164.31,668.72,164.22,668.25,166.12Z"/><path class="cls-1" d="M532.68,590.89c-5.68,1.37-8,1.84-11.39.24s-8.7,1.7-7.84,3.91c.59,1.52,2.86,3.42,9.83,5.09s7.92,6.35,10.84,6.43,3.14-2.71,2.36-6.44,3.3-8.13,3.7-8.83S538.34,589.52,532.68,590.89ZM478.27,560.5c-3,2.7-5.58-.35-6.76,1.81-1.48,2.67,4.85,6.56,3.72,12s.95,12.21,4.07,9,4.7-1.76,6.45-4.17,0-11.11,1.21-15.3S481.27,557.79,478.27,560.5Zm68-5.88c-3.65-2.13-1.37-5.8-7.05-5.41s-12.64-6.54-14.9-14.69-11.14-8.38-13.47-13.19,2-5.46-.06-9.44c-1.13-2.22,1.23-4.25,4-5.43A81.43,81.43,0,0,1,515,494a16,16,0,0,1-4.8-.85c-1.06-.6-1.33-3.94-2-3.92s-6.45.13-7.47,1.2-4.11,3-5.8,2c-.36-.21-.76-.42-1.17-.61L492,493.52s-.24,2.23-1.35,2.26-2.79-.77-2.75,1.16-3,1.45-4.42,1.21-3.33.34-3.29,2-.17,5.29-2.43,3.39-4.6-6.85-5.42-6.28-2.63,6.72-4.58,6.76c-1.2,0-5.16.43-8,.74-.7,2.41.13,3.81,1.16,4.41s-.56,3.13-1.8,3.79-3.33.07-1.82,2.33,4.22,2.41,2.81,4.73a2.83,2.83,0,0,0,2.18,4.54c2.08.16,5-.31,4.4,1.37a13.83,13.83,0,0,0-1,3.2c1.63-.51,3.08-.62,4.5-1.41,2.89-1.57,1.59-4.19,6.41-5.68s11.31,2.4,13.31,5.27,2.57,3.15,3,5.5,2.38,7,9.13,11.2,9.5,9,13,10.7,7,1.25,9.11,3.7,4.94,3.79,8.3,5.25,3.58,5.06,6.78,5.41,1.18,3.17,3.17,5.49,2.66,7.31.64,10.13-.82,7.52.57,7.49,4.2-5.09,4.56-7.87,3.14-2.7,5.29-5.67-3.4-3.55-4.45-7.27,4-7.18,8.94-4.22,6.91,5,7.08.27S549.88,556.77,546.22,554.62Z"/><path class="cls-1" d="M568.5,531.29c-1.87,2.63-3.68,6-3.45,7a8.94,8.94,0,0,1-.33,2.92,50.2,50.2,0,0,0,6.75,4.79l.5.25c.49-3.1,2.55-6.33,4.08-6.73C573.84,537,570.59,533.29,568.5,531.29Z"/><path class="cls-1" d="M601.38,528.32c-2.13-1.84-2-5.16-.14-6.46s.15-2.92.11-5-9-2.52-10.49-2.91.93-5.85-1.36-5.8-3.16-1.6-3.2-3.27-3.63-4.3-3.45-5.35a1.07,1.07,0,0,1,.25-.43c-1.29-.16-2.28-.3-2.65-.37a35.4,35.4,0,0,1-4.05-1.15s-5.74,2-9.73,3.29c.32,2.44,1,5.09,2.57,5.63,3,1.06,2,4.06,3.13,6.66s1,14.54-.44,14.57c-.63,0-2,1.59-3.43,3.56,2.09,2,5.34,5.67,7.55,8.27a1.2,1.2,0,0,1,.29-.09c1.86,0,8.8,4.79,8.8,4.79s9.62-2.22,16.11-3.3a13.78,13.78,0,0,0,.13-2.85c-.24-1.24,1.17-3.77,3-3.81S603.5,530.15,601.38,528.32Z"/><path class="cls-1" d="M354.1,295.87c4.61-.33,4.39-5.42,6.29-5.22s4.89-3.65,6-6-1.44-6.6-4.28-6.54-5-2.15-4.46-3.81-1.62-3.76-1.53-4.94-3.55-.05-5.43.47-6-4.5-7.77-3.52-.4,3.44-.84,4.88-4.76-1.21-4.73.45-1.73,1.93-3.19.18-4.76-.61-4.6.81-1.42.27-4.17-1.33-5.53,2-5.25,3.78-.9,2.27-3.23-1.59-4.85.45-3.62,2.57.81,4.71-1,3.68-4.13.8-5.16,2.48-5-4.75-2.27-6.35-8.8-7.86-12.35-7.79-1.13,2.64,1.28,4.48-1.64,1.45-3-.18-3.79-.28-5.17,2.12-3.71,3.75-3.9,5.41,4.09,3.35,7.73,1.73,7.77-1.94,9.7-.2-3.38,2.56-1.46,3.93.41,2.6-4.09,2.34-9.92,1.15-9.06,2.68,11.45-1.54,11.6,0,.09,4.14,2.91,2.9,1,2.11,2.41,2.67,1.14,3.41-2.64,3.73-5.61,1.11-4,2.68c2.06,2,6.17.46,10.17-.56s9.91,3.69,14.68,5.49,12.88-1,13.78-3.49,7.3-1.69,9.86-3.52A20.89,20.89,0,0,1,354.1,295.87Z"/><path class="cls-1" d="M492.18,491.17A3.23,3.23,0,0,0,489.3,488c-2.93-.47-2.77-1.49-3.07-2.42a11,11,0,0,0-1-1.69s-1.6.19-1.15,2.88c.15.87.23,1.45.27,1.84a2.55,2.55,0,0,0,.86,1.66,3.89,3.89,0,0,0,2.93,1.22A10.2,10.2,0,0,1,492.18,491.17Z"/><path class="cls-1" d="M395.26,543.8s-.79,3.41,4.43,3.1c0,0,3.41-1.82,6.57-.77s1.94-1.75,1.94-1.75-3.11-.52-4.38-1.64-2.2-2-3.42-1.81a.87.87,0,0,0-.74,1.27S399.88,543.68,395.26,543.8Z"/><path class="cls-1" d="M464.35,529.69a9.35,9.35,0,0,0-4.79.84c-1.13.53-3.63.1-4,2.27-1,6.85,3.44,1.11,3.44,1.11l4.31-3.78,1-.44Z"/><path class="cls-1" d="M688.72,400.41c-1.67-.38-2.79-4.11-5.53-5.09S681,391,678.7,389.58s-.93-4.36-1.19-6.65.3-5.84-1-6.44-6.54-3.41-8.8-2.31-3.92,1.95-5,.1-2.56-2.87-4.84-2.19-3.76-.34-5-1.36a2.19,2.19,0,0,1-.49-.67,7.36,7.36,0,0,0-2.9,1.23c-1.37,1.14-1.59,3.37-3.54,3.41s-4.18-.74-6.37,1-2.7,3.68-2.4,5.05.64,3.6-1,3.64-1.35,2-3,2.56-4.38,3.15-4.63,4.54-.19,4.45-1.3,4.48-5,.65-6.07,2.07-2.43,2.83-4.67,2.32a46,46,0,0,0-6.89-.34,1.69,1.69,0,0,1-.05.83,6.42,6.42,0,0,0,1.61,7.05c1.7,1.42,2.44,7.24.59,8.12s-5.35,3.44-5.32,4.9,3.8,2.63,3.23,4.73a15.3,15.3,0,0,0-.06,5.15c1.77,0,3.53.32,5-1.22,1.63-1.71,2.43-3.67,6-3.75s14.44-.3,16.14,1.61,6.12.15,8.64,1.21,6.16,2.1,6.41.7,3.65,1.86,6.12.43,4.78,2.67,6.16,1.81,7.19-1,8.61.38,1.63-1.43,1.6-3.1,5.44-6.22,5.44-6.22a21.15,21.15,0,0,0,6-1.34,11.84,11.84,0,0,1-1.48-3.9c-1.13-4.56-2.85-7.23-1.63-8.72s4.82,1.78,6.68.91,5.15-2.62,4.7-4.48S690.4,400.79,688.72,400.41Z"/></svg>