<svg xmlns="http://www.w3.org/2000/svg" viewBox="0 0 800 800"><defs><style>.cls-1{opacity:0.6;}.cls-2{fill:#4ea1a6;}.cls-3{fill:#72282c;}.cls-4{fill:#95261e;}.cls-5{fill:#db3333;}.cls-6{fill:#3f0c06;}.cls-7{fill:#c8302d;}.cls-8{fill:#ff4352;}.cls-9{fill:#1b1f2c;}.cls-10{fill:#12151f;}.cls-11{fill:#b73333;}.cls-12{fill:#fff;}.cls-13{fill:#8a2b26;}.cls-14{fill:#e8424f;}.cls-15{fill:#fcfcfc;}.cls-16{fill:#efefef;}.cls-17{fill:#070707;opacity:0.2;}.cls-18{fill:#e5e6e6;}</style></defs><title>mailbox</title><g id="Background"><g class="cls-1"><circle class="cls-2" cx="397.89" cy="386.28" r="317.4"/></g></g><g id="Objects"><rect class="cls-3" x="621.46" y="564.52" width="24.59" height="235.43"/><rect class="cls-4" x="463.7" y="624.5" width="6.75" height="14.55" rx="2.4" ry="2.4" transform="translate(270.41 -128.9) rotate(21.98)"/><rect class="cls-5" x="507.14" y="444.92" width="6.74" height="14.55" rx="2.4" ry="2.4"/><rect class="cls-3" x="511.31" y="555.89" width="240.5" height="17.27"/><rect class="cls-6" x="511.31" y="556.9" width="232.79" height="16.26"/><rect class="cls-6" x="615.61" y="564.52" width="24.59" height="235.43"/><path class="cls-5" d="M756.74,555.89V512.08a62.19,62.19,0,0,0-62-62H520.29a57.24,57.24,0,0,0-57.08,57.08v48.74Z"/><path class="cls-7" d="M726.43,458.88a61.38,61.38,0,0,0-31.7-8.81H520.29A56.54,56.54,0,0,0,490,458.88Z"/><rect class="cls-7" x="463.21" y="542.99" width="293.54" height="12.9"/><path class="cls-8" d="M694.73,450.07h0a57.25,57.25,0,0,1,57.08,57.08v48.74h4.93V512.08A62.19,62.19,0,0,0,694.73,450.07Z"/><path class="cls-8" d="M527.65,456A36.64,36.64,0,0,0,495,456a57.24,57.24,0,0,0-31.75,51.11v48.74h96.2V507.15A57.25,57.25,0,0,0,527.65,456Z"/><path class="cls-9" d="M555.43,508.07c0-21.74-11.74-40.59-28.54-49.19a34.13,34.13,0,0,0-30.9,0c-16.8,8.6-28.54,27.45-28.54,49.19v46.56l1.26,1.26H555.4l0,0Z"/><path class="cls-10" d="M498.72,508.07c0-21.66,11.65-40.44,28.36-49.08a1.18,1.18,0,0,1-.19-.11,34.13,34.13,0,0,0-30.9,0c-16.8,8.6-28.54,27.45-28.54,49.19v46.56l1.26,1.26H500l-1.26-1.26Z"/><rect class="cls-11" x="576.67" y="497.51" width="42.76" height="21.38"/><path class="cls-12" d="M597.23,505.69v3.91h72.43a5.68,5.68,0,0,1,5.68,5.69v8.53h25.49V505.69Z"/><path class="cls-8" d="M588.23,508.5a2.51,2.51,0,1,1-2.51-2.51A2.51,2.51,0,0,1,588.23,508.5Z"/><path class="cls-3" d="M631.5,573.16a2.51,2.51,0,1,1-2.5-2.51A2.5,2.5,0,0,1,631.5,573.16Z"/><path class="cls-13" d="M577.64,548.26a2,2,0,1,1-2.89,0A2,2,0,0,1,577.64,548.26Z"/><path class="cls-13" d="M592.42,548.26a2,2,0,1,1-2.88,0A2,2,0,0,1,592.42,548.26Z"/><path class="cls-13" d="M607.21,548.26a2,2,0,1,1-2.88,0A2,2,0,0,1,607.21,548.26Z"/><path class="cls-13" d="M622,548.26a2,2,0,1,1-2.88,0A2,2,0,0,1,622,548.26Z"/><path class="cls-13" d="M636.79,548.26a2,2,0,1,1-2.88,0A2,2,0,0,1,636.79,548.26Z"/><path class="cls-13" d="M651.58,548.26a2,2,0,1,1-2.88,0A2,2,0,0,1,651.58,548.26Z"/><path class="cls-13" d="M666.37,548.26a2,2,0,1,1-2.88,0A2,2,0,0,1,666.37,548.26Z"/><path class="cls-13" d="M681.16,548.26a2,2,0,1,1-2.88,0A2,2,0,0,1,681.16,548.26Z"/><path class="cls-13" d="M696,548.26a2,2,0,1,1-2.88,0A2,2,0,0,1,696,548.26Z"/><path class="cls-13" d="M710.74,548.26a2,2,0,1,1-2.88,0A2,2,0,0,1,710.74,548.26Z"/><path class="cls-13" d="M725.53,548.26a2,2,0,1,1-2.88,0A2,2,0,0,1,725.53,548.26Z"/><path class="cls-13" d="M740.32,548.26a2,2,0,1,1-2.88,0A2,2,0,0,1,740.32,548.26Z"/><circle class="cls-13" cx="539.43" cy="454.47" r="1.1"/><circle class="cls-13" cx="553.43" cy="454.47" r="1.1"/><circle class="cls-13" cx="567.43" cy="454.47" r="1.1"/><circle class="cls-13" cx="581.42" cy="454.47" r="1.1"/><circle class="cls-13" cx="595.42" cy="454.47" r="1.1"/><circle class="cls-13" cx="609.42" cy="454.47" r="1.1"/><path class="cls-13" d="M624.2,453.69a1.1,1.1,0,1,1-1.56,1.56,1.09,1.09,0,0,1,0-1.56A1.1,1.1,0,0,1,624.2,453.69Z"/><circle class="cls-13" cx="637.41" cy="454.47" r="1.1"/><path class="cls-13" d="M652.19,453.69a1.09,1.09,0,0,1,0,1.56,1.1,1.1,0,1,1,0-1.56Z"/><circle class="cls-13" cx="665.41" cy="454.47" r="1.1"/><path class="cls-13" d="M680.19,453.69a1.1,1.1,0,1,1-1.56,1.56,1.09,1.09,0,0,1,0-1.56A1.1,1.1,0,0,1,680.19,453.69Z"/><circle class="cls-13" cx="693.4" cy="454.47" r="1.1"/><path class="cls-4" d="M445.88,589.42c-7.51,16.12-3.81,31.13,8.2,39.58,7.17,5,18.34,6.77,30,4.41,21.49-4.35,43.37-18.5,53.55-37.37l23.48-43.55h-98l0,0Z"/><path class="cls-5" d="M445.72,587.89c-7.21,15.45-3.65,29.84,7.88,37.94,6.88,4.84,17.6,6.49,28.77,4.23,20.63-4.17,41.63-17.73,51.4-35.82l21.54-39.89a1.28,1.28,0,0,0-1.2-1.86H462.25l0,0Z"/><path class="cls-14" d="M450.25,588.32c-6.39,13.73-3.24,26.5,7,33.69,6.11,4.3,15.63,5.77,25.55,3.76,18.32-3.71,37-15.74,45.64-31.81l19.12-35.42a1.13,1.13,0,0,0-1.07-1.64H464.93l0,0Z"/><circle class="cls-4" cx="563.91" cy="541.62" r="6.92"/><polygon class="cls-4" points="554.77 552.66 558.48 544.88 565 544.88 561.09 552.49 554.77 552.66"/><circle class="cls-5" cx="563.91" cy="541.62" r="4.42"/><rect class="cls-8" x="563.53" y="538.84" width="0.78" height="5.52" rx="0.28" ry="0.28"/><rect class="cls-8" x="563.53" y="538.84" width="0.78" height="5.52" rx="0.28" ry="0.28" transform="translate(1105.52 -22.32) rotate(90)"/><rect class="cls-15" x="329.52" y="86.21" width="309.64" height="173.65" transform="translate(111.05 -180.78) rotate(23.81)"/><polygon class="cls-16" points="510.38 108.51 307.64 189.98 590.94 314.97 510.38 108.51"/><polygon class="cls-17" points="656.98 154.31 377.74 31.11 468.49 206.28 656.98 154.31"/><polygon class="cls-18" points="656.98 154.31 377.74 31.11 474.27 190.38 656.98 154.31"/><polygon class="cls-17" points="436.03 143.62 307.64 189.98 433.78 139.28 436.03 143.62"/><polygon class="cls-17" points="535.73 187.61 590.94 314.97 540.46 186.34 535.73 187.61"/><polygon class="cls-15" points="407.08 387.2 200.96 407.69 186.4 260.89 397.38 281.36 407.08 387.2"/><polygon class="cls-16" points="308.73 284.96 200.96 407.69 407.08 387.2 308.73 284.96"/><polygon class="cls-17" points="395.2 281.15 186.4 260.89 316.64 360.5 395.2 281.15"/><polygon class="cls-18" points="395.2 281.15 186.4 260.89 314.76 348.57 395.2 281.15"/><polygon class="cls-17" points="275.27 328.87 200.96 407.69 272.21 326.52 275.27 328.87"/><polygon class="cls-17" points="347.28 329.43 407.08 387.2 349.33 327.4 347.28 329.43"/><polygon class="cls-15" points="429.14 526.68 286.16 541.27 301.84 413.48 434.86 460.95 429.14 526.68"/><polygon class="cls-16" points="387.86 452.99 286.16 541.27 429.14 526.68 387.86 452.99"/><polygon class="cls-17" points="433.87 460.6 301.84 413.48 383.05 506.19 433.87 460.6"/><polygon class="cls-18" points="433.87 460.6 301.84 413.48 383.43 497.64 433.87 460.6"/><polygon class="cls-17" points="360.42 480.36 286.16 541.27 358.65 478.33 360.42 480.36"/><polygon class="cls-17" points="404.64 486.75 429.14 526.68 405.99 485.56 404.64 486.75"/><path class="cls-5" d="M516.81,155.12a37.86,37.86,0,0,1-16.73,3.7c-13.67,0-24-8.36-24-23.8,0-14.72,9.25-25.09,24-25.09,14.07,0,23.72,9.57,23.72,23.16,0,8.2-4.18,13.91-11.25,13.91-3.38,0-6.36-1.45-7.48-4.83a9.23,9.23,0,0,1-7.32,3.7c-5.71,0-10.13-5.47-10.13-12.3,0-7.8,5.87-12.22,11.1-12.22,1.36,0,4.82.4,5.3.4h3.54v16.64c.56,3.3,2.49,5,5,5,4.66,0,7-4.82,7-10.37,0-11.18-7.8-19.3-19.38-19.3-12.3,0-19.78,8.92-19.78,21.07,0,12.54,7.48,20.18,20.51,20.18,5.38,0,11.09-1.29,14.79-3.46Zm-13.27-29.35a32.37,32.37,0,0,0-4.58-.4c-4.51,0-7.32,3.38-7.32,8,0,3.3,1.37,8.44,5.95,8.44,3.14,0,4.66-2.33,5.47-3.94a3.69,3.69,0,0,0,.48-1.28Z"/></g></svg>