<svg id="Réteg_1" data-name="Réteg 1" xmlns="http://www.w3.org/2000/svg" viewBox="0 0 800 800"><defs><style>.cls-1{fill:#f9d35b;}.cls-2{fill:#eaa24b;}.cls-3{fill:#503d20;}.cls-4{fill:#dc5c5d;}</style></defs><title>nagyonrossz</title><path class="cls-1" d="M758.39,400c0,198.14-160.61,358.76-358.75,358.76S40.87,598.16,40.87,400,201.5,41.26,399.64,41.26,758.39,201.89,758.39,400Z"/><path class="cls-2" d="M531.5,48.57c-147.33-55.9-320.16-9.9-420.45,111.5C10.38,282-3.89,458.87,78.47,594.44,159.71,728.13,318.55,797.74,472,768.35,647.55,734.71,772.77,576.86,775,400,773,244.49,677.63,104,531.5,48.57ZM514.43,722.45c-135.15,47.83-289,4.88-379.88-106S32.81,344.74,107.16,222.37c74-121.71,220.59-186.4,360.36-157.8C626.72,97.15,739.75,238.69,741.78,400,740,543.29,650.68,674.24,514.43,722.45Z"/><path class="cls-3" d="M400,490.76A207.94,207.94,0,0,0,213.89,605.82c-20.31,40.6,14.69,87.07,59.51,79.89l44.54-7.14a519.27,519.27,0,0,1,164.12,0l44.55,7.14c44.82,7.18,79.81-39.29,59.51-79.89A208,208,0,0,0,400,490.76Z"/><path class="cls-4" d="M400,619c-58.11,0-105.22,26.94-105.22,60.18,0,1,.08,2.08.18,3.11l23-3.69a519.27,519.27,0,0,1,164.12,0l23,3.69c.09-1,.18-2.07.18-3.11C505.23,645.91,458.11,619,400,619Z"/><path class="cls-3" d="M265.71,296.76l66.61-66.63c12-12-6.6-30.56-18.58-18.58l-66.63,66.63L180.5,211.55c-12-12-30.56,6.6-18.58,18.58l66.62,66.63-66.62,66.62c-12,12,6.6,30.56,18.58,18.58q33.32-33.3,66.61-66.62,33.33,33.3,66.63,66.62c12,12,30.56-6.6,18.58-18.58Z"/><path class="cls-3" d="M638.09,363.38q-33.3-33.33-66.62-66.62l66.62-66.63c12-12-6.6-30.56-18.58-18.58l-66.62,66.63q-33.32-33.31-66.63-66.63c-12-12-30.55,6.6-18.58,18.58l66.63,66.63q-33.31,33.3-66.63,66.62c-12,12,6.61,30.56,18.58,18.58q33.33-33.3,66.63-66.62L619.51,382C631.49,393.93,650.07,375.36,638.09,363.38Z"/></svg>