<svg id="Réteg_1" data-name="Réteg 1" xmlns="http://www.w3.org/2000/svg" xmlns:xlink="http://www.w3.org/1999/xlink" viewBox="0 0 300 300"><defs><style>.cls-1{fill:url(#Névtelen_színátmenet_4);}.cls-2{fill:url(#Névtelen_színátmenet_2);}.cls-3{fill:url(#Névtelen_színátmenet_3);}</style><linearGradient id="Névtelen_színátmenet_4" x1="-11729.56" y1="-8830.18" x2="-11549.64" y2="-8936.49" gradientTransform="translate(1452.86 1317.04) scale(0.12)" gradientUnits="userSpaceOnUse"><stop offset="0" stop-color="#909ca9"/><stop offset="1" stop-color="#ededee"/></linearGradient><linearGradient id="Névtelen_színátmenet_2" x1="-11725.52" y1="-10833.79" x2="-11580.76" y2="-10833.79" gradientTransform="translate(1452.86 1317.04) scale(0.12)" gradientUnits="userSpaceOnUse"><stop offset="0" stop-color="#939fab"/><stop offset="1" stop-color="#dcdee1"/></linearGradient><radialGradient id="Névtelen_színátmenet_3" cx="-1970.15" cy="-6182.92" r="195.46" gradientTransform="matrix(-0.11, -0.02, 0.03, -0.22, 137.05, -1310.24)" gradientUnits="userSpaceOnUse"><stop offset="0" stop-color="#ee352c"/><stop offset="1" stop-color="#a91d22"/></radialGradient></defs><title>sql-logo</title><path class="cls-1" d="M185.84,140.45l-59.08,19.29L75.37,182.43,61,186.22c-3.66,3.49-7.5,7-11.66,10.59-4.55,3.93-8.79,7.5-12,10.09a89.83,89.83,0,0,0-11.7,11.61c-4.07,5.09-7.28,10.49-8.66,14.65-2.46,7.5-1.25,15.09,3.48,22.1,6.07,8.93,18.17,18,32.28,24.25A205.66,205.66,0,0,0,81.08,289c15.14,3.84,44.43,8,60.55,8.62a71.62,71.62,0,0,0,7.82,0c.36-.23,2.86-5,5.76-10.94,9.91-20.23,17.06-39.21,20.94-55.42,2.32-9.82,4.15-22.91,5.36-38.4.31-4.33.45-18.84.18-23.76a167.69,167.69,0,0,0-2.23-20.94,4.86,4.86,0,0,1-.14-1.83c.18-.13.72-.31,8-2.41l-1.47-3.48Zm-13.48,7.91c.53,0,2,13.71,2.32,22.37a11.75,11.75,0,0,1-.05,3c-.35,0-7.54-4.25-12.68-7.46-4.46-2.81-12.95-8.44-14.29-9.51-.44-.31-.4-.36,3.26-1.61C157.13,153.09,171.87,148.36,172.36,148.36Zm-30.1,9.91c.4,0,1.43.58,3.88,2.1,9.2,5.76,21.71,12.73,27.07,15,1.65.71,1.83.45-2,3a194.89,194.89,0,0,1-30.68,16.47c-2.19,1-4,1.74-4.06,1.74a11.8,11.8,0,0,1,.53-2.45,131.26,131.26,0,0,0,4.78-31.39c.05-4.47.05-4.47.45-4.6-.09,0,0,0,0,0Zm-6.21,2.37c.27.27.09,10.27-.27,13a113.77,113.77,0,0,1-4.1,19.43,28.55,28.55,0,0,1-1,3.12c-.18.23-6.3-5.76-8.31-8.08a60.56,60.56,0,0,1-8.21-12,36.89,36.89,0,0,1-2.5-6.07c.71-.49,24.24-9.6,24.42-9.42Zm-29.2,11.47a.15.15,0,0,1,.13,0,7.66,7.66,0,0,1,.67,1.61A60.49,60.49,0,0,0,115.07,187a75.7,75.7,0,0,0,10.31,11.12c1.07.89,2.05,1.74,2.19,1.87s.36.23-6.92,3c-8.44,3.22-17.64,6.43-28.18,9.83l-7.55,2.45c-.4.14-.26-.09.9-1.92C91,205.2,99,189.17,103.46,177.83c.75-2,1.51-3.93,1.65-4.38a1.63,1.63,0,0,1,1-1.16,4.26,4.26,0,0,1,.76-.18Zm-8.93,3.71a101.63,101.63,0,0,1-4.38,9.24c-4.33,8.44-9.06,16.75-15.4,26.84-1.08,1.74-2.1,3.35-2.24,3.53s-.31.22-1-1.16a40.83,40.83,0,0,1-3.44-10.36,41.69,41.69,0,0,1,.22-13.31c.58-2.77.54-2.72,1.88-3.39,5.71-2.91,24.2-11.57,24.38-11.39ZM175,179v1.87a241.92,241.92,0,0,1-2.64,33.58c-.27,1.74-.49,3.17-.53,3.22s-1.3-.36-2.82-.81A115.84,115.84,0,0,1,148.42,208c-4.33-2.37-10.63-6.26-10.45-6.43s1.92-1,4.11-2.19a264.41,264.41,0,0,0,24.43-14.34c2.72-1.83,6.83-4.77,7.72-5.58L175,179ZM64.2,192.16c.18,0,.14.36-.13,2-.18,1.16-.4,3.3-.49,4.78-.36,6.52.71,11.34,3.93,18a36.73,36.73,0,0,1,1.56,3.39c-.31.27-29.87,8.93-39.16,11.48l-5.36,1.47c-.31.09-.36.05-.22-.71,1-6.57,6-15.14,13-22.38A58,58,0,0,1,52,198.86c4.56-2.59,11.57-6.47,12.1-6.65,0-.05,0-.05.09-.05Zm69.66,12.46a18.62,18.62,0,0,1,2.42,1.3,134.53,134.53,0,0,0,34.2,13.3l1,.23-1.43.8c-5.94,3.31-25.45,11.43-45.41,18.89-2.91,1.07-5.76,2.14-6.3,2.37a3.45,3.45,0,0,1-1,.31s.81-1.61,1.83-3.53c5.58-10.45,11.21-23.17,14.07-32,.36-.84.58-1.6.62-1.65Zm-7.1,2.32A12.27,12.27,0,0,1,126,209a283.81,283.81,0,0,1-15.5,31.21c-1.65,2.95-3,5.32-3.08,5.32s-1.39-.81-3-1.79c-9.47-5.81-17.86-13-23.36-19.87l-.8-1,4.06-1.12a290.81,290.81,0,0,0,39.21-13.53C125.29,207.53,126.72,206.94,126.76,206.94Zm44.12,15.41h0c.05,1-2.23,10.23-4.11,16.88-1.56,5.58-2.9,10-5.35,17.68-1.08,3.4-2,6.21-2.06,6.21a3.85,3.85,0,0,1-.58-.13,187.48,187.48,0,0,1-36.3-10.23c-3.13-1.25-7.59-3.26-7.86-3.48a52.67,52.67,0,0,1,6-2.82c20.32-8.88,41.4-19,48.63-23.31a6,6,0,0,1,1.65-.8ZM69,225.83c.09.09-5.58,8.26-13.53,19.38-2.77,3.89-6,8.44-7.19,10.14s-3,4.38-4.07,6l-1.87,2.91-2-1.7a73.89,73.89,0,0,1-8.31-8.49,36.47,36.47,0,0,1-7.45-14.42c-.5-2.14-.5-3.21-.05-3.35.67-.18,12.59-3,23.76-5.58,6.2-1.43,13.39-3.13,16-3.75S69,225.83,69,225.83ZM74.74,228l1.43,1.61a84.11,84.11,0,0,0,20.94,17.15,11.61,11.61,0,0,1,2.42,1.56c-.32.22-27.6,9.91-40.24,14.29-7.1,2.5-12.95,4.51-13,4.51a7.63,7.63,0,0,1-.9-.58l-.8-.58,1.3-1.88c4.19-6.07,9.46-12.72,20.94-26.57l7.9-9.51Zm35.64,25.5c0-.05,2,.67,4.42,1.56a143.53,143.53,0,0,0,16.56,5.14,184.33,184.33,0,0,0,25.06,4.33c1,.09,1.51.18,1.33.31s-6.87,2.37-11.69,3.89c-7.69,2.41-31.13,9.33-50.24,14.82-3.53,1-6.56,1.88-6.74,1.92a3.51,3.51,0,0,1-1.92-.49,32.76,32.76,0,0,1,2.36-3,265.16,265.16,0,0,0,18.13-24.38c1.48-2.24,2.73-4.07,2.73-4.11Zm-7.86.22s-3.13,5.14-8.66,13.89c-2.37,3.71-5,7.9-5.94,9.38s-2.24,3.66-3,4.91l-1.29,2.28L83,284c-1.61-.45-12.91-4.42-15.9-5.63a110,110,0,0,1-10.4-4.78c-3.57-1.92-8-4.78-7.68-4.86.09-.05,6.2-1.7,13.57-3.71,19.56-5.32,30.41-8.4,37.51-10.63a19.17,19.17,0,0,1,2.46-.67Zm55.59,13h0c.18.45-7.06,20.54-9.69,26.88-.58,1.43-.81,1.79-1.12,1.74-.76,0-11.25-1.51-17.64-2.45-11.12-1.7-29.78-5-34.47-6l-1.07-.22,6.65-1.52c14.29-3.22,21.17-5,28.13-7.1a198.17,198.17,0,0,0,26.3-10.14,23.73,23.73,0,0,1,2.86-1.16Z"/><path class="cls-2" d="M124.93,2.74c-1-.13-16.83,5.58-27.06,9.74-13.79,5.62-24.51,11-31.12,15.62-2.46,1.75-5.54,4.83-6,6a4.15,4.15,0,0,0-.27,1.52l6,5.67,14.24,4.56L114.57,52l38.76,6.65.41-3.35c-.14,0-.23,0-.36,0l-5.09-.8-1-1.84C142,43.29,136.19,31.77,132.79,24a149.59,149.59,0,0,1-6.52-18c-.76-3-.84-3.21-1.33-3.26h0ZM124.22,5h0a27,27,0,0,1,.41,2.77A92.6,92.6,0,0,0,129,26.59c1.65,4.91,1.65,4.64-.27,4.06-4.55-1.25-25-4.78-39.74-6.83-2.37-.31-4.38-.63-4.38-.67-.18-.18,10.67-5.85,15.45-8.08,6.12-2.82,22.91-9.83,24.16-10Zm-43,20,1.74.58c9.47,3.22,33.27,7.77,46.4,8.85l2.77.26a20.16,20.16,0,0,1-2.82,1.48c-6.34,3.17-13.3,7.05-18.12,10a17.85,17.85,0,0,1-2.91,1.61c-.18,0-1.11-.18-2.1-.31l-1.78-.27-4.47-4.38C92,35.25,85.86,29.35,83.5,27.12Zm-1.78,1.39,6.29,7.86c3.44,4.33,6.92,8.57,7.68,9.51a14.43,14.43,0,0,1,1.34,1.74c-.18.13-9.11-1.61-13.84-2.68S74,41.19,71,40.25l-2.45-.8v-.63c0-3,3.84-7.46,10.27-12l.58-.4Zm53.49,10.71c.18,0,.4.41.94,1.61,1.52,3.35,6.25,12.37,7.41,14.11.36.58,1,.63-5.31-.4-15.14-2.46-20-3.26-20-3.35a4.78,4.78,0,0,1,1-.67A87.1,87.1,0,0,0,130.56,39c1-.85,2-1.65,2.14-1.79s.14-.13.18-.09Z"/><path class="cls-3" d="M61,33.51a4.43,4.43,0,0,0,0,3.88c.58,1.43,2.28,3.17,4.2,5,0,0,19.87,19.38,22.28,22.15,11,12.68,15.76,25.18,16.21,42.42C104,118,101.85,127.73,96.62,139,87.33,159.3,67.73,181.67,37.5,206.5L41.92,205c2.86-2.14,6.74-4.42,15.85-9.42,21-11.52,44.7-22.1,73.73-33,41.79-15.72,110.52-34.11,149.63-40.1l4.07-.62-.63-1a138.38,138.38,0,0,0-9-12.64,107.26,107.26,0,0,0-31.71-26.39c-17.5-9.78-40.14-17.42-68.81-23.09-5.4-1.07-17.28-3.12-26.93-4.6C127.7,51,114.48,48.82,99.93,46.32c-5.23-.89-13-2.23-18.22-3.35A113.24,113.24,0,0,1,69.88,39.8C66.66,38.55,62,37.3,61,33.51ZM72.55,44.67a12.08,12.08,0,0,1,1.7.54c1.7.58,3.89,1.25,6.48,2q2.94.81,5.89,1.56c2.68.67,4.91,1.3,5,1.3.31.31,4.82,14.73,6.34,20.27.58,2.1,1,3.89,1,3.89a9.77,9.77,0,0,1-1.12-1.74c-5.22-9.2-13.48-18.54-23-26a18.26,18.26,0,0,1-2.19-1.74Zm22,6.07a17.74,17.74,0,0,1,2.42.41c7.59,1.69,21.21,4.28,29.91,5.76a10.69,10.69,0,0,1,2.64.58,4.62,4.62,0,0,1-1.21.76c-1.47.75-7.41,4.28-9.37,5.62A85.84,85.84,0,0,0,106.27,74c-1.3,1.3-2.41,2.37-2.41,2.37s-.27-.76-.49-1.7a145.24,145.24,0,0,0-8-21.88,18.46,18.46,0,0,1-.89-2c0,.09,0,0,0,0Zm38.67,7.37c.27.09.72,1.61,1.61,5A73.47,73.47,0,0,1,137,83.52a38,38,0,0,1-.27,3.84l-.14.45-2.32-.76c-4.78-1.52-12.55-3.8-19.2-5.67-3.8-1-6.88-2-6.88-2.06a105.37,105.37,0,0,1,7.91-7.9c4.51-4,16.74-13.44,17.14-13.31Zm3.09.45c.13-.14,18.48,3,26.83,4.64,6.21,1.21,15.23,3.08,15.77,3.31.26.09-.67.62-3.67,2A193.92,193.92,0,0,0,146,84.37c-2.28,1.52-4.2,2.77-4.25,2.77a25.56,25.56,0,0,1-.09-2.86A62.29,62.29,0,0,0,136.81,60,6.61,6.61,0,0,1,136.28,58.56Zm47.46,9.38a32.52,32.52,0,0,1-1,5.89c-1.61,6.65-5.94,16.52-11.25,25.81a30.76,30.76,0,0,1-1.88,3,20.4,20.4,0,0,1-2.68-1.43,144.92,144.92,0,0,0-17.5-8.58c-1.79-.76-3.35-1.38-3.39-1.47-.32-.27,14.06-9.78,21.65-14.33,6-3.66,15.85-9.11,16-8.93Zm3.4.53c.4,0,8.53,2.23,12.77,3.48a265,265,0,0,1,30.41,11.12l3.26,1.48-2.28.53A333.16,333.16,0,0,0,179.81,101c-1.29.54-2.45,1-2.54,1a11.61,11.61,0,0,1,.94-2.28C183,89.59,186.07,79,186.82,70c.05-.85.18-1.52.32-1.52ZM106.22,87.05c.14-.14,6.34,1.34,9.69,2.27,5.09,1.43,15.9,5.05,15.9,5.32,0,0-1.2,1.07-2.63,2.32-5.85,4.87-11.48,10-18.22,16.52-2,1.92-3.71,3.49-3.8,3.49s-.13-.27-.09-.63c1-7.5.81-17.15-.62-26.93C106.31,88.16,106.18,87.09,106.22,87.05Zm130.44.13a86.9,86.9,0,0,1-4.73,7.37c-2.68,3.84-6.61,8.93-15.5,20.09-4.69,5.9-10,12.55-11.7,14.78s-3.26,4.11-3.3,4.11a13.85,13.85,0,0,1-1.25-1.78,92.23,92.23,0,0,0-18.09-20c-1.34-1.12-2.81-2.33-3.3-2.68a5.59,5.59,0,0,1-.9-.76c0-.14,7.59-3.4,13.36-5.72,10.09-4.11,23.84-9,34.16-12.19,5.4-1.7,11.16-3.35,11.25-3.26Zm3.44.89a10.92,10.92,0,0,1,2.54,1.25,151.66,151.66,0,0,1,29.88,22.42c2.36,2.32,8.21,8.4,8.12,8.44s-2.05.18-4.46.36c-18.8,1.43-42.87,5.4-66,11-1.56.36-3,.67-3,.67s1.65-1.74,3.84-3.84c13.58-13.08,19.78-21.34,27.11-36.08,1-2.19,1.92-4.06,2-4.2ZM140.65,98.26c.63.13,6.43,2.85,10.81,5,4,2,10,5.23,10.36,5.49,0,0-2.1,1.16-4.73,2.46-8.4,4.2-15.59,8.17-23.09,12.73-2.14,1.29-3.93,2.36-4,2.36s-.13-.18,1.08-2.36a93.27,93.27,0,0,0,9.06-24.61c.18-.67.36-1.11.49-1.11Zm-5.8,1.07c.13.13-1.39,5.62-2.32,8.62a110.93,110.93,0,0,1-7.91,18.13c-.71,1.25-1.79,3.08-2.37,4.1L121.14,132l-2.5-2.41a32.72,32.72,0,0,0-8.31-6.12,11.75,11.75,0,0,1-2.14-1.25c0-.36,7.63-7.28,13.48-12.28,4.2-3.62,13-10.72,13.18-10.58Zm35.5,14.6,2.19,1.43a168.7,168.7,0,0,1,15.4,11.39c2.55,2.09,7.46,6.51,8.44,7.59l.54.58-3.62,1c-20.45,5.67-36.26,10.72-54.7,17.51-2.06.76-3.8,1.38-3.93,1.38s-.49.23,4.11-4a195.75,195.75,0,0,0,30-34.47l1.57-2.41ZM161,116.25c.09.09-6,8.71-9.69,13.58-4.37,5.8-12.14,15.54-17.5,21.88-2.23,2.63-4.15,4.82-4.24,4.86s-.18-.62-.18-1.65a37.29,37.29,0,0,0-3.8-16.07c-1-2.06-1.2-2.55-1-2.77.85-.76,13.84-8.17,22.06-12.59,5.54-2.95,14.2-7.33,14.33-7.24Zm-56.44,13.84a19.24,19.24,0,0,1,2.32,1.17,48.14,48.14,0,0,1,7.68,5.18,13.84,13.84,0,0,1-2.59,2.14c-4.24,3-10.67,7.9-14.42,10.89-3.93,3.13-4.06,3.22-3.62,2.55a82.92,82.92,0,0,0,6-10.32,83.35,83.35,0,0,0,3.75-9.33,7.78,7.78,0,0,1,.89-2.28Zm15.05,11.79c.22,0,.49.36,1.7,2.15a32.21,32.21,0,0,1,5,13l.09.89-6.12,2.37c-10.94,4.24-21,8.44-27.86,11.57-1.92.89-5.27,2.5-7.46,3.57s-4,2-4,1.92,1.39-1.07,3.09-2.32c13.35-9.69,24.91-20.32,33.58-31,.93-1.12,1.78-2.14,1.87-2.19Zm-6.92,1.7c.18.18-4.91,5.94-8.4,9.47a148,148,0,0,1-27.73,22.37l-2.68,1.7c-.31.17.09-.27,4.74-5.32,3-3.17,5.18-5.85,7.72-9.15a15.2,15.2,0,0,1,4.47-4.25C97.38,153.67,112.52,143.4,112.7,143.58Z"/></svg>