<svg id="Réteg_1" data-name="Réteg 1" xmlns="http://www.w3.org/2000/svg" viewBox="0 0 800 800"><defs><style>.cls-1{fill:#f9d35b;}.cls-2{fill:#eaa24b;}.cls-3{fill:#503d20;}.cls-4{fill:#dc5c5d;}</style></defs><title>tetszett</title><path class="cls-1" d="M750.49,421c0,198.12-156.92,358.74-350.5,358.74S49.49,619.1,49.49,421,206.41,62.22,400,62.22,750.49,222.84,750.49,421Z"/><path class="cls-2" d="M528.46,69.53C384.52,13.63,215.67,59.63,117.69,181,19.34,302.91,5.39,479.83,85.86,615.38c79.36,133.7,234.55,203.3,384.43,173.91C641.84,755.65,764.17,597.81,766.36,421,764.43,265.45,671.23,125,528.46,69.53ZM511.78,743.4c-132,47.82-282.39,4.87-371.14-106S41.25,365.69,113.88,243.33C186.14,121.61,329.39,56.92,466,85.53,621.48,118.1,731.9,259.64,733.9,421,732.13,564.24,644.9,695.19,511.78,743.4Z"/><path class="cls-3" d="M249.79,595.23c36.44,47.2,90.33,80.45,150.23,80.45s113.81-33.26,150.24-80.45c6-7.83,7.34-18.28,0-26-6.17-6.45-19.36-7.76-25.35,0C494.2,609,451,639,400,639s-94.14-29.89-124.88-69.69c-6.05-7.84-19-6.36-25.35,0-7.59,7.59-6,18.22,0,26Z"/><path class="cls-3" d="M362,366.65c-19.08,34.25-49.89,67.72-91.27,67.72s-72.2-33.47-91.28-67.72c-7.94-14.24,13.53-27.06,21.46-12.83,14.56,26.13,37.56,55.11,69.82,55.11s55.25-29,69.81-55.11C348.5,339.6,370,352.4,362,366.65Z"/><path class="cls-3" d="M620.5,366.65c-19.09,34.25-49.9,67.72-91.28,67.72S457,400.9,438,366.65c-7.93-14.24,13.53-27.06,21.45-12.83C474,380,497,408.93,529.22,408.93s55.26-29,69.81-55.11c7.93-14.22,29.41-1.42,21.47,12.83Z"/><path class="cls-4" d="M318.83,97.78c-5-23.06-26.19-39.6-49.37-38.62a46.58,46.58,0,0,0-40.9,28,48.16,48.16,0,0,0-47.1-17.3c-22.67,4.6-38.67,25.66-37.34,49.17a49.52,49.52,0,0,0,21.16,38c7,4.9,14,9.87,20.7,15.3l61.08,49.87,45.63-62.85c5-6.86,10.41-13.32,15.9-19.76A48.11,48.11,0,0,0,318.83,97.78Z"/></svg>