<svg id="Réteg_1" data-name="Réteg 1" xmlns="http://www.w3.org/2000/svg" xmlns:xlink="http://www.w3.org/1999/xlink" viewBox="0 0 1920 1000"><defs><style>.cls-1{fill:#333;}.cls-2{fill:#009db1;}.cls-3{fill:#00abaa;opacity:0.58;}.cls-4{opacity:0.43;fill:url(#Névtelen_színátmenet_67);}</style><linearGradient id="Névtelen_színátmenet_67" x1="2" y1="347.38" x2="1922" y2="347.38" gradientUnits="userSpaceOnUse"><stop offset="0" stop-color="#0071bc"/><stop offset="1" stop-color="#00a99d"/></linearGradient></defs><title>bg-1</title><rect class="cls-1" x="-393" y="-218" width="2396" height="1271"/><path class="cls-2" d="M2,756c93.36,110.27,299.8,154.44,495,76,99.59-40,259-122,355-150,163.5-47.69,258.52,29.84,434,96,135.3,51,342.92,73.38,636,33V-109H2Z"/><path class="cls-3" d="M1922,731c-216,106-448.29,156.43-607,121-104.75-23.39-159.91-34.85-254-73-110.81-44.93-332.33-94.16-518-31C406.11,794.56,182,876,2,756V-100H1922Z"/><path class="cls-4" d="M2,756c137.36-31.22,245.57-87.22,484-35,162.43,35.57,279.39,102.15,636,13,330.54-82.63,608.43,256.82,800-89V-109H2Z"/></svg>