<svg id="Réteg_1" data-name="Réteg 1" xmlns="http://www.w3.org/2000/svg" xmlns:xlink="http://www.w3.org/1999/xlink" viewBox="0 0 1920 1000"><defs><style>.cls-1{fill:#009db1;}.cls-2{fill:#00abaa;opacity:0.58;}.cls-3{opacity:0.43;fill:url(#Névtelen_színátmenet_67);}</style><linearGradient id="Névtelen_színátmenet_67" x1="829.56" y1="480.68" x2="2229" y2="480.68" gradientUnits="userSpaceOnUse"><stop offset="0" stop-color="#0071bc"/><stop offset="1" stop-color="#00a99d"/></linearGradient></defs><title>bg-2</title><path class="cls-1" d="M1356,722c290.92-.71,142.51,155.8,300,239,208.66,110.24,341.65,32.84,527-80V-39H1124c-81.79,2.8-211.43,151.06-247,185C672.44,341.2,791.47,723.38,1356,722Z"/><path class="cls-2" d="M1381,740c290.92-.71,142.51,155.8,300,239,208.66,110.24,341.65,32.84,527-80V-21H1149C1026.63-16.81,978.15,91.34,902,164,697.44,359.2,816.47,741.38,1381,740Z"/><path class="cls-3" d="M1402,715c290.92-.71,142.51,155.8,300,239,208.66,110.24,341.65,32.84,527-80V-46H1170c-89.37,3.06-138.5,62.26-189.43,121.2C960,99,943.54,119.4,923,139,718.44,334.2,837.47,716.38,1402,715Z"/></svg>