<svg id="Réteg_1" data-name="Réteg 1" xmlns="http://www.w3.org/2000/svg" xmlns:xlink="http://www.w3.org/1999/xlink" viewBox="0 0 1920 800"><defs><style>.cls-1{fill:#009db1;}.cls-2{fill:#00abaa;opacity:0.58;}.cls-3{opacity:0.43;fill:url(#Névtelen_színátmenet_67);}</style><linearGradient id="Névtelen_színátmenet_67" x1="-352" y1="493.74" x2="2221" y2="493.74" gradientUnits="userSpaceOnUse"><stop offset="0" stop-color="#0071bc"/><stop offset="1" stop-color="#00a99d"/></linearGradient></defs><title>card-bg</title><path class="cls-1" d="M-352,953c125.11,123.92,401.76,173.56,663.35,85.41,133.47-45,347.09-137.1,475.74-168.57,219.11-53.59,346.44,33.54,581.6,107.89C1550,1035,1828.24,1060.14,2221,1014.76V-19.14H-352Z"/><path class="cls-2" d="M2221,924.86c-289.46,119.12-600.76,175.8-813.44,136-140.38-26.29-214.29-39.17-340.39-82C918.67,928.31,621.82,873,373,944c-183.45,52.33-483.78,143.85-725,9V-9H2221Z"/><path class="cls-3" d="M-352,953c184.07-35.09,329.09-98,648.61-39.33,217.67,40,374.41,114.79,852.31,14.61,442.95-92.86,815.36,288.61,1072.08-100V-19.14H-352Z"/></svg>