<svg id="Réteg_1" data-name="Réteg 1" xmlns="http://www.w3.org/2000/svg" viewBox="0 0 800 800"><defs><style>.cls-1{fill:#f9d35b;}.cls-2{fill:#eaa24b;}.cls-3{fill:#dc5c5d;}.cls-4{fill:#503d20;}</style></defs><title>imádtam</title><ellipse class="cls-1" cx="399.51" cy="411.02" rx="358.75" ry="358.75"/><path class="cls-2" d="M531.36,59.58C384,3.68,211.21,49.67,110.94,171.08,10.27,293-4,469.87,78.35,605.42c81.23,133.7,240.07,203.31,393.47,173.92C647.41,745.7,772.63,587.85,774.87,411,772.89,255.5,677.5,115,531.36,59.58ZM514.3,733.44c-135.14,47.82-289,4.88-379.88-106S32.69,355.74,107,233.38C181,111.66,327.62,47,467.39,75.58,626.58,108.15,739.6,249.69,741.64,411,739.83,554.28,650.54,685.24,514.3,733.44Z"/><path class="cls-3" d="M674.2,549.72a49.37,49.37,0,0,0-81-47.25A49.36,49.36,0,1,0,503.42,541c4.59,7.47,9.11,15,13.09,22.77l36.6,71.54,70.06-39.35c7.63-4.29,15.55-8,23.5-11.73A49.26,49.26,0,0,0,674.2,549.72Z"/><path class="cls-4" d="M395.5,508.82l90.08,42.67V528.8l-53,35.63c-8.23,5.54-8.7,17.26,0,22.69l53,33.12V597.56L395.5,647.34c-14.81,8.18-1.57,30.88,13.26,22.69l90.09-49.79c8.88-4.91,8.14-17.6,0-22.68l-53-33.13v22.69l53-35.63c7.47-5,9.54-18.17,0-22.69l-90.09-42.67c-15.2-7.2-28.55,15.44-13.26,22.69Z"/><path class="cls-4" d="M622.08,406.28,503.16,394.75,623.88,310.6c14.24-9.92-7.61-28-21.78-18.1L455.86,394.44c-10.39,7.24-.6,20.21,11.29,21.37l155.73,15.11C642.19,432.79,641.27,408.15,622.08,406.28Z"/><path class="cls-4" d="M319.9,392.65a57.52,57.52,0,1,1-57.52-57.52A57.52,57.52,0,0,1,319.9,392.65Z"/><path class="cls-4" d="M306.86,172.65c-50.93-30.33-114.19-16.09-147.21,33.14-7.72,11.49,10.44,23,18.15,11.48,26.43-39.39,76.82-50.74,117.58-26.47,11.86,7.06,23.39-11.06,11.48-18.15Z"/><path class="cls-4" d="M522.55,271.3c23.86-54.27,83.64-79.4,139.1-58.49,13,4.88,4.82,24.77-8.11,19.9-44.39-16.74-92,3.27-111.11,46.7-5.55,12.64-25.47,4.57-19.88-8.11Z"/></svg>