<svg id="_9" data-name="9" xmlns="http://www.w3.org/2000/svg" viewBox="0 0 1999 1311.69"><defs><style>.cls-1,.cls-12,.cls-7{fill:#fff;}.cls-1,.cls-3,.cls-5{fill-rule:evenodd;}.cls-2{fill:#c6b198;}.cls-3{fill:#cecece;}.cls-4,.cls-5{fill:#e6e7e8;}.cls-11,.cls-12,.cls-4,.cls-5{stroke:#000;stroke-linecap:round;stroke-width:7px;}.cls-6{fill:#ffd25b;}.cls-8{fill:#d3d1c8;}.cls-9{fill:#e3e2df;}.cls-10{fill:#ffd45b;}.cls-11{fill:none;}.cls-12{stroke-linejoin:round;}.cls-13{fill:#f49022;}.cls-14{fill:#ffd35b;}.cls-15{fill:#28bcce;}</style></defs><title>pic-2</title><path class="cls-1" d="M530.71,351.57H1617a55.74,55.74,0,0,1,55.58,55.58V998.3a55.74,55.74,0,0,1-55.58,55.58H530.71a55.73,55.73,0,0,1-55.57-55.58V407.15A55.74,55.74,0,0,1,530.71,351.57Z"/><path class="cls-2" d="M1617.15,403.34a4,4,0,0,1,3.81,3.81v497H527v-497a4,4,0,0,1,3.81-3.81H1617.15m0-51.77H530.84a55.75,55.75,0,0,0-55.58,55.58V955.94H1672.73V407.15a55.75,55.75,0,0,0-55.58-55.58Z"/><polygon class="cls-1" points="962.04 1004.25 1192.54 1004.25 1235.2 1199.99 916.66 1199.99 962.04 1004.25"/><polygon class="cls-3" points="950.3 1053.66 1203.56 1053.66 1218.01 1121.79 950.3 1053.66"/><path class="cls-1" d="M477.19,946.4v51.9a55.74,55.74,0,0,0,55.58,55.58H1619.08a55.74,55.74,0,0,0,55.58-55.58V946.4Z"/><rect class="cls-4" x="830.42" y="1195.55" width="491.02" height="24.24"/><path class="cls-5" d="M1094.11,1001.57a18.19,18.19,0,1,1-18.18-18.19A18.18,18.18,0,0,1,1094.11,1001.57Z"/><rect class="cls-6" x="549.23" y="1025.98" width="183.81" height="253.98"/><rect class="cls-7" x="729.72" y="1025.98" width="9.51" height="253.98"/><path class="cls-7" d="M702.88,1117.5a67.15,67.15,0,0,0-35.67-35.65,67,67,0,0,0-73.47,14.35,67,67,0,1,0,109.14,21.3Zm-24.06,23.07-1.54,0-.15-1.57c0-.57,0-1.17-.08-1.87l-.13-1.93c0-.84-.11-1.66-.17-2.5l-.06-.5c-.07-.87-.16-1.78-.29-2.86,0-.13,0-.25,0-.38l-.06-.44c-.09-.81-.2-1.6-.32-2.42l-.07-.53c-.14-.92-.28-1.86-.45-2.83l-.13-.67c-.14-.81-.29-1.6-.45-2.33,0-.13-.11-.59-.11-.59-.2-.93-.41-1.86-.62-2.75l-.13-.56c-.12-.49-.24-1-.38-1.48l-.71-2.71,1.56-.47.54-.18.78-.24c.81-.26,1.61-.54,2.42-.82l.43-.16c.89-.32,1.61-.6,2.26-.85l.16-.07c.72-.28,1.45-.59,2.22-.93,0,0,.46-.19.55-.25.79-.33,1.48-.66,2.06-.94.08,0,.61-.31.61-.31l.16-.07c.21-.1.42-.2.61-.31l1.18-.6.81,1.06a60.34,60.34,0,0,1,12.46,32.38l.13,1.71Zm3.38-38.77c-.18.1-.37.19-.55.27l-3.57,1.49-1.16.42c-.43.17-.87.32-1.33.47s-.78.28-1.18.41l-.47.16-.88.27c-.12,0-1.31.39-2,.6l-.52-1.37a63.83,63.83,0,0,0-7.69-14.54l-3.36-4.65,5.29,2.23c.62.26,1.27.54,1.91.85a60.53,60.53,0,0,1,16,10.77l1.7,1.61Zm-16.59,11.62,1.49-.32.49,1.81c.18.73.37,1.44.54,2.17,0,.19.1.37.15.6.21.84.4,1.73.6,2.62l.47,2.4.16.94c.13.73.24,1.41.34,2.06l.14.92c.12.79.23,1.61.34,2.5,0,.15.08.67.08.67.12,1,.2,1.88.31,2.8s.14,1.84.22,2.84l0,.65c0,.79.09,1.59.13,2.36l.09,2.13H644.14v-24.72l1.54,0A117.79,117.79,0,0,0,665.61,1113.42Zm5.49,35.3c0,.73-.08,1.49-.13,2.25l-.05.83c0,.84-.12,1.58-.17,2.28l0,.45c0,.11,0,.33,0,.36-.07.72-.15,1.46-.23,2.18l-.49,3.75c-.15,1-.31,2-.44,2.69l-.12.67c-.15.84-.3,1.67-.47,2.47l0,.21c-.17.77-.36,1.62-.6,2.65l-.13.5c-.21.88-.41,1.67-.63,2.43l-.4,1.61-1.51-.31c-.85-.19-1.69-.35-2.5-.51l-.57-.09-2.58-.44-1.86-.26c-.65-.1-1.29-.19-1.93-.25l-.35-.06-3.14-.34a6.67,6.67,0,0,1-1-.08l-2.56-.18s-.56,0-.73,0c-1-.06-1.86-.09-2.74-.14l-1.54,0v-24.71h27.05Zm-19.82,29,1.36.11c.82.08,1.58.16,2.33.26a3.39,3.39,0,0,1,.37,0l.2,0c.82.1,1.68.22,2.58.35l.62.1c.94.13,1.91.31,2.85.47l.2,0,.47.1,2.93.58-1,2.62a6.09,6.09,0,0,0-.29.65l-.61,1.4c-.1.2-.19.4-.29.61l-.24.48c-.17.38-.33.72-.51,1.08l-.24.45c-.11.23-.22.45-.35.69l-.25.46c-.1.17-.19.33-.27.49l-.93,1.64a3.22,3.22,0,0,0-.21.34c-.15.21-.3.44-.44.68l-.14.22-.21.32a6.26,6.26,0,0,1-.43.62l-.19.29a8.45,8.45,0,0,1-.58.84l-.21.29-.54.73-.16.21-.7.86-.13.16-.64.74a2.68,2.68,0,0,1-.19.2,3.92,3.92,0,0,1-.34.37l-.36.4-.72.72-.17.17c-.15.13-.28.26-.42.4l-.41.36-.64.56-.14.11-.54.43-.25.19-.2.14a5,5,0,0,1-.62.44l-.17.14c-.25.17-.5.31-.88.55a8.26,8.26,0,0,1-.74.43l-.22.11c-.22.13-.45.25-.7.37l.15.47-.3-.4c-.29.13-.56.27-.93.4l-.19.08-.17.06-2.3.88v-26.9l2.12.07c.63,0,1.25,0,1.9.09h.32C649.32,1177.55,650.23,1177.62,651.28,1177.72Zm8.18,24.1,3.38-4.63,2.23-3.38c.24-.38.47-.78.68-1.14l.29-.49c.31-.53.61-1.08,1-1.74l.09-.19c.25-.46.5-1,.74-1.44l.23-.46.06-.14c.15-.31.29-.6.42-.89l1.12-2.56c.05-.11.09-.21.16-.35l.1-.24c.13-.35.27-.69.41-1.06l.73-1.85,1.68.51.39.11,1.23.39.4.14.94.32,1.17.42c.43.15.86.3,1.28.49l1.15.45.32.14.92.38c.37.15.73.31,1.1.48l.16.07.2.09,2.4,1.09-1.74,1.64a61.09,61.09,0,0,1-16,10.78c-.69.31-1.32.59-1.94.83Zm23.83-22.58c-.78-.33-1.49-.63-2.22-.91l-1-.4-1.35-.49-3.58-1.23c-.21-.06-.43-.14-.62-.18l-1.6-.5.5-1.85c.22-.78.41-1.57.59-2.32l.14-.57c.21-.87.42-1.82.62-2.75l.11-.55c.16-.78.31-1.57.46-2.38l.11-.66c.18-1,.33-1.93.46-2.84l.07-.53c.12-.81.24-1.62.32-2.41,0,0,.09-.65.1-.81.14-1.1.23-2,.29-2.85,0-.12.07-.54.07-.54.06-.82.12-1.64.18-2.51,0-.2,0-.38,0-.57l.14-2.69.17-2.11h24.59l-.14,1.72c-.1,1.38-.25,2.59-.4,3.72-.18,1.3-.39,2.53-.64,3.72a60.06,60.06,0,0,1-5.18,15l-.82,1.57c-.7,1.28-1.43,2.53-2.16,3.69-.87,1.39-1.82,2.75-2.89,4.16l-.37.5-.83,1-2.32-1.18-.21-.1c-.62-.31-1.28-.63-2-1Zm-39.15-69.4V1083l2.15.79c7.1,2.6,13.56,10.36,18.19,21.84l.71,1.79-1.89.38a112.3,112.3,0,0,1-17.5,2Zm-10.51-25.06a5.44,5.44,0,0,0,.54-.27l.35-.16c.28-.13.57-.27.84-.37l2.77-1v26.88l-2.38-.08c-.55,0-1.09,0-1.63-.09l-.29,0c-.87-.05-1.8-.11-2.86-.21l-.7,0c-1-.09-2-.19-3-.31l-.59-.07c-.85-.12-1.69-.22-2.61-.36l-.59-.08-2.83-.48L620,1108l-.68-.14-2.2-.44.71-1.78c.33-.82.67-1.62,1-2.34l.12-.3c.1-.23.21-.45.32-.67l.17-.38-.55-.24.64,0,.7-1.4c.13-.26.27-.52.41-.77l.34-.64c.15-.29.31-.58.46-.84l1-1.74.34-.55.18-.29c.46-.72.91-1.35,1.31-1.93a1.85,1.85,0,0,0,.22-.29l.54-.71.18-.23.68-.87-.47-.38.6.26c.19-.25.4-.49.61-.74l.2-.21.59-.65.15-.14.7-.73.19-.18.63-.58.2-.18c.22-.19.44-.4.78-.66l.78-.63.15-.13.17-.1.54-.38.13-.09a16.76,16.76,0,0,1,1.68-1l-.3-.53Zm-7.38,112.29h0l.34-.52-.13-.16c-.14-.16-.28-.31-.44-.51l-1-1.3c-.16-.21-.32-.41-.47-.62l-.23-.33a9.4,9.4,0,0,1-.61-.88.52.52,0,0,1-.14-.19c-.19-.28-.37-.54-.55-.82l-.22-.35c-.15-.24-.3-.47-.44-.73l-.23-.33c-.19-.33-.4-.67-.58-1l-1-1.89-.22-.45-1-2.12c-.08-.21-.18-.41-.27-.59l-.17-.39c-.17-.36-.32-.72-.49-1.12l-.06-.15a3.53,3.53,0,0,1-.15-.39l-1-2.44,2.5-.51.36-.08.8-.13c1-.19,1.87-.34,2.78-.47l.72-.11c.84-.12,1.66-.24,2.43-.33l.68-.08c.66-.09,1.34-.15,2-.22l1.63-.16,2.79-.2.33,0,1.89-.07,2.12-.07v26.9l-2.41-.9-.33-.14-.28-.11c-.17-.09-.34-.16-.56-.26l-1.07-.55c-.57-.32-1.12-.65-1.64-1l-.19-.14c-.2-.13-.42-.29-.64-.46l-.2-.15c-.26-.19-.51-.38-.85-.66s-.45-.38-.7-.61l-1-.91c-.23-.24-.47-.47-.73-.75l-.29-.3c-.14-.16-.29-.31-.42-.48l-.14-.14Zm-26.18-11.73,4.07-1.73,1.33-.49c.39-.14.77-.27,1.15-.42l1.23-.41.36-.1c.34-.13.68-.23,1.06-.34l1.93-.6.73,1.82c.18.48.35.94.55,1.38l.25.63c.18.43.38.87.58,1.3a2.71,2.71,0,0,0,.13.3l.14.31c.13.29.27.58.4.86l.46,1c.26.54.54,1.08.81,1.61l.07.14c.34.6.63,1.15.93,1.69l1.26,2.11c.23.33.45.65.66,1l4.66,6.5-5.33-2.27c-.85-.37-1.68-.73-2.45-1.1l-.61-.31c-1.39-.67-2.79-1.43-4.15-2.22l-.29-.17-.37-.23c-1.4-.84-2.78-1.76-4.1-2.72a62.09,62.09,0,0,1-5.91-4.87l-1.75-1.64Zm33.73-13.85-.55,0c-.77.07-1.56.12-2.41.18l-.39,0s-.62.08-.82.08c-2.25.22-4.43.49-6.47.79l-.76.11c-1,.16-2,.33-2.88.49l-.32,0c-.91.17-1.74.34-2.55.51l-1.5.31-.49-1.91c-.18-.67-.37-1.35-.53-2.05l-.16-.62c-.23-1-.42-1.82-.59-2.63l-.21-1.07c-.1-.51-.21-1-.32-1.62l-.09-.61c-.32-1.76-.6-3.63-.83-5.55l-.08-.59c-.11-1-.21-1.86-.28-2.69l0-.21c-.07-.92-.15-1.86-.22-2.8l0-.62c-.07-.86-.1-1.73-.14-2.61l-.06-1.88h27v24.71l-1.55,0C635.7,1171.4,634.79,1171.43,633.8,1171.49Zm-14.56-81.26-.48.68-1.27,2c-.06.1-.27.42-.28.45-.26.42-.51.84-.78,1.3l-.18.29c-.35.63-.66,1.2-1,1.8s-.54,1-.85,1.67l-1.13,2.42c-.17.39-.34.77-.53,1.23,0,0-.23.53-.3.71l-.13.31c-.13.32-.27.65-.39,1l-.72,1.89-1.42-.44-.61-.18-1.07-.34-1.64-.55-1.14-.41-.75-.29-.42-.14-1.25-.51-1.14-.47c-.4-.17-.78-.34-1.2-.54a4.92,4.92,0,0,1-.46-.2l-2.23-1,1.72-1.61a61,61,0,0,1,16-10.77c.69-.32,1.32-.6,1.93-.85l5.39-2.25Zm-20.67,17.5c.14,0,.28.13.39.16.83.38,1.54.68,2.21.94l.21.08c.66.27,1.38.54,2.19.82l.48.18c.8.29,1.61.56,2.41.82l2.91.9-.46,1.63a1.65,1.65,0,0,0-.06.24c-.19.67-.36,1.35-.52,2l-.21.83c-.23,1-.45,1.92-.63,2.79l-.08.49c-.17.79-.33,1.6-.49,2.48,0,.19-.06.38-.1.59-.17,1-.34,2-.46,2.85l-.08.46c-.11.85-.22,1.69-.32,2.53l-.09.74c-.12,1-.21,2-.3,2.84,0,.08-.05.51-.05.51h0c-.07.85-.13,1.69-.18,2.54l-.28,5.4H580.4l.13-1.71A60.65,60.65,0,0,1,593,1106.48l.83-1.06,1.22.63c.24.13.49.25.71.35l.6.31c.65.31,1.34.63,2.07.94Zm12.58,31c0-.88.07-1.74.14-2.61l.1-1.5c.06-.72.1-1.37.18-2.1s.15-1.49.22-2.18l.14-1.15q.35-2.85.83-5.57c0-.17.07-.33.1-.57.17-.88.32-1.69.48-2.47l0-.25c.15-.74.33-1.52.58-2.61l.72-2.83a1.13,1.13,0,0,0,.07-.26l.39-1.49,1.48.32,2.53.5.48.08,2.71.46.19,0c.21,0,.44.08.65.1,1.17.18,2.17.31,3.19.43s2,.23,3.27.35l.77.07,2.94.21,1.33.08,1.89.09,1.55,0v24.72H611.06Zm-5.61,16.07,0,.21c.07.87.17,1.81.3,2.93l.09.71c.1.85.21,1.71.32,2.48l.08.49c.12.94.29,1.91.47,2.9l.09.6c.16.82.32,1.65.48,2.44l.09.51c.18.87.4,1.78.63,2.76l.13.55c.2.79.39,1.56.61,2.37l.51,1.81-1.71.53a3.68,3.68,0,0,0-.43.13l-.36.12-.39.12c-.81.26-1.63.54-2.42.82l-.46.16-1.85.71-.56.23c-.74.28-1.53.6-2.28.93l-.48.22c-.73.34-1.46.66-2.14,1l-.32.14-1,.5-1.18.61-.82-1.06a60.55,60.55,0,0,1-12.46-32.38l-.13-1.71h24.66l.06,1.65c0,1,.09,1.91.15,3l.07.78c0,.87.11,1.72.2,2.6l.59-.06Z"/><rect class="cls-8" x="687.9" y="886.14" width="742.88" height="23.66"/><rect class="cls-9" x="686.39" y="346.6" width="370.26" height="542.47"/><rect class="cls-10" x="1062.02" y="346.6" width="370.27" height="542.47"/><polygon class="cls-11" points="1430.22 791.78 1059.96 889.07 1059.96 346.6 1430.22 249.31 1430.22 791.78"/><polygon class="cls-11" points="1346.2 734.28 1059.96 889.07 1059.96 346.6 1346.2 191.81 1346.2 734.28"/><polygon class="cls-11" points="688.46 791.78 1058.73 889.07 1058.73 346.6 688.46 249.31 688.46 791.78"/><polygon class="cls-11" points="772.48 734.28 1058.73 889.07 1058.73 346.6 772.48 191.81 772.48 734.28"/><path class="cls-12" d="M691.65,898.3h326.82c18,4.9,29.31,9.92,42.7,27.94l.09-.13c17.88-24,24.57-25.36,43.16-27.81H1427"/><rect class="cls-7" x="646.71" y="419.52" width="345.89" height="128.97"/><rect class="cls-13" x="668.37" y="444.31" width="140.7" height="79.4"/><path class="cls-7" d="M753.38,484a14.67,14.67,0,1,1-14.66-14.67A14.66,14.66,0,0,1,753.38,484Z"/><polygon class="cls-13" points="747.53 484 734.58 476.53 734.58 491.48 747.53 484 734.58 476.53 734.58 491.48 747.53 484"/><rect class="cls-2" x="830.24" y="449.37" width="126.04" height="6.31"/><rect class="cls-2" x="830.24" y="465.11" width="134.84" height="6.31"/><rect class="cls-2" x="830.24" y="496.59" width="140.7" height="6.31"/><rect class="cls-2" x="830.24" y="480.84" width="117.25" height="6.32"/><rect class="cls-2" x="830.24" y="512.33" width="54.23" height="6.31"/><rect class="cls-7" x="1216.59" y="412.42" width="345.88" height="128.97"/><rect class="cls-14" x="1238.25" y="437.21" width="140.7" height="79.39"/><path class="cls-7" d="M1323.27,476.9a14.67,14.67,0,1,1-14.67-14.66A14.67,14.67,0,0,1,1323.27,476.9Z"/><polygon class="cls-14" points="1317.41 476.9 1304.46 469.43 1304.46 484.38 1317.41 476.9 1304.46 469.43 1304.46 484.38 1317.41 476.9"/><rect class="cls-2" x="1400.12" y="442.27" width="126.04" height="6.31"/><rect class="cls-2" x="1400.12" y="458.01" width="134.84" height="6.31"/><rect class="cls-2" x="1400.12" y="489.49" width="140.7" height="6.31"/><rect class="cls-2" x="1400.12" y="473.75" width="117.24" height="6.31"/><rect class="cls-2" x="1400.12" y="505.22" width="54.23" height="6.31"/><rect class="cls-7" x="1127.63" y="660.29" width="345.89" height="128.97"/><rect class="cls-15" x="1149.29" y="685.08" width="140.7" height="79.4"/><path class="cls-7" d="M1234.32,724.78a14.68,14.68,0,1,1-14.67-14.67A14.66,14.66,0,0,1,1234.32,724.78Z"/><polygon class="cls-15" points="1228.46 724.78 1215.51 717.3 1215.51 732.25 1228.46 724.78 1215.51 717.3 1215.51 732.25 1228.46 724.78"/><rect class="cls-2" x="1311.16" y="690.14" width="126.04" height="6.31"/><rect class="cls-2" x="1311.16" y="705.88" width="134.83" height="6.32"/><rect class="cls-2" x="1311.16" y="737.36" width="140.7" height="6.31"/><rect class="cls-2" x="1311.16" y="721.62" width="117.24" height="6.32"/><rect class="cls-2" x="1311.16" y="753.1" width="54.23" height="6.31"/></svg>