<svg id="_9" data-name="9" xmlns="http://www.w3.org/2000/svg" viewBox="0 0 1733 1581.55"><defs><style>.cls-1{fill:#f37422;}.cls-2{opacity:0.8;}.cls-3{fill:#ffc10d;}.cls-4{fill:#00abaa;}.cls-5{fill:#231f20;}</style></defs><title>pic-1</title><path class="cls-1" d="M192.33,1057.84c73.48,217.66,528.82,525,770.78,443.34S1142,979.69,1068.55,762,739.35,434.15,497.39,515.84,118.85,840.19,192.33,1057.84Z"/><g class="cls-2"><path class="cls-3" d="M897.59,664.47c-266.54,107.17-781.47,486.67-704,679.4s718.07,125.72,984.61,18.54,419.79-350.29,342.29-543S1164.14,557.29,897.59,664.47Z"/></g><path class="cls-4" d="M107.2,1019.73c0,213.51,291,386.6,650,386.6s1006.54-258.93,842.42-590.67c-94.67-191.38-496-32.1-842.42-182.54C427.94,490.11,107.2,806.21,107.2,1019.73Z"/><path class="cls-5" d="M1346.12,649.25c-31.48,34.46-167,43-207.75,5.76s28.77-106,60.25-140.51,90-32.23,130.75,5S1377.6,614.78,1346.12,649.25Z"/><path class="cls-5" d="M1047.84,456.31c17.16,2.91,47.2,43.69,43.75,64s-39.06,12.39-56.22,9.48-28.29-21.72-24.84-42S1030.67,453.4,1047.84,456.31Z"/><path class="cls-5" d="M187.36,1259.13c39.62,6.72,115,65.25,110.58,91.25s-86.94,9.62-126.55,2.9S103.24,1320,107.65,1294,147.75,1252.41,187.36,1259.13Z"/></svg>