<svg id="Réteg_1" data-name="Réteg 1" xmlns="http://www.w3.org/2000/svg" viewBox="0 0 800 800"><defs><style>.cls-1{fill:#f9d35b;}.cls-2{fill:#eaa24b;}.cls-3{fill:#503d20;}.cls-4{fill:#63a2e8;}.cls-5{fill:#b9dcfc;}</style></defs><title>rossz</title><path class="cls-1" d="M768.38,400c0,198.14-160.62,358.76-358.75,358.76S50.87,598.15,50.87,400,211.49,41.27,409.63,41.27,768.38,201.89,768.38,400Z"/><path class="cls-2" d="M541.49,48.58c-147.33-55.9-320.16-9.9-420.43,111.5C20.39,282,6.12,458.87,88.47,594.43,169.7,728.12,328.55,797.73,482,768.34,657.54,734.69,782.75,576.86,785,400,783,244.49,687.62,104,541.49,48.58ZM524.42,722.44c-135.14,47.83-289,4.88-379.87-106S42.82,344.73,117.16,222.38C191.11,100.65,337.74,36,477.51,64.58,636.7,97.15,749.73,238.69,751.77,400,750,543.29,660.67,674.24,524.42,722.44Z"/><path class="cls-3" d="M343.22,370a57.52,57.52,0,1,1-57.52-57.52A57.53,57.53,0,0,1,343.22,370Z"/><path class="cls-3" d="M591.82,370a57.52,57.52,0,1,1-57.52-57.52A57.53,57.53,0,0,1,591.82,370Z"/><path class="cls-3" d="M563.73,630c-37.29-47.19-92.46-80.45-153.77-80.45S293.48,582.81,256.19,630c-6.2,7.84-7.51,18.28,0,26,6.31,6.45,19.81,7.75,25.95,0,31.43-39.77,75.63-69.73,127.82-69.7s96.36,29.89,127.82,69.7c6.19,7.84,19.46,6.35,26,0,7.77-7.6,6.12-18.22,0-26Z"/><path class="cls-3" d="M690,275.7c-22-55.35-81.19-82.71-137.65-63.68-13.17,4.44-5.72,24.71,7.45,20.27,45.18-15.24,92.29,6.56,109.94,50.85,5.13,12.89,25.41,5.5,20.26-7.44Z"/><path class="cls-3" d="M130,275.7c22-55.35,81.2-82.71,137.64-63.68,13.18,4.44,5.73,24.71-7.43,20.27-45.19-15.24-92.3,6.56-109.94,50.85-5.13,12.89-25.42,5.5-20.27-7.44Z"/><path class="cls-4" d="M661.18,468.92c-1.49-2.32-3-4.64-4.31-7.06l-65-93.93-65,93.77c-1.38,2.53-2.93,4.95-4.5,7.37a82.45,82.45,0,1,0,138.82-.15Z"/><path class="cls-5" d="M628.91,474.6c0,13.88-16.61,25.13-37.09,25.13s-37.09-11.25-37.09-25.13,16.61-25.13,37.09-25.13S628.91,460.73,628.91,474.6Z"/></svg>