<svg id="Réteg_1" data-name="Réteg 1" xmlns="http://www.w3.org/2000/svg" viewBox="0 0 328 328"><defs><style>.cls-1{fill:#f9d35b;}.cls-2{fill:#eaa24b;}.cls-3{fill:#503d20;}</style></defs><title>thankyou</title><circle class="cls-1" cx="163.92" cy="167" r="137.71"/><path class="cls-2" d="M214.53,32.1C158,10.64,91.64,28.29,53.14,74.89,14.5,121.68,9,189.59,40.64,241.62c31.18,51.32,92.15,78,151,66.76C259.08,295.47,307.14,234.88,308,167,307.25,107.3,270.62,53.38,214.53,32.1ZM208,290.76C156.1,309.12,97,292.63,62.16,250.08s-39-104.3-10.51-151.27C80,52.09,136.32,27.26,190,38.24c61.11,12.5,104.5,66.83,105.28,128.76C294.55,222,260.28,272.26,208,290.76Z"/><path class="cls-3" d="M251.94,201.48c-21.32,27-52.86,46-87.9,46s-66.59-19-87.91-46c-3.54-4.48-4.29-10.45,0-14.84,3.61-3.69,11.33-4.44,14.84,0,18,22.73,43.23,39.86,73.07,39.84s55.08-17.08,73.06-39.84c3.54-4.48,11.12-3.63,14.84,0,4.44,4.34,3.49,10.42,0,14.84Z"/><path class="cls-3" d="M138.42,130.12A22.08,22.08,0,1,1,116.34,108,22.08,22.08,0,0,1,138.42,130.12Z"/><path class="cls-3" d="M233.85,130.12A22.08,22.08,0,1,1,211.77,108,22.08,22.08,0,0,1,233.85,130.12Z"/></svg>