<svg id="Capa_1" data-name="Capa 1" xmlns="http://www.w3.org/2000/svg" viewBox="0 0 595.28 595.28"><defs><style>.cls-1,.cls-21,.cls-26,.cls-28,.cls-41{fill:none;}.cls-1{stroke:#c2b49b;stroke-width:2px;stroke-dasharray:5 5;}.cls-1,.cls-2,.cls-21,.cls-26,.cls-28,.cls-41{stroke-linecap:round;}.cls-1,.cls-21,.cls-26,.cls-28,.cls-32,.cls-41{stroke-miterlimit:10;}.cls-2,.cls-27{fill:#221f1f;}.cls-2{stroke:#221f1f;stroke-linejoin:round;stroke-width:7.04px;}.cls-3{fill:#29a9e0;}.cls-4{fill:#c2b49b;}.cls-32,.cls-5{fill:#8bc543;}.cls-6{fill:#91288e;}.cls-7{fill:#ed1d24;}.cls-8{fill:#f0f1f1;}.cls-9{fill:#ed2b7a;}.cls-10{fill:#f69322;}.cls-11{fill:#179ecc;}.cls-12{fill:#e8811a;}.cls-13{fill:#d81220;}.cls-14{fill:#7eb530;}.cls-15{fill:#d61d71;}.cls-16{fill:#7f1c7f;}.cls-17{fill:#fff;}.cls-18{fill:#e6e6e7;}.cls-19{fill:#c6421e;}.cls-20{fill:#aa3115;}.cls-21{stroke:#f0f1f1;stroke-width:3.15px;}.cls-22{fill:#f9ca35;}.cls-23{fill:#e8af2e;}.cls-24{fill:#a6a8ab;}.cls-25{fill:#d0d2d3;}.cls-26,.cls-28{stroke:#403f41;}.cls-26{stroke-width:1.46px;}.cls-28{stroke-width:1.21px;}.cls-29{fill:#403f41;}.cls-30{fill:#773249;}.cls-31{fill:#6c6e70;}.cls-32{stroke:#006738;stroke-width:2.04px;}.cls-33{fill:#006738;}.cls-34{fill:#e2a540;}.cls-35{fill:#744c29;}.cls-36{fill:#f7f7f7;}.cls-37{fill:#c38728;}.cls-38{fill:#a31123;}.cls-39{fill:#8c091f;}.cls-40{fill:#be1e2c;}.cls-41{stroke:#478c2d;stroke-width:2.94px;}.cls-42{fill:#0464b9;}.cls-43{fill:#fbc69a;}.cls-44{fill:#035693;}.cls-45{fill:#3b2314;}.cls-46{fill:#5f3813;}.cls-47{fill:#929597;}.cls-48{fill:#bbbdbf;}.cls-49{fill:#f45d81;}.cls-50{fill:#f7cf9c;}.cls-51{fill:#ffdc24;}.cls-52{fill:#e8bf15;}</style></defs><title>business2</title><circle class="cls-1" cx="296.64" cy="298.96" r="170.36"/><polygon class="cls-2" points="264.61 243.07 232.58 298.54 264.61 354.02 328.67 354.02 360.7 298.54 328.67 243.07 264.61 243.07"/><path class="cls-3" d="M264.61,564.82a18.89,18.89,0,0,1-16.33-9.43l-32-55.47a18.92,18.92,0,0,1,0-18.87l32-55.47a18.91,18.91,0,0,1,16.33-9.43h64.06A18.9,18.9,0,0,1,345,425.58l32,55.47a18.92,18.92,0,0,1,0,18.87l-32,55.47a18.89,18.89,0,0,1-16.33,9.43Z"/><path class="cls-4" d="M328.67,418.15a16.85,16.85,0,0,1,14.6,8.43l32,55.47a16.89,16.89,0,0,1,0,16.87l-32,55.47a16.85,16.85,0,0,1-14.6,8.43H264.61a16.85,16.85,0,0,1-14.6-8.43l-32-55.47a16.89,16.89,0,0,1,0-16.87l32-55.47a16.85,16.85,0,0,1,14.6-8.43h64.06m0-4H264.61a20.92,20.92,0,0,0-18.07,10.43l-32,55.47a20.91,20.91,0,0,0,0,20.87l32,55.47a20.91,20.91,0,0,0,18.06,10.43h64.06a20.94,20.94,0,0,0,18.07-10.43l32-55.47a20.91,20.91,0,0,0,0-20.87l-32-55.47a20.92,20.92,0,0,0-18.07-10.43Z"/><path class="cls-5" d="M264.61,180.94a18.89,18.89,0,0,1-16.33-9.43l-32-55.48a18.9,18.9,0,0,1,0-18.86l32-55.47a18.9,18.9,0,0,1,16.33-9.43h64.06A18.89,18.89,0,0,1,345,41.7l32,55.47A18.9,18.9,0,0,1,377,116l-32,55.48a18.89,18.89,0,0,1-16.33,9.43Z"/><path class="cls-4" d="M328.67,34.27a16.85,16.85,0,0,1,14.6,8.43l32,55.47a16.87,16.87,0,0,1,0,16.86l-32,55.48a16.85,16.85,0,0,1-14.6,8.43H264.61a16.85,16.85,0,0,1-14.6-8.43L218,115a16.87,16.87,0,0,1,0-16.86L250,42.7a16.85,16.85,0,0,1,14.6-8.43h64.06m0-4H264.61A20.92,20.92,0,0,0,246.54,40.7l-32,55.47a20.89,20.89,0,0,0,0,20.86l32,55.48a20.91,20.91,0,0,0,18.06,10.43h64.06a20.94,20.94,0,0,0,18.07-10.43l32-55.48a20.89,20.89,0,0,0,0-20.86l-32-55.47a20.92,20.92,0,0,0-18.07-10.43Z"/><polygon class="cls-2" points="264.6 243.07 232.58 298.56 264.62 354.03 328.68 354.01 360.7 298.53 328.66 243.06 264.6 243.07"/><path class="cls-6" d="M98.42,468.89a18.89,18.89,0,0,1-16.33-9.43L50,404a19,19,0,0,1,0-18.87l32-55.48a18.91,18.91,0,0,1,16.33-9.43h64.06a18.9,18.9,0,0,1,16.33,9.42l32,55.47a18.9,18.9,0,0,1,0,18.86l-32,55.48a18.9,18.9,0,0,1-16.33,9.44Z"/><path class="cls-4" d="M162.45,322.21a16.86,16.86,0,0,1,14.6,8.42l32,55.47a16.84,16.84,0,0,1,0,16.86l-32,55.48a16.86,16.86,0,0,1-14.6,8.44H98.42a16.85,16.85,0,0,1-14.6-8.43L51.78,403a16.86,16.86,0,0,1,0-16.87l32-55.48a16.85,16.85,0,0,1,14.6-8.43h64.06m0-4H98.39a20.91,20.91,0,0,0-18.06,10.43l-32,55.48a21,21,0,0,0,0,20.87l32,55.46a20.92,20.92,0,0,0,18.07,10.43h64.06a20.9,20.9,0,0,0,18.06-10.44l32-55.48a20.94,20.94,0,0,0,0-20.86l-32-55.47a20.93,20.93,0,0,0-18.07-10.42Z"/><path class="cls-7" d="M430.83,276.88a18.9,18.9,0,0,1-16.33-9.43l-32-55.46a19,19,0,0,1,0-18.87l32-55.48a18.93,18.93,0,0,1,16.33-9.43l64.06,0a18.94,18.94,0,0,1,16.34,9.43l32,55.47a18.9,18.9,0,0,1,0,18.86l-32,55.48a18.9,18.9,0,0,1-16.33,9.44Z"/><path class="cls-4" d="M494.86,130.19a16.86,16.86,0,0,1,14.6,8.43l32,55.47a16.84,16.84,0,0,1,0,16.86l-32,55.48a16.86,16.86,0,0,1-14.6,8.44H430.83a16.85,16.85,0,0,1-14.6-8.43l-32-55.46a16.86,16.86,0,0,1,0-16.87l32-55.48a16.85,16.85,0,0,1,14.6-8.43l64.06,0h0m0-4h0l-64.06,0a20.91,20.91,0,0,0-18.06,10.43l-32,55.49a20.91,20.91,0,0,0,0,20.86l32,55.46a20.92,20.92,0,0,0,18.07,10.43h64.06A20.9,20.9,0,0,0,513,268.43L545,213a20.91,20.91,0,0,0,0-20.86l-32-55.47a20.94,20.94,0,0,0-18.07-10.43Z"/><path class="cls-8" d="M415,296,358.7,197.77a5.9,5.9,0,0,0-5.1-3l-113.2-.39a5.84,5.84,0,0,0-5.12,2.93l-56.94,97.84a5.89,5.89,0,0,0,0,5.9l56.26,98.23a5.9,5.9,0,0,0,5.1,3l113.2.39h0a5.89,5.89,0,0,0,5.1-2.93l56.94-97.83A5.91,5.91,0,0,0,415,296Z"/><path class="cls-9" d="M98.46,276.22a18.94,18.94,0,0,1-16.3-9.49L50.33,211.14a18.9,18.9,0,0,1,.06-18.86l32.23-55.36a18.92,18.92,0,0,1,16.3-9.38l64.12.23a18.91,18.91,0,0,1,16.3,9.48l31.83,55.59a18.9,18.9,0,0,1-.06,18.86l-32.22,55.37a18.93,18.93,0,0,1-16.3,9.37Z"/><path class="cls-4" d="M99,129.54l64.05.23a16.86,16.86,0,0,1,14.58,8.48l31.83,55.59a16.87,16.87,0,0,1-.06,16.86l-32.22,55.36a16.86,16.86,0,0,1-14.57,8.38h-.06l-64.06-.22a16.86,16.86,0,0,1-14.57-8.49L52.06,210.15a16.87,16.87,0,0,1,.06-16.86l32.22-55.37a16.89,16.89,0,0,1,14.58-8.38H99m0-4h-.06a20.94,20.94,0,0,0-18,10.37L48.67,191.27a20.92,20.92,0,0,0-.08,20.86l31.84,55.59a20.92,20.92,0,0,0,18,10.5l64.05.22h.08a20.94,20.94,0,0,0,18-10.37l32.22-55.36a20.91,20.91,0,0,0,.07-20.86l-31.83-55.59a20.91,20.91,0,0,0-18-10.49L99,125.54Z"/><path class="cls-10" d="M430.24,469.32a18.92,18.92,0,0,1-16.3-9.49l-31.83-55.59a18.9,18.9,0,0,1,.06-18.86L414.4,330a18.91,18.91,0,0,1,16.3-9.37l64.12.22a18.9,18.9,0,0,1,16.3,9.49L543,385.94a18.9,18.9,0,0,1-.06,18.86l-32.22,55.37a18.93,18.93,0,0,1-16.3,9.37Z"/><path class="cls-4" d="M430.76,322.65l64.05.22a16.84,16.84,0,0,1,14.57,8.48l31.84,55.59a16.87,16.87,0,0,1-.06,16.86l-32.22,55.36a16.86,16.86,0,0,1-14.57,8.38h-.06l-64.06-.22a16.86,16.86,0,0,1-14.57-8.48l-31.84-55.59a16.87,16.87,0,0,1,.06-16.86L416.12,331a16.86,16.86,0,0,1,14.58-8.38h.06m0-4h-.06a20.93,20.93,0,0,0-18,10.36l-32.23,55.37a20.94,20.94,0,0,0-.07,20.86l31.84,55.59a20.92,20.92,0,0,0,18,10.49l64.06.22h.08a20.9,20.9,0,0,0,18-10.37l32.23-55.36a20.94,20.94,0,0,0,.07-20.86l-31.84-55.59a20.93,20.93,0,0,0-18-10.49l-64.06-.22Z"/><path class="cls-11" d="M343.27,554.39l32-55.47a16.89,16.89,0,0,0,0-16.87l-32-55.47a16.85,16.85,0,0,0-14.6-8.43h-32V562.82h32A16.85,16.85,0,0,0,343.27,554.39Z"/><path class="cls-12" d="M509.48,458.45l32-55.47a16.87,16.87,0,0,0,0-16.86l-32-55.48a16.87,16.87,0,0,0-14.6-8.43h-32V466.89h32A16.86,16.86,0,0,0,509.48,458.45Z"/><path class="cls-13" d="M509.48,265.9l32-55.48a16.87,16.87,0,0,0,0-16.86l-32-55.47a16.86,16.86,0,0,0-14.6-8.44h-32V274.33h32A16.85,16.85,0,0,0,509.48,265.9Z"/><path class="cls-14" d="M343.27,170.51l32-55.48a16.87,16.87,0,0,0,0-16.86l-32-55.47a16.86,16.86,0,0,0-14.6-8.44h-32V178.94h32A16.85,16.85,0,0,0,343.27,170.51Z"/><path class="cls-15" d="M209.41,193.11l-32-55.48a16.86,16.86,0,0,0-14.6-8.43h-32V273.88h32a16.85,16.85,0,0,0,14.6-8.44l32-55.47A16.82,16.82,0,0,0,209.41,193.11Z"/><path class="cls-16" d="M177.38,330.64a16.87,16.87,0,0,0-14.6-8.43h-32V466.89h32a16.86,16.86,0,0,0,14.6-8.44l32-55.47a16.82,16.82,0,0,0,0-16.86Z"/><path class="cls-17" d="M266,63.29a5.43,5.43,0,0,1-4.75-2.49q-1.71-2.49-1.71-7.19,0-5.18,1.78-7.83a5.83,5.83,0,0,1,5.14-2.65q6.43,0,6.44,10,0,4.95-1.82,7.56A5.85,5.85,0,0,1,266,63.29Zm.31-17.64c-2.36,0-3.55,2.61-3.55,7.82q0,7.32,3.49,7.32t3.42-7.44C269.63,48.21,268.51,45.65,266.27,45.65Z"/><path class="cls-17" d="M288.52,58.26h-2.44V63h-3v-4.7h-8.87v-2l8.46-12.76h3.37V55.88h2.44Zm-5.4-2.38V48.33c0-.54,0-1.14.05-1.8h-.05a12.43,12.43,0,0,1-.67,1.34l-5.31,8Z"/><path class="cls-18" d="M415.74,299v0Z"/><path class="cls-18" d="M414.94,301.91a5.88,5.88,0,0,0,.75-2.19A5.88,5.88,0,0,1,414.94,301.91Z"/><path class="cls-18" d="M415.74,299h0v0A5.9,5.9,0,0,0,415,296L358.7,197.77a5.9,5.9,0,0,0-5.1-3l-57-.2V402.48l56.24.19h0a5.89,5.89,0,0,0,5.1-2.93l56.94-97.83a5.88,5.88,0,0,0,.75-2.19A6.33,6.33,0,0,0,415.74,299Z"/><path class="cls-17" d="M432.52,161.14a5.44,5.44,0,0,1-4.75-2.49c-1.14-1.66-1.71-4.05-1.71-7.19q0-5.18,1.78-7.82A5.84,5.84,0,0,1,433,141q6.42,0,6.43,10,0,5-1.82,7.56A5.83,5.83,0,0,1,432.52,161.14Zm.32-17.64q-3.55,0-3.55,7.82,0,7.32,3.48,7.32c2.28,0,3.43-2.48,3.43-7.44Q436.2,143.51,432.84,143.5Z"/><path class="cls-17" d="M442.7,160.37v-3a6.84,6.84,0,0,0,3.89,1.3,4.82,4.82,0,0,0,3.2-1,3.35,3.35,0,0,0,1.21-2.7,3,3,0,0,0-1.24-2.58,5.75,5.75,0,0,0-3.53-.93c-.52,0-1.5.06-2.92.17V141.31h10V144h-7.25v4.89c.58,0,1.13-.06,1.64-.06a6.75,6.75,0,0,1,4.8,1.59,5.69,5.69,0,0,1,1.69,4.36,5.94,5.94,0,0,1-1.94,4.64,7.64,7.64,0,0,1-5.32,1.75A8.86,8.86,0,0,1,442.7,160.37Z"/><path class="cls-17" d="M432.84,353.59a5.47,5.47,0,0,1-4.76-2.48q-1.69-2.49-1.7-7.2c0-3.45.59-6.05,1.78-7.82a5.82,5.82,0,0,1,5.14-2.66q6.43,0,6.44,10,0,4.95-1.82,7.56A5.83,5.83,0,0,1,432.84,353.59Zm.31-17.64c-2.36,0-3.55,2.61-3.55,7.82q0,7.32,3.48,7.32t3.43-7.44Q436.51,336,433.15,336Z"/><path class="cls-17" d="M453.94,334v2.74a6.39,6.39,0,0,0-3.06-.78,4.73,4.73,0,0,0-4,2,8.88,8.88,0,0,0-1.5,5.41h.06a4.55,4.55,0,0,1,4.35-2.45,5,5,0,0,1,4,1.66,7.25,7.25,0,0,1-.35,9.18,6.2,6.2,0,0,1-4.6,1.83,5.71,5.71,0,0,1-4.84-2.34,10.74,10.74,0,0,1-1.76-6.57,13.38,13.38,0,0,1,2.29-8.18,7.25,7.25,0,0,1,6.08-3.07A8.38,8.38,0,0,1,453.94,334Zm-5.09,9.4a3,3,0,0,0-2.39,1,3.52,3.52,0,0,0-.92,2.43,4.93,4.93,0,0,0,.92,3,3,3,0,0,0,4.73.16,4.17,4.17,0,0,0,.88-2.74,4.36,4.36,0,0,0-.84-2.85A2.88,2.88,0,0,0,448.85,343.39Z"/><path class="cls-17" d="M267.63,449.1a5.44,5.44,0,0,1-4.75-2.49q-1.71-2.49-1.71-7.2c0-3.45.59-6.05,1.78-7.82a5.83,5.83,0,0,1,5.15-2.65q6.42,0,6.43,10c0,3.3-.61,5.81-1.82,7.55A5.83,5.83,0,0,1,267.63,449.1Zm.32-17.65q-3.56,0-3.56,7.83c0,4.87,1.17,7.31,3.49,7.31s3.42-2.48,3.42-7.44C271.3,434,270.19,431.45,268,431.45Z"/><path class="cls-17" d="M289.55,448.77H277.93v-2.61h4.24v-13.8l-4.35,1.16v-2.75l7.51-1.87v17.26h4.22Z"/><path class="cls-17" d="M100.43,353.16a5.46,5.46,0,0,1-4.76-2.49Q94,348.18,94,343.47c0-3.45.6-6.05,1.79-7.82a5.81,5.81,0,0,1,5.14-2.65q6.44,0,6.43,10,0,5-1.81,7.56A5.85,5.85,0,0,1,100.43,353.16Zm.31-17.65q-3.55,0-3.55,7.82,0,7.32,3.48,7.32t3.43-7.44Q104.1,335.52,100.74,335.51Z"/><path class="cls-17" d="M122,352.83H109.75v-2.6l5.4-5.24a22.71,22.71,0,0,0,2.95-3.32,5,5,0,0,0,.88-2.84,3.09,3.09,0,0,0-.92-2.4,3.68,3.68,0,0,0-2.61-.85,6.79,6.79,0,0,0-4.77,2.23v-3a9.14,9.14,0,0,1,5.59-1.78,6.34,6.34,0,0,1,4.33,1.38,5,5,0,0,1,1.58,4,6.76,6.76,0,0,1-1,3.43,23.22,23.22,0,0,1-3.77,4.4l-4,3.85v.07H122Z"/><path class="cls-17" d="M100.43,160.15a5.46,5.46,0,0,1-4.76-2.49Q94,155.17,94,150.46q0-5.16,1.79-7.82a5.81,5.81,0,0,1,5.14-2.65q6.44,0,6.43,10,0,4.95-1.81,7.55A5.85,5.85,0,0,1,100.43,160.15Zm.31-17.64c-2.37,0-3.55,2.6-3.55,7.82q0,7.32,3.48,7.32t3.43-7.44C104.1,145.07,103,142.51,100.74,142.51Z"/><path class="cls-17" d="M110.25,159.1v-3a6.77,6.77,0,0,0,4.3,1.51,5,5,0,0,0,3.11-.89,2.85,2.85,0,0,0,1.16-2.39q0-3.31-5.08-3.32h-1.51v-2.53h1.45q4.5,0,4.5-3.13,0-2.88-3.51-2.88a5.72,5.72,0,0,0-3.69,1.4v-2.8a9.39,9.39,0,0,1,4.7-1.12,6.28,6.28,0,0,1,4.16,1.3,4.19,4.19,0,0,1,1.56,3.35q0,3.86-3.91,5v.06a5.15,5.15,0,0,1,3.33,1.47A4.43,4.43,0,0,1,122,154.3a5.23,5.23,0,0,1-2,4.24,8,8,0,0,1-5.2,1.61A8.83,8.83,0,0,1,110.25,159.1Z"/><rect class="cls-8" x="418.34" y="432.6" width="90" height="3.08"/><rect class="cls-19" x="421.88" y="396.56" width="14.36" height="31.93"/><rect class="cls-20" x="429.06" y="396.56" width="7.18" height="31.93"/><rect class="cls-19" x="444.5" y="384.67" width="14.36" height="43.83"/><rect class="cls-20" x="451.68" y="384.67" width="7.18" height="43.83"/><rect class="cls-19" x="467.12" y="388.98" width="14.36" height="39.52"/><rect class="cls-20" x="474.3" y="388.98" width="7.18" height="39.52"/><rect class="cls-19" x="489.75" y="373.78" width="14.36" height="54.71"/><rect class="cls-20" x="496.92" y="373.78" width="7.18" height="54.71"/><polyline class="cls-21" points="496.92 359.78 474.3 378.42 451.68 373.66 428.61 387.25"/><polyline class="cls-21" points="490.97 358.77 498.87 358.38 495.9 366.59"/><path class="cls-22" d="M322.77,486.36a26.55,26.55,0,0,0-53.09,1C272.6,503.93,280.6,506,285,523.28c9.48,6.31,8.75,4.85,24,1.24,2.18-15.93,13.82-25.55,13.82-37.15A8.39,8.39,0,0,0,322.77,486.36Z"/><path class="cls-23" d="M322.8,487.37a8.39,8.39,0,0,0,0-1A26.54,26.54,0,0,0,297,460.83V527.4c2.62-.43,6.11-1.5,12-2.88C311.16,508.59,322.8,499,322.8,487.37Z"/><path class="cls-24" d="M287.84,531.29v8.2c0,2.52,1.64,4.56,3.66,4.56h10.95c2,0,3.65-2,3.65-4.56v-8.2Z"/><path class="cls-25" d="M287.84,531.29v8.2c0,2.52,1.64,4.56,3.66,4.56h5.41V531.29Z"/><path class="cls-24" d="M306.1,539.49v-8.2h-9.19v12.76h5.54C304.47,544.05,306.1,542,306.1,539.49Z"/><path class="cls-26" d="M284.24,492.41s5,11.56,6.55,15.85,1.57,14.52,1.57,14.52"/><path class="cls-26" d="M310.08,492.41s-5,11.56-6.55,15.85S302,522.78,302,522.78"/><path class="cls-27" d="M283.29,521.24v13.29a4.57,4.57,0,0,0,4.57,4.56h18.23a4.56,4.56,0,0,0,4.56-4.56V521.24Z"/><path class="cls-28" d="M291.86,496.63c0,1.93-1.19,3.48-2.65,3.48s-2.65-1.55-2.65-3.48,1.19-3.47,2.65-3.47S291.86,494.72,291.86,496.63Z"/><path class="cls-28" d="M297.16,496.63c0,1.93-1.19,3.48-2.65,3.48s-2.65-1.55-2.65-3.48,1.18-3.47,2.65-3.47S297.16,494.72,297.16,496.63Z"/><path class="cls-28" d="M302.46,496.63c0,1.93-1.19,3.48-2.65,3.48s-2.65-1.55-2.65-3.48,1.18-3.47,2.65-3.47S302.46,494.72,302.46,496.63Z"/><path class="cls-28" d="M307.76,496.63c0,1.93-1.19,3.48-2.65,3.48s-2.65-1.55-2.65-3.48,1.18-3.47,2.65-3.47S307.76,494.72,307.76,496.63Z"/><path class="cls-29" d="M311.58,525.25a.64.64,0,0,1-.63.65H282.86a.64.64,0,0,1-.62-.65v-1.14a.65.65,0,0,1,.62-.66H311a.65.65,0,0,1,.63.66Z"/><path class="cls-29" d="M311.58,529.17a.65.65,0,0,1-.63.66H282.86a.65.65,0,0,1-.62-.66V528a.65.65,0,0,1,.62-.66H311a.65.65,0,0,1,.63.66Z"/><path class="cls-29" d="M311.64,533.09a.65.65,0,0,1-.62.66H282.93a.65.65,0,0,1-.63-.66V532a.65.65,0,0,1,.63-.66H311a.65.65,0,0,1,.62.66Z"/><path class="cls-24" d="M503.14,212.83A40.14,40.14,0,1,1,463,172.69,40.14,40.14,0,0,1,503.14,212.83Z"/><circle class="cls-8" cx="463" cy="212.83" r="33.44"/><path class="cls-25" d="M463,246.27a33.44,33.44,0,1,1,0-66.88h0v-6.7h0A40.14,40.14,0,1,0,463,253h0v-6.7Z"/><path class="cls-17" d="M429.56,212.83A33.44,33.44,0,0,0,463,246.27h0V179.39h0A33.44,33.44,0,0,0,429.56,212.83Z"/><rect class="cls-30" x="461.2" y="176.92" width="3.6" height="9.27" rx="1.55" ry="1.55"/><rect class="cls-31" x="427.09" y="211.03" width="9.27" height="3.6" rx="1.55" ry="1.55"/><rect class="cls-31" x="489.64" y="211.03" width="9.27" height="3.6" rx="1.55" ry="1.55"/><rect class="cls-31" x="461.2" y="176.92" width="3.6" height="9.27" rx="1.55" ry="1.55"/><rect class="cls-31" x="461.2" y="239.47" width="3.6" height="9.27" rx="1.55" ry="1.55"/><path class="cls-29" d="M467.05,215.79a1.56,1.56,0,0,1,0,2.19l-.35.35a1.55,1.55,0,0,1-2.2,0l-20.15-20.15a1.55,1.55,0,0,1,0-2.2l.35-.35a1.57,1.57,0,0,1,2.2,0Z"/><path class="cls-29" d="M461.67,218.33a1.54,1.54,0,0,1-2.19,0l-.35-.35a1.54,1.54,0,0,1,0-2.19L474,200.9a1.55,1.55,0,0,1,2.2,0l.34.35a1.54,1.54,0,0,1,0,2.19Z"/><path class="cls-32" d="M149.26,371.86c-5.84,10.06-11.53,20.23-14.71,31L119,398.22c2.69-10.86,3.51-21.86,5.82-33.4A106.69,106.69,0,0,1,149.26,371.86Z"/><path class="cls-33" d="M133.63,377.93c4.64,1.33,7,5.29,5.41,8.58a8.07,8.07,0,0,1-9.36,4.07c-3.67-1.07-6.27-4.77-5.72-8.33S129,376.63,133.63,377.93Z"/><path class="cls-33" d="M119,398.22l4.16,1.23a4.43,4.43,0,0,0-3.19-5.39C119.64,395.45,119.32,396.84,119,398.22Z"/><path class="cls-5" d="M130,382.39q-.9-.18-1.23,1.11c-.23.85-.07,1.35.45,1.5a.76.76,0,0,0,.82-.22,8.36,8.36,0,0,0,1-1.52,3.46,3.46,0,0,1,1.53-1.55,2.81,2.81,0,0,1,2-.07,2.22,2.22,0,0,1,1.63,1.51,3.46,3.46,0,0,1-.14,2.3c-.75,1.89-2,2.71-3.72,2.5.13-.54.25-1.09.38-1.63a1.67,1.67,0,0,0,1.94-1.3c.36-.95.14-1.54-.65-1.77a1,1,0,0,0-.89.12,5.56,5.56,0,0,0-1.09,1.48,4.09,4.09,0,0,1-1.46,1.61,2.09,2.09,0,0,1-1.63.16,2.2,2.2,0,0,1-1.42-1.19,3.29,3.29,0,0,1-.15-2.34c.44-1.89,1.47-2.69,3-2.36Z"/><path class="cls-5" d="M127.7,382.29c-.13.52-.25,1-.38,1.55l-1.67-.44.33-1.55Z"/><path class="cls-5" d="M137.63,385.13c-.21.5-.42,1-.62,1.49l-1.62-.49c.19-.5.38-1,.58-1.5Z"/><path class="cls-33" d="M134.31,402.76c.42-1.37.87-2.73,1.35-4.09a4.4,4.4,0,0,0-5.49,2.87Z"/><path class="cls-33" d="M148.88,371.71q-3.15-1.31-6.34-2.41c-1,2.33.82,5.05,4.16,6.29Z"/><path class="cls-33" d="M124.78,364.82c-.28,1.47-.55,2.94-.8,4.4,3.53.64,6.79-.65,7.52-3.11C129.29,365.61,127.05,365.17,124.78,364.82Z"/><path class="cls-33" d="M128.88,393.31a1.48,1.48,0,0,1,1.05,1.84,1.51,1.51,0,0,1-1.87,1,1.53,1.53,0,0,1-1.06-1.84A1.49,1.49,0,0,1,128.88,393.31Z"/><path class="cls-33" d="M135.59,372.22c1.14.33,1.8,1.25,1.49,2a2.05,2.05,0,0,1-2.5.87c-1.08-.3-1.76-1.2-1.51-2A2,2,0,0,1,135.59,372.22Z"/><path class="cls-32" d="M145.53,366.32C141.19,377.1,137,388,135.4,399.08c-5.35-.78-10.69-1.56-16.08-2.33,1.1-11.14.33-22.14,1-33.9A106.43,106.43,0,0,1,145.53,366.32Z"/><path class="cls-33" d="M130.93,374.56c4.78.65,7.68,4.23,6.58,7.71a8.09,8.09,0,0,1-8.68,5.38c-3.78-.54-6.89-3.83-6.85-7.43S126.15,373.94,130.93,374.56Z"/><path class="cls-33" d="M119.32,396.75l4.29.62a4.43,4.43,0,0,0-3.94-4.88C119.59,393.91,119.47,395.33,119.32,396.75Z"/><path class="cls-5" d="M127.93,379.5c-.61,0-1,.39-1.06,1.27s.12,1.35.67,1.42a.74.74,0,0,0,.77-.33,7.89,7.89,0,0,0,.76-1.64,3.53,3.53,0,0,1,1.3-1.76,2.8,2.8,0,0,1,1.95-.35,2.18,2.18,0,0,1,1.83,1.26,3.43,3.43,0,0,1,.2,2.29c-.47,2-1.57,3-3.32,3,0-.55.09-1.11.14-1.67.94,0,1.51-.51,1.74-1.56s-.09-1.55-.9-1.66a1,1,0,0,0-.87.25,5.55,5.55,0,0,0-.86,1.62,4.12,4.12,0,0,1-1.22,1.8,2.13,2.13,0,0,1-1.6.39,2.21,2.21,0,0,1-1.57-1,3.34,3.34,0,0,1-.48-2.3c.16-1.93,1.07-2.87,2.67-2.77Z"/><path class="cls-5" d="M125.68,379.73l-.15,1.58-1.72-.19c0-.53.07-1.06.11-1.59Z"/><path class="cls-5" d="M135.91,381.12c-.13.52-.27,1-.4,1.55l-1.67-.25c.12-.52.23-1,.36-1.56Z"/><path class="cls-33" d="M135.15,399c.22-1.42.47-2.83.75-4.24a4.4,4.4,0,0,0-5,3.62Z"/><path class="cls-33" d="M145.13,366.22c-2.21-.56-4.41-1.05-6.62-1.48-.68,2.46,1.53,4.88,5,5.63C144.06,369,144.6,367.6,145.13,366.22Z"/><path class="cls-33" d="M120.29,362.85c-.07,1.5-.12,3-.16,4.47,3.58.13,6.62-1.61,7-4.15C124.86,363,122.59,362.88,120.29,362.85Z"/><path class="cls-33" d="M128.43,390.46a1.49,1.49,0,0,1,1.3,1.67,1.53,1.53,0,0,1-3-.43A1.49,1.49,0,0,1,128.43,390.46Z"/><path class="cls-33" d="M132.05,368.63c1.18.16,2,1,1.76,1.81a2,2,0,0,1-2.35,1.22c-1.1-.14-1.91-.93-1.78-1.77A2,2,0,0,1,132.05,368.63Z"/><path class="cls-18" d="M119.37,401.21l-9.26-11.91s.22-3.68,6.19-3.47,12.35,2.78,18,3a47.55,47.55,0,0,0,15.18-2l-9.68,14.33Z"/><path class="cls-18" d="M151.52,423.09c-3-7.32-7.55-15-11.77-21.88H119.37a223.54,223.54,0,0,0-11.67,21.88c-7,15.4-3,20.47,5.22,24.11,6.12,2.7,27.25,2.7,33.37,0C154.54,443.56,156.62,435.64,151.52,423.09Z"/><path class="cls-34" d="M133.28,421.46q-.18-2.2-4.06-2.21c-2.59,0-3.9.67-3.9,2.06a1.91,1.91,0,0,0,1.25,1.84,25.6,25.6,0,0,0,5,1.32,10.83,10.83,0,0,1,5.55,2.45,5.86,5.86,0,0,1,1.77,4.44,5.46,5.46,0,0,1-2.87,4.91,12.23,12.23,0,0,1-6.52,1.71q-8.88,0-10.1-6.84l4.9-.38c.36,2.38,2.1,3.58,5.24,3.59q4.41,0,4.42-3a2.15,2.15,0,0,0-1.06-2,19.14,19.14,0,0,0-5-1.44,12,12,0,0,1-5.7-2.37,5.09,5.09,0,0,1-1.74-4,5.26,5.26,0,0,1,2.27-4.28c1.51-1.17,3.7-1.74,6.57-1.73q8.52,0,8.92,5.68Z"/><rect class="cls-34" x="127.41" y="411.62" width="4.24" height="4.67" transform="translate(-284.91 541.93) rotate(-89.78)"/><rect class="cls-34" x="127.32" y="436.95" width="4.25" height="4.67" transform="translate(-310.35 566.99) rotate(-89.77)"/><path class="cls-35" d="M141.64,401.65a.84.84,0,0,1-.91.73H118.1a.84.84,0,0,1-.91-.73V401a.84.84,0,0,1,.91-.74h22.63a.84.84,0,0,1,.91.74Z"/><path class="cls-25" d="M135.35,446c3.77,2.71,10.49.4,13-1.36,3.46-2.45,5-7.35,4.65-10.85a28.75,28.75,0,0,0-2.36-9.13,15.74,15.74,0,0,1-1,9.86c-2,4.72-7.83,5.92-11.69,6.35C135.25,441.15,131.61,443.27,135.35,446Z"/><path class="cls-25" d="M133.06,399.68s7.13-2.59,10.65-6.21c4-4.09-3.91,6.21-3.91,6.21Z"/><path class="cls-36" d="M112.84,390.17a4.43,4.43,0,0,1,.36.3c.22.19.52.48.87.83a29.73,29.73,0,0,1,2.36,2.74,29.11,29.11,0,0,1,2,3c.25.43.44.8.57,1.06s.19.42.19.42-.13-.1-.35-.3-.53-.47-.88-.83a28.1,28.1,0,0,1-2.35-2.74,27.57,27.57,0,0,1-2-3c-.25-.43-.44-.8-.57-1.06S112.84,390.17,112.84,390.17Z"/><path class="cls-36" d="M120,403.87s-.11.35-.33.94-.55,1.44-1,2.44c-.83,2-2,4.63-3.34,7.2s-2.7,5.1-3.83,7c-.55.93-1,1.69-1.39,2.22s-.56.83-.56.83.11-.35.33-.94.55-1.44,1-2.44c.83-2,2-4.63,3.35-7.2s2.69-5.1,3.82-7c.56-.93,1-1.69,1.4-2.22S120,403.87,120,403.87Z"/><path class="cls-23" d="M119,442.35a9.77,9.77,0,1,1-6.59-12.14A9.77,9.77,0,0,1,119,442.35Z"/><path class="cls-22" d="M117.27,441.85a8,8,0,1,1-5.4-10A8,8,0,0,1,117.27,441.85Z"/><path class="cls-37" d="M111.89,438c.13-.61-.33-1.07-1.39-1.39s-1.67-.19-1.84.37a.8.8,0,0,0,.29.9,10.39,10.39,0,0,0,1.89,1.15,4.72,4.72,0,0,1,2,1.67,2.53,2.53,0,0,1,.18,2,2.33,2.33,0,0,1-1.76,1.65,5.21,5.21,0,0,1-2.87-.09q-3.62-1.08-3.3-4l2.05.44c-.14,1,.42,1.71,1.7,2.1s1.92.13,2.17-.68a.94.94,0,0,0-.2-.94,8.23,8.23,0,0,0-1.87-1.19,5.06,5.06,0,0,1-2-1.66,2.16,2.16,0,0,1-.23-1.82,2.26,2.26,0,0,1,1.44-1.48,4.51,4.51,0,0,1,2.89.09c2.32.69,3.3,1.83,3,3.4Z"/><rect class="cls-37" x="110.36" y="433.46" width="1.81" height="1.99" transform="translate(-336.82 415.93) rotate(-73.27)"/><rect class="cls-37" x="107.27" y="443.78" width="1.81" height="1.99" transform="translate(-348.92 420.52) rotate(-73.29)"/><path class="cls-17" d="M102.05,437.48a4.41,4.41,0,0,1,.59-2.18,4.63,4.63,0,0,1,2.19-.6,4.06,4.06,0,0,1-2.19-.59,4.08,4.08,0,0,1-.59-2.18,4.07,4.07,0,0,1-.63,2.22,3.81,3.81,0,0,1-2.15.55,4.2,4.2,0,0,1,2.18.6A4.13,4.13,0,0,1,102.05,437.48Z"/><path class="cls-17" d="M103.9,437.92a1.59,1.59,0,0,1,.21-.78,1.62,1.62,0,0,1,.78-.21,1.48,1.48,0,0,1-.78-.22,1.41,1.41,0,0,1-.21-.77,1.43,1.43,0,0,1-.22.79,1.41,1.41,0,0,1-.77.2,1.43,1.43,0,0,1,.78.21A1.52,1.52,0,0,1,103.9,437.92Z"/><path class="cls-17" d="M100.28,440a2.26,2.26,0,0,1,.29-1.08,2.29,2.29,0,0,1,1.08-.3,1.12,1.12,0,0,1-1.37-1.37,2,2,0,0,1-.31,1.1,1.88,1.88,0,0,1-1.06.27,1.13,1.13,0,0,1,1.37,1.38Z"/><path class="cls-38" d="M287.51,144c.5.82-.52,2.37-2.29,3.45l-1.5.91c-1.77,1.08-3.62,1.28-4.12.45l-20.93-34.36c-.5-.83.52-2.37,2.29-3.45l1.5-.92c1.77-1.08,3.61-1.28,4.12-.45Z"/><path class="cls-39" d="M271.45,135.43l8.43-4-13.3-21.84c-.51-.83-2.35-.63-4.12.45L261,111c-1.77,1.08-2.79,2.62-2.29,3.45Z"/><path class="cls-25" d="M317.52,96.63a5.72,5.72,0,1,1-7.61-2.76A5.72,5.72,0,0,1,317.52,96.63Z"/><path class="cls-25" d="M268.76,119.46a5.72,5.72,0,1,1-7.61-2.76A5.73,5.73,0,0,1,268.76,119.46Z"/><rect class="cls-40" x="260.86" y="108.37" width="13.62" height="24.81" transform="translate(-25.96 124.9) rotate(-25.09)"/><rect class="cls-38" x="263.49" y="120.19" width="13.62" height="12.41" transform="translate(-28.09 126.55) rotate(-25.09)"/><path class="cls-8" d="M318.86,119.39s-13.09,1.12-21.31,2.46c-4.88.79-18.46,7.27-18.46,7.27l-10.52-22.47s13.27-6.07,16.85-9.26c7.67-6.79,16.09-15,16.09-15Z"/><path class="cls-40" d="M323.4,118.88a1.83,1.83,0,0,1-.78,2.47l-.74.35a1.84,1.84,0,0,1-2.4-1L300.91,81.06a1.83,1.83,0,0,1,.78-2.47l.75-.35a1.84,1.84,0,0,1,2.4,1Z"/><path class="cls-25" d="M273.52,117.23l5.57,11.89s13.58-6.48,18.46-7.27c8.22-1.34,21.31-2.46,21.31-2.46l-9-19.18Z"/><path class="cls-38" d="M309.88,100.21l9.53,20.35a1.94,1.94,0,0,0,2.47,1.14l.74-.35a1.92,1.92,0,0,0,.71-2.62L313.8,98.37Z"/><path class="cls-41" d="M318.44,84.55A16,16,0,0,1,328,105"/><path class="cls-41" d="M323.48,70.38a31.07,31.07,0,0,1,18.63,39.81"/><path class="cls-41" d="M320.87,77.58a23.42,23.42,0,0,1,14,30"/><polygon class="cls-8" points="309.28 334.19 285.09 333.29 260.32 342.76 260.32 402.35 332.66 402.61 332.66 342.76 309.28 334.19"/><polygon class="cls-42" points="294 348.54 290.23 402.46 304.17 402.5 299.61 348.54 294 348.54"/><path class="cls-43" d="M346.71,434.73l-6.12,6.94s-1.38,2.76,0,3.61,3.15-1.32,3.15-1.32-2.3,5.51-2,7.65,2.69,3.63,4.42,4.16,5.23-.82,6.76-3.81,4.18-12.37,3.21-13.43S346.71,434.73,346.71,434.73Z"/><polygon class="cls-8" points="344.15 436.05 358.21 440.65 359.43 436.81 345.37 432.2 344.15 436.05"/><path class="cls-44" d="M296.72,336.17s-5.61.12-7,2.68c-3,5.65,4.26,10.49,4.26,10.49h5.61s6-4.39,4.32-8.64C302.55,337.28,296.72,336.17,296.72,336.17Z"/><polygon class="cls-18" points="277.8 334.1 286.49 346.28 297.04 335.72 279.39 324.03 277.8 334.1"/><polygon class="cls-18" points="296.4 335.72 306.96 346.28 314.85 334.9 314.06 324.03 296.4 335.72"/><path class="cls-43" d="M255.88,282.17c-4,1.16-3,7.19-3,9.43s3.3,10.19,5.52,11.07c5.61,2.21,5.61-6.11,5.61-6.11v-9.68S259.83,281,255.88,282.17Z"/><path class="cls-43" d="M336.36,281.91c-3.95-1.17-8.1,4.72-8.1,4.72v9.67s0,8.58,5.62,6.11c2.17-1,5.52-8.82,5.52-11.06S340.31,283.08,336.36,281.91Z"/><path class="cls-43" d="M306.1,239.75H286.46c-14.25,0-25.81,15.31-25.81,34.21v26c0,18.9,19.38,32.13,25.81,34.21a32.34,32.34,0,0,0,19.64,0c6.75-2,25.81-15.31,25.81-34.21V274C331.91,255.06,320.35,239.75,306.1,239.75Z"/><path class="cls-45" d="M260.65,288.75c2.63-2.16,9.2-38.55,9.54-40.47l-11.26,3.65S258.35,290.64,260.65,288.75Z"/><path class="cls-45" d="M323.5,250.56s6.68,37.19,8.75,39,1.55-33.27,1.55-33.27Z"/><path class="cls-46" d="M342.79,243c-5.56.81-10.84.4-13.62-.82a12,12,0,0,0,3.33-9.64c-4.24,1.74-9,4.73-20.81,1.1-4.41-1.36-24.05-8.77-39.94,0-11.1,6.11-12.22,14-14.61,20.25,25,6.09,27.27,10.86,48.28,11.31,11,.23,17.45-1.89,26.17-6.42S344.06,242.84,342.79,243Z"/><path class="cls-27" d="M241.48,391.61c1.58-17.23,16.83-27.45,16.83-27.45l21.08-30.87s-20.14,2.87-25.85,5.56c-5,2.35-23.3,22.26-27.94,44.79l9,15.67a5.9,5.9,0,0,0,5.1,3h2A54.06,54.06,0,0,1,241.48,391.61Z"/><path class="cls-27" d="M261.44,336.51l-3.5,27s.39,18.84.88,38.81l39,.13-18.43-69.19Z"/><polygon class="cls-29" points="274.06 333.29 269.39 352.85 276.95 360.39 276.27 366.31 296.65 402.48 297.83 402.48 278.38 329.11 274.06 333.29"/><path class="cls-27" d="M352.9,402.67h-1.33c-1.66,14.9-7.71,30.13-7.71,30.13l15.89,5.11s9-17.76,9-44.14a50.3,50.3,0,0,0-1.17-10.51L358,399.74A5.89,5.89,0,0,1,352.9,402.67Z"/><path class="cls-27" d="M339.74,338.85c-5.71-2.69-25.85-5.56-25.85-5.56L335,364.16s15.24,10.22,16.83,27.45a55,55,0,0,1-.23,11.06h1.33a5.89,5.89,0,0,0,5.1-2.93l9.59-16.48C362.82,360.89,344.68,341.18,339.74,338.85Z"/><path class="cls-27" d="M331.84,336.51l-17.95-3.22-18.43,69.18,39,.14c.49-20.07.88-39.07.88-39.07Z"/><polygon class="cls-29" points="316.32 360.39 323.89 352.85 319.22 333.29 314.9 329.11 295.45 402.48 296.86 402.48 319.39 366.31 316.32 360.39"/><polygon class="cls-8" points="101.41 175.31 101.41 251.76 158.56 251.76 158.56 187.86 146.01 175.31 101.41 175.31"/><polygon class="cls-25" points="158.56 187.86 146.01 175.31 146.01 187.86 158.56 187.86"/><rect class="cls-47" x="110.51" y="196.89" width="39.81" height="3.46"/><rect class="cls-48" x="110.51" y="203.28" width="39.81" height="3.47"/><rect class="cls-48" x="110.51" y="209.68" width="39.81" height="3.46"/><rect class="cls-47" x="110.89" y="186.13" width="23.62" height="3.47"/><rect class="cls-48" x="110.51" y="216.07" width="39.81" height="3.47"/><rect class="cls-47" x="110.51" y="225.7" width="39.81" height="3.46"/><rect class="cls-48" x="110.51" y="232.09" width="39.81" height="3.47"/><rect class="cls-48" x="110.51" y="238.48" width="39.81" height="3.46"/><path class="cls-49" d="M156.66,245a1.55,1.55,0,0,1,0-2.18l7-6.95a1.54,1.54,0,0,1,2.19,0l5.4,5.4a1.54,1.54,0,0,1,0,2.19l-6.95,7a1.56,1.56,0,0,1-2.19,0Z"/><polygon class="cls-50" points="137.31 207.34 121.55 201.2 128.09 216.56 137.31 207.34"/><polygon class="cls-27" points="127.05 203.34 121.55 201.2 123.83 206.56 127.05 203.34"/><rect class="cls-51" x="140.49" y="206.03" width="13.04" height="40.47" transform="translate(-116.92 170.17) rotate(-44.99)"/><rect class="cls-8" x="155.99" y="240.08" width="13.04" height="3.36" transform="translate(-123.35 185.72) rotate(-45)"/><rect class="cls-52" x="141.44" y="208.31" width="6.58" height="40.47" transform="translate(-119.22 169.28) rotate(-45)"/></svg>