<?xml version="1.0" encoding="UTF-8" standalone="no"?>
<!-- Created with Inkscape (http://www.inkscape.org/) -->

<svg
   xmlns:dc="http://purl.org/dc/elements/1.1/"
   xmlns:cc="http://creativecommons.org/ns#"
   xmlns:rdf="http://www.w3.org/1999/02/22-rdf-syntax-ns#"
   xmlns:svg="http://www.w3.org/2000/svg"
   xmlns="http://www.w3.org/2000/svg"
   xmlns:sodipodi="http://sodipodi.sourceforge.net/DTD/sodipodi-0.dtd"
   xmlns:inkscape="http://www.inkscape.org/namespaces/inkscape"
   id="svg2816"
   version="1.1"
   inkscape:version="0.47 r22583"
   width="180"
   height="156"
   sodipodi:docname="MOL_Logo.jpg">
  <metadata
     id="metadata2822">
    <rdf:RDF>
      <cc:Work
         rdf:about="">
        <dc:format>image/svg+xml</dc:format>
        <dc:type
           rdf:resource="http://purl.org/dc/dcmitype/StillImage" />
        <dc:title></dc:title>
      </cc:Work>
    </rdf:RDF>
  </metadata>
  <defs
     id="defs2820">
    <inkscape:perspective
       sodipodi:type="inkscape:persp3d"
       inkscape:vp_x="0 : 0.5 : 1"
       inkscape:vp_y="0 : 1000 : 0"
       inkscape:vp_z="1 : 0.5 : 1"
       inkscape:persp3d-origin="0.5 : 0.33333333 : 1"
       id="perspective2824" />
  </defs>
  <sodipodi:namedview
     pagecolor="#ffffff"
     bordercolor="#666666"
     borderopacity="1"
     objecttolerance="10"
     gridtolerance="10"
     guidetolerance="10"
     inkscape:pageopacity="0"
     inkscape:pageshadow="2"
     inkscape:window-width="824"
     inkscape:window-height="848"
     id="namedview2818"
     showgrid="false"
     inkscape:zoom="4.2789026"
     inkscape:cx="159.57752"
     inkscape:cy="80.203112"
     inkscape:window-x="280"
     inkscape:window-y="-3"
     inkscape:window-maximized="0"
     inkscape:current-layer="svg2816" />
  <path
     style="fill:#aa0000"
     d="M 45.25,78.168922 C 20.9125,35.931866 1,1.0650632 1,0.68713755 1,0.3092119 16.975,0 36.5,0 L 72,0 71.994736,2.25 C 71.991841,3.4875 70.869209,12.825 69.5,23 68.130791,33.175 67.008159,41.6125 67.005264,41.75 67.002369,41.8875 69.89262,42 73.428044,42 l 6.428043,0 0.568406,-5.25 c 0.312623,-2.8875 0.695578,-6.6 0.851011,-8.25 0.20059,-2.129371 0.827149,-0.591287 2.158985,5.299903 L 85.31087,42.099806 89.405435,41.799903 93.5,41.5 l 2,-8 c 1.833501,-7.334005 2.020839,-7.667002 2.250315,-4 0.137673,2.2 0.502746,5.9125 0.811273,8.25 l 0.560958,4.25 6.450544,0 6.45055,0 -0.65421,-4.25 -0.65421,-4.25 2.64164,2.800714 C 116.4037,39.531022 121.73012,42 125.65216,42 c 4.31071,0 11.20122,-3.890331 13.88445,-7.839063 L 142,30.535731 142,36.267865 142,42 l 6.58333,0 c 3.73129,0 6.43893,0.412138 6.25,0.951332 C 154.11424,45.003632 90.469304,154.96176 90,154.96263 89.725,154.96315 69.5875,120.40598 45.25,78.168922 z m 78.04086,-50.184969 c -5.16853,-2.080558 -4.34767,-12.532166 1.13595,-14.463601 2.43935,-0.859182 3.08859,-0.62248 5.27974,1.924884 2.00952,2.336207 2.38644,3.604068 1.92633,6.479648 -0.31463,1.966314 -1.53559,4.362616 -2.71325,5.325116 -2.39677,1.958876 -2.53956,1.977495 -5.62877,0.733953 z M 155,14.557498 155,0 167,0 c 6.6,0 11.98856,0.3375 11.97458,0.75 -0.014,0.4125 -3.51854,6.825 -7.7879,14.25 L 163.4242,28.5 159.2121,28.807498 155,29.114996 155,14.557498 z M 88.130907,11 C 87.429793,7.425 86.614736,3.4875 86.319669,2.25 85.840137,0.23885854 86.159576,0 89.328721,0 c 3.53785,0 3.544227,0.00813074 2.941125,3.75 -0.332427,2.0625 -1.112862,6 -1.734299,8.75 L 89.40566,17.5 88.130907,11 z M 107.54722,8.5 C 107.18893,5.75 106.73636,2.7125 106.54151,1.75 106.2308,0.21519712 107.05497,0 113.24366,0 l 7.05642,0 -4.11714,2.9824414 c -2.26443,1.6403427 -4.98725,4.6778427 -6.05072,6.75 L 108.19865,13.5 l -0.65143,-5 z m 31.5667,-1.5597844 C 137.86971,5.2573342 135.42259,3.0090163 133.67586,1.9439537 L 130.5,0.00747612 136.25,0.00373806 142,0 l 0,5 c 0,2.75 -0.14037,5 -0.31194,5 -0.17157,0 -1.32993,-1.376903 -2.57414,-3.0597844 z"
     id="path2828" />
</svg>
