<svg id="BACKGROUND" xmlns="http://www.w3.org/2000/svg" viewBox="0 0 980 500"><defs><style>.cls-1{fill:#023942;}</style></defs><title>grad</title><path class="cls-1" d="M650.26,300a2.94,2.94,0,0,1,1.62.49v0c.19.48.45,1,.67,1.48.55,1.28,1.14,2.54,1.5,3.3l-3.24-2.37h0l-2.87-1.74A2.94,2.94,0,0,1,650.26,300Z"/><path class="cls-1" d="M629.63,419.91l13.24-80.63V330a13.81,13.81,0,0,1,1.31-5.86l1.56-3.28a13.78,13.78,0,0,0,1.31-5.86v-6c.16.21,4.26,5.05,4.59,5.45a2.53,2.53,0,0,1,.47,2.5c-.18.42-.5.93-.77,1.42l-1.67,3-1.68,3a15,15,0,0,0-1.7,6.32,21,21,0,0,0,.13,2.82c.28,3.45.47,5.75.47,5.75H647s-.09-2.31-.22-5.77a21.32,21.32,0,0,1,0-2.77,14.62,14.62,0,0,1,1.83-6l1.78-2.94,1.79-2.94a15.25,15.25,0,0,0,.89-1.52,3.51,3.51,0,0,0,.2-1.92,3.45,3.45,0,0,0-.82-1.64c-.34-.4-.67-.79-1-1.16l-1.86-2.09c-.57-.65-1.12-1.22-1.6-1.74s-.9-1-1.25-1.33-.83-.85-1-1l-.16-.19-4.93-3.91a8.54,8.54,0,0,1-3.24-6.7.36.36,0,0,1,.54-.31l9.52,5.79,3.1,2.11S661,311.73,661.24,312a8.15,8.15,0,0,1,.8.86,8.33,8.33,0,0,1,1.23,2,9.2,9.2,0,0,1,.4,1.15c.14.4.13.81.31,1.23a3.53,3.53,0,0,0,.1-1.29,6.93,6.93,0,0,0-.2-1.29,7.29,7.29,0,0,0-1.07-2.42,9.1,9.1,0,0,0-.84-1,10.93,10.93,0,0,0-1-.86c-.66-.52-6.6-4.86-6.6-4.86-.18-.73-.59-2.28-1-3.82-.15-.53-.27-1.08-.43-1.57a9.63,9.63,0,0,0-.6-1.28,6.77,6.77,0,0,0-.69-1l-8.05-7.68a8.23,8.23,0,0,1-2.42-7.66h0a.32.32,0,0,1,.51-.18l8.05,6.54c.76.66,6.91,5.73,7.61,6.64a8.82,8.82,0,0,1,.85,1.32l2.57,4.38c1.15,2,5.72,9.14,6.4,10.71.32.76.64,1.46.84,2.11s.32,1.24.42,1.72.14.87.17,1.14,0,.41.1.41,0-.15.08-.42a10.6,10.6,0,0,0,0-1.17,10.37,10.37,0,0,0-.21-1.82,13,13,0,0,0-.66-2.3,18,18,0,0,0-1.28-2.51c-.48-.86-1-1.73-1.57-2.65-1.14-1.81-2.37-3.73-3.59-5.65l-2.72-4.29a11,11,0,0,0-2.17-2.59c-.4-.32-5.62-4.66-6.34-5.23L649,286a8,8,0,0,1,.27-7.4.59.59,0,0,1,1-.08l11.7,14.38a7,7,0,0,1,.94,1.57l2.28,5.36,2.22-5.62.25-3.82a12.82,12.82,0,0,1,4.35-8.83.52.52,0,0,1,.86.38v15.14a7.62,7.62,0,0,1-.14,1.43l-2.55,13h0l.38.91a7.19,7.19,0,0,1-.12,5.92l-10,20.9L664,419.91Z"/><path class="cls-1" d="M590.66,517l-22.13-94.39a2.19,2.19,0,0,1,2.13-2.7h93.46a4,4,0,0,1,4,4v53.61a19,19,0,0,1-2.46,9.34L648.6,517Z"/><polygon class="cls-1" points="581.57 486.77 573.44 517 590.66 517 581.57 486.77"/><path class="cls-1" d="M317.25,305c-.54-.7-1.23-1.49-1.91-2.3s-1.4-1.7-2.11-2.63-1.46-1.81-2.18-2.92L309.17,294c-2.49-4.26-5-8.53-6.83-11.75a1.53,1.53,0,0,0-.59,2.17l8.76,14,7.34,7.52A9.49,9.49,0,0,0,317.25,305Z"/><path class="cls-1" d="M362.45,302.49a4.4,4.4,0,0,0-3.88-1.14A28.28,28.28,0,0,0,348,305.71l-3.81,2.6a5.44,5.44,0,0,1-6.51-.31l-2.38-2c.08.54.16,1.11.29,1.73.3,1.65,2.22,7.59,2.55,8.65a24.42,24.42,0,0,1,.88,3.29,19.55,19.55,0,0,1,.36,3.42,17.47,17.47,0,0,1-2.11,8.91,17.48,17.48,0,0,1-2.37,3.4c-.55.62-.91,1-1,1.09h-.09l0,0a31.79,31.79,0,0,0,2.81-4.82,19.72,19.72,0,0,0,.92-2.51,22.25,22.25,0,0,0,.66-2.89,19.13,19.13,0,0,0,.3-3.16,18.3,18.3,0,0,0-.21-3.29,24.73,24.73,0,0,0-.75-3.23c-.29-1.07-2-7.09-2.24-8.78a30.31,30.31,0,0,1-.33-4.09c0-.5,0-.89,0-1.15-.37-7.32-.51-9.16-1.34-12.34a6.24,6.24,0,0,0-3.46-4.26.61.61,0,0,0-.77.71l1,4a8.52,8.52,0,0,1,.26,1.26,9.41,9.41,0,0,1,0,1.3,7.5,7.5,0,0,1-.53,2.56h0a18.06,18.06,0,0,0-.86,3.06c-.1.52-.17,1.05-.23,1.58,0,0-1,7-1.23,8h-.1c-.06-1.09.06-5.44.16-6.52a34,34,0,0,1,.66-3.7s-3.23-8.49-4-10.2l-4.26-9.32a6.76,6.76,0,0,0-5.74-3.93.78.78,0,0,0-.79,1l.07.21,6.82,18.48s2.33,13.61,2.45,14.86l-.1,0c-.35-1.21-2.8-12.09-3.2-14.5l-13.23-16.14a5.06,5.06,0,0,0-4.9-1.77,1.14,1.14,0,0,0-.77,1.69s6.4,10.69,9,14.86l2,3.14c.32.47.72.92,1.1,1.39s4.47,5.66,5,6.47A8.52,8.52,0,0,1,319,307a9.52,9.52,0,0,1,.37,2c0,.51.08,1.71.08,2l.11,28.38L316,419.91h34.35L336,336.12l1.38-1.33a45.09,45.09,0,0,0,8.1-10.62l4.63-8.42a24.2,24.2,0,0,1,7.2-8.09l5-3.6A1,1,0,0,0,362.45,302.49Z"/><path class="cls-1" d="M389.34,517l22.13-94.39a2.19,2.19,0,0,0-2.13-2.7H315.88a4,4,0,0,0-4,4v53.61a19,19,0,0,0,2.46,9.34L331.4,517Z"/><polygon class="cls-1" points="398.43 486.77 406.56 517 389.34 517 398.43 486.77"/><path class="cls-1" d="M505.11,337.58a2.67,2.67,0,0,1,1.47.44v0c.17.43.4.88.61,1.33.5,1.16,1,2.3,1.35,3l-2.93-2.14h0L503,338.64A2.64,2.64,0,0,1,505.11,337.58Z"/><path class="cls-1" d="M477.35,517l21.08-143.9v-8.37a12.47,12.47,0,0,1,1.19-5.3l1.4-3a12.27,12.27,0,0,0,1.2-5.3v-5.45c.13.19,3.84,4.57,4.14,4.93a2.12,2.12,0,0,1,.52,1.06,2.14,2.14,0,0,1-.1,1.2c-.15.38-.45.84-.68,1.29l-1.52,2.72-1.52,2.73a13.83,13.83,0,0,0-1.11,2.87,13.19,13.19,0,0,0-.42,2.84,18.8,18.8,0,0,0,.11,2.55c.26,3.12.43,5.2.43,5.2h.09s-.07-2.08-.19-5.21a19.1,19.1,0,0,1,0-2.51,13.39,13.39,0,0,1,.5-2.71,13.09,13.09,0,0,1,1.16-2.71c.52-.88,1.06-1.77,1.6-2.66l1.63-2.66a14.43,14.43,0,0,0,.79-1.38,3.12,3.12,0,0,0,.19-1.73,3.19,3.19,0,0,0-.75-1.49c-.3-.36-.6-.71-.9-1l-1.68-1.9c-.51-.58-1-1.1-1.44-1.57l-1.14-1.2c-.44-.46-.75-.77-.9-.92l-.14-.18-4.46-3.53a7.73,7.73,0,0,1-2.93-6.06.31.31,0,0,1,.48-.27l8.61,5.23,2.81,1.91s9.39,7.69,9.64,7.92a9,9,0,0,1,.73.78,8,8,0,0,1,1.11,1.85,9.27,9.27,0,0,1,.36,1.05c.13.36.12.73.28,1.1a3.24,3.24,0,0,0,.09-1.16,6.76,6.76,0,0,0-.18-1.17,6.66,6.66,0,0,0-1-2.18,6.8,6.8,0,0,0-.76-.94,8.94,8.94,0,0,0-.9-.78c-.6-.47-6-4.4-6-4.4-.16-.66-.53-2.06-.94-3.45-.14-.48-.25-1-.39-1.42a9,9,0,0,0-.54-1.16,6.92,6.92,0,0,0-.62-.92l-7.28-6.94a7.45,7.45,0,0,1-2.19-6.92h0a.29.29,0,0,1,.46-.17l7.28,5.91c.68.6,6.25,5.18,6.88,6a7.63,7.63,0,0,1,.77,1.19l2.32,4c1,1.78,5.18,8.26,5.79,9.68a18.64,18.64,0,0,1,.75,1.91c.18.59.3,1.12.39,1.56s.12.79.15,1,0,.37.09.37,0-.13.08-.37,0-.6,0-1.06a9.17,9.17,0,0,0-.19-1.65,11.57,11.57,0,0,0-.59-2.07,16.33,16.33,0,0,0-1.16-2.28c-.43-.77-.93-1.56-1.42-2.39l-3.25-5.11-2.45-3.87a9.91,9.91,0,0,0-2-2.35c-.36-.29-5.08-4.21-5.73-4.73l-1.14-2.38a7.2,7.2,0,0,1,.24-6.69.54.54,0,0,1,.89-.08l10.57,13a6,6,0,0,1,.85,1.42l2.06,4.83,2-5.07.23-3.46a11.6,11.6,0,0,1,3.92-8,.47.47,0,0,1,.78.35V335a6.85,6.85,0,0,1-.12,1.28L523.05,348h0l.35.83a6.52,6.52,0,0,1-.11,5.35l-9,18.9L517.52,517Z"/><path class="cls-1" d="M603.35,318.09a4,4,0,0,0-2.45-.17l-5.26,2.3-8.92,3.91c-1.64.71-3.3,1.47-5.05,2.18l-5.28,2.07c-1.77.7-3.56,1.35-5.22,2.14a28.15,28.15,0,0,0-4.63,2.82,27.66,27.66,0,0,0-3.8,3.34c-.59.56-1.07,1.17-1.58,1.74s-.94,1.16-1.32,1.75c-.21.29-.4.58-.59.86s-.35.56-.52.84c-.36.54-.64,1.08-.91,1.58s-.5,1-.71,1.45-.4.87-.55,1.25a18,18,0,0,0-.68,1.8l-.23.65-.07,0,.18-.66c.11-.43.27-1.07.54-1.86a24.12,24.12,0,0,1,1.13-2.8c.25-.53.51-1.09.84-1.66l.49-.88.58-.88c.38-.62.85-1.2,1.3-1.83s1-1.24,1.57-1.84a26.16,26.16,0,0,1,3.89-3.44,26.86,26.86,0,0,1,4.79-2.8c1.73-.78,3.53-1.39,5.3-2.07l5.31-2,.7-.29c-.63-.2-1.09-1-.14-2.06l.1-.11a50.35,50.35,0,0,1,7.65-6.48l11.79-8.16a2.31,2.31,0,0,0-.25-3.95,4.53,4.53,0,0,0-4.22,0l-10.37,5.57c-.32.18-.64.36-.94.56l-9,5.77a.18.18,0,0,1-.24-.27l16.89-19.24a2.31,2.31,0,0,0-1.74-3.84,8.91,8.91,0,0,0-6.09,2.42l-16.75,15.76a.42.42,0,0,1-.69-.41l1.77-6.48a40.41,40.41,0,0,1,2.63-7l3.42-7a2.32,2.32,0,0,0-2.08-3.33,5,5,0,0,0-4.39,2.62l-7.74,14.42-9.09,18.77a2.85,2.85,0,0,1-4.77.55,36.92,36.92,0,0,0-12.37-9.89l-1.26-.63a4.71,4.71,0,0,0-4.46.16,1,1,0,0,0-.3,1.55l7,9a25.6,25.6,0,0,1,5.13,11.84l.7,4.5a15.08,15.08,0,0,0,1.89,5.31l2.63,4.48L500,476.36h51.3l14.53-123.18,9-9.65,7.21-7.7a30.88,30.88,0,0,1,5.86-4.89l15.66-10.07A1.57,1.57,0,0,0,603.35,318.09Z"/><path class="cls-1" d="M498.71,476.36h79.93a1.45,1.45,0,0,1,1.4,1.82L569.41,517H477.05l15.21-36.47A7.07,7.07,0,0,1,498.71,476.36Z"/><path class="cls-1" d="M794.42,313.68a4,4,0,0,0-2.45-.18l-5.27,2.31-8.92,3.91c-1.64.7-3.3,1.46-5,2.18L767.45,324c-1.77.7-3.56,1.35-5.22,2.15a27.44,27.44,0,0,0-4.63,2.81,28.9,28.9,0,0,0-3.8,3.34c-.58.56-1.07,1.18-1.58,1.74s-.94,1.17-1.32,1.76l-.59.85-.52.84c-.35.54-.63,1.09-.91,1.59s-.49,1-.71,1.44-.4.87-.55,1.26c-.33.75-.54,1.38-.68,1.8l-.23.64-.07,0,.18-.66c.11-.43.27-1.06.55-1.85a21.72,21.72,0,0,1,1.12-2.81c.25-.52.51-1.09.84-1.65l.5-.88.57-.89c.38-.62.85-1.2,1.3-1.83s1-1.24,1.57-1.83a25.61,25.61,0,0,1,3.89-3.44,27.58,27.58,0,0,1,4.79-2.8c1.73-.79,3.53-1.4,5.3-2.07l5.32-2,.7-.28c-.63-.2-1.1-1-.15-2.07l.1-.1a51,51,0,0,1,7.65-6.49l11.79-8.15a2.32,2.32,0,0,0-.24-4,4.52,4.52,0,0,0-4.23,0L777.82,306c-.32.17-.64.35-.94.55l-9,5.78a.18.18,0,0,1-.23-.28l16.88-19.23a2.31,2.31,0,0,0-1.73-3.84,8.9,8.9,0,0,0-6.1,2.41l-16.75,15.77a.42.42,0,0,1-.69-.42l1.78-6.48a38.45,38.45,0,0,1,2.63-7l3.41-7A2.31,2.31,0,0,0,765,283a5,5,0,0,0-4.38,2.62L752.86,300l-9.09,18.76a2.84,2.84,0,0,1-4.77.55,37,37,0,0,0-12.37-9.89l-1.26-.62a4.73,4.73,0,0,0-4.46.15,1,1,0,0,0-.29,1.55l7,9a25.64,25.64,0,0,1,5.13,11.85l.7,4.49a15.08,15.08,0,0,0,1.89,5.31l2.63,4.48L691.05,471.94h51.31l14.53-123.17,9-9.66,7.21-7.7a31.2,31.2,0,0,1,5.87-4.88l15.66-10.07A1.58,1.58,0,0,0,794.42,313.68Z"/><path class="cls-1" d="M689.78,471.94H769.7a1.45,1.45,0,0,1,1.4,1.82l-10.63,38.83H668.12l15.21-36.48A7.06,7.06,0,0,1,689.78,471.94Z"/><path class="cls-1" d="M370.06,304.55a3.51,3.51,0,0,1,2.17-.16l4.68,2.05,7.93,3.48c1.46.62,2.94,1.3,4.49,1.93l4.7,1.84c1.57.62,3.17,1.2,4.64,1.91a24.56,24.56,0,0,1,4.12,2.5,25.91,25.91,0,0,1,3.38,3c.51.5.95,1.05,1.4,1.55s.83,1,1.18,1.56c.17.26.35.51.52.76l.46.74c.32.48.56,1,.81,1.42s.44.88.63,1.28.35.77.49,1.11c.3.68.48,1.23.61,1.6s.19.58.19.58l.07,0s-.06-.2-.16-.59-.24-.94-.49-1.65a19.92,19.92,0,0,0-1-2.49c-.23-.46-.46-1-.75-1.47-.14-.26-.29-.52-.44-.78l-.51-.79c-.34-.55-.76-1.07-1.16-1.63s-.88-1.1-1.39-1.63a24.06,24.06,0,0,0-3.46-3.06,25.16,25.16,0,0,0-4.26-2.49c-1.54-.7-3.14-1.24-4.72-1.84l-4.72-1.76-.62-.25c.56-.18,1-.88.13-1.84l-.09-.1a45.06,45.06,0,0,0-6.8-5.76l-10.49-7.25a2.06,2.06,0,0,1,.22-3.52,4,4,0,0,1,3.76,0l9.22,5c.29.15.57.32.84.49l8,5.14a.16.16,0,0,0,.21-.25l-15-17.1a2.05,2.05,0,0,1,1.55-3.41,7.92,7.92,0,0,1,5.42,2.14l14.89,14a.37.37,0,0,0,.61-.37l-1.58-5.76a35,35,0,0,0-2.34-6.19l-3-6.22a2.06,2.06,0,0,1,1.85-3,4.42,4.42,0,0,1,3.89,2.33L407,292.41l8.08,16.69a2.53,2.53,0,0,0,4.24.48,32.86,32.86,0,0,1,11-8.79l1.12-.55a4.15,4.15,0,0,1,4,.13.93.93,0,0,1,.27,1.38l-6.24,8a22.8,22.8,0,0,0-4.56,10.53l-.62,4a13.41,13.41,0,0,1-1.68,4.72l-2.34,4L462,445.25H416.34L403.42,335.74l-8-8.58L389,320.32a27.49,27.49,0,0,0-5.21-4.35l-13.93-9A1.4,1.4,0,0,1,370.06,304.55Z"/><path class="cls-1" d="M463.09,445.25H392a1.29,1.29,0,0,0-1.25,1.62L409.6,517h89.78l-30.56-68A6.29,6.29,0,0,0,463.09,445.25Z"/><path class="cls-1" d="M206.39,296.71a3.55,3.55,0,0,1,2.18-.16l4.68,2.05,7.93,3.48c1.46.62,2.94,1.3,4.49,1.93l4.7,1.84c1.57.62,3.16,1.2,4.64,1.91a24.46,24.46,0,0,1,4.11,2.5,25.27,25.27,0,0,1,3.38,3c.52.5.95,1,1.4,1.55s.84,1,1.18,1.56l.53.76.46.74c.31.48.56,1,.81,1.42s.44.88.63,1.28.35.77.49,1.11c.29.68.47,1.23.6,1.6l.2.58.06,0-.15-.59c-.1-.38-.24-.94-.49-1.65a20.15,20.15,0,0,0-1-2.49c-.22-.46-.45-1-.75-1.47-.14-.26-.28-.52-.43-.78l-.52-.79c-.33-.55-.75-1.07-1.16-1.63s-.87-1.1-1.39-1.63a23,23,0,0,0-3.46-3.06,24.68,24.68,0,0,0-4.25-2.49c-1.54-.7-3.14-1.24-4.72-1.84l-4.72-1.76-.62-.25c.56-.18,1-.88.13-1.84l-.09-.1a45.63,45.63,0,0,0-6.81-5.76L208,288.43a2.06,2.06,0,0,1,.22-3.52,4,4,0,0,1,3.76,0l9.22,4.95c.28.15.56.32.83.49l8,5.14a.17.17,0,0,0,.21-.25l-15-17.1a2.05,2.05,0,0,1,1.54-3.41,7.9,7.9,0,0,1,5.42,2.14l14.89,14a.38.38,0,0,0,.62-.37l-1.58-5.76a35.81,35.81,0,0,0-2.34-6.19l-3-6.22a2.06,2.06,0,0,1,1.85-3,4.44,4.44,0,0,1,3.9,2.33l6.89,12.82,8.08,16.69a2.53,2.53,0,0,0,4.24.48,32.86,32.86,0,0,1,11-8.79l1.12-.55a4.15,4.15,0,0,1,4,.13.94.94,0,0,1,.27,1.38l-6.24,8a22.6,22.6,0,0,0-4.56,10.53l-.62,4a13.23,13.23,0,0,1-1.69,4.72l-2.33,4,41.72,112.3H252.68L239.76,327.9l-8-8.58-6.41-6.84a27.55,27.55,0,0,0-5.22-4.35l-13.92-8.95A1.4,1.4,0,0,1,206.39,296.71Z"/><path class="cls-1" d="M299.42,437.41H228.36a1.29,1.29,0,0,0-1.24,1.62l18.81,70.13h89.78l-30.55-68A6.31,6.31,0,0,0,299.42,437.41Z"/><path class="cls-1" d="M686.1,184.87a5.72,5.72,0,0,0-1.67,1.36,46.47,46.47,0,0,0-4.56,6.33c-1.71,2.75-3.6,6-5.53,9.59-1,1.77-1.93,3.64-2.92,5.52s-1.94,3.82-2.89,5.77-1.89,3.89-2.79,5.82-1.77,3.83-2.58,5.69-1.59,3.65-2.29,5.37-1.34,3.35-1.9,4.87a45.41,45.41,0,0,0-2.21,7.48,5.43,5.43,0,0,0,0,2.15,1,1,0,0,0,.41.63c2.36,1.16,10.93-11.48,19.14-28.22s13-31.26,10.58-32.42A1,1,0,0,0,686.1,184.87Z"/><path class="cls-1" d="M679.07,142.16l-56.19,48.9-4.24,74.37,28.55-24.85,9.93,4.87a1.08,1.08,0,0,1-.51-.59,5.61,5.61,0,0,1-.22-2.23,36.88,36.88,0,0,1,1.57-7.77c.45-1.57,1-3.26,1.62-5s1.3-3.62,2.08-5.51,1.57-3.85,2.46-5.8,1.8-3.93,2.75-5.89,2-3.9,3-5.79,2-3.73,3.08-5.5c2.06-3.52,4.14-6.73,6.07-9.38a37.3,37.3,0,0,1,5.19-6,5.23,5.23,0,0,1,1.89-1.18,1.09,1.09,0,0,1,.77,0l-21.58-9.2a2.19,2.19,0,0,0-2.19.28c-3.06,2.36-9.79,8.62-19.6,25.26,7.57-16.85,16.78-29.38,19.14-28.22l14.31,7Z"/><path class="cls-1" d="M617,264.61c.5-12.41,1.11-24.81,1.74-37.21l2-37.19V190l.16-.14,28.18-24.36,14.14-12.12,14.21-12-13.89,12.4-14,12.33-28,24.54.17-.35-2.24,37.18C618.69,239.84,617.89,252.23,617,264.61Z"/><path class="cls-1" d="M656.39,262.83h-.45c-9.94-.14-18.73-4.64-21.86-11.18l1.81-.86c2.76,5.78,11,9.91,20.08,10,6,.08,20.94-1.6,30-19.16l1.77.92C678.4,260.71,663,262.83,656.39,262.83Z"/><path class="cls-1" d="M688.94,242.12a2.1,2.1,0,1,1-2.09-2.09A2.1,2.1,0,0,1,688.94,242.12Z"/><path class="cls-1" d="M686.12,242.12l.73-17.16a16,16,0,0,1,15.32,7.34l-14.72,10.27Z"/><path class="cls-1" d="M428,257a5.47,5.47,0,0,0-1-1.89,44.59,44.59,0,0,0-5.36-5.66c-2.38-2.2-5.25-4.66-8.39-7.23-1.56-1.29-3.22-2.57-4.88-3.89s-3.39-2.63-5.13-3.92-3.46-2.59-5.19-3.83-3.44-2.46-5.11-3.6-3.29-2.24-4.85-3.25-3-2-4.43-2.78a44.92,44.92,0,0,0-6.94-3.57,5.37,5.37,0,0,0-2.1-.45.93.93,0,0,0-.69.29c-1.58,2.1,9.23,12.88,24.15,24.07s28.28,18.56,29.86,16.45A1,1,0,0,0,428,257Z"/><path class="cls-1" d="M471.29,258.12l-37.54-64.34-72.27-18.06,19.07,32.7-6.63,8.84a1,1,0,0,1,.67-.39,5.3,5.3,0,0,1,2.23.2,37,37,0,0,1,7.34,3c1.46.74,3,1.58,4.64,2.53s3.32,2,5,3.07,3.49,2.27,5.24,3.5,3.52,2.51,5.27,3.81,3.46,2.65,5.13,4,3.28,2.72,4.83,4c3.08,2.69,5.84,5.33,8.08,7.72A37.11,37.11,0,0,1,427.3,255a5.14,5.14,0,0,1,.81,2.08,1,1,0,0,1-.18.75L441,238.3a2.17,2.17,0,0,0,.13-2.2c-1.75-3.45-6.64-11.23-21.16-24,15.15,10.59,25.73,22,24.15,24.08L434.57,249Z"/><path class="cls-1" d="M362.59,174.24q18.15,4.22,36.23,8.66L435,191.81l.21.05.1.18L454,224.27l9.27,16.16,9.17,16.2-9.6-16-9.5-16-18.87-32.12.31.24-36.11-9.14C386.61,180.55,374.59,177.45,362.59,174.24Z"/><path class="cls-1" d="M453.91,306.58c-13-15.4-11.4-46-3.51-57l1.63,1.17c-7.54,10.55-9,39.8,3.41,54.55Z"/><path class="cls-1" d="M454.18,308a2.09,2.09,0,1,1,2.6-1.41A2.09,2.09,0,0,1,454.18,308Z"/><path class="cls-1" d="M455,305.28l16.25,5.59a16,16,0,0,1-11.41,12.59l-5.64-17Z"/><path class="cls-1" d="M837.56,142.88a5.49,5.49,0,0,0-1.92,1,44.93,44.93,0,0,0-5.78,5.23c-2.25,2.33-4.78,5.14-7.42,8.22-1.33,1.53-2.65,3.15-4,4.79s-2.7,3.33-4,5-2.67,3.41-3.95,5.11-2.54,3.37-3.72,5-2.32,3.24-3.36,4.77-2,3-2.88,4.37a44.49,44.49,0,0,0-3.73,6.85,5.39,5.39,0,0,0-.5,2.09,1,1,0,0,0,.27.7c2.07,1.63,13.09-8.93,24.63-23.58S840.37,144.61,838.3,143A1,1,0,0,0,837.56,142.88Z"/><path class="cls-1" d="M839.63,99.64l-65.19,36-19.72,71.84,33.12-18.32,8.69,6.84a1,1,0,0,1-.37-.68,5.26,5.26,0,0,1,.25-2.22,36.88,36.88,0,0,1,3.16-7.27c.77-1.45,1.65-3,2.64-4.58s2-3.27,3.18-5,2.35-3.44,3.62-5.16,2.59-3.46,3.93-5.18,2.74-3.4,4.12-5,2.78-3.21,4.16-4.73a110.77,110.77,0,0,1,7.9-7.9,37,37,0,0,1,6.33-4.78,5.5,5.5,0,0,1,2.1-.76,1,1,0,0,1,.75.2l-19.18-13.53a2.2,2.2,0,0,0-2.2-.18c-3.49,1.67-11.38,6.38-24.46,20.6C803.4,135,815,124.66,817.09,126.28l12.52,9.86Z"/><path class="cls-1" d="M753.26,206.37c3.09-12,6.28-24,9.49-36l9.75-35.95.06-.2.18-.1,32.65-17.92,16.37-8.89,16.42-8.79L822,107.72l-16.23,9.13L773.22,135l.24-.3-10,35.88C760.13,182.5,756.75,194.45,753.26,206.37Z"/><path class="cls-1" d="M887.68,118.13c-15.7,12.64-46.22,10.34-57.07,2.2l1.2-1.6c10.37,7.78,39.58,10,54.61-2.15Z"/><path class="cls-1" d="M889.09,117.9a2.09,2.09,0,1,1-1.35-2.63A2.09,2.09,0,0,1,889.09,117.9Z"/><path class="cls-1" d="M886.41,117l6-16.11a16,16,0,0,1,12.33,11.7l-17.16,5.25Z"/><path class="cls-1" d="M504.57,275.58l11.48-5.87,11.23-5.66,3.42-12.11,3.58-12.38q1.8-6.19,3.66-12.37c1.26-4.1,2.49-8.22,3.79-12.32L499.44,241.1l-17.68,46.51c3.77-2.06,7.58-4.05,11.38-6.08S500.75,277.55,504.57,275.58Z"/><path class="cls-1" d="M535.34,239.85,532,252.3l-3.42,12.43-.09.31-.28.14-11.55,5.73-11.58,5.66c-.81.4-1.62.78-2.43,1.17l9.88,8.15c1.62,1.34,10.41-6.65,19.63-17.83s15.38-21.33,13.76-22.67L536,237.24C535.79,238.11,535.57,239,535.34,239.85Z"/><path class="cls-1" d="M533.87,222c-1.64-9.2-9.06-19.15-18.45-24.77-7.92-4.74-16.47-6-24.06-3.5l-.62-1.9c8.15-2.67,17.28-1.36,25.71,3.68,10,6,17.62,16.25,19.39,26.14Z"/><path class="cls-1" d="M489.83,191.71a1.69,1.69,0,1,1,.2,2.39A1.7,1.7,0,0,1,489.83,191.71Z"/><path class="cls-1" d="M491.58,193.18l-9.42,10.26a13,13,0,0,1-5.67-12.55L491,192.21Z"/><path class="cls-1" d="M562.52,154.43,560,171.2l-2.57,16.34,10.32,12.94,10.49,13.33q5.24,6.66,10.4,13.39c3.42,4.51,6.89,9,10.26,13.51l4.42-65.31-36.14-54.58c-.69,5.62-1.49,11.21-2.23,16.82S563.35,148.84,562.52,154.43Z"/><path class="cls-1" d="M577.1,214.71l-10.74-13.13-10.65-13.19-.26-.32.07-.41,2.73-16.74,2.83-16.72c.2-1.17.42-2.33.62-3.5L545.41,155c-2.67.71-.88,16.22,4,34.65s11,32.81,13.66,32.1l16.29-4.31C578.61,216.53,577.85,215.63,577.1,214.71Z"/><path class="cls-1" d="M578.62,265.25c-5.51,0-10.56-4.67-13.79-12.91l1.86-.73c3.26,8.3,8.36,12.58,13.62,11.45C587.11,261.61,594,251,593.07,231l2-.09c.69,14.82-3.51,31.83-14.35,34.14A10.08,10.08,0,0,1,578.62,265.25Z"/><path class="cls-1" d="M567.25,250.27a2.09,2.09,0,1,1-3,.23A2.1,2.1,0,0,1,567.25,250.27Z"/><path class="cls-1" d="M565.41,252.42l-12.56-11.71a16,16,0,0,1,15.54-6.87l-1.77,17.85Z"/><path class="cls-1" d="M314.48,152.39l-4.3,16.4-4.3,16,8.87,14,9,14.36c3,4.8,6,9.61,8.92,14.43s5.89,9.66,8.76,14.53L352.8,177.6l-30.11-58.13c-1.28,5.51-2.68,11-4,16.49S315.91,146.92,314.48,152.39Z"/><path class="cls-1" d="M322.54,213.89l-9.27-14.2-9.18-14.26-.23-.35.11-.4,4.5-16.35L313.08,152c.32-1.14.66-2.28,1-3.41l-16.67,2.54c-2.72.42-2.6,16,.28,34.89s7.43,33.78,10.16,33.37l16.66-2.55Z"/><path class="cls-1" d="M99.65,127.49l11.52,12.45,11.15,12.22,16.55,0,17,.13q8.47.09,17,.25c5.65.15,11.3.23,17,.44l-48.24-44.26-65.19-5.89c4,4,7.82,8.17,11.74,12.25S95.81,123.35,99.65,127.49Z"/><path class="cls-1" d="M155.83,153.78l-17,.17-17,.08h-.41l-.28-.31-11.36-12.59L98.58,128.47l-2.35-2.67-6.81,15.42C88.3,143.74,101.53,152,119,159.75s32.48,11.91,33.59,9.38l6.82-15.42Z"/><path class="cls-1" d="M347.37,282.94,346,281.46c6.37-5.78,9.43-14.74,8.4-24.57-1.12-10.72-6.88-20.33-15-25.1l1-1.73c8.69,5.09,14.82,15.28,16,26.62C357.5,267.16,354.21,276.73,347.37,282.94Z"/><path class="cls-1" d="M350,274.48a2.09,2.09,0,1,1,1.85,2.31A2.1,2.1,0,0,1,350,274.48Z"/><path class="cls-1" d="M352.76,274.8l-2.64,17a16,16,0,0,1-14.41-9l15.78-8.55Z"/></svg>