<svg xmlns="http://www.w3.org/2000/svg" xmlns:xlink="http://www.w3.org/1999/xlink" viewBox="0 0 288 88.27"><defs><style>.cls-1{isolation:isolate;}.cls-2,.cls-3{opacity:0.54;}.cls-2{fill:url(#linear-gradient);}.cls-4{fill:url(#linear-gradient-2);}.cls-5{fill:url(#linear-gradient-3);}.cls-6{fill:url(#linear-gradient-4);}.cls-7{fill:url(#linear-gradient-5);}.cls-8{fill:url(#linear-gradient-6);}.cls-9{fill:url(#linear-gradient-7);}.cls-10{fill:url(#linear-gradient-8);}.cls-11{fill:url(#linear-gradient-9);}.cls-12{fill:url(#linear-gradient-10);}.cls-13{fill:url(#linear-gradient-11);}.cls-14{fill:url(#linear-gradient-12);}.cls-15{fill:url(#linear-gradient-13);}.cls-16{fill:url(#linear-gradient-14);}.cls-17{fill:url(#linear-gradient-15);}.cls-18{fill:url(#linear-gradient-16);}.cls-19{fill:url(#linear-gradient-17);}.cls-20{fill:url(#linear-gradient-18);}.cls-21{fill:url(#linear-gradient-19);}.cls-22{fill:url(#linear-gradient-20);}.cls-23{fill:url(#linear-gradient-21);}.cls-24{fill:url(#linear-gradient-22);}.cls-25{fill:url(#linear-gradient-23);}.cls-26{fill:url(#linear-gradient-24);}.cls-27{fill:url(#linear-gradient-25);}.cls-28{fill:url(#linear-gradient-26);}.cls-29{fill:url(#linear-gradient-27);}.cls-30{fill:url(#linear-gradient-28);}.cls-31{fill:url(#linear-gradient-29);}.cls-32{fill:url(#linear-gradient-30);}.cls-33{fill:url(#linear-gradient-31);}.cls-34{fill:url(#linear-gradient-32);}.cls-35{fill:url(#linear-gradient-33);}.cls-36{fill:url(#linear-gradient-34);}.cls-37{fill:url(#linear-gradient-35);}.cls-38{fill:url(#linear-gradient-36);}.cls-39{fill:url(#linear-gradient-37);}.cls-40{fill:url(#linear-gradient-38);}.cls-41{fill:url(#linear-gradient-39);}.cls-42{fill:url(#linear-gradient-40);}.cls-43{fill:url(#linear-gradient-41);}.cls-44{fill:url(#linear-gradient-42);}.cls-45{fill:url(#linear-gradient-43);}.cls-46{fill:url(#linear-gradient-44);}.cls-47{fill:url(#linear-gradient-45);}.cls-48{fill:url(#linear-gradient-46);}.cls-49{fill:url(#linear-gradient-47);}.cls-50{fill:url(#linear-gradient-48);}.cls-51{fill:url(#linear-gradient-49);}.cls-52{fill:url(#linear-gradient-50);}.cls-53{fill:url(#linear-gradient-51);}.cls-54{fill:url(#linear-gradient-52);}.cls-55{fill:url(#linear-gradient-53);}.cls-56{fill:url(#linear-gradient-54);}.cls-57{fill:url(#linear-gradient-55);}.cls-58{fill:url(#linear-gradient-56);}.cls-59{fill:url(#linear-gradient-57);}.cls-60{fill:url(#linear-gradient-58);}.cls-61{mix-blend-mode:multiply;fill:url(#Névtelen_színátmenet_59);}</style><linearGradient id="linear-gradient" y1="144" x2="288" y2="144" gradientTransform="matrix(1, 0, 0, -1, -0.14, 287.86)" gradientUnits="userSpaceOnUse"><stop offset="0" stop-color="#f4f4f4"/><stop offset="1" stop-color="#f6f6f6"/></linearGradient><linearGradient id="linear-gradient-2" x1="-930.84" y1="1201.45" x2="-929.17" y2="1199.77" gradientTransform="translate(33741.59 -16728.05) rotate(0.06) scale(36 14)" gradientUnits="userSpaceOnUse"><stop offset="0" stop-color="#b3b3b3"/><stop offset="1" stop-color="#7d7d7d"/></linearGradient><linearGradient id="linear-gradient-3" x1="-927.88" y1="1204.27" x2="-926.21" y2="1202.6" gradientTransform="translate(20668 -19192.88) rotate(0.06) scale(22 16)" gradientUnits="userSpaceOnUse"><stop offset="0" stop-color="#868686"/><stop offset="1" stop-color="#909090"/></linearGradient><linearGradient id="linear-gradient-4" x1="-924.24" y1="1210.87" x2="-922.57" y2="1209.2" gradientTransform="matrix(11, 0.01, -0.02, 23, 10337.4, -27763.03)" gradientUnits="userSpaceOnUse"><stop offset="0" stop-color="#e5e5e5"/><stop offset="1" stop-color="#c8c8c8"/></linearGradient><linearGradient id="linear-gradient-5" x1="-919.29" y1="1206.46" x2="-917.62" y2="1204.79" gradientTransform="translate(7533.41 -21661.77) rotate(0.06) scale(8 18)" gradientUnits="userSpaceOnUse"><stop offset="0" stop-color="#a7a7a7"/><stop offset="1" stop-color="#a8a8a8"/></linearGradient><linearGradient id="linear-gradient-6" x1="-932.1" y1="1191.43" x2="-930.42" y2="1189.76" gradientTransform="translate(24292.78 -11839.31) rotate(0.06) scale(26 10)" gradientUnits="userSpaceOnUse"><stop offset="0" stop-color="#dedede"/><stop offset="1" stop-color="#e3e3e3"/></linearGradient><linearGradient id="linear-gradient-7" x1="-931.02" y1="1215.49" x2="-929.36" y2="1213.83" gradientTransform="translate(29035.86 -42483.69) rotate(0.06) scale(31 35)" gradientUnits="userSpaceOnUse"><stop offset="0" stop-color="#9e9e9e"/><stop offset="1" stop-color="#b6b6b6"/></linearGradient><linearGradient id="linear-gradient-8" x1="-931.3" y1="1198.36" x2="-929.62" y2="1196.68" gradientTransform="translate(29009.41 -15533.69) rotate(0.06) scale(31 13)" gradientUnits="userSpaceOnUse"><stop offset="0" stop-color="#a3a3a3"/><stop offset="1" stop-color="#a7a7a7"/></linearGradient><linearGradient id="linear-gradient-9" x1="-933.05" y1="1216.93" x2="-931.39" y2="1215.27" gradientTransform="matrix(35, 0.03, -0.04, 41, 32710.05, -49816.11)" gradientUnits="userSpaceOnUse"><stop offset="0" stop-color="#949494"/><stop offset="1" stop-color="#bfbfbf"/></linearGradient><linearGradient id="linear-gradient-10" x1="-933.07" y1="1211.52" x2="-931.39" y2="1209.85" gradientTransform="matrix(26, 0.03, -0.02, 24, 24258.6, -28976.37)" gradientUnits="userSpaceOnUse"><stop offset="0" stop-color="#bababa"/><stop offset="1" stop-color="#929292"/></linearGradient><linearGradient id="linear-gradient-11" x1="-933.22" y1="1208.08" x2="-931.54" y2="1206.4" gradientTransform="translate(32684.81 -24091.09) rotate(0.06) scale(35 20)" gradientUnits="userSpaceOnUse"><stop offset="0" stop-color="#929292"/><stop offset="1" stop-color="#afafaf"/></linearGradient><linearGradient id="linear-gradient-12" x1="-931.32" y1="1213.54" x2="-929.66" y2="1211.88" gradientTransform="matrix(28, 0.03, -0.03, 28, 26210.41, -33872.46)" gradientUnits="userSpaceOnUse"><stop offset="0" stop-color="#d0d0d0"/><stop offset="1" stop-color="#cbcbcb"/></linearGradient><linearGradient id="linear-gradient-13" x1="-930.15" y1="1193.59" x2="-928.48" y2="1191.92" gradientTransform="translate(20601 -13080.94) rotate(0.06) scale(22 11)" gradientUnits="userSpaceOnUse"><stop offset="0" stop-color="#b3b3b3"/><stop offset="1" stop-color="#b4b4b4"/></linearGradient><linearGradient id="linear-gradient-14" x1="-925.55" y1="1213.25" x2="-923.88" y2="1211.57" gradientTransform="matrix(12, 0.01, -0.03, 28, 11273.41, -33887.11)" gradientUnits="userSpaceOnUse"><stop offset="0" stop-color="#e0e0e0"/><stop offset="1" stop-color="#c4c4c4"/></linearGradient><linearGradient id="linear-gradient-15" x1="-929.06" y1="1204" x2="-927.39" y2="1202.33" gradientTransform="translate(18739 -19202.77) rotate(0.06) scale(20 16)" gradientUnits="userSpaceOnUse"><stop offset="0" stop-color="#a1a1a1"/><stop offset="1" stop-color="#a5a5a5"/></linearGradient><linearGradient id="linear-gradient-16" x1="-931.4" y1="1206.28" x2="-929.73" y2="1204.61" gradientTransform="matrix(35, 0.03, -0.02, 18, 32782.4, -21636.99)" gradientUnits="userSpaceOnUse"><stop offset="0" stop-color="#aeaeae"/><stop offset="1" stop-color="#a8a8a8"/></linearGradient><linearGradient id="linear-gradient-17" x1="-931.33" y1="1194.93" x2="-929.66" y2="1193.27" gradientTransform="translate(32773.98 -13053.99) rotate(0.06) scale(35 11)" gradientUnits="userSpaceOnUse"><stop offset="0" stop-color="#b6b6b6"/><stop offset="1" stop-color="#bbb"/></linearGradient><linearGradient id="linear-gradient-18" x1="-924.71" y1="1201.2" x2="-923.04" y2="1199.53" gradientTransform="matrix(14, 0.01, -0.01, 14, 13171.59, -16748.23)" gradientUnits="userSpaceOnUse"><stop offset="0" stop-color="silver"/><stop offset="1" stop-color="#959595"/></linearGradient><linearGradient id="linear-gradient-19" x1="-921.23" y1="1176.75" x2="-919.56" y2="1175.08" gradientTransform="matrix(11, 0.01, -0.01, 7, 10364.18, -8186.98)" gradientUnits="userSpaceOnUse"><stop offset="0" stop-color="#6a6a6a"/><stop offset="1" stop-color="#8c8c8c"/></linearGradient><linearGradient id="linear-gradient-20" x1="-932.33" y1="1177.11" x2="-930.65" y2="1175.43" gradientTransform="matrix(25, 0.02, -0.01, 7, 23329.18, -8169.26)" gradientUnits="userSpaceOnUse"><stop offset="0" stop-color="#ccc"/><stop offset="1" stop-color="#dadada"/></linearGradient><linearGradient id="linear-gradient-21" x1="-927.89" y1="1216.14" x2="-926.22" y2="1214.47" gradientTransform="matrix(11, 0.01, -0.04, 36, 10294.01, -43671.1)" gradientUnits="userSpaceOnUse"><stop offset="0" stop-color="#f2f2f2"/><stop offset="1" stop-color="#ececec"/></linearGradient><linearGradient id="linear-gradient-22" x1="-923.04" y1="1191.81" x2="-921.36" y2="1190.13" gradientTransform="translate(6526.78 -11856.75) rotate(0.06) scale(7 10)" gradientUnits="userSpaceOnUse"><stop offset="0" stop-color="#dfdfdf"/><stop offset="1" stop-color="#e7e7e7"/></linearGradient><linearGradient id="linear-gradient-23" x1="-933.71" y1="1211.38" x2="-932.05" y2="1209.71" gradientTransform="matrix(40, 0.04, -0.02, 24, 37358.6, -28963.51)" gradientUnits="userSpaceOnUse"><stop offset="0" stop-color="#9c9c9c"/><stop offset="1" stop-color="#d5d5d5"/></linearGradient><linearGradient id="linear-gradient-24" x1="-933.38" y1="1216.56" x2="-931.71" y2="1214.89" gradientTransform="matrix(40, 0.04, -0.04, 36, 37373, -43644.52)" gradientUnits="userSpaceOnUse"><stop offset="0" stop-color="#f1f1f1"/><stop offset="1" stop-color="#f4f4f4"/></linearGradient><linearGradient id="linear-gradient-25" x1="-933.22" y1="1216.84" x2="-931.55" y2="1215.17" gradientTransform="matrix(41, 0.04, -0.04, 41, 38332.05, -49810.59)" gradientUnits="userSpaceOnUse"><stop offset="0" stop-color="#828282"/><stop offset="1" stop-color="#bababa"/></linearGradient><linearGradient id="linear-gradient-26" x1="-931.48" y1="1211.75" x2="-929.81" y2="1210.08" gradientTransform="translate(24310.82 -30223.32) rotate(0.06) scale(26 25)" gradientUnits="userSpaceOnUse"><stop offset="0" stop-color="#ccc"/><stop offset="1" stop-color="#c6c6c6"/></linearGradient><linearGradient id="linear-gradient-27" x1="-929.16" y1="1213.59" x2="-927.5" y2="1211.93" gradientTransform="translate(27260.05 -37584.43) rotate(0.06) scale(29 31)" gradientUnits="userSpaceOnUse"><stop offset="0" stop-color="#969696"/><stop offset="1" stop-color="#6a6a6a"/></linearGradient><linearGradient id="linear-gradient-28" x1="-932.4" y1="1218.24" x2="-930.73" y2="1216.57" gradientTransform="translate(54389.59 -59558.87) rotate(0.06) scale(58 49)" xlink:href="#linear-gradient-27"/><linearGradient id="linear-gradient-29" x1="-928.96" y1="1210.68" x2="-927.29" y2="1209.01" gradientTransform="matrix(26, 0.03, -0.02, 24, 24420.63, -29005.21)" gradientUnits="userSpaceOnUse"><stop offset="0" stop-color="#707070"/><stop offset="1" stop-color="#373737"/></linearGradient><linearGradient id="linear-gradient-30" x1="-928.88" y1="1213.19" x2="-927.21" y2="1211.52" gradientTransform="matrix(26, 0.03, -0.03, 28, 24425.42, -33889.21)" xlink:href="#linear-gradient-27"/><linearGradient id="linear-gradient-31" x1="-926.42" y1="1196.24" x2="-924.74" y2="1194.56" gradientTransform="matrix(20, 0.02, -0.01, 12, 18802.21, -14322.7)" xlink:href="#linear-gradient-27"/><linearGradient id="linear-gradient-32" x1="-929.43" y1="1212.83" x2="-927.76" y2="1211.16" gradientTransform="matrix(29, 0.03, -0.03, 28, 27249.42, -33886.44)" xlink:href="#linear-gradient-27"/><linearGradient id="linear-gradient-33" x1="-927.58" y1="1189.68" x2="-925.9" y2="1188" gradientTransform="translate(20689.81 -11865.85) rotate(0.06) scale(22 10)" xlink:href="#linear-gradient-27"/><linearGradient id="linear-gradient-34" x1="-933.5" y1="1215.27" x2="-931.84" y2="1213.6" gradientTransform="translate(49559.18 -38732.55) rotate(0.06) scale(53 32)" gradientUnits="userSpaceOnUse"><stop offset="0" stop-color="#efefef"/><stop offset="1" stop-color="#e6e6e6"/></linearGradient><linearGradient id="linear-gradient-35" x1="-932.79" y1="1215.53" x2="-931.12" y2="1213.86" gradientTransform="translate(39286.4 -39975.63) rotate(0.06) scale(42 33)" gradientUnits="userSpaceOnUse"><stop offset="0" stop-color="#eaeaea"/><stop offset="1" stop-color="#dcdcdc"/></linearGradient><linearGradient id="linear-gradient-36" x1="-931.48" y1="1215.33" x2="-929.81" y2="1213.66" gradientTransform="translate(26216.41 -39988.46) rotate(0.06) scale(28 33)" gradientUnits="userSpaceOnUse"><stop offset="0" stop-color="#ddd"/><stop offset="1" stop-color="#ddd"/></linearGradient><linearGradient id="linear-gradient-37" x1="-929.55" y1="1211.27" x2="-927.88" y2="1209.6" gradientTransform="matrix(17, 0.02, -0.02, 25, 15913.82, -30231.56)" gradientUnits="userSpaceOnUse"><stop offset="0" stop-color="#bfbfbf"/><stop offset="1" stop-color="#bfbfbf"/></linearGradient><linearGradient id="linear-gradient-38" x1="-929.97" y1="1186.18" x2="-928.31" y2="1184.51" gradientTransform="matrix(20, 0.02, -0.01, 9, 18699.61, -10647.8)" gradientUnits="userSpaceOnUse"><stop offset="0" stop-color="#afafaf"/><stop offset="1" stop-color="#a9a9a9"/></linearGradient><linearGradient id="linear-gradient-39" x1="-930.53" y1="1207.25" x2="-928.86" y2="1205.58" gradientTransform="matrix(23, 0.02, -0.02, 19, 21524.61, -22876.04)" gradientUnits="userSpaceOnUse"><stop offset="0" stop-color="#c1c1c1"/><stop offset="1" stop-color="#adadad"/></linearGradient><linearGradient id="linear-gradient-40" x1="-925.88" y1="1198.36" x2="-924.21" y2="1196.7" gradientTransform="matrix(12, 0.01, -0.01, 13, 11241.41, -15551.13)" gradientUnits="userSpaceOnUse"><stop offset="0" stop-color="#bcbcbc"/><stop offset="1" stop-color="#b2b2b2"/></linearGradient><linearGradient id="linear-gradient-41" x1="-927.36" y1="1202.25" x2="-925.68" y2="1200.57" gradientTransform="translate(13113.81 -17988.29) rotate(0.06) scale(14 15)" gradientUnits="userSpaceOnUse"><stop offset="0" stop-color="#aaa"/><stop offset="1" stop-color="#aaa"/></linearGradient><linearGradient id="linear-gradient-42" x1="-933.02" y1="1204.27" x2="-931.35" y2="1202.6" gradientTransform="translate(24249 -19189.36) rotate(0.06) scale(26 16)" gradientUnits="userSpaceOnUse"><stop offset="0" stop-color="#b3b3b3"/><stop offset="1" stop-color="#a8a8a8"/></linearGradient><linearGradient id="linear-gradient-43" x1="-930.6" y1="1207.36" x2="-928.92" y2="1205.68" gradientTransform="translate(13044.61 -22886.36) rotate(0.06) scale(14 19)" gradientUnits="userSpaceOnUse"><stop offset="0" stop-color="#b1b1b1"/><stop offset="1" stop-color="#b2b2b2"/></linearGradient><linearGradient id="linear-gradient-44" x1="-932.31" y1="1215.36" x2="-930.64" y2="1213.69" gradientTransform="translate(43999.85 -42469.01) rotate(0.06) scale(47 35)" gradientUnits="userSpaceOnUse"><stop offset="0" stop-color="#777"/><stop offset="1" stop-color="#8d8d8d"/></linearGradient><linearGradient id="linear-gradient-45" x1="-930.56" y1="1216.57" x2="-928.9" y2="1214.91" gradientTransform="translate(29071.65 -47368.67) rotate(0.06) scale(31 39)" gradientUnits="userSpaceOnUse"><stop offset="0" stop-color="#969696"/><stop offset="1" stop-color="#8c8c8c"/></linearGradient><linearGradient id="linear-gradient-46" x1="-928.34" y1="1216.49" x2="-926.67" y2="1214.82" gradientTransform="translate(20676.65 -47376.91) rotate(0.06) scale(22 39)" gradientUnits="userSpaceOnUse"><stop offset="0" stop-color="#8a8a8a"/><stop offset="1" stop-color="#7e7e7e"/></linearGradient><linearGradient id="linear-gradient-47" x1="-929.63" y1="1214.55" x2="-927.96" y2="1212.87" gradientTransform="translate(26278.24 -38803.4) rotate(0.06) scale(28 32)" gradientUnits="userSpaceOnUse"><stop offset="0" stop-color="#919191"/><stop offset="1" stop-color="#747474"/></linearGradient><linearGradient id="linear-gradient-48" x1="-926.56" y1="1196.56" x2="-924.89" y2="1194.88" gradientTransform="translate(13121.96 -13049.28) rotate(0.06) scale(14 11)" gradientUnits="userSpaceOnUse"><stop offset="0" stop-color="#dbdbdb"/><stop offset="1" stop-color="#ddd"/></linearGradient><linearGradient id="linear-gradient-49" x1="-923.96" y1="1215.32" x2="-922.29" y2="1213.65" gradientTransform="translate(10348.2 -38777.03) rotate(0.06) scale(11 32)" gradientUnits="userSpaceOnUse"><stop offset="0" stop-color="#d4d4d4"/><stop offset="1" stop-color="#c9c9c9"/></linearGradient><linearGradient id="linear-gradient-50" x1="-931.37" y1="1214.88" x2="-929.7" y2="1213.21" gradientTransform="translate(29991.2 -38757.75) rotate(0.06) scale(32)" gradientUnits="userSpaceOnUse"><stop offset="0" stop-color="#d2d2d2"/><stop offset="1" stop-color="#dedede"/></linearGradient><linearGradient id="linear-gradient-51" x1="-931.23" y1="1219.5" x2="-929.57" y2="1217.83" gradientTransform="translate(32820.22 -63227.04) rotate(0.06) scale(35 52)" gradientUnits="userSpaceOnUse"><stop offset="0" stop-color="#d2d2d2"/><stop offset="1" stop-color="#dcdcdc"/></linearGradient><linearGradient id="linear-gradient-52" x1="-933.05" y1="1215.99" x2="-931.39" y2="1214.32" gradientTransform="translate(28954.39 -39963.77) rotate(0.06) scale(31 33)" gradientUnits="userSpaceOnUse"><stop offset="0" stop-color="#f7f7f7"/><stop offset="1" stop-color="#fafafa"/></linearGradient><linearGradient id="linear-gradient-53" x1="-933.33" y1="1213.79" x2="-931.66" y2="1212.12" gradientTransform="translate(33622.18 -32615.18) rotate(0.06) scale(36 27)" gradientUnits="userSpaceOnUse"><stop offset="0" stop-color="#f3f3f3"/><stop offset="1" stop-color="#fcfcfc"/></linearGradient><linearGradient id="linear-gradient-54" x1="-929.86" y1="1219.23" x2="-928.2" y2="1217.56" gradientTransform="translate(26307.22 -63233.43) rotate(0.06) scale(28 52)" gradientUnits="userSpaceOnUse"><stop offset="0" stop-color="#dfdfdf"/><stop offset="1" stop-color="#e8e8e8"/></linearGradient><linearGradient id="linear-gradient-55" x1="-931.02" y1="1218.05" x2="-929.35" y2="1216.38" gradientTransform="translate(33777.61 -53436.09) rotate(0.06) scale(36 44)" gradientUnits="userSpaceOnUse"><stop offset="0" stop-color="#dfdfdf"/><stop offset="1" stop-color="#c6c6c6"/></linearGradient><linearGradient id="linear-gradient-56" x1="-928.68" y1="1218.74" x2="-927" y2="1217.07" gradientTransform="matrix(26, 0.03, -0.05, 48, 24460.42, -58341.24)" gradientUnits="userSpaceOnUse"><stop offset="0" stop-color="#a6a6a6"/><stop offset="1" stop-color="#ddd"/></linearGradient><linearGradient id="linear-gradient-57" x1="-931.35" y1="1218.26" x2="-929.67" y2="1216.58" gradientTransform="matrix(41, 0.04, -0.05, 48, 38493.41, -58327.47)" gradientUnits="userSpaceOnUse"><stop offset="0" stop-color="#ababab"/><stop offset="1" stop-color="#bfbfbf"/></linearGradient><linearGradient id="linear-gradient-58" x1="-932.73" y1="1217.1" x2="-931.05" y2="1215.42" gradientTransform="translate(54381.16 -50967.84) rotate(0.06) scale(58 42)" xlink:href="#linear-gradient-27"/><linearGradient id="Névtelen_színátmenet_59" x1="45.64" y1="314.27" x2="242.29" y2="-26.35" gradientUnits="userSpaceOnUse"><stop offset="0.04" stop-color="#7b3a7d"/><stop offset="0.24" stop-color="#793a7e"/><stop offset="0.35" stop-color="#713c80"/><stop offset="0.44" stop-color="#633f84"/><stop offset="0.51" stop-color="#50428a"/><stop offset="0.58" stop-color="#364791"/><stop offset="0.64" stop-color="#184d9a"/><stop offset="0.68" stop-color="#0052a1"/><stop offset="0.73" stop-color="#0455a2"/><stop offset="0.77" stop-color="#0f5ca7"/><stop offset="0.81" stop-color="#2269ad"/><stop offset="0.84" stop-color="#3c7bb7"/><stop offset="0.88" stop-color="#5f92c4"/><stop offset="0.92" stop-color="#89afd3"/><stop offset="0.96" stop-color="#bbd1e6"/><stop offset="0.99" stop-color="#f3f7fa"/><stop offset="1" stop-color="#fff"/></linearGradient></defs><title>indulo-bg</title><g class="cls-1"><g id="Design"><rect id="_Görbe_" data-name="&lt;Görbe&gt;" class="cls-2" width="288" height="288"/><g class="cls-3"><polygon id="triangle36" class="cls-4" points="211.27 57.97 234.55 34.49 271.09 54.67 211.27 57.97"/><polygon id="triangle36-2" data-name="triangle36" class="cls-5" points="234.55 34.49 239.54 27.78 271.09 54.67 234.55 34.49"/><polygon id="triangle36-3" data-name="triangle36" class="cls-6" points="144.78 79.73 163.09 44.49 156.45 41.13 144.78 79.73"/><polygon id="triangle36-4" data-name="triangle36" class="cls-7" points="163.09 44.49 169.77 14.28 156.45 41.13 163.09 44.49"/><polygon id="triangle36-5" data-name="triangle36" class="cls-8" points="55.1 37.67 65.05 54.47 98.3 39.4 55.1 37.67"/><polygon class="cls-9" points="158.9 0.01 169.77 14.28 136.14 -0.01 158.9 0.01"/><polygon class="cls-10" points="136.14 -0.01 169.77 14.28 133.22 14.24 123.46 -0.02 136.14 -0.01"/><polygon class="cls-11" points="34.17 -0.11 55.1 37.67 0.14 5.87 0.14 -0.14 34.17 -0.11"/><polygon class="cls-12" points="0.09 56.33 0.1 41.69 13.56 35.95 0.09 56.33"/><polygon class="cls-13" points="0.14 5.87 55.1 37.67 13.56 35.95 0.13 10.11 0.14 5.87"/><polygon id="triangle36-6" data-name="triangle36" class="cls-14" points="98.3 39.4 144.78 79.73 136.52 32.72 98.3 39.4"/><polygon id="triangle36-7" data-name="triangle36" class="cls-15" points="133.22 14.24 169.77 14.28 136.52 32.72 133.22 14.24"/><polygon id="triangle36-8" data-name="triangle36" class="cls-16" points="144.78 79.73 156.45 41.13 136.52 32.72 144.78 79.73"/><polygon id="triangle36-9" data-name="triangle36" class="cls-17" points="156.45 41.13 169.77 14.28 136.52 32.72 156.45 41.13"/><polygon id="triangle36-10" data-name="triangle36" class="cls-18" points="163.09 44.49 169.77 14.28 221.25 39.52 163.09 44.49"/><polygon id="triangle36-11" data-name="triangle36" class="cls-19" points="163.09 44.49 211.27 57.97 221.25 39.52 163.09 44.49"/><polygon id="triangle36-12" data-name="triangle36" class="cls-20" points="211.27 57.97 234.55 34.49 221.25 39.52 211.27 57.97"/><polygon id="triangle36-13" data-name="triangle36" class="cls-21" points="234.55 34.49 239.54 27.78 221.25 39.52 234.55 34.49"/><polygon id="triangle36-14" data-name="triangle36" class="cls-22" points="13.56 35.95 55.1 37.67 53.43 47.74 13.56 35.95"/><polygon id="triangle36-15" data-name="triangle36" class="cls-23" points="46.72 108.18 65.05 54.47 53.43 47.74 46.72 108.18"/><polygon id="triangle36-16" data-name="triangle36" class="cls-24" points="55.1 37.67 65.05 54.47 53.43 47.74 55.1 37.67"/><polygon class="cls-25" points="0.07 70.59 0.09 56.33 13.56 35.95 53.43 47.74 0.07 70.59"/><polygon class="cls-26" points="0.07 70.59 53.43 47.74 46.72 108.18 0.06 83.24 0.07 70.59"/><polygon class="cls-27" points="83.16 -0.06 55.1 37.67 34.17 -0.11 83.16 -0.06"/><polygon class="cls-28" points="85.85 -0.06 98.3 39.4 55.1 37.67 83.16 -0.06 85.85 -0.06"/><polygon class="cls-29" points="288.14 0.14 288.14 1.75 284.63 0.14 288.14 0.14"/><polygon class="cls-30" points="288.08 62.39 271.09 54.67 288.1 41.07 288.08 62.39"/><polygon class="cls-31" points="270.34 0.12 282.76 7.67 239.54 27.78 246.42 0.1 270.34 0.12"/><polygon id="triangle36-17" data-name="triangle36" class="cls-32" points="239.54 27.78 271.09 54.67 282.76 7.67 239.54 27.78"/><polygon class="cls-33" points="282.77 0.14 282.76 7.67 270.34 0.12 282.77 0.14"/><polygon class="cls-34" points="288.1 41.07 271.09 54.67 282.76 7.67 288.13 8.91 288.1 41.07"/><polygon class="cls-35" points="284.63 0.14 288.14 1.75 288.13 8.91 282.76 7.67 282.77 0.14 284.63 0.14"/><polygon id="triangle36-18" data-name="triangle36" class="cls-36" points="46.72 108.18 65.05 54.47 134.8 94.83 46.72 108.18"/><polygon id="triangle36-19" data-name="triangle36" class="cls-37" points="65.05 54.47 98.3 39.4 134.8 94.83 65.05 54.47"/><polygon id="triangle36-20" data-name="triangle36" class="cls-38" points="98.3 39.4 144.78 79.73 134.8 94.83 98.3 39.4"/><polygon class="cls-39" points="92.15 -0.05 113.28 7.51 98.3 39.4 85.85 -0.06 92.15 -0.05"/><polygon class="cls-40" points="115.78 -0.03 113.28 7.51 92.15 -0.05 115.78 -0.03"/><polygon id="triangle36-21" data-name="triangle36" class="cls-41" points="98.3 39.4 136.52 32.72 113.28 7.51 98.3 39.4"/><polygon class="cls-42" points="123.46 -0.02 133.22 14.24 113.28 7.51 115.78 -0.03 123.46 -0.02"/><polygon id="triangle36-22" data-name="triangle36" class="cls-43" points="133.22 14.24 136.52 32.72 113.28 7.51 133.22 14.24"/><polygon class="cls-44" points="0.1 41.69 0.11 31.09 13.56 35.95 0.1 41.69"/><polygon class="cls-45" points="0.11 31.09 0.13 10.11 13.56 35.95 0.11 31.09"/><polygon class="cls-46" points="181.54 0.04 169.77 14.28 158.9 0.01 181.54 0.04"/><polygon class="cls-47" points="210.28 0.07 221.25 39.52 169.77 14.28 181.54 0.04 210.28 0.07"/><polygon class="cls-48" points="220.73 0.07 239.54 27.78 221.25 39.52 210.28 0.07 220.73 0.07"/><polygon class="cls-49" points="246.42 0.1 239.54 27.78 220.73 0.07 246.42 0.1"/><polygon id="triangle36-23" data-name="triangle36" class="cls-50" points="134.8 94.83 144.78 79.73 158.06 98.22 134.8 94.83"/><polygon id="triangle36-24" data-name="triangle36" class="cls-51" points="144.78 79.73 163.09 44.49 158.06 98.22 144.78 79.73"/><polygon id="triangle36-25" data-name="triangle36" class="cls-52" points="163.09 44.49 211.27 57.97 158.06 98.22 163.09 44.49"/><polygon id="triangle36-26" data-name="triangle36" class="cls-53" points="211.27 57.97 216.17 145.28 158.06 98.22 211.27 57.97"/><polygon class="cls-54" points="0.06 87.79 38.4 121.6 21.77 131.66 0.05 97.09 0.06 87.79"/><polygon class="cls-55" points="0.06 83.24 46.72 108.18 38.4 121.6 0.06 87.79 0.06 83.24"/><polygon id="triangle36-27" data-name="triangle36" class="cls-56" points="211.27 57.97 216.17 145.28 257.72 128.53 211.27 57.97"/><polygon id="triangle36-28" data-name="triangle36" class="cls-57" points="211.27 57.97 271.09 54.67 257.72 128.53 211.27 57.97"/><polygon class="cls-58" points="288.01 133.27 257.72 128.53 271.09 54.67 288.04 100.5 288.01 133.27"/><polygon class="cls-59" points="288.04 100.5 271.09 54.67 288.07 72.29 288.04 100.5"/><polygon class="cls-60" points="288.07 72.29 271.09 54.67 288.08 62.39 288.07 72.29"/></g><rect id="_Görbe_2" data-name="&lt;Görbe&gt;" class="cls-61" x="-0.03" y="-0.04" width="288" height="288"/></g></g></svg>