<svg xmlns="http://www.w3.org/2000/svg" viewBox="0 0 2025.5 1200"><defs><style>.cls-1{isolation:isolate;}.cls-2{fill:#1888b0;}.cls-3{fill:#9fc6d4;}.cls-4{fill:#fcddb8;}.cls-5{fill:#f2f2f2;}.cls-6{fill:#ffd552;}.cls-7{fill:#bfa03e;}.cls-8{fill:#e0e0e0;}.cls-9{mix-blend-mode:multiply;}.cls-10{fill:#999;}.cls-11{fill:#00a99d;}.cls-12{fill:#f7f7f7;}.cls-13{fill:#cfe3ea;}</style></defs><title>tudastar</title><g class="cls-1"><g id="Layer_1" data-name="Layer 1"><circle class="cls-2" cx="599.16" cy="527.07" r="228.63" transform="translate(-197.2 578.05) rotate(-45)"/><path class="cls-3" d="M599.32,827.9h-.16c-6,0-12-.18-18-.53a1.5,1.5,0,0,1,.17-3c5.9.35,11.89.53,17.82.53h.16a1.5,1.5,0,0,1,0,3Zm18.07-.55a1.5,1.5,0,0,1-.09-3c6-.36,12-.9,17.91-1.61a1.5,1.5,0,1,1,.36,3c-6,.73-12.06,1.27-18.09,1.64Zm-54.14-1.59h-.18c-6-.71-12-1.62-18-2.7a1.49,1.49,0,0,1-1.21-1.74,1.51,1.51,0,0,1,1.74-1.21c5.88,1.07,11.87,2,17.79,2.67a1.5,1.5,0,0,1-.18,3Zm90-2.74a1.5,1.5,0,0,1-.26-3c5.88-1.07,11.8-2.34,17.58-3.76a1.5,1.5,0,0,1,.72,2.91c-5.84,1.44-11.82,2.72-17.77,3.8ZM527.7,819.31a1.47,1.47,0,0,1-.36,0c-5.86-1.44-11.75-3.07-17.5-4.86a1.5,1.5,0,1,1,.89-2.86c5.7,1.77,11.53,3.38,17.33,4.8a1.5,1.5,0,0,1-.36,3Zm160.65-4.93a1.5,1.5,0,0,1-.45-2.93c5.71-1.78,11.43-3.75,17-5.87a1.5,1.5,0,1,1,1.07,2.8c-5.63,2.14-11.41,4.14-17.17,5.94A1.74,1.74,0,0,1,688.35,814.38Zm-195.19-5.8a1.6,1.6,0,0,1-.53-.09c-5.65-2.14-11.31-4.48-16.82-7a1.5,1.5,0,1,1,1.24-2.74c5.45,2.46,11.05,4.77,16.64,6.89a1.5,1.5,0,0,1-.53,2.9Zm228.94-7a1.5,1.5,0,0,1-.61-2.86c5.43-2.45,10.86-5.1,16.14-7.88a1.5,1.5,0,0,1,1.4,2.65c-5.34,2.81-10.82,5.49-16.31,8A1.5,1.5,0,0,1,722.1,801.56Zm-261.94-7.83a1.45,1.45,0,0,1-.7-.17c-5.33-2.8-10.66-5.81-15.83-8.94a1.5,1.5,0,1,1,1.55-2.57c5.12,3.1,10.39,6.08,15.68,8.85a1.5,1.5,0,0,1-.7,2.83Zm293.89-9a1.52,1.52,0,0,1-1.29-.72,1.5,1.5,0,0,1,.51-2.06c5.11-3.1,10.19-6.39,15.08-9.78a1.5,1.5,0,1,1,1.71,2.47c-4.95,3.42-10.07,6.74-15.23,9.87A1.51,1.51,0,0,1,754.05,784.76ZM429.21,775a1.49,1.49,0,0,1-.85-.26c-4.95-3.42-9.88-7-14.64-10.78a1.5,1.5,0,0,1,1.85-2.36c4.71,3.69,9.59,7.28,14.5,10.67a1.5,1.5,0,0,1-.86,2.73Zm354.54-10.78a1.51,1.51,0,0,1-1.18-.58,1.49,1.49,0,0,1,.26-2.1c4.68-3.68,9.33-7.55,13.81-11.52a1.5,1.5,0,0,1,2,2.24c-4.53,4-9.22,7.93-14,11.64A1.54,1.54,0,0,1,783.75,764.22Zm-383-11.52a1.45,1.45,0,0,1-1-.38c-4.51-4-9-8.18-13.24-12.45a1.5,1.5,0,1,1,2.12-2.12c4.23,4.23,8.64,8.38,13.1,12.33a1.5,1.5,0,0,1-1,2.62Zm410-12.45a1.51,1.51,0,0,1-1.06-.44,1.49,1.49,0,0,1,0-2.12c4.22-4.22,8.37-8.63,12.34-13.1a1.5,1.5,0,0,1,2.24,2c-4,4.51-8.19,9-12.46,13.22A1.51,1.51,0,0,1,810.79,740.25ZM375.2,727.16a1.49,1.49,0,0,1-1.13-.51c-4-4.51-7.92-9.2-11.64-13.94a1.5,1.5,0,0,1,2.36-1.85c3.68,4.69,7.56,9.33,11.53,13.8a1.51,1.51,0,0,1-1.12,2.5Zm459.57-13.95a1.51,1.51,0,0,1-1.18-2.43c3.7-4.71,7.29-9.58,10.68-14.49a1.5,1.5,0,0,1,2.47,1.71c-3.42,5-7,9.88-10.79,14.63A1.48,1.48,0,0,1,834.77,713.21ZM352.89,698.75a1.51,1.51,0,0,1-1.24-.65c-3.43-5-6.75-10.08-9.88-15.23a1.5,1.5,0,0,1,2.57-1.55c3.09,5.1,6.38,10.17,9.78,15.07a1.51,1.51,0,0,1-1.23,2.36Zm502.45-15.28a1.46,1.46,0,0,1-.77-.22,1.5,1.5,0,0,1-.51-2.06c3.1-5.12,6.08-10.39,8.86-15.67a1.5,1.5,0,1,1,2.65,1.39c-2.8,5.34-5.81,10.67-8.94,15.83A1.51,1.51,0,0,1,855.34,683.47ZM334.16,667.88a1.52,1.52,0,0,1-1.33-.8c-2.81-5.34-5.49-10.82-8-16.3a1.5,1.5,0,1,1,2.73-1.24c2.45,5.43,5.11,10.86,7.89,16.14a1.51,1.51,0,0,1-1.33,2.2Zm538-16.43a1.51,1.51,0,0,1-1.36-2.12c2.45-5.45,4.77-11,6.9-16.64a1.5,1.5,0,0,1,2.8,1.06c-2.14,5.66-4.49,11.31-7,16.81A1.49,1.49,0,0,1,872.18,651.45ZM319.31,635a1.5,1.5,0,0,1-1.41-1c-2.14-5.64-4.14-11.41-5.94-17.17a1.5,1.5,0,0,1,2.87-.9c1.78,5.7,3.76,11.42,5.88,17a1.52,1.52,0,0,1-.87,1.94A1.69,1.69,0,0,1,319.31,635ZM885,617.6a1.39,1.39,0,0,1-.44-.07,1.5,1.5,0,0,1-1-1.88c1.77-5.69,3.39-11.52,4.82-17.32a1.5,1.5,0,1,1,2.91.71c-1.44,5.86-3.07,11.75-4.86,17.51A1.51,1.51,0,0,1,885,617.6ZM308.53,600.5a1.5,1.5,0,0,1-1.45-1.14c-1.45-5.85-2.73-11.83-3.81-17.76a1.5,1.5,0,1,1,3-.54c1.07,5.87,2.34,11.79,3.77,17.58a1.5,1.5,0,0,1-1.1,1.82A1.47,1.47,0,0,1,308.53,600.5Zm585.11-18-.27,0a1.52,1.52,0,0,1-1.21-1.75c1.07-5.88,2-11.86,2.69-17.78a1.5,1.5,0,1,1,3,.36c-.72,6-1.63,12-2.71,18A1.51,1.51,0,0,1,893.64,582.51ZM302,565a1.49,1.49,0,0,1-1.48-1.32c-.73-6-1.28-12.06-1.65-18.09a1.5,1.5,0,1,1,3-.18c.36,6,.91,12,1.62,17.91A1.5,1.5,0,0,1,302.2,565ZM898,546.63h-.09a1.5,1.5,0,0,1-1.41-1.59c.36-5.93.54-12,.54-18v-.64a1.5,1.5,0,0,1,3,0v.64c0,6-.18,12.16-.54,18.15A1.5,1.5,0,0,1,898,546.63ZM299.83,528.89a1.5,1.5,0,0,1-1.5-1.5v-.32c0-5.93.18-11.93.52-17.83a1.5,1.5,0,0,1,3,.17c-.34,5.85-.52,11.79-.52,17.66v.32A1.5,1.5,0,0,1,299.83,528.89Zm598.08-19a1.5,1.5,0,0,1-1.5-1.41c-.37-6-.92-12-1.64-17.9a1.5,1.5,0,1,1,3-.37c.73,6,1.28,12.06,1.66,18.09a1.5,1.5,0,0,1-1.41,1.59Zm-596-17h-.18a1.5,1.5,0,0,1-1.31-1.67c.71-6,1.62-12,2.69-18a1.5,1.5,0,0,1,3,.53c-1.06,5.87-2,11.85-2.66,17.79A1.5,1.5,0,0,1,302,492.82ZM893.52,474a1.5,1.5,0,0,1-1.47-1.23c-1.08-5.87-2.36-11.79-3.79-17.58a1.5,1.5,0,1,1,2.91-.72c1.45,5.85,2.74,11.82,3.83,17.76a1.5,1.5,0,0,1-1.2,1.74A1.33,1.33,0,0,1,893.52,474ZM308.38,457.26a1.47,1.47,0,0,1-.36,0,1.51,1.51,0,0,1-1.1-1.81c1.43-5.86,3.07-11.75,4.85-17.51a1.5,1.5,0,1,1,2.87.89c-1.77,5.7-3.39,11.53-4.8,17.33A1.49,1.49,0,0,1,308.38,457.26Zm576.45-18.33a1.49,1.49,0,0,1-1.43-1.06c-1.78-5.68-3.77-11.4-5.9-17a1.5,1.5,0,0,1,2.8-1.07c2.16,5.65,4.16,11.42,6,17.17a1.5,1.5,0,0,1-1,1.88A1.76,1.76,0,0,1,884.83,438.93ZM319.09,422.72a1.39,1.39,0,0,1-.53-.1,1.49,1.49,0,0,1-.87-1.93c2.13-5.65,4.47-11.31,6.95-16.82a1.5,1.5,0,0,1,2.73,1.23c-2.45,5.45-4.76,11-6.88,16.65A1.49,1.49,0,0,1,319.09,422.72ZM872,405.19a1.51,1.51,0,0,1-1.37-.88c-2.46-5.43-5.12-10.86-7.9-16.13a1.5,1.5,0,1,1,2.65-1.4c2.81,5.32,5.5,10.81,8,16.29a1.5,1.5,0,0,1-.74,2A1.53,1.53,0,0,1,872,405.19Zm-538-15.48a1.56,1.56,0,0,1-.69-.17,1.49,1.49,0,0,1-.63-2c2.8-5.34,5.8-10.67,8.93-15.84a1.5,1.5,0,0,1,2.57,1.55c-3.1,5.12-6.07,10.4-8.85,15.69A1.5,1.5,0,0,1,333.92,389.71ZM855.1,373.27a1.49,1.49,0,0,1-1.28-.72c-3.1-5.09-6.39-10.16-9.8-15.06a1.5,1.5,0,0,1,2.47-1.72c3.43,5,6.76,10.08,9.89,15.23a1.49,1.49,0,0,1-.5,2.06A1.55,1.55,0,0,1,855.1,373.27ZM352.63,358.75a1.49,1.49,0,0,1-.85-.26,1.51,1.51,0,0,1-.38-2.09c3.43-5,7.05-9.89,10.77-14.64a1.5,1.5,0,1,1,2.36,1.85c-3.68,4.7-7.27,9.58-10.66,14.5A1.5,1.5,0,0,1,352.63,358.75ZM834.52,343.6a1.5,1.5,0,0,1-1.19-.57c-3.68-4.69-7.57-9.33-11.54-13.79a1.5,1.5,0,1,1,2.25-2c4,4.5,7.93,9.19,11.65,13.92a1.51,1.51,0,0,1-.25,2.11A1.45,1.45,0,0,1,834.52,343.6Zm-459.6-13.31a1.51,1.51,0,0,1-1.12-2.5c4-4.51,8.18-9,12.44-13.23a1.5,1.5,0,1,1,2.13,2.12c-4.22,4.22-8.37,8.63-12.32,13.1A1.49,1.49,0,0,1,374.92,330.29ZM810.5,316.6a1.53,1.53,0,0,1-1.06-.44c-4.22-4.21-8.63-8.35-13.11-12.31a1.5,1.5,0,1,1,2-2.25c4.52,4,9,8.18,13.24,12.44a1.5,1.5,0,0,1-1.06,2.56Zm-410-11.89a1.5,1.5,0,0,1-1-2.62c4.51-4,9.19-7.93,13.93-11.65a1.5,1.5,0,1,1,1.86,2.36c-4.69,3.68-9.34,7.56-13.8,11.53A1.52,1.52,0,0,1,400.45,304.71Zm383-12a1.45,1.45,0,0,1-.92-.32c-4.72-3.68-9.6-7.27-14.51-10.65a1.5,1.5,0,0,1,1.71-2.47c4.95,3.42,9.88,7,14.65,10.76a1.5,1.5,0,0,1,.25,2.1A1.48,1.48,0,0,1,783.42,292.66ZM428.85,282.38a1.5,1.5,0,0,1-.85-2.73c4.95-3.43,10.07-6.75,15.22-9.89a1.5,1.5,0,0,1,1.56,2.57c-5.1,3.1-10.17,6.39-15.07,9.79A1.5,1.5,0,0,1,428.85,282.38Zm324.8-10.24a1.46,1.46,0,0,1-.78-.22c-5.12-3.09-10.4-6.06-15.69-8.83a1.5,1.5,0,0,1,1.4-2.66c5.34,2.8,10.67,5.8,15.84,8.93a1.5,1.5,0,0,1-.77,2.78Zm-293.94-8.5a1.5,1.5,0,0,1-.7-2.82c5.33-2.81,10.81-5.5,16.3-8a1.5,1.5,0,0,1,1.24,2.73c-5.44,2.46-10.86,5.12-16.14,7.9A1.45,1.45,0,0,1,459.71,263.64Zm261.89-8.29a1.42,1.42,0,0,1-.61-.13c-5.45-2.45-11-4.76-16.66-6.87a1.5,1.5,0,0,1,1.07-2.81c5.65,2.14,11.31,4.47,16.81,6.94a1.5,1.5,0,0,1-.61,2.87Zm-229-6.58a1.5,1.5,0,0,1-.54-2.9c5.63-2.15,11.41-4.15,17.17-6a1.5,1.5,0,1,1,.89,2.86c-5.7,1.79-11.41,3.77-17,5.89A1.39,1.39,0,0,1,492.59,248.77Zm195.14-6.2a1.75,1.75,0,0,1-.44-.07c-5.71-1.77-11.54-3.38-17.34-4.79a1.5,1.5,0,0,1,.72-2.92c5.85,1.43,11.74,3.06,17.51,4.84a1.5,1.5,0,0,1-.45,2.94ZM527.07,238a1.5,1.5,0,0,1-.36-3c5.85-1.44,11.83-2.73,17.76-3.82a1.5,1.5,0,1,1,.54,3c-5.87,1.08-11.79,2.36-17.58,3.79A1.47,1.47,0,0,1,527.07,238Zm125.56-4a1.24,1.24,0,0,1-.27,0c-5.87-1.06-11.85-1.95-17.78-2.65a1.5,1.5,0,1,1,.35-3c6,.71,12,1.61,18,2.68a1.5,1.5,0,0,1-.27,3Zm-90-2.56a1.5,1.5,0,0,1-.18-3c6-.72,12.05-1.28,18.09-1.65a1.5,1.5,0,1,1,.18,3c-6,.37-12,.92-17.91,1.64Zm54.14-1.7h-.09c-5.78-.34-11.67-.51-17.5-.51h-.48a1.5,1.5,0,0,1,0-3h.47c5.9,0,11.84.18,17.68.51a1.5,1.5,0,0,1,1.41,1.59A1.48,1.48,0,0,1,616.75,229.75Z"/><path class="cls-4" d="M725.25,926.11a161.64,161.64,0,0,0-1.55-204.69c-10.89-13.11-30.36-15.76-43.6-5A30.7,30.7,0,0,0,676,760.05a100.45,100.45,0,1,1-153.6,0,30.7,30.7,0,1,0-46.92-39.6,161.66,161.66,0,0,0-2.37,205.66H260.83c-16.65,0-30.82,12.95-31.41,29.58a30.7,30.7,0,0,0,30.68,31.82H469.47a5.58,5.58,0,0,1,5.58,5.57v.12a5.58,5.58,0,0,1-5.58,5.57H300.74c-16.65,0-30.82,12.94-31.41,29.58A30.7,30.7,0,0,0,300,1060.17H469.47a5.57,5.57,0,0,1,5.58,5.57v.11a5.57,5.57,0,0,1-5.58,5.57H366.23c-16.64,0-30.82,12.95-31.41,29.58a30.7,30.7,0,0,0,30.68,31.82h410V926.11Z"/><rect class="cls-5" x="775.5" y="926.11" width="43" height="206.71"/><path class="cls-6" d="M767.43,527.07a168.27,168.27,0,1,0-227.87,157.4V704H658.77V684.47A168.34,168.34,0,0,0,767.43,527.07Z"/><path class="cls-7" d="M629.1,544.21c0-.15-.09-.3-.13-.45s-.1-.37-.17-.54-.18-.35-.27-.52-.13-.27-.22-.4a5.31,5.31,0,0,0-1.48-1.47c-.11-.08-.24-.13-.36-.2a5.77,5.77,0,0,0-.55-.29,5,5,0,0,0-.51-.16,3.94,3.94,0,0,0-.49-.14,4.87,4.87,0,0,0-1-.1h0a5.17,5.17,0,0,0-1,.11,3.06,3.06,0,0,0-.43.13,3.62,3.62,0,0,0-.56.17,4.59,4.59,0,0,0-.49.26,4.5,4.5,0,0,0-.43.23,4.73,4.73,0,0,0-.81.67l-8.6,8.59-8.6-8.6a5.31,5.31,0,0,0-7.52,0l-8.6,8.6-8.6-8.59a4.73,4.73,0,0,0-.81-.67c-.12-.08-.26-.14-.38-.21a5.52,5.52,0,0,0-.54-.28,5.16,5.16,0,0,0-.52-.16,4.19,4.19,0,0,0-.47-.14,5.2,5.2,0,0,0-2.08,0,3.79,3.79,0,0,0-.48.14,5.16,5.16,0,0,0-.52.16,4.44,4.44,0,0,0-.53.28c-.13.07-.26.13-.38.21A5.31,5.31,0,0,0,570,542.3a3.23,3.23,0,0,0-.22.41c-.09.17-.19.33-.27.51s-.11.36-.17.54-.1.3-.13.45a5.25,5.25,0,0,0-.11,1h0V705.7a5.33,5.33,0,0,0,10.65,0V558.1l3.27,3.28a5.32,5.32,0,0,0,7.53,0l8.6-8.6,8.6,8.6a5.32,5.32,0,0,0,7.53,0l3.27-3.28V705.7a5.33,5.33,0,0,0,10.65,0V545.25h0A5.25,5.25,0,0,0,629.1,544.21Z"/><path class="cls-8" d="M658.77,727.4H539.56a11.71,11.71,0,1,1,0-23.41H658.77a11.71,11.71,0,0,1,0,23.41Z"/><path class="cls-8" d="M658.77,750.82H539.56a11.71,11.71,0,1,1,0-23.42H658.77a11.71,11.71,0,0,1,0,23.42Z"/><path class="cls-8" d="M658.77,774.24H539.56a11.71,11.71,0,1,1,0-23.42H658.77a11.71,11.71,0,0,1,0,23.42Z"/><g class="cls-9"><path class="cls-8" d="M539.56,727.4H658.77a11.7,11.7,0,0,0,11.7-11.7H527.85A11.7,11.7,0,0,0,539.56,727.4Z"/></g><g class="cls-9"><path class="cls-8" d="M539.56,750.82H658.77a11.7,11.7,0,0,0,11.7-11.71H527.85A11.71,11.71,0,0,0,539.56,750.82Z"/></g><polygon class="cls-10" points="610.98 785.87 587.34 785.87 572.42 774.24 625.9 774.24 610.98 785.87"/><g class="cls-9"><path class="cls-8" d="M539.56,774.24H658.77a11.71,11.71,0,0,0,11.7-11.71H527.85A11.71,11.71,0,0,0,539.56,774.24Z"/></g><rect class="cls-11" x="818.5" y="916" width="1207" height="226.94"/><g class="cls-9"><polygon class="cls-5" points="902.12 1029.47 775.5 1029.47 775.5 1132.82 902.12 1132.82 902.12 1142.93 2025.5 1142.93 2025.5 1029.47 902.12 1029.47"/></g><circle class="cls-5" cx="846.94" cy="1114.5" r="13.31"/><circle class="cls-5" cx="899.22" cy="1114.5" r="13.31"/><circle class="cls-5" cx="951.5" cy="1114.5" r="13.31"/><g class="cls-9"><path class="cls-12" d="M767.43,527.07A168.26,168.26,0,0,0,599.16,358.8V785.87H611l14.92-11.63h32.87a11.71,11.71,0,0,0,0-23.42,11.71,11.71,0,0,0,0-23.42,11.71,11.71,0,0,0,0-23.41V684.47A168.34,168.34,0,0,0,767.43,527.07Z"/></g><path class="cls-3" d="M901.8,719.86a1.5,1.5,0,0,1-1.5-1.5V704.71a1.5,1.5,0,0,1,3,0v13.65A1.5,1.5,0,0,1,901.8,719.86Z"/><path class="cls-3" d="M889.79,723.94a1.53,1.53,0,0,1-1.06-.44l-9.65-9.65a1.5,1.5,0,0,1,2.12-2.13l9.65,9.66a1.5,1.5,0,0,1-1.06,2.56Z"/><path class="cls-3" d="M884.19,735.31H870.53a1.5,1.5,0,0,1,0-3h13.66a1.5,1.5,0,0,1,0,3Z"/><path class="cls-3" d="M878.61,757a1.48,1.48,0,0,1-1.06-.44,1.51,1.51,0,0,1,0-2.12l9.66-9.65a1.5,1.5,0,0,1,2.12,2.12l-9.66,9.65A1.45,1.45,0,0,1,878.61,757Z"/><path class="cls-3" d="M899.64,766.57a1.5,1.5,0,0,1-1.5-1.5V751.42a1.5,1.5,0,0,1,3,0v13.65A1.5,1.5,0,0,1,899.64,766.57Z"/><path class="cls-3" d="M921.3,758.5a1.51,1.51,0,0,1-1.06-.44l-9.66-9.66a1.5,1.5,0,1,1,2.13-2.12l9.65,9.66a1.49,1.49,0,0,1,0,2.12A1.51,1.51,0,0,1,921.3,758.5Z"/><path class="cls-3" d="M930.9,737.47H917.25a1.5,1.5,0,0,1,0-3H930.9a1.5,1.5,0,0,1,0,3Z"/><path class="cls-3" d="M913.17,725.47a1.51,1.51,0,0,1-1.06-2.57l9.65-9.65a1.5,1.5,0,1,1,2.13,2.12L914.23,725A1.51,1.51,0,0,1,913.17,725.47Z"/><path class="cls-3" d="M266.07,665.31a1.5,1.5,0,0,1-1.5-1.5V650.15a1.5,1.5,0,0,1,3,0v13.66A1.5,1.5,0,0,1,266.07,665.31Z"/><path class="cls-3" d="M254.06,669.38a1.48,1.48,0,0,1-1.06-.44l-9.65-9.65a1.5,1.5,0,0,1,2.12-2.12l9.66,9.65a1.51,1.51,0,0,1,0,2.12A1.49,1.49,0,0,1,254.06,669.38Z"/><path class="cls-3" d="M248.46,680.76H234.81a1.5,1.5,0,1,1,0-3h13.65a1.5,1.5,0,1,1,0,3Z"/><path class="cls-3" d="M242.88,702.42a1.53,1.53,0,0,1-1.06-.44,1.51,1.51,0,0,1,0-2.12l9.66-9.66a1.5,1.5,0,1,1,2.12,2.12L243.94,702A1.49,1.49,0,0,1,242.88,702.42Z"/><path class="cls-3" d="M263.91,712a1.5,1.5,0,0,1-1.5-1.5V696.86a1.5,1.5,0,0,1,3,0v13.66A1.5,1.5,0,0,1,263.91,712Z"/><path class="cls-3" d="M285.57,703.94a1.47,1.47,0,0,1-1.06-.44l-9.65-9.65a1.5,1.5,0,0,1,2.12-2.13l9.65,9.66a1.49,1.49,0,0,1,0,2.12A1.47,1.47,0,0,1,285.57,703.94Z"/><path class="cls-3" d="M295.17,682.91H281.52a1.5,1.5,0,0,1,0-3h13.65a1.5,1.5,0,0,1,0,3Z"/><path class="cls-3" d="M277.44,670.91a1.51,1.51,0,0,1-1.06-.44,1.49,1.49,0,0,1,0-2.12l9.66-9.66a1.5,1.5,0,0,1,2.12,2.13l-9.66,9.65A1.51,1.51,0,0,1,277.44,670.91Z"/><path class="cls-3" d="M909.19,74.48a1.5,1.5,0,0,1-1.5-1.5V59.33a1.5,1.5,0,0,1,3,0V73A1.5,1.5,0,0,1,909.19,74.48Z"/><path class="cls-3" d="M897.19,78.56a1.49,1.49,0,0,1-1.06-.44l-9.66-9.66a1.5,1.5,0,1,1,2.12-2.12L898.25,76a1.5,1.5,0,0,1-1.06,2.56Z"/><path class="cls-3" d="M891.58,89.93H877.93a1.5,1.5,0,0,1,0-3h13.65a1.5,1.5,0,0,1,0,3Z"/><path class="cls-3" d="M886,111.59A1.5,1.5,0,0,1,885,109l9.65-9.66a1.5,1.5,0,1,1,2.12,2.13l-9.65,9.65A1.53,1.53,0,0,1,886,111.59Z"/><path class="cls-3" d="M907,121.19a1.5,1.5,0,0,1-1.5-1.5V106a1.5,1.5,0,1,1,3,0v13.65A1.5,1.5,0,0,1,907,121.19Z"/><path class="cls-3" d="M928.69,113.12a1.53,1.53,0,0,1-1.06-.44L918,103a1.5,1.5,0,1,1,2.12-2.12l9.65,9.66a1.5,1.5,0,0,1-1.06,2.56Z"/><path class="cls-3" d="M938.3,92.09H924.64a1.5,1.5,0,0,1,0-3H938.3a1.5,1.5,0,0,1,0,3Z"/><path class="cls-3" d="M920.56,80.08a1.48,1.48,0,0,1-1.06-.44,1.51,1.51,0,0,1,0-2.12l9.66-9.65A1.5,1.5,0,1,1,931.28,70l-9.66,9.65A1.45,1.45,0,0,1,920.56,80.08Z"/><path class="cls-3" d="M880.34,338.94a1.5,1.5,0,0,1-1.5-1.5V305.21a1.5,1.5,0,1,1,3,0v32.23A1.5,1.5,0,0,1,880.34,338.94Z"/><path class="cls-3" d="M896.46,322.82H864.23a1.5,1.5,0,0,1,0-3h32.23a1.5,1.5,0,0,1,0,3Z"/><path class="cls-3" d="M375.16,268.17a1.5,1.5,0,0,1-1.5-1.5V234.45a1.5,1.5,0,0,1,3,0v32.22A1.5,1.5,0,0,1,375.16,268.17Z"/><path class="cls-3" d="M391.27,252.06H359.05a1.5,1.5,0,0,1,0-3h32.22a1.5,1.5,0,0,1,0,3Z"/><path class="cls-3" d="M935.4,677.26a11.21,11.21,0,1,1,11.21-11.2A11.21,11.21,0,0,1,935.4,677.26Zm0-19.41a8.21,8.21,0,1,0,8.21,8.21A8.21,8.21,0,0,0,935.4,657.85Z"/><path class="cls-3" d="M60.34,502.06a11.21,11.21,0,1,1,11.2-11.2A11.22,11.22,0,0,1,60.34,502.06Zm0-19.41a8.21,8.21,0,1,0,8.2,8.21A8.22,8.22,0,0,0,60.34,482.65Z"/><path class="cls-3" d="M953.58,146.09a11.21,11.21,0,1,1,11.21-11.21A11.22,11.22,0,0,1,953.58,146.09Zm0-19.41a8.21,8.21,0,1,0,8.21,8.2A8.22,8.22,0,0,0,953.58,126.68Z"/><path class="cls-3" d="M100.45,458.46Zm-2.25-2.25a2.25,2.25,0,0,1,2.25-2.25h0a2.25,2.25,0,0,1,2.25,2.25h0a2.25,2.25,0,0,1-2.25,2.25h0A2.25,2.25,0,0,1,98.2,456.21Zm-11.35-3.38h0a2.26,2.26,0,0,1,0-3.18h0a2.25,2.25,0,0,1,3.18,0h0a2.25,2.25,0,0,1,0,3.18h0a2.28,2.28,0,0,1-1.61.66h0A2.19,2.19,0,0,1,86.85,452.83Zm24,0a2.26,2.26,0,0,1,0-3.18h0a2.26,2.26,0,0,1,3.18,0h0a2.23,2.23,0,0,1,0,3.18h0a2.16,2.16,0,0,1-1.59.66h0A2.23,2.23,0,0,1,110.86,452.8ZM81.18,439.24A2.25,2.25,0,0,1,83.43,437h0a2.25,2.25,0,0,1,2.25,2.24h0a2.26,2.26,0,0,1-2.24,2.26h0A2.26,2.26,0,0,1,81.18,439.24Zm34,0h0v-.06h0a2.23,2.23,0,0,1,2.24-2.25h0a2.24,2.24,0,0,1,2.26,2.23h0v.05h0v0h0a2.26,2.26,0,0,1-2.25,2.26h0A2.26,2.26,0,0,1,115.18,439.2ZM86.79,428.8a2.25,2.25,0,0,1,0-3.18h0a2.25,2.25,0,0,1,3.18,0h0a2.25,2.25,0,0,1,0,3.18h0a2.23,2.23,0,0,1-1.59.66h0A2.23,2.23,0,0,1,86.79,428.8Zm24-.06a2.26,2.26,0,0,1,0-3.19h0a2.25,2.25,0,0,1,3.18,0h0a2.26,2.26,0,0,1,0,3.18h0a2.32,2.32,0,0,1-1.6.66h0A2.26,2.26,0,0,1,110.82,428.74Zm-12.69-6.52a2.26,2.26,0,0,1,2.25-2.27h0a2.25,2.25,0,0,1,2.25,2.25h0a2.26,2.26,0,0,1-2.24,2.25h0A2.25,2.25,0,0,1,98.13,422.22Z"/><path class="cls-3" d="M956.6,465.71Zm-2.25-2.25a2.25,2.25,0,0,1,2.25-2.25h0a2.26,2.26,0,0,1,2.25,2.25h0a2.25,2.25,0,0,1-2.25,2.25h0A2.25,2.25,0,0,1,954.35,463.46ZM943,460.09h0a2.26,2.26,0,0,1,0-3.18h0a2.23,2.23,0,0,1,3.18,0h0a2.25,2.25,0,0,1,0,3.18h0a2.32,2.32,0,0,1-1.61.66h0A2.23,2.23,0,0,1,943,460.09Zm24,0a2.26,2.26,0,0,1,0-3.18h0a2.26,2.26,0,0,1,3.18,0h0a2.23,2.23,0,0,1,0,3.18h0a2.16,2.16,0,0,1-1.59.66h0A2.23,2.23,0,0,1,967,460.06ZM937.33,446.5a2.24,2.24,0,0,1,2.25-2.25h0a2.24,2.24,0,0,1,2.25,2.23h0a2.26,2.26,0,0,1-2.24,2.27h0A2.26,2.26,0,0,1,937.33,446.5Zm34-.05h0v-.06h0a2.24,2.24,0,0,1,2.24-2.25h0a2.25,2.25,0,0,1,2.26,2.24h0v0h0v0h0a2.26,2.26,0,0,1-2.25,2.27h0A2.26,2.26,0,0,1,971.33,446.45Zm-28.39-10.39a2.25,2.25,0,0,1,0-3.18h0a2.23,2.23,0,0,1,3.18,0h0a2.25,2.25,0,0,1,0,3.18h0a2.28,2.28,0,0,1-1.59.66h0A2.23,2.23,0,0,1,942.94,436.06Zm24-.06a2.27,2.27,0,0,1,0-3.2h0a2.25,2.25,0,0,1,3.18,0h0a2.26,2.26,0,0,1,0,3.18h0a2.27,2.27,0,0,1-1.6.66h0A2.29,2.29,0,0,1,967,436Zm-12.69-6.53a2.26,2.26,0,0,1,2.25-2.26h0a2.25,2.25,0,0,1,2.25,2.25h0a2.26,2.26,0,0,1-2.24,2.25h0A2.26,2.26,0,0,1,954.28,429.47Z"/><path class="cls-3" d="M222.41,881Zm-2.25-2.25a2.24,2.24,0,0,1,2.25-2.25h0a2.25,2.25,0,0,1,2.25,2.25h0a2.26,2.26,0,0,1-2.25,2.25h0A2.25,2.25,0,0,1,220.16,878.74Zm-11.36-3.38h0a2.26,2.26,0,0,1,0-3.18h0a2.25,2.25,0,0,1,3.18,0h0a2.25,2.25,0,0,1,0,3.18h0a2.27,2.27,0,0,1-1.6.66h0A2.23,2.23,0,0,1,208.8,875.36Zm24,0a2.26,2.26,0,0,1,0-3.18h0a2.26,2.26,0,0,1,3.18,0h0a2.25,2.25,0,0,1,0,3.18h0a2.19,2.19,0,0,1-1.59.66h0A2.23,2.23,0,0,1,232.82,875.33Zm-29.69-13.56a2.25,2.25,0,0,1,2.25-2.25h0a2.24,2.24,0,0,1,2.25,2.24h0A2.25,2.25,0,0,1,205.4,864h0A2.26,2.26,0,0,1,203.13,861.77Zm34,0h0v-.06h0a2.23,2.23,0,0,1,2.23-2.25h0a2.25,2.25,0,0,1,2.27,2.23h0v.05h0v0h0a2.26,2.26,0,0,1-2.25,2.26h0A2.26,2.26,0,0,1,237.14,861.73Zm-28.4-10.4a2.25,2.25,0,0,1,0-3.18h0a2.25,2.25,0,0,1,3.18,0h0a2.23,2.23,0,0,1,0,3.18h0a2.2,2.2,0,0,1-1.59.66h0A2.23,2.23,0,0,1,208.74,851.33Zm24-.06a2.27,2.27,0,0,1,0-3.19h0a2.25,2.25,0,0,1,3.18,0h0a2.26,2.26,0,0,1,0,3.18h0a2.32,2.32,0,0,1-1.61.66h0A2.26,2.26,0,0,1,232.77,851.27Zm-12.69-6.52a2.26,2.26,0,0,1,2.25-2.27h0a2.25,2.25,0,0,1,2.25,2.25h0a2.25,2.25,0,0,1-2.23,2.25h0A2.25,2.25,0,0,1,220.08,844.75Z"/><path class="cls-3" d="M174.26,825.46V811.35H163.67a29.27,29.27,0,0,0-3.41-8.23l7.49-7.48-10-10-7.49,7.49a29.27,29.27,0,0,0-8.23-3.41V779.15H128v10.59a29.21,29.21,0,0,0-8.22,3.41l-7.49-7.49-10,10,7.49,7.49a29.25,29.25,0,0,0-3.4,8.23H95.76v14.11h10.59a29.18,29.18,0,0,0,3.4,8.22l-7.49,7.49,10,10,7.49-7.49a29.18,29.18,0,0,0,8.22,3.4v10.6h14.11v-10.6a29.25,29.25,0,0,0,8.23-3.4l7.48,7.49,10-10-7.49-7.49a29.21,29.21,0,0,0,3.41-8.22ZM135,835.38a17,17,0,1,1,17-17A17,17,0,0,1,135,835.38Z"/><path class="cls-3" d="M196.23,763.51v-9.38h-7.07a19.24,19.24,0,0,0-2.25-5.45l5-5-6.63-6.64-5,5a19.26,19.26,0,0,0-5.45-2.26v-7.06h-9.38v7.06a19.26,19.26,0,0,0-5.45,2.26l-5-5-6.64,6.64,5,5a19.26,19.26,0,0,0-2.26,5.45H144v9.38h7.06a19.26,19.26,0,0,0,2.26,5.45l-5,5,6.63,6.63,5-5a19.24,19.24,0,0,0,5.45,2.25v7.07h9.38v-7.07a19.24,19.24,0,0,0,5.45-2.25l5,5L191.9,774l-5-5a19,19,0,0,0,2.26-5.45Zm-26.1,6.6a11.29,11.29,0,1,1,11.29-11.29A11.3,11.3,0,0,1,170.13,770.11Z"/><path class="cls-3" d="M568,133.34a5.76,5.76,0,1,1-8.15,0A5.76,5.76,0,0,1,568,133.34Z"/><path class="cls-3" d="M524.4,100.54A2.65,2.65,0,0,1,522.53,96a58.61,58.61,0,0,1,82.78,0,2.65,2.65,0,1,1-3.74,3.75,53.31,53.31,0,0,0-75.3,0A2.64,2.64,0,0,1,524.4,100.54Z"/><path class="cls-3" d="M537.51,113.65a2.65,2.65,0,0,1-1.87-4.52,40,40,0,0,1,56.57,0,2.65,2.65,0,1,1-3.75,3.74,34.74,34.74,0,0,0-49.08,0A2.64,2.64,0,0,1,537.51,113.65Z"/><path class="cls-3" d="M550.61,126.75a2.65,2.65,0,0,1-1.87-4.52,21.49,21.49,0,0,1,30.36,0,2.64,2.64,0,0,1-3.74,3.74,16.21,16.21,0,0,0-22.88,0A2.64,2.64,0,0,1,550.61,126.75Z"/><path class="cls-3" d="M196.42,567.54h-136a5.29,5.29,0,0,0-5.29,5.3v5.38H201.71v-5.38A5.29,5.29,0,0,0,196.42,567.54Zm-135.71,8a2.7,2.7,0,1,1,2.69-2.7A2.69,2.69,0,0,1,60.71,575.58Zm9.43,0a2.7,2.7,0,1,1,2.69-2.7A2.7,2.7,0,0,1,70.14,575.58Zm9.42,0a2.7,2.7,0,1,1,2.69-2.7A2.69,2.69,0,0,1,79.56,575.58ZM189,574.41a1.18,1.18,0,0,1-1.17,1.17H92.46a1.17,1.17,0,0,1-1.16-1.17v-3a1.16,1.16,0,0,1,1.16-1.17h95.39a1.17,1.17,0,0,1,1.17,1.17Z"/><path class="cls-3" d="M55.13,584.81V685.36a5.29,5.29,0,0,0,5.29,5.29h136a5.29,5.29,0,0,0,5.29-5.29V584.81Zm69,98.16H63.4v-4.23h60.69Zm0-10.21H63.4v-4.23h60.69Zm0-10.22H63.4v-4.23h60.69Zm0-10.21H63.4V648.1h60.69ZM158.86,683h-26.3V648.1h26.3Zm34.58,0H167.13V648.1h26.31Zm0-43.14H63.4V593.08h130Z"/><path class="cls-3" d="M1077.74,455.22c.44,0,.88,0,1.33,0a30.25,30.25,0,0,1,20.52,8l11.68-9.8a45.37,45.37,0,0,0-32.2-13.36c-1.34,0-2.67.06-4,.17Z"/><path class="cls-3" d="M1104.68,469.27a30.13,30.13,0,0,1,4.74,16.26,30.5,30.5,0,0,1-1.64,9.84l13.71,6.81a45.48,45.48,0,0,0-5.11-42.73Z"/><path class="cls-3" d="M1104.25,502.48A30.35,30.35,0,0,1,1049,489.55h-15.3A45.56,45.56,0,0,0,1118,509.3Z"/><path class="cls-3" d="M1049,481.61a30.36,30.36,0,0,1,21-25l-2.65-15a45.58,45.58,0,0,0-33.6,40Z"/><path class="cls-3" d="M986.93,319.7a6.84,6.84,0,0,0-2.35,1.59c-.76.8-1.33.79-2.06-.05a9.48,9.48,0,0,1-1.79-3.94c-1-3.68-1.75-6-2.76-9.65l0,.14v0l0-.12-.09,0h0l-6.54,1.79-2.61.71a11.82,11.82,0,0,1-4.38.59c-1.71-.19-1.89-.45-1.49-2.07a6,6,0,0,0-9-6.56,5.76,5.76,0,0,0-2.51,6.41,7.08,7.08,0,0,0,1.69,3c.89.92,1,1.66-.12,2.27a18.65,18.65,0,0,1-3.86,1.68c-.92.28-1.86.53-2.79.79l-6.59,1.8c.86,3.17,1.74,6.53,2.52,9.72a16.66,16.66,0,0,1,.47,4c0,1.41-.54,1.7-1.87,1.34a6,6,0,1,0,.41,11.25,6.8,6.8,0,0,0,2.34-1.59c.76-.8,1.33-.79,2.07.05a9.61,9.61,0,0,1,1.79,3.94c1,3.68,1.74,6,2.75,9.65,3.13-.86,6.28-1.66,9.38-2.6a18.65,18.65,0,0,0,3.86-1.68c1.08-.61,1-1.34.12-2.27a7.08,7.08,0,0,1-1.69-3,5.77,5.77,0,0,1,2.51-6.41,6,6,0,0,1,9,6.56c-.4,1.62-.22,1.88,1.49,2.07a12,12,0,0,0,4.38-.58l9.15-2.5v0l.09,0c-.86-3.17-1.74-6.53-2.52-9.72a16.66,16.66,0,0,1-.47-4c0-1.41.54-1.7,1.87-1.34a6,6,0,1,0-.4-11.25Z"/><path class="cls-3" d="M1012.24,346.08c-.81,3.26-1.67,6.51-2.39,9.8a19.73,19.73,0,0,0-.43,4.34c0,1.28.71,1.59,2,1.25a7.43,7.43,0,0,1,3.6,0,6,6,0,0,1,4.53,5.51,6.18,6.18,0,0,1-10.47,4.82c-1.27-1.18-1.59-1.15-2.62.31a12.34,12.34,0,0,0-1.69,4.25l-2.35,9.54,40,9.87c.09-.38.17-.71.26-1,3.1-12.59,6.46-26.18,9.57-38.78-3.3-.81-6.79-1.72-10.07-2.62a17.11,17.11,0,0,1-3.84-1.59c-1.27-.71-1.26-1.34-.27-2.36a6.17,6.17,0,1,0-10.38-5.32,7,7,0,0,0,.26,2.93c.33,1.09,0,1.6-1.09,1.84a9.81,9.81,0,0,1-4.47-.37C1018.51,347.52,1016.08,347,1012.24,346.08Z"/><path class="cls-3" d="M1020.76,278.34h0Z"/><path class="cls-3" d="M1065.85,292.63a6.72,6.72,0,0,0-2.68.91c-1,.56-1.5.4-2-.6a9.46,9.46,0,0,1-.68-4.27c0-3.82-.1-6.21-.09-10l-.08.12v0l.08-.1-.08-.07v0h-6.82c-1,0-1.94,0-2.91,0a19,19,0,0,0-4.17.59c-1.2.3-1.33,1-.72,2.16a7.07,7.07,0,0,1,.83,3.37,5.76,5.76,0,0,1-4.13,5.51,5.62,5.62,0,0,1-6.51-2.08,5.56,5.56,0,0,1-.4-6.63c.81-1.46.7-1.76-.9-2.39a11.57,11.57,0,0,0-4.37-.6h-2.71l-6.78,0v0h0c0,3.16-.07,7.19-.14,10a16.67,16.67,0,0,1-.62,4c-.37,1.36-1,1.5-2.15.8a6,6,0,1,0-2.6,10.95,6.72,6.72,0,0,0,2.68-.91c.94-.57,1.49-.41,2,.6a9.6,9.6,0,0,1,.68,4.27c0,3.82.09,6.21.09,10,3.24,0,6.49.07,9.73,0a19.61,19.61,0,0,0,4.17-.6c1.2-.3,1.33-1,.72-2.15a7.1,7.1,0,0,1-.83-3.38,5.76,5.76,0,0,1,4.13-5.51,6,6,0,0,1,6.91,8.72c-.81,1.45-.71,1.75.9,2.39a12,12,0,0,0,4.37.6l9.48,0v0l.08.06c0-3.27.06-6.75.15-10a16.58,16.58,0,0,1,.61-4c.38-1.36,1-1.5,2.16-.8a6,6,0,1,0,2.6-10.95Z"/><polygon class="cls-3" points="461.55 114.08 461.55 62.86 428.76 85.04 461.55 114.08"/><path class="cls-3" d="M422.15,85l36.08-24.4H376.66L412.73,85A8.35,8.35,0,0,0,422.15,85Z"/><polygon class="cls-3" points="461.55 60.61 461.55 60.61 461.55 60.61 461.55 60.61"/><path class="cls-3" d="M458.74,116.56,425.57,87.2l-1.33.9a12.06,12.06,0,0,1-13.6,0l-1.33-.9-33.16,29.36Z"/><polygon class="cls-3" points="461.55 116.56 461.55 116.56 461.55 116.56 461.55 116.56"/><polygon class="cls-3" points="373.33 116.56 373.33 116.56 373.33 116.56 373.33 116.56"/><polygon class="cls-3" points="373.33 60.61 373.33 60.61 373.33 60.61 373.33 60.61"/><polygon class="cls-3" points="406.13 85.04 373.33 62.86 373.33 114.08 406.13 85.04"/><polygon class="cls-3" points="85.38 382.82 85.38 286.91 80.93 286.91 80.93 387.26 162.27 387.26 162.27 382.82 85.38 382.82"/><path class="cls-3" d="M89.14,278.65V379h81.33V278.65Zm68.52,86.53H102v-2.63h55.71Zm0-11.68H102v-2.63h55.71Zm0-11.68H102v-2.63h55.71Zm0-11.68H102v-2.63h55.71Zm0-11.68H102v-2.63h55.71Zm0-11.68H102v-2.63h55.71Zm0-11.68H102v-2.63h55.71Z"/><path class="cls-3" d="M280.92,367.65a17,17,0,0,0-.9-5.76,11.74,11.74,0,0,0-3.06-4.57,24.37,24.37,0,0,0-5.74-3.89,77.68,77.68,0,0,0-8.91-3.73c-3.18-1.07-6-2.18-8.55-3.31a26.18,26.18,0,0,1-6.44-4,15.43,15.43,0,0,1-4.07-5.46,19,19,0,0,1-1.4-7.68,19.23,19.23,0,0,1,1.35-7.32,15.9,15.9,0,0,1,3.89-5.69,19,19,0,0,1,6.09-3.79,23.89,23.89,0,0,1,8-1.56v-9.38H264v9.38a24.14,24.14,0,0,1,8.07,1.76,16.85,16.85,0,0,1,6,4.24,18.83,18.83,0,0,1,3.81,6.62,27.62,27.62,0,0,1,1.33,8.9h-2.71a23,23,0,0,0-1.18-7.52,17,17,0,0,0-3.46-6,15.84,15.84,0,0,0-5.64-4,19.78,19.78,0,0,0-7.78-1.43,21.77,21.77,0,0,0-8,1.33,16.48,16.48,0,0,0-5.57,3.51,14.08,14.08,0,0,0-3.29,5,16.35,16.35,0,0,0-1.07,5.79,20.25,20.25,0,0,0,.7,5.57,10.87,10.87,0,0,0,2.73,4.56,21.62,21.62,0,0,0,5.67,4,69,69,0,0,0,9.5,3.84q4.62,1.61,8.38,3.28a25.63,25.63,0,0,1,6.45,4,16.39,16.39,0,0,1,4.16,5.49,17.94,17.94,0,0,1,1.48,7.67,18.81,18.81,0,0,1-1.38,7.35,16.32,16.32,0,0,1-3.89,5.64,18.48,18.48,0,0,1-6,3.74,25.32,25.32,0,0,1-7.82,1.63v9.43h-2.76V386a33,33,0,0,1-8.18-1.33,20.28,20.28,0,0,1-7.14-3.71,18.31,18.31,0,0,1-5-6.6,23.08,23.08,0,0,1-1.91-9.93h2.71a19.67,19.67,0,0,0,1.88,9.06,16.44,16.44,0,0,0,4.84,5.81,18.75,18.75,0,0,0,6.65,3.12,29.94,29.94,0,0,0,7.24.92,20.94,20.94,0,0,0,7.63-1.3,17.34,17.34,0,0,0,5.69-3.49,14.83,14.83,0,0,0,3.56-5A14.56,14.56,0,0,0,280.92,367.65Z"/><path class="cls-3" d="M492.32,177.63a24.13,24.13,0,0,1-.36,3.56,22,22,0,0,1-.87,3.47,17.6,17.6,0,0,1-1.39,3.12,11.5,11.5,0,0,1-1.93,2.53,8.53,8.53,0,0,1-2.53,1.7,7.86,7.86,0,0,1-3.14.62,6.07,6.07,0,0,1-4.47-1.69,7.29,7.29,0,0,1-2-4.67q-3,6.36-9.2,6.36a6,6,0,0,1-3.3-.9,6.66,6.66,0,0,1-2.31-2.55,12.34,12.34,0,0,1-1.23-4,22,22,0,0,1-.09-5.17,25.14,25.14,0,0,1,1.36-6.3,16.68,16.68,0,0,1,2.64-4.8,11.64,11.64,0,0,1,3.66-3.07,9.34,9.34,0,0,1,4.41-1.08,9.2,9.2,0,0,1,2.28.25,8.1,8.1,0,0,1,1.79.68,8.61,8.61,0,0,1,1.5,1c.45.37.89.74,1.34,1.13L477.1,184a11.09,11.09,0,0,0,.06,2.75,6.3,6.3,0,0,0,.62,2,4.22,4.22,0,0,0,1,1.27,4.83,4.83,0,0,0,1.19.73,5,5,0,0,0,1.2.35,8.26,8.26,0,0,0,1,.08,6.24,6.24,0,0,0,3.55-1,8.6,8.6,0,0,0,2.62-2.82A15.53,15.53,0,0,0,490,183a29.26,29.26,0,0,0,.73-5.37,34.33,34.33,0,0,0-.71-9.53,17.65,17.65,0,0,0-3.38-7.24,15.47,15.47,0,0,0-6.27-4.59,24.54,24.54,0,0,0-9.34-1.6,22,22,0,0,0-5.83.76,20.81,20.81,0,0,0-5.22,2.21,21.5,21.5,0,0,0-4.45,3.55,22.58,22.58,0,0,0-3.49,4.79,27.52,27.52,0,0,0-2.38,5.93,32.07,32.07,0,0,0-1.09,7,30.84,30.84,0,0,0,1,9.56,21.2,21.2,0,0,0,3.78,7.67,18.22,18.22,0,0,0,6.42,5.11,20.27,20.27,0,0,0,8.91,1.86,20.84,20.84,0,0,0,2.47-.15,21.61,21.61,0,0,0,2.45-.44,19.24,19.24,0,0,0,2.26-.71,13.46,13.46,0,0,0,1.94-.91l.66,1.27a11,11,0,0,1-2.09,1.05,17.76,17.76,0,0,1-2.53.77,24,24,0,0,1-2.69.47,21.59,21.59,0,0,1-2.58.17,23.2,23.2,0,0,1-9.35-1.78,18.23,18.23,0,0,1-6.88-5.13,21.78,21.78,0,0,1-4.13-8.1,33.9,33.9,0,0,1-1.11-10.71,33.46,33.46,0,0,1,2.09-10.68,24.7,24.7,0,0,1,5-8.12,21.3,21.3,0,0,1,7.47-5.16,24.39,24.39,0,0,1,9.54-1.81,25.26,25.26,0,0,1,9.82,1.72,16.85,16.85,0,0,1,6.7,4.92,19.82,19.82,0,0,1,3.75,7.72A35.16,35.16,0,0,1,492.32,177.63ZM461,180a20.41,20.41,0,0,0,0,4.34,11.5,11.5,0,0,0,.87,3.52,6,6,0,0,0,1.79,2.38,4.43,4.43,0,0,0,2.77.87,9.83,9.83,0,0,0,2.55-.34,6.82,6.82,0,0,0,2.5-1.27,10.37,10.37,0,0,0,2.31-2.61,19,19,0,0,0,2-4.35l1.19-14a6.18,6.18,0,0,0-2.22-1.66,7.63,7.63,0,0,0-3.19-.61,8,8,0,0,0-3.54.82,9.54,9.54,0,0,0-3.14,2.48,15.29,15.29,0,0,0-2.43,4.27A24.58,24.58,0,0,0,461,180Z"/><path class="cls-3" d="M365.92,859.52l7.5-6.21,15.88,5.89a20.82,20.82,0,0,0-33.06-15.51l-63.63-37.3A20.81,20.81,0,0,0,257,789.68l15.88,5.9,1.62,9.6-7.5,6.21-15.87-5.89A20.81,20.81,0,0,0,284.19,821l63.63,37.3A20.82,20.82,0,0,0,383.42,875l-15.87-5.9Zm-16.54-10.94-.76,1.28a2.81,2.81,0,0,1-3.84,1L292.06,820a2.81,2.81,0,0,1-1-3.85l.75-1.28a2.82,2.82,0,0,1,3.85-1l52.71,30.9A2.82,2.82,0,0,1,349.38,848.58Z"/><path class="cls-3" d="M311,784.25l-5.87,8.06,4.05,9.11,9.91,1.05,5.87-8.06-4-9.11Zm8.08,12a5,5,0,1,1-1.1-7A5,5,0,0,1,319.12,796.29Z"/><path class="cls-3" d="M330.39,749.8l-9.14,4-1.13,9.91,8,5.93,9.14-4,1.13-9.91Zm.86,14.48a5,5,0,1,1,2.58-6.56A5,5,0,0,1,331.25,764.28Z"/><path class="cls-3" d="M285.82,755.26l-4.49,8.9,5.46,8.34,9.95-.55,4.5-8.9-5.46-8.35Zm9.91,10.59a5,5,0,1,1-2.2-6.7A5,5,0,0,1,295.73,765.85Z"/><path class="cls-3" d="M983.09,615.49l-7.8,7.8a2.22,2.22,0,0,1-3.14,0L954.82,606,965.76,595l17.33,17.33A2.22,2.22,0,0,1,983.09,615.49Z"/><path class="cls-3" d="M929.76,584.54l12.76-12.76L963.75,593,951,605.77a14.25,14.25,0,0,1-20.16,0l-1.07-1.07A14.25,14.25,0,0,1,929.76,584.54Z"/><path class="cls-3" d="M962.27,528l0,0a2.69,2.69,0,0,0,0,3.82l41.1,41.1a2.69,2.69,0,0,0,3.82,0l0,0a2.69,2.69,0,0,0,0-3.82L966.09,528A2.69,2.69,0,0,0,962.27,528Z"/><path class="cls-3" d="M961.52,535.19c-1.91,6.57-7.57,23.84-17,34.53l21,21c10.69-9.46,28-15.13,34.53-17Z"/><path class="cls-3" d="M992.54,542.67a5.62,5.62,0,0,1,0,7.94l-7.94-7.94A5.62,5.62,0,0,1,992.54,542.67Z"/><path class="cls-3" d="M989.21,529.17a1,1,0,0,1-.7.29,1,1,0,0,1-1-1V520.9a1,1,0,1,1,2,0v7.57A1,1,0,0,1,989.21,529.17Z"/><path class="cls-3" d="M1005.87,530.73l-5.35,5.36a1,1,0,1,1-1.4-1.4l5.36-5.35a1,1,0,0,1,1.39,1.39Z"/><path class="cls-3" d="M1013.36,547.4a1,1,0,0,1-.7.29h-7.58a1,1,0,0,1,0-2h7.58a1,1,0,0,1,1,1A1,1,0,0,1,1013.36,547.4Z"/><circle class="cls-3" cx="670.68" cy="135.54" r="17.42" transform="translate(385.76 757.64) rotate(-76.82)"/><path class="cls-3" d="M702.45,175.51a18.85,18.85,0,0,0-17.22-14.83L675,184.94l-2.49-16,1.63-1.75-1.33-2.9h-4.31l-1.33,2.9,1.64,1.75-2.5,16-10.2-24.26a18.86,18.86,0,0,0-17.23,14.83l-2.73,22h69Z"/><circle class="cls-3" cx="748.54" cy="70.45" r="13.24"/><path class="cls-3" d="M772.69,100.81A14.33,14.33,0,0,0,759.6,89.55L751.84,108,750,95.85l1.24-1.32-1-2.21h-3.27l-1,2.21,1.24,1.32L745.24,108l-7.75-18.44a14.32,14.32,0,0,0-13.09,11.26l-2.08,16.73h52.44Z"/><path class="cls-3" d="M687.62,91.47l.69,1a48,48,0,0,1,6.31-3.8l-.53-1.06A47.62,47.62,0,0,0,687.62,91.47Z"/><path class="cls-3" d="M678.4,100l.91.77a48.45,48.45,0,0,1,5.14-5.29l-.78-.89A49.85,49.85,0,0,0,678.4,100Z"/><path class="cls-3" d="M698.71,85.56l.42,1.11a47.83,47.83,0,0,1,7.08-2L706,83.46A48.08,48.08,0,0,0,698.71,85.56Z"/><path class="cls-3" d="M671.66,110.62l1.08.51a47.16,47.16,0,0,1,3.62-6.42l-1-.66A47.79,47.79,0,0,0,671.66,110.62Z"/><path class="cls-3" d="M710.42,78.45l-.77.91,3.76,3.16c-.81,0-1.63.09-2.43.17l.11,1.18c.83-.08,1.66-.11,2.48-.15l-3.52,3.62.86.83,5-5.13Z"/><path class="cls-3" d="M763.48,131.23c0,1.17,0,2.36-.13,3.52l1.19.09c.09-1.2.13-2.41.13-3.61Z"/><path class="cls-3" d="M755.42,157.75l1,.66a48.39,48.39,0,0,0,3.72-6.57l-1.08-.51A47.16,47.16,0,0,1,755.42,157.75Z"/><path class="cls-3" d="M760.89,146.77l1.12.39a48.16,48.16,0,0,0,1.9-7.31l-1.17-.21A47,47,0,0,1,760.89,146.77Z"/><path class="cls-3" d="M725.57,177.84l.25,1.16a48.08,48.08,0,0,0,7.25-2.1l-.42-1.11A47.83,47.83,0,0,1,725.57,177.84Z"/><path class="cls-3" d="M737.16,173.82l.53,1.06a47.62,47.62,0,0,0,6.47-3.89l-.69-1A48,48,0,0,1,737.16,173.82Z"/><path class="cls-3" d="M747.33,167l.78.89a49,49,0,0,0,5.27-5.41l-.91-.77A48.45,48.45,0,0,1,747.33,167Z"/><path class="cls-3" d="M720.8,179.77l-.11-1.18c-.83.08-1.66.11-2.48.15l3.52-3.62-.86-.83-5,5.13,5.47,4.59.77-.91-3.76-3.16C719.18,179.9,720,179.85,720.8,179.77Z"/><path class="cls-3" d="M875.18,217.08a14.89,14.89,0,0,1-2.91,5.54l11.22,11.22a30.62,30.62,0,0,0,7.83-16.76Z"/><path class="cls-3" d="M904.27,217.08A43.44,43.44,0,0,1,892.6,243l11.2,11.2a59.25,59.25,0,0,0,16.36-37.07Z"/><path class="cls-3" d="M959.72,206.68H944.25l-8.41,4.45H920.26A59.51,59.51,0,1,0,901,256.92l-11.21-11.21a43.56,43.56,0,1,1,14.65-34.58h-12.9a30.74,30.74,0,1,0-10.87,25.46L869.35,225.3a14.85,14.85,0,1,1,6.24-14.17H865.18l1.91-1.91h-3.3l-3.9,3.89,3.9,3.9h3.3l-1.91-1.92h70.65l8.42,4.46h15.47l-8-6.44Z"/><path class="cls-3" d="M302.6,66.25H214.7a3.07,3.07,0,0,0-3.07,3.06v50.63A3.07,3.07,0,0,0,214.7,123h31.64v7.58l-7.28,1.72v2.49h39.18V132.3L271,130.58V123H302.6a3.07,3.07,0,0,0,3.07-3.06V69.31A3.07,3.07,0,0,0,302.6,66.25Zm.52,49.38H214.29V68.89h88.83Z"/><path class="cls-3" d="M173.3,139.8H126.44a5.48,5.48,0,0,0-5.46,5.46v71.87a5.48,5.48,0,0,0,5.46,5.47H173.3a5.48,5.48,0,0,0,5.47-5.47V145.26A5.48,5.48,0,0,0,173.3,139.8Zm-19.61,79.83a1.11,1.11,0,0,1-1.1,1.11h-5.43a1.11,1.11,0,0,1-1.11-1.11v-1.39a1.11,1.11,0,0,1,1.11-1.1h5.43a1.1,1.1,0,0,1,1.1,1.1ZM171.46,215H128.29V147.4h43.17Z"/><path class="cls-3" d="M362.4,156.92H339.34a2.77,2.77,0,0,0-2.76,2.76v45.51a2.77,2.77,0,0,0,2.76,2.77H362.4a2.78,2.78,0,0,0,2.77-2.77V159.68A2.77,2.77,0,0,0,362.4,156.92Zm-8.68,48.65a.78.78,0,0,1-.78.78h-4.13a.79.79,0,0,1-.79-.78v-2a.79.79,0,0,1,.79-.78h4.13a.78.78,0,0,1,.78.78Zm9.76-3.92H338.27V163.22h25.21Z"/><path class="cls-3" d="M314.79,247.56A17.19,17.19,0,0,0,298,226.3a17.72,17.72,0,0,0-1.94.12A34.39,34.39,0,0,0,230,217.35a23,23,0,0,0-26.6,30.21Z"/><path class="cls-13" d="M258.65,146.49a.62.62,0,0,1-.62-.62V144a.62.62,0,0,1,1.24,0v1.86A.62.62,0,0,1,258.65,146.49Z"/><path class="cls-13" d="M258.65,181.28a.62.62,0,0,1-.62-.62v-3.73a.62.62,0,0,1,1.24,0v3.73A.62.62,0,0,1,258.65,181.28Zm0-8.7A.62.62,0,0,1,258,172v-3.73a.62.62,0,1,1,1.24,0V172A.62.62,0,0,1,258.65,172.58Zm0-8.7a.62.62,0,0,1-.62-.62v-3.72a.62.62,0,1,1,1.24,0v3.72A.62.62,0,0,1,258.65,163.88Zm0-8.7a.61.61,0,0,1-.62-.61v-3.73a.62.62,0,0,1,1.24,0v3.73A.61.61,0,0,1,258.65,155.18Z"/><path class="cls-13" d="M258.65,188.1a.61.61,0,0,1-.62-.61v-1.86a.62.62,0,0,1,1.24,0v1.86A.61.61,0,0,1,258.65,188.1Z"/><path class="cls-13" d="M298.78,212.27a.61.61,0,0,1-.54-.31.62.62,0,0,1,.23-.85l1.62-.92a.62.62,0,0,1,.84.24.61.61,0,0,1-.23.84l-1.62.92A.64.64,0,0,1,298.78,212.27Z"/><path class="cls-13" d="M304.46,209.05a.61.61,0,0,1-.54-.31.62.62,0,0,1,.23-.85l3-1.72a.62.62,0,0,1,.85.23.63.63,0,0,1-.23.85L304.76,209A.56.56,0,0,1,304.46,209.05Zm7.1-4a.61.61,0,0,1-.54-.31.62.62,0,0,1,.23-.84l3.05-1.73a.62.62,0,0,1,.61,1.08l-3,1.72A.6.6,0,0,1,311.56,205Zm7.1-4a.64.64,0,0,1-.54-.32.62.62,0,0,1,.24-.84l3-1.73a.62.62,0,0,1,.85.24.62.62,0,0,1-.24.84l-3,1.73A.68.68,0,0,1,318.66,201Z"/><path class="cls-13" d="M325.77,197a.61.61,0,0,1-.54-.31.63.63,0,0,1,.23-.85l1.62-.92a.62.62,0,0,1,.84.24.61.61,0,0,1-.23.84l-1.62.92A.64.64,0,0,1,325.77,197Z"/><path class="cls-13" d="M215.59,211.29a.62.62,0,0,1-.32-.09l-1.59-1a.62.62,0,0,1,.65-1.06l1.58,1a.62.62,0,0,1,.21.85A.61.61,0,0,1,215.59,211.29Z"/><path class="cls-13" d="M209.91,207.82a.62.62,0,0,1-.32-.09l-3.07-1.88a.62.62,0,0,1,.65-1.06l3.07,1.88a.62.62,0,0,1,.2.85A.63.63,0,0,1,209.91,207.82Zm-7.16-4.38a.62.62,0,0,1-.32-.09l-3.07-1.88a.62.62,0,0,1,.65-1.06l3.07,1.88a.62.62,0,0,1-.33,1.15Zm-7.15-4.38a.63.63,0,0,1-.33-.09l-3.07-1.88a.62.62,0,0,1,.65-1.06l3.07,1.88a.62.62,0,0,1-.32,1.15Z"/><path class="cls-13" d="M188.44,194.68a.66.66,0,0,1-.33-.09l-1.58-1a.63.63,0,0,1-.21-.86.62.62,0,0,1,.85-.2l1.59,1a.62.62,0,0,1-.32,1.15Z"/><path class="cls-3" d="M232.36,485a25.59,25.59,0,1,0-3.19,38.9l6.15,6.16a2.47,2.47,0,0,0,.26,3.17l23,23a2.49,2.49,0,0,0,3.5,0l5.33-5.33a2.49,2.49,0,0,0,0-3.5l-23-23a2.46,2.46,0,0,0-3.18-.26L235.08,518A25.6,25.6,0,0,0,232.36,485ZM201.63,515.7a17.87,17.87,0,1,1,25.27,0A17.87,17.87,0,0,1,201.63,515.7Z"/><path class="cls-3" d="M222.12,485.8a44.19,44.19,0,0,0-7.07-24.05h0l-.87-1.25a44.45,44.45,0,0,0-73.12,0l-.86,1.25h0a44.39,44.39,0,0,0,0,48.1h0l.86,1.25a44.45,44.45,0,0,0,73.12,0l.87-1.25h0A44.19,44.19,0,0,0,222.12,485.8Zm-1.49-.74H202.77A69.92,69.92,0,0,0,198.5,461c5,.16,9.88.37,14.71.64A42.72,42.72,0,0,1,220.63,485.06ZM178.4,442.85c7.28.41,13.74,6.82,17.92,16.61q-8.88-.27-17.92-.27Zm-1.48,16.34c-6,0-12,.09-17.92.27,4.19-9.79,10.65-16.2,17.92-16.61Zm0,1.47v24.4H154A69,69,0,0,1,158.39,461C164.51,460.77,170.7,460.67,176.92,460.66Zm0,25.88v24.4c-6.22,0-12.41-.11-18.53-.29A69,69,0,0,1,154,486.54Zm0,25.87v16.34c-7.27-.41-13.73-6.82-17.92-16.61Q167.88,512.4,176.92,512.41Zm1.48,0c6,0,12-.1,17.92-.27-4.18,9.79-10.64,16.2-17.92,16.61Zm0-1.47v-24.4h22.89a68.73,68.73,0,0,1-4.35,24.11Q187.76,510.92,178.4,510.94Zm0-25.88v-24.4q9.34,0,18.54.29a68.73,68.73,0,0,1,4.35,24.11Zm33.71-24.95c-4.67-.26-9.42-.45-14.21-.6-3.07-7.4-7.41-13.06-12.45-16A43,43,0,0,1,212.11,460.11Zm-42.23-16.57c-5,2.91-9.38,8.57-12.46,16-4.78.15-9.53.34-14.21.6A43.06,43.06,0,0,1,169.88,443.54Zm-27.76,18.11c4.83-.27,9.75-.48,14.7-.64a70.39,70.39,0,0,0-4.27,24.05H134.7A42.64,42.64,0,0,1,142.12,461.65Zm-7.42,24.89h17.85a70.39,70.39,0,0,0,4.27,24c-5-.16-9.87-.36-14.7-.64A42.64,42.64,0,0,1,134.7,486.54Zm8.51,24.95c4.67.26,9.42.45,14.21.6,3.08,7.4,7.42,13.06,12.46,16A43.06,43.06,0,0,1,143.21,511.49Zm42.24,16.57c5-2.91,9.38-8.57,12.45-16,4.79-.15,9.54-.34,14.21-.6A43,43,0,0,1,185.45,528.06ZM213.21,510c-4.83.28-9.75.48-14.71.64a69.92,69.92,0,0,0,4.27-24h17.86A42.72,42.72,0,0,1,213.21,510Z"/></g></g></svg>