<?xml version="1.0" encoding="UTF-8" standalone="no"?>
<svg
   xmlns:dc="http://purl.org/dc/elements/1.1/"
   xmlns:cc="http://creativecommons.org/ns#"
   xmlns:rdf="http://www.w3.org/1999/02/22-rdf-syntax-ns#"
   xmlns:svg="http://www.w3.org/2000/svg"
   xmlns="http://www.w3.org/2000/svg"
   xmlns:xlink="http://www.w3.org/1999/xlink"
   xmlns:sodipodi="http://sodipodi.sourceforge.net/DTD/sodipodi-0.dtd"
   xmlns:inkscape="http://www.inkscape.org/namespaces/inkscape"
   version="1.1"
   id="Layer_1"
   x="0px"
   y="0px"
   width="750"
   height="300"
   viewBox="0 0 750 299.99999"
   enable-background="new 0 0 595.271 841.89"
   xml:space="preserve">
<path
   d="M 375.00216,300 C 582.10244,300 750,232.84528 750,150.00345 750,67.16161 582.10244,0.00258398 375.00216,0.00258398 167.89757,0.00258398 -6.7670004e-7,67.16161 -6.7670004e-7,150.00345 -6.7670004e-7,232.84528 167.89757,300 375.00216,300"
   id="path7"
   inkscape:connector-curvature="0"
   style="fill:#ffed00"
   clip-path="none" /><path
   d="m 375.00216,284.25245 c 196.7472,0 356.24665,-60.10737 356.24665,-134.249 0,-74.14595 -159.49945,-134.253322 -356.24665,-134.253322 -196.75152,0 -356.250974,60.107372 -356.250974,134.253322 0,74.14163 159.499454,134.249 356.250974,134.249"
   id="path9"
   inkscape:connector-curvature="0"
   style="fill:#e20015"
   clip-path="none" /><path
   d="m 375.00216,278.06391 c 181.21544,0 328.12203,-57.33677 328.12203,-128.06046 0,-70.728012 -146.90659,-128.064783 -328.12203,-128.064783 -181.21976,0 -328.126351,57.336771 -328.126351,128.064783 0,70.72369 146.906591,128.06046 328.126351,128.06046"
   id="path11"
   inkscape:connector-curvature="0"
   style="fill:#ffed00"
   clip-path="none" /><path
   d="m 162.38226,101.00437 c 1.35077,1.69603 2.69723,4.376 7.09049,2.12327 1.22131,-0.81565 2.01106,-3.918547 2.83965,-4.678088 0.37546,-0.353878 1.55361,-0.668915 2.24842,-0.375456 0.55239,-0.245988 1.64423,-0.03884 1.97653,0.375456 0.61713,0.78975 0.0777,2.852598 0.18989,3.435198 -0.70776,9.92152 0.88901,20.55942 -8.49738,26.7609 l -1.07457,0.52219 1.60539,1.59676 c 11.34134,11.34997 16.82644,25.52233 14.88011,41.82227 -2.48145,14.52623 -13.28335,29.76886 -27.63264,35.2669 -15.58787,7.08187 -36.31128,4.06959 -48.88687,-7.27175 -14.69886,-11.87215 -18.76845,-31.7195 -14.168044,-49.26232 3.892651,-12.57991 14.789484,-24.90089 26.653014,-30.57156 0,0 -4.00918,0.009 -4.50547,-0.0259 -4.65651,0.64302 -15.298722,-2.17074 -18.876336,4.29832 -1.592448,-7.44006 1.687391,-16.57614 4.876606,-23.13582 7.79393,-12.938101 21.96629,-18.781394 37.01903,-16.476875 9.38638,1.946325 17.00337,8.147811 24.26218,15.596495"
   id="path13"
   inkscape:connector-curvature="0"
   style="fill:#e20015"
   clip-path="none" /><path
   d="m 544.43175,114.46898 c 1.76939,3.18489 3.05112,5.86918 4.43642,9.96035 l -21.19381,5.81309 c -2.20526,-10.03804 -13.88321,-22.33312 -26.98962,-21.26717 -12.04478,0.52218 -23.73136,9.56763 -28.51303,20.73203 -6.38274,16.12732 -5.67498,38.80137 7.60837,51.55822 8.68294,8.85988 20.71909,12.52812 33.65719,7.62131 6.93514,-3.28847 11.22051,-8.2557 16.89118,-17.46083 5.49804,1.95064 15.4584,6.30937 20.95644,8.25138 l -0.0302,-87.891061 c 0,0.258935 10.62496,-0.440189 10.62496,0 h 11.50964 V 139.6288 h 10.18908 27.8959 10.18045 V 91.34611 c -0.17694,-0.181254 11.94983,0 11.94983,0 h 10.1934 v 43.4104 73.53314 c 0.17262,-0.17694 -22.14323,0 -22.14323,0 v -36.76873 -10.63358 h -32.31937 -15.94606 v 47.40231 h -9.74026 -12.39434 l 0.0302,-28.61229 c -10.91841,17.60756 -27.37371,30.64924 -44.55834,31.35699 -20.36521,1.77371 -38.56832,-6.91355 -50.43616,-24.11113 -4.59609,-6.19717 -5.59299,-10.72421 -8.38949,-18.94107 0.17694,0 -0.15967,9.01955 -1.21699,13.80553 -1.60539,7.97519 -8.16939,16.67108 -15.78638,21.09886 -17.00338,9.74026 -43.5744,9.03682 -60.21958,-0.88469 -11.16009,-7.43574 -15.05274,-21.44411 -15.58787,-34.0197 h -15.50156 -17.70681 -9.30439 c 0,0 -20.98234,40.48443 -20.8054,40.3075 -0.17694,0.17693 -27.10183,-0.17694 -27.01552,0 -0.0863,-0.17694 -18.4232,-31.45625 -29.39772,-47.68714 l -7.34511,-0.004 v 47.69146 c 0,0 -21.97061,-0.17694 -22.14323,0 0.17262,-0.17694 -0.10358,-120.167277 0.0691,-119.636461 l 42.07257,-0.133783 c 16.2913,0.694808 31.19731,4.781661 38.93946,24.702374 4.60472,12.40297 1.59676,26.93783 -7.2588,36.50115 -5.49805,5.67499 -15.28147,7.80257 -20.88309,9.10156 l 18.0046,30.16157 49.49536,-97.199761 h 13.71922 18.15996 19.04033 v 74.422141 c 0.44019,7.53069 -0.44451,14.17668 5.31679,19.04897 10.62927,7.08617 28.16346,6.81861 37.37291,-0.26757 5.13553,-4.96292 6.02023,-11.6909 6.02023,-18.60446 V 91.786299 c 0.0863,-0.181254 11.51827,0 11.94983,0 h 10.18908 c 0.0906,0 0,40.333391 -0.17694,40.251401 3.06406,-10.09414 7.97519,-19.87324 15.4023,-26.96374 13.82711,-14.707486 35.25827,-18.077953 54.38923,-13.641538 10.79758,3.189212 21.60379,12.756848 26.73932,23.036558"
   id="path15"
   inkscape:connector-curvature="0"
   style="fill:#009034"
   clip-path="none" /><path
   d="m 169.11887,113.75691 c 1.06595,2.47714 -1.92043,6.93945 -3.28847,8.52758 -2.30452,2.12758 -4.68671,3.16763 -7.69467,0.86312 -1.14363,-0.97101 -1.7737,-2.12758 -1.7737,-2.12758 8.54916,-3.14175 8.49737,-4.78598 12.75684,-7.26312"
   id="path17"
   inkscape:connector-curvature="0"
   style="fill:#ffed00"
   clip-path="none" /><path
   d="m 355.09008,101.52656 v 46.06879 h -32.31936 c -0.18126,-0.17262 23.01497,-46.06879 23.01497,-46.06879 h 9.30439 z"
   id="path19"
   inkscape:connector-curvature="0"
   style="fill:#ffed00"
   clip-path="none" /><path
   d="m 263.52214,117.47694 c 2.47715,3.54309 2.30452,8.68294 1.59677,13.11504 -3.90128,14.35361 -17.24074,12.23898 -37.43764,12.15267 -0.17262,0.0863 0.23304,-33.16091 0.0518,-32.97965 0.62144,0.26325 5.58435,0.0863 11.34997,0.0863 13.90047,0 18.59151,-0.87606 24.43911,7.62563"
   id="path21"
   inkscape:connector-curvature="0"
   style="fill:#ffed00"
   clip-path="none" />
</svg>