<?xml version="1.0" encoding="utf-8"?><svg xmlns="http://www.w3.org/2000/svg" xmlns:xlink="http://www.w3.org/1999/xlink" viewBox="0 0 500 500"><defs><style>.cls-1{fill:#fff167;}.cls-10,.cls-12,.cls-15,.cls-18,.cls-2,.cls-38,.cls-8{fill:none;}.cls-3{isolation:isolate;}.cls-4{fill:#29abe2;opacity:0.2;}.cls-21,.cls-25,.cls-5{fill:#999bad;}.cls-36,.cls-6{fill:#e9ebee;}.cls-7{fill:#fff;}.cls-15,.cls-8{stroke:#97a3cc;}.cls-10,.cls-12,.cls-15,.cls-38,.cls-8{stroke-miterlimit:10;}.cls-8{stroke-width:0.75px;}.cls-9{fill:#8fcdff;}.cls-10{stroke:#1d455d;}.cls-11{fill:#e9526a;}.cls-12{stroke:#fff;}.cls-13{fill:#f8ffff;}.cls-14{clip-path:url(#clip-path);}.cls-16{fill:#618e2e;}.cls-17{fill:#78a347;}.cls-18{stroke:#244c58;stroke-linecap:round;stroke-linejoin:round;}.cls-19{fill:#9bc666;}.cls-20{fill:#85b052;}.cls-21{font-size:4.97px;font-family:Raleway-Bold, Raleway;letter-spacing:0.2em;}.cls-21,.cls-25{font-weight:700;}.cls-22{letter-spacing:0.17em;}.cls-23{letter-spacing:0.2em;}.cls-24,.cls-33{fill:#e3e8e9;}.cls-24,.cls-36{mix-blend-mode:multiply;}.cls-25{font-size:6.14px;font-family:Roboto-Bold, Roboto Bold;}.cls-26{letter-spacing:-0.04em;}.cls-27{letter-spacing:-0.06em;}.cls-28{letter-spacing:-0.04em;}.cls-29{letter-spacing:-0.02em;}.cls-30{letter-spacing:0em;}.cls-31{letter-spacing:-0.01em;}.cls-32{letter-spacing:0.01em;}.cls-34{clip-path:url(#clip-path-3);}.cls-35{fill:#f8c083;}.cls-37{fill:#d94c63;}.cls-38{stroke:#999bad;}</style><clipPath id="clip-path"><path class="cls-1" d="M378.7,350.52A10.39,10.39,0,1,1,372,337.43,10.4,10.4,0,0,1,378.7,350.52Z"/></clipPath><clipPath id="clip-path-3"><path class="cls-2" d="M318.91,264.88l-143.4-.1a.57.57,0,0,1-.6-.4l-12.23-44.53c-.08-.34.28-.68.72-.68l167.64.11c.44,0,.8.34.72.68l-12.25,44.52A.58.58,0,0,1,318.91,264.88Z"/></clipPath></defs><title>asg</title><g class="cls-3"><g id="OBJECTS"><path class="cls-4" d="M264.81,439.45h0C146,445.41,44.9,354,38.93,235.18h0C33,116.41,124.42,15.28,243.19,9.31h0C362,3.34,463.1,94.8,469.07,213.57h0C475,332.35,383.58,433.48,264.81,439.45Z"/><path id="_Görbe_" data-name="&lt;Görbe&gt;" class="cls-5" d="M373.71,310.47,352.23,303a5.08,5.08,0,0,1-3.13-6.47l18.21-52.4a5.06,5.06,0,0,1,6.46-3.12l21.49,7.5a5.07,5.07,0,0,1,3.12,6.47l-18.2,52.4A5.08,5.08,0,0,1,373.71,310.47Z"/><path id="_Görbe_2" data-name="&lt;Görbe&gt;" class="cls-6" d="M374,309.74l-21.49-7.5a5.07,5.07,0,0,1-3.12-6.47l18.2-52.4a5.09,5.09,0,0,1,6.47-3.13l21.48,7.51a5.08,5.08,0,0,1,3.13,6.47l-18.21,52.4A5.06,5.06,0,0,1,374,309.74Z"/><path id="_Görbe_3" data-name="&lt;Görbe&gt;" class="cls-7" d="M367.34,302.14a2.66,2.66,0,1,1-1.64-3.4A2.65,2.65,0,0,1,367.34,302.14Z"/><path id="_Görbe_4" data-name="&lt;Görbe&gt;" class="cls-7" d="M388.39,250.74l-7.58-2.65a.54.54,0,0,1-.34-.69h0a.55.55,0,0,1,.7-.34l7.58,2.65a.55.55,0,0,1,.34.7h0A.55.55,0,0,1,388.39,250.74Z"/><path class="cls-7" d="M379.09,246.91a.55.55,0,0,1-.7.34.55.55,0,1,1,.36-1A.54.54,0,0,1,379.09,246.91Z"/><path id="_Görbe_5" data-name="&lt;Görbe&gt;" class="cls-7" d="M379.69,300.85l-26-9.09a1.13,1.13,0,0,1-.69-1.44l14.84-42.71a1.12,1.12,0,0,1,1.44-.69l26,9.09a1.13,1.13,0,0,1,.7,1.43l-14.84,42.71A1.14,1.14,0,0,1,379.69,300.85Z"/><path class="cls-5" d="M394.93,260.44l1-3a1.13,1.13,0,0,0-.7-1.43l-26-9.09a1.12,1.12,0,0,0-1.44.69l-1,3Z"/><path id="_Görbe_6" data-name="&lt;Görbe&gt;" class="cls-8" d="M379.69,300.85l-26-9.09a1.13,1.13,0,0,1-.69-1.44l14.84-42.71a1.12,1.12,0,0,1,1.44-.69l26,9.09a1.13,1.13,0,0,1,.7,1.43l-14.84,42.71A1.14,1.14,0,0,1,379.69,300.85Z"/><path id="_Görbe_7" data-name="&lt;Görbe&gt;" class="cls-9" d="M385,263.76l-13-4.54a.72.72,0,0,1-.45-.92h0a.72.72,0,0,1,.92-.44l13,4.54a.73.73,0,0,1,.44.92h0A.73.73,0,0,1,385,263.76Z"/><path id="_Görbe_8" data-name="&lt;Görbe&gt;" class="cls-9" d="M384,279.64l-21.15-7.39a.8.8,0,0,1-.5-1l2.25-6.47a.8.8,0,0,1,1-.49l21.15,7.38a.81.81,0,0,1,.5,1L385,279.15A.81.81,0,0,1,384,279.64Z"/><path id="_Görbe_9" data-name="&lt;Görbe&gt;" class="cls-9" d="M379.66,292.18l-21.16-7.39a.82.82,0,0,1-.5-1l1.52-4.38a.81.81,0,0,1,1-.49l21.16,7.39a.81.81,0,0,1,.5,1l-1.52,4.37A.82.82,0,0,1,379.66,292.18Z"/><path id="_Görbe_10" data-name="&lt;Görbe&gt;" class="cls-9" d="M382.56,283.92,365,277.8a.72.72,0,0,1-.44-.9l.64-1.84a.71.71,0,0,1,.9-.44l17.53,6.12a.7.7,0,0,1,.43.9l-.63,1.84A.72.72,0,0,1,382.56,283.92Z"/><path id="_Görbe_11" data-name="&lt;Görbe&gt;" class="cls-9" d="M362.2,276.81h0a1.7,1.7,0,0,1-1-2.15h0a1.68,1.68,0,0,1,2.14-1h0a1.68,1.68,0,0,1,1,2.14h0A1.68,1.68,0,0,1,362.2,276.81Z"/><path class="cls-7" d="M371.67,250.2a.3.3,0,0,0,.38-.16.29.29,0,0,0-.19-.36.3.3,0,0,0-.38.17A.28.28,0,0,0,371.67,250.2Z"/><path class="cls-7" d="M370.65,249.85a.29.29,0,0,0,.38-.16.28.28,0,0,0-.19-.35.29.29,0,0,0-.38.16A.28.28,0,0,0,370.65,249.85Z"/><path class="cls-7" d="M369.63,249.51a.3.3,0,0,0,.38-.17.28.28,0,0,0-.2-.35.29.29,0,0,0-.37.16A.29.29,0,0,0,369.63,249.51Z"/><path class="cls-7" d="M373.72,250.89a.28.28,0,0,0,.37-.16.3.3,0,0,0-.19-.36.29.29,0,0,0-.37.17A.27.27,0,0,0,373.72,250.89Z"/><path class="cls-7" d="M372.7,250.55a.29.29,0,0,0,.37-.17.28.28,0,0,0-.19-.35.29.29,0,0,0-.38.16A.3.3,0,0,0,372.7,250.55Z"/><polygon class="cls-9" points="392.46 257.64 392.87 256.48 390.72 255.75 390.31 256.91 392.46 257.64"/><path class="cls-7" d="M393.41,257.64l-.11.3a.22.22,0,0,1-.28.13l-2.79-.94a.22.22,0,0,1-.14-.28l.42-1.19a.21.21,0,0,1,.28-.13l2.79.94a.23.23,0,0,1,.14.28l-.1.3.09,0a.21.21,0,0,1,.14.27l-.06.2a.23.23,0,0,1-.29.12Zm-.54-1.16-2.15-.73-.41,1.16,2.15.73.41-1.16"/><path class="cls-7" d="M376.15,251.2a.94.94,0,0,0-.7,0,.1.1,0,0,0-.05.14.09.09,0,0,0,.06.06.14.14,0,0,0,.09,0,.7.7,0,0,1,.53,0,.75.75,0,0,1,.41.33.12.12,0,0,0,.06.06.14.14,0,0,0,.09,0,.11.11,0,0,0,.05-.15A.94.94,0,0,0,376.15,251.2Z"/><path class="cls-7" d="M376,251.67a.22.22,0,0,0-.16,0,.22.22,0,0,0-.15.3.27.27,0,0,0,.33.14.21.21,0,0,0,.14-.29A.29.29,0,0,0,376,251.67Z"/><path class="cls-7" d="M376.33,250.67a1.66,1.66,0,0,0-1.16,0,.11.11,0,0,0-.05.15.13.13,0,0,0,.07,0h.09a1.38,1.38,0,0,1,1,0,1.35,1.35,0,0,1,.76.63.13.13,0,0,0,.07.06h.09a.11.11,0,0,0,.05-.14A1.6,1.6,0,0,0,376.33,250.67Z"/><path class="cls-7" d="M387.75,254.84l-1.06.95-.19-.06.92-.82-.54-.19.05-.16Z"/><path class="cls-7" d="M387.72,255.85a.23.23,0,0,0,.15.2.24.24,0,0,0,.24,0,.55.55,0,0,0,.16-.28.25.25,0,0,1-.29.05.38.38,0,0,1-.22-.21.44.44,0,0,1,0-.32A.41.41,0,0,1,388,255a.35.35,0,0,1,.3,0,.43.43,0,0,1,.24.54,1.85,1.85,0,0,1-.18.44.43.43,0,0,1-.23.21.39.39,0,0,1-.3,0,.36.36,0,0,1-.25-.34Zm.63-.55a.22.22,0,0,0-.13-.12.19.19,0,0,0-.18,0,.22.22,0,0,0-.12.13.23.23,0,0,0,.12.31.31.31,0,0,0,.19,0,.27.27,0,0,0,.13-.13A.25.25,0,0,0,388.35,255.3Z"/><path class="cls-7" d="M389.24,255.4a.28.28,0,0,1,0,.2.25.25,0,0,1-.13.14.21.21,0,0,1-.19,0,.24.24,0,0,1-.15-.13.25.25,0,0,1,0-.19.24.24,0,0,1,.13-.15.25.25,0,0,1,.19,0A.24.24,0,0,1,389.24,255.4Zm-.19,0c-.1-.05-.2.08-.15.17a.12.12,0,0,0,.22,0A.11.11,0,0,0,389.05,255.4Zm.69.1-1,1-.12,0,1-1Zm-.15.87a.25.25,0,0,1,0,.19.24.24,0,0,1-.13.15.25.25,0,0,1-.19,0,.23.23,0,0,1-.15-.12.28.28,0,0,1,0-.2.27.27,0,0,1,.13-.15.25.25,0,0,1,.19,0A.26.26,0,0,1,389.59,256.37Zm-.19,0a.12.12,0,0,0-.15.17c0,.09.2.09.22,0A.12.12,0,0,0,389.4,256.36Z"/><path class="cls-7" d="M379.52,252.14H380l-.41,1.19-.18-.07.32-.94h-.22Z"/><path class="cls-7" d="M380.1,252.92a.42.42,0,0,1,0-.33.41.41,0,0,1,.22-.23.44.44,0,0,1,.32,0,.34.34,0,0,1,.22.2.49.49,0,0,1,0,.34c-.1.37-.31.81-.72.65a.38.38,0,0,1-.26-.35h.19a.21.21,0,0,0,.14.19.24.24,0,0,0,.24,0,.44.44,0,0,0,.15-.26.27.27,0,0,1-.3.05A.35.35,0,0,1,380.1,252.92Zm.29,0a.23.23,0,0,0,.18,0,.19.19,0,0,0,.11-.12.21.21,0,0,0-.13-.28.22.22,0,0,0-.16,0,.2.2,0,0,0-.11.13A.21.21,0,0,0,380.39,253Z"/><path class="cls-7" d="M381.26,253a.13.13,0,0,1,.08.17.12.12,0,0,1-.16.08.14.14,0,0,1-.09-.17A.14.14,0,0,1,381.26,253Zm-.14.8a.12.12,0,0,1-.16.08.13.13,0,0,1-.09-.17.12.12,0,0,1,.17-.07A.12.12,0,0,1,381.12,253.75Z"/><path class="cls-7" d="M382.05,254.19l-.74-.26,0-.08.68-.41a.32.32,0,0,0,.14-.15.18.18,0,0,0-.13-.24.21.21,0,0,0-.26.11l-.17-.1a.39.39,0,0,1,.21-.19.41.41,0,0,1,.29,0,.43.43,0,0,1,.23.19.36.36,0,0,1,0,.29.5.5,0,0,1-.24.26l-.43.25.43.15Z"/><path class="cls-7" d="M382.78,253.24a.4.4,0,0,1,.34,0,.45.45,0,0,1,.26.22.56.56,0,0,1,0,.34,1.32,1.32,0,0,1-.13.38.43.43,0,0,1-.56.27.37.37,0,0,1-.28-.3.82.82,0,0,1,.06-.45A.77.77,0,0,1,382.78,253.24Zm.37.68q.15-.42-.09-.51c-.17,0-.3.06-.4.34s-.06.45.1.51S383.06,254.2,383.15,253.92Z"/><rect class="cls-7" x="366.69" y="157.05" width="21.96" height="25.43"/><line class="cls-10" x1="374.66" y1="161.37" x2="385.09" y2="161.37"/><line class="cls-10" x1="370.21" y1="165.22" x2="385.09" y2="165.22"/><line class="cls-10" x1="370.21" y1="169.07" x2="385.09" y2="169.07"/><line class="cls-10" x1="370.21" y1="172.92" x2="385.09" y2="172.92"/><line class="cls-10" x1="372.32" y1="176.77" x2="381.18" y2="176.77"/><rect class="cls-7" x="367.73" y="199.26" width="21.96" height="25.43"/><line class="cls-10" x1="375.7" y1="203.58" x2="386.13" y2="203.58"/><line class="cls-10" x1="371.26" y1="207.42" x2="386.13" y2="207.42"/><line class="cls-10" x1="371.26" y1="211.27" x2="386.13" y2="211.27"/><line class="cls-10" x1="371.26" y1="215.12" x2="386.13" y2="215.12"/><line class="cls-10" x1="373.36" y1="218.97" x2="382.23" y2="218.97"/><rect class="cls-11" x="342.94" y="148.65" width="21.96" height="25.43"/><line class="cls-12" x1="350.92" y1="152.97" x2="357.96" y2="152.97"/><line class="cls-12" x1="346.47" y1="156.82" x2="361.35" y2="156.82"/><line class="cls-12" x1="346.47" y1="160.67" x2="361.35" y2="160.67"/><line class="cls-12" x1="346.47" y1="164.52" x2="361.35" y2="164.52"/><line class="cls-12" x1="346.47" y1="168.37" x2="358.42" y2="168.37"/><rect class="cls-11" x="387.01" y="169.77" width="21.96" height="25.43" transform="translate(73.89 -111.88) rotate(17.62)"/><line class="cls-12" x1="397.66" y1="173.57" x2="404.38" y2="175.7"/><line class="cls-12" x1="392.26" y1="175.89" x2="406.44" y2="180.39"/><line class="cls-12" x1="391.1" y1="179.56" x2="405.28" y2="184.06"/><line class="cls-12" x1="389.93" y1="183.23" x2="404.11" y2="187.73"/><line class="cls-12" x1="388.77" y1="186.9" x2="400.15" y2="190.51"/><rect class="cls-11" x="348.74" y="178.98" width="21.96" height="25.43"/><line class="cls-12" x1="356.71" y1="183.3" x2="363.76" y2="183.3"/><line class="cls-12" x1="352.27" y1="187.15" x2="367.14" y2="187.15"/><line class="cls-12" x1="352.27" y1="191" x2="367.14" y2="191"/><line class="cls-12" x1="352.27" y1="194.85" x2="367.14" y2="194.85"/><line class="cls-12" x1="352.27" y1="198.7" x2="364.21" y2="198.7"/><rect class="cls-7" x="324.51" y="169.77" width="21.96" height="25.43"/><line class="cls-10" x1="332.5" y1="174.78" x2="339.54" y2="174.78"/><line class="cls-10" x1="328.05" y1="178.63" x2="342.93" y2="178.63"/><line class="cls-10" x1="328.05" y1="182.48" x2="342.93" y2="182.48"/><line class="cls-10" x1="328.05" y1="186.33" x2="342.93" y2="186.33"/><line class="cls-10" x1="328.05" y1="190.18" x2="340" y2="190.18"/><path class="cls-7" d="M388.2,351.89a19.3,19.3,0,0,1-23.28,14.44,19.56,19.56,0,0,1-15.12-21.64c.07-.52.16-1,.28-1.55a19.3,19.3,0,0,1,23.28-14.44,19.69,19.69,0,0,1,9.44,5.16A19.31,19.31,0,0,1,388.2,351.89Z"/><path class="cls-6" d="M379.84,336.83a15.44,15.44,0,0,0-7.4-4,15.11,15.11,0,0,0-18.22,11.3c-.09.41-.17.81-.22,1.21a15.31,15.31,0,0,0,11.84,16.94,15,15,0,0,0,14-25.41Z"/><path class="cls-7" d="M372.78,335a12.91,12.91,0,1,0,8.31,16.25A12.9,12.9,0,0,0,372.78,335Z"/><rect class="cls-7" x="379.2" y="350.89" width="5.64" height="3.33" rx="1.05" ry="1.05" transform="translate(127.19 -100.54) rotate(17.94)"/><path class="cls-13" d="M381.09,351.29A12.91,12.91,0,1,1,372.78,335,12.92,12.92,0,0,1,381.09,351.29Z"/><path class="cls-1" d="M378.7,350.52A10.39,10.39,0,1,1,372,337.43,10.4,10.4,0,0,1,378.7,350.52Z"/><g class="cls-14"><path class="cls-9" d="M378.7,350.52A10.39,10.39,0,1,1,372,337.43,10.4,10.4,0,0,1,378.7,350.52Z"/></g><rect class="cls-15" x="379.2" y="350.89" width="5.64" height="3.33" rx="1.05" ry="1.05" transform="translate(127.19 -100.54) rotate(17.94)"/><path class="cls-7" d="M372.78,335a12.91,12.91,0,1,0,8.31,16.25A12.9,12.9,0,0,0,372.78,335Z"/><path class="cls-15" d="M381.09,351.29A12.91,12.91,0,1,1,372.78,335,12.92,12.92,0,0,1,381.09,351.29Z"/><path class="cls-1" d="M378.7,350.52A10.39,10.39,0,1,1,372,337.43,10.4,10.4,0,0,1,378.7,350.52Z"/><g class="cls-14"><path class="cls-9" d="M378.7,350.52A10.39,10.39,0,1,1,372,337.43,10.4,10.4,0,0,1,378.7,350.52Z"/></g><circle class="cls-7" cx="366.81" cy="106.66" r="20.47" transform="translate(178.03 438.76) rotate(-76.6)"/><path class="cls-16" d="M373.68,100.76c3.38-2.59,5.09-9.71,0-16.89s-7.41-10.41-7.41-10.41-9,9.06-9.51,17.59,5.58,8.56,8.82,9.71S373.68,100.76,373.68,100.76Z"/><path class="cls-17" d="M363.51,111.22c-.39,6.81,5.32,11.55,12.87,11a31.33,31.33,0,0,1,13,1.72s1.71-12.4-6.09-18.21S364.08,101.2,363.51,111.22Z"/><path class="cls-18" d="M364,108.45c.5-1.27,12,.83,19.88,8.84"/><path class="cls-18" d="M366.81,86a122.26,122.26,0,0,1,.62,14.81"/><path class="cls-19" d="M368.64,112.11c5,4.6,12.31,3.17,16.69-3a31.28,31.28,0,0,1,9.52-8.95s-8.54-9.17-18-6.79S361.23,105.34,368.64,112.11Z"/><path class="cls-18" d="M366.81,110c-.67-1.19,8.2-8.75,19.41-9.83"/><path class="cls-20" d="M362.2,105.22c-6.73,1.1-10,7.66-8,15a94.27,94.27,0,0,0,5.62,15.26,24.79,24.79,0,0,0,12-12.13C375.79,114.44,372.11,103.6,362.2,105.22Z"/><path class="cls-18" d="M365,105.1c1.34.22-4.32,12.19-4.32,21.33"/><path class="cls-19" d="M365.43,110.43c-5,4.6-12.31,3.17-16.69-3a31.4,31.4,0,0,0-9.52-9s8.54-9.16,18-6.78S372.84,103.65,365.43,110.43Z"/><path class="cls-18" d="M367.26,108.29c.67-1.18-8.2-8.74-19.41-9.83"/><rect class="cls-7" x="87.7" y="270.67" width="67.01" height="78.71"/><rect class="cls-5" x="87.7" y="270.67" width="67.01" height="10.58" transform="translate(242.4 551.92) rotate(180)"/><path class="cls-5" d="M135.5,312.15v-2.07a.85.85,0,0,0-.84-.85h-.91a4.87,4.87,0,0,0-.3-.71l.65-.64a.85.85,0,0,0,0-1.2l-1.47-1.47a.85.85,0,0,0-1.2,0l-.64.65a4.87,4.87,0,0,0-.71-.3v-.91a.85.85,0,0,0-.85-.84h-2.07a.85.85,0,0,0-.85.84v.91a4.87,4.87,0,0,0-.71.3l-.64-.65a.85.85,0,0,0-1.2,0l-1.46,1.47a.85.85,0,0,0,0,1.2l.64.64c-.11.23-.21.47-.3.71h-.91a.85.85,0,0,0-.84.85v2.07a.85.85,0,0,0,.84.85h.91c.09.24.19.48.3.71l-.64.64a.85.85,0,0,0,0,1.2l1.46,1.46a.85.85,0,0,0,1.2,0l.64-.64c.23.11.47.21.71.3v.91a.85.85,0,0,0,.85.84h2.07a.85.85,0,0,0,.85-.84v-.91c.24-.09.48-.19.71-.3l.64.64a.85.85,0,0,0,1.2,0l1.47-1.46a.85.85,0,0,0,0-1.2l-.65-.64a4.87,4.87,0,0,0,.3-.71h.91A.85.85,0,0,0,135.5,312.15Zm-5.61,1.16a2.78,2.78,0,0,1-3.89-3.89,1.62,1.62,0,0,1,.5-.51,2.79,2.79,0,0,1,3.9,3.9A1.62,1.62,0,0,1,129.89,313.31Z"/><path class="cls-5" d="M146.42,316.29V314.8a.61.61,0,0,0-.61-.61h-.66a4.71,4.71,0,0,0-.21-.52l.46-.46a.6.6,0,0,0,0-.86l-1.06-1.06a.6.6,0,0,0-.86,0l-.46.46a4.71,4.71,0,0,0-.52-.21v-.66a.61.61,0,0,0-.61-.61H140.4a.61.61,0,0,0-.61.61v.66a4.71,4.71,0,0,0-.52.21l-.46-.46a.6.6,0,0,0-.86,0l-1.06,1.06a.6.6,0,0,0,0,.86l.46.46a4.71,4.71,0,0,0-.21.52h-.66a.61.61,0,0,0-.61.61v1.49a.61.61,0,0,0,.61.61h.66a4.71,4.71,0,0,0,.21.52l-.46.46a.62.62,0,0,0,0,.87L138,319.8a.6.6,0,0,0,.86,0l.46-.46a4.71,4.71,0,0,0,.52.21v.66a.61.61,0,0,0,.61.61h1.49a.61.61,0,0,0,.61-.61v-.66a4.71,4.71,0,0,0,.52-.21l.46.46a.6.6,0,0,0,.86,0l1.06-1.05a.62.62,0,0,0,0-.87l-.46-.46a4.71,4.71,0,0,0,.21-.52h.66A.61.61,0,0,0,146.42,316.29Zm-4,.84a2,2,0,0,1-2.81-2.81,1.24,1.24,0,0,1,.36-.36,2,2,0,0,1,2.81,2.81A1.24,1.24,0,0,1,142.37,317.13Z"/><rect class="cls-5" x="93.16" y="311.23" width="9.66" height="29.38"/><rect class="cls-5" x="107.02" y="321.74" width="9.66" height="18.86"/><rect class="cls-5" x="120.89" y="331.17" width="9.66" height="9.43"/><rect class="cls-7" x="91.27" y="274.52" width="3.73" height="3.73" rx="0.6" ry="0.6"/><rect class="cls-7" x="97.62" y="274.52" width="3.73" height="3.73" rx="0.6" ry="0.6"/><rect class="cls-7" x="103.98" y="274.52" width="3.73" height="3.73" rx="0.6" ry="0.6"/><rect class="cls-7" x="146.42" y="274.52" width="3.73" height="3.73" rx="0.6" ry="0.6"/><text class="cls-21" transform="translate(100.34 293.64)">PR<tspan class="cls-22" x="8.39" y="0">OTO</tspan><tspan class="cls-23" x="21.46" y="0">TYPE</tspan></text><rect class="cls-7" x="254.15" y="104.81" width="64.74" height="83.87" transform="translate(165.51 -151.56) rotate(40.8)"/><rect class="cls-24" x="252.29" y="96.04" width="64.74" height="83.87" transform="translate(159.33 -152.47) rotate(40.8)"/><rect class="cls-7" x="252.27" y="94.48" width="64.74" height="83.87" transform="translate(158.31 -152.84) rotate(40.8)"/><rect class="cls-6" x="280.08" y="113.48" width="32.89" height="38.41" transform="translate(158.75 -161.51) rotate(40.8)"/><polyline class="cls-12" points="295.52 117.72 294.67 114.55 297.92 115.05"/><polyline class="cls-12" points="299.75 121.51 303 122.01 302.14 118.84"/><line class="cls-12" x1="301.15" y1="117.51" x2="296.82" y2="119.15"/><polyline class="cls-12" points="305.67 126.82 304.82 123.65 308.06 124.15"/><polyline class="cls-12" points="309.9 130.61 313.14 131.11 312.29 127.94"/><line class="cls-12" x1="311.3" y1="126.61" x2="306.96" y2="128.24"/><polyline class="cls-12" points="290.11 124.02 289.26 120.85 292.5 121.36"/><polyline class="cls-12" points="294.34 127.81 297.58 128.32 296.73 125.15"/><line class="cls-12" x1="295.74" y1="123.82" x2="291.41" y2="125.45"/><polyline class="cls-12" points="300.25 133.12 299.4 129.95 302.65 130.46"/><polyline class="cls-12" points="304.48 136.91 307.73 137.42 306.88 134.25"/><line class="cls-12" x1="305.88" y1="132.91" x2="301.55" y2="134.55"/><rect class="cls-24" x="240.24" y="66.34" width="64.74" height="83.87" transform="translate(68.11 -102) rotate(24.14)"/><rect class="cls-7" x="239.56" y="65.02" width="64.74" height="83.87" transform="translate(67.51 -101.84) rotate(24.14)"/><rect class="cls-6" x="264.5" y="78.11" width="36.96" height="4.57" transform="translate(58.01 -109.16) rotate(24.26)"/><polygon class="cls-6" points="287.69 96.15 257.49 82.59 256.6 84.57 286.8 98.13 287.69 96.15"/><polygon class="cls-6" points="283.42 105.64 253.22 92.08 252.32 94.06 282.52 107.62 283.42 105.64"/><polygon class="cls-6" points="279.14 115.13 248.94 101.57 248.05 103.55 278.25 117.11 279.14 115.13"/><polygon class="cls-9" points="293.19 99.45 295.06 103.53 303.03 99.35 295.77 101.45 293.19 99.45"/><polygon class="cls-9" points="288.68 109.45 290.56 113.53 298.53 109.35 291.27 111.44 288.68 109.45"/><polygon class="cls-9" points="284.18 119.44 286.06 123.52 294.02 119.34 286.77 121.44 284.18 119.44"/><polygon class="cls-6" points="274.9 124.54 244.7 110.98 243.81 112.95 274.01 126.51 274.9 124.54"/><polygon class="cls-6" points="270.63 134.03 240.43 120.47 239.53 122.44 269.73 136 270.63 134.03"/><polygon class="cls-9" points="280.17 128.35 282.05 132.42 290.01 128.24 282.75 130.34 280.17 128.35"/><polygon class="cls-9" points="275.66 138.34 277.54 142.42 285.51 138.24 278.25 140.34 275.66 138.34"/><rect class="cls-24" x="212.05" y="100.34" width="64.74" height="83.87" transform="translate(-7.89 14.51) rotate(-3.35)"/><rect class="cls-7" x="210.83" y="99.48" width="64.74" height="83.87" transform="translate(-7.84 14.44) rotate(-3.35)"/><text class="cls-25" transform="matrix(1, -0.05, 0.05, 1, 219.04, 118.59)">-<tspan class="cls-26" x="1.88" y="0"> </tspan><tspan class="cls-27" x="2.94" y="0">T</tspan><tspan x="5.59" y="0">ablet</tspan><tspan class="cls-28" x="18.61" y="0"> </tspan><tspan class="cls-29" x="19.69" y="0">V</tspan><tspan x="23.01" y="0">iew</tspan><tspan x="0" y="8.35">- </tspan><tspan class="cls-30" x="3.19" y="8.35">D</tspan><tspan x="7.3" y="8.35">esk</tspan><tspan class="cls-31" x="15.69" y="8.35">t</tspan><tspan x="17.68" y="8.35">op</tspan><tspan class="cls-28" x="24.55" y="8.35"> </tspan><tspan class="cls-29" x="25.63" y="8.35">V</tspan><tspan x="28.96" y="8.35">iew</tspan><tspan x="0" y="16.7">- </tspan><tspan class="cls-32" x="3.19" y="16.7">M</tspan><tspan x="8.16" y="16.7">obile</tspan><tspan class="cls-28" x="20.99" y="16.7"> </tspan><tspan class="cls-29" x="22.07" y="16.7">V</tspan><tspan x="25.4" y="16.7">iew</tspan></text><path id="_Görbe_12" data-name="&lt;Görbe&gt;" class="cls-5" d="M205.78,217.19,150.89,237a6.27,6.27,0,0,1-8-3.76L108.8,139.42a6.26,6.26,0,0,1,3.75-8l54.9-19.85a6.28,6.28,0,0,1,8,3.76l34.05,93.86A6.24,6.24,0,0,1,205.78,217.19Z"/><path id="_Görbe_13" data-name="&lt;Görbe&gt;" class="cls-6" d="M205.26,215.73l-54.9,19.85a6.27,6.27,0,0,1-8-3.76L108.28,138a6.24,6.24,0,0,1,3.75-8l54.89-19.85a6.28,6.28,0,0,1,8,3.76L209,207.71A6.25,6.25,0,0,1,205.26,215.73Z"/><path id="_Görbe_14" data-name="&lt;Görbe&gt;" class="cls-7" d="M178.85,218.73a3.29,3.29,0,1,1-4.21-2A3.28,3.28,0,0,1,178.85,218.73Z"/><path id="_Görbe_15" data-name="&lt;Görbe&gt;" class="cls-7" d="M134,128.81l-9.32,3.37a.69.69,0,0,1-.87-.41h0a.67.67,0,0,1,.41-.87l9.31-3.36a.67.67,0,0,1,.87.4h0A.68.68,0,0,1,134,128.81Z"/><path class="cls-7" d="M122.07,132.38a.69.69,0,0,1-.41.87.68.68,0,1,1,.41-.87Z"/><path id="_Görbe_16" data-name="&lt;Görbe&gt;" class="cls-7" d="M203.81,202.76l-60.47,21.86a1.38,1.38,0,0,1-1.78-.83l-29.73-82a1.38,1.38,0,0,1,.83-1.78l60.47-21.86a1.39,1.39,0,0,1,1.78.83l29.73,82A1.39,1.39,0,0,1,203.81,202.76Z"/><path class="cls-5" d="M176.25,122.69,174.91,119a1.39,1.39,0,0,0-1.78-.83L112.66,140a1.38,1.38,0,0,0-.83,1.78l1.34,3.68Z"/><path id="_Görbe_17" data-name="&lt;Görbe&gt;" class="cls-9" d="M140.83,143.91l-16,5.77a.89.89,0,0,1-1.14-.53h0a.88.88,0,0,1,.53-1.13l16-5.78a.89.89,0,0,1,1.14.53h0A.89.89,0,0,1,140.83,143.91Z"/><path id="_Görbe_18" data-name="&lt;Görbe&gt;" class="cls-9" d="M180.13,149.79,126.88,169a1,1,0,0,1-1.28-.6l-2.88-7.94a1,1,0,0,1,.59-1.28L176.56,140a1,1,0,0,1,1.28.6l2.89,7.94A1,1,0,0,1,180.13,149.79Z"/><path id="_Görbe_19" data-name="&lt;Görbe&gt;" class="cls-9" d="M185.72,165.17l-53.25,19.25a1,1,0,0,1-1.28-.59l-1.95-5.37a1,1,0,0,1,.6-1.28l53.25-19.25a1,1,0,0,1,1.28.6l1.95,5.37A1,1,0,0,1,185.72,165.17Z"/><path id="_Görbe_20" data-name="&lt;Görbe&gt;" class="cls-9" d="M182.07,155l-48.78,17.64a.87.87,0,0,1-1.12-.53l-.82-2.25a.87.87,0,0,1,.52-1.12l48.79-17.64a.87.87,0,0,1,1.12.52l.82,2.26A.88.88,0,0,1,182.07,155Z"/><path id="_Görbe_21" data-name="&lt;Görbe&gt;" class="cls-9" d="M129.8,173.91h0a2.08,2.08,0,0,1-2.66-1.25h0a2.06,2.06,0,0,1,1.24-2.65h0a2.08,2.08,0,0,1,2.66,1.24h0A2.08,2.08,0,0,1,129.8,173.91Z"/><path id="_Görbe_22" data-name="&lt;Görbe&gt;" class="cls-15" d="M203.81,202.76l-60.47,21.86a1.38,1.38,0,0,1-1.78-.83l-29.73-82a1.38,1.38,0,0,1,.83-1.78l60.47-21.86a1.39,1.39,0,0,1,1.78.83l29.73,82A1.39,1.39,0,0,1,203.81,202.76Z"/><path class="cls-5" d="M174.24,365.15c-3.73,0-3-3-3-6.77l.06-80.69A6.75,6.75,0,0,1,178,271l138.35.09a6.75,6.75,0,0,1,6.74,6.75l-.05,80.69c0,3.73.7,6.74-3,6.74"/><path class="cls-7" d="M319.69,361.86l-145.18-.08a3.44,3.44,0,0,1-3.43-3.44l.06-87.32a3.43,3.43,0,0,1,3.43-3.43l145.25.08a3.42,3.42,0,0,1,3.43,3.44l-.12,87.32A3.44,3.44,0,0,1,319.69,361.86Z"/><path class="cls-15" d="M319.69,361.86l-145.18-.08a3.44,3.44,0,0,1-3.43-3.44l.06-87.32a3.43,3.43,0,0,1,3.43-3.43l145.25.08a3.42,3.42,0,0,1,3.43,3.44l-.12,87.32A3.44,3.44,0,0,1,319.69,361.86Z"/><rect class="cls-33" x="229.14" y="330.76" width="39.56" height="27.4" rx="3.8" ry="3.8" transform="translate(497.63 689.07) rotate(-179.96)"/><path class="cls-7" d="M332.91,213.29l-171.37-.11c-1.82,0-3.5.73-3.75,1.62l-.81,1.83,180.4.06-.72-1.77C336.4,214,334.73,213.29,332.91,213.29Z"/><path class="cls-7" d="M320.94,268.13,173.47,268a2.58,2.58,0,0,1-2.59-1.59L157,217.66c-.35-1.45,1.18-2.91,3-2.91l174.37.12c1.86,0,3.39,1.46,3,2.9l-13.92,48.77A2.57,2.57,0,0,1,320.94,268.13Z"/><path class="cls-15" d="M320.94,268.13,173.47,268a2.58,2.58,0,0,1-2.59-1.59L157,217.66c-.35-1.45,1.18-2.91,3-2.91l174.37.12c1.86,0,3.39,1.46,3,2.9l-13.92,48.77A2.57,2.57,0,0,1,320.94,268.13Z"/><g class="cls-34"><path class="cls-7" d="M318.91,264.88l-143.4-.1a.57.57,0,0,1-.6-.4l-12.23-44.53c-.08-.34.28-.68.72-.68l167.64.11c.44,0,.8.34.72.68l-12.25,44.52A.58.58,0,0,1,318.91,264.88Z"/><path class="cls-33" d="M318.91,264.88l-143.4-.1a.57.57,0,0,1-.6-.4l-12.23-44.53c-.08-.34.28-.68.72-.68l167.64.11c.44,0,.8.34.72.68l-12.25,44.52A.58.58,0,0,1,318.91,264.88Z"/></g><path class="cls-33" d="M311.43,325.17l-128.52-.09a2,2,0,0,1-2-2l0-45.62a2,2,0,0,1,2-2l128.56.08a2,2,0,0,1,2,2l0,45.63A2,2,0,0,1,311.43,325.17Z"/><rect class="cls-7" x="186.65" y="280.99" width="6.57" height="4.51" rx="0.86" ry="0.86"/><rect class="cls-7" x="195.23" y="280.99" width="6.57" height="4.51" rx="0.86" ry="0.86"/><rect class="cls-7" x="203.8" y="281" width="6.57" height="4.52" rx="0.86" ry="0.86"/><rect class="cls-7" x="212.37" y="281" width="6.57" height="4.52" rx="0.86" ry="0.86"/><rect class="cls-7" x="220.94" y="281.01" width="6.57" height="4.52" rx="0.86" ry="0.86"/><rect class="cls-7" x="229.51" y="281.02" width="6.57" height="4.51" rx="0.86" ry="0.86"/><rect class="cls-7" x="238.08" y="281.02" width="6.57" height="4.52" rx="0.86" ry="0.86"/><rect class="cls-7" x="246.65" y="281.03" width="6.57" height="4.51" rx="0.86" ry="0.86"/><rect class="cls-7" x="255.22" y="281.03" width="6.57" height="4.52" rx="0.86" ry="0.86"/><rect class="cls-7" x="263.79" y="281.04" width="6.57" height="4.52" rx="0.86" ry="0.86"/><rect class="cls-7" x="272.36" y="281.04" width="6.57" height="4.52" rx="0.86" ry="0.86"/><rect class="cls-7" x="280.93" y="281.05" width="6.57" height="4.51" rx="0.86" ry="0.86"/><rect class="cls-7" x="289.5" y="281.05" width="8.54" height="4.52" rx="0.86" ry="0.86"/><rect class="cls-7" x="300.03" y="281.06" width="8.58" height="4.51" rx="0.86" ry="0.86" transform="translate(0.37 -0.4) rotate(0.08)"/><rect class="cls-7" x="186.63" y="312.53" width="6.57" height="8.63" rx="0.86" ry="0.86"/><rect class="cls-7" x="195.2" y="312.53" width="6.57" height="8.63" rx="0.86" ry="0.86"/><rect class="cls-7" x="203.77" y="312.54" width="6.57" height="8.63" rx="0.86" ry="0.86"/><rect class="cls-7" x="212.34" y="312.54" width="6.57" height="8.63" rx="0.86" ry="0.86"/><rect class="cls-7" x="220.92" y="312.56" width="32.28" height="8.63" rx="0.86" ry="0.86"/><rect class="cls-7" x="255.2" y="312.57" width="6.57" height="8.63" rx="0.86" ry="0.86"/><rect class="cls-7" x="263.77" y="312.58" width="6.57" height="8.63" rx="0.86" ry="0.86"/><rect class="cls-7" x="272.34" y="312.58" width="6.57" height="8.63" rx="0.86" ry="0.86"/><rect class="cls-7" x="291.25" y="317.91" width="7.23" height="3.32" rx="0.86" ry="0.86"/><rect class="cls-7" x="300.68" y="317.91" width="7.23" height="3.32" rx="0.86" ry="0.86"/><rect class="cls-7" x="281.83" y="317.9" width="7.23" height="3.32" rx="0.86" ry="0.86"/><rect class="cls-7" x="291.26" y="312.59" width="7.23" height="3.32" rx="0.86" ry="0.86"/><rect class="cls-7" x="186.65" y="287.33" width="6.57" height="6.57" rx="0.86" ry="0.86"/><rect class="cls-7" x="195.22" y="287.33" width="6.57" height="6.57" rx="0.86" ry="0.86"/><rect class="cls-7" x="203.79" y="287.34" width="6.57" height="6.57" rx="0.86" ry="0.86"/><rect class="cls-7" x="212.36" y="287.35" width="6.57" height="6.57" rx="0.86" ry="0.86"/><rect class="cls-7" x="220.93" y="287.35" width="6.57" height="6.57" rx="0.86" ry="0.86"/><rect class="cls-7" x="229.5" y="287.36" width="6.57" height="6.57" rx="0.86" ry="0.86"/><rect class="cls-7" x="238.07" y="287.36" width="6.57" height="6.57" rx="0.86" ry="0.86"/><rect class="cls-7" x="246.64" y="287.37" width="6.57" height="6.57" rx="0.86" ry="0.86"/><rect class="cls-7" x="255.21" y="287.37" width="6.57" height="6.57" rx="0.86" ry="0.86"/><rect class="cls-7" x="263.78" y="287.38" width="6.57" height="6.57" rx="0.86" ry="0.86"/><rect class="cls-7" x="272.36" y="287.38" width="6.57" height="6.57" rx="0.86" ry="0.86"/><rect class="cls-7" x="280.93" y="287.39" width="6.57" height="6.57" rx="0.86" ry="0.86"/><rect class="cls-7" x="289.5" y="287.39" width="8.54" height="6.57" rx="0.86" ry="0.86"/><rect class="cls-7" x="300.03" y="287.4" width="8.58" height="6.57" rx="0.86" ry="0.86" transform="translate(0.38 -0.39) rotate(0.07)"/><path class="cls-7" d="M196.54,302.32l-9,0a.86.86,0,0,1-.86-.86v-4.86a.85.85,0,0,1,.85-.85h9a.87.87,0,0,1,.86.86v4.86A.86.86,0,0,1,196.54,302.32Z"/><path class="cls-7" d="M209.5,302.31h-9a.86.86,0,0,1-.85-.86V296.6a.86.86,0,0,1,.86-.86h9a.86.86,0,0,1,.86.86v4.86A.86.86,0,0,1,209.5,302.31Z"/><rect class="cls-7" x="212.36" y="295.75" width="6.57" height="6.57" rx="0.86" ry="0.86"/><rect class="cls-7" x="220.93" y="295.75" width="6.57" height="6.57" rx="0.86" ry="0.86"/><rect class="cls-7" x="229.5" y="295.76" width="6.57" height="6.57" rx="0.86" ry="0.86"/><rect class="cls-7" x="238.07" y="295.76" width="6.57" height="6.57" rx="0.86" ry="0.86"/><rect class="cls-7" x="246.64" y="295.77" width="6.57" height="6.57" rx="0.86" ry="0.86"/><rect class="cls-7" x="255.21" y="295.77" width="6.57" height="6.57" rx="0.86" ry="0.86"/><rect class="cls-7" x="263.78" y="295.78" width="6.57" height="6.57" rx="0.86" ry="0.86"/><rect class="cls-7" x="272.35" y="295.78" width="6.57" height="6.57" rx="0.86" ry="0.86"/><rect class="cls-7" x="280.92" y="295.79" width="6.57" height="6.57" rx="0.86" ry="0.86"/><rect class="cls-7" x="289.3" y="295.78" width="6.57" height="6.57" rx="0.86" ry="0.86"/><path class="cls-7" d="M307.75,302.38l-8.9,0a.85.85,0,0,1-.85-.85v-4.86a.85.85,0,0,1,.86-.86l8.89,0a.87.87,0,0,1,.86.86v4.86A.85.85,0,0,1,307.75,302.38Z"/><rect class="cls-7" x="186.64" y="304.13" width="15.14" height="6.57" rx="0.86" ry="0.86"/><rect class="cls-7" x="203.78" y="304.14" width="6.57" height="6.57" rx="0.86" ry="0.86"/><rect class="cls-7" x="212.35" y="304.14" width="6.57" height="6.57" rx="0.86" ry="0.86"/><rect class="cls-7" x="220.92" y="304.15" width="6.57" height="6.57" rx="0.86" ry="0.86"/><rect class="cls-7" x="229.49" y="304.16" width="6.57" height="6.57" rx="0.86" ry="0.86"/><rect class="cls-7" x="238.06" y="304.16" width="6.57" height="6.57" rx="0.86" ry="0.86"/><rect class="cls-7" x="246.63" y="304.17" width="6.57" height="6.57" rx="0.86" ry="0.86"/><rect class="cls-7" x="255.2" y="304.17" width="6.57" height="6.57" rx="0.86" ry="0.86"/><rect class="cls-7" x="263.77" y="304.18" width="6.57" height="6.57" rx="0.86" ry="0.86"/><rect class="cls-7" x="272.34" y="304.18" width="6.57" height="6.57" rx="0.86" ry="0.86"/><rect class="cls-7" x="280.92" y="304.19" width="6.57" height="6.57" rx="0.86" ry="0.86"/><rect class="cls-7" x="289.49" y="304.2" width="19.11" height="6.57" rx="0.86" ry="0.86"/><path class="cls-35" d="M307.32,319.34c1.29.82,3.59,2.87,3.1-1.15a100.71,100.71,0,0,0-2.49-12.68,64.3,64.3,0,0,0-2.76-7.44c-.77-1.65-.82-2.88-1.5-3.08s-2.41-.18-2.46,2.33,1.26,5.14,1.84,6.61a31.9,31.9,0,0,1,1.44,6.89c.18,2.05-.37,5.11.24,6.38A6,6,0,0,0,307.32,319.34Z"/><path class="cls-36" d="M306,305.09a46,46,0,0,0-4.77-8,1.79,1.79,0,0,0,0,.23c0,2.52,1.26,5.14,1.84,6.61a31.9,31.9,0,0,1,1.44,6.89c.18,2.05-.37,5.11.24,6.38a6,6,0,0,0,2.59,2.14c.31.2.68.47,1.05.7C308,315,308.13,310,306,305.09Z"/><path class="cls-35" d="M292.39,331.33s-.1,3.27-.36,6.78c-.35,4.68-1,9.78-2,8.14-1.83-2.87-6.06-7.61-8-10.85s-1.67-5.64-1.94-8-1.61-8.22-1.85-10.7-2.12-6.3.24-5.85a8.19,8.19,0,0,1,2.62.89c.55.31,1,.7,1.73,1.18,1.53,1.06,2.41,3.28,2.35,6.57S291.19,329.37,292.39,331.33Z"/><path class="cls-36" d="M292.39,331.33s-.1,3.27-.36,6.78l-4.8-6.1a23.07,23.07,0,0,1-3.17-4.8c-1.37-3.09-1.31-6.59-1.66-9.95a17.93,17.93,0,0,0-1.34-5.52c.55.31,1,.7,1.73,1.18,1.53,1.06,2.41,3.28,2.35,6.57S291.19,329.37,292.39,331.33Z"/><path class="cls-35" d="M293.78,299.09a10.78,10.78,0,0,1-2.84-6,2.6,2.6,0,0,1,3-2.52c1,.4,3.6,4.91,5,6.33a51,51,0,0,1,5.47,6.79c.57,1.19,1.94,10.3,2.37,11.82s-3-.07-5.2-1.78-2.46-5.31-3.29-8.1C297.77,303.91,294.91,300.31,293.78,299.09Z"/><path class="cls-36" d="M299.28,299.94a39.91,39.91,0,0,0-8.2-6,10.9,10.9,0,0,0,2.7,5.19c1.13,1.22,4,4.82,4.49,6.53.83,2.79,1.09,6.39,3.29,8.1a17.18,17.18,0,0,0,2.59,1.65C303.11,310.05,302.69,303.44,299.28,299.94Z"/><path class="cls-35" d="M301.56,364.13c-2.76-5-7.54-11.78-10.69-16.41s-4.13-13.15-3.68-18.53,0-9.2-2.87-15.22-3.66-8.74-4.81-10.26-3.33-4.65-1.54-6,3.5.23,7,4.35,4.65,7.36,6.43,10.14,3.53,4.12,3.12,1.74-.93-6.5-1.7-8.52a10.69,10.69,0,0,0-3.45-4.54c-1.37-1.12-1.93-.45-4-2.52s-.36-4.2.87-3.82,5,1.09,6.92,2.17,5.07,2.84,5.78,4.41,2.79,10.31,3.33,11.27,5.73,2.38,6.74,3.15,2.07,5,2.82,7.87a166.37,166.37,0,0,1,3.06,18c.47,5.13,4.43,16.09,6.88,19.86s4.25,6.42,4.25,6.42l-17.09,9S304.91,370.2,301.56,364.13Z"/><path class="cls-37" d="M301.24,370.26l24.64-9.68,21.71,57.8a236.73,236.73,0,0,1-24.49,10Z"/><rect class="cls-11" x="296.76" y="355.57" width="30.2" height="11.02" transform="translate(734.17 583.09) rotate(158.55)"/><path class="cls-35" d="M197.21,319c-1.18,1-3.24,3.25-3.2-.8a104.15,104.15,0,0,1,1.06-12.88,67.12,67.12,0,0,1,1.92-7.7c.58-1.72.5-2.95,1.15-3.23s2.38-.44,2.7,2.05-.68,5.24-1.09,6.77a32,32,0,0,0-.66,7c0,2.05.92,5,.46,6.36A5.91,5.91,0,0,1,197.21,319Z"/><path class="cls-36" d="M200.85,298.44a37.65,37.65,0,0,0-2.4,4.18,48.43,48.43,0,0,0-1.64,16.71l.4-.34a5.91,5.91,0,0,0,2.34-2.42c.46-1.32-.41-4.31-.46-6.36a32,32,0,0,1,.66-7A28,28,0,0,0,200.85,298.44Z"/><path class="cls-35" d="M212,331.33s.1,3.27.36,6.78c.35,4.68,1,9.78,2,8.14,1.83-2.87,6.06-7.61,8-10.85s1.66-5.64,1.94-8,1.61-8.22,1.85-10.7,2.12-6.3-.24-5.85a8.19,8.19,0,0,0-2.62.89c-.55.31-1,.7-1.73,1.18-1.53,1.06-2.41,3.28-2.35,6.57S213.24,329.37,212,331.33Z"/><path class="cls-36" d="M212,331.33s.1,3.27.36,6.78l4.8-6.1a23.07,23.07,0,0,0,3.17-4.8c1.37-3.09,1.31-6.59,1.66-9.95a17.93,17.93,0,0,1,1.34-5.52c-.55.31-1,.7-1.73,1.18-1.53,1.06-2.41,3.28-2.35,6.57S213.24,329.37,212,331.33Z"/><path class="cls-35" d="M210.65,299.09a10.78,10.78,0,0,0,2.84-6,2.6,2.6,0,0,0-3-2.52c-1,.4-3.6,4.91-5,6.33a51,51,0,0,0-5.47,6.79c-.57,1.19-1.94,10.3-2.37,11.82s3-.07,5.2-1.78,2.46-5.31,3.28-8.1C206.66,303.91,209.52,300.31,210.65,299.09Z"/><path class="cls-36" d="M205.14,299.94a40.24,40.24,0,0,1,8.21-6,10.9,10.9,0,0,1-2.7,5.19c-1.13,1.22-4,4.82-4.5,6.53-.82,2.79-1.08,6.39-3.28,8.1a17.18,17.18,0,0,1-2.59,1.65C201.32,310.05,201.74,303.44,205.14,299.94Z"/><path class="cls-35" d="M202.87,364.13c2.76-5,7.54-11.78,10.69-16.41s4.12-13.15,3.68-18.53,0-9.2,2.87-15.22,3.66-8.74,4.81-10.26,3.33-4.65,1.54-6-3.5.23-7,4.35-4.64,7.36-6.42,10.14-3.53,4.12-3.12,1.74.93-6.5,1.7-8.52,3.28-4.53,4.65-5.66,1.32-1.6,3.37-3.67-.67-5.11-1.9-4.73-3.4,2.36-5.66,3.94c-1.83,1.28-6.35,5.56-7.06,7.13s-2.33,9-2.87,10-5.73,2.38-6.74,3.15-2.07,5-2.82,7.87a166.37,166.37,0,0,0-3.06,18c-.47,5.13-4.43,16.09-6.88,19.86s-4.25,6.42-4.25,6.42l17.09,9S199.51,370.2,202.87,364.13Z"/><path class="cls-37" d="M203.19,371l-24.64-9.68-23.9,54.14a215,215,0,0,0,23.78,10.61Z"/><rect class="cls-11" x="177.47" y="355.57" width="30.2" height="11.02" transform="translate(145.4 -45.41) rotate(21.45)"/><polygon class="cls-7" points="263.11 223.49 263.11 261.65 315.41 261.65 323.25 223.42 263.11 223.49"/><path id="_Görbe_23" data-name="&lt;Görbe&gt;" class="cls-9" d="M222.94,226l-21.22.26a1.31,1.31,0,0,1-1.26-1.08h0a.93.93,0,0,1,.94-1.1l21.37-.28A1.21,1.21,0,0,1,224,224.9h0A1,1,0,0,1,222.94,226Z"/><polygon id="_Görbe_24" data-name="&lt;Görbe&gt;" class="cls-9" points="249.43 242.2 179.73 242.6 177.12 230.77 249.42 230 249.43 242.2"/><polygon id="_Görbe_25" data-name="&lt;Görbe&gt;" class="cls-9" points="249.45 259.6 183.47 259.53 181.76 251.79 249.44 251.65 249.45 259.6"/><polygon id="_Görbe_26" data-name="&lt;Görbe&gt;" class="cls-9" points="249.34 248.34 186.64 248.56 185.74 244.12 249.34 243.79 249.34 248.34"/><path id="_Görbe_27" data-name="&lt;Görbe&gt;" class="cls-9" d="M183.41,248.57h0a3,3,0,0,1-2.85-2.19h0a1.81,1.81,0,0,1,1.9-2.24h0a3,3,0,0,1,2.86,2.22h0A1.82,1.82,0,0,1,183.41,248.57Z"/><line class="cls-38" x1="268.42" y1="237.9" x2="311.56" y2="237.9"/><line class="cls-38" x1="268.42" y1="242.92" x2="310.59" y2="242.92"/><line class="cls-38" x1="268.42" y1="247.72" x2="309.67" y2="247.72"/><line class="cls-38" x1="268.42" y1="252.32" x2="308.78" y2="252.32"/><line class="cls-38" x1="268.42" y1="256.72" x2="307.93" y2="256.72"/><polyline class="cls-38" points="273.52 233.82 270.77 232.03 273.52 230.24"/><polyline class="cls-38" points="279.2 233.82 281.95 232.03 279.2 230.24"/><line class="cls-38" x1="277.57" y1="229.91" x2="275.43" y2="234.02"/><polyline class="cls-38" points="287.14 233.82 284.39 232.03 287.14 230.24"/><polyline class="cls-38" points="292.82 233.82 295.57 232.03 292.82 230.24"/><line class="cls-38" x1="291.2" y1="229.91" x2="289.06" y2="234.02"/></g></g></svg>