<?xml version="1.0" encoding="utf-8"?><svg id="OBJECTS" xmlns="http://www.w3.org/2000/svg" xmlns:xlink="http://www.w3.org/1999/xlink" viewBox="0 0 500 439.33"><defs><style>.cls-1{fill:#29abe2;}.cls-1,.cls-15,.cls-23,.cls-5{opacity:0.2;}.cls-2{fill:#593730;}.cls-3{opacity:0.25;}.cls-4{fill:#43302b;}.cls-6{fill:#04424c;}.cls-23,.cls-29,.cls-7{fill:#fff;}.cls-8{fill:#2e7fdb;}.cls-9{fill:#f1997c;}.cls-10{fill:#ea7764;}.cls-11{fill:none;}.cls-12{fill:#fdbc95;}.cls-13{fill:#182632;}.cls-14{fill:#fd5672;}.cls-15,.cls-16{fill:#fffcff;}.cls-16,.cls-26,.cls-27,.cls-28,.cls-30{opacity:0.5;}.cls-17{fill:#481715;}.cls-18{fill:#2e63ca;}.cls-19{fill:#d9385e;}.cls-20{fill:#efefef;}.cls-21{fill:url(#Degradado_sin_nombre_4);}.cls-22{fill:url(#Degradado_sin_nombre_4-2);}.cls-24{fill:url(#Degradado_sin_nombre_4-3);}.cls-25{fill:url(#Degradado_sin_nombre_4-4);}.cls-26{fill:url(#Degradado_sin_nombre_4-5);}.cls-27{fill:url(#Degradado_sin_nombre_4-6);}.cls-28{fill:url(#Degradado_sin_nombre_4-7);}.cls-29{font-size:27.76px;font-family:BebasNeueBold, BebasNeueBold;}.cls-30{fill:url(#Degradado_sin_nombre_4-8);}</style><linearGradient id="Degradado_sin_nombre_4" x1="118.02" y1="189.8" x2="199.29" y2="268.37" gradientUnits="userSpaceOnUse"><stop offset="0" stop-color="#fff"/><stop offset="0.22" stop-color="#fff" stop-opacity="0.76"/><stop offset="0.6" stop-color="#fff" stop-opacity="0.36"/><stop offset="0.87" stop-color="#fff" stop-opacity="0.1"/><stop offset="1" stop-color="#fff" stop-opacity="0"/></linearGradient><linearGradient id="Degradado_sin_nombre_4-2" x1="248.49" y1="311.15" x2="248.49" y2="175.08" xlink:href="#Degradado_sin_nombre_4"/><linearGradient id="Degradado_sin_nombre_4-3" x1="374.03" y1="283.4" x2="380.5" y2="242.63" xlink:href="#Degradado_sin_nombre_4"/><linearGradient id="Degradado_sin_nombre_4-4" x1="385.59" y1="283.49" x2="389.3" y2="260.08" xlink:href="#Degradado_sin_nombre_4"/><linearGradient id="Degradado_sin_nombre_4-5" x1="360.28" y1="169.98" x2="360.28" y2="256.32" gradientTransform="translate(503.15 -185.96) rotate(81.08)" xlink:href="#Degradado_sin_nombre_4"/><linearGradient id="Degradado_sin_nombre_4-6" x1="167.17" y1="60.47" x2="167.17" y2="146.82" gradientTransform="translate(43.22 -53.21) rotate(20.71)" xlink:href="#Degradado_sin_nombre_4"/><linearGradient id="Degradado_sin_nombre_4-7" x1="152.72" y1="136.35" x2="152.72" y2="227.14" xlink:href="#Degradado_sin_nombre_4"/><linearGradient id="Degradado_sin_nombre_4-8" x1="344.78" y1="119.56" x2="344.78" y2="209.92" xlink:href="#Degradado_sin_nombre_4"/></defs><title>daf</title><circle class="cls-1" cx="252.43" cy="232.26" r="205.97" transform="translate(-90.3 246.52) rotate(-45)"/><path class="cls-2" d="M54.55,319H446.41a0,0,0,0,1,0,0v.11a12.78,12.78,0,0,1-12.78,12.78H67.33a12.78,12.78,0,0,1-12.78-12.78V319A0,0,0,0,1,54.55,319Z"/><path class="cls-3" d="M424.38,323.56c0,1.88-77.49,3.41-173.08,3.41s-173.09-1.53-173.09-3.41,77.5-3.41,173.09-3.41S424.38,321.68,424.38,323.56Z"/><rect class="cls-4" x="85.97" y="331.93" width="329.03" height="107.4"/><rect class="cls-5" x="85.93" y="331.93" width="329.07" height="12.52"/><path class="cls-6" d="M311.27,304.94V205.06a19.44,19.44,0,0,0-19.38-19.38H205.65a19.44,19.44,0,0,0-19.38,19.38v99.88Z"/><path class="cls-2" d="M225.1,125.81a14.64,14.64,0,0,1-14.65,14.64,14.42,14.42,0,0,1-5.95-1.26,14.65,14.65,0,1,1,20.6-13.38Z"/><path class="cls-2" d="M302,124.86a14.64,14.64,0,0,1-8.33,13.22,14.27,14.27,0,0,1-2.15.83,14.64,14.64,0,1,1,0-28.09,15.42,15.42,0,0,1,2.46,1c.34.17.68.36,1,.56A14.63,14.63,0,0,1,302,124.86Z"/><path class="cls-2" d="M295.65,124.39A47.22,47.22,0,0,1,294.21,136c-.18.7-.38,1.39-.59,2.08s-.42,1.35-.66,2a46.94,46.94,0,0,1-91.17-15.39v-.31a47.88,47.88,0,0,1,.66-7.91,46.57,46.57,0,0,1,6.34-16.76,45.71,45.71,0,0,1,3.11-4.43A46.73,46.73,0,0,1,215,91.77q1.59-1.65,3.35-3.15a46.71,46.71,0,0,1,19.22-9.82c.94-.23,1.88-.43,2.84-.6.78-.15,1.57-.27,2.37-.37.64-.08,1.28-.15,1.93-.2,1.33-.12,2.67-.17,4-.17a46.82,46.82,0,0,1,33.63,14.19c.36.37.72.76,1.07,1.14a45.35,45.35,0,0,1,3.23,4c.38.51.74,1,1.1,1.57a47.22,47.22,0,0,1,3.35,5.88,46.3,46.3,0,0,1,2.85,7.61c.15.56.3,1.12.43,1.69a42.68,42.68,0,0,1,.86,4.67A47.2,47.2,0,0,1,295.65,124.39Z"/><path class="cls-7" d="M289.61,320.15l-.2-26.65c0-5-.51-4.71.22-5V214a6.14,6.14,0,0,0-6.3-6.38H214.21a6,6,0,0,0-6.32,6.38V292.8l-.13,27.35Z"/><path class="cls-8" d="M231,207.57s.64,19.07,17.54,19.07c19,0,17.48-19.07,17.48-19.07Z"/><path class="cls-9" d="M259.07,189.68v17.89a15.24,15.24,0,0,1-.35,2.87c-.69,3.26-2.78,8.13-9,8.13-7.57,0-10.1-4.87-10.94-8.13a12.53,12.53,0,0,1-.43-2.87V189.68Z"/><path class="cls-10" d="M259.07,189.68v9.83a22.85,22.85,0,0,1-9.6,1.62c-5.58-.17-8.43-.85-11.24-2l.09-9.48Z"/><path class="cls-9" d="M281.81,141.77s3.61-5,11.43-2.5,3,27.85-11.49,30Z"/><path class="cls-10" d="M285.05,148.43s1.85-4.62,5.73-4.44,2.59,11.46-5.73,17.74Z"/><path class="cls-9" d="M215.91,141.77s-3.61-5-11.44-2.5-3,27.85,11.49,30Z"/><path class="cls-10" d="M212.66,148.43s-1.85-4.62-5.73-4.44-2.59,11.46,5.73,17.74Z"/><path class="cls-11" d="M248.69,196.32c-.71,0-1.43,0-2.14-.06A9.23,9.23,0,0,0,248.69,196.32Z"/><path class="cls-12" d="M286.88,126.34v31.79a38.29,38.29,0,0,1-38.18,38.2c-.73,0-1.43,0-2.15-.07a38.3,38.3,0,0,1-36-38.13V126.34a38.19,38.19,0,1,1,76.37,0Z"/><path class="cls-13" d="M230.53,151.94h0A4,4,0,0,1,226.6,148v-4a4,4,0,0,1,3.93-3.94h0a4,4,0,0,1,3.94,3.94v4A4,4,0,0,1,230.53,151.94Z"/><path class="cls-13" d="M266.2,152.17h0a4,4,0,0,1-3.94-3.94v-4a4,4,0,0,1,3.94-3.94h0a4,4,0,0,1,3.94,3.94v4A4,4,0,0,1,266.2,152.17Z"/><path class="cls-2" d="M222.94,128.31a17.39,17.39,0,0,1,11.22-3.67,2.47,2.47,0,0,1,2.34,2.54h0a2.47,2.47,0,0,1-2,2.35,42.24,42.24,0,0,0-9.22,2.57,2.23,2.23,0,0,1-3.16-1.79h0A2.24,2.24,0,0,1,222.94,128.31Z"/><path class="cls-2" d="M274.17,128.6A17.47,17.47,0,0,0,263,124.93a2.47,2.47,0,0,0-2.34,2.54h0a2.46,2.46,0,0,0,2,2.36,42.24,42.24,0,0,1,9.22,2.57,2.24,2.24,0,0,0,3.16-1.8h0A2.22,2.22,0,0,0,274.17,128.6Z"/><path class="cls-13" d="M266.65,164.39a18,18,0,0,1-.45,4.05c0,.11-.05.22-.08.33a18.08,18.08,0,0,1-4.43,8.11l0,0a18.2,18.2,0,0,1-30.84-8.15c0-.11-.06-.22-.08-.33a18,18,0,0,1-.46-4.05Z"/><path class="cls-7" d="M266.65,164.39a18,18,0,0,1-.45,4.05c0,.11-.05.22-.08.33H230.81c0-.11-.06-.22-.08-.33a18,18,0,0,1-.46-4.05Z"/><path class="cls-14" d="M261.65,176.92a18.18,18.18,0,0,1-26.36,0c.53-.18,1.05-.34,1.58-.5h0c7.45-2.19,15-2,22.88,0C260.39,176.57,261,176.74,261.65,176.92Z"/><path class="cls-9" d="M241.05,156.2A8,8,0,0,1,249,152c5.87.34,7.36,4.25,7.36,4.25Z"/><rect class="cls-9" x="215.1" y="153.94" width="11.5" height="5.6" rx="2.69" ry="2.69"/><path class="cls-2" d="M216,120.62s0,14.79-5.35,17.94a33.62,33.62,0,0,1-.1-17.94Z"/><path class="cls-2" d="M282.42,120.61s0,14.8,5.35,18c1.55-5.29,1.05-12.76-.62-19.52Z"/><rect class="cls-9" x="271.94" y="153.94" width="11.5" height="5.6" rx="2.69" ry="2.69"/><path class="cls-15" d="M243.13,143.58a12.22,12.22,0,0,1-12.22,12.22,11.81,11.81,0,0,1-2.67-.3,12.22,12.22,0,0,1-9.35-9.75,12.88,12.88,0,0,1-.19-2.17,12.21,12.21,0,0,1,12.21-12.21,12,12,0,0,1,6,1.55,11.45,11.45,0,0,1,2.67,2,12.16,12.16,0,0,1,3.3,6A12.34,12.34,0,0,1,243.13,143.58Z"/><path class="cls-16" d="M242.84,140.91l-14.6,14.59a12.19,12.19,0,0,1-6-3.29l17.27-17.27A12.16,12.16,0,0,1,242.84,140.91Z"/><path class="cls-16" d="M236.87,132.92l-16.62,16.62a12.25,12.25,0,0,1-1.36-3.79l14.2-14.19A12,12,0,0,1,236.87,132.92Z"/><path class="cls-15" d="M278.52,143.58a12.22,12.22,0,0,1-12.21,12.22,11.75,11.75,0,0,1-2.67-.3,12.23,12.23,0,0,1-8-6,12.51,12.51,0,0,1-1.36-3.79,12.88,12.88,0,0,1-.19-2.17,12.22,12.22,0,0,1,12.22-12.21,12.11,12.11,0,0,1,6,1.55,11.61,11.61,0,0,1,2.66,2,12.16,12.16,0,0,1,3.3,6A12.34,12.34,0,0,1,278.52,143.58Z"/><path class="cls-16" d="M278.23,140.91,263.64,155.5a12.18,12.18,0,0,1-6-3.29l17.27-17.27A12.16,12.16,0,0,1,278.23,140.91Z"/><path class="cls-16" d="M272.27,132.92l-16.63,16.62a12.51,12.51,0,0,1-1.36-3.79l14.2-14.19A12.09,12.09,0,0,1,272.27,132.92Z"/><path class="cls-13" d="M287.37,138.78a18.44,18.44,0,0,0-7.65,3.46c0,.44.06.89.06,1.34a13.8,13.8,0,0,1-27.6.46,12,12,0,0,0-7.49,0,13.8,13.8,0,0,1-27.6-.5,13.42,13.42,0,0,1,.13-1.91,19.11,19.11,0,0,0-6.9-2.89h-4s.78-4,4.44-4c2.59,0,5.88,1.91,7.57,3a13.8,13.8,0,0,1,26.1,3.36,19.37,19.37,0,0,1,3.89-.54,16.6,16.6,0,0,1,4,.5,13.8,13.8,0,0,1,26.29-2.89c1.35-.93,5.22-3.44,8.19-3.44,3.66,0,4.45,4,4.45,4Zm-45.85,4.8a10.63,10.63,0,1,0-10.63,10.63A10.65,10.65,0,0,0,241.52,143.58Zm35.08,0A10.63,10.63,0,1,0,266,154.21,10.63,10.63,0,0,0,276.6,143.58Z"/><path class="cls-2" d="M287.15,91.63c0,.36,0,.71,0,1.07a25.75,25.75,0,0,1-.47,4c0,.18-.07.37-.11.55a26.46,26.46,0,1,1-49-18.5c.27-.5.56-1,.86-1.45a25.16,25.16,0,0,1,2.1-2.82,26.45,26.45,0,0,1,46.64,17.1Z"/><path class="cls-2" d="M250.61,91.63a19.53,19.53,0,0,1-38.14,5.92,17.38,17.38,0,0,1-.57-2.26,19.25,19.25,0,0,1-.35-3.59v-.07a19.53,19.53,0,0,1,29-17.1A18.74,18.74,0,0,1,244,77a8.67,8.67,0,0,1,.71.65A19.45,19.45,0,0,1,250.61,91.63Z"/><path class="cls-2" d="M227.62,106.28a14.47,14.47,0,0,1-.69,4.44A14.65,14.65,0,0,1,205.77,119a15.09,15.09,0,0,1-3.32-2.56,14.65,14.65,0,0,1,9.1-24.78,13.37,13.37,0,0,1,1.42-.07,14.86,14.86,0,0,1,2,.14,14.33,14.33,0,0,1,3.26.84A14.66,14.66,0,0,1,227.62,106.28Z"/><path class="cls-2" d="M296.28,106.28a14.57,14.57,0,0,1-1.32,6.09c-.18.39-.37.76-.58,1.13a13.82,13.82,0,0,1-.94,1.45,14.65,14.65,0,1,1-11.8-23.32l.71,0c.33,0,.67,0,1,.08a13.94,13.94,0,0,1,3.77,1A14.64,14.64,0,0,1,296.28,106.28Z"/><path class="cls-17" d="M302,124.86a14.64,14.64,0,0,1-8.33,13.22q-.3,1-.66,2c-.73-.54-1.25-1-1.49-1.18l-.14-.12a18.72,18.72,0,0,0,2.88-2.79c5-6.06,3.36-13,1-17.83a31.75,31.75,0,0,0-1.8-3.22,25.8,25.8,0,0,0-2.11-2.89c.06-.42.12-.84.16-1.24a18.67,18.67,0,0,0-.39-6.62,12.21,12.21,0,0,0-3.35-5.88,11.72,11.72,0,0,0-1.21-1,10.38,10.38,0,0,0-3.1-1.6,28.47,28.47,0,0,0,0-2.91c0-.34,0-.7-.07-1.06-.7-7.71-5.12-17-18.31-19.82-10.28-2.2-17.2,2.51-21.06,5.07-.47.31-.88.6-1.22.85-.81.61-1.25,1-1.25,1a11,11,0,0,0-1.12-.63,17.67,17.67,0,0,0-2-.85,16,16,0,0,0-14.12,1.48,12.89,12.89,0,0,0-6,9.79,20.08,20.08,0,0,0-.09,4,20.84,20.84,0,0,0,.65,4.06s-2.09-1.14-6.42.88a23.05,23.05,0,0,0-3.68,2.17c-.33.23-.68.48-1,.75-3.37,2.59-4.12,6.57-3.93,10.18a27.26,27.26,0,0,0,1.94,8.38h0c-.16.2-7.57,9.7-.62,20l-.65.13A14.63,14.63,0,0,1,201,114.66a14.64,14.64,0,0,1,10.59-23v-.07a19.53,19.53,0,0,1,29-17.1,26.45,26.45,0,0,1,46.64,17.1c0,.36,0,.71,0,1.07A14.66,14.66,0,0,1,295,112.37,14.63,14.63,0,0,1,302,124.86Z"/><path class="cls-8" d="M353.67,304.16a24.68,24.68,0,0,1-2.22,6,22,22,0,0,1-4.32,5.73,20.25,20.25,0,0,1-3.28,2.51,18.5,18.5,0,0,1-4.08,1.86,18.15,18.15,0,0,1-4.55.83c-.38,0-.75,0-1.13,0h-.48l-.78,0-3.15-.16-25.15-1.21V298.6l22-1.07-37.43-46.12c-.13-.17-.4-.45-.75-.81-3-8.22-3.53-17.16-3.14-24.62a86.91,86.91,0,0,1,2.47-16.66l.15-.13,61.65,74.69,1,1.18.27.44a23.85,23.85,0,0,1,2.71,6.19,24.31,24.31,0,0,1,.91,6.32A25.41,25.41,0,0,1,353.67,304.16Z"/><path class="cls-18" d="M353.67,304.16a24.68,24.68,0,0,1-2.22,6,22,22,0,0,1-4.32,5.73,20.25,20.25,0,0,1-3.28,2.51,18.5,18.5,0,0,1-4.08,1.86,18.15,18.15,0,0,1-4.55.83c-.38,0-.75,0-1.13,0h-.48l-.78,0-3.15-.16-25.15-1.21v-8c6.64.88,15,1.94,21.91,2.64,13.76,1.4,25.56-8.71,20.22-20.79-4-9-40.72-46.47-59-64.78-.62-.62-1.52-1.66-2.47-2.78a86.91,86.91,0,0,1,2.47-16.66l.15-.13,61.65,74.69,1,1.18.27.44a23.85,23.85,0,0,1,2.71,6.19,24.31,24.31,0,0,1,.91,6.32A25.41,25.41,0,0,1,353.67,304.16Z"/><path class="cls-8" d="M143.82,304.25a24.2,24.2,0,0,0,2.22,6,21.65,21.65,0,0,0,4.32,5.73,19.86,19.86,0,0,0,3.28,2.52,19,19,0,0,0,4.08,1.86,18.14,18.14,0,0,0,4.54.82c.39,0,.76,0,1.14,0h.48l.78,0,3.15-.15L193,319.75V298.69l-22-1.07,37.43-46.13c.13-.16.4-.44.74-.8,3-8.22,3.54-17.16,3.14-24.62a86.11,86.11,0,0,0-2.46-16.66l-.15-.14L148,284l-1,1.18-.27.43a24.15,24.15,0,0,0-2.71,6.19,24.45,24.45,0,0,0-.91,6.33A24.92,24.92,0,0,0,143.82,304.25Z"/><path class="cls-18" d="M143.82,304.25a24.2,24.2,0,0,0,2.22,6,21.65,21.65,0,0,0,4.32,5.73,19.86,19.86,0,0,0,3.28,2.52,19,19,0,0,0,4.08,1.86,18.14,18.14,0,0,0,4.54.82c.39,0,.76,0,1.14,0h.48l.78,0,3.15-.15L193,319.75v-8c-6.64.89-15,1.94-21.91,2.65-13.76,1.4-25.56-8.71-20.22-20.79,4-9,40.72-46.47,59-64.79.62-.62,1.52-1.65,2.46-2.77a86.11,86.11,0,0,0-2.46-16.66l-.15-.14L148,284l-1,1.18-.27.43a24.15,24.15,0,0,0-2.71,6.19,24.45,24.45,0,0,0-.91,6.33A24.92,24.92,0,0,0,143.82,304.25Z"/><path class="cls-19" d="M261.65,176.92a18.18,18.18,0,0,1-26.36,0c.53-.18,1.05-.34,1.58-.5h0a18.59,18.59,0,0,0,11.24,4.47,16.31,16.31,0,0,0,11.64-4.47C260.39,176.57,261,176.74,261.65,176.92Z"/><path class="cls-7" d="M135.55,200.17a3.44,3.44,0,0,1-4.76,1l-5.26-3.42-5.92-3.84L94.55,214.39l16,87.33,1,5.42,1.15,6.31a3.44,3.44,0,0,1-2.76,4,3.31,3.31,0,0,1-.62.05,3.44,3.44,0,0,1-3.38-2.81l-1.38-7.55-1-5.42L87.42,213.63a3.47,3.47,0,0,1,1.21-3.29L117.21,187a3.41,3.41,0,0,1,4-.22l9,5.85,4.26,2.77A3.43,3.43,0,0,1,135.55,200.17Z"/><path class="cls-20" d="M135.55,200.17a3.44,3.44,0,0,1-4.76,1l-5.26-3.42c.47-2.69,3.09-4.33,4.74-5.12l4.26,2.77A3.43,3.43,0,0,1,135.55,200.17Z"/><path class="cls-7" d="M162.64,210.9h0a11.53,11.53,0,0,1,2.15,1.58,11.66,11.66,0,0,1,1.94,2.36,11.42,11.42,0,0,1-17.52,14.34c-.22-.2-.43-.42-.63-.64a11.42,11.42,0,0,1,14-17.65Z"/><path class="cls-20" d="M162.64,210.9h0a11.53,11.53,0,0,1,2.15,1.58,11.66,11.66,0,0,1,1.94,2.36h0l-15.06,16.08a11.45,11.45,0,0,1-2.45-1.75c-.22-.2-.43-.42-.63-.64C151.93,223,158,213.8,162.64,210.9Z"/><path class="cls-6" d="M131,196.58c2.57-2.76,6.07-3.67,7.82-2s1.07,5.18-1.51,7.94-6.07,3.67-7.81,2S128.45,199.34,131,196.58Z"/><path class="cls-3" d="M131,196.58c2.57-2.76,6.07-3.67,7.82-2s1.07,5.18-1.51,7.94-6.07,3.67-7.81,2S128.45,199.34,131,196.58Z"/><path class="cls-6" d="M173.76,196.75a4.37,4.37,0,0,1,.22,6.18L142.18,237h0l0,0s0,0-.05,0l-.17.19L140.31,239a4.38,4.38,0,0,1-6.19.21A27,27,0,0,1,132.81,201l2.74-2.93a27.54,27.54,0,0,1,5.41-4.48l.14-.08A27.05,27.05,0,0,1,173.76,196.75Z"/><path class="cls-6" d="M173.76,196.75a4.37,4.37,0,0,1,.22,6.18L142.18,237c.87-1.14,21.56-28.47,15.52-39-5.76-10-15.34-5.17-16.6-4.48A27.05,27.05,0,0,1,173.76,196.75Z"/><path class="cls-3" d="M173.76,196.75a4.37,4.37,0,0,1,.22,6.18L142.18,237c.87-1.14,21.56-28.47,15.52-39-5.76-10-15.34-5.17-16.6-4.48A27.05,27.05,0,0,1,173.76,196.75Z"/><path class="cls-6" d="M130.58,314.68v7.55H86.39v-7.55a7.55,7.55,0,0,1,7.54-7.54H123A7.55,7.55,0,0,1,130.58,314.68Z"/><rect class="cls-3" x="86.39" y="315.72" width="44.19" height="6.52"/><polygon class="cls-21" points="142.18 236.99 168.43 302.82 234.64 238.25 173.98 202.93 142.18 236.99"/><polygon class="cls-20" points="111.54 307.14 104.55 307.14 103.56 301.72 110.54 301.72 111.54 307.14"/><polygon class="cls-22" points="321.29 276.49 175.69 276.49 162.17 169.31 334.81 169.31 321.29 276.49"/><path class="cls-6" d="M325,249.68l-8,57.46-.82,5.9a8,8,0,0,1-8,8H188.73a8,8,0,0,1-8-8l-.82-5.9-8-57.46a4.7,4.7,0,0,1,4.65-5.34H320.36A4.7,4.7,0,0,1,325,249.68Z"/><path class="cls-3" d="M317,307.14l-.82,5.9a8,8,0,0,1-8,8H188.73a8,8,0,0,1-8-8l-.82-5.9Z"/><circle class="cls-23" cx="248.63" cy="284.78" r="14.62"/><path class="cls-7" d="M248.62,283.31a2,2,0,1,0,2,1.93A2,2,0,0,0,248.62,283.31Z"/><path class="cls-7" d="M258.72,288a1.32,1.32,0,0,0-1.34-1.31h-.07a8.88,8.88,0,0,0-.93-1.12l-.37-.36c.12-.13.25-.25.36-.38,1.49-1.61,2-3.09,1.47-4.16s-2-1.53-4.21-1.3a13,13,0,0,0-1.54.25,13.51,13.51,0,0,0-.49-1.48c-.8-2-1.9-3.16-3.09-3.14a2,2,0,0,0-1.19.41,1.25,1.25,0,0,0-.71-.2,1.33,1.33,0,0,0-1.31,1.34,1.3,1.3,0,0,0,.46,1c-.09.21-.19.43-.27.67a14,14,0,0,0-.45,1.5,12.68,12.68,0,0,0-1.54-.22c-2.19-.17-3.67.33-4.18,1.41s0,2.55,1.57,4.12l.37.37-.09.09a1.18,1.18,0,0,0-.46-.09,1.33,1.33,0,0,0-1.31,1.35,1.23,1.23,0,0,0,.25.75,2.63,2.63,0,0,0-.22,2.43c.45.91,1.61,1.38,3.28,1.36.3,0,.61,0,.93-.05a15.36,15.36,0,0,0,1.54-.25,14.27,14.27,0,0,0,.48,1.48c.8,2,1.9,3.15,3.1,3.14s2.27-1.16,3-3.22a11.88,11.88,0,0,0,.44-1.49,13,13,0,0,0,1.55.21c.32,0,.63,0,.93,0,1.67,0,2.81-.52,3.25-1.44a1.92,1.92,0,0,0,.16-.58A1.3,1.3,0,0,0,258.72,288Zm-5-7.73c.31,0,.59-.05.86-.05,1.28,0,2.16.28,2.45.86s-.13,1.84-1.33,3.14l-.37.38a20.4,20.4,0,0,0-2.68-1.89,21.26,21.26,0,0,0-.35-2.21C252.79,280.42,253.27,280.34,253.72,280.29Zm-3.62,7.95c-.47.24-.95.45-1.42.66q-.72-.28-1.44-.63c-.63-.29-1.22-.6-1.77-.92-.06-.63-.1-1.3-.11-2s0-1.36.06-2c.54-.33,1.13-.65,1.75-1s1-.46,1.42-.66c.48.19,1,.39,1.44.62s1.21.6,1.77.92c.06.64.09,1.31.1,2s0,1.36-.05,2C251.29,287.61,250.71,287.93,250.1,288.24Zm1.65.14c-.06.51-.14,1-.22,1.45-.53-.13-1.08-.3-1.64-.48l.62-.3C250.93,288.84,251.34,288.61,251.75,288.38Zm-4.28,1c-.55.2-1.09.37-1.62.52-.1-.46-.18-.94-.26-1.44.41.22.83.43,1.26.64Zm-3-4c0,.47,0,.94,0,1.4a18,18,0,0,1-1.9-1.38,20.68,20.68,0,0,1,1.87-1.43C244.46,284.43,244.45,284.89,244.46,285.37Zm1.06-3.12c.06-.5.13-1,.22-1.44.53.13,1.08.29,1.64.48l-.62.29C246.33,281.8,245.92,282,245.52,282.25Zm4.27-1c.55-.2,1.1-.38,1.63-.52.1.45.18.93.25,1.44-.41-.22-.82-.44-1.25-.64Zm3,4c0-.48,0-.95-.06-1.41a20,20,0,0,1,1.91,1.38,19.1,19.1,0,0,1-1.87,1.43C252.81,286.21,252.82,285.74,252.81,285.27Zm-6.19-7.39h0a1.33,1.33,0,0,0,1.31-1.34,1.23,1.23,0,0,0-.07-.39,1.19,1.19,0,0,1,.64-.23c1,0,2,1.48,2.68,3.93a23.28,23.28,0,0,0-2.62.9,22.94,22.94,0,0,0-2.65-.83A11.55,11.55,0,0,1,246.62,277.88Zm-6.48,3.43c.27-.59,1.14-.91,2.42-.93.27,0,.56,0,.86,0a12.8,12.8,0,0,1,1.43.19,21.62,21.62,0,0,0-.3,2.22,20.75,20.75,0,0,0-2.62,1.95C240.44,283.37,239.78,282.07,240.14,281.31Zm3.41,9c-1.76.19-3-.11-3.31-.81a1.74,1.74,0,0,1,.17-1.5,1.86,1.86,0,0,0,.33,0,1.32,1.32,0,0,0,1.31-1.35,1.28,1.28,0,0,0-.18-.64l.07-.06a20.92,20.92,0,0,0,2.67,1.88c.09.77.2,1.51.35,2.21A10.86,10.86,0,0,1,243.55,290.34Zm5.2,4.37c-1,0-2-1.47-2.69-3.93a21.56,21.56,0,0,0,2.63-.9,21.64,21.64,0,0,0,2.64.84C250.72,293.19,249.71,294.7,248.75,294.71Zm5.09-4.49c-.45,0-.93-.11-1.42-.2.13-.7.23-1.45.3-2.22a20.51,20.51,0,0,0,2.62-1.95l.39.37a10.76,10.76,0,0,1,.74.87,1.28,1.28,0,0,0-.4,1,1.32,1.32,0,0,0,1.06,1.28C256.79,290,255.59,290.36,253.84,290.22Z"/><rect class="cls-7" x="364.87" y="284.96" width="31.08" height="38.66"/><path class="cls-20" d="M371,285h0a42.38,42.38,0,0,0,23.12,37.75l1.78.91H364.87V285Z"/><path class="cls-7" d="M398.21,293.26a13,13,0,0,0-2.27-.2,12.8,12.8,0,1,0,0,25.6,12.06,12.06,0,0,0,2.27-.2,12.8,12.8,0,0,0,0-25.2Zm0,19.39a7.06,7.06,0,0,1-2.27.37,7.16,7.16,0,0,1,0-14.31,7.06,7.06,0,0,1,2.27.37,7.15,7.15,0,0,1,0,13.57Z"/><path class="cls-24" d="M376,283.61s-12-7.19-4.9-16.64,8-16.13,3.72-20.64c0,0,9.39,3.92,9.59,13.92S372.48,272.47,376,283.61Z"/><path class="cls-25" d="M386.72,283.61s-6.87-4.13-2.81-9.56,4.61-9.26,2.14-11.85c0,0,5.38,2.26,5.5,8S384.69,277.22,386.72,283.61Z"/><path class="cls-20" d="M398.21,293.26v5.82a7.06,7.06,0,0,0-2.27-.37v-5.65A13,13,0,0,1,398.21,293.26Z"/><path class="cls-20" d="M398.21,312.65v5.81a12.06,12.06,0,0,1-2.27.2V313A7.06,7.06,0,0,0,398.21,312.65Z"/><circle class="cls-26" cx="360.28" cy="201.14" r="26.81" transform="matrix(0.15, -0.99, 0.99, 0.15, 105.73, 525.89)"/><path class="cls-7" d="M359.78,214.42a13.29,13.29,0,0,1-13.28-13.28,13.08,13.08,0,0,1,1.14-5.34s0,0,0,0l.55,5.46a1.28,1.28,0,0,0,1.27,1.16h.13a1.33,1.33,0,0,0,1.15-1.47l-.85-8.51a1.3,1.3,0,0,0-1.41-1.15l-8.57.86a1.29,1.29,0,1,0,.26,2.56l4.33-.44s0,0,0,0a16.47,16.47,0,0,0-1.48,6.84,16.7,16.7,0,0,0,20.46,16.28,1.7,1.7,0,0,0,.85-2.8l0,0a1.68,1.68,0,0,0-1.63-.5A13.51,13.51,0,0,1,359.78,214.42Z"/><path class="cls-7" d="M381.59,205a1.29,1.29,0,0,0-1.76-.45l-4.54,2.68a16.44,16.44,0,0,0,1.19-6.13,16.73,16.73,0,0,0-16.7-16.71,16.9,16.9,0,0,0-2.68.22,1.7,1.7,0,0,0-.93,2.86l0,0a1.7,1.7,0,0,0,1.48.49,13.26,13.26,0,0,1,15.38,13.11,13.08,13.08,0,0,1-.92,4.82l-2.34-4a1.28,1.28,0,1,0-2.21,1.31l4.38,7.41a1.28,1.28,0,0,0,1.76.45l7.41-4.38A1.29,1.29,0,0,0,381.59,205Z"/><circle class="cls-27" cx="167.17" cy="91.63" r="26.81" transform="translate(-21.6 65.05) rotate(-20.71)"/><path class="cls-7" d="M186.4,90.13v-4.4h-3.85a9.86,9.86,0,0,0-1.49-3.66L184,79.15,180.86,76l-3,3a9.65,9.65,0,0,0-2.47-1V74H171v3.84a9.87,9.87,0,0,0-3.66,1.5l-2.56-2.56-3.11,3.12,2.64,2.64a9.89,9.89,0,0,0-1.22,3.21h-3.84v4.4h4a9.86,9.86,0,0,0,1.63,3.35l-2.94,2.94,3.12,3.12,3.18-3.19a9.89,9.89,0,0,0,2.74,1v3.85h4.4v-4a9.67,9.67,0,0,0,2.47-1l3,3L184,96l-2.92-2.92a10.09,10.09,0,0,0,1.32-2.93ZM172.81,91.6a4,4,0,1,1,4-4A4,4,0,0,1,172.81,91.6Z"/><path class="cls-7" d="M161.53,103.78v-2.2H159.6a4.84,4.84,0,0,0-.74-1.83l1.46-1.46-1.56-1.56-1.51,1.5a5.17,5.17,0,0,0-1.23-.52v-2h-2.2v1.93a4.84,4.84,0,0,0-1.83.74l-1.28-1.27-1.56,1.55,1.32,1.33a4.61,4.61,0,0,0-.6,1.6h-1.93v2.2h2a5.15,5.15,0,0,0,.82,1.68l-1.47,1.46,1.56,1.56,1.59-1.59a4.83,4.83,0,0,0,1.37.47v1.93H156v-2a5.17,5.17,0,0,0,1.23-.52l1.51,1.5,1.56-1.56-1.46-1.46a5,5,0,0,0,.66-1.46Zm-6.8.73a2,2,0,1,1,2-2A2,2,0,0,1,154.73,104.51Z"/><rect class="cls-28" x="127.7" y="137.41" width="50.04" height="33.91" rx="4.88" ry="4.88"/><text class="cls-29" transform="translate(136.17 164.39)">PHP</text><rect class="cls-30" x="321.7" y="120.62" width="46.16" height="33.75" rx="4.07" ry="4.07"/><text class="cls-29" transform="translate(329.49 146.99)">CSS</text><circle class="cls-7" cx="361.26" cy="70.88" r="15.6" transform="translate(209.79 406.43) rotate(-76.81)"/><path class="cls-7" d="M83.89,167.55c-14.06.85-14.75,1.54-15.61,15.6-.85-14.06-1.54-14.75-15.6-15.6,14.06-.86,14.75-1.55,15.6-15.61C69.14,166,69.83,166.69,83.89,167.55Z"/><circle class="cls-7" cx="441.98" cy="280.74" r="15.6" transform="translate(-74.14 192.56) rotate(-22.73)"/></svg>