<svg id="Réteg_1" data-name="Réteg 1" xmlns="http://www.w3.org/2000/svg" viewBox="0 0 800 800"><defs><style>.cls-1{fill:#4d4d4d;}.cls-2{fill:#dcecd4;}.cls-3{fill:#fbb03b;}.cls-4{fill:#8bc774;}.cls-5{fill:#424e58;}.cls-6{fill:#f27937;}.cls-7{fill:#f9ae49;}.cls-8{fill:#e8c47d;}.cls-9{fill:#e18b50;}.cls-10{fill:#dd7345;}.cls-11{fill:#e6c6ad;}.cls-12{fill:#747e81;}.cls-13{fill:#424d52;}.cls-14{fill:#f0f8fc;}.cls-15{fill:#de8046;}</style></defs><title>foldal-1</title><path class="cls-1" d="M180.81,685.35V629.67h7.85l17.84,28.17a159.08,159.08,0,0,1,10,18.09l.16-.08c-.66-7.44-.83-14.21-.83-22.88v-23.3h6.78v55.68h-7.27L197.66,657.1a178,178,0,0,1-10.41-18.59l-.25.08c.42,7,.58,13.71.58,23v23.79Z"/><path class="cls-1" d="M239,666.68c.17,9.83,6.44,13.88,13.71,13.88a26.18,26.18,0,0,0,11.07-2.07L265,683.7a32.49,32.49,0,0,1-13.3,2.48c-12.31,0-19.66-8.1-19.66-20.16s7.11-21.56,18.75-21.56c13.06,0,16.53,11.48,16.53,18.83a27.8,27.8,0,0,1-.25,3.39Zm21.31-5.21c.09-4.62-1.9-11.81-10.08-11.81-7.35,0-10.57,6.78-11.15,11.81Z"/><path class="cls-1" d="M285.05,633.88v11.49h10.41v5.53H285.05v21.56c0,5,1.41,7.77,5.46,7.77a16,16,0,0,0,4.21-.5l.33,5.45a17.76,17.76,0,0,1-6.44,1c-3.39,0-6.12-1.08-7.85-3.06-2.07-2.15-2.81-5.7-2.81-10.41V650.9h-6.2v-5.53H278v-9.59Z"/><path class="cls-1" d="M312.89,667.84l-5.78,17.51h-7.44l18.92-55.68h8.67l19,55.68h-7.68l-5.95-17.51Zm18.26-5.62-5.46-16c-1.23-3.63-2.06-6.94-2.89-10.16h-.16c-.83,3.3-1.74,6.69-2.81,10.08l-5.45,16.11Z"/><path class="cls-1" d="M381.7,683.86a26.76,26.76,0,0,1-11.48,2.32c-12.06,0-19.91-8.18-19.91-20.41s8.43-21.23,21.48-21.23a24.39,24.39,0,0,1,10.08,2.06l-1.66,5.62a16.85,16.85,0,0,0-8.42-1.9c-9.17,0-14.13,6.78-14.13,15.12,0,9.25,5.95,14.95,13.88,14.95a20.61,20.61,0,0,0,8.92-2Z"/><path class="cls-1" d="M412.35,685.35l-.58-5h-.25a14.9,14.9,0,0,1-12.23,6c-8.09,0-12.22-5.7-12.22-11.49,0-9.66,8.59-14.95,24-14.87v-.82c0-3.31-.91-9.25-9.09-9.25a19.9,19.9,0,0,0-10.41,3L390,648a24.76,24.76,0,0,1,13.13-3.55c12.23,0,15.2,8.34,15.2,16.35v15a55.79,55.79,0,0,0,.67,9.58Zm-1.08-20.41c-7.93-.16-16.93,1.24-16.93,9,0,4.71,3.14,6.94,6.85,6.94a10,10,0,0,0,9.67-6.69,7.56,7.56,0,0,0,.41-2.32Z"/><path class="cls-1" d="M464.55,626.7V675c0,3.56.09,7.6.33,10.33h-6.52l-.33-6.94h-.17c-2.23,4.46-7.1,7.85-13.63,7.85-9.66,0-17.1-8.18-17.1-20.32-.08-13.3,8.18-21.48,17.93-21.48,6.11,0,10.24,2.89,12.06,6.11h.16V626.7Zm-7.27,34.94a12.75,12.75,0,0,0-.33-3.06,10.69,10.69,0,0,0-10.49-8.42c-7.52,0-12,6.61-12,15.44,0,8.1,4,14.79,11.82,14.79A10.92,10.92,0,0,0,457,671.72a12.51,12.51,0,0,0,.33-3.14Z"/><path class="cls-1" d="M480.66,666.68c.16,9.83,6.44,13.88,13.71,13.88a26.22,26.22,0,0,0,11.07-2.07l1.24,5.21a32.49,32.49,0,0,1-13.3,2.48c-12.31,0-19.66-8.1-19.66-20.16s7.1-21.56,18.75-21.56c13,0,16.52,11.48,16.52,18.83a28.25,28.25,0,0,1-.24,3.39ZM502,661.47c.08-4.62-1.9-11.81-10.08-11.81-7.35,0-10.57,6.78-11.15,11.81Z"/><path class="cls-1" d="M518,656.19c0-4.13-.08-7.52-.33-10.82H524l.33,6.44h.25c2.23-3.8,5.95-7.35,12.56-7.35a11.83,11.83,0,0,1,11.32,8h.16a16.39,16.39,0,0,1,4.46-5.2,13.64,13.64,0,0,1,8.84-2.81c5.29,0,13.14,3.47,13.14,17.35v23.54H568V662.71c0-7.68-2.8-12.31-8.67-12.31-4.13,0-7.35,3.06-8.59,6.61a12,12,0,0,0-.58,3.64v24.7H543v-24c0-6.36-2.81-11-8.35-11-4.54,0-7.85,3.64-9,7.27a9.93,9.93,0,0,0-.58,3.56v24.12H518Z"/><path class="cls-1" d="M595,634.13a4.5,4.5,0,0,1-9,0,4.43,4.43,0,0,1,4.54-4.54A4.31,4.31,0,0,1,595,634.13Zm-8.09,51.22v-40h7.27v40Z"/><path class="cls-1" d="M628.35,685.35l-.57-5h-.25a14.9,14.9,0,0,1-12.23,6c-8.09,0-12.22-5.7-12.22-11.49,0-9.66,8.59-14.95,24-14.87v-.82c0-3.31-.91-9.25-9.09-9.25a19.9,19.9,0,0,0-10.41,3L606,648a24.76,24.76,0,0,1,13.13-3.55c12.23,0,15.2,8.34,15.2,16.35v15a56.88,56.88,0,0,0,.66,9.58Zm-1.07-20.41c-7.93-.16-16.93,1.24-16.93,9,0,4.71,3.13,6.94,6.85,6.94a10,10,0,0,0,9.67-6.69,7.56,7.56,0,0,0,.41-2.32Z"/><circle class="cls-2" cx="691.51" cy="650.69" r="8.12"/><circle class="cls-2" cx="127.39" cy="650.69" r="8.12"/><path class="cls-3" d="M723.26,503a299.25,299.25,0,0,0,5-54.75c0-164.59-133.43-298-298-298s-298,133.43-298,298a299.25,299.25,0,0,0,5,54.75Z"/><rect class="cls-4" x="533.46" y="290.84" width="62.47" height="307.36"/><path class="cls-5" d="M595.93,602.12H533.46a3.91,3.91,0,0,1-3.91-3.91V290.84a3.91,3.91,0,0,1,3.91-3.91h62.47a3.91,3.91,0,0,1,3.91,3.91V598.21A3.91,3.91,0,0,1,595.93,602.12Zm-58.56-7.83H592V294.75H537.37Z"/><path class="cls-6" d="M714.1,432.14h30V598.93H710.88S714.1,430.27,714.1,432.14Z"/><path class="cls-5" d="M744.09,602.85H710.88a3.93,3.93,0,0,1-3.91-4l1.6-83.41,1.1-57.34.48-24.19c0-.41,0-.89.06-1.39,0-.13,0-.26,0-.39h.06c.22-1.87,1-3.93,3.85-3.93l.35,0h29.64a3.91,3.91,0,0,1,3.91,3.91V598.93A3.92,3.92,0,0,1,744.09,602.85ZM714.87,595h25.3v-159H717.93C717.48,458.36,715.31,572.17,714.87,595Z"/><rect class="cls-2" x="715.88" y="446.61" width="12.49" height="145.77"/><path class="cls-7" d="M575.94,530.74V415.79H713.38V598.21H578.44S578.44,528.24,575.94,530.74Z"/><path class="cls-5" d="M713.38,602.12H578.44a3.91,3.91,0,0,1-3.92-3.91c0-23.73-.51-58.38-1.66-65.06a3.89,3.89,0,0,1-.83-2.41V415.79a3.91,3.91,0,0,1,3.91-3.91H713.38a3.91,3.91,0,0,1,3.91,3.91V598.21A3.91,3.91,0,0,1,713.38,602.12Zm-131-7.82H709.47V419.7H579.85V529.22c1,2.27,1.2,6.15,1.5,11.8s.53,13.51.7,23.35C582.26,576.28,582.32,588.3,582.34,594.3Z"/><polyline class="cls-2" points="465.99 267.73 502.22 290.21 502.22 320.2 465.99 320.2"/><path class="cls-5" d="M502.22,324.12H466a3.92,3.92,0,1,1,0-7.83h32.32v-23.9l-34.39-21.34a3.91,3.91,0,0,1,4.13-6.65l36.24,22.49a3.91,3.91,0,0,1,1.85,3.33v30A3.93,3.93,0,0,1,502.22,324.12Z"/><polyline class="cls-2" points="384.78 266.48 348.55 288.96 348.55 318.95 384.78 318.95"/><path class="cls-5" d="M384.78,322.86H348.55a3.91,3.91,0,0,1-3.91-3.91V289a3.9,3.9,0,0,1,1.84-3.32l36.24-22.49a3.91,3.91,0,1,1,4.13,6.65l-34.39,21.34V315h32.32a3.91,3.91,0,1,1,0,7.82Z"/><rect class="cls-8" x="385.41" y="176.74" width="79.34" height="145.29" transform="translate(850.16 498.77) rotate(180)"/><rect class="cls-9" x="408.31" y="176.74" width="56.43" height="145.29" transform="translate(873.06 498.77) rotate(180)"/><rect class="cls-10" x="438.3" y="176.74" width="26.44" height="145.29" transform="translate(903.05 498.77) rotate(180)"/><polyline class="cls-11" points="383.88 173.74 424.8 118.98 425.23 118.98 466.14 173.74"/><polygon class="cls-10" points="424.8 118.98 405.04 145.42 444.98 145.42 425.23 118.98 424.8 118.98"/><path class="cls-5" d="M396.51,351.42a3.91,3.91,0,0,1-3.91-3.91V325.6a3.92,3.92,0,1,1,7.83,0v21.91A3.92,3.92,0,0,1,396.51,351.42Z"/><path class="cls-5" d="M396.51,378.91A3.91,3.91,0,0,1,392.6,375V359.57a3.92,3.92,0,1,1,7.83,0V375A3.92,3.92,0,0,1,396.51,378.91Z"/><path class="cls-5" d="M425,403.9A3.91,3.91,0,0,1,421.1,400V388.93a3.91,3.91,0,1,1,7.82,0V400A3.91,3.91,0,0,1,425,403.9Z"/><path class="cls-5" d="M451.52,340.47a3.92,3.92,0,0,1-3.91-3.92V325.6a3.92,3.92,0,1,1,7.83,0v10.95A3.92,3.92,0,0,1,451.52,340.47Z"/><path class="cls-5" d="M425.08,378.91a3.92,3.92,0,0,1-3.92-3.91V325.6a3.92,3.92,0,1,1,7.83,0V375A3.91,3.91,0,0,1,425.08,378.91Z"/><path class="cls-5" d="M377.91,329.37h94.33V169.24h-.1L429,111.48H421l-43.17,57.77,0,0Zm85.59-40.68h-22V176.74h22ZM426,119.46l35.82,49.78h-74Zm9.28,57.28v112H411.53V176.74Zm-48.63,0h18.64v112H386.65Zm0,119.73H463.5v24.15H386.65Z"/><rect class="cls-12" x="174.87" y="355.81" width="144.94" height="242.39" rx="7.75" ry="7.75"/><path class="cls-5" d="M311.06,602.12H183.62A12.68,12.68,0,0,1,171,589.46V364.56a12.68,12.68,0,0,1,12.66-12.66H311.06a12.68,12.68,0,0,1,12.66,12.66v224.9A12.68,12.68,0,0,1,311.06,602.12ZM183.62,359.73a4.84,4.84,0,0,0-4.84,4.83v224.9a4.84,4.84,0,0,0,4.84,4.83H311.06a4.83,4.83,0,0,0,4.83-4.83V364.56a4.83,4.83,0,0,0-4.83-4.83Z"/><rect class="cls-13" x="198.61" y="383.44" width="97.46" height="175.87" rx="5.41" ry="5.41"/><circle class="cls-12" cx="246.21" cy="469.8" r="24.74" transform="translate(-267.88 600.34) rotate(-76.59)"/><polygon class="cls-14" points="244.94 466.62 247.48 468.09 244.94 469.55 244.94 466.62"/><polygon class="cls-7" points="240.71 480.04 240.71 459.53 258.48 469.78 240.71 480.04"/><path class="cls-5" d="M257.09,302.84a13.48,13.48,0,1,1,13.48-13.48A13.49,13.49,0,0,1,257.09,302.84Zm0-22.49a9,9,0,1,0,9,9A9,9,0,0,0,257.09,280.35Z"/><path class="cls-5" d="M53.67,528.4a15.16,15.16,0,1,1,15.16-15.16A15.18,15.18,0,0,1,53.67,528.4Zm0-22.49A7.33,7.33,0,1,0,61,513.24,7.34,7.34,0,0,0,53.67,505.91Z"/><path class="cls-5" d="M654.66,328.48a10.15,10.15,0,1,1,10.15-10.15A10.16,10.16,0,0,1,654.66,328.48Zm0-15.83a5.68,5.68,0,1,0,5.67,5.68A5.69,5.69,0,0,0,654.66,312.65Z"/><path class="cls-5" d="M574.69,204.37a13.49,13.49,0,1,1,13.48-13.48A13.5,13.5,0,0,1,574.69,204.37Zm0-22.49a9,9,0,1,0,9,9A9,9,0,0,0,574.69,181.88Z"/><path class="cls-14" d="M144.88,272.47l3.19,6.47a1.09,1.09,0,0,0,.8.58l7.14,1a1.06,1.06,0,0,1,.59,1.81l-5.17,5a1.07,1.07,0,0,0-.3.94l1.22,7.12a1.06,1.06,0,0,1-1.54,1.11l-6.39-3.36a1.06,1.06,0,0,0-1,0l-6.39,3.36a1.06,1.06,0,0,1-1.54-1.11l1.22-7.12a1.07,1.07,0,0,0-.31-.94l-5.16-5a1.06,1.06,0,0,1,.58-1.81l7.15-1a1.05,1.05,0,0,0,.79-.58l3.2-6.47A1.06,1.06,0,0,1,144.88,272.47Z"/><path class="cls-2" d="M642.75,598.93a30,30,0,0,0-30.52-23.82c-.91,0-1.81.12-2.7.23a52.47,52.47,0,0,0-52.35-49c-.91,0-1.81,0-2.71.07a52.47,52.47,0,0,0-74.82-37.77,95.58,95.58,0,0,0-181.09,42.7c0,.14,0,.27,0,.41A52.51,52.51,0,0,0,233.5,575.1c-.56,0-1.13,0-1.71,0a30,30,0,0,0-28.18,23.82H642.75Z"/><path class="cls-5" d="M642.75,602.85H203.61a3.93,3.93,0,0,1-3.83-4.72,33.83,33.83,0,0,1,30.42-26.84A56.46,56.46,0,0,1,294.74,527,99.49,99.49,0,0,1,481.4,483.57a55.71,55.71,0,0,1,21.43-4.23,56.29,56.29,0,0,1,54.8,43.11A56.52,56.52,0,0,1,613,571.18h.38a34,34,0,0,1,33.17,27,3.93,3.93,0,0,1-3.84,4.71ZM208.9,595H637.46a26.18,26.18,0,0,0-25.08-16c-.74,0-1.51.1-2.35.21a4,4,0,0,1-3-.86,3.93,3.93,0,0,1-1.41-2.77,48.66,48.66,0,0,0-48.45-45.33c-.84,0-1.68,0-2.51.07a3.94,3.94,0,0,1-4-3.22,48.57,48.57,0,0,0-69.24-35,3.91,3.91,0,0,1-5.23-1.75,91.67,91.67,0,0,0-173.68,40.95v.39a3.92,3.92,0,0,1-4.89,3.81,48.57,48.57,0,0,0-60.21,40.09,3.92,3.92,0,0,1-3.87,3.36h-.62l-.94,0A26,26,0,0,0,208.9,595Z"/><path class="cls-5" d="M212.47,602.22H148.76a3.91,3.91,0,1,1,0-7.82h63.71a3.91,3.91,0,1,1,0,7.82Z"/><path class="cls-5" d="M118.77,602.22H96.28a3.91,3.91,0,1,1,0-7.82h22.49a3.91,3.91,0,0,1,0,7.82Z"/><path class="cls-5" d="M664.13,602.22H641.64a3.91,3.91,0,1,1,0-7.82h22.49a3.91,3.91,0,0,1,0,7.82Z"/><rect class="cls-2" x="602.18" y="457.02" width="84.96" height="47.48"/><path class="cls-5" d="M595.93,332.24h-25a3.92,3.92,0,0,1,0-7.83h25a3.92,3.92,0,0,1,0,7.83Z"/><path class="cls-5" d="M595.93,398.46h-25a3.92,3.92,0,0,1,0-7.83h25a3.92,3.92,0,0,1,0,7.83Z"/><path class="cls-5" d="M595.93,353.48H578.44a3.92,3.92,0,0,1,0-7.83h17.49a3.92,3.92,0,0,1,0,7.83Z"/><path class="cls-5" d="M595.93,371H578.44a3.92,3.92,0,0,1,0-7.83h17.49a3.92,3.92,0,0,1,0,7.83Z"/><path class="cls-2" d="M100,399V598.21h72.34l2.5-8.75V392.78H100s-37.61-1.87-37.61,35.61h35"/><path class="cls-5" d="M172.37,602.12H100a3.91,3.91,0,0,1-3.91-3.91V432.3H62.42a3.92,3.92,0,0,1-3.92-3.91c0-12.14,3.68-21.78,10.92-28.67,11.86-11.29,29-10.92,30.69-10.85h74.76a3.91,3.91,0,0,1,3.91,3.91V589.46a3.84,3.84,0,0,1-.15,1.07l-2.5,8.76A3.9,3.9,0,0,1,172.37,602.12Zm-68.43-7.82h65.48l1.54-5.39V396.7H103.17a3.86,3.86,0,0,1,.77,2.33ZM66.49,424.48H96.12V399a3.85,3.85,0,0,1,.72-2.26c-4.94.32-15,1.85-22.07,8.65C69.93,410.05,67.15,416.45,66.49,424.48Z"/><path class="cls-5" d="M167.37,458.17H134.89a6.15,6.15,0,1,1,0-12.3h32.48a6.15,6.15,0,0,1,0,12.3Z"/><path class="cls-5" d="M167.37,486.91H134.89a6.15,6.15,0,1,1,0-12.3h32.48a6.15,6.15,0,0,1,0,12.3Z"/><path class="cls-5" d="M148.63,519.39H134.89a6.15,6.15,0,1,1,0-12.3h13.74a6.15,6.15,0,0,1,0,12.3Z"/><circle class="cls-7" cx="401.02" cy="490.75" r="10"/><circle class="cls-7" cx="539.71" cy="561.97" r="5"/><circle class="cls-7" cx="335.21" cy="514.91" r="10"/><circle class="cls-7" cx="441.83" cy="485.76" r="5"/><circle class="cls-7" cx="567.19" cy="559.47" r="5"/><path class="cls-7" d="M341.67,488.88a5,5,0,1,1-5-5A5,5,0,0,1,341.67,488.88Z"/><circle class="cls-7" cx="503.47" cy="523.24" r="10"/><path class="cls-7" d="M428,520.22a3.75,3.75,0,1,1-3.74-3.75A3.74,3.74,0,0,1,428,520.22Z"/><circle class="cls-7" cx="278.57" cy="558.22" r="3.75"/><circle class="cls-2" cx="482.54" cy="430.78" r="8.43"/><circle class="cls-2" cx="367.28" cy="356.13" r="8.43"/><path class="cls-2" d="M362.87,402.15a4.22,4.22,0,1,1-4.22-4.21A4.22,4.22,0,0,1,362.87,402.15Z"/><path class="cls-2" d="M469.09,367.06a6.85,6.85,0,1,1-6.85-6.85A6.85,6.85,0,0,1,469.09,367.06Z"/><circle class="cls-13" cx="330.54" cy="166.02" r="9.37" transform="translate(92.78 449.38) rotate(-76.67)"/><circle class="cls-13" cx="632.27" cy="379.66" r="7.03"/><path class="cls-5" d="M252.4,257.2c-12,0-18.49-26.71-18.49-51.85s6.48-51.85,18.49-51.85,18.48,26.72,18.48,51.85S264.4,257.2,252.4,257.2Zm0-98.7c-5.64,0-13.49,17.83-13.49,46.85s7.85,46.85,13.49,46.85,13.48-17.82,13.48-46.85S258,158.5,252.4,158.5Z"/><path class="cls-5" d="M252.4,223.84c-25.14,0-51.85-6.48-51.85-18.49s26.71-18.48,51.85-18.48,51.84,6.48,51.84,18.48S277.53,223.84,252.4,223.84Zm0-32c-29,0-46.85,7.85-46.85,13.48s17.82,13.49,46.85,13.49,46.85-7.86,46.85-13.49S281.42,191.87,252.4,191.87Z"/><path class="cls-5" d="M282.11,244.54c-10,0-27.16-10.49-42.78-26.12-17.78-17.77-32.09-41.24-23.6-49.73a9.47,9.47,0,0,1,7-2.53c10,0,27.16,10.5,42.79,26.12,17.77,17.78,32.08,41.25,23.59,49.74A9.47,9.47,0,0,1,282.11,244.54Zm-59.43-73.38a4.66,4.66,0,0,0-3.41,1.07c-4,4,3.07,22.13,23.59,42.66,14.52,14.52,30.66,24.65,39.25,24.65a4.66,4.66,0,0,0,3.41-1.06c4-4-3.06-22.14-23.59-42.66C247.42,181.3,231.27,171.16,222.68,171.16Z"/><path class="cls-5" d="M222.68,244.54a9.47,9.47,0,0,1-7-2.52c-8.49-8.49,5.82-32,23.6-49.74,15.62-15.62,32.81-26.12,42.78-26.12a9.47,9.47,0,0,1,6.95,2.53c8.49,8.49-5.82,32-23.59,49.73C249.84,234.05,232.65,244.54,222.68,244.54Zm59.43-73.38c-8.59,0-24.73,10.14-39.25,24.66-20.52,20.52-27.57,38.68-23.59,42.66a4.66,4.66,0,0,0,3.41,1.06c8.59,0,24.74-10.13,39.25-24.65,20.53-20.53,27.58-38.68,23.59-42.66A4.66,4.66,0,0,0,282.11,171.16Z"/><path class="cls-14" d="M257.33,205.57a4.06,4.06,0,1,1-4.06-4.06A4.06,4.06,0,0,1,257.33,205.57Z"/><path class="cls-14" d="M283.53,241.49a5.59,5.59,0,1,1-5.59-5.58A5.59,5.59,0,0,1,283.53,241.49Z"/><circle class="cls-15" cx="247.96" cy="159.07" r="5.58"/></svg>