<svg xmlns="http://www.w3.org/2000/svg" viewBox="0 0 670 500"><defs><style>.cls-1{isolation:isolate;}.cls-2,.cls-8{fill:none;stroke-miterlimit:10;}.cls-2{stroke:#fff;stroke-width:1.08px;stroke-dasharray:4.31;}.cls-28,.cls-3,.cls-6{mix-blend-mode:multiply;}.cls-4{fill:#62b7b7;opacity:0.53;}.cls-5{fill:#51a5a2;}.cls-6{fill:#5a6f72;opacity:0.55;}.cls-7{fill:#fffbf2;}.cls-8{stroke:#fffbf2;stroke-linecap:round;stroke-width:5.39px;}.cls-9{fill:#d8d8d8;}.cls-10{fill:#f2a653;}.cls-11{fill:#899093;}.cls-12{fill:#d88d41;}.cls-13{fill:#fc876e;}.cls-14{fill:#e0604b;}.cls-15{fill:#c64538;}.cls-16{fill:#2d1916;}.cls-17{fill:#c1c1c1;}.cls-18{fill:#fccdc5;}.cls-19{fill:#2b2120;}.cls-20{fill:#0b1014;}.cls-21{fill:#76c5c9;}.cls-22{fill:#62676b;}.cls-23{fill:#517f7c;}.cls-24{fill:#fff;}.cls-25{fill:#d3d0c9;}.cls-26{fill:#7f1f1f;}.cls-27,.cls-28{fill:#384c59;}.cls-29{fill:#1f2b35;}.cls-30{fill:#54667a;}.cls-31{fill:#b52828;}.cls-32{fill:#192a33;}.cls-33{fill:#42b2be;}.cls-34{fill:#b5153b;}.cls-35{fill:#5e0f26;}</style></defs><title>index-image</title><g class="cls-1"><g id="Réteg_1" data-name="Réteg 1"><g id="_Csoport_" data-name="&lt;Csoport&gt;"><circle id="_Ellipszis_" data-name="&lt;Ellipszis&gt;" class="cls-2" cx="336.35" cy="255.66" r="216.62"/><g id="_Csoport_2" data-name="&lt;Csoport&gt;" class="cls-3"><path id="_Görbe_" data-name="&lt;Görbe&gt;" class="cls-4" d="M479.74,394.42C403,473.53,276.57,475.54,197.37,398.9S116.21,196,193,116.9s203.17-81.11,282.37-4.47S556.5,315.32,479.74,394.42Z"/><path id="_Összetett_görbe_" data-name="&lt;Összetett görbe&gt;" class="cls-5" d="M432.28,81.21c-.52-.29-1-.56-1.48-.8l-1.36-.78.81.41.15.09,0,0,2.08,1.13a1.26,1.26,0,0,1,.27.14l.71.43,0,0q-.6-.32-1.2-.66M425,77.41l-2-1,1.22.58.44.2c.72.36,1.47.72,2.19,1.1-.61-.31-1.25-.61-1.89-.92m-4-1.91-1.4-.68-.93-.39c-1-.45-1.95-.87-2.94-1.31l-.74-.34c.82.33,1.68.72,2,.88l-.38-.17c.32.16.66.31,1,.46l.32.13.84.38-.09,0c.66.29,1.28.58,1.88.86l.19.08,2.22,1.1-2-1M529.53,205.39c-.23-1-.47-2-.73-3l.84,2.81a.76.76,0,0,1,0,.15.64.64,0,0,1-.08.2l0-.17m-2-7.11-1-3.63c-.64-2-1.47-4.27-2.33-6.56l-.65-2-1.94-4.9a122.8,122.8,0,0,1,4.92,13.45l1.46,4.93-.44-1.3m-74.36-104c-2.51-1.78-5.05-3.52-7.62-5.19l-.25-.18q4,2.61,7.91,5.4l0,0m-9.61-6.48-.26-.17h0c-.16-.12-.16-.12-.18-.12l0-.05c.53.35,1,.63,1.46.93l.76.53-1.74-1.11m1,.58h0l.06,0a0,0,0,0,1,0,0M444,88.1q4.68,3,9.22,6.22c-2.95-2.07-6.36-4.29-9.22-6.22M535.4,238.43l0,.22v0l0-.2m.33,4.37v0m0-.24h0c0-.23,0-.47-.05-.69v-.12c0,.36.05.72.08,1l0-.24m-.13-1.71a2.44,2.44,0,0,1,0-.27l-.06-.93c0,.45.06.93.1,1.39l0-.19m-.11-1.7c0,.17,0,.34,0,.5,0-.17,0-.33,0-.5M534,227.39l-.22-2,.41,2.78h0c.09.57.14,1.16.21,1.74v.14c-.12-.9-.25-1.79-.4-2.67m-4.47-21.83a.45.45,0,0,0,.07-.35c.15.77.34,1.57.52,2.39l-.59-2M204.46,106.07q-2.21,1.91-4.26,3.84c1.43-1.37,2.7-2.52,4.26-3.84m55.78-4.74c.19-.27.38-.52.56-.79.29-.47.55-.94.84-1.4L260.41,99l-2,.82-.95,2,1.74,0,1-.43m-3.18-2.55.14-.1.44-.77c-.32.15-.63.38-1,.54a2.37,2.37,0,0,1-.64.18,9.9,9.9,0,0,0-1.71.73c-.27.14-.57.27-.85.4.08.19,0,.43.22.56a1.77,1.77,0,0,0,.65-.06,8,8,0,0,0,2.72-1.48M291.57,71l1.83-.4v-.9l-1.82-.07-1.36,0-1.42,1-.92.84,2.05.07,1.63-.63M439.28,85.29c-.66-.41-1.34-.77-2-1.16l-.35-.11,1.22.74c.88.52,1.73,1,2.59,1.59l.19,0c-.27-.2-.58-.36-.85-.55h0c-.53-.37-.53-.37-.83-.56M430.17,80c-.68-.37-1.37-.73-2.08-1.09l1.11.59L428,78.9l-.13-.08.77.42-.25-.12c-1.61-.84-3.3-1.69-4.2-2.15l.08,0c-1.28-.64-2.51-1.21-3.5-1.67l8.65,4.28.8.41-.07,0m2.31,1.23c-.2-.09-.38-.2-.57-.3l-.29-.16-1.18-.63,2.09,1.13,0,0m-59.54-20.4-.26-.06.27.07h0m160.7,163.94A196.33,196.33,0,0,0,529.5,205c-.38-.47-1.54-1-3.54-1.46a105,105,0,0,0-11.44-1.87,18.91,18.91,0,0,1,.19,3.67l-.05.31-.08.22-.12,0a1.06,1.06,0,0,0-.63.24l-.17,0-.11.08-.11.14-.26.24-.26-.3-.22-.36c-.27-.26-.31-.26-.36-.26a4.26,4.26,0,0,1-1.26-.52l-.16,0-.16,0,0,.37c.79.69.79.69,1.27.85a1.29,1.29,0,0,1,.42.77l.08.39c.13.28.31.64.45.91a7.18,7.18,0,0,1,.2.92l.09.3.05.39c.28,1.61,1.19,3,1.75,4.49a7.66,7.66,0,0,0,1.24,2.35c.19.06.28.06.38.09l.35-.07c.15-.49,0-1,.11-1.48l.28.51c3.69,9,3.69,9,3.87,10.33,0,.27,0,.38.06.49.06,3.72,2.38,6.72,3.21,10.19.43,1.93-.3,4,.59,5.85a21.61,21.61,0,0,1,1.64,4.51l.12.51,2,13.4c-.08,2.18-.17,4.15-.31,6.11a8.83,8.83,0,0,0,.64,3,3,3,0,0,0,.73,0c.41-.86.41-1.86.86-2.72a1.52,1.52,0,0,1,1,0H532l.06.34c.13-.32.27-.76.39-1.08.22-1.17.53-2.48,1.64-3.1.07-.36.15-.85.21-1.2.14-.87,1-4,1-4l.4.34c0-2.4.09-3.76.09-3.77l.18.16c0-1,0-1.94,0-2.91-.09-6.37-.49-12.36-1.13-18.28l0,.37c-.13-1-.25-2-.4-2.94-.15-1.28-.3-2.38-.46-3.49-.06-.35-.12-.7-.19-1,.13,1.45.13,1.45.58,5.69l-.21-.28-.08-.06-.2-.68-.11-.11c0,.64,0,1.27,0,1.9a7.06,7.06,0,0,1-.64-3.3v-.36c.11-.22.11-.22.13-.22a2,2,0,0,0,.34.63,2.4,2.4,0,0,0-.14-1.45l-.06,0-.19.06c-.26-.37-.3-.89-.78-1.11-.12-.18-.17-.19-.2-.21-.17-1.1-.32-2.2-.49-3.29-1-4.07-3-7.88-3.11-12.17.3.09.92.3,2.34,6a27.73,27.73,0,0,0,2.08,6l.12.13,0,0,.06-.34c0-.19,0-.17,0-.16a6.29,6.29,0,0,1,.29,1.13l0,.13M529.5,205a197.75,197.75,0,0,0-35.66-71.69l4.78,6.36c6.05,8.4,6.05,8.4,16,26.28,4.71,9.29,4.71,9.29,11.86,28.73l3.11,10.55-.13-.23m-74.23-91.45,1.46.11-.36-.12h-.18l0,0a3.27,3.27,0,0,1-.55-.37l-.36-.43-.13,0h-.19l-.18,0-.1.12,0,.12.31.41.11.07.23.16M421.12,80.34c-.73-.47-1.45-.91-2.2-1.36l-.07,0h0l0,0h0l-.35,0,.26.16,1.85,1.15.56.06m35.61,33.3c9.75.79,16.84,1.66,20.5,2.56a6.36,6.36,0,0,1,2.56,1l-1-1c-14.89-14-14.89-14-23.19-20.14l-11.09-7.68-.06,0c-.57-.36-2.53-1.6-3.84-2.4.81.5.88.55,1.81,1.16h0l.76.53.11.11c1.52,1.35,3.67,1.87,4.79,3.7l.08.09c-1.33-.85-2.68-1.68-4-2.57l.27,0c-.57-.36-1.11-.72-1.66-1.08a6.12,6.12,0,0,0-.82-.46c-.5-.33-1-.64-1.54-.94h-.15a5.77,5.77,0,0,0-.93-.49l-.27,0a9.76,9.76,0,0,0,1,.72,5.2,5.2,0,0,1,.63.28c1.09.7,2.12,1.38,3.15,2.07A24.94,24.94,0,0,0,446,90.5c.31.17.55.31,1.56,1,.2.12.28.2.36.25.78.68,1.65,1.22,2.47,1.82-.21-.08-.47-.2-.67-.29l-.74-.52-.6-.39-.28.16c.7.65,1.3,1.4,2,2.06v.16c1.31,1,2.72,1.82,4,2.87l0,0a2.68,2.68,0,0,1-1-.31l-.15,0a16.66,16.66,0,0,1-3.33-1.9,5,5,0,0,0,2.34,2,5.89,5.89,0,0,0,.8.62c.24.17.3.18.35.18a3.94,3.94,0,0,1,1.95,1.15c-.05.18-.29.15-.53.11l.29.28c-1.48-.25-4.47-2.69-5.6-3.61a1.92,1.92,0,0,0-.68-.23l-1.55-1.22c-2.58-2.07-5.66-3.34-8.33-5.28,1.1.42,4.9,2.3,4.93,2.31a10.22,10.22,0,0,0,1.2.21c.64.27,1.22.65,1.88.86l.25,0,.12,0a3.84,3.84,0,0,1-.09-.68c-3.55-3.45-9.57-6-10.72-6.51a12,12,0,0,0-1.24-.63,3.22,3.22,0,0,0-1.29-.48c-.17.1-.19.1-.21.09-.69-.34-1.39-.67-2.07-1l-.4,0a12.93,12.93,0,0,1,1.19.79h-.28a9,9,0,0,1-1.56-1l-.36-.24a13.38,13.38,0,0,1-2-1.07l-.41,0,.28.28c-.12,0-.12,0-2-.67a8.16,8.16,0,0,1-.8-.42h.33l-.88-.61a13.63,13.63,0,0,0-3.64-1.43l1.48.89a4.23,4.23,0,0,1-1.29-.58,4.75,4.75,0,0,1-.56-.41c-.33-.23-.48-.31-.63-.4l-1-.1a15.68,15.68,0,0,1,1.84,1.14c.28.19.46.29.62.38l.35.2-.13,0a12.19,12.19,0,0,0-2.2-1.3,2.14,2.14,0,0,0-.53-.1l-1.22-.74-.32-.08.07.05.24.23-.3.15c.37.33.81.59,1.2.91l0,.15A3.93,3.93,0,0,1,417,78.8a1.51,1.51,0,0,0-.77-.26l-.18.28a4.62,4.62,0,0,0,2.61,1.34c.41.23.75.47,1.11.69l-.36,0a10.46,10.46,0,0,0-1.66-.46l-.43,0a11.33,11.33,0,0,1,2.09,1.5c-1.48-.59-2.85-1.4-4.3-2,0,.23.27.43.57.61a11.34,11.34,0,0,1,2.59,2c-.45.12-.46.12-1.8-.87l.22.31-.25.21c.19.16.44.38.65.54.46.31,1,.41,1.48.75l.55.41.24.24A20.34,20.34,0,0,1,416,82.22c.11.33.54.66,1,1h-.7c.06.17.06.17,1,.86a2.91,2.91,0,0,1-.63.21l.3.56-.13.06a3.71,3.71,0,0,0,.52.65h-.24l.16.29a1.52,1.52,0,0,0,.55.15,1.08,1.08,0,0,1,.08-.62h.35l0-.32a1.51,1.51,0,0,0,.43-.48,2.16,2.16,0,0,1,1.75.72l-.65,0,.24.22-.32.08a12.72,12.72,0,0,0,2.07,2.32l-.36,0s2.62,4.33,3.15,4.83l-.37-.32c-.16.75-.16.75-.08,1a2.32,2.32,0,0,0-.5.44l.54.62.33.1a2.81,2.81,0,0,1,.76,0,10.27,10.27,0,0,0,.72.81,4.55,4.55,0,0,0-.17.66l-.33.07c.13.54.08.6-.19.9a6.86,6.86,0,0,0,.52.93l-.25.27-.83-.39-.7-.06.5.68c.22.18.47.42.69.59l-.09.35-.34.12h-.29c-.28.32-.28.32-.4.9h-.33l-.07.33c.39.43,1.17,1.33-.06,1.32a1.51,1.51,0,0,0-.23.63c.84.82.84.82.93,1.09l-.22.26c.33.8,1.1,1.19,1.57,1.86,0,.25-.13.25-.23.24l.09.31a10.81,10.81,0,0,0,.64.94l.89.06c.94-.19,1.26.82,1.28.83l-.17.3c.18.3.37.62.58.91l-.28.2c.38.9.38.9,2.08,1.1a7.2,7.2,0,0,1,.62,1L431,112l5.93.32c-.07-.38-.12-.75-.22-1.11l.28-.16.32.11a1.51,1.51,0,0,0-.39-1.06c1.3.17,2.67,2.24,2.69,2.26,3.39.3,6.53.49,9.49.69l.06-.32.32-.06a9.2,9.2,0,0,0-.84-2.27c-.18-.22-.33-.37-.45-.52-.59-.64-.71-.78-1.89-.67-.89-1-2.22-1.46-3-2.57-1-1.14-2-2.26-3-3.37,0-1.18-1.23-1.74-1.45-2.81l.36,0c.06-.34.1-.54-.39-1.27a1.19,1.19,0,0,1,.6-.15,3.75,3.75,0,0,0-.75-1.21l0-.32.34,0c-.21-2-2.39-2.06-3.34-3.33l.1-.32a13.64,13.64,0,0,0-1.33-1.43,1.13,1.13,0,0,1,.68-.06l.19,0h.08c.38.23,1,.61,1.78,1.15l-.11-.33c.46,0,.47,0,2.08,1.08l1.51,1.32-.64-.06c2.17,1.91,2.39,2.11,2.47,2.83a3.81,3.81,0,0,1-.68-.2l-.25.24c2.62,4.4,2.62,4.4,5.22,6.95l.59.62s4.37,3.32,6.39,4.08H454a4.47,4.47,0,0,0,0-.73c.48-.11.92.26,1.4.16-.05-.19-.1-.43-.14-.62a5.37,5.37,0,0,1,1.83,0l-.07-.34a1.11,1.11,0,0,1,.28,0,16.24,16.24,0,0,0,1.5,1.12l1.06.1.51.45.18.3a4.22,4.22,0,0,1-1,0c0,.53,0,.53.89,2.31-.88-.09-1.43-.85-2.23-1.12l-.23.28a2.66,2.66,0,0,1-1-.2l-.21.25.05.33a3.77,3.77,0,0,1-.66-.26l-.28.19a11.67,11.67,0,0,0,.72,1.26l.08.17m-19.8-1.3L431,112l0,.06c.05.3.05.3.11.38s.33.28.46.46l.22.33,1.14.06.28.23a8.55,8.55,0,0,0,.92.7l.52-.21c.45.14.81.48,1.31.39,0,0,.54-.1.39-.51l.05-.22c.41,0,.41,0,.52-.06l.13-.36c0-.19-.17-.33-.17-.52l0-.41m12.15.76c-2.94-.23-6.08-.42-9.37-.61.5.66,1.34,1,1.84,1.61l.17.23,0,.49a6.74,6.74,0,0,0,1.4,1.33c1.16.65,1.16.65,1.52,1.07l.31.46.32.45a6.6,6.6,0,0,0,2.25,1.93,1.69,1.69,0,0,1,.75.71c.23.37.24.81.45,1.17l.15.24c.23.34.53.63.77,1l2.33.15c-1-1.66-1-1.66-.81-2.08.08,0,.08,0,.32,0l.35,0c.33.09.55.47.95.38.11-.23-.16-.47,0-.68s.18-.08.55-.05c-.28-.47-.62-.93-.95-1.4l1.22.08a9.64,9.64,0,0,0-.82-1.16l-.59,0c-.57.18-.82-.38-1.25-.52-.09-.26-.17-.52-.25-.78-.44-1.22-1.48-2.08-1.91-3.31l.12-.12-.07-.42.19-.11M529.5,205a197.75,197.75,0,0,0-35.66-71.69c-4.14-4.88-9.65-11.42-14-16.07a6.36,6.36,0,0,0-2.56-1c-3.66-.9-10.75-1.77-20.5-2.56l-1.46-.11c.33.13.33.13.36.13h.11l.45.32a1.84,1.84,0,0,0-1,.48,2.82,2.82,0,0,0,2.4,1.45,1.6,1.6,0,0,0,0-1.12c1.72.23,4.06,2.93,4.07,3-.32.68-.32.68.31,1.57.11.41-.05.4-.22.38s-.27-.09-2.2-1.69l-.27,0-.71-.93-.55,0c1.79,4.38,2.55,6.19,4.58,8.12l.19.48c-2.49-.61-2.49-.61-2.77-.58.19,1.18,1.35,1.61,1.93,2.49l-.22.1c-1.11-.71-2.13-1.52-3.21-2.25-.25.11-.25.11-1.37,2.29-.36,0-.84,0-1.2,0-1.32,1.52-2.73-.88-3.18-1.67l-.69,0c0,.17-.06.37-.1.55-.19,0-.44,0-.61-.06a8.6,8.6,0,0,0-1-.13c-.16,0-.4,0-.58.07.16.33.4.77.58,1.09,0,.37-.29.35-.53.35-.95-.2-1-.27-1.79-1.37l-.4,0-.72,0-.5-.85-.37-.49a1.31,1.31,0,0,1,1.26-.4c.78.22,1.45.71,2.2.94l.38-.45c-.63-1.34-2-3.77-2-3.78a1.32,1.32,0,0,0-.9-.4c-.33.1-.75.26-1.07.39,0,.16.1.38.14.53-.11.39-.17.38-.23.38a1.8,1.8,0,0,1-1-1.85l-.55-.85c-2.54.34-1.92-3.22-3.91-3.77,0,.11,0,.11.28,1.7-.28.17-.68.38-1,.52a4,4,0,0,0,.64.9c.1.18.16.25.21.33s0,.39,0,.55l-.47.37c.18.64.18.64,3.45,4.39.1.16.18.32.27.49s.31.76.45,1.08c.5.67,1.14,1.21,1.65,1.86.28.46.46.79.63,1.11l-.57,0a10.16,10.16,0,0,1-1.25.17l-.47,0a7.28,7.28,0,0,0-2.26-.21c0,.17,0,.41-.05.58a3.15,3.15,0,0,0-.91.71c.16,1,.16,1-.34,1.53l-.5-.38-.5,0-.37,0-.55.05a1.48,1.48,0,0,0,.23.92l1,.54c.25.54.52,1.09.78,1.64-1.07-.07-1.26.27-2.36,2.25h-.46a10.49,10.49,0,0,1-1.12-.05,16.78,16.78,0,0,0,1,3.09,4.7,4.7,0,0,0-2.25.28c.15.53.36,1.05.56,1.58l-1.61-.06c-.34-.18-.34-.18-1.6-.35-.53-.3-.58-.48-.66-.65a1.88,1.88,0,0,0-1.07-.51,3.52,3.52,0,0,0,.29,1.64l.53.22c.14.38.33.87.45,1.25l.42.53c.08.23.17.45.24.67a5.93,5.93,0,0,1-4.41-1.17c-2.26.87-2.26.87-2.44,1.16,0,.17.12.39.16.56.5.39.64.4.8.4a3,3,0,0,0,2.49,1.16l.64,0c1.16.82,2.23,1.71,3.34,2.56a26.52,26.52,0,0,1,1.1,3c2.12,2.48,5.69,6.63,3.49,9,0,.17,0,.4,0,.56-1.1.84-1.1.84-1.66.93l-.49,0c-1.55-.7-3.34-.85-4.74-2-1.86-.15-3.32-.21-4.8-.25-2-.3-2-.3-2.38-.52-.54-.28-.62-.28-.71-.29l-.45.32c0,.17.1.41.13.58a5.18,5.18,0,0,1-2.65.4l-.13.56c1.54,1.83.95,4.55,2.65,6.32.25,1.23.5,2.38.71,3.53,0,.17,0,.39,0,.55-1.76,1.77-.85,3.23,0,4.65l.38.45a4.12,4.12,0,0,1,.27.91c0,.2.07.4.11.6-.43.77-.46,1,.05,2.8a4.39,4.39,0,0,0,1.6.26c1.54-.33,2.91.76,4.44.48.27.26.27.26,2.22,1.25.61.74.94,1.7,1.74,2.27.06-.2.16-.47.21-.67l-.54-.17a73.88,73.88,0,0,1,12.35-6.12c-.15-.65-.3-1.33-.44-2-1.59-2.46-1.59-2.46-1.12-5.13.07-.35.14-.82.19-1.16l1.18,0a3.51,3.51,0,0,0,.5-1,3.07,3.07,0,0,1,1.07-.31l.14-.53,2.78-.25a2.93,2.93,0,0,0-.17-1.78l-.16-.59a9.87,9.87,0,0,1-.91-3.44c.9-.55.9-.55,2.81-.14h.22c1.95,1,1.95,1,2.32,1.1l1.08.06.56-.08a6.23,6.23,0,0,1,.24-2.3,4.49,4.49,0,0,1,.92-.05c.39,0,1.3.13,1.8-1.7,3.12.87,3.79,4.37,6.28,5.93a2.81,2.81,0,0,1,1.41,1.48c4.07,2.88,11.61,8.22,12.45,12.77-1.7.33-1.7.33-1.88,1.23-1.56.4-3.05-.16-4.56-.24.08.21.21.5.28.73,1.53.88,2.4,2.59,4.12,3.23l2.39.14-.63-2.28c.61-.43.89-1.18,1.57-1.52-.09-.8-.21-1.6-.34-2.4a2.37,2.37,0,0,1,.93-.57,2,2,0,0,0,.06-1.05,6.21,6.21,0,0,1-.38-1,9.8,9.8,0,0,1-1.23,0,1.17,1.17,0,0,1-.61-.77c0-.16-.08-.37-.11-.53a2,2,0,0,1,1.41-.25,4,4,0,0,1,1.86,1.42c.09-1.24-.73-2.15-1.1-3.24-2.72-.85-4.73-3.72-4.76-3.75-1.58-.11-2.44-1.61-3.86-2-.57-1.75-2.28-2.58-3.23-4a1.42,1.42,0,0,0-.45-.08c-1.13-2.07-1.13-2.07-2.45-2a7.83,7.83,0,0,1-.68-1.48l.17-.54c.18-.48.14-.57.12-.66-1-1.79-1-1.79-1-2,1.88-.3,9.17,7.16,9.25,7.25a2.41,2.41,0,0,0,2,1.12c.12.2.3.46.42.67,1.28,1.6,3.52,2,4.74,3.71,1.87,2.68,2.38,6,4.07,8.79a6,6,0,0,1,1.1.19,8.81,8.81,0,0,1,1.16,2.6l-.88-.07c-.05-.18-.11-.4-.15-.57l-.54-.18c-.06,1,.82,2,2.19,3.36.11-.21.26-.49.39-.69,1.67.82,1.58,2.73,2.53,4a2.65,2.65,0,0,0,1.05.28h.55c.21-1.42.21-1.42.13-1.65s-.13-.49-.2-.69a2.54,2.54,0,0,1-.32-1.1l.44-.32a6.32,6.32,0,0,1,.79.76l.63,0c.23-.78.23-.78-.32-2.38a5.52,5.52,0,0,1,.55.07l.18-.53c-.89-1.3-.95-1.32-1.63-1.51a7.25,7.25,0,0,1,.57,1.8c-.41-.08-1.37-.25-4.73-5.4-.2-.57-.26-.77-.34-1s0-.4.06-.57l.45.33c.86.85.86.85,1.4,1l.55,0,.32,0c.06-.66.06-.66-.65-1.41,0-.19,0-.43,0-.62,1.47-.87,2.27.82,3.46,1.06.75,1.26.75,1.26,1,1.44a3.14,3.14,0,0,1,.6,1.07l-.4.4c.49,1.68,2.18,2.67,2.51,4.44a6,6,0,0,1,.37,1.13c.07.26.12.43.18.6a12,12,0,0,0,1,1.64l.22.33.21.16.2.32.3.33.2.23a3,3,0,0,1,.36,1.3v.3l0,.39a9.11,9.11,0,0,0,.64,1.78l.24.32.22.24a2.58,2.58,0,0,0,0-1l-.1-.77c-.11-.38-.27-.87-.4-1.23-.05-.17-.11-.4-.16-.56,0-.34.08-.34.17-.32l.17.07.24.26.18.3.23.26c.23.29.54.67.76,1l.25.4.21.31.2.17.12,0a1.46,1.46,0,0,1,.82.38l.49.12.09-.15.09-.21-.12-.3-.06-.31a3,3,0,0,1-.39-1.61l0-.3.1-.29a1.75,1.75,0,0,1,1,.41,10.56,10.56,0,0,0,.62.87c.23.29.51.65.75.92l.19.31.19.24.16.1.23.18c.6.06,1.18.14,1.75.19-.09-.32-.24-.75-.35-1.08l-.11-.38a9.92,9.92,0,0,1-.36-1.21l.34.09.09-.05.19,0c.22.11.22.11,1,1.08a3.29,3.29,0,0,0,.4.11l.09-.14-.05-.28.05-.23.14.1a4.5,4.5,0,0,0,.46.8l.12.29a10.75,10.75,0,0,1,.51,2,11.84,11.84,0,0,0,.9,3.4l.13.32a3.27,3.27,0,0,1,.5,1.79l-.06.21,0,.32a6.82,6.82,0,0,1,.23,1.09v.31c-.07,1.82-.07,1.82-.19,2l-.06.22-.05.3.05.31c5,.93,8.92,1.55,11.5,2.19,2,.5,3.16,1,3.54,1.46m6.24,38-.3-3.86v0c0-.23,0-.46,0-.69v-.08c-.32-3.53-.73-6.47-.73-6.49l0-.08c.15,1.25.19,1.55.23,2.12.64,5.92,1,11.91,1.14,18l.06.1v-1.3c0-1-.09-2.1-.08-3.16h0c0,.28,0,.54,0,.82,0,0-.08-2.37-.27-5.33m-1.51-14.81-.41-2.79c-1.18-6.07-2.71-14.2-4.19-20.2l-.13-.23a196.33,196.33,0,0,1,4.14,19.8c.2,1.08.31,2.17.53,3.23l.06.21v0M410.4,112l0-.11-.58.25c-.2.15-.19.43-.38.59l-.33.09,0,0,0,.41c-.06.26-.3.43-.3.72a1.75,1.75,0,0,0,.22.59l.52.24.31-.21a1,1,0,0,0,.05-.29l.05-.26v-.25l.11-.08c.34,0,.67,0,.71-.09l-.08-.19-.13-.24.07-.44v-.11c-.06-.24-.12-.48-.18-.66m25.46,20.77a7.89,7.89,0,0,0-.53-1c-.95-.56-1.53-1.57-2.45-2.15l-.32.18c.18.25.18.25,0,1.16-.39.2-.39.2-2.17-2.76-.4,0-.8,0-1.21-.06a15.23,15.23,0,0,0-.78-1.84c-.52-.63-1.38-.81-2-1.38l-.47-.14c-.36-.7-1.28-.85-1.56-1.6-.19-.47-1.6-1.92-2.4-2-1.38-.06-2.6-.5-1.9-1.58-.12-.35-.12-.35-.11-.46a3.25,3.25,0,0,0,.72-.07c-.08-.16-.15-.32-.29-.58-.31-.52.36-.94.14-1.45l-1-1.85c-1.28,0-2.56-.09-3.86-.25,0-.39,0-.39.17-.55,0-.44-.42-.7-.42-1.11a7.82,7.82,0,0,0,.43-.93c-.42-.36-.45-.39-.77-.44l-.38,0c-.18,0-.38,0-.65,0s-.38.17-1.69,0l-.1.09a6.8,6.8,0,0,1,.44,1.72c.2.57.56,1,.79,1.58-.76.07-1.37-.43-2.09-.52-1.11-.13.14,1.51.18,1.59.39.51,1.15.24,1.57.72v.33c.08.15.15.31.27.58.05.47.66.74.47,1.3-1.13.28-1.13.28-.52,1.33a7.36,7.36,0,0,0,.93,0c.08-.09.18-.24,1.49.8l.84,0a1.8,1.8,0,0,1-.22-.93s1.84,1.68,1.67,2.43c-1.05.08-.51.62.09,1.25l2.11.08v-.47c1.4.73,1.73,2.54,3.2,3.21.21,1,.21,1,.42,1.24.6.67.67.92.41,1.23l-1.28-.07c-.42-.1-.78-.42-1.24-.42l-.28,0h-.35c-.05.08-.05.08-.13.49l-.05.53a6,6,0,0,0-.75-.07l.09.5c.84.48,2.51,0,2.58,1.33a2.12,2.12,0,0,0-.48,0c-.28.34-.28.34-.24.76-.15.13-.19.17-.58.14h-.29c.43,2.08,1.35,1.49,1.74,1.24a32.57,32.57,0,0,1,3.5.47c.18.06.64.72.24,1-.65.48-1.45-.05-2.09.39a2.24,2.24,0,0,1-.07.51,6.24,6.24,0,0,0-1.21.2,3.74,3.74,0,0,1,.45,1.54,1.81,1.81,0,0,1-1.09.74c.75.42.75.42,1.83.06l.39-.36,0-.38a5.35,5.35,0,0,1,1.12.41l1.33.06c-.41-1.12-.39-1.17-.29-1.37,3.4.6,3.36.11,3.31-.56l.09-.12c.82.09,1.32.84,2.12,1H433c.55-.22,1.13.17,1.67-.09.26-.12.23-.41.19-.79.38-.17.83.1,1.18-.26-.16-.78-.9-1.16-1.29-1.79l-.13-.34c-.11-.25-.11-.25-.06-.45a3.64,3.64,0,0,1,.74-.06s-.11-.56-.25-1l.83,0m-24.53-8h0m6.17.63c-.17-.69-.86-.9-1.22-1.41-.19-.29-.24-.69-.52-1a1.73,1.73,0,0,0-.57-.37c-.16-.08-.34,0-.5-.05s-.32-.28-.52-.34H414a2.87,2.87,0,0,0-.91.32v.47l-.35.23a9.07,9.07,0,0,0-1.47-1,2.56,2.56,0,0,0-1,.08c.35.79.5,1.64.9,2.4h-.28l-.31.22c-.18,0-.35-.05-.53,0l-.18.11c-.16.11-.39.29-.63.14-.48-.31-.48-.31-.88-.22.44,1.14.85,2.3,1.26,3.47a6.84,6.84,0,0,0,1.53,0c.19.51.38,1,.56,1.55-.37,0-.74,0-1.1.08-.43.73.34,1.34.2,2-.39.21-.56.31-.16,1a2.55,2.55,0,0,0,1.21.81c.41.12.67-.3,1.05-.31a2.12,2.12,0,0,1,1.09.35c.41,0,.78-.58.81-.65s0,0-.09-.58c-.08-.24.23-.25.29-.42l3.86.14c-.1-.24-.18-.48-.27-.71-.19-.41-.67-.63-.73-1.12.46-.33.46-.33.39-.66a14.61,14.61,0,0,0-1.17-3c-.13-.32-.27-.64-.4-1,.83,0,.92-.39.85-.75m88.87,231c.11-.19.23-.37.33-.56,4.07-7.12,4-7.47,3.86-8.43-.53,1.05-.53,1.05-4.74,7.3-1.44.1-1.07,1.78-2,2.34-1.27-.33-1.27-.33-4.82,4.76-1.54,2.23-2,5.12-4.29,6.91l-.12-.14c-1.46,1.66-2.77,3.45-4.17,5.15-.13.18-.26.35-.38.53-.59.84-1.07,1.76-1.69,2.6-.25.33-.5.67-.78,1-.69,1-1.48,1.9-2.15,2.91l.11.15c.21,0,.44,0,.64,0-.47.75-.47.75-.47.89l.16.1v.21c3.35-.84,17.34-20.93,17.48-21.14l.69-1.1c.21-.37.4-.75.62-1.11l.32-.56c.46-.63,1-1.21,1.38-1.86M532.81,278c.09-.87.18-1.75-.56-2.36-.15.34-.32.79-.45,1.13l-1.22.34a4.7,4.7,0,0,0-1.3.09l-.71-.86c-.08-4-.08-4-.31-4.86,0-8.51-5.54-15.9-4.9-24.54,0-.46,0-.92-.06-1.75,0-.23-3.2-25.66-13.5-39.74a2.25,2.25,0,0,0-.82.21c-.2.27-.49.64-.7.9l-.3,0c-5.29-2.31-9.66-6.6-15.7-7.31.51,2.57,1.23,5.09,1.52,7.7-.33.07-.75.17-1.08.23l-1.35-.06c-1.1-1-1.75-2.55-3.3-3.1a35.13,35.13,0,0,1-4.05-.43c-.35-.66-.46-1.71-.95-2.27-2.39-2.81-6.27-2.81-9.09-4.84-3.14-2.25-1-6.69-3.72-9.09,0-.37-.07-.85-.09-1.22a3.49,3.49,0,0,0,1.47-1.57,11.7,11.7,0,0,0-3.14-1.76c-2.53.65-2.53.65-6.95.89a5.24,5.24,0,0,1-1.73,1.33c-2.57-2.26-2.57-2.26-7.37-1.42-.18.32-.41.76-.58,1.07a10.44,10.44,0,0,0-5.08.68,6.28,6.28,0,0,1-.53,2.17c-1.43.32-3-.09-4.35.69a8.32,8.32,0,0,1-1.12-.14l-1.21-.26h-.84c-2.69,0-3.28-.46-4.34-1.41l-1.15-.66c-1,1.77-.18,3.77-.73,5.58a12.21,12.21,0,0,1-3.5,0c.24,1.7.47,3.43.68,5.16a8.83,8.83,0,0,0-4.1.52c0,2.84-.31,5.68-.15,8.53.06.74.14,1.5.19,2.25a6.72,6.72,0,0,0-3.4.48,5.08,5.08,0,0,1-4.63,5.12c-1.09.17-6,12.26-6,12.37l-1.08-.08-1.08.22-1.07.66c.44,6.65-.43,7-3,8-.13.33-.29.77-.4,1.09a3.83,3.83,0,0,0,.66,2.47c4.67.87,4.67.87,5.14,1.77-1.25,2.52-1.25,2.52-1.26,11l0,1.36c0,1,0,1-2.42,3.49a48,48,0,0,0,1,4.73c0,.45,0,.9,0,2.44,0,0,4.73,8.19,9.28,10.59-.22,1.95-.79,7.16,6.35,7.66,4.8,9.4,5.1,10,9.52,9.36a9.36,9.36,0,0,0,1-2.23c1.45-.6,3,.1,4.47-.28l.69,0c1,0,1,0,3.43.07.92,1.38.92,1.38,7.07,1.38,1.89-3.82,3.49-3.46,7-2.69a2.09,2.09,0,0,0,.68-.06s3-3.09,5.49-1c.39,5.19.39,5.19,2.5,6.12,2.75.13,5.43.28,8,.43-.21,1.33-.42,2.66-.68,4.16-1,2.64-1,2.64-3.83,12.13a3.17,3.17,0,0,0-1.63,1.27A3.82,3.82,0,0,0,469,311.2c.72,1.76,0,4,1.68,5.44-.57,5.48,2.43,11.05-.45,16.47-.14.39-.29.79-.7,2.14a4.4,4.4,0,0,0,.38,2.29l-8.3,13.72c-5.19,3.56-4.12,15.36-4.07,15.45-1.77,3.33-1.89,4.88-2,5.54-1,1.78-2.05,3.53-3.26,5.55,0,.11-6,15.51-6.87,17.9-.14.15-.26.31-.64.71-1.91,1-1.91,1-2.38,2.42.17,0,.36,0-.06.72l-.78.9c.06.34.12.8.19,1.14a16.31,16.31,0,0,0,3.23,0,19.53,19.53,0,0,1,2.28-.73,9.21,9.21,0,0,0,3.64-.28c9.25-8.74,20.88-14.46,30.08-23.29l21.08-25.84c.31-.57.6-1.15,1.36-2.57a21.55,21.55,0,0,0,.87-2.1c1.13-2.28,2.26-4.58,3.33-7.16.47-4.23,3-7.79,3.83-11.91l.33-.85c3.43-7.94,9.29-14.49,12.7-22.43,6.86-16,6.86-16,8.28-26.4M351.75,324.77c0-.07-.26-6.51-3.44-7.91l-3,0c-4.8-1.45-4.8-1.45-5.23-4.29-3-1.94-3-1.94-5.16-1.31-1.28,0-2.57,0-4.22-.05-4.12-1.65-4.12-1.65-5.31-1.16,0,.33,0,.78,0,1.12-.86.52-1.34.8-3.4-.26,0-.29-.05-.66-.07-.94.47-.28,1.08-.69,1.55-1a16.9,16.9,0,0,0-7.49-3.52,3.79,3.79,0,0,1-1.44-.37,4.4,4.4,0,0,0-3.71-.61c0,1,.07,2,.09,3h-2.68a14.85,14.85,0,0,1,.05-1.75c.34-.41.8-1,1.14-1.42l.79-.6c-.15-.26-.37-.61-.53-.86,0,0-1.75-.54-3.61-1.27h-.72a8.25,8.25,0,0,0-1.41.16c.13,2.15.18,3.14-2.52,2.72a14.58,14.58,0,0,1,0-1.61l-.06-1a4.5,4.5,0,0,0,2.74-.52c.73-3.66.09-5.13-.15-5.69-.57,0-1.31,0-1.88,0a26.09,26.09,0,0,0-.44-4.05c-.3-1.18-1-2.18-1.42-3.31-3.35-.81-3.66-1.72-3.95-2.6-4.86-1.92-4.86-1.92-5.17-2.1-1.64-.8-3.22.27-4.84.18h-1.14c-7.8-1.52-7.78-4.66-7.77-6-3.07-1.63-3.07-1.63-4.07-2.26,0-.22,0-.45-.88-.77-1.53-1-1.53-1.15-1.48-3.07a6.52,6.52,0,0,0-1.11.12c-.93.28-1.81.69-2.76.9-.76-.71-.76-.71-.92-2.67l1-.28c0-.27.11-.62.15-.9a6.63,6.63,0,0,0-2.58-1L263.25,269c-.11,0-.21,0-.79-.24a6.64,6.64,0,0,0-1.77-.37c-.84.95-1,2.29-1.78,3.28h-1c-1.39-2.28-1.43-2.29-3.58-2.71a24.41,24.41,0,0,1-3.41-.12,14.61,14.61,0,0,0-1.83-.51,2.28,2.28,0,0,0-.84-2c-1.45-.42-2.6-1.49-4.08-1.84-.23.16-.55.37-.77.54,0,.12,0,.12-3.48,3.82a30.44,30.44,0,0,1,.8,4.83l-.68.63c-1-1.61-3.76-7.16.81-10.93l-.28-.68a15.37,15.37,0,0,0-1.59.09c-1.68.56-1.68.74-1.5,2.84l-3.24.07c-3.82,2.65-3.82,2.65-5.87,2.67.06,1.29.13,2.59.07,4.05-.71.76-.71.76-2.5,1.33,0,2.72-3.82,4.25-2.36,7.44l.89.15c.17,2.71,3.55,5.68.59,8.12-.34,5-.34,5-2,5.26.15.68.37,1.59.56,2.27-.43.33-1,.8-1.37,1.15,0,.41,0,.95-.07,1.35-1.86.67-1.91,1.54-1.56,3.87a5.36,5.36,0,0,0-2,.33c.53,1.85.39,3.82,1,5.63.89.3,1.79,0,2.68.09.07.41.16.83.21,1.33l-.42.83a3.68,3.68,0,0,0-1.53.91c.29,1.91-1.13,3.94.33,5.79a8.28,8.28,0,0,0,.19.81c1.16,5.54,7.85,6.76,9.39,12,.11.46.23.91.4,1.46,1.39,1.81,1.77,4.22,3.52,5.82,3.38,3.09,3.26,10.57,9.67,9.73,5.93-.79,6.3,7.41,11.82,7.31.56,1.94,1.12,3.87,1.75,5.93a6.41,6.41,0,0,0,.47,1.78l0,.27a9.58,9.58,0,0,0,.41,1.05c.13.23.29.56.42.8a3.64,3.64,0,0,1,.06,1,6.86,6.86,0,0,0,.49,1.84l0,.16a3.51,3.51,0,0,0,.54,1.06c.1.27.25.63.36.89l.09.31a3.31,3.31,0,0,1,.11,1.34,7.3,7.3,0,0,0,.95,1.65c.07.18.12.35.19.53s.12.34.19.58c.26,1.83-.17,3.73.56,5.51.58,1.66.58,1.66,1.29,7.4l.46.77c3.77,6.19,5,8.29,4.17,11.26a9.71,9.71,0,0,0,.77,1.28c.12.26.28.59.39.85.51.65.51.65.39,4,2.24,2.16,2.56,5.53,4.86,7.65,1.6,1.39,1.16,4.11,3.36,5.1l1,0L276.79,415c.41,0,.81,0,1.23,0,.25.39.51.77.78,1.21,0,.27-.09.64-.13.92.47.66,1,1.32,1.44,2.06,0,.14,0,.14,2.42,3.9-.52-.3-1.19-.71-1.69-1l-.27-.35c-.19-.22-.45-.51-.65-.72.06.05.1.12-.28.19a5.12,5.12,0,0,0,1.12,1.12,8.43,8.43,0,0,1,2.68,2.39c-.86-.3-1.56-.9-2.42-1.19a2.09,2.09,0,0,1,.62,1.1,6.79,6.79,0,0,1,.12.89c1.81,1.12,4,1.57,5.45,3.28a3.36,3.36,0,0,0-1.49.86c.06,0,.12.1.79.66.43.33,1,.75,1.48,1.05a7.1,7.1,0,0,1,.58.86c1.07.58,2,1.43,3,2.05l-.12.3.65.28a2.49,2.49,0,0,1,.88.2,2.73,2.73,0,0,0,1.43,1l.23.21,6.76,3.6a3.49,3.49,0,0,0,.53.39,21.12,21.12,0,0,0,2.69.71,3.94,3.94,0,0,1,.94.24c.5,0,1,0,1.89-.1l.43-.54a5.28,5.28,0,0,0-2.64-.75,2.36,2.36,0,0,0-1.33-.61s-1.35-1-2.91-2.27a7.17,7.17,0,0,0-.71-.62c-.66-.67-1.44-1.19-2.09-1.85a4.81,4.81,0,0,0-.65-.58c-.28-.31-.57-.63-.86-1s-.38-.5-.56-.71a2.18,2.18,0,0,0,1.13-.21,9,9,0,0,1-1.09-1.5c.22-.15.52-.38.72-.54-.21-.57-.52-1.36-.72-1.94.16-.22.33-.54.48-.76-.15-.22-.32-.45-1.12-.73l-.9-.18c-2.87-1.94-2.87-1.94-3.22-2.38a2.5,2.5,0,0,1-.28-1l.58-.73,1.85,0a8.58,8.58,0,0,1-1.16-2.59,11.33,11.33,0,0,1-.4-2.65l1,.1c0-.27.09-.63.14-.9s-.14-.25-.76-.77h-.16l-.13.05-.81.47c-.58-.41-.58-.41-1.76-2.09-.22-.4-.42-.81-.63-1.21h.72a13.22,13.22,0,0,1,1.82.87l2.22,0-.45-.8c-.05-.13-.12-.27-.38-.95.1-1,.1-1-1-2.46-.14-.32-.26-.63-.41-1a17.19,17.19,0,0,0,2.16-.12c.27,0,.54,0,1.36-.07.24-.11.6-.25.87-.36.64,0,1.28,0,2.17,0l.88.16c0-1.61,1.25-2.68,1.82-4.05l.18-.84c-.15-.44-.28-.88-.4-1.33a4.25,4.25,0,0,1-.89-.11c-.07-.29-.17-.58-.37-1.26-1-1.26-2.75-1.64-3.62-3.07h1.86c6.2,1.44,7.65,1.78,8.13-.46,1.6-7.67,3-8.48,3.6-8.79a3.59,3.59,0,0,1,.18,1.75l.9.19a24.43,24.43,0,0,0,2.07-4.19c.19-1.66,2.41-1.68,2.66-3.29.34-2.34-2.22-4.17-1.17-6.63,0,0,3.5-4.17,5.15-5.31.88,0,1.76,0,3-.06a13.71,13.71,0,0,0,2-1.9c2.21,0,4.41,0,6.62-.17a3.78,3.78,0,0,1,.63-1.65c1-.47,2.21-2.51,2.46-3.57a13.32,13.32,0,0,0,1.59-1.06,7.1,7.1,0,0,1,1.06-3.89c.61-.37.61-.37,1.51-5.14a3.27,3.27,0,0,1,.36-1.31,8.48,8.48,0,0,0,1-3.65,9.51,9.51,0,0,0-.09-1.42c0-.27-.11-.62-.17-.89a8.27,8.27,0,0,0-.1-1.84,7.23,7.23,0,0,1,.76-3.69c.58-.17.58-.17,4.2-4.81a2.86,2.86,0,0,0,2.44-1.32l4.32-6c1.14-2.16,1.14-2.16,1.21-3.34m-94.52-81.68.16-.08c-.33-.34-1-.14-1.2-.67s.1-1.32,0-2a12.62,12.62,0,0,1-3.66.65h-1.21c-.63-.12-1.14-.6-1.79-.65H249c-.54.2-.71.86-1.28,1l-2,.07c-.87,0-1.13-1-1.87-1.17-.93-.21-1.43-1.26-2.45-1.3l-4.1-.16a8.35,8.35,0,0,0-2.23.38c0,1.37-.08,2.74-.09,4.11,1.12,1.45,1.87,2.25,2.25,2.35l1.24,0c1,0,1,0,1.88-1.1.4-.53,1.87-.71,1.87-.71.7,0,1.32.36,2,.35s1.32-.37,2-.35a15.72,15.72,0,0,0,4.56-.61,1.17,1.17,0,0,1,1.21,0,16.87,16.87,0,0,0,3,.48l1.23,0c.45-.06.72-.41,1.07-.62m-31.11,2,.12-.21c-.13-.43.18-1-.23-1.35s-.65-.12-1-.25-.59-.51-1-.67l-.31-.07-3.16.08c.21.4.33.84.55,1.24l.28.34c.21.21.28.19.86.06s1.47.67,1.48.68c.19.18.19.37.18.83a1.23,1.23,0,0,0,.08.58c.36-.09.72.19,1.09,0,.22-.13.22-.13,1-1.22M223,237.27l8.43-.19c-.5-1-2.51-3.87-4.25-4.15L226,233c-1.19,0-2.36.57-3.55,0-.83-.39-1-1.33-1.64-1.9a27.42,27.42,0,0,0-3-1.95c-1.15-.76-1.15-.76-1.3-1.3s-.22-.76-.92-.79-1.55.13-2.35.18c-.49,0-.49,0-1.08.55s-.92-.07-1.38-.1l-2.23.06c-1.89-.05-1.89-.05-2.17.22-2.26,2.27,1,6.06,3.64,4.27.67-.45,1-1.26,1.8-1.57a6.79,6.79,0,0,1,1.9.07s2.13.83,2.32,2.19c.05.31.08.57.34.72,1.81,1,2.08.95,2.66.84.75-.13.93.17,1.24.78a3.57,3.57,0,0,0,2.76,2m163.71-144-.82-1.47c-.26-.23-.43-.56-.77-.73a3.92,3.92,0,0,0-1.61-.4,8.68,8.68,0,0,0-1.13-2.29l-1.65,0c-.6,0-.6,0-1.93,1.33-.78-.08-1.53-.38-2.32-.41-1.37,0-1.73.3-2,.53a1,1,0,0,1-.73.28l-1.42,0c-.09-.24-.2-.48-.3-.72s-.2-.47-.3-.68-.58-.45-.84-.72l-.65.16.3.69c-.66-.22-.66-.22-2.74-.25-.24,0-2.07.39-.57,1.93.74,0,1.38-.56,2.14-.28l1.55.9c.25.25.2.61.35.91a8.83,8.83,0,0,0-3.81-.09c.21.33.47.76.67,1.09a1.86,1.86,0,0,1,.62-.15l1.53,0,.27.2c.17.48.35,1,.52,1.48l.66.78h.79c.75,0,1.5-.16,2.26-.13h.84c1.08-.07,1.66.93,2.58,1.21,0,0,2.95.66,2.88-.85,0-.6,0-.6.44-1.08.3-.28.78.23,1-.19.39-.76.39-.76.77-.9.56-.23.56-.23,3.39-.12M301.09,142.4l.24-.28c-.05-.31-.14-.74-.19-1.05-1.24,0-1.24,0-1.64-.27a7.56,7.56,0,0,1-1.86-1.46c-.18-.32-.29-.51-.59-.61a17.58,17.58,0,0,0-2.17-.25,8.74,8.74,0,0,1-1-.52c1-1.91,1-1.91,2.15-2.38.2-.09,1-1.08.58-1.76a1.83,1.83,0,0,1-.25-.48,4.16,4.16,0,0,1-.78-.06,3.77,3.77,0,0,0-1.45.57c-.42.43-.23,1-.43,1.5-.48,1.13-.48,1.13-1,1.58-.06,0-5.68,5.12-5.87,5.38a4,4,0,0,0-.71,1.52,10.5,10.5,0,0,0,0,1.26q4,0,8.11,0c.69.07,1,.16,1.65,1a6,6,0,0,0,2.55,2.18,1.47,1.47,0,0,1,.71-.38c.27-.1.91-.33.88-2.73,0-1.45,0-1.45,1.08-2.77m-21.61-3.24.07-.08c-.28-.12-.49-.36-.8-.48a1.63,1.63,0,0,0-.56,0c-.57.05-.63.05-.87-.06a1.81,1.81,0,0,1-1.05-.95c-.2-.45-.37-.53-.65-.53a3.88,3.88,0,0,1-.76,0l-1.18.52c.29.18.65.24.89.51s.23.64.42.92l.19.21c.25.22.51.43.74.67s.35.49.56.69a1,1,0,0,0,.52.31c.29.09.78.22,2.48-1.73m70.25-81.33c-.59-.13-1.2-.12-1.78-.2a3.55,3.55,0,0,0-.57-.05h0l0,.08a3.87,3.87,0,0,1,.55.25,2.7,2.7,0,0,1-.88-.11l-.2.2h-.09a1.47,1.47,0,0,0-.16.23l.15.25-.67-.57a3.75,3.75,0,0,1-.55-.3,3.71,3.71,0,0,0-.84-.2h-.23l-.27.06.28.2a3.6,3.6,0,0,0-.58,0l-.23-.18h.1l.28,0a2.46,2.46,0,0,0-1-.06c-.2,0-.39,0-.72,0a1.78,1.78,0,0,0-.56.1h0l-.14,0h-.05l0,0h-.3l.07-.26a8.26,8.26,0,0,0,1.31-.06,5,5,0,0,0,1.13-.06l.28,0-.44-.09h-.41c-.39,0-.79-.08-1.18-.12l0,0-.44,0-.32,0h-.6l-.13,0H340l-.07,0,.11,0,1.34,0a5.65,5.65,0,0,0-.59,0h-.15l-.56,0h-1.27a1.91,1.91,0,0,0-.32.09l-.28,0a1.91,1.91,0,0,1-.41,0h-1.22l-.29.06h0l.09,0v0h0l-.13.1h0v0h-.4l0,0h-.08l-.09,0h0l.11.06h0l0,0h.25v0l.06,0,0,.08v0l0,0,0,0-.1.08-.13,0h0l-.16,0,0,0h0l-.09,0-.26-.08h0l0,0h0v0l-.05,0,0,0h-.28a2.75,2.75,0,0,0-.64,0l-.1.1h.07l-.05.06v0l0,0-.06.08,0,0-.12.09-.06,0h-.17l0,0v0l0,0,0,0,0,0v-.13h0v-.08h0l-.1,0h0l.07,0h0l0,0h-.24l-.31.11-.26.11-.1,0-.08,0-.08,0-.46.15-.11,0-.21-.06a1,1,0,0,0,.27-.09l.35-.08.11,0,.1,0h.06l0,0,.09,0,0,0,.07,0,.2-.07h0l0,0h0l-.06,0-.2,0-.27,0-.13,0h-.19l-.1,0h-.09l-.22,0h-.41l-.22,0h-.44l-.16,0-.1,0-.08,0h.13v0l-.06,0-.09,0-.05,0-.1,0,0,0h.15v0l-.06.05h0l0,.07-.13,0H330l-.05-.05,0,0v0h0l-.09,0,0,0h0v-.05l0,0,.06,0,.06,0,.09,0h-.26l-.1,0h-.09l-.14,0h-.07l-.34.05a3,3,0,0,0-.54.13l-.06,0-.1,0-.1,0-.92.28-.34,0,0,0,.07,0h-.51l-.46.09c-.36.07-.74.11-1.1.18-.17,0-.4.1-.56.13l-.15,0h-.45l-.17,0-.17,0-.16,0h-.07l-.21.06-.17,0h-.12l-.64.17-.15,0a3.56,3.56,0,0,0-.56.15l.24,0-.06,0-.08.06h.11c.15,0,.38,0,.55-.06h.34l-.57.23-.09.05-.11,0-.11.06-.78.33-.6.2-.19,0-.42,0h-.06a1.5,1.5,0,0,0-.65.08l-.33.07a4.32,4.32,0,0,1-.56,0,1.91,1.91,0,0,0-.72.06l-.23.09-.31.12-.3.08-.14,0h-.47l-.28.08c-.37.08-.74,0-1.1.09l-.16,0-.15,0-.16,0-.19.06-.16.07-.16.07-.2.07-.16,0h-.4c-1,.32-1.07.4-1.23.73l.26.11-.23.16h.79l0,.14.07,0,0,.16H313l.46-.11.18,0a4.53,4.53,0,0,0,.7-.05l.28,0H315l-.63.35-.28.12-.16,0a4.6,4.6,0,0,0-.72.22H313l0-.05h-.12v0h-.31l-.25,0-.53.11h-.12l-.41-.1h-.14l-.51.22h-.52a.9.9,0,0,0-.67.4l0,.08c.24.06.31.08.63.42l0,.05-.29,0-.21.07-.16.09-.07.09.13.09-.06.09-.05.08-.11.09,0,0,.05,0,0,0,.13.14,0,.05V65l.31.09h.18l.19-.06.1-.1.38-.37h.23a2.82,2.82,0,0,1,.57.09l0,0,.06,0,0,0,.13,0,.25-.19h.42v.07a1.69,1.69,0,0,0,.56.06l.18-.09.16,0,.17-.05.14,0h.09l.14,0,.19-.09.4-.12.21.19,0,0h.71l.21.19v.08l.08.05.09,0h.7l.09,0,.23.19,0,.07h.51v.28l.24.1a1.23,1.23,0,0,1,.27,0l.05.25a4.85,4.85,0,0,0-.66.89v.1l0,.1.08,0h.18l.08.08.12,0,.07.09-.06.31-.07.1.08.3.07.1,0,.16v.11l0,.53,0,.48.06.07.14.33-.12.16c-.28.24-.31.27-.25.79-.13.21-.25.42-.39.63-.48.32-.48.32-.63.61h.68a1.11,1.11,0,0,1-.46.5,1.6,1.6,0,0,0-.56.17c-.23.31-.29.71-.56,1h-.56c-.09.18-.2.36-.3.53l0,.31a2.65,2.65,0,0,0,.57.15,3.12,3.12,0,0,1,.56.06l.28.08a10.9,10.9,0,0,0,1.58-.1c.16-.29.16-.29,1.59-.49-.13.61-.32,1.36.83,1.4h.19a6.16,6.16,0,0,1,.87.75l0,.27-.19.28h-.74l-.3,0h-.72c-.63,0-1,0-1.3-.49-2.25-.22-2.49-.07-2.5.63l.43.45c-.56.63-1.68.4-2.08,1.32l.17.25c1.31.14,1.31.14,1.81.89l.33.07a2.66,2.66,0,0,1,2.34-.73c.12-.35.25-.7.33-1a8.76,8.76,0,0,1-1.25-.09l-.06-.27a2.32,2.32,0,0,1-.59-.06l.29-.29c.21,0,.43,0,.85,0,.44.33.44.33,1.36.47h.93a1.32,1.32,0,0,1,.53.2l0,.31-.09.2c-.38.16-.6.54-.92.77a.59.59,0,0,0,0,.32c.39.46.39.46.45.75-.11.3-.2.61-.29.91a6.73,6.73,0,0,1-1.21-.09c-.45.15-.78.59-1.32.55h0a1.67,1.67,0,0,1-.52-.07,1.5,1.5,0,0,0-.6,0,4.18,4.18,0,0,1-.81,1.52A4.87,4.87,0,0,1,315,83c-1.9,1-1.9,1-2,1.16a3.08,3.08,0,0,0-.07.46,2,2,0,0,0,.19.58c1.23.28,1.31.63,1.3.72,0,.91-1.41.61-1.39,1.55l.14.3s.18.57.33,1.25c.74.25,1.31-.39,2-.35a2.18,2.18,0,0,1,.57.07l.15.25c-.07.17-.2.4-.28.56a2.48,2.48,0,0,0-.53,0l-.28.1c-1,2.45-1,2.45-.73,2.84,1.14,0,1.86-1.23,3.05-1a9.27,9.27,0,0,1-.52,1.62c-.44.41-1.11.39-1.55.76s2,5.77,2,5.82c1.78,2.64,3.27,3.94,4.42,3.84a3.86,3.86,0,0,0,.66-.05,1.79,1.79,0,0,1,1-.25h.29c.3.08.6.1.9.18,0,1.73,1.94,1.48,2.73,2.44.43.48,3.75.51,3.69-1,0-.14,0-.28,0-.65.17-1.92,3.36-3.79,1.33-5.55,0,0-1.28-1.21.73-1.34a4.76,4.76,0,0,0,.65,0,3.24,3.24,0,0,1,.95-.06,4.28,4.28,0,0,1,1.81-2,7,7,0,0,1,.25-2l.2-.21a1.87,1.87,0,0,0-.77-1.64l.06-.29c.63-.39,1.44-.09,2.05-.56.41-.33.08-.8.2-1.18h2.41a3.38,3.38,0,0,1,0-1.3,4.43,4.43,0,0,1,1.34.16c0,1,0,1,.19,1.31,1.23-.13,2.11-1,3.21-1.5h.46a2.59,2.59,0,0,0,1.41-.27l0-.31c.36-.7,1.1-1.06,1.53-1.67.45-.17.45-.17.85-1.06a4.06,4.06,0,0,0,.66-.25.8.8,0,0,1,0-.49c.77-.65.77-.65.55-1.5v-.06h.12l.32,0,.09,0,.1,0,.08,0,.21.13.1,0,.21.19a1.74,1.74,0,0,0,.94.13c.87-.06,1.61.56,2.47.55,1.12,0,1.19-1.6,2.33-1.56.79,0,1.46-.62,2.27-.48,1.17.18.71-1.6,1.64-1.88l1.74,0c.33-.18.33-.18.8-.91l-.14-.26-.37-.15-.4.44-.1.36h-.31l-.31,0c-.63-.12-1-.83-1.68-.83h-.5c-2-.09-2.37-.73-2.55-1s-.16-.39-.24-.58c2.29-.36,2.29-.36,2.69-.75,1,.38,1.15,1.79,2.35,1.91l.22-.21.08-.51c.55-.25,1.19.08,1.75-.22-.75-1-2-1.43-2.89-2.23s-2-.88-2.49-2l.29-.11c1.25.72,1.25.72,1.34.72a2.85,2.85,0,0,0,.52,0l.3,0c-.24-.46-.24-.46-.56-1a2.28,2.28,0,0,1-.25-.5,1.25,1.25,0,0,0-2-.41,1.56,1.56,0,0,1-.91-.21l.44-.4c-.11-.11-.11-.11-1.07-.48l.07-.17,1.08,0c.13.21.28.42.43.64a6.18,6.18,0,0,0,1.23,0l.17-.26h.29a2.84,2.84,0,0,1,.51,0c.58.24.58.24.93.1.25-1.55-2.06-.89-2.95-1.54l.06-.27c1.21.26,1.57.1,1.73,0l.16-.31.29.1.38,0a1.29,1.29,0,0,0,.55-.11c-.88-.83-2.25-.94-3-2,.09-.09.09-.09.72-.11-.19-.19-.38-.39-.79-.74a3,3,0,0,1-.87-.51,1.56,1.56,0,0,0-.21-.18c-.81-.42-1.83-.25-2.55-.9L356,64c.17-.21.17-.21.76-.3h.44a1.73,1.73,0,0,1,1.09.37s.07,0,.2.25.23.39,1.17,1l.16-.09c-.55-.5-1.11-1-1.68-1.5l-.08-.27-.15-.11c-.49-.26-.49-.26-1.42-.28l-.38,0h-.29a1.72,1.72,0,0,1-.48-.54l.27.09h.21l.28-.1a3.56,3.56,0,0,0-2.23-.41l.12.29a1.85,1.85,0,0,1-.94-.72l0-.24a11.44,11.44,0,0,1-.92-.71l.44,0-.27-.19v-.28c.05,0,.1,0,0-.15-.73-.37-.75-.43-.85-.78l.29-.06-.27-.15,0-.28-.32-.1-1,0-.26-.22.57.1.25-.09-.5-.29.2-.14-.6-.16m-19.13-.68.56-.11-.51,0-.12,0,.54-.07.38-.08-.48,0h-.27l-.76.05.66-.07h-.41l.48,0h-.4l-.85.06.51,0-.44,0c-.27,0-.53,0-.79,0l.28,0-1.06,0-.53,0h-.11l.34,0-2.17.11-1.15.11h.31a14.14,14.14,0,0,1-1.94.27c.23,0,.48-.07.69-.12l-.21,0,1.26-.14-.44,0,.37,0-.59,0-1.92.2h-.2l.35-.06h-.12c-.56,0-1.11.12-1.67.16h-.29l-1,.13h-.17l-1.12.15,0,0-.13,0L316,58.1a4,4,0,0,1-1.23.26h.2l-.16.12,1.55-.25.89-.14.59-.05-1.24.18-1.52.26-1.28.26a10.57,10.57,0,0,0,2.74-.34l.21,0,.54,0,1.33-.22,1.1-.17c.67-.1,1.34-.17,2-.26l.15,0-.33,0-2.49.37.58,0,0,0h.1l-.88.18h-.49l-.51,0-.65.1c-.49,0-1,.13-1.46.18h-.3l-.46,0-1.05.23L314,59l-.4.14-.88.26.32.09-.5.06-.32,0a6.32,6.32,0,0,0,1.38-.63h-.19l-.37-.05-1.26.28-.73.22-.93.31-1,.45-.23.2.46.07c-.49.14-1,.18-1.49.33l-1.21.41,1-.55-.18-.08-.82.09-.75.11-1.21.24-1.21.38-.85.29.13.09c.24,0,.47,0,.7,0l.8-.09-1.52.35-1,.41c.44.09.44.09,3.11-.61l-1.51.49-1.67.44-.74.07,0-.34.25-.34-.71.06a13.9,13.9,0,0,1-3.72,1.21l-1.49.47-1.16.65-.09.29a12.22,12.22,0,0,0,1.56-.38,16.19,16.19,0,0,0,2.09-.08l.07.18a4.89,4.89,0,0,0,1.05-.17c.21,0,.42,0,.48.07-.83.37-.83.37-.92.49a2.35,2.35,0,0,0,.86-.1h.51a24.1,24.1,0,0,0,3.51-1l.84-.46-1.28.31L304,63l.92-.14,1.49-.56,1-.47h.44c1.14,0,2.07-.67,3.13-.93h.68a1.74,1.74,0,0,0,1.14-.5l-.06-.18h-.19l-1,.22-.89.2.82-.31c.83-.16,1.64-.35,2.45-.53h.45l-.51.22c.43.09.43.09,2.34-.31l.56-.35.66,0-.52.23.56,0,1.06-.17.87-.35.05-.13h1l.9-.21.84-.11c1.2-.23,2.4-.4,3.61-.63l.48,0,.63-.1.38-.14a14.48,14.48,0,0,1-1.85.12l.75-.15.67-.06h.45l.54,0c.47-.05.94-.08,1.42-.14a10.26,10.26,0,0,0,1.4-.17m-22.48,3,1.63-.43c.13-.19.13-.19.29-.26l1-.25.89-.2.48-.16-1,.17s1.63-.48,3-.73c.69-.13,1.39-.19,2.08-.39-.67.06-1.17.15-1.43.18h.19a8.94,8.94,0,0,1-1.33.19h-.33c-.82.11-1.62.29-2.41.44l-.19,0-.44.07-1.6.3-1,.17-1.55.32h.13L305,60l-.66.22.57-.08.82-.13.56,0a10.28,10.28,0,0,1-2,.47h-.41l-1,.21-.68.27-1.44.46.08.18,1-.12v.15l1.11-.3h.26a8.86,8.86,0,0,0,1.17-.34l1.3-.37-.25.18c1.37-.32,1.37-.32,1.42-.32v.08a13,13,0,0,0,1.32-.3M296,63.29a8.86,8.86,0,0,0,2.63-.9l-1.18.19-1.92.58.47.13m-.29,3.54h0l1.33-.81-.48-.31-.61-.26-1.59.37-2,.39-1,.13-.6-.21-1,.08.94-.7,1.6-.7,1.32-.62c-.27,0-.57,0-.84,0-.62.08-1.48.2-4.79,2l-2.17.83-.9.61-.59.61,1.35-.15,1.41-.43c-.21.21-.4.44-.6.66v.06a3.24,3.24,0,0,0,1.17,0l1.5-.06,1.09-.23,1-.39-.29.41c2.63-.22,2.63-.22,3.37-.68a3.75,3.75,0,0,1,1.41-.55m-17.33,1.89.53,0,.86-.48-1.39.51m4.57-.77,1.87-.8.4-.38,1-.55-.7.12-1.67.44-1.33.52-1,.67.58,0-.17.29,1.05-.29m6.43-2.86,1.64-.52,1.05-.4.85-.46c-.19,0-.4,0-.59,0l.27-.19-.9.15-1.67.56-.65.43-.53.39h.53m6.9-2.39,1.19-.39-.63,0-.56,0-1.41.37c-.34.1-.68.22-1,.33l.81-.08.74-.15.85-.13m1.6-.77,1.1-.29,1-.4-.34-.05,1.08-.38-1.11.25-1.22.36-2.14.66.09.09.7-.1.81-.14Zm6.58-2.09.89-.16,1.74-.37.33-.09h-.24l-1.61.31h.27l-1.38.3m-10.6,2.74,1.28-.35,1.49-.45.77-.27,1.46-.41.47-.18.67-.21-.52.07.87-.24.8-.23-.49.08-1.4.23-1.27.31.37,0-.48.16-1.6.41-.35,0-1.38.39.38-.06-.78.26.93-.21.09,0,.27.05-1.53.54-.05.12m-2.08.32.84-.18.87-.33-.59.07-1.38.42.26,0Zm-5.1,2.48a6,6,0,0,0,1.64-.84,8,8,0,0,0-1.21.35l1-.52-.46,0c-3,1.4-3.14,1.4-3.29,1.4l0,0,0,0,1.85-.86-.44,0-1.52.56-1.55.62.89-.5,2.36-.92.53-.36-2.29.78c-1,.38-1.89.86-2.84,1.29l-.24.32.9-.23.55-.12-.89.44-2,.93,1-.29.69-.07.65-.14,1.39-.56,2-.81c.46-.16.95-.29,1.4-.45m-8,1.86c.6-.23.58-.34.58-.34h0c-.34,0-.63.26-1,.3l-1.32.56a5.54,5.54,0,0,0,1.74-.52m8.83-3.37.94-.22,2-.69.87-.34a38.34,38.34,0,0,0-3.82,1.25m-9.31,21.31,1.7-1.16.51-1.19A15.13,15.13,0,0,0,278,83a21.17,21.17,0,0,0-2.3,1.35l-.34,1,1.15.13,1.66-.36m1.08-14.53c2.27-1,2.27-1,2.27-1.25l-.07,0-.77,0-.06-.3c-1.26.12-1.26.12-1.54.24a13.7,13.7,0,0,1-2.83,1.22c-1,.49-1.95,1-2.9,1.52l-2.69,1.65,1.2-.24,1.6-.6,1.64-.89.47.21,1.52-.58,2.16-1m-11.74,4.16,2.23-1.09,1.15-.82.86-.73.37-.47a8.28,8.28,0,0,0,3.71-1.79l.69-.45-.71.09-1.43.65h-.26l.12-.27-1.05.27-1.24.64-1,.7c-2.53,1.17-2.53,1.17-2.79,1.16a9.47,9.47,0,0,1,.83-.66l-.55.09-1.45.7-.54.55-.42.42.14.26c-1.94,1.34-1.94,1.34-1.81,1.71a15.89,15.89,0,0,0,2-.85l1.14-.12m.1-2.88,2.08-.94.61-.39-.34-.23a10.46,10.46,0,0,0-1.42.55l-.89.63c-.07.06-.3.21-1.41.9l1.37-.52m-.1-.73,1.47-.61-.51.09-1.14.43.18.09ZM293,61.9c1.05-.26,1.05-.26,2-.56l-.46.07-.85.17-2,.45.29,0,.42,0,.54,0,.06,0m-3.33.85,1.44-.36-.22,0-.49,0-.84.17-1.4.35-2.44.73-.08.06.79-.19.58-.07,1.24-.35,1.1-.34.32-.06m-2.17.31h.11l1.87-.51.64-.2-.31,0-1.41.38-.9.27Zm-10,4.24,3-1.09.84-.37-.29,0-1.28.45.31-.22,1.37-.6,1.39-.47,1.51-.54-.33,0-1.13.33-.66.16-1.1.37a31.76,31.76,0,0,1-3,1.1l.06.09a4.41,4.41,0,0,1-1.51.46l-.5,0,.81-.39,2-.76.51-.26-.3,0,.72-.3.09-.07-1.22.31-2.24.71-1.63.52-1.82.6-1.71.64h.33l-.17.17.65-.15,1-.29.07.14.41,0a10.41,10.41,0,0,1-1.33.37l-.46,0-1.14.37-1.21.49-.43.26.63-.06,1.89-.57,2.06-.7.76-.14.65,0,.68-.06,1.72-.59m4.23-2.52.14.06,1.42-.46a3,3,0,0,1-.61.11l.17-.06-1.12.35m-8.65,2.61,3.1-1-1.08.3-1.92.64-.1.11Zm10.33-3.23,2-.57.37-.18-1.67.46-.36.05c-.19,0-5.86,1.67-5.92,1.69l-.27,0L276.3,66l-1.71.59-.75.3,1.64-.52-1,.37,1.06-.32,1.21-.41.38-.07,1.83-.59,1.37-.39-1.75.58.76-.2,1.17-.31,2.88-.88M255.83,79.87l1.23-.68.47-.69-.09-.72,1.4-1.16,2.21-1.19.8-.71,2.8-1.5,1.52-.93.42-.5-.6,0-2.22,1.07-1.44.77-1.75,1-1.1.49-.15,0,.63-.45,1.48-.79,1.14-.63,1.65-1-.31,0-1.35.7-1,.56-.52,0-1.09.52-.7.18,1.3-.61,1.59-.72-.21,0,.24-.29-.54.11-1.54.71-.07-.1,1.06-.45,1.81-.87.23-.17-.46,0-1.67.66-1,.35-.94.29-1.59.64-1.85.91-1.78.73-1.11.55.29,0-.89.53,1.05-.39.76-.19-.88.58-1.18.41-1,.34-1.3.6-.62.58.6-.07,1-.21a1.41,1.41,0,0,1,.58,0c-.5.53-.5.53-1.69,1.13l-1,0-1,.09-2,.83-2.24,1.5h.63l.66-.07-2.05,1.47-.54.6c.31,0,.63-.07,1-.09l1.06-.17,1.76-.77,1.33-.45,2-.85,1.13-.48-.52.5.7-.18-.49,1,.73,0,1-.21,1.83-1,.66-.79.61-.11,1.12-.28M247,83.33l1.61-1-2,.64L244,84.06l.32.26,1.63-.7,1-.29Zm14.76-11.19,1.51-.5,1.74-.78,1.65-.87-.05-.08-1.55.52.59-.35.75-.41-.14,0-1,.27-1.46.58-2.6,1.07-4,1.71-5.47,2.43-.85.58L247.57,78,249.86,77l.44-.07,1.66-.73c2.71-1.29,6.94-3.05,7-3.06l2.78-1m33.77,58.94,1.28-1-1-1,1-1,.57-2.07-2.65-.36-.23-1.21h-3l-2.62,1.24-1.77,1-1.15-.48.92-1.46,2.87-.87,3.35-.73,1.7-1.19-2-.11-1.73-.94-2.41-.67-1.17-1.4-1.35-1.39-.3-1.25L287,116l.67-.92-.93-2.12-1.07-2.3-1.07-4-.09-1.77-2.93,2.34c-.3.67-.58,1.35-.88,2l-2.41.79-1.92,1.44-1.91-.07.18-1.31-.82-1-2.1.46,1.64-2.27,1.52-2.94.73-1.55-2.1-.07-1-1.09-.55-1.58-1.51-1.64-1.44.8-2.1-.05-.48-.57-2.38,0-1.74,1.11-.24,1.59-1.81,2.16-.67,1.45-.44,2-1.3,0-1.13,1.93-1.5,1.1.64.86.9,1.38-.93,2.56c-.53,1-1,2-1.57,3L251.8,120l-2.69,1.68-2.73.42.11,2.59c-.57,1.13-1.12,2.27-1.67,3.41l-.18,2-1.16,1.62-2.08,2.06-2.74.43-.12-2.85-.53-2.43c.34-.7.71-1.4,1.06-2.09l1-2.89,1.61-2.4-2.72-.36-2.09-.06-.63-.79-2.13-.73-.1-1.35-1.16-1.42-1.08-1.5-3.43,1,.43-1.45,1.41-3.3-.58-.83.23-1.26,3.6-4,3.74-3,3.5-2.57,2.35-1,2.41-1.33.79-1.34-1.32-.49L243.86,95l1.88.37,1.35.58,1.19-.32,1.58-1.42,1,.68,1.27-.32,1.14-1.11,1.09-.5,1.78-1.47-1-.14-1.32-.12.29-.79-.7-.83,1,0,1.14.56.69.5,1.78-.59,2.19-1.35.19-1,1.23,0-.22.93-1.68,1.08-2.51,2c-.78.82-1.56,1.65-2.33,2.49l-1.85.62-.67,1.12,1.33,0c-.31.36-.61.7.09,1.15l1.1-.35,1.69-1.35,1.79,0,.86.17.58.54,1.55,0,1.31-1.42-1.23-.34.82-1.74-1.6-.13-.09-1.32-.92-.32c.33-.33.65-.66,1-1l.88.23,1.19-.73.63-.78,1.36,0,1.62-1.14,2.37-1.14,1.33-.93.31-1,1.1-1.61,1.41-.26,1.62-1.19.44-1.13-.47-.57-.34-.85,1.61,0,.89-.59,1,.11.19.63,1.44-.11,1.57-.32.23-1.07.95-.23-.31,1.21,1.1.11L282,79.61l.73.2-.33.9.61.45-.5,1.15.85.45,0,1.2-1,1.47-2.9,1.63-2.68,1.67-.5,1.58-2.77.4-1-.33-1.37,0-2.81,1.4c-.4.48-.79,1-1.19,1.46l1.77.33,1.77-.14,1-.83,1.1-.48.89.26,1.59.59.63,2-.3,1.13.37,1.43,1.88,0,.87,1.93,3,.06,1.54.86.79-1.19-1.89-2.4-.72-1,0-1.13,1.44,1,2.55,1.78,1.36,1c.3-.59.57-1.17.88-1.75l1.84-1.54-1.23-.92.9-2.31-1.82-.79-.84-2.81L288,87.6l1.32-.7,1.87,2.56.32,1.68,1.42.26,1.56-2,2.31-.73.7-.78h1.28l1-.86.58-1.27-2.49,0c.14-.23.26-.45.4-.67l-.82-1.06-.92-.16-1.09-.62-1.16,0,.28-.89.16-.78-1.91,0-.7-.06c.34-.45.66-.89,1-1.33h1.32l1.17-.62-1.4-.42.65-.52.95-.16-.24-.86-1-.34,1.21-.8L295,76l-1.52.08.41-.62-1.09,0-.32-.13,1.58-.63-.83-.37-2,.42.2-1,.57-.59-.83-.05.79-.69-.76-.47-1.78,0-1,.57-1.08.15-.6-.16-1.24.7-1,.09,1.19-.9,1.68-.82.82-1.06,1.15-.93-1.42,0-1.79.72-1.05.09-1.43.5-1.73,1L280.89,73l-1.47.72-1.15,1.37-.92.16.76-1.17,2.07-1.54,1.51-1,2.35-1,2.3-.85-1.23,0-1.63.22-3.24,1.22-3.68,1.78-3.69,2.3.79.24.76,0-.92.88-.69-.17-1.53.38-.74,1.11,1.25,0,1-.32-.11.7.84.59L272,79l-1.38,1.06-.18.73L266.78,83l-2.34,1.56-2.29,1.27-.28-.48,1.53-1.84,2-1.14.64-1.67L263.14,82l1.55-2.32-.14-.28,1.8-1.18L268,77l-.44-.11,1.55-1,.85-1.11h-1.06l-1.3.68-.63.09-2.33,1.14-1.17.91-1.27.73-.85,1.21-.23.79-1.93,1.16-.66-.26L257,82.45l1.09-.12,2.35-1c-.64.47-1.26.94-1.88,1.42l-3.84,1.54-2.55,2.15.23-1.11,2.25-1.5-.74,0,1.77-1.35.69,0,2.51-1.94.08-1.05-2.35,1.38-1.74.66L254.22,83l-1.93.92-1.82,1.17-2.93.31,0-.82-.58-.19.6-1.12-2.06.93-2.65,1.09-1.72,1.39-3.23,2.24,3-2.6.34-.9-1.85.6-1.62-.27,1.11-.75,1.79-.73L241.69,83l-.79.15.62-1.14,1.37-1-.21-.14-.5.13-1.64.88-.72.29,3.12-1.88L239.76,82l.06-.17,3.75-2.16.41-.3-2.75,1.45-1.86,1-.67.3-1.55.81-2.06,1.15,3-1.69,1.08-.55,1.05-.53,1.46-.79.17-.11-1.56.78-2.12,1.13-.28.14-.09,0c-5.5,3.22-12.6,7.93-17.92,11.44-8.4,6-8.4,6-23.56,19.73l-2.59,2.58.45-.45-.89,1-1.46,1.56-.42.56-1.46,1.53-.68.93-1.35,1.45-.32.52,0,.16-1.46,1.68-1.35,1.75L183.11,129l-1.48,2,.17.14-1.75,2.35-1.28,2.17-1.09,1.64-.44,1.18-.08.8,0,.55-.8,1.3-.49,1.59-.43,1.37-1.74,3.16c-.51.85-1.05,1.71-1.57,2.57l.58-1.57.89-2.06.76-1.34.32-1.21v-.48l1.36-2.09-.39.08.4-1,.12-.46v-.33l-.47.33-.94,1.65-.38,1-.61,1.38-.76,2.23-1.29,2.5-1.65,3.21-1.54,2.63-2.08,3.63c-.74,1.36-1.45,2.73-2.17,4.1l-.81,1c-.46.91-.9,1.82-1.37,2.74l-1,2.82-1.4,2.8-.86,2.2-.52,1.86-1.22,2.85-.51,2.33-.13,1.86-1.1,4.06,0,1.61-.58,2.13-.23,2.41.85-.11.13,1.62.61,1.28.14,2.13-.5,2.65-.27,2.65-.55,4.42.3,1.86.44,2.17-.06,1.6-1,1.54.16,1.75.64,1.69.9,1.86.43,2.09-.4,1.82.08,1.48.91.91.75,1.91.53,1.62-.13,2,.64-.7.38-2.2-.17-2.46-.8-.93.12-2.15-.78-1.72v-2.76l0-2.59-.53-1.89.22-2.58-.66-.74.16-3.16-.31-2.63.72-3.52.75-.21.79,1,.18,1.85-.61,3,.38,3.92.69,3.13.82,2.2.5,2.23-.16,2.62,1.12,1.53.68,2.43.48,2.61,1.32,3.56.39,3.17.8,1.44-1,1.26-.39,2,1.77,3,1.54,2.45,2,1.08,2.12,2.29,2.58,1.92,3,2.41,2.48,1.08,1.63-.25.49-1.41,1.86-.42,2.11,1.62,2.41,2.81,1.36,2.35,2-.08.77,0,1.16.64,1.32,2.51,2.57,1.1,0-1.71,1.45,1c4.58,8.07,4.58,8.07,4.31,9.7l.94,1.32,1-.7,1.53.94c3.17,3.6,3.17,3.6,4.59,3.41l4,2.39,2.16,1.11-.36-2.65.89-1.71,3.7.24.52,1.66,1.19-.18L224,275l-1.48-2-3.81.09-2.48-.1-3.59-.23-1.74-1.46-2.43-3.14,0-2.56c0-1.12-.1-2.25-.13-3.39l.61-4.3c0-1,0-1.93-.05-2.9l-1.15-2.2-2.23-1.5-3.27.46-2.27-.62-2.47,1.47-1.62-1.47,1.5-1.79V248c0-.57,0-1.14,0-1.71l.61-1.93.9-3.1c0-1.14.1-2.29.15-3.43l1.47-1.4.37-2.55-1-1-3.51.46-2.18.57-1,2.42-1,3.61-1.11,3.3-1.78.41-2.5,1.14-2.54.63-1.1-2.35-2-1.6-.6-2.71-1.19-3.49-.32-6,.11-4.34,1.35-3.38,1-3.82-.41-3.88,2.33-3.82,1.53-.24,1.83-2,1.93-2.33,2.09.38,1.43.74,1.43-.86.75,2,2-.07,1.57-.23-.08-1.58,1-2.6,2.48-.23,1.78-.38,3.17.34.92,2.21,1.08,0,.92-1.32,1-.35,1.28,1.89,1.13,2.35c-.13.93-.26,1.85-.37,2.78l.65,1.59.17,1.78,1,1.29.4,1.94,1.3.95-.09,2.13,1.25.47.92-1.49.86-2.34-.46-2.76-.27-4.21-1.16-3.68c.23-1.61.48-3.21,1-5.59.32-.77.79-1.8,1.14-2.56l2-3.52,2.33-1.14,3-2.72,2.81-2.07,2.54-1.14.78-2,2.06-1.27-.9-3.31-.82-1.48.9-1.81-.66-1.64,2-1.08,1,2.37,1.45-2.43,1.49-2.09,1.46-1.36,2.23-4.41,3.49-.07,2.57-1.47,2.71-.33-.25-1.73.74-3.56,2.49-2.7,2.09,0,1.06-1.55,2.75.1L263,154l2.1-2.1c4.74-.17,4.74-.17,6.29.75-.29.22-.67.49-.95.71a29.33,29.33,0,0,0-3.81.22c-2.41,1.6-2.41,1.6-2.51,3.6l1.37.69,2-1.42,1.39-.86,2.48-.73,2.78-1.25,2.61-.59,2.44-2.36,2.27-1.64.65-1.89-2.76.68-2.4,2.87-3.06.16-2.18-1.2-2.05-2-.45-3.48,2.67-1.74.6-2.75-3.14-.24-3.76,1.08-4.45,2.31-4.76,3.8-3.52,2.21,1.74-2.05L257,144.6l1.46-1.07-2.59-.75c1.18,0,2.38-.05,3.59-.06l1.44-1.86,2.51-1.73,2.43-.15,1.63-2.1,2.23-.79,3.18,0,5.84-.18,2.88.49,2.4-.15,2.77-1.68,2.66-2.29,4-.4,2.15-.76"/></g><g id="_Csoport_3" data-name="&lt;Csoport&gt;" class="cls-3"><rect id="_Görbe_2" data-name="&lt;Görbe&gt;" class="cls-5" x="276.56" y="444.28" width="69.97" height="8.26"/><path id="_Görbe_3" data-name="&lt;Görbe&gt;" class="cls-5" d="M558.49,336.89l-3.12-8.39-3.11,8.39L544,353v94.64a4.89,4.89,0,0,0,4.88,4.88h13a4.89,4.89,0,0,0,4.89-4.88V353Z"/><path id="_Összetett_görbe_2" data-name="&lt;Összetett görbe&gt;" class="cls-5" d="M445.55,290.17v8.21H441.5v-39.6a14.85,14.85,0,0,0-14.85-14.86H302.18l-21.36-48.3,20-19.62-1.4-3.8-99.84,11.62L116,239.61l1.39,3.79,56.08,4,8.07,30.65.1,0V398.76a14.85,14.85,0,0,0,14.85,14.85h94.46l-7.18,30.46h55.64l-7.17-30.46h44.23v35.47a3.46,3.46,0,0,0,3.46,3.46h117.8a3.46,3.46,0,0,0,3.46-3.46v-25h37.13V328.5L500,290.17ZM278.1,203.08l18.06,40.84h-21.8l-13.67-28.54,15.79-15.5C277.07,201,277.68,202.11,278.1,203.08Z"/><polygon id="_Görbe_4" data-name="&lt;Görbe&gt;" class="cls-5" points="157.16 347.17 157.16 350.95 157.16 418.23 157.16 437.84 157.16 452.54 180.19 452.54 180.19 437.84 180.19 418.23 180.19 350.95 180.19 347.17 180.19 338.84 157.16 338.84 157.16 347.17"/><polygon id="_Görbe_5" data-name="&lt;Görbe&gt;" class="cls-5" points="137.27 347.85 134.81 355.02 134.81 355.02 134.52 355.89 103.75 445.75 123.58 452.54 127.92 439.88 127.92 439.88 133.69 423 133.69 423 153.53 365.07 153.53 365.07 154.35 362.69 157.1 354.64 137.27 347.85"/></g><path id="_Görbe_6" data-name="&lt;Görbe&gt;" class="cls-6" d="M595,452.54c0,3.21-116.16,5.81-259.45,5.81S78,455.75,78,452.54s114.25-5.81,257.55-5.81S595,449.33,595,452.54Z"/><g id="_Csoport_4" data-name="&lt;Csoport&gt;"><path class="cls-7" d="M509,275.48l-.12-1.55c-.36-3.22.71-6.75,3.7-10.33,2.69-3.16,4.18-5.49,4.18-8.18,0-3-1.91-5.08-5.67-5.13a10.56,10.56,0,0,0-6,1.85l-1.44-3.77a15.7,15.7,0,0,1,8.54-2.38c6.87,0,10,4.24,10,8.77,0,4.06-2.27,7-5.13,10.39-2.63,3.11-3.58,5.73-3.41,8.78l.06,1.55Zm-1.32,8.36a3.53,3.53,0,0,1,3.59-3.76,3.73,3.73,0,1,1-3.59,3.76Z"/></g><path id="_Összetett_görbe_3" data-name="&lt;Összetett görbe&gt;" class="cls-7" d="M390.22,143.11a11.39,11.39,0,1,1-11.38-11.38A11.4,11.4,0,0,1,390.22,143.11Z"/><g id="_Csoport_5" data-name="&lt;Csoport&gt;"><g id="_Csoport_6" data-name="&lt;Csoport&gt;"><path class="cls-7" d="M153.87,284.94l5.08,5.6-2.45,1.82-3.78-6.65L149,292.36l-2.44-1.82,5-5.6-7.42-1.53.91-2.92,7,3.06-.86-7.56h3.06l-.81,7.56,7-3,.91,2.92Z"/></g></g><g id="_Csoport_7" data-name="&lt;Csoport&gt;"><g id="_Csoport_8" data-name="&lt;Csoport&gt;"><path class="cls-7" d="M470.6,257v6.76h-2.68V257h-6.61v-2.68h6.61v-6.66h2.68v6.66h6.61V257Z"/></g></g><g id="_Csoport_9" data-name="&lt;Csoport&gt;"><path id="_Összetett_görbe_4" data-name="&lt;Összetett görbe&gt;" class="cls-7" d="M237.41,146.61h9.15V150h-9.15Z"/></g><g id="_Csoport_10" data-name="&lt;Csoport&gt;"><path id="_Összetett_görbe_5" data-name="&lt;Összetett görbe&gt;" class="cls-7" d="M158.35,175.4v2.68H145.13V175.4Zm0,6.8v2.68H145.13V182.2Z"/></g><g id="_Csoport_11" data-name="&lt;Csoport&gt;"><path id="_Görbe_7" data-name="&lt;Görbe&gt;" class="cls-8" d="M342,145c0-20.42,17.52-36.94,39.16-36.94"/><path id="_Görbe_8" data-name="&lt;Görbe&gt;" class="cls-8" d="M349.14,145c0-16.7,14.32-30.21,32-30.21"/><path id="_Görbe_9" data-name="&lt;Görbe&gt;" class="cls-8" d="M356.68,145c0-12.76,10.95-23.09,24.48-23.09"/></g><g id="_Csoport_12" data-name="&lt;Csoport&gt;"><path class="cls-7" d="M195.18,161.11,192.81,157c-1-1.57-1.57-2.59-2.15-3.67h0c-.53,1.08-1.05,2.07-2,3.7l-2.23,4.08H183.6l5.68-9.41-5.46-9.18h2.78l2.46,4.36c.69,1.21,1.21,2.15,1.71,3.14h.08c.53-1.1,1-2,1.69-3.14l2.53-4.36h2.76l-5.65,9,5.79,9.54Z"/><path class="cls-7" d="M207.76,146.43v6.49H214v1.65h-6.24v6.54H206v-6.54h-6.24v-1.65H206v-6.49Z"/><path class="cls-7" d="M221.34,161.11v-7.89l-5.88-10.7h2.73l2.62,5.13c.72,1.4,1.27,2.54,1.85,3.83h.06c.52-1.21,1.15-2.43,1.87-3.83l2.68-5.13H230l-6.24,10.67v7.92Z"/></g><g id="_Csoport_13" data-name="&lt;Csoport&gt;"><path id="_Görbe_10" data-name="&lt;Görbe&gt;" class="cls-9" d="M437.09,258.78a14.85,14.85,0,0,0-14.85-14.86H192a14.85,14.85,0,0,0-14.85,14.86V388.22h259.9Z"/><path id="_Görbe_11" data-name="&lt;Görbe&gt;" class="cls-7" d="M192,413.61h230.2a14.85,14.85,0,0,0,14.85-14.85V388.22H177.19v10.54A14.85,14.85,0,0,0,192,413.61Z"/><rect id="_Téglalap_" data-name="&lt;Téglalap&gt;" class="cls-10" x="186.4" y="252.18" width="241.48" height="136.04"/><polygon id="_Görbe_12" data-name="&lt;Görbe&gt;" class="cls-11" points="327.78 413.61 307.14 413.61 286.5 413.61 279.32 444.07 307.14 444.07 334.95 444.07 327.78 413.61"/><rect id="_Téglalap_2" data-name="&lt;Téglalap&gt;" class="cls-7" x="272.15" y="444.28" width="69.97" height="8.26"/><polygon id="_Görbe_13" data-name="&lt;Görbe&gt;" class="cls-12" points="186.4 388.22 427.88 252.18 427.88 388.22 186.4 388.22"/></g><g id="_Csoport_14" data-name="&lt;Csoport&gt;"><g id="_Csoport_15" data-name="&lt;Csoport&gt;"><rect id="_Téglalap_3" data-name="&lt;Téglalap&gt;" class="cls-13" x="539.59" y="353.02" width="5.69" height="87.7"/><rect id="_Téglalap_4" data-name="&lt;Téglalap&gt;" class="cls-14" x="545.27" y="353.02" width="5.69" height="87.7"/><rect id="_Téglalap_5" data-name="&lt;Téglalap&gt;" class="cls-15" x="550.96" y="353.02" width="5.69" height="87.7"/><rect id="_Téglalap_6" data-name="&lt;Téglalap&gt;" class="cls-13" x="556.65" y="353.02" width="5.69" height="87.7"/></g><path id="_Görbe_14" data-name="&lt;Görbe&gt;" class="cls-16" d="M539.59,443.3v4.36a4.89,4.89,0,0,0,4.88,4.88h13a4.89,4.89,0,0,0,4.89-4.88V443.3Z"/><rect id="_Téglalap_7" data-name="&lt;Téglalap&gt;" class="cls-17" x="539.59" y="440.72" width="22.75" height="2.58"/><g id="_Csoport_16" data-name="&lt;Csoport&gt;"><polygon id="_Görbe_15" data-name="&lt;Görbe&gt;" class="cls-18" points="562.34 353.02 554.08 336.89 547.85 336.89 539.59 353.02 562.34 353.02"/><polygon id="_Görbe_16" data-name="&lt;Görbe&gt;" class="cls-19" points="550.96 328.5 547.85 336.89 554.08 336.89 550.96 328.5"/></g></g><g id="_Csoport_17" data-name="&lt;Csoport&gt;"><rect id="_Téglalap_8" data-name="&lt;Téglalap&gt;" class="cls-20" x="372.02" y="298.38" width="124.72" height="154.16" rx="5.36" ry="5.36" transform="translate(868.75 750.92) rotate(180)"/><rect id="_Téglalap_9" data-name="&lt;Téglalap&gt;" class="cls-21" x="381.25" y="309.34" width="106.26" height="132.25" transform="translate(868.75 750.92) rotate(180)"/><path id="_Görbe_17" data-name="&lt;Görbe&gt;" class="cls-22" d="M430.48,446.73a3.9,3.9,0,1,1,3.9,3.9A3.89,3.89,0,0,1,430.48,446.73Z"/><rect id="_Téglalap_10" data-name="&lt;Téglalap&gt;" class="cls-23" x="417.68" y="303.2" width="33.4" height="2.38" rx="0.75" ry="0.75" transform="translate(868.75 608.77) rotate(180)"/></g><g id="_Csoport_18" data-name="&lt;Csoport&gt;"><g id="_Csoport_19" data-name="&lt;Csoport&gt;"><polygon id="_Görbe_18" data-name="&lt;Görbe&gt;" class="cls-24" points="441.14 290.17 441.14 424.11 533.87 424.11 533.87 328.5 495.54 290.17 441.14 290.17"/><polygon id="_Görbe_19" data-name="&lt;Görbe&gt;" class="cls-25" points="533.87 328.5 495.54 290.17 495.54 328.5 533.87 328.5"/></g><g id="_Csoport_20" data-name="&lt;Csoport&gt;"><path id="_Görbe_20" data-name="&lt;Görbe&gt;" d="M453.16,341h68.69a1.17,1.17,0,0,0,0-2.34H453.16a1.17,1.17,0,0,0,0,2.34Z"/><path id="_Görbe_21" data-name="&lt;Görbe&gt;" d="M453.16,357.66h68.69a1.17,1.17,0,0,0,0-2.34H453.16a1.17,1.17,0,0,0,0,2.34Z"/><path id="_Görbe_22" data-name="&lt;Görbe&gt;" d="M453.16,374.33h68.69a1.17,1.17,0,0,0,0-2.34H453.16a1.17,1.17,0,0,0,0,2.34Z"/><path id="_Görbe_23" data-name="&lt;Görbe&gt;" d="M453.16,391h68.69a1.17,1.17,0,0,0,0-2.34H453.16a1.17,1.17,0,0,0,0,2.34Z"/><path id="_Görbe_24" data-name="&lt;Görbe&gt;" d="M453.16,407.68h68.69a1.17,1.17,0,0,0,0-2.34H453.16a1.17,1.17,0,0,0,0,2.34Z"/></g></g><g id="_Csoport_21" data-name="&lt;Csoport&gt;"><path id="_Görbe_25" data-name="&lt;Görbe&gt;" class="cls-26" d="M313.18,270.22l.57-.26c-1.91-4-5.87-11.51-9.33-13.18-4.77-2.3-4.94,1.28-4.94,1.28-2.56,7,2.74,16.28,2.74,16.28l7.13-2.62.27-5.07Z"/><path id="_Görbe_26" data-name="&lt;Görbe&gt;" class="cls-27" d="M270,244l-24.53-51.2-82.8,30.43,14.45,54.9c6.38,2.64,26.56-1,49.26-9.39S266.81,250.11,270,244Z"/><polygon id="_Görbe_27" data-name="&lt;Görbe&gt;" class="cls-28" points="169.83 250.52 221.02 254.21 257.65 218.25 245.44 192.76 162.63 223.19 169.83 250.52"/><g id="_Csoport_22" data-name="&lt;Csoport&gt;"><polygon id="_Görbe_28" data-name="&lt;Görbe&gt;" class="cls-29" points="219.88 251.1 112.94 243.4 196.56 187.62 296.41 176 219.88 251.1"/><polygon id="_Görbe_29" data-name="&lt;Görbe&gt;" class="cls-30" points="218.49 247.31 111.55 239.61 195.17 183.82 295.01 172.2 218.49 247.31"/><polygon id="_Görbe_30" data-name="&lt;Görbe&gt;" class="cls-29" points="111.55 239.61 112.94 243.4 219.88 251.1 218.49 247.31 111.55 239.61"/><polygon id="_Görbe_31" data-name="&lt;Görbe&gt;" class="cls-27" points="295.01 172.2 296.41 176 219.88 251.1 218.49 247.31 295.01 172.2"/></g><path id="_Görbe_32" data-name="&lt;Görbe&gt;" class="cls-27" d="M213.68,207.57c.49,1.33-3,3.83-7.74,5.58s-9,2.09-9.51.75,3-3.83,7.74-5.58S213.19,206.23,213.68,207.57Z"/><path id="_Görbe_33" data-name="&lt;Görbe&gt;" class="cls-26" d="M206.66,213c17-10.16,36.93-14.26,56.49-15.72,2.11-.16,5.4.28,7.45-.4,3.58-1.17.07,1-.37-1.62.42,2.5,2.45,5.55,3.46,7.84q11.64,26.29,23.26,52.6c1.43,3.23,6.61,1.36,5.17-1.9q-13.39-30.33-26.81-60.65a2.89,2.89,0,0,0-2.82-1.8c-23.56,0-48.72,5-69,17.16-3,1.82.17,6.3,3.21,4.49Z"/><circle id="_Ellipszis_2" data-name="&lt;Ellipszis&gt;" class="cls-31" cx="300.73" cy="257.11" r="6.36" transform="translate(-32.57 470.32) rotate(-73.14)"/></g><g id="_Csoport_23" data-name="&lt;Csoport&gt;"><rect id="_Téglalap_11" data-name="&lt;Téglalap&gt;" class="cls-32" x="152.74" y="338.84" width="23.03" height="113.7"/><rect id="_Téglalap_12" data-name="&lt;Téglalap&gt;" class="cls-33" x="152.74" y="418.23" width="23.03" height="19.6"/><rect id="_Téglalap_13" data-name="&lt;Téglalap&gt;" class="cls-33" x="152.74" y="347.17" width="23.03" height="3.78"/></g><g id="_Csoport_24" data-name="&lt;Csoport&gt;"><rect id="_Téglalap_14" data-name="&lt;Téglalap&gt;" class="cls-34" x="115.53" y="348.46" width="20.96" height="103.48" transform="translate(136.44 -19.24) rotate(18.9)"/><rect id="_Téglalap_15" data-name="&lt;Téglalap&gt;" class="cls-35" x="106" y="419.13" width="20.96" height="17.84" transform="translate(144.95 -14.65) rotate(18.9)"/><rect id="_Téglalap_16" data-name="&lt;Téglalap&gt;" class="cls-35" x="129.28" y="358.33" width="20.96" height="3.44" transform="translate(124.18 -25.86) rotate(18.9)"/></g></g></g></g></svg>