<svg xmlns="http://www.w3.org/2000/svg" viewBox="0 0 1920 1000"><defs><style>.cls-1{fill:#a4d8ea;}.cls-2,.cls-4{fill:#ccc6bb;}.cls-3{fill:#dec08d;}.cls-4{stroke:#000;stroke-miterlimit:10;stroke-width:0.83px;}.cls-5{fill:#534741;}.cls-6{fill:#125945;}.cls-7{fill:gray;}.cls-7,.cls-8,.cls-9{fill-rule:evenodd;}.cls-11,.cls-8{fill:#886438;}.cls-12,.cls-9{fill:#73512e;}.cls-10{fill:#77674d;}.cls-13{fill:#a1c443;}.cls-14{fill:#6d8d3f;}.cls-15{fill:#c4081c;}.cls-16{fill:#fcdbb7;}.cls-17{fill:#fff;}.cls-18{fill:#c6f9ff;}.cls-19{fill:#facca7;}.cls-20{fill:#070300;}.cls-21{fill:#333;}.cls-22{fill:#fcfcfc;}</style></defs><title>mikulas-bg_1</title><g id="Réteg_3" data-name="Réteg 3"><rect class="cls-1" x="-0.5" y="2" width="1922" height="1000"/><path d="M163.17,765.44l-5.36,0-1.18,3.35h-1.74l4.8-12.83h1.48l5,12.77h-1.74Zm-4.86-1.35,4.35,0-2.22-6Z"/><path d="M181.76,767a4,4,0,0,1-1.8,1.41,7.29,7.29,0,0,1-2.71.47,5.26,5.26,0,0,1-2.78-.71,4.83,4.83,0,0,1-1.89-2.08,7.18,7.18,0,0,1-.71-3.13v-1.12a6.67,6.67,0,0,1,1.32-4.49,4.71,4.71,0,0,1,3.78-1.61,4.82,4.82,0,0,1,3.23,1,4.46,4.46,0,0,1,1.51,2.9H180a2.79,2.79,0,0,0-3-2.53,3,3,0,0,0-2.57,1.21,5.88,5.88,0,0,0-.86,3.45v1.05a5.46,5.46,0,0,0,1,3.42,3.18,3.18,0,0,0,2.67,1.25,5.56,5.56,0,0,0,1.66-.22,2.52,2.52,0,0,0,1.17-.72l0-2.86-3,0v-1.38l4.64,0Z"/><path d="M184.58,768.65l-.08-12.8,3.61,0a5.75,5.75,0,0,1,3,.72,5,5,0,0,1,2,2.09,6.77,6.77,0,0,1,.72,3.12v.82a6.83,6.83,0,0,1-.68,3.18,4.9,4.9,0,0,1-2,2.1,6.22,6.22,0,0,1-3,.77Zm1.62-11.43.06,10H188a3.89,3.89,0,0,0,3-1.23,5,5,0,0,0,1.06-3.47v-.75a5.08,5.08,0,0,0-1-3.38,3.64,3.64,0,0,0-2.91-1.21Z"/><path d="M198,763.55l0,5-1.69,0-.08-12.8,4.72,0a4.72,4.72,0,0,1,3.29,1,4.06,4.06,0,0,1,.07,5.71,5,5,0,0,1-3.33,1Zm0-1.38,3,0a3,3,0,0,0,2.07-.65,2.68,2.68,0,0,0,0-3.67,2.79,2.79,0,0,0-2-.7l-3.13,0Z"/><path d="M212.4,763.29l-3,0,0,5.18h-1.7l-.08-12.79,4.24,0a5,5,0,0,1,3.33,1,3.51,3.51,0,0,1,1.18,2.86,3.37,3.37,0,0,1-.63,2.08,3.77,3.77,0,0,1-1.79,1.34l3,5.42v.1h-1.81Zm-3-1.36H212a3,3,0,0,0,2-.67,2.22,2.22,0,0,0,.73-1.75,2.34,2.34,0,0,0-.72-1.81,3,3,0,0,0-2.05-.63h-2.58Z"/><path d="M224.5,758.88l.05,1.06a3.5,3.5,0,0,1,2.81-1.25,2.7,2.7,0,0,1,2.72,1.51,3.52,3.52,0,0,1,3-1.55q3.12,0,3.2,3.29l0,6.38h-1.63l0-6.28a2.18,2.18,0,0,0-.47-1.52,2.06,2.06,0,0,0-1.57-.49,2.16,2.16,0,0,0-1.5.54,2.23,2.23,0,0,0-.68,1.46l0,6.31-1.64,0,0-6.24a1.81,1.81,0,0,0-2-2.06,2.18,2.18,0,0,0-2.18,1.38l0,6.94H223l-.06-9.51Z"/><path d="M238.73,756.27a1,1,0,0,1,.24-.67.92.92,0,0,1,.72-.28.94.94,0,0,1,.72.27,1,1,0,0,1,.25.67,1,1,0,0,1-.24.66,1,1,0,0,1-.72.27,1,1,0,0,1-.72-.26A1,1,0,0,1,238.73,756.27Zm1.84,12h-1.63l-.06-9.51h1.63Z"/><path d="M249,768.24a3.69,3.69,0,0,1-.23-1,3.64,3.64,0,0,1-2.7,1.2,3.3,3.3,0,0,1-2.31-.78,2.58,2.58,0,0,1-.92-2,2.73,2.73,0,0,1,1.12-2.32,5.34,5.34,0,0,1,3.17-.84h1.58v-.75a1.86,1.86,0,0,0-.52-1.35,2.07,2.07,0,0,0-1.51-.5,2.48,2.48,0,0,0-1.46.45,1.31,1.31,0,0,0-.58,1.07h-1.63a2.24,2.24,0,0,1,.49-1.38,3.51,3.51,0,0,1,1.37-1.06,4.71,4.71,0,0,1,1.9-.4,3.83,3.83,0,0,1,2.58.81,3,3,0,0,1,1,2.26l0,4.37a5.31,5.31,0,0,0,.35,2.08v.14Zm-2.7-1.23a2.75,2.75,0,0,0,1.44-.4,2.35,2.35,0,0,0,1-1v-2h-1.28q-3,0-3,1.77a1.46,1.46,0,0,0,.51,1.19A1.92,1.92,0,0,0,246.34,767Z"/><path d="M255.09,756.38l0,2.31,1.77,0v1.26h-1.77l0,5.91a1.34,1.34,0,0,0,.25.85,1,1,0,0,0,.81.28,3.41,3.41,0,0,0,.77-.11v1.31a4.63,4.63,0,0,1-1.25.19,2,2,0,0,1-1.65-.65,2.82,2.82,0,0,1-.56-1.87l0-5.9h-1.73v-1.25h1.73v-2.31Z"/><path d="M261,756.34l0,2.31h1.77v1.25H261l0,5.91a1.38,1.38,0,0,0,.25.86,1,1,0,0,0,.81.28,4.11,4.11,0,0,0,.77-.11v1.31a4.61,4.61,0,0,1-1.25.18,2,2,0,0,1-1.65-.65,2.82,2.82,0,0,1-.56-1.87l0-5.89h-1.73v-1.26h1.73v-2.3Z"/><path d="M275.05,768.07a3.51,3.51,0,0,1-.24-1,3.63,3.63,0,0,1-2.69,1.19,3.35,3.35,0,0,1-2.32-.78,2.56,2.56,0,0,1-.91-2,2.66,2.66,0,0,1,1.11-2.31,5.29,5.29,0,0,1,3.17-.85h1.59v-.74a1.8,1.8,0,0,0-.52-1.36,2,2,0,0,0-1.5-.49,2.39,2.39,0,0,0-1.46.44,1.32,1.32,0,0,0-.58,1.07h-1.64a2.32,2.32,0,0,1,.5-1.38,3.53,3.53,0,0,1,1.37-1.06,4.51,4.51,0,0,1,1.9-.39,3.78,3.78,0,0,1,2.58.8,3,3,0,0,1,1,2.26l0,4.37a5.42,5.42,0,0,0,.34,2.09v.14Zm-2.71-1.22a2.92,2.92,0,0,0,1.45-.41,2.44,2.44,0,0,0,1-1l0-2h-1.27c-2,0-3,.61-3,1.77a1.5,1.5,0,0,0,.52,1.19A2,2,0,0,0,272.34,766.85Z"/><path d="M284.89,758.49l.05,1.06a3.51,3.51,0,0,1,2.82-1.25,2.7,2.7,0,0,1,2.72,1.51,3.56,3.56,0,0,1,1.23-1.11,3.62,3.62,0,0,1,1.79-.44q3.13,0,3.21,3.29l0,6.38h-1.63l0-6.28a2.18,2.18,0,0,0-.47-1.52,2.11,2.11,0,0,0-1.57-.5,2.14,2.14,0,0,0-2.19,2l0,6.31-1.63,0,0-6.24a1.81,1.81,0,0,0-2-2.06,2.17,2.17,0,0,0-2.18,1.38l0,6.94h-1.62l-.07-9.51Z"/><path d="M299.13,755.88a1,1,0,0,1,.24-.67.91.91,0,0,1,.71-.28,1,1,0,0,1,.73.27,1,1,0,0,1,.25.67.92.92,0,0,1-.25.66,1,1,0,0,1-.71.27,1,1,0,0,1-.72-.26A.92.92,0,0,1,299.13,755.88Zm1.84,12h-1.63l-.06-9.51h1.63Z"/><path d="M306.19,763.46l-1,1.07,0,3.34h-1.62l-.09-13.5h1.63l.05,8.17.86-1,2.94-3.15h2l-3.67,4,4.16,5.51h-1.9Z"/><path d="M318.56,766.85a3.5,3.5,0,0,1-2.78,1.13,2.91,2.91,0,0,1-2.32-.87,3.76,3.76,0,0,1-.82-2.61l0-6.19h1.62l0,6.15c0,1.44.6,2.16,1.77,2.15a2.43,2.43,0,0,0,2.47-1.41l0-6.91h1.62l.06,9.51H318.6Z"/><path d="M324.38,767.75h-1.63l-.08-13.5h1.62Z"/><path d="M332.85,767.69a3.5,3.5,0,0,1-.23-1,3.64,3.64,0,0,1-2.7,1.2,3.4,3.4,0,0,1-2.31-.78,2.58,2.58,0,0,1-.92-2,2.71,2.71,0,0,1,1.12-2.32,5.34,5.34,0,0,1,3.17-.84h1.58v-.75a1.84,1.84,0,0,0-.52-1.35,2.06,2.06,0,0,0-1.51-.5,2.43,2.43,0,0,0-1.45.45,1.29,1.29,0,0,0-.59,1.07h-1.63a2.26,2.26,0,0,1,.49-1.38,3.51,3.51,0,0,1,1.37-1.06,4.71,4.71,0,0,1,1.9-.4,3.77,3.77,0,0,1,2.58.81,2.93,2.93,0,0,1,1,2.25l0,4.38a5.34,5.34,0,0,0,.35,2.08v.14Zm-2.7-1.22a2.84,2.84,0,0,0,1.44-.4,2.35,2.35,0,0,0,1-1v-1.95h-1.28q-3,0-3,1.77a1.47,1.47,0,0,0,.51,1.19A2,2,0,0,0,330.15,766.47Zm1.42-12.27h2l-2.34,2.6h-1.31Z"/><path d="M342.29,765.11a1.19,1.19,0,0,0-.5-1,4.75,4.75,0,0,0-1.74-.62,8,8,0,0,1-2-.62A2.84,2.84,0,0,1,337,762a2.1,2.1,0,0,1-.35-1.21,2.45,2.45,0,0,1,1-2,3.87,3.87,0,0,1,2.53-.83,4,4,0,0,1,2.62.82,2.61,2.61,0,0,1,1,2.13h-1.63a1.43,1.43,0,0,0-.58-1.15,2.06,2.06,0,0,0-1.43-.47,2.18,2.18,0,0,0-1.38.39,1.24,1.24,0,0,0-.5,1,1,1,0,0,0,.47.88,5.61,5.61,0,0,0,1.69.56,9,9,0,0,1,2,.64,3,3,0,0,1,1.13.9,2.26,2.26,0,0,1,.37,1.3,2.46,2.46,0,0,1-1,2,4.31,4.31,0,0,1-2.64.78,4.64,4.64,0,0,1-2-.39,3.21,3.21,0,0,1-1.38-1.12,2.65,2.65,0,0,1-.51-1.57H338a1.72,1.72,0,0,0,.67,1.3,2.61,2.61,0,0,0,1.61.47,2.68,2.68,0,0,0,1.48-.39A1.12,1.12,0,0,0,342.29,765.11Z"/><path d="M354.32,766.4a2.32,2.32,0,0,0,1.51-.53,1.88,1.88,0,0,0,.72-1.33h1.53a2.81,2.81,0,0,1-.55,1.56,3.69,3.69,0,0,1-1.37,1.19,4.24,4.24,0,0,1-4.93-.82,5.17,5.17,0,0,1-1.17-3.54v-.28a5.59,5.59,0,0,1,.49-2.47,3.94,3.94,0,0,1,1.45-1.69,4.25,4.25,0,0,1,2.25-.61,3.82,3.82,0,0,1,2.67.94,3.4,3.4,0,0,1,1.14,2.48h-1.53a2.29,2.29,0,0,0-.71-1.51,2.16,2.16,0,0,0-1.56-.58,2.25,2.25,0,0,0-1.91.9,4.24,4.24,0,0,0-.67,2.58V763a4.1,4.1,0,0,0,.7,2.53A2.26,2.26,0,0,0,354.32,766.4Z"/><path d="M365.45,765a1.19,1.19,0,0,0-.5-1,4.75,4.75,0,0,0-1.74-.62,7.82,7.82,0,0,1-2-.62,2.76,2.76,0,0,1-1.08-.87,2.1,2.1,0,0,1-.35-1.21,2.45,2.45,0,0,1,1-2,3.86,3.86,0,0,1,2.52-.83,4,4,0,0,1,2.63.82,2.61,2.61,0,0,1,1,2.13h-1.63a1.43,1.43,0,0,0-.58-1.15,2.06,2.06,0,0,0-1.43-.47,2.18,2.18,0,0,0-1.38.39,1.24,1.24,0,0,0-.5,1,1,1,0,0,0,.47.88,5.61,5.61,0,0,0,1.69.56,9,9,0,0,1,2,.64,3,3,0,0,1,1.13.9,2.29,2.29,0,0,1,.37,1.3,2.44,2.44,0,0,1-1,2,4.25,4.25,0,0,1-2.64.78,4.64,4.64,0,0,1-2-.39,3.21,3.21,0,0,1-1.38-1.12,2.65,2.65,0,0,1-.51-1.57h1.62a1.72,1.72,0,0,0,.67,1.3,2.52,2.52,0,0,0,1.61.46,2.6,2.6,0,0,0,1.48-.38A1.12,1.12,0,0,0,365.45,765Z"/><path d="M375.08,767.42a3.59,3.59,0,0,1-.23-1,3.64,3.64,0,0,1-2.7,1.2,3.4,3.4,0,0,1-2.31-.78,2.59,2.59,0,0,1-.92-2,2.7,2.7,0,0,1,1.12-2.31,5.34,5.34,0,0,1,3.17-.84h1.58v-.75a1.84,1.84,0,0,0-.52-1.35,2.06,2.06,0,0,0-1.51-.5,2.3,2.3,0,0,0-1.45.45,1.3,1.3,0,0,0-.59,1.07h-1.63a2.26,2.26,0,0,1,.49-1.38,3.42,3.42,0,0,1,1.37-1.06,4.55,4.55,0,0,1,1.9-.4,3.75,3.75,0,0,1,2.58.8,3,3,0,0,1,1,2.26l0,4.38a5.34,5.34,0,0,0,.35,2.08v.14Zm-2.7-1.22a2.82,2.82,0,0,0,1.45-.41,2.36,2.36,0,0,0,1-1v-2h-1.28c-2,0-3,.6-3,1.76a1.49,1.49,0,0,0,.51,1.2A2,2,0,0,0,372.38,766.2Z"/><path d="M381.63,763l-1,1.07,0,3.34H379l-.09-13.5h1.63l.05,8.16.87-1,2.94-3.15h2l-3.68,4,4.17,5.51-1.91,0Z"/><path d="M395.21,762.89l-1,1.07,0,3.34h-1.63l-.09-13.5h1.63l.05,8.16.87-1.05,2.94-3.15h2l-3.68,4,4.17,5.51h-1.91Z"/><path d="M401.64,755.22a1,1,0,0,1,1.67-.68.93.93,0,0,1,.25.67,1,1,0,0,1-.24.66,1,1,0,0,1-.72.26.91.91,0,0,1-.72-.25A1,1,0,0,1,401.64,755.22Zm1.83,12h-1.62l-.06-9.51h1.62Z"/><path d="M411.59,764.66a1.19,1.19,0,0,0-.5-1,4.79,4.79,0,0,0-1.73-.61,8.85,8.85,0,0,1-2-.62,3,3,0,0,1-1.08-.88,2.1,2.1,0,0,1-.35-1.21,2.45,2.45,0,0,1,1-2,3.87,3.87,0,0,1,2.53-.83,4,4,0,0,1,2.62.82,2.65,2.65,0,0,1,1,2.13h-1.64a1.47,1.47,0,0,0-.57-1.15,2.15,2.15,0,0,0-1.44-.47,2.18,2.18,0,0,0-1.38.4,1.21,1.21,0,0,0-.5,1,1,1,0,0,0,.48.88,5.42,5.42,0,0,0,1.68.56,9,9,0,0,1,2,.64,2.93,2.93,0,0,1,1.13.9,2.29,2.29,0,0,1,.37,1.3,2.42,2.42,0,0,1-1,2.05,4.19,4.19,0,0,1-2.64.78,4.64,4.64,0,0,1-2-.39,3.21,3.21,0,0,1-1.38-1.12,2.64,2.64,0,0,1-.51-1.56h1.63a1.68,1.68,0,0,0,.66,1.29,2.55,2.55,0,0,0,1.61.47,2.6,2.6,0,0,0,1.48-.39A1.12,1.12,0,0,0,411.59,764.66Z"/><path d="M421.22,767.12a3.5,3.5,0,0,1-.23-1,3.64,3.64,0,0,1-2.7,1.2,3.4,3.4,0,0,1-2.31-.78,2.58,2.58,0,0,1-.92-2,2.71,2.71,0,0,1,1.12-2.32,5.36,5.36,0,0,1,3.17-.84h1.58v-.75a1.84,1.84,0,0,0-.52-1.35,2,2,0,0,0-1.51-.5,2.43,2.43,0,0,0-1.45.45,1.28,1.28,0,0,0-.58,1.07h-1.64a2.21,2.21,0,0,1,.5-1.38,3.47,3.47,0,0,1,1.36-1.06,4.75,4.75,0,0,1,1.9-.4,3.7,3.7,0,0,1,2.58.81,2.93,2.93,0,0,1,1,2.25l0,4.38a5.34,5.34,0,0,0,.35,2.08v.14Zm-2.7-1.22a2.91,2.91,0,0,0,1.45-.4,2.44,2.44,0,0,0,1-1v-2h-1.27c-2,0-3,.6-3,1.77a1.48,1.48,0,0,0,.52,1.19A2,2,0,0,0,418.52,765.9Z"/><path d="M427.27,755.27l0,2.3h1.78v1.26H427.3l0,5.91a1.29,1.29,0,0,0,.24.85,1,1,0,0,0,.81.28,4,4,0,0,0,.77-.11v1.31a5.06,5.06,0,0,1-1.25.19,2.05,2.05,0,0,1-1.64-.65,2.77,2.77,0,0,1-.57-1.87l0-5.9h-1.73V757.6l1.73,0v-2.3Z"/><path d="M432.72,753.56l2,0-2.34,2.6H431Zm.07,13.49h-1.63l-.06-9.51h1.63Z"/><path d="M440,759a5.1,5.1,0,0,0-.8-.06,2.16,2.16,0,0,0-2.17,1.38l.05,6.75h-1.63l-.06-9.51H437l0,1.1a2.54,2.54,0,0,1,2.26-1.29,1.73,1.73,0,0,1,.72.12Z"/><path d="M440.92,762.15a5.67,5.67,0,0,1,.54-2.51A4.11,4.11,0,0,1,443,757.9a4.26,4.26,0,0,1,2.23-.62,4,4,0,0,1,3.15,1.33,5.15,5.15,0,0,1,1.22,3.57v.11a5.62,5.62,0,0,1-.51,2.5,4,4,0,0,1-1.51,1.72,4.12,4.12,0,0,1-2.27.63,4,4,0,0,1-3.14-1.32,5.13,5.13,0,0,1-1.22-3.55Zm1.64.19a4.09,4.09,0,0,0,.75,2.53,2.48,2.48,0,0,0,3.93,0,4.44,4.44,0,0,0,.72-2.72,4.05,4.05,0,0,0-.76-2.53,2.47,2.47,0,0,0-3.92,0A4.39,4.39,0,0,0,442.56,762.34Z"/><path d="M453,765.59l5.57,0v1.33l-7.55,0v-1.19l5.2-7-5.17,0v-1.35l7.21,0v1.16Z"/><path d="M459.83,762a5.61,5.61,0,0,1,.53-2.52,4.14,4.14,0,0,1,1.52-1.73,4.2,4.2,0,0,1,2.23-.62,4,4,0,0,1,3.15,1.33,5.15,5.15,0,0,1,1.23,3.56v.12a5.72,5.72,0,0,1-.52,2.49,4,4,0,0,1-1.51,1.73,4.09,4.09,0,0,1-2.26.63,4,4,0,0,1-3.15-1.32,5.18,5.18,0,0,1-1.22-3.55Zm1.64.18a4,4,0,0,0,.75,2.54,2.49,2.49,0,0,0,3.93,0,4.44,4.44,0,0,0,.71-2.72,4.05,4.05,0,0,0-.76-2.53,2.34,2.34,0,0,0-2-1,2.31,2.31,0,0,0-1.93,1A4.36,4.36,0,0,0,461.47,762.21Z"/><path d="M472.69,755v2.3h1.78v1.26h-1.78l0,5.9a1.32,1.32,0,0,0,.24.86,1,1,0,0,0,.81.28,3.9,3.9,0,0,0,.77-.11v1.31a4.54,4.54,0,0,1-1.24.18,2,2,0,0,1-1.65-.65,2.85,2.85,0,0,1-.57-1.86l0-5.9h-1.73V757.3h1.74l0-2.3Z"/><path d="M478.57,754.94v2.3h1.78v1.26h-1.78l0,5.9a1.3,1.3,0,0,0,.24.86,1,1,0,0,0,.81.28,3.9,3.9,0,0,0,.77-.11v1.31a4.54,4.54,0,0,1-1.24.18,2,2,0,0,1-1.65-.64,2.88,2.88,0,0,1-.57-1.87l0-5.9h-1.73v-1.26H477l0-2.3Z"/><path d="M157.49,781.32l.06,1.19a3.47,3.47,0,0,1,2.84-1.39q3,0,3.06,3.38l0,6.29h-1.62l0-6.3a2.16,2.16,0,0,0-.48-1.51,1.89,1.89,0,0,0-1.44-.49,2.37,2.37,0,0,0-1.39.44,2.78,2.78,0,0,0-.92,1.11l0,6.78H156l-.06-9.51Z"/><path d="M169.89,790.92a4.14,4.14,0,0,1-3.15-1.25,4.69,4.69,0,0,1-1.24-3.39V786a5.76,5.76,0,0,1,.53-2.53,4.2,4.2,0,0,1,1.5-1.75,3.84,3.84,0,0,1,2.1-.64,3.57,3.57,0,0,1,2.89,1.21,5.29,5.29,0,0,1,1,3.49v.67l-6.44,0a3.37,3.37,0,0,0,.84,2.27,2.52,2.52,0,0,0,2,.85,2.77,2.77,0,0,0,1.46-.36,3.56,3.56,0,0,0,1-.94l1,.77A4,4,0,0,1,169.89,790.92Zm-.25-8.52a2.12,2.12,0,0,0-1.65.73,3.49,3.49,0,0,0-.82,2l4.77,0V785a3.14,3.14,0,0,0-.68-1.91A2,2,0,0,0,169.64,782.4Z"/><path d="M178.49,788.48l2.31-7.31h1.66l-3.35,9.53h-1.24l-3.5-9.49H176Z"/><path d="M187.92,790.81a4.21,4.21,0,0,1-3.16-1.25,4.76,4.76,0,0,1-1.23-3.39v-.3a5.7,5.7,0,0,1,.52-2.53,4.22,4.22,0,0,1,1.5-1.75,3.81,3.81,0,0,1,2.1-.64,3.55,3.55,0,0,1,2.89,1.2,5.29,5.29,0,0,1,1.05,3.49v.68l-6.44,0a3.39,3.39,0,0,0,.83,2.27,2.62,2.62,0,0,0,2,.85,2.93,2.93,0,0,0,1.45-.36,3.57,3.57,0,0,0,1-.94l1,.77A4,4,0,0,1,187.92,790.81Zm-.26-8.53A2.2,2.2,0,0,0,186,783a3.49,3.49,0,0,0-.81,2l4.76,0v-.12a3.09,3.09,0,0,0-.68-1.92A2.05,2.05,0,0,0,187.66,782.28Z"/><path d="M196.13,786.17l-1,1.07,0,3.34h-1.62l-.09-13.5h1.62l.06,8.17.86-1,2.94-3.15h2l-3.68,4,4.17,5.51-1.91,0Z"/><path d="M205.26,786.11l-1,1.07,0,3.34-1.62,0-.09-13.5,1.63,0,0,8.17.86-1.05L208,781h2l-3.67,4,4.16,5.51-1.9,0Z"/><path d="M215.52,790.63a4.15,4.15,0,0,1-3.15-1.25,4.73,4.73,0,0,1-1.24-3.39v-.3a5.73,5.73,0,0,1,.53-2.53,4.14,4.14,0,0,1,1.5-1.75,3.76,3.76,0,0,1,2.1-.64,3.55,3.55,0,0,1,2.89,1.2,5.29,5.29,0,0,1,1,3.49v.68l-6.45,0a3.39,3.39,0,0,0,.84,2.27,2.6,2.6,0,0,0,2,.85,2.77,2.77,0,0,0,1.46-.36,3.71,3.71,0,0,0,1-.94l1,.77A4,4,0,0,1,215.52,790.63Zm-.25-8.53a2.19,2.19,0,0,0-1.65.73,3.49,3.49,0,0,0-.81,2l4.76,0v-.12a3.11,3.11,0,0,0-.68-1.92A2.05,2.05,0,0,0,215.27,782.1Z"/><path d="M222.88,790.4l-1.63,0-.08-13.5,1.62,0Z"/><path d="M232.56,785.94l-1,1.07,0,3.34H230l-.09-13.5h1.62l.06,8.16.86-1,2.94-3.15h2l-3.68,4,4.17,5.51H235.9Z"/><path d="M244.93,790.26a3.5,3.5,0,0,1-.23-1,3.68,3.68,0,0,1-2.7,1.2,3.44,3.44,0,0,1-2.32-.78,2.61,2.61,0,0,1-.91-2,2.67,2.67,0,0,1,1.11-2.32,5.37,5.37,0,0,1,3.18-.84h1.58v-.75a1.79,1.79,0,0,0-.51-1.35,2.07,2.07,0,0,0-1.51-.5,2.33,2.33,0,0,0-1.46.45,1.29,1.29,0,0,0-.58,1.07h-1.63a2.2,2.2,0,0,1,.49-1.38A3.42,3.42,0,0,1,240.8,781a4.55,4.55,0,0,1,1.9-.4,3.73,3.73,0,0,1,2.58.81,3,3,0,0,1,1,2.25l0,4.38a5.36,5.36,0,0,0,.34,2.08v.14ZM242.22,789a2.79,2.79,0,0,0,1.45-.41,2.33,2.33,0,0,0,1-1v-2h-1.28c-2,0-3,.6-3,1.77a1.51,1.51,0,0,0,.52,1.19A2,2,0,0,0,242.22,789Z"/><path d="M256.85,785.54a5.67,5.67,0,0,1-1,3.5,3.15,3.15,0,0,1-2.68,1.34,3.48,3.48,0,0,1-2.73-1.08l0,4.58h-1.63l-.08-13.16h1.48l.09,1a3.37,3.37,0,0,1,2.75-1.25,3.26,3.26,0,0,1,2.72,1.28,5.74,5.74,0,0,1,1,3.59Zm-1.62-.18a4.13,4.13,0,0,0-.71-2.53,2.19,2.19,0,0,0-1.88-.92,2.37,2.37,0,0,0-2.21,1.32l0,4.54a2.38,2.38,0,0,0,2.24,1.29,2.18,2.18,0,0,0,1.85-.94A4.61,4.61,0,0,0,255.23,785.36Z"/><path d="M260.57,780.65l.06,10.61c0,1.83-.81,2.75-2.46,2.76a3.22,3.22,0,0,1-1-.15v-1.3a3,3,0,0,0,.74.07,1.1,1.1,0,0,0,.83-.3,1.48,1.48,0,0,0,.28-1l-.07-10.65Zm-1.81-2.51a1,1,0,0,1,.23-.67,1,1,0,0,1,.71-.28.91.91,0,0,1,.72.27.93.93,0,0,1,.25.67,1,1,0,0,1-.24.66,1,1,0,0,1-.72.27.94.94,0,0,1-.71-.26A1,1,0,0,1,258.76,778.14Z"/><path d="M269.12,790.11a3.28,3.28,0,0,1-.24-1,3.63,3.63,0,0,1-2.7,1.19,3.32,3.32,0,0,1-2.31-.78,2.58,2.58,0,0,1-.91-2,2.69,2.69,0,0,1,1.11-2.32,5.36,5.36,0,0,1,3.17-.84h1.59v-.75a1.83,1.83,0,0,0-.52-1.35,2.07,2.07,0,0,0-1.5-.5,2.46,2.46,0,0,0-1.46.45,1.31,1.31,0,0,0-.58,1.07h-1.64a2.32,2.32,0,0,1,.5-1.38,3.47,3.47,0,0,1,1.36-1.06,4.75,4.75,0,0,1,1.9-.4,3.8,3.8,0,0,1,2.58.81,3,3,0,0,1,1,2.26l0,4.37a5.5,5.5,0,0,0,.35,2.08v.14Zm-2.71-1.23a2.81,2.81,0,0,0,1.45-.4,2.47,2.47,0,0,0,1-1l0-2h-1.27c-2,0-3,.6-3,1.77a1.47,1.47,0,0,0,.52,1.19A1.9,1.9,0,0,0,266.41,788.88Z"/><path d="M279,780.53l.05,1.06a3.51,3.51,0,0,1,2.82-1.25,2.7,2.7,0,0,1,2.72,1.51,3.52,3.52,0,0,1,3-1.55c2.09,0,3.16,1.08,3.21,3.29l0,6.38h-1.63l0-6.28a2.12,2.12,0,0,0-.48-1.52,2,2,0,0,0-1.56-.5,2.12,2.12,0,0,0-2.19,2l0,6.31h-1.63l0-6.23a1.81,1.81,0,0,0-2-2.06,2.17,2.17,0,0,0-2.18,1.38l0,6.94h-1.63l-.06-9.51Z"/><path d="M297.22,790.1a4.17,4.17,0,0,1-3.16-1.25,4.73,4.73,0,0,1-1.23-3.39v-.3a5.62,5.62,0,0,1,.52-2.53,4.35,4.35,0,0,1,1.5-1.75,3.87,3.87,0,0,1,2.1-.64,3.55,3.55,0,0,1,2.89,1.2,5.3,5.3,0,0,1,1.05,3.49v.68l-6.44,0a3.32,3.32,0,0,0,.83,2.27,2.59,2.59,0,0,0,2,.85,2.74,2.74,0,0,0,1.45-.36,3.57,3.57,0,0,0,1-.94l1,.77A4,4,0,0,1,297.22,790.1Zm-.26-8.52a2.15,2.15,0,0,0-1.65.72,3.52,3.52,0,0,0-.81,2l4.76,0v-.13a3.08,3.08,0,0,0-.68-1.91A2,2,0,0,0,297,781.58Z"/><path d="M302.39,785.06a5.59,5.59,0,0,1,1-3.55,3.3,3.3,0,0,1,2.72-1.33,3.26,3.26,0,0,1,2.72,1.21l.08-1h1.48l.06,9.28a3.9,3.9,0,0,1-1.07,2.92,4.09,4.09,0,0,1-2.94,1.08,4.91,4.91,0,0,1-2-.43,3.39,3.39,0,0,1-1.51-1.19l.83-1a3.2,3.2,0,0,0,2.57,1.27,2.45,2.45,0,0,0,1.84-.68,2.56,2.56,0,0,0,.66-1.88v-.82a3.32,3.32,0,0,1-2.65,1.14,3.24,3.24,0,0,1-2.72-1.33A5.89,5.89,0,0,1,302.39,785.06Zm1.63.17a4.31,4.31,0,0,0,.68,2.52,2.13,2.13,0,0,0,1.85.91,2.38,2.38,0,0,0,2.25-1.41l0-4.34a2.39,2.39,0,0,0-2.25-1.35,2.18,2.18,0,0,0-1.85.93A4.72,4.72,0,0,0,304,785.23Z"/><path d="M323.23,789.76a3.59,3.59,0,0,1-.23-1,3.65,3.65,0,0,1-2.7,1.19,3.3,3.3,0,0,1-2.31-.78,2.58,2.58,0,0,1-.92-2,2.7,2.7,0,0,1,1.12-2.32,5.32,5.32,0,0,1,3.17-.84h1.58v-.74a1.83,1.83,0,0,0-.51-1.36,2.07,2.07,0,0,0-1.51-.49,2.39,2.39,0,0,0-1.46.44,1.32,1.32,0,0,0-.58,1.07h-1.63a2.24,2.24,0,0,1,.49-1.38,3.6,3.6,0,0,1,1.37-1.06,4.71,4.71,0,0,1,1.9-.4,3.83,3.83,0,0,1,2.58.81,3,3,0,0,1,1,2.26l0,4.37a5.33,5.33,0,0,0,.34,2.08v.15Zm-2.7-1.23a2.75,2.75,0,0,0,1.44-.4,2.35,2.35,0,0,0,1-1v-2h-1.28c-2,0-3,.6-3,1.77a1.46,1.46,0,0,0,.51,1.19A1.91,1.91,0,0,0,320.53,788.53Z"/><path d="M333.37,789.69h-1.62l-.09-13.5h1.63Z"/><path d="M339.92,789.82a4.13,4.13,0,0,1-3.15-1.24,4.72,4.72,0,0,1-1.24-3.39v-.3a5.7,5.7,0,0,1,.52-2.53,4.22,4.22,0,0,1,1.5-1.75,3.83,3.83,0,0,1,2.11-.65,3.6,3.6,0,0,1,2.89,1.21,5.29,5.29,0,0,1,1.05,3.49v.68l-6.44,0a3.37,3.37,0,0,0,.84,2.26,2.56,2.56,0,0,0,2,.86,3,3,0,0,0,1.46-.36,3.85,3.85,0,0,0,1-.94l1,.76A4,4,0,0,1,339.92,789.82Zm-.25-8.52A2.15,2.15,0,0,0,338,782a3.49,3.49,0,0,0-.82,2l4.77,0v-.12a3.15,3.15,0,0,0-.68-1.92A2.08,2.08,0,0,0,339.67,781.3Z"/><path d="M348.52,787.39l2.31-7.32h1.66l-3.35,9.53H347.9l-3.51-9.49h1.67Z"/><path d="M358,789.71a4.17,4.17,0,0,1-3.16-1.25,4.73,4.73,0,0,1-1.23-3.39v-.3a5.73,5.73,0,0,1,.52-2.53,4.29,4.29,0,0,1,1.5-1.75,3.81,3.81,0,0,1,2.1-.64,3.55,3.55,0,0,1,2.89,1.2,5.3,5.3,0,0,1,1.05,3.49v.68l-6.44,0a3.39,3.39,0,0,0,.83,2.27,2.59,2.59,0,0,0,2,.85,2.74,2.74,0,0,0,1.45-.36,3.57,3.57,0,0,0,1-.94l1,.77A4,4,0,0,1,358,789.71Zm-.26-8.53a2.22,2.22,0,0,0-1.65.73,3.49,3.49,0,0,0-.81,2l4.76,0v-.12a3.14,3.14,0,0,0-.68-1.92A2.05,2.05,0,0,0,357.69,781.18Z"/><path d="M365.3,789.48l-1.62,0-.09-13.5,1.63,0Z"/><path d="M371.85,789.62a4.14,4.14,0,0,1-3.15-1.25,4.69,4.69,0,0,1-1.24-3.39v-.3a5.73,5.73,0,0,1,.53-2.53,4.19,4.19,0,0,1,1.49-1.75,3.82,3.82,0,0,1,2.11-.64,3.56,3.56,0,0,1,2.89,1.2,5.3,5.3,0,0,1,1,3.49v.68l-6.44,0a3.39,3.39,0,0,0,.84,2.27,2.55,2.55,0,0,0,2,.85,2.8,2.8,0,0,0,1.46-.36,3.85,3.85,0,0,0,1-.94l1,.77A4,4,0,0,1,371.85,789.62Zm-.26-8.53a2.18,2.18,0,0,0-1.64.73,3.43,3.43,0,0,0-.82,2l4.77,0v-.12a3.2,3.2,0,0,0-.68-1.92A2.09,2.09,0,0,0,371.59,781.09Z"/><path d="M380.07,785l-1,1.07,0,3.34h-1.63l-.09-13.5H379l.05,8.16.86-1,3-3.15h2l-3.67,4,4.17,5.52h-1.91Z"/><path d="M390.33,789.5a4.15,4.15,0,0,1-3.15-1.25,4.73,4.73,0,0,1-1.23-3.39v-.3a5.73,5.73,0,0,1,.53-2.53,4.14,4.14,0,0,1,1.5-1.75,3.76,3.76,0,0,1,2.1-.64,3.55,3.55,0,0,1,2.89,1.2,5.3,5.3,0,0,1,1.05,3.49V785l-6.45,0a3.37,3.37,0,0,0,.84,2.27,2.58,2.58,0,0,0,2,.85,2.77,2.77,0,0,0,1.46-.36,3.71,3.71,0,0,0,1-.94l1,.77A4,4,0,0,1,390.33,789.5Zm-.25-8.53a2.19,2.19,0,0,0-1.65.73,3.49,3.49,0,0,0-.81,2l4.76,0v-.12a3.08,3.08,0,0,0-.68-1.91A2,2,0,0,0,390.08,781Z"/><path d="M398.05,777.46l0,2.3h1.77V781h-1.77l0,5.9a1.36,1.36,0,0,0,.25.86,1,1,0,0,0,.81.28,4,4,0,0,0,.77-.11v1.31a5.06,5.06,0,0,1-1.25.19,2.09,2.09,0,0,1-1.65-.65,2.82,2.82,0,0,1-.56-1.87l0-5.9h-1.73v-1.25l1.73,0v-2.3Z"/><path d="M403.6,785.61h-1.47l-.17-9.17h1.7ZM402,788.42a1,1,0,0,1,.24-.67.91.91,0,0,1,.72-.27.9.9,0,0,1,.72.26,1,1,0,0,1,.25.67.92.92,0,0,1-.24.66,1.11,1.11,0,0,1-1.44,0A1,1,0,0,1,402,788.42Z"/><path d="M166.25,812.77h-1.7L158,803l.07,9.86h-1.7L156.33,800H158l6.53,9.86-.07-9.91h1.68Z"/><path d="M172.94,812.9a4.12,4.12,0,0,1-3.16-1.25,4.69,4.69,0,0,1-1.23-3.39V808a5.76,5.76,0,0,1,.53-2.53,4.2,4.2,0,0,1,1.5-1.75,3.84,3.84,0,0,1,2.1-.64,3.58,3.58,0,0,1,2.89,1.21,5.29,5.29,0,0,1,1.05,3.49v.67l-6.45.05a3.37,3.37,0,0,0,.84,2.26,2.59,2.59,0,0,0,2,.86,2.87,2.87,0,0,0,1.46-.37,3.67,3.67,0,0,0,1-.93l1,.76A4,4,0,0,1,172.94,812.9Zm-.26-8.52a2.15,2.15,0,0,0-1.65.73,3.49,3.49,0,0,0-.81,2l4.76,0V807a3.09,3.09,0,0,0-.68-1.92A2,2,0,0,0,172.68,804.38Z"/><path d="M184.75,812.65h-1.63l-.09-13.5h1.63Z"/><path d="M191.29,812.78a4.14,4.14,0,0,1-3.15-1.24,4.72,4.72,0,0,1-1.23-3.39v-.3a5.7,5.7,0,0,1,.53-2.53,4.08,4.08,0,0,1,1.5-1.75,3.77,3.77,0,0,1,2.1-.65,3.6,3.6,0,0,1,2.89,1.21,5.29,5.29,0,0,1,1.05,3.49v.68l-6.44,0a3.37,3.37,0,0,0,.84,2.26,2.59,2.59,0,0,0,2,.86,3,3,0,0,0,1.46-.36,3.71,3.71,0,0,0,1-.94l1,.76A4,4,0,0,1,191.29,812.78Zm-.25-8.52a2.15,2.15,0,0,0-1.65.73,3.49,3.49,0,0,0-.81,2l4.76,0v-.12a3.09,3.09,0,0,0-.68-1.92A2.05,2.05,0,0,0,191,804.26Z"/><path d="M204.89,807.87a5.75,5.75,0,0,1-1,3.51,3.21,3.21,0,0,1-2.68,1.34,3.49,3.49,0,0,1-2.74-1.08l0,4.58h-1.62l-.09-13.17h1.49l.08,1.06a3.35,3.35,0,0,1,2.75-1.25,3.24,3.24,0,0,1,2.72,1.27,5.72,5.72,0,0,1,1,3.59Zm-1.63-.17a4.25,4.25,0,0,0-.7-2.54,2.22,2.22,0,0,0-1.89-.92,2.41,2.41,0,0,0-2.21,1.33l0,4.54a2.43,2.43,0,0,0,2.24,1.29,2.23,2.23,0,0,0,1.86-.94A4.61,4.61,0,0,0,203.26,807.7Z"/><path d="M206.52,807.67a5.61,5.61,0,0,1,.53-2.52,4,4,0,0,1,3.75-2.35,4,4,0,0,1,3.16,1.32,5.2,5.2,0,0,1,1.22,3.57v.11a5.76,5.76,0,0,1-.52,2.5,4,4,0,0,1-1.51,1.73,4.26,4.26,0,0,1-2.26.63,4,4,0,0,1-3.15-1.33,5.16,5.16,0,0,1-1.22-3.55Zm1.64.18a4,4,0,0,0,.75,2.54,2.49,2.49,0,0,0,3.93,0,4.45,4.45,0,0,0,.71-2.73,4.09,4.09,0,0,0-.76-2.53,2.39,2.39,0,0,0-2-1,2.33,2.33,0,0,0-1.93,1A4.41,4.41,0,0,0,208.16,807.85ZM210,799l1.73,0-1.89,2.68h-1.32Zm3,0,1.82,0-2.35,2.68H211Z"/><path d="M216.82,807.61a5.6,5.6,0,0,1,1-3.53,3.53,3.53,0,0,1,5.37-.22l0-5h1.63l.09,13.5h-1.5l-.08-1a3.34,3.34,0,0,1-2.71,1.22,3.26,3.26,0,0,1-2.7-1.34,5.64,5.64,0,0,1-1.07-3.53Zm1.63.17a4.25,4.25,0,0,0,.68,2.53,2.14,2.14,0,0,0,1.85.9,2.36,2.36,0,0,0,2.25-1.4l0-4.37a2.41,2.41,0,0,0-2.25-1.33,2.18,2.18,0,0,0-1.86.94A4.61,4.61,0,0,0,218.45,807.78Z"/><path d="M229,802.85l.07,10.61c0,1.83-.81,2.75-2.46,2.76a3.22,3.22,0,0,1-1-.15v-1.29a3.1,3.1,0,0,0,.74.06,1.1,1.1,0,0,0,.83-.3,1.45,1.45,0,0,0,.28-1l-.07-10.65Zm-1.8-2.51a1,1,0,0,1,.23-.66,1.07,1.07,0,0,1,1.43,0,.93.93,0,0,1-.71,1.59.9.9,0,0,1-.71-.26A.92.92,0,0,1,227.21,800.34Z"/><path d="M237.62,802.8l0,1.05a3.49,3.49,0,0,1,2.81-1.24,2.72,2.72,0,0,1,2.73,1.51,3.52,3.52,0,0,1,3-1.55q3.14,0,3.2,3.29l0,6.37h-1.63l0-6.27a2.16,2.16,0,0,0-.48-1.52,2,2,0,0,0-1.56-.5,2.12,2.12,0,0,0-2.19,2l0,6.31H242l0-6.23a1.82,1.82,0,0,0-2-2.06,2.18,2.18,0,0,0-2.18,1.38l.05,6.94h-1.63l-.06-9.51Z"/><path d="M255.88,812.37a4.17,4.17,0,0,1-3.16-1.25,4.73,4.73,0,0,1-1.23-3.39v-.3a5.73,5.73,0,0,1,.53-2.53,4.14,4.14,0,0,1,1.5-1.75,3.76,3.76,0,0,1,2.1-.64,3.55,3.55,0,0,1,2.89,1.2,5.29,5.29,0,0,1,1.05,3.49v.68l-6.45,0a3.39,3.39,0,0,0,.84,2.27,2.62,2.62,0,0,0,2,.85,2.76,2.76,0,0,0,1.45-.36,3.57,3.57,0,0,0,1-.94l1,.77A4,4,0,0,1,255.88,812.37Zm-.26-8.53a2.19,2.19,0,0,0-1.65.73,3.49,3.49,0,0,0-.81,2l4.76,0v-.12a3.11,3.11,0,0,0-.68-1.92A2.05,2.05,0,0,0,255.62,803.84Z"/><path d="M261.05,807.32a5.58,5.58,0,0,1,1-3.54,3.3,3.3,0,0,1,2.72-1.33,3.24,3.24,0,0,1,2.72,1.21l.07-1h1.49l.06,9.28a3.83,3.83,0,0,1-1.08,2.91,4,4,0,0,1-2.93,1.09,5,5,0,0,1-2-.43,3.57,3.57,0,0,1-1.51-1.19l.84-1a3.17,3.17,0,0,0,2.57,1.28,2.49,2.49,0,0,0,1.84-.68,2.53,2.53,0,0,0,.65-1.88v-.82a3.37,3.37,0,0,1-2.66,1.14A3.23,3.23,0,0,1,262.1,811,5.9,5.9,0,0,1,261.05,807.32Zm1.63.18a4.24,4.24,0,0,0,.68,2.52,2.15,2.15,0,0,0,1.85.91,2.4,2.4,0,0,0,2.25-1.41l0-4.35a2.4,2.4,0,0,0-2.25-1.34,2.14,2.14,0,0,0-1.85.93A4.64,4.64,0,0,0,262.68,807.5Z"/><path d="M271.53,814.64l-.93-.63a4.22,4.22,0,0,0,.85-2.38v-1.46H273v1.27a4,4,0,0,1-.43,1.78A4.19,4.19,0,0,1,271.53,814.64Z"/><path d="M281.12,803.67a3.48,3.48,0,0,1,2.81-1.35q3,0,3.06,3.39l0,6.28H285.4l0-6.29a2.19,2.19,0,0,0-.48-1.52,1.83,1.83,0,0,0-1.44-.48,2.27,2.27,0,0,0-1.38.43,2.8,2.8,0,0,0-.93,1.11l.05,6.78h-1.63l-.09-13.5h1.63Z"/><path d="M295.34,811.94a3.2,3.2,0,0,1-.24-1,3.6,3.6,0,0,1-2.7,1.19,3.3,3.3,0,0,1-2.31-.78,2.56,2.56,0,0,1-.91-2,2.66,2.66,0,0,1,1.11-2.31,5.29,5.29,0,0,1,3.17-.85H295v-.74a1.84,1.84,0,0,0-.52-1.36,2,2,0,0,0-1.51-.49,2.36,2.36,0,0,0-1.45.44,1.29,1.29,0,0,0-.58,1.07h-1.64a2.26,2.26,0,0,1,.5-1.38,3.57,3.57,0,0,1,1.36-1.06,4.58,4.58,0,0,1,1.9-.39,3.75,3.75,0,0,1,2.58.8,3,3,0,0,1,1,2.26l0,4.37a5.4,5.4,0,0,0,.35,2.09v.14Zm-2.71-1.23a2.81,2.81,0,0,0,1.45-.4,2.42,2.42,0,0,0,1-1v-2h-1.27c-2,0-3,.6-3,1.77a1.47,1.47,0,0,0,.52,1.19A1.9,1.9,0,0,0,292.63,810.71Z"/><path d="M303.64,799.85a1,1,0,0,1,.24-.67,1,1,0,0,1,.72-.28.94.94,0,0,1,.72.27,1,1,0,0,1,.25.67,1,1,0,0,1-.24.66,1.11,1.11,0,0,1-1.44,0A1,1,0,0,1,303.64,799.85Zm1.84,12h-1.63l-.06-9.51h1.63Z"/><path d="M307.65,807a5.52,5.52,0,0,1,1-3.52,3.24,3.24,0,0,1,2.71-1.35,3.31,3.31,0,0,1,2.65,1.12l0-4.95h1.62l.09,13.5h-1.5l-.08-1a3.33,3.33,0,0,1-2.71,1.21,3.24,3.24,0,0,1-2.7-1.34,5.61,5.61,0,0,1-1.07-3.52Zm1.63.18a4.26,4.26,0,0,0,.68,2.52,2.18,2.18,0,0,0,1.86.91,2.38,2.38,0,0,0,2.25-1.41l0-4.36a2.39,2.39,0,0,0-2.25-1.34,2.18,2.18,0,0,0-1.86.94A4.64,4.64,0,0,0,309.28,807.2Z"/><path d="M322.18,811.94a4.17,4.17,0,0,1-3.16-1.25,4.73,4.73,0,0,1-1.23-3.39V807a5.73,5.73,0,0,1,.52-2.53,4.29,4.29,0,0,1,1.5-1.75,3.81,3.81,0,0,1,2.1-.64,3.55,3.55,0,0,1,2.89,1.2,5.3,5.3,0,0,1,1.05,3.49v.68l-6.44,0a3.37,3.37,0,0,0,.83,2.27,2.59,2.59,0,0,0,2,.85,2.74,2.74,0,0,0,1.45-.36,3.57,3.57,0,0,0,1-.94l1,.77A4,4,0,0,1,322.18,811.94Zm-.26-8.52a2.18,2.18,0,0,0-1.65.72,3.49,3.49,0,0,0-.81,2l4.76,0V806a3.08,3.08,0,0,0-.68-1.91A2,2,0,0,0,321.92,803.42Zm.76-5.16h2l-2.34,2.6H321Z"/><path d="M329.24,802.21l.06,1.19a3.47,3.47,0,0,1,2.84-1.39q3,0,3.07,3.39l0,6.28h-1.63l0-6.29a2.19,2.19,0,0,0-.48-1.52,1.85,1.85,0,0,0-1.44-.48,2.3,2.3,0,0,0-1.39.43,2.86,2.86,0,0,0-.92,1.11l0,6.78h-1.62l-.06-9.51Z"/><path d="M343.63,802.12l.06,1.19a3.47,3.47,0,0,1,2.84-1.39q3,0,3.06,3.38l0,6.29H348l0-6.3a2.16,2.16,0,0,0-.48-1.51,1.89,1.89,0,0,0-1.44-.49,2.44,2.44,0,0,0-1.39.43,2.88,2.88,0,0,0-.92,1.12l0,6.77h-1.63l-.06-9.5Z"/><path d="M356,811.72a4.15,4.15,0,0,1-3.15-1.25,4.73,4.73,0,0,1-1.24-3.39v-.3a5.76,5.76,0,0,1,.53-2.53,4.2,4.2,0,0,1,1.5-1.75,3.84,3.84,0,0,1,2.1-.64,3.56,3.56,0,0,1,2.89,1.2,5.32,5.32,0,0,1,1,3.5v.67l-6.44,0a3.37,3.37,0,0,0,.84,2.27,2.57,2.57,0,0,0,2,.85,2.77,2.77,0,0,0,1.46-.36,3.71,3.71,0,0,0,1-.94l1,.77A4,4,0,0,1,356,811.72Zm-.25-8.52a2.15,2.15,0,0,0-1.65.72,3.52,3.52,0,0,0-.81,2l4.76,0v-.13a3.08,3.08,0,0,0-.68-1.91A2,2,0,0,0,355.78,803.2Z"/><path d="M363.09,802l.05,1a3.53,3.53,0,0,1,2.81-1.25,2.74,2.74,0,0,1,2.73,1.52,3.52,3.52,0,0,1,3-1.55q3.14,0,3.2,3.29l.05,6.37h-1.63l0-6.27a2.16,2.16,0,0,0-.48-1.52,2,2,0,0,0-1.56-.5,2.13,2.13,0,0,0-1.5.55,2.17,2.17,0,0,0-.69,1.46l0,6.31h-1.63l0-6.23a1.82,1.82,0,0,0-2.05-2.06,2.18,2.18,0,0,0-2.18,1.38l.05,6.94h-1.63l-.06-9.51Z"/><path d="M384,799.55l0,2.3h1.77v1.26H384l0,5.91a1.34,1.34,0,0,0,.25.85,1,1,0,0,0,.81.28,3.34,3.34,0,0,0,.77-.11v1.31a5.06,5.06,0,0,1-1.25.19,2.06,2.06,0,0,1-1.65-.65,2.82,2.82,0,0,1-.56-1.87l0-5.9h-1.73v-1.25h1.73v-2.31Z"/><path d="M393.6,810.36a3.47,3.47,0,0,1-2.78,1.14,3,3,0,0,1-2.32-.87,3.79,3.79,0,0,1-.82-2.61l0-6.19h1.62l0,6.14c0,1.45.6,2.16,1.77,2.16a2.43,2.43,0,0,0,2.47-1.41l0-6.92h1.63l.06,9.51h-1.55Z"/><path d="M397.23,806.45a5.6,5.6,0,0,1,1-3.53,3.53,3.53,0,0,1,5.36-.23l0-5h1.63l.09,13.5h-1.5l-.08-1a3.33,3.33,0,0,1-2.71,1.21,3.24,3.24,0,0,1-2.7-1.34,5.55,5.55,0,0,1-1.07-3.52Zm1.63.17a4.18,4.18,0,0,0,.68,2.53,2.19,2.19,0,0,0,1.85.9,2.38,2.38,0,0,0,2.25-1.41l0-4.36a2.37,2.37,0,0,0-2.25-1.33,2.14,2.14,0,0,0-1.85.93A4.64,4.64,0,0,0,398.86,806.62Z"/><path d="M409.42,801.69l.07,10.61c0,1.83-.81,2.75-2.47,2.76a3.16,3.16,0,0,1-1-.15v-1.3a3,3,0,0,0,.74.07,1.1,1.1,0,0,0,.83-.3,1.48,1.48,0,0,0,.28-1l-.07-10.65Zm-1.8-2.51a1,1,0,0,1,.23-.67,1.07,1.07,0,0,1,1.43,0,.93.93,0,0,1,.25.67,1,1,0,0,1-.24.66,1,1,0,0,1-.72.27.92.92,0,0,1-.71-.26A1,1,0,0,1,407.62,799.18Z"/><path d="M418,811.15a3.2,3.2,0,0,1-.24-1,3.64,3.64,0,0,1-2.7,1.2,3.32,3.32,0,0,1-2.31-.78,2.58,2.58,0,0,1-.91-2,2.69,2.69,0,0,1,1.11-2.32,5.36,5.36,0,0,1,3.17-.84h1.58v-.75a1.82,1.82,0,0,0-.52-1.35,2.08,2.08,0,0,0-1.51-.5,2.45,2.45,0,0,0-1.45.45,1.28,1.28,0,0,0-.58,1.07H412a2.26,2.26,0,0,1,.5-1.38,3.47,3.47,0,0,1,1.36-1.06,4.75,4.75,0,0,1,1.9-.4,3.8,3.8,0,0,1,2.58.81,3,3,0,0,1,1,2.26l0,4.37a5.31,5.31,0,0,0,.35,2.08v.14Zm-2.71-1.23a2.81,2.81,0,0,0,1.45-.4,2.39,2.39,0,0,0,1-1v-2h-1.27c-2,0-3,.6-3,1.77a1.47,1.47,0,0,0,.52,1.19A1.9,1.9,0,0,0,415.27,809.92Z"/><path d="M427.92,802.72a3.44,3.44,0,0,1,2.81-1.34q3,0,3.06,3.38l0,6.28h-1.62l0-6.29a2.21,2.21,0,0,0-.49-1.52,1.91,1.91,0,0,0-1.44-.48,2.33,2.33,0,0,0-1.38.43,2.87,2.87,0,0,0-.93,1.11l.05,6.78h-1.63l-.09-13.5h1.63Z"/><path d="M435.8,806.19a5.75,5.75,0,0,1,.54-2.52,4,4,0,0,1,1.52-1.73,4.09,4.09,0,0,1,2.23-.62,4,4,0,0,1,3.15,1.32,5.2,5.2,0,0,1,1.22,3.57v.11a5.62,5.62,0,0,1-.51,2.5,4.11,4.11,0,0,1-1.51,1.73,4.29,4.29,0,0,1-2.27.63,4,4,0,0,1-3.14-1.33,5.12,5.12,0,0,1-1.23-3.55Zm1.64.18a4.14,4.14,0,0,0,.75,2.54,2.34,2.34,0,0,0,2,.94,2.31,2.31,0,0,0,2-1,4.39,4.39,0,0,0,.71-2.73,4,4,0,0,0-.75-2.53,2.39,2.39,0,0,0-2-1,2.35,2.35,0,0,0-1.94,1A4.39,4.39,0,0,0,437.44,806.37Z"/><path d="M446.11,806.13a5.63,5.63,0,0,1,1-3.55,3.54,3.54,0,0,1,5.44-.11l.07-1.06h1.49l.06,9.28a3.89,3.89,0,0,1-1.08,2.92,4,4,0,0,1-2.93,1.08,4.8,4.8,0,0,1-2-.43,3.37,3.37,0,0,1-1.51-1.19l.84-1a3.19,3.19,0,0,0,2.56,1.28,2.31,2.31,0,0,0,2.5-2.57V810a3.35,3.35,0,0,1-2.66,1.15,3.27,3.27,0,0,1-2.71-1.33A5.9,5.9,0,0,1,446.11,806.13Zm1.64.17a4.32,4.32,0,0,0,.67,2.53,2.15,2.15,0,0,0,1.86.9,2.39,2.39,0,0,0,2.25-1.41l0-4.34a2.41,2.41,0,0,0-2.25-1.35,2.17,2.17,0,0,0-1.85.94A4.61,4.61,0,0,0,447.75,806.3Z"/><path d="M459.73,808.49l2.16-7.14h1.74l-3.75,11c-.58,1.59-1.51,2.39-2.8,2.39l-.31,0-.61-.11v-1.32l.44,0a2.13,2.13,0,0,0,1.29-.34,2.32,2.32,0,0,0,.75-1.23l.36-1-3.46-9.39h1.78Z"/><path d="M472.23,806.39l-1,1.07,0,3.34h-1.63l-.09-13.5h1.63l.05,8.17.87-1.05,2.94-3.15,2,0-3.67,4,4.17,5.51h-1.91Z"/><path d="M478.66,798.72a.93.93,0,0,1,.23-.67,1,1,0,0,1,.72-.28.9.9,0,0,1,1,.94,1,1,0,0,1-.24.66.91.91,0,0,1-.72.27,1,1,0,0,1-.72-.26A1,1,0,0,1,478.66,798.72Zm1.83,12h-1.62l-.07-9.51h1.63Z"/><path d="M490.67,808.47l2.31-7.32h1.66l-3.35,9.53h-1.24l-3.5-9.49h1.66Z"/><path d="M495.67,805.8a5.75,5.75,0,0,1,.54-2.52,4.07,4.07,0,0,1,1.52-1.73,4.17,4.17,0,0,1,2.23-.62,4,4,0,0,1,3.15,1.32,5.23,5.23,0,0,1,1.22,3.57v.12a5.58,5.58,0,0,1-.51,2.49,4,4,0,0,1-1.51,1.73,4.12,4.12,0,0,1-2.27.63,4,4,0,0,1-3.14-1.32,5.14,5.14,0,0,1-1.23-3.55Zm1.64.18a4.12,4.12,0,0,0,.75,2.54,2.34,2.34,0,0,0,2,.94,2.31,2.31,0,0,0,2-1,4.45,4.45,0,0,0,.72-2.73,4.09,4.09,0,0,0-.76-2.53,2.35,2.35,0,0,0-2-1,2.3,2.3,0,0,0-1.94,1A4.36,4.36,0,0,0,497.31,806Z"/><path d="M508.17,810.56h-1.63l-.08-13.5h1.62Z"/><path d="M512.9,798.72V801h1.78v1.26h-1.78l0,5.9a1.3,1.3,0,0,0,.24.86,1,1,0,0,0,.81.28,4.08,4.08,0,0,0,.78-.11v1.31a4.54,4.54,0,0,1-1.24.18,2,2,0,0,1-1.65-.64,2.88,2.88,0,0,1-.57-1.87l0-5.9h-1.74V801h1.73l0-2.3Z"/><path d="M522.72,801l.07,10.61c0,1.83-.81,2.74-2.47,2.76a2.86,2.86,0,0,1-1-.16v-1.29a3,3,0,0,0,.74.07,1.14,1.14,0,0,0,.83-.3,1.53,1.53,0,0,0,.28-1L521.1,801Zm-1.81-2.51a1,1,0,0,1,.24-.67.91.91,0,0,1,.71-.28.94.94,0,0,1,.72.27,1,1,0,0,1,.25.67,1,1,0,0,1-.24.66,1,1,0,0,1-.72.26.91.91,0,0,1-.72-.25A1.06,1.06,0,0,1,520.91,798.45Z"/><path d="M524.94,805.61a5.61,5.61,0,0,1,.53-2.52,4.14,4.14,0,0,1,1.52-1.73,4.2,4.2,0,0,1,2.23-.62,4,4,0,0,1,3.16,1.33,5.19,5.19,0,0,1,1.22,3.56v.12a5.58,5.58,0,0,1-.52,2.49,4,4,0,0,1-1.51,1.73,4.09,4.09,0,0,1-2.26.63,4,4,0,0,1-3.14-1.32,5.14,5.14,0,0,1-1.23-3.55Zm1.64.18a4,4,0,0,0,.75,2.54,2.48,2.48,0,0,0,3.93,0,4.44,4.44,0,0,0,.71-2.72,4.05,4.05,0,0,0-.76-2.53,2.46,2.46,0,0,0-3.91,0A4.38,4.38,0,0,0,526.58,805.79Zm3.36-8.87h2l-2.34,2.6h-1.31Z"/><path d="M543.25,808.13l2.31-7.32h1.66l-3.35,9.53h-1.24l-3.51-9.49h1.66Z"/><path d="M554.58,810.26a3.5,3.5,0,0,1-.23-1,3.64,3.64,0,0,1-2.7,1.2,3.4,3.4,0,0,1-2.31-.78,2.58,2.58,0,0,1-.92-2,2.71,2.71,0,0,1,1.12-2.32,5.34,5.34,0,0,1,3.17-.84h1.58v-.75a1.84,1.84,0,0,0-.52-1.35,2.07,2.07,0,0,0-1.51-.5,2.48,2.48,0,0,0-1.46.45,1.31,1.31,0,0,0-.58,1.07h-1.63a2.2,2.2,0,0,1,.49-1.38,3.51,3.51,0,0,1,1.37-1.06,4.71,4.71,0,0,1,1.9-.4,3.73,3.73,0,0,1,2.58.81,3,3,0,0,1,1,2.25l0,4.38a5.16,5.16,0,0,0,.35,2.08v.14Zm-2.7-1.22a2.84,2.84,0,0,0,1.44-.4,2.35,2.35,0,0,0,1-1v-2H553q-3,0-3,1.77a1.47,1.47,0,0,0,.51,1.19A2,2,0,0,0,551.88,809Z"/><path d="M558.08,805.41a5.59,5.59,0,0,1,1-3.55,3.55,3.55,0,0,1,5.44-.12l.07-1h1.49l.06,9.28a3.94,3.94,0,0,1-1.08,2.92,4,4,0,0,1-2.93,1.08,5,5,0,0,1-2-.43,3.44,3.44,0,0,1-1.51-1.19l.84-1a3.18,3.18,0,0,0,2.56,1.27,2.46,2.46,0,0,0,1.85-.68,2.52,2.52,0,0,0,.65-1.88v-.82a3.37,3.37,0,0,1-2.66,1.14,3.22,3.22,0,0,1-2.71-1.33A5.89,5.89,0,0,1,558.08,805.41Zm1.64.17a4.31,4.31,0,0,0,.67,2.52,2.18,2.18,0,0,0,1.86.91,2.4,2.4,0,0,0,2.25-1.41l0-4.34a2.41,2.41,0,0,0-2.25-1.35,2.14,2.14,0,0,0-1.85.93A4.64,4.64,0,0,0,559.72,805.58Z"/><path d="M571.7,807.77l2.16-7.14h1.74l-3.75,11c-.58,1.59-1.51,2.38-2.8,2.39l-.31,0-.61-.11v-1.32l.44,0a2.2,2.2,0,0,0,1.29-.34,2.4,2.4,0,0,0,.75-1.23l.36-1-3.46-9.38h1.78Z"/><path d="M586.12,802a5.1,5.1,0,0,0-.8-.06,2.14,2.14,0,0,0-2.16,1.38l0,6.75h-1.63l-.06-9.51h1.58l0,1.1a2.5,2.5,0,0,1,2.26-1.29,1.73,1.73,0,0,1,.72.12Z"/><path d="M587,805.21a5.61,5.61,0,0,1,.53-2.52,4,4,0,0,1,3.75-2.35,4,4,0,0,1,3.15,1.33,5.14,5.14,0,0,1,1.22,3.56v.12a5.58,5.58,0,0,1-.51,2.49,4,4,0,0,1-1.51,1.73,4.12,4.12,0,0,1-2.27.63,4,4,0,0,1-3.14-1.32,5.13,5.13,0,0,1-1.22-3.55Zm1.63.18a4.12,4.12,0,0,0,.75,2.54,2.35,2.35,0,0,0,2,.94,2.31,2.31,0,0,0,2-1,4.44,4.44,0,0,0,.72-2.72,4.1,4.1,0,0,0-.76-2.54,2.35,2.35,0,0,0-2-1,2.31,2.31,0,0,0-1.94,1A4.36,4.36,0,0,0,588.66,805.39Z"/><path d="M603.27,807.43a1.19,1.19,0,0,0-.5-1,4.76,4.76,0,0,0-1.73-.62,8.35,8.35,0,0,1-2-.62,2.93,2.93,0,0,1-1.08-.87,2.13,2.13,0,0,1-.35-1.21,2.48,2.48,0,0,1,1-2,3.86,3.86,0,0,1,2.53-.82,4,4,0,0,1,2.62.81,2.64,2.64,0,0,1,1,2.13h-1.63a1.43,1.43,0,0,0-.58-1.14,2.11,2.11,0,0,0-1.43-.48,2.24,2.24,0,0,0-1.38.4,1.24,1.24,0,0,0-.5,1,1,1,0,0,0,.48.89,6,6,0,0,0,1.68.56,8.53,8.53,0,0,1,2,.64,2.82,2.82,0,0,1,1.13.9,2.23,2.23,0,0,1,.37,1.29,2.44,2.44,0,0,1-1,2.05,4.25,4.25,0,0,1-2.64.79,5,5,0,0,1-2-.39,3.28,3.28,0,0,1-1.38-1.12,2.7,2.7,0,0,1-.51-1.57H599a1.7,1.7,0,0,0,.67,1.29,2.49,2.49,0,0,0,1.61.47,2.6,2.6,0,0,0,1.48-.38A1.13,1.13,0,0,0,603.27,807.43Z"/><path d="M612.55,807.37a1.19,1.19,0,0,0-.5-1,4.58,4.58,0,0,0-1.73-.62,8.35,8.35,0,0,1-2-.62,2.84,2.84,0,0,1-1.08-.87,2.13,2.13,0,0,1-.35-1.21,2.47,2.47,0,0,1,1-2,4.45,4.45,0,0,1,5.15,0,2.65,2.65,0,0,1,1,2.12h-1.64a1.45,1.45,0,0,0-.57-1.14,2.16,2.16,0,0,0-1.44-.48,2.24,2.24,0,0,0-1.38.4,1.24,1.24,0,0,0-.5,1,1,1,0,0,0,.48.89,6,6,0,0,0,1.68.56,9.07,9.07,0,0,1,2,.63,2.85,2.85,0,0,1,1.13.91,2.23,2.23,0,0,1,.37,1.29,2.42,2.42,0,0,1-1,2,4.25,4.25,0,0,1-2.64.79,5,5,0,0,1-2-.39,3.28,3.28,0,0,1-1.38-1.12,2.7,2.7,0,0,1-.51-1.57h1.63a1.65,1.65,0,0,0,.66,1.29,2.55,2.55,0,0,0,1.61.47,2.6,2.6,0,0,0,1.48-.38A1.13,1.13,0,0,0,612.55,807.37Z"/><path d="M617.84,808.53l5.56,0v1.33l-7.55,0v-1.2l5.2-7-5.17,0v-1.34l7.2-.05v1.15Z"/><path d="M627,806.17h-1.47l-.17-9.17h1.71ZM625.41,809a.92.92,0,0,1,.23-.67,1,1,0,0,1,.72-.28.9.9,0,0,1,1,.94,1,1,0,0,1-1.68.67A.92.92,0,0,1,625.41,809Z"/></g><g id="Réteg_2" data-name="Réteg 2"><rect class="cls-2" x="393.15" y="494.32" width="97.25" height="47.44" rx="3.56" transform="translate(-214.39 336.45) rotate(-34.07)"/><path d="M415.75,564a3.95,3.95,0,0,1-3.3-1.75l-22.59-33.4a4,4,0,0,1,1.06-5.52l74.66-50.49a4,4,0,0,1,5.52,1.06l22.59,33.4a4,4,0,0,1-1.07,5.52L418,563.28A4,4,0,0,1,415.75,564Zm52.05-91a3.06,3.06,0,0,0-1.75.54L391.39,524a3.15,3.15,0,0,0-.84,4.37l22.59,33.4a3.15,3.15,0,0,0,4.36.84l74.66-50.5a3.15,3.15,0,0,0,.84-4.36l-22.59-33.4a3.11,3.11,0,0,0-2-1.33A4,4,0,0,0,467.8,473Z"/><polyline class="cls-3" points="465.44 474 441.03 516.86 392.15 523.57"/><polygon points="391.47 523.92 391.36 523.1 440.77 516.48 465.97 472.52 466.69 472.94 441.29 517.25 441.08 517.27 391.47 523.92"/><rect class="cls-4" x="502.2" y="677.45" width="97.25" height="47.44" rx="3.56" transform="translate(-298.27 428.98) rotate(-34.07)"/><rect class="cls-5" x="551.95" y="685.51" width="28.89" height="1.97" transform="translate(-287.38 435.19) rotate(-34.07)"/><rect class="cls-5" x="560.94" y="686.85" width="21.73" height="1.79" transform="translate(-287.15 438.44) rotate(-34.07)"/><rect class="cls-5" x="556.95" y="692.17" width="28.89" height="1.97" transform="translate(-290.25 439.13) rotate(-34.07)"/><rect class="cls-6" x="502.96" y="705.14" width="12.19" height="12.21" rx="0.71" transform="translate(-311.09 407.31) rotate(-34.07)"/><path d="M524.8,747.09A4,4,0,0,1,524,747a4,4,0,0,1-2.53-1.67L498.91,712a4,4,0,0,1,1.06-5.52l74.66-50.5a4,4,0,0,1,5.52,1.07l22.59,33.4a4,4,0,0,1-1.07,5.51L527,746.41A3.92,3.92,0,0,1,524.8,747.09Zm52.05-91a3.2,3.2,0,0,0-1.76.54l-74.65,50.5a3.13,3.13,0,0,0-.84,4.36l22.59,33.4a3.14,3.14,0,0,0,4.36.84l74.66-50.5a3.14,3.14,0,0,0,.84-4.36l-22.59-33.4a3.15,3.15,0,0,0-2-1.32A3.05,3.05,0,0,0,576.85,656.08Z"/><line x1="500.51" y1="707.06" x2="500.4" y2="706.23"/><rect class="cls-2" x="473.32" y="492.3" width="75.83" height="36.99" rx="2.77" transform="translate(167.49 -124.9) rotate(16.62)"/><path d="M540.41,539.1a3.18,3.18,0,0,1-.91-.13l-67.34-20.11a3.17,3.17,0,0,1-1.9-1.54,3.21,3.21,0,0,1-.25-2.43l9-30.13a3.2,3.2,0,0,1,4-2.14l67.34,20.1a3.21,3.21,0,0,1,2.14,4l-9,30.12a3.2,3.2,0,0,1-1.54,1.9A3.26,3.26,0,0,1,540.41,539.1Zm-.67-.93a2.37,2.37,0,0,0,2.93-1.59l9-30.12a2.36,2.36,0,0,0-1.58-2.94l-67.34-20.1A2.36,2.36,0,0,0,479.8,485l-9,30.13a2.34,2.34,0,0,0,1.58,2.93Z"/><polyline class="cls-3" points="549.5 503.32 511.58 509.76 483.39 483.58"/><polygon points="511.47 510.11 511.35 510 482.84 483.35 483.28 482.87 511.68 509.42 550.65 502.91 550.75 503.55 511.47 510.11"/><rect class="cls-2" x="425.12" y="533.7" width="67.01" height="32.69" rx="2.45" transform="translate(88.36 -62.97) rotate(8.69)"/><path d="M487.22,571.33a3.11,3.11,0,0,1-.43,0l-61.39-9.38a2.88,2.88,0,0,1-2.41-3.27l4.2-27.46a2.88,2.88,0,0,1,3.27-2.41l61.39,9.39a2.87,2.87,0,0,1,2.4,3.26l-4.2,27.47A2.87,2.87,0,0,1,487.22,571.33ZM430,529.58a2.06,2.06,0,0,0-2,1.73l-4.19,27.47a2,2,0,0,0,.37,1.51,2,2,0,0,0,1.33.8l61.39,9.39a2,2,0,0,0,2.32-1.71l4.2-27.46a2,2,0,0,0-1.71-2.32l-61.39-9.38Z"/><polyline class="cls-3" points="491.2 538.84 458.8 549.1 430.94 529.63"/><polygon points="458.75 549.41 430.42 529.48 430.75 529.01 458.84 548.78 492.15 538.34 492.33 538.88 458.75 549.41"/><rect class="cls-2" x="437.23" y="513.21" width="54.94" height="26.8" rx="2.01" transform="matrix(0.94, -0.35, 0.35, 0.94, -153.36, 193.04)"/><path d="M444.74,548.52a2.43,2.43,0,0,1-2.27-1.59l-7.88-21.37a2.45,2.45,0,0,1,.08-1.86,2.37,2.37,0,0,1,1.36-1.26l47.78-17.6a2.44,2.44,0,0,1,3.12,1.44l7.87,21.38a2.41,2.41,0,0,1-1.44,3.11l-47.78,17.6A2.44,2.44,0,0,1,444.74,548.52Zm39.91-43a1.76,1.76,0,0,0-.55.09l-47.78,17.6a1.6,1.6,0,0,0-.9.83,1.61,1.61,0,0,0-.05,1.22l7.88,21.38a1.59,1.59,0,0,0,2,.94L493.08,530a1.6,1.6,0,0,0,.94-2l-7.87-21.38A1.6,1.6,0,0,0,484.65,505.53Z"/><polyline class="cls-3" points="483.64 505.65 464.45 525.86 436.73 522.93"/><polygon points="464.54 526.11 464.42 526.1 436.31 523.03 436.36 522.56 464.36 525.62 484.13 504.92 484.47 505.24 464.54 526.11"/><rect class="cls-2" x="466.07" y="523.97" width="72.46" height="35.34" rx="2.65" transform="translate(259.66 -156.07) rotate(23.67)"/><path d="M527,572a2.91,2.91,0,0,1-1.22-.26h0l-61.5-27a3.06,3.06,0,0,1-1.63-1.7,3,3,0,0,1,0-2.34l12.06-27.52a3.07,3.07,0,0,1,4-1.58l61.51,27a3.06,3.06,0,0,1,1.57,4l-12,27.51A3.09,3.09,0,0,1,527,572Zm-.89-1a2.23,2.23,0,0,0,2.94-1.15l12.06-27.52a2.23,2.23,0,0,0-1.15-2.94l-61.51-27a2.24,2.24,0,0,0-2.94,1.15L463.47,541a2.24,2.24,0,0,0,1.15,2.94l61.51,27Z"/><polyline class="cls-3" points="539.46 539.04 502.75 540.71 479.09 512.58"/><polygon points="502.61 541.02 502.51 540.91 478.59 512.29 479.06 511.89 502.88 540.39 540.6 538.79 540.63 539.41 502.61 541.02"/><rect class="cls-2" x="372.33" y="534.92" width="58.61" height="28.59" rx="2.14" transform="translate(180.25 -94.16) rotate(17.19)"/><path d="M424,571.41a2.43,2.43,0,0,1-.75-.11l-51.9-16.06a2.55,2.55,0,0,1-1.69-3.2l7.18-23.22a2.52,2.52,0,0,1,1.25-1.5,2.55,2.55,0,0,1,1.95-.19l51.9,16.06a2.56,2.56,0,0,1,1.69,3.2l-7.18,23.22A2.56,2.56,0,0,1,424,571.41Zm-44.72-43.56a1.74,1.74,0,0,0-1.65,1.22l-7.18,23.22a1.73,1.73,0,0,0,1.14,2.16l51.9,16a1.73,1.73,0,0,0,2.16-1.14l7.19-23.21a1.75,1.75,0,0,0-1.15-2.17l-51.89-16.05A1.82,1.82,0,0,0,379.27,527.85Z"/><polyline class="cls-3" points="431.26 543.73 401.9 548.42 380.32 527.97"/><polygon points="401.82 548.69 401.73 548.6 379.89 527.78 380.24 527.42 401.99 548.15 432.16 543.43 432.24 543.92 401.82 548.69"/><path class="cls-7" d="M453.21,626.49c71.33,0,129.24,5.35,129.24,11.94s-57.91,11.94-129.24,11.94S324,645,324,638.43,381.89,626.49,453.21,626.49Z"/><path class="cls-8" d="M361.85,584.22l-.09.15a2.39,2.39,0,0,1-.38.46c-3.89,4.08-7.69,8.24-11.2,12.65-3.22,4-6.8,8.52-8.43,13.51-5.63,17.27,16.36,26.69,29.34,27.92,47.43,4.48,96.72,1.1,138.05,1.36,13.86.09,40.47,3.7,47.25-10.33,10.76-22.28-13.67-41-11.87-50.59,1.26-6.75,25.08-18.17,21.7-26.68-10-25.33-78.51-11.91-82.16,8.32s-28.61-16.83-49.15-16.15c-9.32.3-14.55,11.56-23.47,13.46-8.75,1.86-21.31-12.37-29.6-14.4-12.8-3.12-36.8.65-41.75,18-.63,2.22,2.84,3.82,4.32,4.61,3.39,1.82,6.93,3.33,10.16,5.44a19.72,19.72,0,0,1,5.42,4.87C361.17,578.46,363,582.17,361.85,584.22Z"/><path d="M428.85,642.09c-19.18,0-38.55-.53-57.84-2.36-10-.94-22.86-6.18-28.24-14.37A16.31,16.31,0,0,1,341,610.73c1.66-5.09,5.29-9.65,8.49-13.67l.08-.1c3.07-3.85,6.54-7.77,11.24-12.7a2.74,2.74,0,0,0,.29-.33l.06-.11c.79-1.5-.54-4.74-1.8-6.51a18.75,18.75,0,0,0-5.2-4.66,63.74,63.74,0,0,0-6.58-3.6c-1.16-.58-2.36-1.18-3.53-1.8l-.38-.21c-1.79-.93-5.11-2.67-4.34-5.37,5.15-18,30.18-21.64,42.75-18.58,3.52.87,7.63,3.73,12,6.77,6.11,4.25,12.42,8.66,17.25,7.62,3.93-.83,7.24-3.7,10.44-6.47,3.88-3.36,7.89-6.83,13.18-7h.59c9.39,0,19.32,7.25,28.09,13.65,6.87,5,13.35,9.75,16.75,8.38,1.44-.57,2.4-2.27,2.92-5.17,2.08-11.53,23.74-20.46,43.47-22.43,20.94-2.09,36,3.12,40.29,13.94,2.19,5.54-5.15,11.53-12.25,17.33-4.4,3.59-9,7.3-9.41,9.81-.59,3.13,2.11,7.7,5.24,13,5.76,9.75,13.66,23.11,6.56,37.81-6,12.39-26.18,11.6-40.93,11-2.56-.1-5-.19-7.07-.2-12.72-.08-26,.18-40.11.45C455.79,641.82,442.37,642.09,428.85,642.09Zm-56-98.33c-12.36,0-28.12,4.89-32,18.37-.4,1.39,2.15,2.72,3.51,3.44l.4.21c1.15.61,2.33,1.2,3.48,1.78a67.42,67.42,0,0,1,6.75,3.69,20.34,20.34,0,0,1,5.64,5.09c1,1.4,3.32,5.64,1.92,8.27h0a2.12,2.12,0,0,1-.11.21,4.5,4.5,0,0,1-.49.59c-4.67,4.89-8.11,8.78-11.15,12.59l-.08.1c-3.11,3.91-6.64,8.34-8.21,13.15a14.73,14.73,0,0,0,1.62,13.2c5.09,7.75,17.44,12.72,27,13.63C404,641.17,437,640.52,469,639.9c14.1-.28,27.42-.54,40.15-.46,2.12,0,4.55.11,7.12.21,14.29.56,33.86,1.33,39.37-10.07,6.71-13.9-.61-26.29-6.5-36.25-3.43-5.81-6.14-10.39-5.44-14.13.58-3.11,4.94-6.67,10-10.8,6.32-5.16,13.5-11,11.75-15.42-4.71-11.88-23-14.46-38.57-12.9-19.12,1.91-40.06,10.31-42,21.06-.63,3.52-1.92,5.62-3.94,6.43-4.25,1.7-10.47-2.84-18.35-8.58-8.57-6.26-18.26-13.33-27.11-13.33h-.54c-4.7.15-8.31,3.28-12.14,6.6-3.36,2.91-6.83,5.92-11.18,6.84-5.55,1.18-12.16-3.43-18.55-7.89-4.22-2.94-8.21-5.72-11.43-6.51A37.77,37.77,0,0,0,372.86,543.76Z"/><path class="cls-9" d="M355.72,571.61a89.3,89.3,0,0,1,10.09.37c11.14,1.3,52.16,8.29,51.6,24.56-.19,5.39-25.15,1-28.3.37-11.71-2.43-21.87-6.55-31.82-5.88.76,0,1.44-1.39,1.87-1.91.93-1.13,2-2.16,3-3.22a7.8,7.8,0,0,0,1.1-1.4,4.78,4.78,0,0,0,.36-3.12,12.15,12.15,0,0,0-2.09-4.75,16,16,0,0,0-2.68-2.77C358.23,573.35,356.52,571.61,355.72,571.61Z"/><path class="cls-9" d="M553.43,601.61a53,53,0,0,1-12.12,1.1c-7.09-.32-13.88-3.13-20.78-4.59-12.24-2.59-24.12,1-35.95,4.07-8.93,2.3-29.7,5.83-33-7.56-2.12-8.71,8.61-13.79,15.55-14.72,8.2-1.11,16.57,1.29,24.79.56,5.73-.51,8.18-5.64,13.29-6.91,7.27-1.81,16.82,1.8,24.27,2.08a74.79,74.79,0,0,0,15.8-1.09,9,9,0,0,0-2.46,4C541.87,583.77,548.77,591.78,553.43,601.61Z"/><polygon class="cls-10" points="236.39 514.33 253.52 657.1 245.91 659 219.26 518.14 236.39 514.33"/><path d="M245.35,659.88,218.43,517.59,237,513.46l17.31,144.18Zm-25.26-141.2,26.38,139.45,6.27-1.57-17-141.36Z"/><polygon class="cls-11" points="211.64 514.33 217.35 512.42 303.02 508.62 310.63 514.33 312.53 516.23 333.47 506.71 331.57 497.2 230.68 495.29 190.7 329.68 173.57 331.58 211.64 512.42 211.64 514.33"/><path d="M312.38,517.09l-2.22-2.22-7.37-5.53-85.31,3.79-6.55,2.19V512.5L172.71,331l18.54-2.06,40,165.69,100.92,1.9,2.12,10.64Zm-9.14-9.2,7.9,5.93,1.55,1.56,20-9.08L331,497.9,230.11,496l-40-165.54-15.73,1.74,37.93,180.15v1l5-1.63Z"/><polygon class="cls-10" points="326.09 510.07 325.86 655.2 312.53 657.1 303.02 508.62 326.09 510.07"/><path d="M311.87,657.92l-9.62-150.07,24.55,1.55-.23,146.42Zm-8.09-148.54,9.42,146.9,11.95-1.7.22-143.84Z"/><polygon class="cls-12" points="179.28 331.58 223.06 506.71 310.63 502.91 316.34 508.62 312.53 516.23 306.82 514.33 314.44 657.1 306.82 657.1 295.95 509.74 232.58 518.14 224.97 518.14 246.63 659 238.29 659 173.57 331.58 179.28 331.58"/><path d="M247.47,659.72h-9.76l-65-328.85h7.14l.13.54L223.61,506l87.3-3.8,6.3,6.3-4.31,8.63-5.31-1.77,7.6,142.47h-9L295.29,510.55l-62.71,8.3H225.8Zm-8.59-1.43h6.92L224.14,517.42h8.39l64.07-8.49.06.76,10.83,146.7h6.2l-7.64-143.07,6.12,2,3.3-6.6-5.12-5.13-87.84,3.82-.14-.56-43.65-174.6h-4.28Z"/><polygon class="cls-13" points="181.18 348.71 194.51 415.34 188.8 579.05 169.76 580.96 125.98 367.75 181.18 346.5 181.18 348.71"/><path d="M169,582,124.88,367.15l57.26-22v3.51l13.32,66.64v.11l-5.74,164.55ZM127.07,368.35l43.45,211.57,17.36-1.73,5.67-162.77-13.32-66.61v-.93Z"/><rect class="cls-14" x="154.53" y="573.34" width="114.22" height="13.33" rx="6.66" transform="translate(423.28 1160.01) rotate(-180)"/><path d="M262.09,587.62H161.2a7.62,7.62,0,1,1,0-15.23H262.09a7.62,7.62,0,0,1,0,15.23ZM161.2,574.29a5.71,5.71,0,1,0,0,11.42H262.09a5.71,5.71,0,0,0,0-11.42Z"/><rect class="cls-12" x="154.53" y="582.86" width="114.22" height="3.81" rx="1.9" transform="translate(423.28 1169.53) rotate(-180)"/><path d="M266.85,587.38H156.44a2.62,2.62,0,1,1,0-5.23H266.85a2.62,2.62,0,0,1,0,5.23Zm-110.41-3.81a1.19,1.19,0,1,0,0,2.38H266.85a1.19,1.19,0,1,0,0-2.38Z"/><polygon class="cls-10" points="164.05 520.04 183.09 674.23 175.47 679.94 146.92 523.85 164.05 520.04"/><path d="M175,681.21,146.09,523.3l18.57-4.13,19.19,155.39ZM147.74,524.39,176,678.68l6.36-4.77-18.89-153Z"/><path class="cls-15" d="M179.28,521.94s9.52,43.79,22.84,45.69,68.53-1.9,68.53-1.9,22.85,51.39,30.46,55.2,40-15.23,40-15.23l-24.75-70.43s-1.73-22.95-41.88-19C236.4,519.94,179.29,516.75,179.28,521.94Z"/><path d="M303.71,622.36a6.78,6.78,0,0,1-3-.58c-7.46-3.73-27.27-47.53-30.63-55.06-6.6.45-55.43,3.66-68.07,1.85-13.82-2-23.25-44.61-23.64-46.42l0-.21c0-3.56,10.16-4,41.59-4.47,17.73-.27,37.83-.57,54.45-2.18,16-1.57,28,.87,35.56,7.23,6.32,5.32,7.24,11.53,7.35,12.54l25,71.07-.68.39C338.56,608.3,314.31,622.36,303.71,622.36Zm-32.46-57.63.27.61c6.32,14.21,24,51.74,30,54.74,5.72,2.86,29-9.36,38.39-14.8L315.4,535.46v-.12c0-.06-.57-6.24-6.74-11.4-7.17-6-18.64-8.27-34.1-6.76-16.69,1.63-36.83,1.93-54.6,2.19s-37.89.56-39.69,2.61c2.68,12.17,11.67,43.23,22,44.71,13.07,1.86,67.78-1.88,68.33-1.91Z"/><path d="M278.27,594.28l37.5,61.36a15,15,0,0,0,12.78,7.17h39.81a24.2,24.2,0,0,0,24.13-24.13h0a14,14,0,0,0-13.94-13.94H343.6l-8.22-55.21Z"/><path d="M368.36,663.76H328.55A16,16,0,0,1,315,656.14l-38.07-62.3,59.25-25.67,8.28,55.62h34.13a14.91,14.91,0,0,1,14.89,14.89A25.11,25.11,0,0,1,368.36,663.76Zm-88.71-69,36.93,60.43a14.12,14.12,0,0,0,12,6.71h39.81a23.2,23.2,0,0,0,23.17-23.18,13,13,0,0,0-13-13H342.78l-8.16-54.79Z"/><path class="cls-15" d="M198.32,362c-.77-.47-8.57,7.64-9.17,8.24a139.87,139.87,0,0,0-18.79,22.89,101.61,101.61,0,0,0-14.15,32c-3.85,16.36-1.86,33.91-.89,50.51.77,13.2,1.78,26.7,5.1,39.54.53,2.06,3.78,14.91,7.44,14.35,18.22-2.81,36.48-5.42,54.73-8,9.16-1.32,18.58-2.15,27.65-4,6.14-1.26,11.77-6,17.71-8.21,2.4-.9,5.73-1.75,8.42-.67,27.82,11.21,35.46-85.23,5.71-95.18Z"/><path d="M167.49,530.55c-1.43,0-4.43-1.31-8-15l0-.12c-3.35-12.94-4.37-26.72-5.13-39.72-.14-2.37-.3-4.76-.46-7.16-1-14.48-2-29.46,1.38-43.63a102.27,102.27,0,0,1,14.27-32.29,141,141,0,0,1,18.92-23l.42-.43c8.58-8.76,9.11-8.43,9.91-7.94l83.67,51.34c8.68,3,15,13.31,17.94,29.14,4.21,23.05.27,55.78-12.11,65.89a11.64,11.64,0,0,1-12.3,1.9c-1.9-.76-4.5-.53-7.72.68a55.29,55.29,0,0,0-7.14,3.57c-3.43,1.92-7,3.91-10.72,4.68-6.15,1.26-12.54,2.06-18.71,2.84-3,.37-6,.76-9,1.18l-3.14.46c-16.91,2.43-34.4,5-51.58,7.59A3.12,3.12,0,0,1,167.49,530.55Zm30.68-167.48c-.64.4-2.5,1.91-7.91,7.43-.22.23-.37.39-.44.45a139,139,0,0,0-18.66,22.74,100.42,100.42,0,0,0-14,31.69c-3.27,13.89-2.28,28.72-1.33,43.06.16,2.41.32,4.8.46,7.17C157,488.52,158,502.2,161.34,515l0,.12c2.85,11,5.31,13.67,6.34,13.52,17.19-2.65,34.68-5.16,51.6-7.6l3.14-.45c3-.43,6.06-.82,9-1.19,6.14-.77,12.49-1.57,18.57-2.82,3.46-.71,6.87-2.62,10.16-4.47a58,58,0,0,1,7.4-3.69c3.69-1.39,6.75-1.61,9.11-.67a9.68,9.68,0,0,0,10.38-1.61c10.55-8.6,16-39.14,11.45-64.07-2.77-15.18-8.73-25-16.78-27.71l-.19-.09S204.07,366.68,198.17,363.07Z"/><path class="cls-16" d="M297.31,303s9.32,36.17,1.86,45.68-52.22,7.62-56,7.62-36.43-13.33-37.8-14.28,2.36-16.18,9.82-21.89,24.25-17.13,37.3-19,41-3.8,41-3.8Z"/><path d="M254.5,357.42c-3,0-6.19,0-9.51-.11l-1.77,0c-4.08,0-37-13.52-38.34-14.45a2.11,2.11,0,0,1-.69-1.76c-.09-4.1,3.76-16.53,10.47-21.67,3.7-2.83,22.89-17,37.75-19.22,12.94-1.89,40.82-3.79,41.1-3.81l.56,0,4.12,6.31,0,.15c.38,1.49,9.35,36.73,1.69,46.51C295.69,354.7,280.42,357.42,254.5,357.42Zm-48.39-16.07c2.74,1.42,33.67,14,37.11,14l1.81,0c40.77.91,51-4.17,53.39-7.28,6.86-8.75-1.36-42.18-2-44.72l-3.34-5.11c-4,.28-28.54,2-40.4,3.76-14.39,2.1-33.23,16.08-36.86,18.85C209.15,326,205.61,339.16,206.11,341.35Z"/><path class="cls-17" d="M301.11,344.91s15.23,9.51,15.23,15.22l-3.81-1.9s3.81,5.71,5.72,9.52c0,0-5.72-1.9-7.62-1.9,0,0,11.42,11.42,13.33,17.13a14.57,14.57,0,0,0-9.52-3.81S324,394.4,324,400.11c0,0-5.71-5.71-9.52-7.61,0,0,5.71,3.8,3.81,15.23,0,0,0-3.81-5.72-5.72,0,0,5.72,11.43,0,22.85,0,0-1.9-7.62-5.71-11.42,0,0,1.8,3.59-1.6,16-.09.35-.19.72-.3,1.09-3.81,13.32-1.9-5.71-3.81-9.52-1.5-3-7.7,14.07-7.7,14.07s-17.25-8.76-19-12.17c-1.9-3.8,7.62,24.75,7.62,24.75L268.75,442v7.62s-19-7.62-24.75-13.33a18.88,18.88,0,0,0,1.91,7.61c1.9,3.81-7.62-1.9-11.42-7.61s-9.52-3.81-7.62,0S219.26,423,219.26,423l-1.91,7.62s-5.71-11.42-3.8-15.23l-3.81,5.71-3.81-15.23-1.9,5.71s-3.81-15.23-3.81-19-3.81,3.8-3.81,3.8,0-20.94,1.91-20.94-3.81,1.91-3.81,1.91,5.71-32.36,11.42-36.17,19,5.71,22.84,7.61,13.33,0,19,1.91,17.13,1.9,19,1.9S301.11,344.91,301.11,344.91Z"/><path d="M269.46,450.66l-1-.39c-.73-.29-16.77-6.74-23.62-12.27a18.12,18.12,0,0,0,1.68,5.58c.66,1.33.15,1.88-.22,2.09-2,1.17-9.55-4.66-12.44-9-2.15-3.24-4.81-3.71-6-3-.75.43-.88,1.27-.37,2.29.29.57.58,1.17-.06,1.5-.31.17-.49.26-1-.42h0a.13.13,0,0,0,0-.07c-.6-.84-1.66-2.73-3.89-6.7l-3-5.39-1.93,7.73-.87-1.72c-.47-1-3.85-7.86-4.23-12.67l-3,4.57-3.61-14.42-1.9,5.71-.59-2.37c-.16-.63-3.81-15.25-3.83-19.17a26.63,26.63,0,0,0-2.46,4.08l-1.35,2.71v-3c0-11,.49-16.4,1.07-19.07-.56.21-1.23.45-2,.71l-1.13.38.21-1.18c.23-1.33,5.83-32.7,11.73-36.64,5-3.36,14.83,2.45,20.67,5.93,1.19.7,2.21,1.31,2.88,1.64,1.76.88,5,.88,8.49.88,3.68,0,7.49,0,10.46,1,5.05,1.68,14.84,1.87,18.81,1.87,1.33,0,21.12-4.55,34.1-7.6l.29-.07.25.16c1.59,1,15.57,9.9,15.57,15.84v1.15l-2.5-1.25c1.29,2,3.15,5,4.32,7.39l.77,1.54-1.63-.54c-1.08-.36-3.51-1.12-5.39-1.55,3.2,3.34,10.47,11.28,12,15.87l.95,2.85-2.13-2.12a14.13,14.13,0,0,0-7.69-3.52c2.24,3.71,8.91,15.18,8.91,20.15v1.72l-1.22-1.21a71.89,71.89,0,0,0-5.73-5.09C319,398,319.93,402,319,407.84l-1.42-.11c0-.12-.09-2.65-3.66-4.4,1.37,3.61,3.89,12.66-.7,21.85l-.86,1.72-.47-1.87a33.94,33.94,0,0,0-3.86-9c.12,2.47-.18,6.74-2.07,13.65-.09.36-.2.73-.3,1.11-1.31,4.58-1.88,5.28-2.74,5.18-1.09-.13-1.21-1.64-1.42-6.41-.13-2.94-.3-6.58-.91-8-1.26,1-4.26,7.79-6.46,13.85l-.27.76-.72-.37c-1.51-.76-12.88-6.59-17.49-10.51,1.43,4.84,4.83,15.26,7.15,22.24l.51,1.5-13.8-5.91Zm-26.17-16.1,1.22,1.22c4.81,4.8,19.58,11.12,23.53,12.76v-7.63l12.86,5.51c-.74-2.23-2.19-6.62-3.6-11-4.24-13.12-4.15-13.16-3.35-13.49s1,.42,1.15.69c1.13,2.26,11.07,7.95,17.92,11.47,2-5.55,5.49-14,7.57-14.13a1.2,1.2,0,0,1,1.16.75c.8,1.6,1,5.24,1.12,8.75.07,1.39.15,3.13.28,4.23a34.24,34.24,0,0,0,1.08-3.34c.11-.37.21-.73.31-1.08,3.23-11.86,1.66-15.51,1.64-15.55l-1.66-3.61,2.81,2.8c2.75,2.75,4.52,7.32,5.34,9.87,4.16-10.38-.72-20.36-.77-20.47l-.78-1.54,1.64.55a9.72,9.72,0,0,1,5.11,3.45c.56-8.59-3.63-11.57-3.83-11.7l.72-1.23c2.69,1.35,6.24,4.47,8.21,6.32-1.53-6.41-9.05-18.5-9.14-18.63l-.68-1.09h1.29a14.74,14.74,0,0,1,7.6,2.19c-3.47-5.82-11.82-14.2-11.91-14.3l-1.22-1.22h1.72a29.9,29.9,0,0,1,6.17,1.41c-2-3.57-4.83-7.86-4.86-7.91l-1.49-2.24,4.92,2.46c-1.64-4.35-10.48-10.71-14.39-13.18-4.44,1.05-32.25,7.56-34.13,7.56-4,0-14-.18-19.26-1.94-5.55-1.84-15.06.1-19.13-1.94-.72-.36-1.72-1-3-1.69-5.2-3.09-14.87-8.83-19.16-6s-9.12,24.82-10.9,34.5c.7-.25,1.37-.5,1.88-.72.39-.82.77-.82,1-.82.81,0,1,.38,1.09.7s.11.66-1.1,1.24c-.66,2.23-1.08,9.52-1.17,16.87,1.79-3,2.55-2.8,2.91-2.72.88.21.88,1.37.88,1.76,0,2.77,2.14,12,3.2,16.46l1.9-5.69,4,16,2.91-4.37,1.23.72c-1.2,2.42,1.25,9,3,12.8L219,421l.88,1.58c1.91,3.44,4.5,8.08,6.17,11a2.7,2.7,0,0,1,1.12-1.18c2-1.14,5.4-.31,7.91,3.45,2.82,4.23,8.54,8.11,10.27,8.51,0-.06,0-.11-.08-.18a19.47,19.47,0,0,1-2-7.93Zm2.15,10.13Z"/><ellipse class="cls-18" cx="292.55" cy="323.97" rx="10.47" ry="13.33"/><path d="M292.55,338c-6.17,0-11.19-6.3-11.19-14s5-14,11.19-14,11.18,6.29,11.18,14S298.71,338,292.55,338Zm0-26.66c-5.38,0-9.76,5.66-9.76,12.62s4.38,12.61,9.76,12.61,9.75-5.66,9.75-12.61S297.93,311.35,292.55,311.35Z"/><path class="cls-19" d="M278.27,320.16a25.13,25.13,0,0,0,2.5,13.22,16.68,16.68,0,0,0,8.55,8c1.63.63,3.36.95,5,1.55,3.08,1.15,6.19,4.43,4.36,7.93a5.65,5.65,0,0,1-2.65,2.39,22.22,22.22,0,0,1-13.7,1.35,22.7,22.7,0,0,1-6.09-2.17c-1.8-.94-3.4-2.93-5.58-1.84l-3.8,1.9"/><path d="M287.27,356.09a25.7,25.7,0,0,1-5.14-.53,23.83,23.83,0,0,1-6.34-2.26,12.51,12.51,0,0,1-1.44-.91c-1.37-.94-2.2-1.46-3.27-.92l-3.81,1.9A.94.94,0,0,1,266,353a1,1,0,0,1,.42-1.28l3.81-1.9c2.13-1.07,3.83.11,5.2,1.06a12,12,0,0,0,1.24.79,21.85,21.85,0,0,0,5.84,2.08,21.46,21.46,0,0,0,13.1-1.27,4.86,4.86,0,0,0,2.22-2,3.45,3.45,0,0,0,.18-3,6.9,6.9,0,0,0-4-3.62c-.75-.28-1.51-.49-2.32-.72s-1.79-.5-2.68-.84a17.48,17.48,0,0,1-9.05-8.48,26.06,26.06,0,0,1-2.61-13.73,1,1,0,0,1,1-.88,1,1,0,0,1,.88,1,24.19,24.19,0,0,0,2.4,12.72,15.78,15.78,0,0,0,8.05,7.57c.8.31,1.62.54,2.5.79s1.65.46,2.47.76a8.86,8.86,0,0,1,5.15,4.72,5.36,5.36,0,0,1-.28,4.54,6.54,6.54,0,0,1-3.08,2.81A21.17,21.17,0,0,1,287.27,356.09Z"/><ellipse cx="279.22" cy="367.75" rx="2.86" ry="5.71" transform="matrix(0.99, -0.14, 0.14, 0.99, -49.89, 43.88)"/><circle cx="296.83" cy="326.35" r="2.38"/><ellipse class="cls-18" cx="256.38" cy="332.53" rx="14.28" ry="16.18"/><path d="M256.38,349.43c-8.27,0-15-7.58-15-16.9s6.72-16.89,15-16.89,15,7.58,15,16.89S264.64,349.43,256.38,349.43Zm0-32.36c-7.48,0-13.57,6.93-13.57,15.46S248.9,348,256.38,348s13.56-6.94,13.56-15.47S263.86,317.07,256.38,317.07Z"/><circle cx="261.14" cy="333.48" r="2.86"/><path d="M268.75,328.73a.9.9,0,0,1-.36-.08,1,1,0,0,1-.52-1.24c1.7-4.07,5.85-5.46,11.41-3.82,4.1,1.21,4,2,3.87,2.44a1,1,0,0,1-1.67.48c-.83-.47-5.2-2.39-8.55-1.42a4.94,4.94,0,0,0-3.3,3.05A1,1,0,0,1,268.75,328.73Z"/><rect x="218.47" y="339.46" width="24.23" height="1.9" transform="translate(-50.37 40.22) rotate(-8.99)"/><path d="M206.16,495.54c-7.9,0-15.66-2.69-23.81-14.87-1.15-1.17-13.56-14-15.43-27.12a.95.95,0,1,1,1.88-.27c1.84,12.86,14.83,26,15,26.11l.12.15c10.68,16,20.25,14.75,31.33,13.29,5-.65,10.15-1.33,15.63-.38a1,1,0,0,1,.78,1.1,1,1,0,0,1-1.1.78c-5.21-.91-10.22-.25-15.06.39A72.3,72.3,0,0,1,206.16,495.54Z"/><path d="M234.49,458.17l-.22,0-24.86-5.75-1.52-.55L202,436.21a1,1,0,0,1,1.79-.67l5.55,14.82.65.23,24.69,5.7a1,1,0,0,1-.21,1.88Z"/><path class="cls-20" d="M295.4,495.29s-3.07,17.78-7.61,20.94-119.93,13.33-119.93,13.33-13.82-16-6.91-22.44S295.4,495.29,295.4,495.29Z"/><path d="M167.46,530.55l-.32-.37c-.59-.68-14.33-16.77-6.84-23.76,7-6.5,122-11.53,135.06-12.08l1.18,0-.2,1.16c-.32,1.86-3.27,18.27-8,21.56s-108.55,12.45-120.39,13.5Zm126.79-34.26c-51.13,2.18-127.8,7-132.65,11.52s2.85,16.21,6.66,20.76c46.14-4.07,115.54-10.89,119-13.12C290.46,513.21,293.21,501.79,294.25,496.29Z"/><path class="cls-3" d="M365.67,420.48l9.81,11.42s13.84,11,18.63-6-28.92-64.74-28.92-64.74-29.89-43.86-56.42,14.13-1.39,52.95-47.46,79.17c0,0,42,47,59.44,40.57a7.19,7.19,0,0,0,.9-.39c16.8-8.53,33.93-19.21,32.89-41.52S365.67,420.48,365.67,420.48Z"/><path d="M259.81,454.19l.79.88c1.62,1.81,37.33,41.47,56.58,41.48a11,11,0,0,0,3.9-.66,8.14,8.14,0,0,0,1-.43c8.07-4.1,17.25-9.08,24-16.43a35.47,35.47,0,0,0,7.54-12.32c1.68-4.8,1.73-9.4,1.78-14.27,0-.9,0-1.8,0-2.72.15-6.72.8-14.48,4.49-21.14.24-.43.49-.92.75-1.46,1.49-3,2.88-5.43,5-5.13h.08l3.75,4.39,1.14,1.36c2.67,3.21,5.19,6.23,9.48,7.76a13.08,13.08,0,0,0,4.39.81,9.07,9.07,0,0,0,4.84-1.31c2.58-1.61,4.43-4.51,5.66-8.87,4.49-15.93-23-56.73-28.23-64.35-.1-1-1.4-2.76-5.9-6.94l-.38-.35c-5.18-5-10.52-8.13-15.86-9.34-13.91-3.16-26.29,6.84-36.75,29.71a212.81,212.81,0,0,0-10.4,26.95c-1.53,5-2.69,10.22-3.82,15.24-.31,1.38-.62,2.75-.94,4.12l-.12.54a39,39,0,0,1-3,9.42c-2.9,5.63-8.21,9.57-13,12.82-5.25,3.59-10.92,6.86-15.82,9.66Zm79.12-66.61a30.8,30.8,0,0,0,3.33.54,14.27,14.27,0,0,0,6.44-.6,16,16,0,0,0,4.5-2.56c4.52-3.58,7.47-8.86,9.53-13.07,1.16-2.36,2.26-4.93,3.35-7.79,6.68,9.87,31.13,47.29,27.11,61.52-1.09,3.88-2.67,6.41-4.83,7.76-2.56,1.6-5.54,1.06-7.58.33-3.8-1.36-6.16-4.19-8.66-7.19L371,425.15Zm-76.12,67.09c4.69-2.68,10-5.77,14.92-9.15S288.21,438,291.32,432a41.27,41.27,0,0,0,3.16-9.87l.13-.53.93-4.13c1.12-5,2.28-10.14,3.79-15.1a212.2,212.2,0,0,1,10.31-26.72c10-21.94,21.68-31.57,34.6-28.64,5,1.13,10,4.11,15,8.85l.4.38c.63.58,1.26,1.17,1.87,1.77.39.38.78.76,1.15,1.15s.67.71,1,1.06a2.31,2.31,0,0,1,.54.74,7.74,7.74,0,0,0,.48,1.07c.11.13.09.23,0,.38a1.8,1.8,0,0,0-.08.21c-.06.18-.13.35-.19.53l-.6,1.55c-.44,1.11-.9,2.22-1.38,3.31s-.91,2-1.41,3.05c-2,4-4.78,9.06-9,12.41a14,14,0,0,1-4,2.26,12.35,12.35,0,0,1-5.58.5,15.39,15.39,0,0,1-5.09-1.19,7.16,7.16,0,0,1-3.88-5.53,12.83,12.83,0,0,1,3.56-10.45c1.27-1.25,3.09-2.63,4.52-2.12,2,.71,2.94,4.77,3.12,6.28a1,1,0,0,0,1.89-.22c-.08-.68-.86-6.62-4.37-7.86-1.9-.67-4.08.19-6.49,2.56a14.87,14.87,0,0,0-4.12,12.1,9.12,9.12,0,0,0,3,5.68s29.62,34.74,29.62,34.74c-2.58.67-4.13,3.7-5.3,6.06-.25.5-.48,1-.71,1.38-3.88,7-4.56,15.07-4.72,22,0,.92,0,1.83,0,2.74-.05,4.7-.1,9.15-1.67,13.66a33.8,33.8,0,0,1-7.15,11.66c-6.54,7.12-15.17,11.82-23.46,16a7.17,7.17,0,0,1-.8.35C305.1,499.8,268.66,461,262.81,454.67Z"/><path class="cls-21" d="M249.71,497.2s41.88-1.91,43.79-17.14,1.9-28.55-7.62-26.65-12.87,3.81-17.13,3.81c-3.81,0,9.52-3.81,5.71-7.61s-13.32,0-15.23,1.9L249.71,461Z"/><path d="M248.76,498.19V460.63l9.8-9.79c2.23-2.24,12.28-6.2,16.57-1.91a2.88,2.88,0,0,1,.95,2.5c-.27,1.87-2.5,3.38-4.56,4.56,1.3-.24,2.7-.63,4.43-1.12,2.44-.68,5.47-1.54,9.75-2.39a6.8,6.8,0,0,1,6.3,1.45c3.59,3.34,4.32,11.19,2.44,26.25-2,15.84-42.94,17.89-44.68,18Zm1.91-36.77v34.77c6.29-.41,40.26-3.24,41.88-16.24,1.1-8.81,2.11-20.95-1.85-24.63a5,5,0,0,0-4.63-1c-4.2.84-7.2,1.68-9.6,2.35a27.76,27.76,0,0,1-7.72,1.47c-.38,0-1.39,0-1.61-.87s.55-1.36,2.27-2.31,4.6-2.52,4.78-3.83c0-.12.06-.42-.4-.88-3.37-3.37-12.29.31-13.88,1.9Zm17.79-5.17Z"/><path class="cls-22" d="M257.33,457.22a27.07,27.07,0,0,1-3.81,5.71c-1.9,1.9,1.91,5.71,1.91,5.71l-3.81,3.81s3.81,7.61,3.81,9.52-3.81,5.71-3.81,5.71l1.9,5.71,3.81,3.81c1.9,1.9,1.9,0,0,3.8s-9.52,3.81-11.42,3.81-1.91,1.9-5.71,1.9c-4.47,0-11.07-4.66-13.33-8.37a20.33,20.33,0,0,1-2.27-7c-1.68-8.75-2.07-16.61,2.13-24.7,1.57-3,3.36-5.92,4.65-9.07.93-2.26,1.89-6.09,5-6.09,1.9,0,17.13-1.9,17.13,0S257.33,457.22,257.33,457.22Z"/><path d="M240.2,507.67c-4.85,0-11.7-4.83-14.14-8.83a21.43,21.43,0,0,1-2.4-7.3c-1.53-8-2.31-16.57,2.23-25.31.49-1,1-1.88,1.51-2.81a61.48,61.48,0,0,0,3.1-6.18c.13-.3.25-.62.38-1,.86-2.28,2.16-5.72,5.51-5.72.39,0,1.59-.11,3-.23,8.75-.77,13.42-.95,14.66.19a1.35,1.35,0,0,1,.45,1c0,.93,1.84,3.34,3.53,5l.49.48-.31.62a28.08,28.08,0,0,1-4,6c-.92.92.93,3.39,1.91,4.37l.67.67-4,4c1,2.1,3.61,7.53,3.61,9.33s-2.54,4.77-3.68,6l1.65,4.95,3.65,3.64a4.44,4.44,0,0,0,1,.77,1.28,1.28,0,0,1,.74,1.1,2,2,0,0,1-.43,1.06c-.24.39-.59,1-1.1,2-1.44,2.87-5.57,4.33-12.27,4.33a2,2,0,0,0-1.25.54A6.74,6.74,0,0,1,240.2,507.67Zm9.57-56.06c-3.2,0-8,.42-10.24.62-1.55.13-2.66.23-3.14.23-1.89,0-2.77,2-3.73,4.49-.14.36-.27.7-.4,1a64,64,0,0,1-3.19,6.36c-.5.92-1,1.84-1.49,2.77-4,7.78-3.74,15.25-2.05,24.09a19.61,19.61,0,0,0,2.15,6.66c2.13,3.49,8.45,7.91,12.52,7.91a4.92,4.92,0,0,0,3.37-1,3.77,3.77,0,0,1,2.34-.88c7.77,0,10-2.06,10.57-3.28.47-.94.83-1.55,1.07-1.94a8,8,0,0,1-.89-.77l-4-4-2.16-6.48L251,487c1.69-1.7,3.52-4.11,3.52-5,0-1.16-2.16-6-3.7-9.1l-.31-.61,3.65-3.65a13.45,13.45,0,0,1-1.17-1.62c-1.49-2.49-.87-3.95-.09-4.73a24,24,0,0,0,3.32-4.87c-1.1-1.16-3.3-3.69-3.57-5.53A10.32,10.32,0,0,0,249.77,451.61Z"/><path class="cls-15" d="M167.86,533.36s9.52,43.79,22.84,45.69,68.53-1.9,68.53-1.9,22.85,51.4,30.46,55.2,40-15.23,40-15.23l-24.75-70.43s-1.35-15-40-26.65C219.59,506.4,164.37,520.47,167.86,533.36Z"/><path d="M292.29,633.78a6.75,6.75,0,0,1-3-.58c-7.46-3.72-27.27-47.53-30.64-55.06-6.59.45-55.43,3.66-68.06,1.85-13.77-2-23.18-44.29-23.64-46.4-.42-1.58-.3-4,2.57-6.83,11.25-10.94,57.42-19.15,95.72-7.63,37.34,11.22,40.4,25.7,40.63,27.34l25,71.08-.67.4C327.13,619.72,302.88,633.78,292.29,633.78Zm-32.46-57.63.27.61c6.32,14.21,24,51.74,30,54.74,5.72,2.87,29-9.35,38.39-14.8L304,546.89v-.11c0-.14-2-14.61-39.3-25.83-37.69-11.33-82.91-3.46-93.85,7.17-1.78,1.74-2.47,3.42-2,5v0c2.61,12,11.65,43.47,22.05,45,13.07,1.87,67.78-1.87,68.33-1.91Z"/><path class="cls-21" d="M266.85,605.7l37.5,61.36a15,15,0,0,0,12.78,7.17h39.8a24.2,24.2,0,0,0,24.13-24.13h0a14,14,0,0,0-13.94-13.94H332.18L324,581Z"/><path d="M356.93,675.18h-39.8a16.05,16.05,0,0,1-13.6-7.62l-38.07-62.3,59.25-25.67L333,635.21h34.12A14.91,14.91,0,0,1,382,650.1,25.12,25.12,0,0,1,356.93,675.18Zm-88.7-69,36.93,60.43a14.12,14.12,0,0,0,12,6.71h39.8a23.21,23.21,0,0,0,23.18-23.18,13,13,0,0,0-13-13H331.36l-8.16-54.79Z"/><path class="cls-11" d="M139.3,520l5.72-1.9,85.66-3.81,7.61,5.71,1.91,1.9,20.94-9.51-1.91-9.52L158.34,501,126,367.75C124.57,369.9,180.74,341,204,343V327.77l-15.23,1.91s-59,11.42-64.72,19l-5.72-13.32-17.13,1.9L139.3,518.14Z"/><path d="M240,522.8l-2.22-2.22-7.37-5.53-85.3,3.79L138.59,521v-2.82L100.37,336.67l18.44-2.05,5.5,12.83c9-7.68,62-18,64.35-18.47l16.08-2v16.82l-.77-.07c-17-1.49-51.89,13.78-68.65,21.12-4.92,2.16-7.26,3.18-8.45,3.57l32,131.9,100.92,1.9L262,512.84Zm-9.14-9.2,7.9,5.94,1.55,1.55,20-9.08-1.67-8.4-100.87-1.9L125.36,368.22a.77.77,0,0,1,0-.86l.9-1.38.25,1c1.3-.45,4.55-1.88,8.22-3.48,16.61-7.28,50.93-22.32,68.56-21.29V328.58l-14.42,1.81c-20.27,3.92-59.86,12.9-64.24,18.75l-.74,1-6-14-15.83,1.75L140,518.06v1l5-1.63Z"/><polygon class="cls-10" points="253.75 515.78 253.52 678.04 242.1 683.75 230.68 514.33 253.75 515.78"/><path d="M241.46,684.87l-11.55-171.3,24.55,1.54v.67l-.22,162.7Zm-10-169.78,11.29,167.54,10.07-5L253,516.45Z"/><polygon class="cls-12" points="106.94 337.29 150.73 512.42 238.29 508.62 244 514.33 240.2 521.94 234.49 520.04 242.1 683.75 236.39 683.75 223.61 515.45 160.24 523.85 152.63 523.85 175.47 679.94 164.05 681.85 101.23 337.29 106.94 337.29"/><path d="M242.85,684.47h-7.12L223,516.26l-62.71,8.3h-6.78l22.82,156-12.81,2.14L100.38,336.58h7.12l.14.54,43.64,174.57,87.3-3.8,6.29,6.3-4.31,8.63-5.31-1.77Zm-5.8-1.43h4.3l-7.63-164,6.11,2,3.31-6.6L238,509.34l-87.84,3.82-.14-.56L106.39,338h-4.3l62.54,343,10-1.67L151.8,523.13h8.4l64.06-8.49.06.76Z"/><path class="cls-17" d="M288.74,281.13S185.94,304,184,342.05L199.27,363s47.59-60.92,100.89-60.92C300.16,302.07,305.87,286.85,288.74,281.13Z"/><path d="M199.25,364.18l-15.94-21.91,0-.26c.8-16.09,18.8-31.35,53.51-45.36a375,375,0,0,1,51.74-16.21l.2-.05.18.07c5.56,1.85,9.37,4.88,11.34,9,3,6.21.63,12.6.53,12.87l-.17.46h-.5c-52.34,0-99.86,60-100.33,60.64Zm-14.48-22.34,14.53,20a223.84,223.84,0,0,1,30-29.84c16.92-13.88,42.82-30.41,70.37-30.62.45-1.52,1.64-6.55-.64-11.3-1.77-3.71-5.24-6.46-10.3-8.19C283.71,283,187,305.66,184.77,341.84Z"/><path class="cls-15" d="M285.88,280.18S257.33,251.63,219.26,265c0,0-24.75,11.43-32.37,34.27s-38.07-5.71-40-7.62c-10.24,5.67,19.61,51,38.07,43.79,3.55-1.38,86.8-51.4,99-51.4C287.79,284,285.88,280.18,285.88,280.18Z"/><path d="M180.83,336.86c-12.23,0-27.25-16.46-33.79-30.42-3.71-7.93-3.88-13.57-.47-15.46l.47-.26.38.38c.19.19,19.4,18.73,31.25,15.94,3.51-.83,6-3.54,7.55-8.05,7.62-22.87,32.49-34.57,32.74-34.68,38.12-13.35,67.14,15.08,67.43,15.37l.13.18c.11.23,1.06,2.22.19,3.64a3,3,0,0,1-2.73,1.2c-9.13,0-60.29,29.42-84.87,43.55-8.76,5-13,7.47-13.86,7.8A12.15,12.15,0,0,1,180.83,336.86Zm-34-44.34c-2.16,1.76-1.62,6.66,1.49,13.32,6.95,14.84,24.59,33.47,36.4,28.88.79-.3,6.47-3.57,13.67-7.71C225,311.73,274.47,283.28,284,283.28c.78,0,1.29-.18,1.51-.53.36-.58,0-1.68-.2-2.15-1.76-1.69-29.63-27.63-65.8-15-.18.08-24.49,11.54-31.92,33.81-1.67,5-4.55,8-8.57,9a12.19,12.19,0,0,1-2.91.33C164.55,308.75,149.54,295.07,146.84,292.52Z"/><rect class="cls-21" x="268.75" y="497.2" width="20.94" height="17.13" rx="8.57" transform="translate(558.44 1011.52) rotate(180)"/><path d="M281.12,515.28h-3.8a9.52,9.52,0,1,1,0-19h3.8a9.52,9.52,0,0,1,0,19Zm-3.8-17.13a7.62,7.62,0,1,0,0,15.23h3.8a7.62,7.62,0,1,0,0-15.23Z"/><circle class="cls-17" cx="144.06" cy="284.94" r="13.33"/><path d="M144.06,299a14,14,0,1,1,14-14A14.06,14.06,0,0,1,144.06,299Zm0-26.65a12.61,12.61,0,1,0,12.61,12.61A12.63,12.63,0,0,0,144.06,272.33Z"/></g></svg>