<svg id="Réteg_1" data-name="Réteg 1" xmlns="http://www.w3.org/2000/svg" xmlns:xlink="http://www.w3.org/1999/xlink" viewBox="0 0 1920 1080"><defs><style>.cls-1{fill:#333;}.cls-2{fill:#fff;}.cls-2,.cls-3{isolation:isolate;}.cls-3{fill:#ff9800;opacity:0.77;}</style></defs><title>ultimate_bg</title><rect class="cls-1" x="1" y="3" width="1920" height="1080"/><path class="cls-2" d="M1317.21-184.65C1128.21-168.34,954.39-37.23,889.45,138c-41.91,113.1-42.27,242-108.52,343.28C732,556.05,653.25,605.93,577.38,654.3S423.51,754.3,377.68,831s-49,185.5,17.17,246c71.3,65.22,183.18,48.7,279.33,33.51a2519.42,2519.42,0,0,1,883.62,17.76c82.29,16.42,164.49,37.06,248.45,38.23s171.87-19.49,233.43-75.62c53.73-49,82-120.24,91.94-191.61s3.07-143.86-3.78-215.58c-12.49-130.89-25.12-262.51-59.82-389.47S1975.1,43.94,1882.1-50.51a584.44,584.44,0,0,0-184.16-126.26C1560.61-236.08,1317.21-184.65,1317.21-184.65Z"/><path class="cls-3" d="M1360.84-212.92C1167.43-196.11,989.55-61,923.1,119.59,880.21,236.14,879.84,369,812.1,473.34c-50.05,77-130.66,128.42-208.3,178.22s-157.52,103.1-204.42,182.1S349.22,1024.81,417,1087.2c73,67.21,187.45,50.18,285.85,34.53A2560.48,2560.48,0,0,1,1607,1140c84.21,16.92,168.33,38.18,254.24,39.39s175.89-20.09,238.88-77.93c55-50.49,84-123.9,94.09-197.45s3.14-148.25-3.87-222.16c-12.78-134.87-25.7-270.51-61.21-401.33S2034.1,22.66,1938.91-74.69A597.92,597.92,0,0,0,1750.45-204.8C1609.91-265.92,1360.84-212.92,1360.84-212.92Z"/><image width="550" height="550" transform="matrix(-1.57, 0, 0, 1.57, 662, 313.93)" xlink:href="C:\Users\Anami\Desktop\thumbnail_large.png"/></svg>