<svg id="Réteg_1" data-name="Réteg 1" xmlns="http://www.w3.org/2000/svg" xmlns:xlink="http://www.w3.org/1999/xlink" viewBox="0 0 934 1080"><defs><style>.cls-1{fill:#f9e8d8;}.cls-2{fill:#fff;}.cls-3{fill:#0071bc;}.cls-4{fill:#5a5e5e;}.cls-5{fill:#2b3e45;}.cls-6{fill:#42a1bb;}.cls-7{fill:#4267b2;}.cls-8{fill:#ccc;}.cls-9{fill:#2fbcfc;}.cls-10{opacity:0.45;}.cls-11{isolation:isolate;}.cls-12{fill:url(#Névtelen_színátmenet_3);}.cls-13{fill:url(#Névtelen_színátmenet_2);}</style><linearGradient id="Névtelen_színátmenet_3" x1="390.14" y1="1660.23" x2="410.83" y2="1627.69" gradientTransform="translate(0 -888)" gradientUnits="userSpaceOnUse"><stop offset="0" stop-color="#5b247a"/><stop offset="0.12" stop-color="#573081"/><stop offset="0.33" stop-color="#4b4e93"/><stop offset="0.62" stop-color="#3880b1"/><stop offset="0.96" stop-color="#1fc5d9"/><stop offset="1" stop-color="#1bcedf"/></linearGradient><linearGradient id="Névtelen_színátmenet_2" x1="405.36" y1="1643.51" x2="415.99" y2="1626.78" gradientTransform="translate(0 -888)" gradientUnits="userSpaceOnUse"><stop offset="0" stop-color="#17ead9"/><stop offset="0.16" stop-color="#1ededb"/><stop offset="0.46" stop-color="#32c0df"/><stop offset="0.84" stop-color="#528ee7"/><stop offset="1" stop-color="#6078ea"/></linearGradient></defs><title>web-db</title><path class="cls-1" d="M373.43,637.81h0a35.05,35.05,0,0,1-49.56,0l-56.4-56.41a35,35,0,0,1,0-49.55h0a35,35,0,0,1,49.55,0l56.41,56.41A35,35,0,0,1,373.43,637.81Z"/><path class="cls-2" d="M721.41,875.25l-207.34,47a102,102,0,0,1,18.78-59h27.5Z"/><path class="cls-1" d="M721.41,875.25V993.83H493.31V946.3l-48.7-20.49a88.12,88.12,0,0,1-26.18-17c-1.7-1.59-3.32-3.25-4.88-5-.65-.72-1.3-1.46-1.93-2.2,0,0,0,0-.05,0-.47-.56-.94-1.12-1.41-1.71a88.31,88.31,0,0,1-6.54-9.23c-.52-.83-1-1.68-1.5-2.53-.61-1.06-1.21-2.15-1.77-3.28-.41-.76-.81-1.56-1.19-2.35-.09-.18-.18-.38-.27-.58-.34-.74-.67-1.46-1-2.2-.89-2-1.72-4.08-2.44-6.18a19.1,19.1,0,0,1-.65-2,4.74,4.74,0,0,1-.31-.92c-.23-.69-.45-1.43-.63-2.15a.16.16,0,0,1-.05-.11c-.24-.83-.47-1.68-.67-2.51s-.43-1.75-.63-2.62H532.85a102,102,0,0,0-18.78,59Z"/><rect class="cls-3" x="336" y="317" width="282" height="32"/><rect class="cls-4" x="323.68" y="289.33" width="311.06" height="581.14" rx="19.67" ry="19.67"/><path class="cls-5" d="M615.06,873.83H343.35a23.05,23.05,0,0,1-23-23V309a23.06,23.06,0,0,1,23-23H615.06a23.07,23.07,0,0,1,23,23V850.8A23.06,23.06,0,0,1,615.06,873.83ZM343.35,292.7A16.33,16.33,0,0,0,327,309V850.8a16.33,16.33,0,0,0,16.31,16.31H615.06a16.32,16.32,0,0,0,16.31-16.31V309a16.32,16.32,0,0,0-16.31-16.31Z"/><rect class="cls-6" x="467.11" y="202.46" width="24.2" height="261.88" transform="translate(812.61 -145.8) rotate(90)"/><path class="cls-2" d="M610.15,822.2H348.27a3.36,3.36,0,0,1-3.36-3.36V321.3a3.35,3.35,0,0,1,3.36-3.36H610.15a3.36,3.36,0,0,1,3.36,3.36V818.84A3.37,3.37,0,0,1,610.15,822.2Zm-258.52-6.72H606.78V324.66H351.63Z"/><path class="cls-2" d="M610.15,822.2H348.27a3.36,3.36,0,0,1-3.36-3.36V321.3a3.35,3.35,0,0,1,3.36-3.36H610.15a3.36,3.36,0,0,1,3.36,3.36V818.84A3.37,3.37,0,0,1,610.15,822.2Z"/><path class="cls-2" d="M501.31,857.89H457.1a12.38,12.38,0,0,1,0-24.76h44.21a12.38,12.38,0,1,1,0,24.76Zm-44.21-18a5.66,5.66,0,0,0,0,11.31h44.21a5.66,5.66,0,1,0,0-11.31Z"/><path class="cls-5" d="M507.47,308.69H450.94a3.36,3.36,0,1,1,0-6.72h56.53a3.36,3.36,0,1,1,0,6.72Z"/><path class="cls-5" d="M531.64,308.69h-4.1a3.36,3.36,0,1,1,0-6.72h4.1a3.36,3.36,0,1,1,0,6.72Z"/><path class="cls-7" d="M365.9,333.4a5.53,5.53,0,1,1-5.53-5.53A5.54,5.54,0,0,1,365.9,333.4Z"/><path class="cls-7" d="M384.52,333.4a5.54,5.54,0,1,1-5.54-5.53A5.54,5.54,0,0,1,384.52,333.4Z"/><path class="cls-7" d="M403.13,333.4a5.54,5.54,0,1,1-5.53-5.53A5.54,5.54,0,0,1,403.13,333.4Z"/><rect class="cls-7" x="569.72" y="329.51" width="30.76" height="7.79"/><rect class="cls-7" x="547.33" y="329.51" width="10.54" height="7.79"/><rect class="cls-8" x="365" y="554" width="229" height="15"/><rect class="cls-8" x="402" y="590" width="169" height="15"/><rect class="cls-8" x="413" y="633" width="159" height="15"/><rect class="cls-8" x="390" y="676" width="202" height="15"/><path class="cls-1" d="M373.43,873.72h0a35,35,0,0,1-49.56,0L296.06,845.9a35,35,0,0,1,0-49.55h0a35,35,0,0,1,49.55,0l27.82,27.82A35,35,0,0,1,373.43,873.72Z"/><path class="cls-1" d="M373.43,795.08h0a35,35,0,0,1-49.56,0l-27.81-27.81a35,35,0,0,1,0-49.56h0a35,35,0,0,1,49.55,0l27.82,27.82A35,35,0,0,1,373.43,795.08Z"/><path class="cls-1" d="M373.43,716.45h0a35.05,35.05,0,0,1-49.56,0l-27.81-27.82a35,35,0,0,1,0-49.56h0a35,35,0,0,1,49.55,0l27.82,27.82A35.05,35.05,0,0,1,373.43,716.45Z"/><path class="cls-1" d="M721.41,875.25l-207.34,47a102.39,102.39,0,0,1,50-87.88l65.22-38.73V730.55l-38.06-38.08a92.11,92.11,0,0,1,0-130.26L698.52,669.52a74.8,74.8,0,0,1,21.92,52.4Z"/><rect class="cls-7" x="473.63" y="993.82" width="267.45" height="17.61"/><path class="cls-9" d="M741.08,1014.8H473.63a3.36,3.36,0,0,1-3.36-3.36V993.82a3.36,3.36,0,0,1,3.36-3.36H741.08a3.37,3.37,0,0,1,3.36,3.36v17.62A3.37,3.37,0,0,1,741.08,1014.8ZM477,1008.08H737.72V997.19H477Z"/><rect class="cls-7" x="463.8" y="1011.44" width="287.12" height="62.7"/><path class="cls-9" d="M750.91,1077.5H463.8a3.37,3.37,0,0,1-3.37-3.36v-62.7a3.36,3.36,0,0,1,3.37-3.36H750.91a3.35,3.35,0,0,1,3.36,3.36v62.7A3.36,3.36,0,0,1,750.91,1077.5Zm-283.75-6.72H747.55v-56H467.16Z"/><path class="cls-9" d="M843.64,1077.5H118a3.36,3.36,0,1,1,0-6.72H843.64a3.36,3.36,0,0,1,0,6.72Z"/><circle class="cls-7" cx="300.09" cy="949.85" r="52.78"/><path class="cls-9" d="M317.72,971.73H282.46a12.62,12.62,0,0,1-12.6-12.61V940.59A12.62,12.62,0,0,1,282.46,928h35.26a12.62,12.62,0,0,1,12.61,12.61v18.53A12.62,12.62,0,0,1,317.72,971.73Zm-35.26-39.27a8.13,8.13,0,0,0-8.12,8.13v18.53a8.13,8.13,0,0,0,8.12,8.12h35.26a8.13,8.13,0,0,0,8.13-8.12V940.59a8.14,8.14,0,0,0-8.13-8.13Z"/><path class="cls-9" d="M294.76,960.07a2.21,2.21,0,0,1-1.09-.28,2.24,2.24,0,0,1-1.15-2V940.17a2.23,2.23,0,0,1,3.42-1.9l14.17,8.83a2.23,2.23,0,0,1,0,3.8l-14.17,8.83A2.18,2.18,0,0,1,294.76,960.07ZM297,944.21v9.58l7.69-4.79Z"/><path class="cls-7" d="M689.19,529.42l4,4,4-4a10,10,0,0,1,14.22,0h0a10,10,0,0,1,0,14.22l-18.24,18.25L675,543.64a10.06,10.06,0,0,1,14.22-14.22Z"/><path class="cls-9" d="M417.84,1024.21H388.42a2.24,2.24,0,0,1-2.24-2.24v-11a17,17,0,0,1,8.32-14.57,10,10,0,0,1-1.5-5.25,10.13,10.13,0,0,1,20.26,0,10,10,0,0,1-1.5,5.25,17,17,0,0,1,8.32,14.57v11A2.24,2.24,0,0,1,417.84,1024.21Zm-27.18-4.48H415.6V1011a12.53,12.53,0,0,0-8.2-11.7,2.24,2.24,0,0,1-.67-3.82,5.65,5.65,0,1,0-7.2,0,2.24,2.24,0,0,1-.67,3.82,12.53,12.53,0,0,0-8.2,11.7Z"/><path class="cls-7" d="M239.17,659.51A16.47,16.47,0,1,1,255.65,643,16.48,16.48,0,0,1,239.17,659.51Zm0-28.46a12,12,0,1,0,12,12A12,12,0,0,0,239.17,631.05Z"/><path class="cls-7" d="M239.17,659.51c-4.92,0-7.16-8.53-7.16-16.47,0-8.2,2.21-16.47,7.16-16.47s7.17,8.27,7.17,16.47S244.12,659.51,239.17,659.51Zm0-28.37c-.9.78-2.68,4.77-2.68,11.9s1.78,11.13,2.68,11.91c.91-.78,2.69-4.77,2.69-11.91S240.08,631.91,239.17,631.14Z"/><path class="cls-7" d="M253.4,645.28H224.94a2.24,2.24,0,0,1,0-4.48H253.4a2.24,2.24,0,1,1,0,4.48Z"/><path class="cls-9" d="M744.62,130.76a21.27,21.27,0,1,1,15-6.23A21.13,21.13,0,0,1,744.62,130.76Zm0-38a16.78,16.78,0,1,0,11.86,4.91A16.68,16.68,0,0,0,744.62,92.72Z"/><path class="cls-9" d="M726.49,129.87a2.24,2.24,0,0,1-1.59-3.82l4.68-4.69a2.24,2.24,0,0,1,3.17,3.17l-4.68,4.69A2.26,2.26,0,0,1,726.49,129.87Z"/><path class="cls-9" d="M707.69,153.42a7,7,0,0,1-5-11.94l15.44-15.43a7.15,7.15,0,0,1,9.89,0,7,7,0,0,1,0,9.89l-15.43,15.43A7,7,0,0,1,707.69,153.42Zm15.43-24.94a2.5,2.5,0,0,0-1.78.74l-15.43,15.43a2.52,2.52,0,0,0,0,3.55,2.58,2.58,0,0,0,3.56,0l15.43-15.43a2.51,2.51,0,0,0,0-3.55A2.48,2.48,0,0,0,723.12,128.48Z"/><path class="cls-9" d="M754.44,121.56a2.21,2.21,0,0,1-1.58-.66,2.23,2.23,0,0,1,0-3.17,11.66,11.66,0,0,0,0-16.47A2.24,2.24,0,0,1,756,98.09a16.15,16.15,0,0,1,0,22.81A2.21,2.21,0,0,1,754.44,121.56Z"/><path class="cls-9" d="M882.88,880.56h-46a4.12,4.12,0,0,1-4.11-4.12V844.58a4.12,4.12,0,0,1,4.11-4.12h46a4.13,4.13,0,0,1,4.12,4.12v31.86A4.13,4.13,0,0,1,882.88,880.56Zm-46-36.15a.18.18,0,0,0-.17.17v31.86a.18.18,0,0,0,.17.18h46a.17.17,0,0,0,.17-.18V844.58a.17.17,0,0,0-.17-.17Z"/><path class="cls-9" d="M871.61,863.14H848.12a15.4,15.4,0,0,1-15.38-15.39v-3.17a4.12,4.12,0,0,1,4.11-4.12h46a4.13,4.13,0,0,1,4.12,4.12v3.17A15.4,15.4,0,0,1,871.61,863.14Zm-34.76-18.73a.18.18,0,0,0-.17.17v3.17a11.45,11.45,0,0,0,11.44,11.44h23.49a11.45,11.45,0,0,0,11.44-11.44v-3.17a.17.17,0,0,0-.17-.17Z"/><path class="cls-9" d="M864.8,867.56h-9.87a2,2,0,0,1-2-2V861.5a2,2,0,0,1,2-2h9.87a2,2,0,0,1,2,2v4.08A2,2,0,0,1,864.8,867.56Zm-7.89-3.95h5.92v-.14h-5.92Z"/><path class="cls-9" d="M867.76,844.41H852a2,2,0,0,1-2-2v-3a5.22,5.22,0,0,1,5.22-5.22h9.29a5.22,5.22,0,0,1,5.22,5.22v3A2,2,0,0,1,867.76,844.41ZM854,840.46h11.84v-1a1.28,1.28,0,0,0-1.28-1.28h-9.29a1.27,1.27,0,0,0-1.27,1.28Z"/><path class="cls-9" d="M42.08,1027.84a2.25,2.25,0,0,1-2-3.22l4-8.25a25.22,25.22,0,0,1-4.23-14,25.5,25.5,0,1,1,25.49,25.5A25.17,25.17,0,0,1,51,1023.37l-7.81,4.2A2.23,2.23,0,0,1,42.08,1027.84Zm9.05-9.36a2.23,2.23,0,0,1,1.37.47,20.79,20.79,0,0,0,12.83,4.4,21,21,0,1,0-21-21,20.8,20.8,0,0,0,4.14,12.48,2.23,2.23,0,0,1,.21,2.32l-1.55,3.2,3-1.59A2.2,2.2,0,0,1,51.13,1018.48Z"/><path class="cls-9" d="M75.45,997.91H55.21a2.24,2.24,0,1,1,0-4.48H75.45a2.24,2.24,0,0,1,0,4.48Z"/><path class="cls-9" d="M75.45,1005H55.21a2.24,2.24,0,1,1,0-4.48H75.45a2.24,2.24,0,0,1,0,4.48Z"/><path class="cls-9" d="M65.33,1012.14H55.21a2.24,2.24,0,1,1,0-4.48H65.33a2.24,2.24,0,0,1,0,4.48Z"/><path class="cls-9" d="M168.22,976.81a2.24,2.24,0,0,1-2.24-2.25V964.4a2.24,2.24,0,1,1,4.48,0v10.16A2.24,2.24,0,0,1,168.22,976.81Z"/><path class="cls-9" d="M168.22,976.81a2.24,2.24,0,0,1-2.24-2.25V964.4a2.24,2.24,0,1,1,4.48,0v10.16A2.24,2.24,0,0,1,168.22,976.81Z"/><path class="cls-9" d="M173.3,971.73H163.14a2.25,2.25,0,0,1,0-4.49H173.3a2.25,2.25,0,0,1,0,4.49Z"/><path class="cls-9" d="M439.76,974.56a2.24,2.24,0,0,1-2.25-2.24V962.16a2.25,2.25,0,0,1,4.49,0v10.16A2.24,2.24,0,0,1,439.76,974.56Z"/><path class="cls-9" d="M439.76,974.56a2.24,2.24,0,0,1-2.25-2.24V962.16a2.25,2.25,0,0,1,4.49,0v10.16A2.24,2.24,0,0,1,439.76,974.56Z"/><path class="cls-9" d="M444.84,969.48H434.68a2.24,2.24,0,0,1,0-4.48h10.16a2.24,2.24,0,0,1,0,4.48Z"/><path class="cls-9" d="M300.68,300a2.24,2.24,0,0,1-2.24-2.24V287.57a2.24,2.24,0,0,1,4.48,0v10.16A2.24,2.24,0,0,1,300.68,300Z"/><path class="cls-9" d="M300.68,300a2.24,2.24,0,0,1-2.24-2.24V287.57a2.24,2.24,0,0,1,4.48,0v10.16A2.24,2.24,0,0,1,300.68,300Z"/><path class="cls-9" d="M305.76,294.89H295.6a2.24,2.24,0,0,1,0-4.48h10.16a2.24,2.24,0,1,1,0,4.48Z"/><path class="cls-9" d="M701.25,412.69a2.25,2.25,0,0,1-2.25-2.25V400.29a2.25,2.25,0,1,1,4.49,0v10.15A2.25,2.25,0,0,1,701.25,412.69Z"/><path class="cls-9" d="M701.25,412.69a2.25,2.25,0,0,1-2.25-2.25V400.29a2.25,2.25,0,1,1,4.49,0v10.15A2.25,2.25,0,0,1,701.25,412.69Z"/><path class="cls-9" d="M706.33,407.61H696.17a2.25,2.25,0,0,1,0-4.49h10.16a2.25,2.25,0,0,1,0,4.49Z"/><path class="cls-9" d="M536.47,153.46a2.24,2.24,0,0,1-2.24-2.24V141.06a2.24,2.24,0,1,1,4.48,0v10.16A2.24,2.24,0,0,1,536.47,153.46Z"/><path class="cls-9" d="M536.47,153.46a2.24,2.24,0,0,1-2.24-2.24V141.06a2.24,2.24,0,1,1,4.48,0v10.16A2.24,2.24,0,0,1,536.47,153.46Z"/><path class="cls-9" d="M541.55,148.38H531.39a2.24,2.24,0,0,1,0-4.48h10.16a2.24,2.24,0,1,1,0,4.48Z"/><path class="cls-9" d="M831.13,587.43a2.24,2.24,0,0,1-2.24-2.24V575a2.24,2.24,0,0,1,4.48,0v10.16A2.24,2.24,0,0,1,831.13,587.43Z"/><path class="cls-9" d="M764.33,722.4a7.8,7.8,0,1,1,7.8-7.8A7.81,7.81,0,0,1,764.33,722.4Zm0-11.12a3.32,3.32,0,1,0,3.32,3.32A3.32,3.32,0,0,0,764.33,711.28Z"/><path class="cls-9" d="M253.55,771a2.24,2.24,0,0,1-2.24-2.24V758.64a2.24,2.24,0,1,1,4.48,0V768.8A2.24,2.24,0,0,1,253.55,771Z"/><path class="cls-9" d="M253.55,771a2.24,2.24,0,0,1-2.24-2.24V758.64a2.24,2.24,0,1,1,4.48,0V768.8A2.24,2.24,0,0,1,253.55,771Z"/><path class="cls-9" d="M258.63,766H248.47a2.24,2.24,0,0,1,0-4.48h10.16a2.24,2.24,0,0,1,0,4.48Z"/><path class="cls-9" d="M741.08,273.94a7.8,7.8,0,1,1,7.8-7.8A7.81,7.81,0,0,1,741.08,273.94Zm0-11.12a3.32,3.32,0,1,0,3.32,3.32A3.32,3.32,0,0,0,741.08,262.82Z"/><path class="cls-9" d="M271.09,103.94a8.23,8.23,0,0,1-1.9-.23A7.74,7.74,0,0,1,263.52,98,7.82,7.82,0,0,1,273,88.56a7.76,7.76,0,0,1,5.67,5.67,7.81,7.81,0,0,1-7.58,9.71Zm0-11.12A3.31,3.31,0,0,0,267.88,97a3.25,3.25,0,0,0,2.36,2.36,3.34,3.34,0,0,0,4.07-4.07A3.25,3.25,0,0,0,272,92.92,3.61,3.61,0,0,0,271.09,92.82Z"/><path class="cls-9" d="M552.47,944.41a8.25,8.25,0,0,1-1.91-.23,7.73,7.73,0,0,1-5.66-5.66,7.81,7.81,0,0,1,9.48-9.48A7.72,7.72,0,0,1,560,934.7a7.81,7.81,0,0,1-7.57,9.71Zm0-11.12a3.28,3.28,0,0,0-2.61,1.27,3.32,3.32,0,0,0-.61,2.9,3.26,3.26,0,0,0,2.36,2.36,3.33,3.33,0,0,0,4.07-4.07,3.25,3.25,0,0,0-2.35-2.36A3.67,3.67,0,0,0,552.47,933.29Z"/><path class="cls-9" d="M411.38,213.94a7.8,7.8,0,1,1,7.8-7.8A7.81,7.81,0,0,1,411.38,213.94Zm0-11.12a3.32,3.32,0,1,0,3.32,3.32A3.32,3.32,0,0,0,411.38,202.82Z"/><path class="cls-9" d="M387.36,931.78a7.8,7.8,0,1,1,7.8-7.8A7.81,7.81,0,0,1,387.36,931.78Zm0-11.12a3.32,3.32,0,1,0,3.32,3.32A3.32,3.32,0,0,0,387.36,920.66Z"/><rect class="cls-8" x="357" y="389" width="244" height="153"/><path class="cls-9" d="M463.09,493.07a5.57,5.57,0,0,1-5.57-5.57V443.57a5.58,5.58,0,0,1,8.52-4.73l35.23,22a5.57,5.57,0,0,1,0,9.46l-35.23,22A5.59,5.59,0,0,1,463.09,493.07Zm5.57-39.45v23.83l19.12-11.91Z"/><g id="play-logo-2"><g class="cls-10"><image class="cls-11" width="157" height="191" transform="translate(381.02 726) scale(0.32)" xlink:href="../../tudastar-app/app-logo/SVG/E8785315.png"/></g><path class="cls-12" d="M416.44,753.57,398,738.84a4.13,4.13,0,0,0-5.8.7,4.19,4.19,0,0,0-.9,2.52v29.47a4.16,4.16,0,0,0,4.18,4.11,4.05,4.05,0,0,0,2.52-.89L416.41,760a4.14,4.14,0,0,0,.64-5.83A2.52,2.52,0,0,0,416.44,753.57Z"/><g class="cls-10"><image class="cls-11" width="117" height="133" transform="translate(399.38 734.32) scale(0.32)" xlink:href="../../tudastar-app/app-logo/SVG/E8785317.png"/></g><path class="cls-13" d="M418.87,745.89l-9.47-7.56a2.11,2.11,0,0,0-3,.32A2.19,2.19,0,0,0,406,740v15.14a2.14,2.14,0,0,0,2.11,2.14,2.1,2.1,0,0,0,1.34-.48l9.47-7.59a2.1,2.1,0,0,0,.38-3A3,3,0,0,0,418.87,745.89Z"/><path d="M442.37,763.87V748.56h1.82v18.69h-1.91l-9.06-15.18v15.18H431.4V748.6h1.91Z"/><path d="M459.62,758.29v1.24H449c0,3.07,1.84,6.45,5.26,6.45a5.75,5.75,0,0,0,4.17-1.73l.83,1.34a6.93,6.93,0,0,1-5,1.95c-4.69,0-7-4.15-7-8.39,0-4,2-7.81,6.51-7.81C457.87,751.37,459.62,754.56,459.62,758.29Zm-10.52-.38h8.83c0-2.65-1.53-4.91-4.21-4.91A4.62,4.62,0,0,0,449.1,757.91Z"/><path d="M463.87,761.8v-8.52h-2.11v-1.59h2.11v-4.4h1.69l0,4.4h4.65v1.59h-4.65l0,8.23c0,1.69.26,4.43,2.52,4.43a4.52,4.52,0,0,0,1.79-.51l.6,1.38a4.05,4.05,0,0,1-2.39.79C465,767.57,463.87,764.51,463.87,761.8Z"/><path d="M481.79,748.6l6.35,18.68h-1.92L484.34,762h-7.43l-1.82,5.32h-1.94l6.34-18.68Zm-4.37,11.67h6.44l-3.25-9.44Z"/><path d="M496.36,751.4a7.25,7.25,0,0,1,5,2l-.89,1.4a5.88,5.88,0,0,0-4.05-1.66c-3.29,0-5.45,3.32-5.45,6.38s2.16,6.35,5.42,6.35a5.7,5.7,0,0,0,4.11-1.76l.86,1.5a7.53,7.53,0,0,1-5.1,2c-4.5,0-7.11-3.92-7.11-8.1S491.83,751.4,496.36,751.4Z"/><path d="M512.88,758.58c0-2.74-.67-5.55-4-5.55a6,6,0,0,0-4.08,1.72l-.64-1.4a7.31,7.31,0,0,1,4.82-2c9.12,0,3.25,14.8,7.62,14.74l-.67,1.5a3.11,3.11,0,0,1-2.55-2,6.86,6.86,0,0,1-4.81,2,5.08,5.08,0,0,1-5.3-5.43,5.3,5.3,0,0,1,5.42-5.23A5.53,5.53,0,0,1,512.88,758.58ZM505,762.15a3.65,3.65,0,0,0,3.73,3.79,5.72,5.72,0,0,0,4.25-2l-.1-3.73a6.19,6.19,0,0,0-4.15-1.66A3.77,3.77,0,0,0,505,762.15Z"/><path d="M525.22,751.37a6.5,6.5,0,0,1,4.31,1.66v-7.14h1.72v21.36h-1.72v-1.31a6.65,6.65,0,0,1-4.37,1.63c-4.46,0-6.79-4.46-6.79-8.42C518.37,754.94,520.66,751.37,525.22,751.37Zm.23,14.57a5.45,5.45,0,0,0,4-1.91v-9.18a6.1,6.1,0,0,0-4.08-1.79c-3.35,0-5.2,3-5.2,6.12s1.59,6.76,5.23,6.76Z"/><path d="M547,758.29v1.24H536.39c0,3.07,1.85,6.45,5.26,6.45a5.79,5.79,0,0,0,4.18-1.73l.82,1.34a6.93,6.93,0,0,1-5,1.95c-4.66,0-7-4.15-7-8.39,0-4,2-7.81,6.51-7.81C545.22,751.37,547,754.56,547,758.29Zm-10.56-.38h8.83c0-2.65-1.53-4.91-4.21-4.91A4.63,4.63,0,0,0,536.45,757.91Z"/><path d="M561.1,754.78a5.08,5.08,0,0,1,4.82-3.41c3.92,0,5.35,2.9,5.35,6.41v9.5h-1.69v-8.19c0-2.87-.31-6-3.82-6-4.37,0-4.24,5.58-4.24,8.58v5.61h-1.69v-8.16c0-2.87-.36-6-3.86-6-3.19,0-4.21,3.38-4.21,6v8.19H550V751.69h1.76v2.58a4.86,4.86,0,0,1,4.4-2.9A4.67,4.67,0,0,1,561.1,754.78Z"/><path d="M577.24,750a1.18,1.18,0,0,1-1.18-1.18,1.2,1.2,0,0,1,1.18-1.18,1.18,1.18,0,0,1,1.18,1.18A1.2,1.2,0,0,1,577.24,750Zm.86,17.28h-1.72V751.69h1.72Z"/><path d="M591.65,758.58c0-2.74-.67-5.55-4-5.55a6,6,0,0,0-4.08,1.72l-.64-1.4a7.31,7.31,0,0,1,4.82-2c9.12,0,3.25,14.8,7.62,14.74l-.67,1.5a3.11,3.11,0,0,1-2.55-2,6.85,6.85,0,0,1-4.81,2,5.08,5.08,0,0,1-5.3-5.43,5.3,5.3,0,0,1,5.42-5.23A5.53,5.53,0,0,1,591.65,758.58Zm-7.87,3.57a3.65,3.65,0,0,0,3.73,3.79,5.7,5.7,0,0,0,4.24-2l-.1-3.73a6.18,6.18,0,0,0-4.14-1.66A3.74,3.74,0,0,0,583.78,762.15Z"/></g></svg>