<svg id="Réteg_1" data-name="Réteg 1" xmlns="http://www.w3.org/2000/svg" viewBox="0 0 290 185"><defs><style>.cls-1{fill:#4eaf57;}.cls-2{fill:#fff;}.cls-3{fill:#1a4974;}.cls-4{fill:#5bbfca;}.cls-5{fill:#fdffff;}</style></defs><title>marketing</title><rect class="cls-1" x="-7" y="-9.75" width="302" height="204.49"/><rect class="cls-2" x="171.53" y="17.16" width="84.85" height="114.08"/><rect class="cls-3" x="175.77" y="26.12" width="41.48" height="2.36"/><rect class="cls-3" x="188.79" y="29.86" width="41.48" height="2.36"/><rect class="cls-3" x="198.6" y="33.6" width="41.48" height="2.36"/><rect class="cls-3" x="178.71" y="54.06" width="41.48" height="2.36"/><rect class="cls-3" x="175.73" y="43.8" width="41.48" height="2.36"/><rect class="cls-3" x="201.54" y="61.54" width="41.48" height="2.36"/><rect class="cls-3" x="180.67" y="75.63" width="41.48" height="2.36"/><rect class="cls-3" x="193.69" y="79.37" width="41.48" height="2.36"/><rect class="cls-3" x="203.5" y="83.1" width="41.48" height="2.36"/><path class="cls-3" d="M228.7,164.9a1.8,1.8,0,0,1-1.71,1.88H50.44a1.8,1.8,0,0,1-1.71-1.88V97.1a1.81,1.81,0,0,1,1.71-1.89H227a1.81,1.81,0,0,1,1.71,1.89Z"/><rect class="cls-4" x="54.35" y="101.43" width="9.82" height="9.82" rx="2.16" ry="2.16"/><rect class="cls-4" x="210.82" y="101.43" width="9.82" height="9.82" rx="2.16" ry="2.16"/><rect class="cls-4" x="150.64" y="101.43" width="9.82" height="9.82" rx="2.16" ry="2.16"/><rect class="cls-4" x="174.71" y="101.43" width="9.82" height="9.82" rx="2.16" ry="2.16"/><rect class="cls-4" x="198.79" y="101.43" width="9.82" height="9.82" rx="2.16" ry="2.16"/><rect class="cls-4" x="78.42" y="101.43" width="9.82" height="9.82" rx="2.16" ry="2.16"/><rect class="cls-4" x="66.38" y="101.43" width="9.82" height="9.82" rx="2.16" ry="2.16"/><rect class="cls-4" x="90.46" y="101.43" width="9.82" height="9.82" rx="2.16" ry="2.16"/><rect class="cls-4" x="126.57" y="101.43" width="9.82" height="9.82" rx="2.16" ry="2.16"/><rect class="cls-4" x="162.68" y="101.43" width="9.82" height="9.82" rx="2.16" ry="2.16"/><rect class="cls-4" x="186.75" y="101.43" width="9.82" height="9.82" rx="2.16" ry="2.16"/><rect class="cls-4" x="114.53" y="101.43" width="9.82" height="9.82" rx="2.16" ry="2.16"/><rect class="cls-4" x="102.49" y="101.43" width="9.82" height="9.82" rx="2.16" ry="2.16"/><rect class="cls-4" x="138.6" y="101.43" width="9.82" height="9.82" rx="2.16" ry="2.16"/><rect class="cls-4" x="54.35" y="114.83" width="9.82" height="9.82" rx="2.16" ry="2.16"/><rect class="cls-4" x="210.82" y="114.83" width="9.82" height="9.82" rx="2.16" ry="2.16"/><rect class="cls-4" x="150.64" y="114.83" width="9.82" height="9.82" rx="2.16" ry="2.16"/><rect class="cls-4" x="174.71" y="114.83" width="9.82" height="9.82" rx="2.16" ry="2.16"/><rect class="cls-4" x="198.79" y="114.83" width="9.82" height="9.82" rx="2.16" ry="2.16"/><rect class="cls-4" x="78.42" y="114.83" width="9.82" height="9.82" rx="2.16" ry="2.16"/><rect class="cls-4" x="66.38" y="114.83" width="9.82" height="9.82" rx="2.16" ry="2.16"/><rect class="cls-4" x="90.46" y="114.83" width="9.82" height="9.82" rx="2.16" ry="2.16"/><rect class="cls-4" x="126.57" y="114.83" width="9.82" height="9.82" rx="2.16" ry="2.16"/><rect class="cls-4" x="162.68" y="114.83" width="9.82" height="9.82" rx="2.16" ry="2.16"/><rect class="cls-4" x="186.75" y="114.83" width="9.82" height="9.82" rx="2.16" ry="2.16"/><rect class="cls-4" x="114.53" y="114.83" width="9.82" height="9.82" rx="2.16" ry="2.16"/><rect class="cls-4" x="102.49" y="114.83" width="9.82" height="9.82" rx="2.16" ry="2.16"/><rect class="cls-4" x="138.6" y="114.83" width="9.82" height="9.82" rx="2.16" ry="2.16"/><rect class="cls-4" x="54.35" y="128.22" width="9.82" height="9.82" rx="2.16" ry="2.16"/><rect class="cls-4" x="210.82" y="128.22" width="9.82" height="9.82" rx="2.16" ry="2.16"/><rect class="cls-4" x="150.64" y="128.22" width="9.82" height="9.82" rx="2.16" ry="2.16"/><rect class="cls-4" x="174.71" y="128.22" width="9.82" height="9.82" rx="2.16" ry="2.16"/><rect class="cls-4" x="198.79" y="128.22" width="9.82" height="9.82" rx="2.16" ry="2.16"/><rect class="cls-4" x="78.42" y="128.22" width="9.82" height="9.82" rx="2.16" ry="2.16"/><rect class="cls-4" x="66.38" y="128.22" width="9.82" height="9.82" rx="2.16" ry="2.16"/><rect class="cls-4" x="90.46" y="128.22" width="9.82" height="9.82" rx="2.16" ry="2.16"/><rect class="cls-4" x="126.57" y="128.22" width="9.82" height="9.82" rx="2.16" ry="2.16"/><rect class="cls-4" x="162.68" y="128.22" width="9.82" height="9.82" rx="2.16" ry="2.16"/><rect class="cls-4" x="186.75" y="128.22" width="9.82" height="9.82" rx="2.16" ry="2.16"/><rect class="cls-4" x="114.53" y="128.22" width="9.82" height="9.82" rx="2.16" ry="2.16"/><rect class="cls-4" x="102.49" y="128.22" width="9.82" height="9.82" rx="2.16" ry="2.16"/><rect class="cls-4" x="138.6" y="128.22" width="9.82" height="9.82" rx="2.16" ry="2.16"/><rect class="cls-4" x="54.35" y="141.62" width="9.82" height="9.82" rx="2.16" ry="2.16"/><rect class="cls-4" x="210.82" y="141.62" width="9.82" height="9.82" rx="2.16" ry="2.16"/><rect class="cls-4" x="150.64" y="141.62" width="9.82" height="9.82" rx="2.16" ry="2.16"/><rect class="cls-4" x="174.71" y="141.62" width="9.82" height="9.82" rx="2.16" ry="2.16"/><rect class="cls-4" x="198.79" y="141.62" width="9.82" height="9.82" rx="2.16" ry="2.16"/><rect class="cls-4" x="78.42" y="141.62" width="9.82" height="9.82" rx="2.16" ry="2.16"/><rect class="cls-4" x="66.38" y="141.62" width="9.82" height="9.82" rx="2.16" ry="2.16"/><rect class="cls-4" x="90.46" y="141.62" width="9.82" height="9.82" rx="2.16" ry="2.16"/><rect class="cls-4" x="126.57" y="141.62" width="9.82" height="9.82" rx="2.16" ry="2.16"/><rect class="cls-4" x="162.68" y="141.62" width="9.82" height="9.82" rx="2.16" ry="2.16"/><rect class="cls-4" x="186.75" y="141.62" width="9.82" height="9.82" rx="2.16" ry="2.16"/><rect class="cls-4" x="114.53" y="141.62" width="9.82" height="9.82" rx="2.16" ry="2.16"/><rect class="cls-4" x="102.49" y="141.62" width="9.82" height="9.82" rx="2.16" ry="2.16"/><rect class="cls-4" x="138.6" y="141.62" width="9.82" height="9.82" rx="2.16" ry="2.16"/><rect class="cls-4" x="91.45" y="153.64" width="82.04" height="9.82" rx="2.81" ry="2.81"/><rect class="cls-4" x="54.35" y="153.64" width="9.82" height="9.82" rx="2.16" ry="2.16"/><rect class="cls-4" x="66.38" y="153.64" width="21.86" height="9.82" rx="2.16" ry="2.16"/><rect class="cls-4" x="198.96" y="155.28" width="9.82" height="9.82" rx="2.16" ry="2.16"/><rect class="cls-4" x="210.82" y="155.28" width="9.82" height="9.82" rx="2.16" ry="2.16"/><rect class="cls-4" x="175.22" y="155.28" width="9.82" height="9.82" rx="2.16" ry="2.16"/><rect class="cls-4" x="187.09" y="155.28" width="9.82" height="9.82" rx="2.16" ry="2.16"/><path class="cls-2" d="M202.3,133.94a4,4,0,0,0-4.7,3l-2.94,16.7a4.24,4.24,0,0,0-.62,1.24l2-23.36a4.37,4.37,0,0,0-8.71-.74L185.69,150c-.43,1.81-.65,1.14-.65,1.8v-2.63c.17-2,.31-4.41.28-4l1-17.38a4.37,4.37,0,0,0-8.73-.48l-1,18.71a1,1,0,0,1,0,.1h0l0,.34-.1.05a4.41,4.41,0,0,0-.1.89v-.84l-.42.2-1-17.45a4.37,4.37,0,1,0-8.72.47l1,17.45c0-.85.18,3.1.39,5.11,0,.05,0,.11,0,.16v6.79a1.34,1.34,0,0,1-1,1.16,1.29,1.29,0,0,1-1.42-.48c-3.22-4.19-3-8.34-7.65-8.34a3,3,0,0,0-2.65,4.51l13.68,29.45a2.2,2.2,0,0,0,1.91,1.12H196a6.55,6.55,0,0,0,6.55-6.55c0-10.51,3.23-42,3.23-42A3.87,3.87,0,0,0,202.3,133.94Zm-8.53,21.95v-.16h.08a1.1,1.1,0,0,1,0,.18Z"/><path class="cls-2" d="M76.88,138.23s3.24,31.47,3.24,42a6.55,6.55,0,0,0,6.55,6.55h25.51a2.19,2.19,0,0,0,1.91-1.12l13.68-29.45a3,3,0,0,0-2.65-4.51c-4.63,0-4.43,4.15-7.64,8.34a1.33,1.33,0,0,1-1.43.49,1.35,1.35,0,0,1-1-1.16v-6.8a.92.92,0,0,1,0-.16c.22-2,.44-6,.39-5.11l1-17.45a4.37,4.37,0,1,0-8.72-.47l-1,17.45-.42-.2v.84a4.41,4.41,0,0,0-.09-.89l-.11-.05,0-.34h0l0-.1-1-18.71a4.37,4.37,0,1,0-8.72.48l1,17.38c0-.45.12,2,.29,4v2.63c0-.66-.22,0-.66-1.8l-1.68-19.26a4.37,4.37,0,0,0-8.7.74l2,23.36a4.27,4.27,0,0,0-.63-1.24L85,136.92a4,4,0,0,0-4.7-3A3.89,3.89,0,0,0,76.88,138.23Zm11.91,17.68a1.1,1.1,0,0,0,0-.18h.08v.16Z"/><rect class="cls-2" x="82.95" y="43.98" width="49.8" height="35.32"/><path class="cls-3" d="M123.43,40.05a.77.77,0,0,0-.82.73l.32,0a.64.64,0,0,1,.17-.39.49.49,0,0,1,.34-.12.47.47,0,0,1,.34.13.43.43,0,0,1,.14.32.41.41,0,0,1,0,.19l-.21.23a1.77,1.77,0,0,0-.23.21,1.13,1.13,0,0,0-.12.21.91.91,0,0,0,0,.31V42h.3a1.47,1.47,0,0,1,0-.27.52.52,0,0,1,.07-.15l.2-.2a1.47,1.47,0,0,0,.31-.34.67.67,0,0,0,.07-.31.64.64,0,0,0-.22-.49A.84.84,0,0,0,123.43,40.05Z"/><rect class="cls-3" x="123.25" y="42.27" width="0.35" height="0.35"/><path class="cls-3" d="M132.28,37.83H83.56a1.74,1.74,0,0,0-1.74,1.74V78.93a1.74,1.74,0,0,0,1.74,1.74h48.72A1.74,1.74,0,0,0,134,78.93V39.57A1.74,1.74,0,0,0,132.28,37.83Zm-10.84,1.53h4v4h-4Zm10,38.52h-47V44.24h47Zm0-34.56h-4v-4h4Z"/><path class="cls-3" d="M128.64,42.64l.65-.91s.07-.1.12-.19l.12.17.65.93h.42l-1-1.37.91-1.23h-.37l-.52.69a2.73,2.73,0,0,0-.21.3,2.76,2.76,0,0,0-.21-.32l-.47-.67h-.4l.88,1.25-1,1.35Z"/><path class="cls-3" d="M91.54,61.38v-2.1l10.7-5.13v2.24l-8.49,4,8.49,4v2.24Z"/><path class="cls-3" d="M106.56,69.84l4.68-19h1.59l-4.67,19Z"/><path class="cls-3" d="M124.77,61.38l-10.71,5.19V64.33l8.48-4-8.48-4V54.15l10.71,5.13Z"/><path class="cls-5" d="M26.23,25.52a6.69,6.69,0,0,1-2.7.46C19.88,26,18,23.71,18,20.71c0-3.6,2.56-5.6,5.75-5.6a6.19,6.19,0,0,1,2.6.47l-.49,1.89a5.16,5.16,0,0,0-2-.39,3.17,3.17,0,0,0-3.36,3.49A3.15,3.15,0,0,0,23.89,24a5.85,5.85,0,0,0,2-.35Z"/><path class="cls-5" d="M37,20.44C37,23.9,34.88,26,31.8,26s-5-2.36-5-5.36c0-3.16,2-5.52,5.13-5.52S37,17.53,37,20.44Zm-7.62.14c0,2.07,1,3.52,2.57,3.52s2.53-1.53,2.53-3.58c0-1.89-.91-3.52-2.55-3.52S29.36,18.53,29.36,20.58Z"/><path class="cls-5" d="M38.54,15.42a21.42,21.42,0,0,1,3.22-.22,6.76,6.76,0,0,1,4.32,1.13,4.67,4.67,0,0,1,1.78,4,5.33,5.33,0,0,1-1.75,4.27,7.58,7.58,0,0,1-4.86,1.36,20.27,20.27,0,0,1-2.71-.16ZM40.93,24a4.2,4.2,0,0,0,.83.05c2.16,0,3.57-1.17,3.57-3.69A3,3,0,0,0,42,17a4.73,4.73,0,0,0-1.08.1Z"/><path class="cls-5" d="M51.82,15.28V25.82H49.43V15.28Z"/><path class="cls-5" d="M53.88,25.82V15.28h2.79l2.19,3.86a31.56,31.56,0,0,1,1.72,3.62h0a40.92,40.92,0,0,1-.2-4.4V15.28h2.19V25.82h-2.5l-2.25-4.06A36.87,36.87,0,0,1,56,18l-.05,0c.06,1.39.09,2.88.09,4.6v3.17Z"/><path class="cls-5" d="M73.48,25.34a11.87,11.87,0,0,1-3.52.59,5.86,5.86,0,0,1-4.28-1.42,5.1,5.1,0,0,1-1.49-3.83c0-3.51,2.56-5.51,6-5.51a7.3,7.3,0,0,1,2.93.52l-.5,1.91a5.69,5.69,0,0,0-2.46-.46,3.19,3.19,0,0,0-3.49,3.41A3.17,3.17,0,0,0,70,24a3.24,3.24,0,0,0,1.17-.16v-2.2H69.55V19.78h3.93Z"/></svg>