<svg id="Réteg_1" data-name="Réteg 1" xmlns="http://www.w3.org/2000/svg" xmlns:xlink="http://www.w3.org/1999/xlink" viewBox="0 0 400 500"><defs><style>.cls-1{fill:none;}.cls-2{fill:#1e679e;}.cls-16,.cls-3{fill:#fff;}.cls-4{opacity:0.1;}.cls-5{fill:#4987d8;}.cls-6{fill:#2971b2;}.cls-7{clip-path:url(#clip-path);}.cls-8{fill:#c9d3df;}.cls-9{fill:#7792af;}.cls-10{fill:#657b8e;}.cls-11{fill:#edb9a2;}.cls-12{fill:#ffd6bb;}.cls-13{fill:#866855;}.cls-14{fill:#f2f2f2;}.cls-15{fill:#f24b69;}.cls-16{opacity:0.3;}.cls-17{clip-path:url(#clip-path-2);}.cls-18{fill:#f4ab76;}.cls-19{fill:#d3946a;}.cls-20{fill:#f9c19b;}.cls-21{fill:#45718c;}.cls-22{opacity:0.05;}</style><clipPath id="clip-path"><path class="cls-1" d="M391.57,296.12c0,3.81-2.49,7.09-5.94,7.09H14.37c-3.46,0-6.57-3.28-6.57-7.09V42.92a6.71,6.71,0,0,1,6.57-6.74H385.63c3.45,0,5.94,2.93,5.94,6.74Z"/></clipPath><clipPath id="clip-path-2"><rect class="cls-1" x="-28" y="-38" width="516" height="516"/></clipPath></defs><title>oktato-play</title><path class="cls-2" d="M397.38,302.52c0,3.93-2.57,7.14-6.13,7.14H8.76A7.09,7.09,0,0,1,2,302.52V41.67a6.77,6.77,0,0,1,6.77-6.78H391.25c3.56,0,6.13,2.85,6.13,6.78Z"/><path class="cls-3" d="M391.57,296.12c0,3.81-2.49,6.92-5.94,6.92H14.37a6.87,6.87,0,0,1-6.57-6.92V42.92a6.57,6.57,0,0,1,6.57-6.58H385.63c3.45,0,5.94,2.77,5.94,6.58Z"/><path class="cls-4" d="M397.38,73.91V44.57c0-3.92-2.57-6.78-6.13-6.78H8.76A6.78,6.78,0,0,0,2,44.57V73.91Z"/><path class="cls-5" d="M397.38,68.43V39.09c0-3.93-2.57-6.78-6.13-6.78H8.76A6.77,6.77,0,0,0,2,39.09V68.43Z"/><path class="cls-6" d="M30.67,59.4a2.31,2.31,0,0,1-3.28,0L15.21,47.22a2.31,2.31,0,0,1,0-3.28l.19-.19a2.32,2.32,0,0,1,3.29,0L30.87,55.92a2.34,2.34,0,0,1,0,3.29Z"/><path class="cls-6" d="M15.21,59.21a2.32,2.32,0,0,1,0-3.29L27.39,43.75a2.31,2.31,0,0,1,3.28,0l.2.19a2.33,2.33,0,0,1,0,3.28L18.69,59.4a2.32,2.32,0,0,1-3.29,0Z"/><rect class="cls-6" x="40.05" y="43.92" width="15.48" height="15.48" rx="4.27" ry="4.27"/><rect class="cls-6" x="63.91" y="53.59" width="15.48" height="4.51" rx="2.14" ry="2.14"/><g class="cls-7"><path class="cls-8" d="M198.6,322.45h53.59a21,21,0,0,0,21-21,134.1,134.1,0,0,0,0-42.53c-1.93-11.45-10.64-20.5-21-24.17-12.73-4.51-40.3-6.68-53.7-6.68h-.84c-13.4,0-41,2.19-53.71,6.7-10.37,3.67-19.08,12.73-21,24.17a134,134,0,0,0,0,42.51,21,21,0,0,0,21,21H198.6Z"/><path class="cls-9" d="M164.69,230.48c-8.06,1.07-15.61,2.51-20.75,4.33-10.37,3.67-19.08,12.73-21,24.17a134,134,0,0,0,0,42.51,21,21,0,0,0,21,21h41.31Z"/><path class="cls-9" d="M273.21,259c-1.93-11.45-10.64-20.5-21-24.17-5.15-1.82-12.72-3.26-20.81-4.33l-21.77,92h42.58a21,21,0,0,0,21-21A134.1,134.1,0,0,0,273.21,259Z"/><polygon class="cls-10" points="164.77 230.47 146.38 254.1 164.71 265.85 153.25 289.66 174.32 322.45 185.42 322.45 164.77 230.47"/><polygon class="cls-10" points="230.88 230.47 249.27 254.1 230.94 265.85 242.4 289.66 221.33 322.45 210.23 322.45 230.88 230.47"/><rect class="cls-11" x="173.56" y="196.14" width="47.08" height="36.76"/><path class="cls-12" d="M245.16,174.66c0,25.85-21.54,46.81-47.73,46.81s-47.73-21-47.73-46.81V148.85C149.7,123,171.24,102,197.43,102S245,123,245,148.85Z"/><path class="cls-13" d="M150.56,152.26c27.26,8.72,56.67-5.92,65.28-32.83l4.62-14.75a47.92,47.92,0,0,0-23-5.87c-26.19,0-47.73,21-47.73,46.81V152Z"/><path class="cls-13" d="M245,145.62a46.89,46.89,0,0,0-29.88-43.44c-2.2,20.66,9.93,40.88,29.91,48.85Z"/><ellipse class="cls-11" cx="197.46" cy="232.9" rx="23" ry="3.98"/><rect class="cls-10" x="187.75" y="237.42" width="19.99" height="15.48" rx="7.72" ry="7.72"/><polygon class="cls-10" points="209.61 329.65 185.42 329.65 192.32 250.32 203.82 250.32 209.61 329.65"/></g><path class="cls-4" d="M385.84,286.76c0,7.09-4.26,12.83-9.52,12.83H20.47c-5.26,0-9.52-5.74-9.52-12.83h0c0-7.09,4.26-12.84,9.52-12.84H376.32c5.26,0,9.52,5.75,9.52,12.84Z"/><path class="cls-14" d="M382.54,286.76c0,5.66-4.18,10.25-9.35,10.25H23.6c-5.17,0-9.35-4.59-9.35-10.25h0c0-5.66,4.18-10.26,9.35-10.26H373.19c5.17,0,9.35,4.6,9.35,10.26Z"/><path class="cls-5" d="M377.38,286.76a4.19,4.19,0,0,1-4.19,4.19H26.83a4.2,4.2,0,0,1-4.2-4.19h0a4.19,4.19,0,0,1,4.2-4.19H373.19a4.18,4.18,0,0,1,4.19,4.19Z"/><path class="cls-15" d="M127.77,286.76a4.2,4.2,0,0,1-4.19,4.19H26.83a4.2,4.2,0,0,1-4.2-4.19h0a4.19,4.19,0,0,1,4.2-4.19h96.75a4.19,4.19,0,0,1,4.19,4.19Z"/><path class="cls-4" d="M126.48,286.76a4.19,4.19,0,0,0-4.2-4.19h-9.77a8,8,0,0,0,0,8.38h9.77A4.2,4.2,0,0,0,126.48,286.76Z"/><circle class="cls-5" cx="121.96" cy="286.76" r="8.06"/><path class="cls-4" d="M199,91.44a87.34,87.34,0,1,0,87.34,87.34A87.34,87.34,0,0,0,199,91.44Zm0,156.3a69,69,0,1,1,69-69A69,69,0,0,1,199,247.74Z"/><path class="cls-5" d="M199.68,86.28A87.34,87.34,0,1,0,287,173.62,87.34,87.34,0,0,0,199.68,86.28Zm0,156.3a69,69,0,1,1,69-69A69,69,0,0,1,199.68,242.58Z"/><circle class="cls-16" cx="199.68" cy="173.62" r="68.96" transform="translate(-52.44 93.31) rotate(-23.34)"/><polygon class="cls-5" points="175.58 136.81 243.27 179.23 175.95 221.28 175.58 136.81"/><g class="cls-17"><path class="cls-18" d="M235.81,290a12,12,0,0,1-11.94,11.94h0A11.94,11.94,0,0,1,211.94,290V215.16a11.93,11.93,0,0,1,11.93-11.93h0a11.94,11.94,0,0,1,11.94,11.93Z"/><rect class="cls-18" x="234.52" y="251.61" width="19.35" height="79.33" rx="9.63" ry="9.63"/><rect class="cls-18" x="253.86" y="259.35" width="19.35" height="79.33" rx="9.63" ry="9.63"/><path class="cls-19" d="M192.37,274.32s16.51-11.38,23.17,17a344.37,344.37,0,0,1,8,53.69v4s-19.2-20-24.41-26S206.23,298.2,192.37,274.32Z"/><path class="cls-18" d="M285.89,336.11a9.64,9.64,0,0,1-10.31,8.9h0a9.64,9.64,0,0,1-8.9-10.31l4.41-60.21a9.62,9.62,0,0,1,10.31-8.89h0a9.63,9.63,0,0,1,8.9,10.3Z"/><path class="cls-18" d="M211.94,258.91s-6.14,90.72,21.61,96.71c29.28,6.32,56.65,23.91,55.05-56.61Z"/><path class="cls-20" d="M231.87,216.45a8.07,8.07,0,1,1-8.07-8.07A8.07,8.07,0,0,1,231.87,216.45Z"/><path class="cls-19" d="M235.85,256.35c-.08,2.42-.3,4.8-.44,7.15a54.17,54.17,0,0,0,0,7c.16,2.33.43,4.72.47,7.13a41.44,41.44,0,0,1-.43,7.21c-.46-2.38-.78-4.73-1.13-7.08s-.7-4.69-.9-7.12a29.7,29.7,0,0,1,.42-7.3A36.7,36.7,0,0,1,235.85,256.35Z"/><path class="cls-19" d="M231.22,251.62c-1.27-.09-2.47-.21-3.65-.27s-2.36,0-3.53,0-2.37.14-3.58.21a25.55,25.55,0,0,1-3.72.05,16.25,16.25,0,0,1,3.49-1.38,15.63,15.63,0,0,1,3.74-.61A11.55,11.55,0,0,1,231.22,251.62Z"/><path class="cls-19" d="M231.22,254.84c-1.27-.09-2.47-.21-3.65-.26s-2.36-.05-3.53,0-2.37.15-3.58.21a25.55,25.55,0,0,1-3.72.05,17.36,17.36,0,0,1,3.49-1.38,16.7,16.7,0,0,1,3.74-.61A11.68,11.68,0,0,1,231.22,254.84Z"/><path class="cls-19" d="M253.87,265.57a25.38,25.38,0,0,1,.47,5.19c0,1.73-.07,3.45-.23,5.15s-.39,3.41-.7,5.11a36.37,36.37,0,0,1-1.25,5,31.29,31.29,0,0,1-.3-5.19c0-1.72.1-3.43.26-5.14A63.71,63.71,0,0,1,253.87,265.57Z"/><path class="cls-19" d="M273.12,269.25a29.71,29.71,0,0,1,.51,5.29c.05,1.77,0,3.52-.09,5.27s-.3,3.5-.55,5.24a35,35,0,0,1-1.13,5.2,35.18,35.18,0,0,1-.43-5.3c0-1.76,0-3.51.11-5.26A55.6,55.6,0,0,1,273.12,269.25Z"/><polygon class="cls-3" points="310.02 579.27 193.2 579.27 219.25 343.2 283.97 343.2 310.02 579.27"/><polygon class="cls-21" points="317.21 613.45 186 613.45 215.26 349 287.96 349 317.21 613.45"/><polygon class="cls-22" points="254.57 349 215.26 349 186 613.45 254.57 613.45 254.57 349"/></g></svg>