<svg id="Réteg_1" data-name="Réteg 1" xmlns="http://www.w3.org/2000/svg" viewBox="0 0 652.5 323.5"><defs><style>.cls-1,.cls-6{fill:#fff;}.cls-1,.cls-12,.cls-13,.cls-14,.cls-16,.cls-17,.cls-18,.cls-19,.cls-20,.cls-23,.cls-24,.cls-25,.cls-3,.cls-4,.cls-5,.cls-7,.cls-8,.cls-9{stroke:#34508b;}.cls-1,.cls-12,.cls-13,.cls-14,.cls-15,.cls-16,.cls-17,.cls-18,.cls-19,.cls-20,.cls-23,.cls-24,.cls-25,.cls-3,.cls-4,.cls-5,.cls-7,.cls-8,.cls-9{stroke-linecap:round;stroke-linejoin:round;stroke-width:3px;}.cls-12,.cls-2{fill:#f7ab6f;}.cls-15,.cls-16,.cls-19,.cls-23,.cls-24,.cls-25,.cls-3{fill:none;}.cls-4{fill:#ff6aa9;}.cls-11,.cls-21,.cls-5{fill:#34508b;}.cls-7{fill:#62c3ef;}.cls-8{fill:#a5d996;}.cls-10,.cls-9{fill:#fbf8f3;}.cls-13{fill:#3bddba;}.cls-14{fill:#dcdee0;}.cls-15{stroke:#f7ab6f;}.cls-16{stroke-dasharray:8.08 8.08;}.cls-17{fill:#ffd3a2;}.cls-18{fill:#ff9f9e;}.cls-19{stroke-dasharray:8;}.cls-20{fill:#fffaad;}.cls-21{font-size:17.51px;font-family:Montserrat-Bold, Montserrat;font-weight:700;}.cls-22{letter-spacing:-0.02em;}.cls-23{stroke-dasharray:0 5;}.cls-24{stroke-dasharray:8.25 8.25;}.cls-25{stroke-dasharray:8.35 8.35;}</style></defs><title>online-oktatas</title><g id="_Csoport_" data-name="&lt;Csoport&gt;"><rect id="_Téglalap_" data-name="&lt;Téglalap&gt;" class="cls-1" x="486.29" y="191.38" width="126.41" height="75.67"/><g id="_Csoport_2" data-name="&lt;Csoport&gt;"><g id="_Csoport_3" data-name="&lt;Csoport&gt;"><g id="_Csoport_4" data-name="&lt;Csoport&gt;"><polygon id="_Görbe_" data-name="&lt;Görbe&gt;" class="cls-2" points="571.47 214.93 574.77 211.92 573.87 207.55 578.31 207.06 580.14 202.99 584.02 205.2 587.9 202.99 589.74 207.06 594.18 207.55 593.27 211.92 596.57 214.93 593.27 217.93 594.18 222.3 589.74 222.79 587.9 226.87 584.02 224.65 580.14 226.87 578.31 222.79 573.87 222.3 574.77 217.93 571.47 214.93"/><polygon id="_Görbe_2" data-name="&lt;Görbe&gt;" class="cls-3" points="571.47 214.93 574.77 211.92 573.87 207.55 578.31 207.06 580.14 202.99 584.02 205.2 587.9 202.99 589.74 207.06 594.18 207.55 593.27 211.92 596.57 214.93 593.27 217.93 594.18 222.3 589.74 222.79 587.9 226.87 584.02 224.65 580.14 226.87 578.31 222.79 573.87 222.3 574.77 217.93 571.47 214.93"/></g><circle id="_Görbe_3" data-name="&lt;Görbe&gt;" class="cls-4" cx="584.02" cy="214.93" r="5.42"/></g><rect id="_Téglalap_2" data-name="&lt;Téglalap&gt;" class="cls-5" x="500.98" y="202.99" width="42.3" height="4.51"/><rect id="_Téglalap_3" data-name="&lt;Téglalap&gt;" class="cls-5" x="500.98" y="214.93" width="42.3" height="4.51"/><line id="_Görbe_4" data-name="&lt;Görbe&gt;" class="cls-3" x1="500.98" y1="237.37" x2="598.01" y2="237.37"/><line id="_Görbe_5" data-name="&lt;Görbe&gt;" class="cls-3" x1="557.27" y1="243.55" x2="598.01" y2="243.55"/><line id="_Görbe_6" data-name="&lt;Görbe&gt;" class="cls-3" x1="557.27" y1="249.5" x2="598.01" y2="249.5"/><line id="_Görbe_7" data-name="&lt;Görbe&gt;" class="cls-3" x1="557.27" y1="255.45" x2="598.01" y2="255.45"/></g></g><polyline id="_Görbe_8" data-name="&lt;Görbe&gt;" class="cls-6" points="22.76 324.08 22.76 300.26 629.24 300.26 629.24 324.08"/><g id="_Csoport_5" data-name="&lt;Csoport&gt;"><g id="_Csoport_6" data-name="&lt;Csoport&gt;"><circle id="_Görbe_9" data-name="&lt;Görbe&gt;" class="cls-7" cx="439.37" cy="105.25" r="51.63"/><path id="_Görbe_10" data-name="&lt;Görbe&gt;" class="cls-8" d="M491,105.25a51.63,51.63,0,0,0-51.62-51.63c-.93,0-1.85,0-2.76.08-4.39,7.8-5.91,16.09-8.69,24.48a6.18,6.18,0,0,1,7.48,9.29c-2,2.75-5.76,3.36-8.76,5a14.25,14.25,0,0,0-7,15.35,24.22,24.22,0,0,1,.78,3.45c.09,1-.07,2.07.12,3.08.45,2.54,3,4.31,5.6,4.55a13.2,13.2,0,0,0,7.38-2c3-1.66,6.25-3.89,9.58-3,2.91.75,5.24,3.77,8.2,3.31,2.14-.33,3.52-2.34,5.07-3.85s4.25-2.56,5.71-1A18.17,18.17,0,0,1,465.37,124a15.57,15.57,0,0,0,0,4.52c.35,1.47,1.6,2.88,3.11,2.78,3.48-.22,3.25-7,6.72-7.24,1.89-.14,3.21,2.07,3,4s-1.3,3.52-2.13,5.21c-1.46,3-.74,4.75,1.07,7.15C486.35,131.71,491,117.62,491,105.25Z"/></g><path id="_Görbe_11" data-name="&lt;Görbe&gt;" class="cls-5" d="M472.92,66a51.61,51.61,0,0,1-72.77,72.77A51.61,51.61,0,1,0,472.92,66Z"/></g><g id="_Csoport_7" data-name="&lt;Csoport&gt;"><rect id="_Téglalap_4" data-name="&lt;Téglalap&gt;" class="cls-7" x="212.63" y="101.72" width="226.73" height="164.22" rx="17.27" ry="17.27"/><path id="_Görbe_12" data-name="&lt;Görbe&gt;" class="cls-9" d="M212.63,244v5.81a16.12,16.12,0,0,0,16.12,16.11h194.5a16.12,16.12,0,0,0,16.12-16.11V244Z"/><g id="_Csoport_8" data-name="&lt;Csoport&gt;"><g id="_Csoport_9" data-name="&lt;Csoport&gt;"><rect id="_Görbe_13" data-name="&lt;Görbe&gt;" class="cls-10" x="223.83" y="112.91" width="204.34" height="119.9"/></g><g id="_Csoport_10" data-name="&lt;Csoport&gt;"><rect id="_Görbe_14" data-name="&lt;Görbe&gt;" class="cls-3" x="223.83" y="112.91" width="204.34" height="119.9"/></g></g><circle id="_Görbe_15" data-name="&lt;Görbe&gt;" class="cls-11" cx="326" cy="254.97" r="4.67"/><g id="_Csoport_11" data-name="&lt;Csoport&gt;"><rect id="_Téglalap_5" data-name="&lt;Téglalap&gt;" class="cls-12" x="249.28" y="84.18" width="76.72" height="125.03"/><rect id="_Téglalap_6" data-name="&lt;Téglalap&gt;" class="cls-12" x="326" y="84.18" width="76.72" height="125.03"/></g><g id="_Csoport_12" data-name="&lt;Csoport&gt;"><rect id="_Téglalap_7" data-name="&lt;Téglalap&gt;" class="cls-1" x="257.68" y="78.43" width="68.32" height="123.94"/><rect id="_Téglalap_8" data-name="&lt;Téglalap&gt;" class="cls-1" x="326" y="78.43" width="68.32" height="123.94"/><rect id="_Téglalap_9" data-name="&lt;Téglalap&gt;" class="cls-13" x="268.89" y="90.7" width="25.85" height="35.78"/><line id="_Görbe_16" data-name="&lt;Görbe&gt;" class="cls-3" x1="268.89" y1="140.4" x2="314.29" y2="140.4"/><line id="_Görbe_17" data-name="&lt;Görbe&gt;" class="cls-3" x1="268.89" y1="152.61" x2="314.29" y2="152.61"/><line id="_Görbe_18" data-name="&lt;Görbe&gt;" class="cls-3" x1="268.89" y1="164.81" x2="314.29" y2="164.81"/><line id="_Görbe_19" data-name="&lt;Görbe&gt;" class="cls-3" x1="268.89" y1="177.02" x2="314.29" y2="177.02"/></g><polygon id="_Görbe_20" data-name="&lt;Görbe&gt;" class="cls-11" points="384.11 200.97 366.54 79.83 366.33 79.83 366.33 158.67 327.29 200.97 384.11 200.97"/><polygon id="_Görbe_21" data-name="&lt;Görbe&gt;" class="cls-1" points="366.33 158.67 326 202.37 326 78.43 366.33 34.73 366.33 158.67"/><line id="_Görbe_22" data-name="&lt;Görbe&gt;" class="cls-3" x1="240.16" y1="209.21" x2="411.84" y2="209.21"/><path id="_Összetett_görbe_" data-name="&lt;Összetett görbe&gt;" class="cls-14" d="M288.29,81V72.83H284a24.35,24.35,0,0,0-4.22-10l3.14-3.15-5.77-5.77L274,57.05A24.31,24.31,0,0,0,264,53V48.34h-8.16V53A24.23,24.23,0,0,0,246,57l-3.3-3.31-5.77,5.78,3.25,3.25a24.37,24.37,0,0,0-4.22,9.87h-4.57v8.16h4.45a24.26,24.26,0,0,0,4,10.1L236.74,94l5.77,5.77,3-3a24.32,24.32,0,0,0,10.11,4.34v4.19h8.17v-4.11A24.33,24.33,0,0,0,274.05,97L277,99.89l5.77-5.78-2.93-2.92A24.36,24.36,0,0,0,284,81ZM276.2,75.4H265.14a5.44,5.44,0,0,0-3.56-3.56V60.78A16.32,16.32,0,0,1,276.2,75.4ZM258.32,60.78V71.84a5.42,5.42,0,0,0-3.56,3.56H243.7A16.32,16.32,0,0,1,258.32,60.78ZM243.7,78.66h11.06a5.44,5.44,0,0,0,3.56,3.56V93.28A16.32,16.32,0,0,1,243.7,78.66Zm17.88,14.62V82.22a5.46,5.46,0,0,0,3.56-3.56H276.2A16.32,16.32,0,0,1,261.58,93.28Z"/><path id="_Összetett_görbe_2" data-name="&lt;Összetett görbe&gt;" class="cls-14" d="M328,51.71V45h-4.55a13.83,13.83,0,0,0-1.53-3.84l3.18-3.18-4.78-4.77-3.13,3.13a14,14,0,0,0-3.89-1.64v-4.4h-6.75v4.4a14,14,0,0,0-3.89,1.64l-3.13-3.13-4.77,4.77,3.17,3.18A13.83,13.83,0,0,0,296.39,45h-4.55v6.75h4.65a13.94,13.94,0,0,0,1.58,3.69l-3.32,3.33,4.77,4.78,3.38-3.38a13.52,13.52,0,0,0,3.64,1.48v4.81h6.75V61.61a13.52,13.52,0,0,0,3.64-1.48l3.38,3.38,4.78-4.78-3.33-3.33a13.94,13.94,0,0,0,1.58-3.69Zm-18.07.8a4.37,4.37,0,1,1,4.37-4.37A4.37,4.37,0,0,1,309.92,52.51Z"/><path id="_Téglalap_10" data-name="&lt;Téglalap&gt;" class="cls-9" d="M290.62,291.55h70.76a8.07,8.07,0,0,1,8.07,8.07v1.11a0,0,0,0,1,0,0H282.55a0,0,0,0,1,0,0v-1.11A8.07,8.07,0,0,1,290.62,291.55Z"/><rect id="_Téglalap_11" data-name="&lt;Téglalap&gt;" class="cls-9" x="305.83" y="265.93" width="40.33" height="25.62"/><rect id="_Téglalap_12" data-name="&lt;Téglalap&gt;" class="cls-5" x="305.83" y="265.93" width="40.33" height="9.75"/><line id="_Görbe_23" data-name="&lt;Görbe&gt;" class="cls-3" x1="249.28" y1="222.04" x2="276.2" y2="222.04"/><line id="_Görbe_24" data-name="&lt;Görbe&gt;" class="cls-3" x1="389.26" y1="222.04" x2="402.72" y2="222.04"/><line id="_Görbe_25" data-name="&lt;Görbe&gt;" class="cls-3" x1="314.53" y1="222.04" x2="364.36" y2="222.04"/></g><line id="_Görbe_26" data-name="&lt;Görbe&gt;" class="cls-3" y1="300.73" x2="652" y2="300.73"/><g id="_Csoport_13" data-name="&lt;Csoport&gt;"><line id="_Görbe_27" data-name="&lt;Görbe&gt;" class="cls-15" x1="198.48" y1="183.83" x2="184.8" y2="183.83"/><line id="_Görbe_28" data-name="&lt;Görbe&gt;" class="cls-15" x1="196.48" y1="166.9" x2="186.8" y2="157.23"/><line id="_Görbe_29" data-name="&lt;Görbe&gt;" class="cls-15" x1="186.8" y1="210.43" x2="196.48" y2="200.75"/></g><g id="_Csoport_14" data-name="&lt;Csoport&gt;"><line id="_Görbe_30" data-name="&lt;Görbe&gt;" class="cls-15" x1="482.73" y1="56.6" x2="492.41" y2="46.92"/><line id="_Görbe_31" data-name="&lt;Görbe&gt;" class="cls-15" x1="496.12" y1="67.15" x2="509.8" y2="67.15"/><line id="_Görbe_32" data-name="&lt;Görbe&gt;" class="cls-15" x1="472.18" y1="29.53" x2="472.18" y2="43.21"/></g><path id="_Görbe_33" data-name="&lt;Görbe&gt;" class="cls-3" d="M462.46,106.57a7.88,7.88,0,0,1,5.83,6.34"/><path id="_Görbe_34" data-name="&lt;Görbe&gt;" class="cls-3" d="M441.46,90.25s3-5.14,1.17-8.64"/><g id="_Csoport_15" data-name="&lt;Csoport&gt;"><path id="_Téglalap_13" data-name="&lt;Téglalap&gt;" class="cls-1" d="M460.44,287.66h20.24a7.08,7.08,0,0,1,7.08,7.08v6a0,0,0,0,1,0,0h-35a0,0,0,0,1,0,0v-5.4A7.67,7.67,0,0,1,460.44,287.66Z"/><rect id="_Téglalap_14" data-name="&lt;Téglalap&gt;" class="cls-7" x="461.72" y="287.66" width="17.11" height="6.53"/><rect id="_Téglalap_15" data-name="&lt;Téglalap&gt;" class="cls-5" x="467.66" y="284.4" width="5.23" height="3.27"/></g><g id="_Csoport_16" data-name="&lt;Csoport&gt;"><line class="cls-3" x1="240.16" y1="129.67" x2="236.16" y2="129.67"/><path class="cls-16" d="M228.08,129.67h-70a51,51,0,0,0-51,51v7.42"/><line class="cls-3" x1="107.04" y1="192.13" x2="107.04" y2="196.13"/></g><g id="_Csoport_17" data-name="&lt;Csoport&gt;"><line id="_Görbe_35" data-name="&lt;Görbe&gt;" class="cls-3" x1="55.57" y1="254.74" x2="179.2" y2="254.74"/><g id="_Csoport_18" data-name="&lt;Csoport&gt;"><path id="_Görbe_36" data-name="&lt;Görbe&gt;" class="cls-17" d="M152,219.55v-4.66H72.37a10.26,10.26,0,1,0,0,20.52H152v-4.66H76.56v-11.2Z"/><rect id="_Téglalap_16" data-name="&lt;Téglalap&gt;" class="cls-3" x="76.56" y="219.55" width="69.51" height="11.2"/><line id="_Görbe_37" data-name="&lt;Görbe&gt;" class="cls-3" x1="146.08" y1="225.15" x2="76.56" y2="225.15"/><rect id="_Téglalap_17" data-name="&lt;Téglalap&gt;" class="cls-5" x="76.56" y="219.55" width="5.83" height="11.2"/></g><polygon id="_Görbe_38" data-name="&lt;Görbe&gt;" class="cls-1" points="151.99 249.12 72.37 249.12 76.56 245.07 72.37 241.03 151.99 241.03 151.99 249.12"/><line id="_Görbe_39" data-name="&lt;Görbe&gt;" class="cls-3" x1="101.91" y1="245.07" x2="123.37" y2="245.07"/><path id="_Görbe_40" data-name="&lt;Görbe&gt;" class="cls-18" d="M157.87,235.41H72.37V241H152v8.09H72.37v5.62h85.5a9.67,9.67,0,0,0,9.67-9.67h0A9.67,9.67,0,0,0,157.87,235.41Z"/><polygon id="_Görbe_41" data-name="&lt;Görbe&gt;" class="cls-13" points="101.91 257.81 96.31 254 90.72 257.81 90.72 241.03 101.91 241.03 101.91 257.81"/></g><line id="_Görbe_42" data-name="&lt;Görbe&gt;" class="cls-3" x1="394.32" y1="265.93" x2="394.32" y2="300.73"/><line id="_Görbe_43" data-name="&lt;Görbe&gt;" class="cls-3" x1="405.78" y1="265.93" x2="405.78" y2="300.73"/><path id="_Görbe_44" data-name="&lt;Görbe&gt;" class="cls-19" d="M412.44,162.06H512a23.55,23.55,0,0,1,23.55,23.55v10.52"/><g id="_Csoport_19" data-name="&lt;Csoport&gt;"><path id="_Görbe_45" data-name="&lt;Görbe&gt;" class="cls-7" d="M172.93,83.93l-16.67,5.68a52.36,52.36,0,0,1-34,0L105.6,83.93l8.06-32.71h51.21Z"/><polygon id="_Görbe_46" data-name="&lt;Görbe&gt;" class="cls-5" points="172.43 55.59 139.26 45.08 106.1 55.59 91.37 55.59 91.37 60.25 139.26 75.42 187.16 60.25 187.16 55.59 172.43 55.59"/><polygon id="_Görbe_47" data-name="&lt;Görbe&gt;" class="cls-7" points="139.26 40.42 91.37 55.59 139.26 70.76 187.16 55.59 139.26 40.42"/><path id="_Görbe_48" data-name="&lt;Görbe&gt;" class="cls-20" d="M106.78,79.14l15.49,5.28a52.36,52.36,0,0,0,34,0l15.49-5.28-1.24-5L156.26,79a52.36,52.36,0,0,1-34,0L108,74.11Z"/><polyline id="_Görbe_49" data-name="&lt;Görbe&gt;" class="cls-3" points="139.26 55.59 161.73 63.64 161.73 96.36"/><circle id="_Görbe_50" data-name="&lt;Görbe&gt;" class="cls-5" cx="161.73" cy="93.77" r="3.15"/><path id="_Görbe_51" data-name="&lt;Görbe&gt;" class="cls-5" d="M161.73,93.77a16.86,16.86,0,0,0-4.66,12h9.33A16.84,16.84,0,0,0,161.73,93.77Z"/></g><g id="_Csoport_20" data-name="&lt;Csoport&gt;"><circle id="_Görbe_52" data-name="&lt;Görbe&gt;" class="cls-1" cx="90.72" cy="46.92" r="20.9"/><text class="cls-21" transform="translate(79.01 51.65)"><tspan class="cls-22">A</tspan><tspan x="13.01" y="0">+</tspan></text><circle id="_Görbe_53" data-name="&lt;Görbe&gt;" class="cls-23" cx="90.72" cy="46.92" r="26.59"/></g><g id="_Csoport_21" data-name="&lt;Csoport&gt;"><rect id="_Téglalap_18" data-name="&lt;Téglalap&gt;" class="cls-1" x="532.83" y="58.68" width="59.4" height="76.51"/><rect id="_Téglalap_19" data-name="&lt;Téglalap&gt;" class="cls-4" x="527.14" y="64.75" width="58.44" height="73.71"/><rect id="_Téglalap_20" data-name="&lt;Téglalap&gt;" class="cls-13" x="552.19" y="84.18" width="33.39" height="11.2"/></g><g id="_Csoport_22" data-name="&lt;Csoport&gt;"><line class="cls-3" x1="502.96" y1="120.73" x2="506.96" y2="120.73"/><line class="cls-24" x1="515.21" y1="120.73" x2="544.06" y2="120.73"/><line class="cls-3" x1="548.19" y1="120.73" x2="552.19" y2="120.73"/></g><g id="_Csoport_23" data-name="&lt;Csoport&gt;"><line class="cls-3" x1="126.2" y1="26.02" x2="130.2" y2="26.02"/><line class="cls-25" x1="138.55" y1="26.02" x2="268.03" y2="26.02"/><polyline class="cls-3" points="272.21 26.02 276.21 26.02 276.21 30.02"/><line class="cls-3" x1="276.21" y1="39.77" x2="276.21" y2="43.77"/></g><g id="_Csoport_24" data-name="&lt;Csoport&gt;"><polygon id="_Görbe_54" data-name="&lt;Görbe&gt;" class="cls-1" points="405.39 26.02 448.41 26.02 402.23 36.51 405.39 26.02"/><polygon id="_Görbe_55" data-name="&lt;Görbe&gt;" class="cls-1" points="405.39 36.51 408.73 39.85 448.41 26.02 405.39 36.51"/></g><g id="_Csoport_25" data-name="&lt;Csoport&gt;"><polygon id="_Görbe_56" data-name="&lt;Görbe&gt;" class="cls-1" points="563.76 15.7 520.75 15.7 566.93 26.19 563.76 15.7"/><polygon id="_Görbe_57" data-name="&lt;Görbe&gt;" class="cls-1" points="563.76 26.19 560.43 29.53 520.75 15.7 563.76 26.19"/></g></svg>