<svg id="Réteg_1" data-name="Réteg 1" xmlns="http://www.w3.org/2000/svg" xmlns:xlink="http://www.w3.org/1999/xlink" viewBox="0 0 1920 1080"><defs><style>.cls-1,.cls-2,.cls-3{opacity:0.39;}.cls-1{fill:url(#Névtelen_színátmenet_38);}.cls-2{fill:url(#Névtelen_színátmenet_38-2);}.cls-3{fill:url(#Névtelen_színátmenet_38-3);}.cls-29,.cls-4{fill:#fff;}.cls-10,.cls-11,.cls-14,.cls-15,.cls-16,.cls-18,.cls-19,.cls-20,.cls-21,.cls-22,.cls-25,.cls-26,.cls-27,.cls-28,.cls-4,.cls-6,.cls-7,.cls-8,.cls-9{stroke:#34508b;}.cls-10,.cls-11,.cls-14,.cls-15,.cls-16,.cls-17,.cls-18,.cls-19,.cls-20,.cls-21,.cls-22,.cls-25,.cls-26,.cls-27,.cls-4,.cls-6,.cls-7,.cls-8,.cls-9{stroke-linecap:round;stroke-linejoin:round;stroke-width:3px;}.cls-14,.cls-5{fill:#f7ab6f;}.cls-17,.cls-18,.cls-21,.cls-25,.cls-26,.cls-27,.cls-28,.cls-6{fill:none;}.cls-7{fill:#ff6aa9;}.cls-13,.cls-23,.cls-8{fill:#34508b;}.cls-9{fill:#62c3ef;}.cls-10{fill:#a5d996;}.cls-11,.cls-12{fill:#fbf8f3;}.cls-15{fill:#3bddba;}.cls-16{fill:#dcdee0;}.cls-17{stroke:#f7ab6f;}.cls-18{stroke-dasharray:8.07 8.07;}.cls-19{fill:#ffd3a2;}.cls-20{fill:#ff9f9e;}.cls-21{stroke-dasharray:8;}.cls-22{fill:#fffaad;}.cls-23{font-size:38.15px;font-family:Montserrat-Bold, Montserrat;font-weight:700;}.cls-24{letter-spacing:-0.02em;}.cls-25{stroke-dasharray:7.63 7.63;}.cls-26{stroke-dasharray:8.17 8.17;}.cls-27{stroke-dasharray:10.22 10.22;}.cls-28{stroke-miterlimit:10;stroke-width:2px;}</style><linearGradient id="Névtelen_színátmenet_38" x1="1441.37" y1="-293.27" x2="663.86" y2="1053.42" gradientUnits="userSpaceOnUse"><stop offset="0.2" stop-color="#00d49d"/><stop offset="0.56" stop-color="aqua"/><stop offset="0.81" stop-color="#21bce8"/></linearGradient><linearGradient id="Névtelen_színátmenet_38-2" x1="1472.15" y1="-270.76" x2="676.14" y2="1107.97" xlink:href="#Névtelen_színátmenet_38"/><linearGradient id="Névtelen_színátmenet_38-3" x1="1491.7" y1="-261.9" x2="683.78" y2="1137.47" xlink:href="#Névtelen_színátmenet_38"/></defs><title>t-bg-3</title><path class="cls-1" d="M-6-14.36l3,570S181.9,966.45,504,762C671,656,751,583,813,565c99.27-28.82,204-24.1,326,133.15s155.85,221.54,472,160.57c45.19-8.71,164-3.42,90,138.45S1921,1104,1921,1104L1932-10Z"/><path class="cls-2" d="M-9-12l3,650.17S322.35,1094.33,588,782c79-92.88,168-145.47,219-150.44,27.81-2.72,207-10.19,329,169.17s155.85,252.7,472,183.16c45.19-9.94,164-3.9,90,157.92s220,121.84,220,121.84L1929-7Z"/><path class="cls-3" d="M-10-15.35l3,698.93S391.35,1145.75,657,810c79-99.85,127-118.65,178-124,27.81-2.92,178-20.5,300,172.31S1290.85,1130,1607,1055.2c45.19-10.68,164-4.19,90,169.77s220,131,220,131L1928-10Z"/><g id="_Csoport_" data-name="&lt;Csoport&gt;"><rect id="_Téglalap_" data-name="&lt;Téglalap&gt;" class="cls-4" x="916.88" y="660.5" width="275.41" height="164.86" transform="translate(-199.91 442.37) rotate(-21.69)"/><g id="_Csoport_2" data-name="&lt;Csoport&gt;"><g id="_Csoport_3" data-name="&lt;Csoport&gt;"><g id="_Csoport_4" data-name="&lt;Csoport&gt;"><polygon id="_Görbe_" data-name="&lt;Görbe&gt;" class="cls-5" points="1087.57 696.3 1091.83 687.56 1086.48 679.43 1095.07 674.87 1095.51 665.15 1105.14 666.51 1111.21 658.9 1118.21 665.66 1127.59 663.08 1129.28 672.66 1138.38 676.09 1134.12 684.83 1139.47 692.96 1130.88 697.52 1130.44 707.24 1120.8 705.88 1114.73 713.49 1107.74 706.72 1098.36 709.31 1096.67 699.73 1087.57 696.3"/><polygon id="_Görbe_2" data-name="&lt;Görbe&gt;" class="cls-6" points="1087.57 696.3 1091.83 687.56 1086.48 679.43 1095.07 674.87 1095.51 665.15 1105.14 666.51 1111.21 658.9 1118.21 665.66 1127.59 663.08 1129.28 672.66 1138.38 676.09 1134.12 684.83 1139.47 692.96 1130.88 697.52 1130.44 707.24 1120.8 705.88 1114.73 713.49 1107.74 706.72 1098.36 709.31 1096.67 699.73 1087.57 696.3"/></g><circle id="_Görbe_3" data-name="&lt;Görbe&gt;" class="cls-7" cx="1112.97" cy="686.19" r="11.81"/></g><rect id="_Téglalap_2" data-name="&lt;Téglalap&gt;" class="cls-8" x="933.79" y="711.52" width="92.16" height="9.83" transform="translate(-195.41 412.88) rotate(-21.69)"/><rect id="_Téglalap_3" data-name="&lt;Téglalap&gt;" class="cls-8" x="943.4" y="735.69" width="92.16" height="9.83" transform="translate(-203.66 418.14) rotate(-21.69)"/><line id="_Görbe_4" data-name="&lt;Görbe&gt;" class="cls-6" x1="962.92" y1="798.5" x2="1159.37" y2="720.37"/><line id="_Görbe_5" data-name="&lt;Görbe&gt;" class="cls-6" x1="1081.87" y1="765.69" x2="1164.35" y2="732.88"/><line id="_Görbe_6" data-name="&lt;Görbe&gt;" class="cls-6" x1="1086.65" y1="777.73" x2="1169.14" y2="744.92"/><line id="_Görbe_7" data-name="&lt;Görbe&gt;" class="cls-6" x1="1091.44" y1="789.77" x2="1173.93" y2="756.96"/></g></g><g id="_Csoport_5" data-name="&lt;Csoport&gt;"><g id="_Csoport_6" data-name="&lt;Csoport&gt;"><circle id="_Görbe_8" data-name="&lt;Görbe&gt;" class="cls-9" cx="731.81" cy="580.65" r="112.48"/><path id="_Görbe_9" data-name="&lt;Görbe&gt;" class="cls-10" d="M836.33,539.08a112.48,112.48,0,0,0-146.09-63q-2.81,1.13-5.52,2.38c-2.61,19.32,1,37.32,2.12,56.56a13.46,13.46,0,0,1,22.63,12.78c-1.84,7.17-9,11.44-13.76,17.06-8.58,10-9.39,25.91-1.88,36.76a52.09,52.09,0,0,1,4.35,6.35c1,2,1.53,4.24,2.72,6.14,3,4.78,9.61,6.28,15,4.69s9.74-5.64,13.32-10c4.77-5.79,9.51-12.92,17-13.88,6.48-.83,13.62,3.41,19.25.1,4.07-2.39,5.24-7.57,7.15-11.88s6.55-8.61,10.8-6.57a39.71,39.71,0,0,1,16.15,21c1,3.14,1.67,6.48,3.57,9.17s5.56,4.55,8.53,3.14c6.86-3.26,1-16.75,7.79-20.07,3.7-1.81,8.16,1.6,9.31,5.55s.18,8.17-.13,12.27c-.55,7.2,2.33,10.22,7.93,13.6C848.24,596.37,846.29,564.12,836.33,539.08Z"/></g><path id="_Görbe_10" data-name="&lt;Görbe&gt;" class="cls-8" d="M768.17,474.24a112.45,112.45,0,0,1-88.73,205.93,112.46,112.46,0,1,0,88.73-205.93Z"/></g><g id="_Csoport_7" data-name="&lt;Csoport&gt;"><rect id="_Téglalap_4" data-name="&lt;Téglalap&gt;" class="cls-9" x="318.59" y="652.11" width="493.98" height="357.78" rx="17.27" ry="17.27" transform="translate(-267.09 267.87) rotate(-21.69)"/><path id="_Görbe_11" data-name="&lt;Görbe&gt;" class="cls-11" d="M384.54,1044.12l4.68,11.77a35.11,35.11,0,0,0,45.6,19.64L828.58,918.91a35.1,35.1,0,0,0,19.64-45.59l-4.68-11.77Z"/><g id="_Csoport_8" data-name="&lt;Csoport&gt;"><g id="_Csoport_9" data-name="&lt;Csoport&gt;"><rect id="_Görbe_12" data-name="&lt;Görbe&gt;" class="cls-12" x="334.16" y="678.2" width="445.19" height="261.22" transform="translate(-259.51 263.04) rotate(-21.69)"/></g><g id="_Csoport_10" data-name="&lt;Csoport&gt;"><rect id="_Görbe_13" data-name="&lt;Görbe&gt;" class="cls-6" x="334.16" y="678.2" width="445.19" height="261.22" transform="translate(-259.51 263.04) rotate(-21.69)"/></g></g><circle id="_Görbe_14" data-name="&lt;Görbe&gt;" class="cls-13" cx="622.87" cy="975.03" r="10.16"/><g id="_Csoport_11" data-name="&lt;Csoport&gt;"><rect id="_Téglalap_5" data-name="&lt;Téglalap&gt;" class="cls-14" x="374.45" y="650.52" width="167.15" height="272.4" transform="translate(-258.34 224.99) rotate(-21.69)"/><rect id="_Téglalap_6" data-name="&lt;Téglalap&gt;" class="cls-14" x="529.77" y="588.75" width="167.15" height="272.4" transform="translate(-224.51 278.02) rotate(-21.69)"/></g><g id="_Csoport_12" data-name="&lt;Csoport&gt;"><rect id="_Téglalap_7" data-name="&lt;Téglalap&gt;" class="cls-4" x="387.03" y="635.58" width="148.86" height="270.03" transform="translate(-252.13 225.11) rotate(-21.69)"/><rect id="_Téglalap_8" data-name="&lt;Téglalap&gt;" class="cls-4" x="525.34" y="580.56" width="148.86" height="270.03" transform="translate(-222 272.34) rotate(-21.69)"/><rect id="_Téglalap_9" data-name="&lt;Téglalap&gt;" class="cls-15" x="387.39" y="675.29" width="56.32" height="77.96" transform="translate(-234.56 204.16) rotate(-21.69)"/><line id="_Görbe_15" data-name="&lt;Görbe&gt;" class="cls-6" x1="415" y1="789.07" x2="506.9" y2="752.52"/><line id="_Görbe_16" data-name="&lt;Görbe&gt;" class="cls-6" x1="424.83" y1="813.78" x2="516.73" y2="777.23"/><line id="_Görbe_17" data-name="&lt;Görbe&gt;" class="cls-6" x1="434.66" y1="838.5" x2="526.56" y2="801.94"/><line id="_Görbe_18" data-name="&lt;Görbe&gt;" class="cls-6" x1="444.49" y1="863.21" x2="536.39" y2="826.66"/></g><polygon id="_Görbe_19" data-name="&lt;Görbe&gt;" class="cls-13" points="697.03 818.91 563.9 587.83 563.49 587.99 626.98 747.6 582 864.66 697.03 818.91"/><polygon id="_Görbe_20" data-name="&lt;Görbe&gt;" class="cls-4" points="626.98 747.6 580.51 868.54 480.71 617.63 527.17 496.69 626.98 747.6"/><line id="_Görbe_21" data-name="&lt;Görbe&gt;" class="cls-6" x1="412.24" y1="951.51" x2="759.8" y2="813.27"/><path id="_Összetett_görbe_" data-name="&lt;Összetett görbe&gt;" class="cls-16" d="M406.44,653.19l-6.58-16.53-8.69,3.46a53,53,0,0,0-16.63-16.93l3.84-8.91-16.34-7-3.87,9a53,53,0,0,0-23.42-.27L331,606.61l-16.53,6.58,3.72,9.36a53,53,0,0,0-16.75,16.15l-9.35-4-7,16.34,9.21,4a53,53,0,0,0-.6,23.36L284.45,682,291,698.55l9-3.58a52.9,52.9,0,0,0,16.26,17.21l-3.77,8.75,16.34,7,3.66-8.5a52.91,52.91,0,0,0,24,.63l3.38,8.5L376.39,722l-3.31-8.33A52.83,52.83,0,0,0,390.46,697l8.31,3.58,7-16.33-8.29-3.57a52.94,52.94,0,0,0,.31-24Zm-29-1.6-22.39,8.91A11.88,11.88,0,0,0,345,656.16l-8.9-22.39A35.58,35.58,0,0,1,377.46,651.59Zm-48-15.19,8.9,22.39A11.9,11.9,0,0,0,334,668.86l-22.39,8.91A35.6,35.6,0,0,1,329.48,636.4Zm-15.2,48,22.39-8.91a11.88,11.88,0,0,0,10.08,4.34l8.9,22.39A35.61,35.61,0,0,1,314.28,684.38Zm48,15.19-8.9-22.39a11.92,11.92,0,0,0,4.34-10.07l22.39-8.91A35.6,35.6,0,0,1,362.26,699.57Z"/><path id="_Összetett_görbe_2" data-name="&lt;Összetett görbe&gt;" class="cls-16" d="M463.24,562l-5.44-13.68-9.21,3.67a30.15,30.15,0,0,0-6.2-6.54l3.87-9-13.51-5.83-3.82,8.86a30.34,30.34,0,0,0-9.18-.18l-3.55-8.91-13.67,5.44,3.54,8.91a30.33,30.33,0,0,0-6.55,6.44l-8.86-3.82-5.82,13.52,9,3.87a29.9,29.9,0,0,0,0,9l-9.21,3.67L390,591.06l9.42-3.75a30,30,0,0,0,6.18,6.19l-4.06,9.43,13.51,5.82,4.12-9.56a30,30,0,0,0,8.57.07l3.86,9.72,13.68-5.44-3.87-9.72a29.7,29.7,0,0,0,6.17-5.93l9.56,4.12L463,578.49l-9.42-4.06a30.05,30.05,0,0,0,.24-8.74Zm-36,16.16a9.52,9.52,0,1,1,5.33-12.37A9.53,9.53,0,0,1,427.28,578.11Z"/><path id="_Téglalap_10" data-name="&lt;Téglalap&gt;" class="cls-11" d="M569.63,1048.38H742.41a8.26,8.26,0,0,1,8.26,8.26v11.73a0,0,0,0,1,0,0H561.36a0,0,0,0,1,0,0v-11.73A8.26,8.26,0,0,1,569.63,1048.38Z" transform="translate(-344.72 317.4) rotate(-21.69)"/><rect id="_Téglalap_11" data-name="&lt;Téglalap&gt;" class="cls-11" x="598.08" y="995.25" width="87.87" height="55.81" transform="translate(-332.69 309.73) rotate(-21.69)"/><rect id="_Téglalap_12" data-name="&lt;Téglalap&gt;" class="cls-8" x="591.69" y="996.47" width="87.87" height="21.25" transform="translate(-327.21 306.23) rotate(-21.69)"/><line id="_Görbe_22" data-name="&lt;Görbe&gt;" class="cls-6" x1="441.04" y1="970.14" x2="495.54" y2="948.46"/><line id="_Görbe_23" data-name="&lt;Görbe&gt;" class="cls-6" x1="724.42" y1="857.42" x2="751.67" y2="846.58"/><line id="_Görbe_24" data-name="&lt;Görbe&gt;" class="cls-6" x1="573.14" y1="917.59" x2="674.01" y2="877.47"/></g><g id="_Csoport_13" data-name="&lt;Csoport&gt;"><line id="_Görbe_25" data-name="&lt;Görbe&gt;" class="cls-17" x1="307.43" y1="933.68" x2="279.73" y2="944.7"/><line id="_Görbe_26" data-name="&lt;Görbe&gt;" class="cls-17" x1="289.75" y1="901.03" x2="262.37" y2="889.24"/><line id="_Görbe_27" data-name="&lt;Görbe&gt;" class="cls-17" x1="305.21" y1="996.94" x2="317" y2="969.56"/></g><g id="_Csoport_14" data-name="&lt;Csoport&gt;"><line id="_Görbe_28" data-name="&lt;Görbe&gt;" class="cls-17" x1="780.43" y1="447.23" x2="792.23" y2="419.85"/><line id="_Görbe_29" data-name="&lt;Görbe&gt;" class="cls-17" x1="816.02" y1="457.81" x2="843.73" y2="446.79"/><line id="_Görbe_30" data-name="&lt;Görbe&gt;" class="cls-17" x1="737.28" y1="400.92" x2="748.3" y2="428.63"/></g><path id="_Görbe_31" data-name="&lt;Görbe&gt;" class="cls-6" d="M779.63,564.73a17.17,17.17,0,0,1,16.91,8.14"/><path id="_Görbe_32" data-name="&lt;Görbe&gt;" class="cls-6" d="M724,548.58s2-12.83-4.59-18.41"/><g id="_Csoport_15" data-name="&lt;Csoport&gt;"><path id="_Téglalap_13" data-name="&lt;Téglalap&gt;" class="cls-4" d="M916.08,924h61.48a7.08,7.08,0,0,1,7.08,7.08v21.38a0,0,0,0,1,0,0H908.41a0,0,0,0,1,0,0V931.7a7.67,7.67,0,0,1,7.67-7.67Z" transform="translate(-279.76 416.26) rotate(-21.69)"/><rect id="_Téglalap_14" data-name="&lt;Téglalap&gt;" class="cls-9" x="925.26" y="924.54" width="37.27" height="14.23" transform="translate(-277.5 414.82) rotate(-21.69)"/><rect id="_Téglalap_15" data-name="&lt;Téglalap&gt;" class="cls-8" x="934.25" y="918.18" width="11.4" height="7.11" transform="translate(-274.11 412.66) rotate(-21.69)"/></g><g id="_Csoport_16" data-name="&lt;Csoport&gt;"><line class="cls-6" x1="348.19" y1="790.48" x2="344.48" y2="791.96"/><path class="cls-18" d="M337,794.94,182,856.6a111.13,111.13,0,0,0-62.19,144.33l9.48,23.83"/><line class="cls-6" x1="130.75" y1="1028.5" x2="132.23" y2="1032.22"/></g><g id="_Csoport_17" data-name="&lt;Csoport&gt;"><g id="_Csoport_18" data-name="&lt;Csoport&gt;"><path id="_Görbe_33" data-name="&lt;Görbe&gt;" class="cls-19" d="M242.07,1043.44l-3.76-9.44L77.13,1098.11a22.36,22.36,0,1,0,16.53,41.56l161.18-64.11-3.76-9.45L98.4,1126.84l-9-22.66Z"/><rect id="_Téglalap_16" data-name="&lt;Téglalap&gt;" class="cls-6" x="88.53" y="1075.33" width="151.45" height="24.39" transform="translate(-390.31 137.71) rotate(-21.69)"/><line id="_Görbe_34" data-name="&lt;Görbe&gt;" class="cls-6" x1="234.61" y1="1059.54" x2="93.89" y2="1115.51"/></g><path id="_Görbe_35" data-name="&lt;Görbe&gt;" class="cls-20" d="M266.76,1070.81l-173.1,68.86L98.18,1151l161.19-64.11,6.51,16.37-161.19,64.12,4.53,11.37,173.1-68.85a21,21,0,0,0,11.78-27.34h0A21,21,0,0,0,266.76,1070.81Z"/></g><line id="_Görbe_36" data-name="&lt;Görbe&gt;" class="cls-6" x1="770.01" y1="942.21" x2="798.03" y2="1012.64"/><line id="_Görbe_37" data-name="&lt;Görbe&gt;" class="cls-6" x1="793.2" y1="932.99" x2="821.21" y2="1003.42"/><path id="_Görbe_38" data-name="&lt;Görbe&gt;" class="cls-21" d="M723.06,717.34l201.59-80.19a51.3,51.3,0,0,1,66.62,28.71l8.47,21.3"/><g id="_Csoport_19" data-name="&lt;Csoport&gt;"><path id="_Görbe_39" data-name="&lt;Görbe&gt;" class="cls-9" d="M175.26,752,146.09,777a114.07,114.07,0,0,1-68.82,27.38L39,806.24l-10-72.71L132.6,692.29Z"/><polygon id="_Görbe_40" data-name="&lt;Görbe&gt;" class="cls-8" points="151.43 695.05 75.83 700.49 17.14 748.46 -12.68 760.32 -8.92 769.77 100.25 761.91 185 692.63 181.25 683.19 151.43 695.05"/><polygon id="_Görbe_41" data-name="&lt;Görbe&gt;" class="cls-9" points="72.07 691.04 -12.68 760.32 96.5 752.47 181.25 683.19 72.07 691.04"/><path id="_Görbe_42" data-name="&lt;Görbe&gt;" class="cls-22" d="M37.48,795.6l35.61-1.78a114.12,114.12,0,0,0,68.82-27.37L169,743.28l-6.57-9.19L137.52,755.4A114.12,114.12,0,0,1,68.7,782.77l-32.76,1.64Z"/><polyline id="_Görbe_43" data-name="&lt;Görbe&gt;" class="cls-6" points="84.28 721.75 136.26 719.96 162.6 786.2"/><circle id="_Görbe_44" data-name="&lt;Görbe&gt;" class="cls-8" cx="160.52" cy="780.97" r="6.86"/><path id="_Görbe_45" data-name="&lt;Görbe&gt;" class="cls-8" d="M160.52,781s-6.05,12.29.22,28l9.44-3.76,9.44-3.75C173.36,785.75,160.52,781,160.52,781Z"/></g><g id="_Csoport_20" data-name="&lt;Csoport&gt;"><text class="cls-23" transform="translate(-40.86 762.31) rotate(-21.69)"><tspan class="cls-24">A</tspan><tspan x="28.35" y="0">+</tspan></text></g><g id="_Csoport_21" data-name="&lt;Csoport&gt;"><rect id="_Téglalap_17" data-name="&lt;Téglalap&gt;" class="cls-4" x="909.74" y="381.29" width="129.42" height="166.69" transform="translate(-102.73 393.05) rotate(-21.69)"/><rect id="_Téglalap_18" data-name="&lt;Téglalap&gt;" class="cls-7" x="902.06" y="398.75" width="127.33" height="160.59" transform="translate(-108.67 390.84) rotate(-21.69)"/><rect id="_Téglalap_19" data-name="&lt;Téglalap&gt;" class="cls-15" x="945.18" y="432.84" width="72.76" height="24.4" transform="translate(-94.98 394.29) rotate(-21.69)"/></g><g id="_Csoport_22" data-name="&lt;Csoport&gt;"><line class="cls-6" x1="873.02" y1="560.77" x2="876.74" y2="559.29"/><line class="cls-25" x1="883.83" y1="556.47" x2="965.41" y2="524.02"/><line class="cls-6" x1="968.96" y1="522.61" x2="972.67" y2="521.13"/></g><g id="_Csoport_23" data-name="&lt;Csoport&gt;"><line class="cls-6" x1="34.03" y1="672.42" x2="37.75" y2="670.95"/><line class="cls-26" x1="45.35" y1="667.92" x2="330.2" y2="554.62"/><polyline class="cls-6" points="334 553.11 337.72 551.63 339.19 555.35"/><line class="cls-27" x1="342.97" y1="564.85" x2="348.64" y2="579.09"/><line class="cls-6" x1="350.53" y1="583.84" x2="352.01" y2="587.56"/></g><g id="_Csoport_24" data-name="&lt;Csoport&gt;"><polygon id="_Görbe_46" data-name="&lt;Görbe&gt;" class="cls-4" points="599.24 447.61 686.33 412.97 601.28 471.39 599.24 447.61"/><polygon id="_Görbe_47" data-name="&lt;Görbe&gt;" class="cls-4" points="607.69 468.84 617.13 472.91 686.33 412.97 607.69 468.84"/></g><g id="_Csoport_25" data-name="&lt;Csoport&gt;"><polygon id="_Görbe_48" data-name="&lt;Görbe&gt;" class="cls-4" points="911.54 299.19 824.45 333.83 926.4 317.88 911.54 299.19"/><polygon id="_Görbe_49" data-name="&lt;Görbe&gt;" class="cls-4" points="919.99 320.43 915.92 329.87 824.45 333.83 919.99 320.43"/></g><line class="cls-28" x1="173" y1="1264" x2="1377" y2="784"/><path class="cls-29" d="M744.09,159.58l-.39-59.83c0-1.47,1-2.21,2.89-2.22,1.64,0,3.18,1.33,4.6,4l24.06,46.67-.31-48.75c0-1.41.95-2.12,2.89-2.13s2.91.68,2.92,2.09l.38,59.93a1.9,1.9,0,0,1-.87,1.67,3.35,3.35,0,0,1-2,.63c-1.46,0-2.76-1.09-3.89-3.32l-24.77-47.45.31,48.67a1.9,1.9,0,0,1-.87,1.67,3.71,3.71,0,0,1-4.09,0A2,2,0,0,1,744.09,159.58Z"/><path class="cls-29" d="M791.25,145.47l-.06-9.86A15.38,15.38,0,0,1,796,124.18a17,17,0,0,1,23.46-.36,15.06,15.06,0,0,1,5,11.42,11.39,11.39,0,0,1-.54,3.95,3.68,3.68,0,0,1-1.84,2.12,8.9,8.9,0,0,1-2.33.81,19.17,19.17,0,0,1-2.9.19l-19.89.13,0,3.25a10.3,10.3,0,0,0,3.8,8.29,14.51,14.51,0,0,0,9.65,3.07,14.33,14.33,0,0,0,5.23-.92,14.74,14.74,0,0,0,3.42-1.78,3.6,3.6,0,0,1,1.89-.89,2.18,2.18,0,0,1,1.72.91,2.9,2.9,0,0,1,.76,1.8c0,1.23-1.24,2.52-3.76,3.85a20,20,0,0,1-9.4,2q-8.35.06-13.67-4.53A15.34,15.34,0,0,1,791.25,145.47Zm5.68-7.26,17.6-.11a7.24,7.24,0,0,0,3.51-.59,2.67,2.67,0,0,0,.87-2.41,10.91,10.91,0,0,0-3.18-7.68,10.34,10.34,0,0,0-7.89-3.27,10.74,10.74,0,0,0-7.77,3.2,10.13,10.13,0,0,0-3.16,7.54Z"/><path class="cls-29" d="M833,148.38l-.29-46.3a1.75,1.75,0,0,1,.87-1.5,3.23,3.23,0,0,1,1.93-.63,3.4,3.4,0,0,1,2,.6,1.79,1.79,0,0,1,.89,1.48l.11,17.61,11.35-.07a1.79,1.79,0,0,1,1.46.71,2.62,2.62,0,0,1,.58,1.69,2.66,2.66,0,0,1-.56,1.71,1.8,1.8,0,0,1-1.45.73l-11.35.07.15,23.74q0,4.28,1.84,6t6.4,1.66h2.46a2.53,2.53,0,0,1,1.9.76,2.61,2.61,0,0,1,.76,1.86,2.76,2.76,0,0,1-.74,1.92,2.45,2.45,0,0,1-1.89.83H847Q833.07,161.3,833,148.38Z"/><path class="cls-29" d="M855.67,158.69a1.32,1.32,0,0,1,.08-.61l18-59.87c.4-1.35,1.53-2,3.4-2s3,.66,3.51,2l18.73,59.76a1.09,1.09,0,0,0,0,.26,1.08,1.08,0,0,1,0,.25,2,2,0,0,1-1.13,1.72,4.48,4.48,0,0,1-2.37.73,2.11,2.11,0,0,1-2.21-1.48l-4.14-13.53-24.3.16-4,13.59c-.23,1-1,1.49-2.29,1.49a4.08,4.08,0,0,1-2.31-.68A2.06,2.06,0,0,1,855.67,158.69ZM866.81,141l21.3-.14-10.84-35.47Z"/><path class="cls-29" d="M905.3,144.73l-.06-9.41q0-7.4,4.23-12t12.64-4.7a18.69,18.69,0,0,1,8.86,1.83q3.57,1.88,3.59,3.81a2.91,2.91,0,0,1-.78,1.89,2.33,2.33,0,0,1-1.76.94,3.48,3.48,0,0,1-1.63-.76,15.86,15.86,0,0,0-3.13-1.56,12.91,12.91,0,0,0-4.85-.79c-3.75,0-6.61,1-8.56,3s-2.92,4.78-2.89,8.34l.06,9.36q0,5.43,3,8.38c2,2,4.87,2.95,8.69,2.92a13.85,13.85,0,0,0,5-.84,14.15,14.15,0,0,0,3.16-1.65,3.28,3.28,0,0,1,1.71-.82,2.38,2.38,0,0,1,1.9.86,3,3,0,0,1,.76,1.93c0,1.35-1.22,2.67-3.67,3.94a19.9,19.9,0,0,1-9.14,2q-8.46.06-12.79-4.49T905.3,144.73Z"/><path class="cls-29" d="M940.09,149.62q0-6.93,5.17-9.66t15.25-2.8l4.49,0v-2.07a13.6,13.6,0,0,0-2.61-8.23q-2.57-3.48-7.85-3.44a15.58,15.58,0,0,0-6.37,1.29,31.15,31.15,0,0,1-3,1.27,1.93,1.93,0,0,1-1.68-.94,3.87,3.87,0,0,1-.63-2.08c0-1.11,1.25-2.15,3.77-3.1a23.13,23.13,0,0,1,8.08-1.46q8.28-.06,12.13,4.72t3.91,12.16l.15,22.88a2,2,0,0,1-.79,1.63,3,3,0,0,1-2,.68,2.75,2.75,0,0,1-1.89-.65,2.09,2.09,0,0,1-.76-1.62l0-3.88q-5.86,6.83-13.25,6.86a12.52,12.52,0,0,1-8.64-2.89Q940.13,155.34,940.09,149.62Zm5.71-.57a6.89,6.89,0,0,0,2.15,5.49,8.3,8.3,0,0,0,5.56,1.77,12.19,12.19,0,0,0,7.85-3.14c2.48-2.06,3.72-4.13,3.7-6.18l0-5.63-3.7,0q-3.51,0-5.94.3a27.77,27.77,0,0,0-4.79,1A6.9,6.9,0,0,0,947,145,6.47,6.47,0,0,0,945.8,149.05Z"/><path class="cls-29" d="M979.92,144.26l-.06-9.6A16.2,16.2,0,0,1,984.4,123a14.79,14.79,0,0,1,11.1-4.91,12.94,12.94,0,0,1,11.66,6.69L1007,95.24a1.81,1.81,0,0,1,.87-1.5,3.68,3.68,0,0,1,2.11-.63,3,3,0,0,1,2,.6,1.85,1.85,0,0,1,.76,1.49l.4,62.66a2,2,0,0,1-.78,1.59,2.92,2.92,0,0,1-3.83,0,2.05,2.05,0,0,1-.84-1.6l0-3.92a12.55,12.55,0,0,1-4.76,4.89,13.76,13.76,0,0,1-7.25,2,14.42,14.42,0,0,1-10.94-5A16.68,16.68,0,0,1,979.92,144.26Zm5.72-.07a11.3,11.3,0,0,0,3.3,7.86,10.14,10.14,0,0,0,7.68,3.45,10.44,10.44,0,0,0,7.46-3.2c2.16-2.11,3.23-4,3.22-5.53l-.08-12.26a10.6,10.6,0,0,0-3.26-8,10.48,10.48,0,0,0-7.45-3,10.35,10.35,0,0,0-7.73,3.46,10.88,10.88,0,0,0-3.2,7.72Z"/><path class="cls-29" d="M1022.51,144l-.06-9.85a15.34,15.34,0,0,1,4.85-11.43,17,17,0,0,1,23.45-.37,15,15,0,0,1,5,11.42,11.19,11.19,0,0,1-.55,4,3.69,3.69,0,0,1-1.83,2.12,9,9,0,0,1-2.33.8,19,19,0,0,1-2.9.2l-19.89.12,0,3.26a10.29,10.29,0,0,0,3.79,8.29,14.5,14.5,0,0,0,9.66,3.06,14.17,14.17,0,0,0,5.23-.91,15.59,15.59,0,0,0,3.42-1.78,3.6,3.6,0,0,1,1.89-.89,2.16,2.16,0,0,1,1.72.91,2.93,2.93,0,0,1,.76,1.8c0,1.23-1.25,2.52-3.76,3.85a20.08,20.08,0,0,1-9.4,2q-8.37.06-13.67-4.53A15.31,15.31,0,0,1,1022.51,144Zm5.67-7.25,17.6-.11a7.32,7.32,0,0,0,3.52-.59,2.7,2.7,0,0,0,.86-2.41,10.93,10.93,0,0,0-3.17-7.68,10.36,10.36,0,0,0-7.9-3.27,10.7,10.7,0,0,0-7.77,3.2,10.17,10.17,0,0,0-3.16,7.54Z"/><path class="cls-29" d="M1064.48,157.53l-.23-37.22a1.8,1.8,0,0,1,.78-1.5,3.11,3.11,0,0,1,2-.63,3,3,0,0,1,1.94.61,1.86,1.86,0,0,1,.8,1.51l0,4.1a13,13,0,0,1,11.66-6.84,12.52,12.52,0,0,1,7.58,2.39,14.3,14.3,0,0,1,5,6.4,16.33,16.33,0,0,1,5.76-6.65,14.08,14.08,0,0,1,18,2.11q4.42,4.45,4.48,11.94l.15,23.41a2,2,0,0,1-.83,1.59,3.07,3.07,0,0,1-2.06.71,3,3,0,0,1-2-.68,2,2,0,0,1-.84-1.58l-.15-23.35a11,11,0,0,0-3.09-8.15,9.76,9.76,0,0,0-7-2.94,10,10,0,0,0-7.15,3.08,10.34,10.34,0,0,0-3.07,7.79l.15,23.79c0,1.46-.95,2.2-2.89,2.21s-2.82-.71-2.83-2.17l-.15-23.71a10.87,10.87,0,0,0-3-7.75,9.42,9.42,0,0,0-7.1-3.07,10.09,10.09,0,0,0-7.24,3.08,10.79,10.79,0,0,0-3.08,8.14l.15,23.35a2,2,0,0,1-.87,1.58,3.12,3.12,0,0,1-2,.72,3,3,0,0,1-2-.69A2.08,2.08,0,0,1,1064.48,157.53Z"/><path class="cls-29" d="M1132.78,104.33a3.5,3.5,0,0,1-1.16-2.58,3.36,3.36,0,0,1,1.13-2.56,4,4,0,0,1,2.81-1.08,3.75,3.75,0,0,1,2.69,1,3.42,3.42,0,0,1,1.12,2.55,3.58,3.58,0,0,1-1.09,2.6,3.66,3.66,0,0,1-2.67,1.12A4,4,0,0,1,1132.78,104.33Zm.34,52.76-.24-37.22a1.83,1.83,0,0,1,.79-1.5,3.11,3.11,0,0,1,2-.63,3.34,3.34,0,0,1,2.07.6,1.8,1.8,0,0,1,.84,1.49l.24,37.22a2,2,0,0,1-.87,1.59,3.14,3.14,0,0,1-2,.72,3,3,0,0,1-2-.69A2.08,2.08,0,0,1,1133.12,157.09Z"/><path class="cls-29" d="M1147,148.29q0-6.93,5.17-9.66t15.25-2.79l4.49,0v-2.07a13.58,13.58,0,0,0-2.61-8.23q-2.57-3.48-7.85-3.45a15.75,15.75,0,0,0-6.37,1.29,30,30,0,0,1-3,1.27,1.91,1.91,0,0,1-1.68-.94,3.82,3.82,0,0,1-.63-2.07c0-1.12,1.25-2.15,3.77-3.11a23.13,23.13,0,0,1,8.08-1.46q8.28,0,12.13,4.72t3.91,12.16l.15,22.88a2.08,2.08,0,0,1-.78,1.64,3.11,3.11,0,0,1-2,.67,2.76,2.76,0,0,1-1.9-.65,2.09,2.09,0,0,1-.76-1.62l0-3.87q-5.87,6.81-13.25,6.86a12.52,12.52,0,0,1-8.64-2.9Q1147,154,1147,148.29Zm5.72-.57c0,2.47.73,4.3,2.14,5.49a8.3,8.3,0,0,0,5.56,1.77,12.26,12.26,0,0,0,7.86-3.13c2.47-2.07,3.71-4.13,3.7-6.19l0-5.63-3.7,0a53.83,53.83,0,0,0-5.93.3,26.5,26.5,0,0,0-4.79,1,6.89,6.89,0,0,0-3.6,2.31A6.41,6.41,0,0,0,1152.69,147.72Z"/></svg>