<svg id="Réteg_1" data-name="Réteg 1" xmlns="http://www.w3.org/2000/svg" xmlns:xlink="http://www.w3.org/1999/xlink" viewBox="0 0 1920 1080"><defs><style>.cls-1,.cls-2,.cls-3{opacity:0.39;}.cls-1{fill:url(#Névtelen_színátmenet_38);}.cls-2{fill:url(#Névtelen_színátmenet_38-2);}.cls-3{fill:url(#Névtelen_színátmenet_38-3);}.cls-29,.cls-4{fill:#fff;}.cls-10,.cls-11,.cls-14,.cls-15,.cls-16,.cls-18,.cls-19,.cls-20,.cls-21,.cls-22,.cls-25,.cls-26,.cls-27,.cls-28,.cls-4,.cls-6,.cls-7,.cls-8,.cls-9{stroke:#34508b;}.cls-10,.cls-11,.cls-14,.cls-15,.cls-16,.cls-17,.cls-18,.cls-19,.cls-20,.cls-21,.cls-22,.cls-25,.cls-26,.cls-27,.cls-4,.cls-6,.cls-7,.cls-8,.cls-9{stroke-linecap:round;stroke-linejoin:round;stroke-width:3px;}.cls-14,.cls-5{fill:#f7ab6f;}.cls-17,.cls-18,.cls-21,.cls-25,.cls-26,.cls-27,.cls-28,.cls-6{fill:none;}.cls-7{fill:#ff6aa9;}.cls-13,.cls-23,.cls-8{fill:#34508b;}.cls-9{fill:#62c3ef;}.cls-10{fill:#a5d996;}.cls-11,.cls-12{fill:#fbf8f3;}.cls-15{fill:#3bddba;}.cls-16{fill:#dcdee0;}.cls-17{stroke:#f7ab6f;}.cls-18{stroke-dasharray:8.07 8.07;}.cls-19{fill:#ffd3a2;}.cls-20{fill:#ff9f9e;}.cls-21{stroke-dasharray:8;}.cls-22{fill:#fffaad;}.cls-23{font-size:38.15px;font-family:Montserrat-Bold, Montserrat;font-weight:700;}.cls-24{letter-spacing:-0.02em;}.cls-25{stroke-dasharray:7.63 7.63;}.cls-26{stroke-dasharray:8.17 8.17;}.cls-27{stroke-dasharray:10.22 10.22;}.cls-28{stroke-miterlimit:10;stroke-width:2px;}.cls-29{font-size:120px;font-family:Dosis-Regular, Dosis;}.cls-30{letter-spacing:-0.01em;}</style><linearGradient id="Névtelen_színátmenet_38" x1="1439.37" y1="-281.27" x2="661.86" y2="1065.42" gradientUnits="userSpaceOnUse"><stop offset="0.2" stop-color="#00d49d"/><stop offset="0.56" stop-color="aqua"/><stop offset="0.81" stop-color="#21bce8"/></linearGradient><linearGradient id="Névtelen_színátmenet_38-2" x1="1470.15" y1="-258.76" x2="674.14" y2="1119.97" xlink:href="#Névtelen_színátmenet_38"/><linearGradient id="Névtelen_színátmenet_38-3" x1="1489.7" y1="-249.9" x2="681.78" y2="1149.47" xlink:href="#Névtelen_színátmenet_38"/></defs><title>t-bg-1</title><path class="cls-1" d="M-8-2.36l3,570S179.9,978.45,502,774C669,668,749,595,811,577c99.27-28.82,204-24.1,326,133.15s155.85,221.54,472,160.57c45.19-8.71,164-3.42,90,138.45S1919,1116,1919,1116L1930,2Z"/><path class="cls-2" d="M-11,0l3,650.17S320.35,1106.33,586,794c79-92.88,168-145.47,219-150.44,27.81-2.72,207-10.19,329,169.17s155.85,252.7,472,183.16c45.19-9.94,164-3.9,90,157.92s220,121.84,220,121.84L1927,5Z"/><path class="cls-3" d="M-12-3.35l3,698.93S389.35,1157.75,655,822c79-99.85,127-118.65,178-124,27.81-2.92,178-20.5,300,172.31S1288.85,1142,1605,1067.2c45.19-10.68,164-4.19,90,169.77s220,131,220,131L1926,2Z"/><g id="_Csoport_" data-name="&lt;Csoport&gt;"><rect id="_Téglalap_" data-name="&lt;Téglalap&gt;" class="cls-4" x="914.88" y="672.5" width="275.41" height="164.86" transform="translate(-204.49 442.48) rotate(-21.69)"/><g id="_Csoport_2" data-name="&lt;Csoport&gt;"><g id="_Csoport_3" data-name="&lt;Csoport&gt;"><g id="_Csoport_4" data-name="&lt;Csoport&gt;"><polygon id="_Görbe_" data-name="&lt;Görbe&gt;" class="cls-5" points="1085.57 708.3 1089.83 699.56 1084.48 691.43 1093.07 686.87 1093.51 677.15 1103.14 678.51 1109.21 670.9 1116.21 677.66 1125.59 675.08 1127.28 684.66 1136.38 688.09 1132.12 696.83 1137.47 704.96 1128.88 709.52 1128.44 719.24 1118.8 717.88 1112.73 725.49 1105.74 718.72 1096.36 721.31 1094.67 711.73 1085.57 708.3"/><polygon id="_Görbe_2" data-name="&lt;Görbe&gt;" class="cls-6" points="1085.57 708.3 1089.83 699.56 1084.48 691.43 1093.07 686.87 1093.51 677.15 1103.14 678.51 1109.21 670.9 1116.21 677.66 1125.59 675.08 1127.28 684.66 1136.38 688.09 1132.12 696.83 1137.47 704.96 1128.88 709.52 1128.44 719.24 1118.8 717.88 1112.73 725.49 1105.74 718.72 1096.36 721.31 1094.67 711.73 1085.57 708.3"/></g><circle id="_Görbe_3" data-name="&lt;Görbe&gt;" class="cls-7" cx="1110.97" cy="698.19" r="11.81"/></g><rect id="_Téglalap_2" data-name="&lt;Téglalap&gt;" class="cls-8" x="931.79" y="723.52" width="92.16" height="9.83" transform="translate(-199.98 412.99) rotate(-21.69)"/><rect id="_Téglalap_3" data-name="&lt;Téglalap&gt;" class="cls-8" x="941.4" y="747.69" width="92.16" height="9.83" transform="translate(-208.24 418.25) rotate(-21.69)"/><line id="_Görbe_4" data-name="&lt;Görbe&gt;" class="cls-6" x1="960.92" y1="810.5" x2="1157.37" y2="732.37"/><line id="_Görbe_5" data-name="&lt;Görbe&gt;" class="cls-6" x1="1079.87" y1="777.69" x2="1162.35" y2="744.88"/><line id="_Görbe_6" data-name="&lt;Görbe&gt;" class="cls-6" x1="1084.65" y1="789.73" x2="1167.14" y2="756.92"/><line id="_Görbe_7" data-name="&lt;Görbe&gt;" class="cls-6" x1="1089.44" y1="801.77" x2="1171.93" y2="768.96"/></g></g><g id="_Csoport_5" data-name="&lt;Csoport&gt;"><g id="_Csoport_6" data-name="&lt;Csoport&gt;"><circle id="_Görbe_8" data-name="&lt;Görbe&gt;" class="cls-9" cx="729.81" cy="592.65" r="112.48"/><path id="_Görbe_9" data-name="&lt;Görbe&gt;" class="cls-10" d="M834.33,551.08a112.48,112.48,0,0,0-146.09-63q-2.81,1.13-5.52,2.38c-2.61,19.32,1,37.32,2.12,56.56a13.46,13.46,0,0,1,22.63,12.78c-1.84,7.17-9,11.44-13.76,17.06-8.58,10-9.39,25.91-1.88,36.76a52.09,52.09,0,0,1,4.35,6.35c1,2,1.53,4.24,2.72,6.14,3,4.78,9.61,6.28,15,4.69s9.74-5.64,13.32-10c4.77-5.79,9.51-12.92,17-13.88,6.48-.83,13.62,3.41,19.25.1,4.07-2.39,5.24-7.57,7.15-11.88s6.55-8.61,10.8-6.57a39.71,39.71,0,0,1,16.15,21c1,3.14,1.67,6.48,3.57,9.17s5.56,4.55,8.53,3.14c6.86-3.26,1-16.75,7.79-20.07,3.7-1.81,8.16,1.6,9.31,5.55s.18,8.17-.13,12.27c-.55,7.2,2.33,10.22,7.93,13.6C846.24,608.37,844.29,576.12,834.33,551.08Z"/></g><path id="_Görbe_10" data-name="&lt;Görbe&gt;" class="cls-8" d="M766.17,486.24a112.45,112.45,0,0,1-88.73,205.93,112.46,112.46,0,1,0,88.73-205.93Z"/></g><g id="_Csoport_7" data-name="&lt;Csoport&gt;"><rect id="_Téglalap_4" data-name="&lt;Téglalap&gt;" class="cls-9" x="316.59" y="664.11" width="493.98" height="357.78" rx="17.27" ry="17.27" transform="translate(-271.66 267.98) rotate(-21.69)"/><path id="_Görbe_11" data-name="&lt;Görbe&gt;" class="cls-11" d="M382.54,1056.12l4.68,11.77a35.11,35.11,0,0,0,45.6,19.64L826.58,930.91a35.1,35.1,0,0,0,19.64-45.59l-4.68-11.77Z"/><g id="_Csoport_8" data-name="&lt;Csoport&gt;"><g id="_Csoport_9" data-name="&lt;Csoport&gt;"><rect id="_Görbe_12" data-name="&lt;Görbe&gt;" class="cls-12" x="332.16" y="690.2" width="445.19" height="261.22" transform="translate(-264.08 263.15) rotate(-21.69)"/></g><g id="_Csoport_10" data-name="&lt;Csoport&gt;"><rect id="_Görbe_13" data-name="&lt;Görbe&gt;" class="cls-6" x="332.16" y="690.2" width="445.19" height="261.22" transform="translate(-264.08 263.15) rotate(-21.69)"/></g></g><circle id="_Görbe_14" data-name="&lt;Görbe&gt;" class="cls-13" cx="620.87" cy="987.03" r="10.16"/><g id="_Csoport_11" data-name="&lt;Csoport&gt;"><rect id="_Téglalap_5" data-name="&lt;Téglalap&gt;" class="cls-14" x="372.45" y="662.52" width="167.15" height="272.4" transform="translate(-262.91 225.1) rotate(-21.69)"/><rect id="_Téglalap_6" data-name="&lt;Téglalap&gt;" class="cls-14" x="527.77" y="600.75" width="167.15" height="272.4" transform="translate(-229.08 278.13) rotate(-21.69)"/></g><g id="_Csoport_12" data-name="&lt;Csoport&gt;"><rect id="_Téglalap_7" data-name="&lt;Téglalap&gt;" class="cls-4" x="385.03" y="647.58" width="148.86" height="270.03" transform="translate(-256.71 225.22) rotate(-21.69)"/><rect id="_Téglalap_8" data-name="&lt;Téglalap&gt;" class="cls-4" x="523.34" y="592.56" width="148.86" height="270.03" transform="translate(-226.58 272.45) rotate(-21.69)"/><rect id="_Téglalap_9" data-name="&lt;Téglalap&gt;" class="cls-15" x="385.39" y="687.29" width="56.32" height="77.96" transform="translate(-239.14 204.27) rotate(-21.69)"/><line id="_Görbe_15" data-name="&lt;Görbe&gt;" class="cls-6" x1="413" y1="801.07" x2="504.9" y2="764.52"/><line id="_Görbe_16" data-name="&lt;Görbe&gt;" class="cls-6" x1="422.83" y1="825.78" x2="514.73" y2="789.23"/><line id="_Görbe_17" data-name="&lt;Görbe&gt;" class="cls-6" x1="432.66" y1="850.5" x2="524.56" y2="813.94"/><line id="_Görbe_18" data-name="&lt;Görbe&gt;" class="cls-6" x1="442.49" y1="875.21" x2="534.39" y2="838.66"/></g><polygon id="_Görbe_19" data-name="&lt;Görbe&gt;" class="cls-13" points="695.03 830.91 561.9 599.83 561.49 599.99 624.98 759.6 580 876.66 695.03 830.91"/><polygon id="_Görbe_20" data-name="&lt;Görbe&gt;" class="cls-4" points="624.98 759.6 578.51 880.54 478.71 629.63 525.17 508.69 624.98 759.6"/><line id="_Görbe_21" data-name="&lt;Görbe&gt;" class="cls-6" x1="410.24" y1="963.51" x2="757.8" y2="825.27"/><path id="_Összetett_görbe_" data-name="&lt;Összetett görbe&gt;" class="cls-16" d="M404.44,665.19l-6.58-16.53-8.69,3.46a53,53,0,0,0-16.63-16.93l3.84-8.91-16.34-7-3.87,9a53,53,0,0,0-23.42-.27L329,618.61l-16.53,6.58,3.72,9.36a53,53,0,0,0-16.75,16.15l-9.35-4-7,16.34,9.21,4a53,53,0,0,0-.6,23.36L282.45,694,289,710.55l9-3.58a52.9,52.9,0,0,0,16.26,17.21l-3.77,8.75,16.34,7,3.66-8.5a52.91,52.91,0,0,0,24,.63l3.38,8.5L374.39,734l-3.31-8.33A52.83,52.83,0,0,0,388.46,709l8.31,3.58,7-16.33-8.29-3.57a52.94,52.94,0,0,0,.31-24Zm-29-1.6-22.39,8.91A11.88,11.88,0,0,0,343,668.16l-8.9-22.39A35.58,35.58,0,0,1,375.46,663.59Zm-48-15.19,8.9,22.39A11.9,11.9,0,0,0,332,680.86l-22.39,8.91A35.6,35.6,0,0,1,327.48,648.4Zm-15.2,48,22.39-8.91a11.88,11.88,0,0,0,10.08,4.34l8.9,22.39A35.61,35.61,0,0,1,312.28,696.38Zm48,15.19-8.9-22.39a11.92,11.92,0,0,0,4.34-10.07l22.39-8.91A35.6,35.6,0,0,1,360.26,711.57Z"/><path id="_Összetett_görbe_2" data-name="&lt;Összetett görbe&gt;" class="cls-16" d="M461.24,574l-5.44-13.68-9.21,3.67a30.15,30.15,0,0,0-6.2-6.54l3.87-9-13.51-5.83-3.82,8.86a30.34,30.34,0,0,0-9.18-.18l-3.55-8.91-13.67,5.44,3.54,8.91a30.33,30.33,0,0,0-6.55,6.44l-8.86-3.82-5.82,13.52,9,3.87a29.9,29.9,0,0,0,0,9l-9.21,3.67L388,603.06l9.42-3.75a30,30,0,0,0,6.18,6.19l-4.06,9.43,13.51,5.82,4.12-9.56a30,30,0,0,0,8.57.07l3.86,9.72,13.68-5.44-3.87-9.72a29.7,29.7,0,0,0,6.17-5.93l9.56,4.12L461,590.49l-9.42-4.06a30.05,30.05,0,0,0,.24-8.74Zm-36,16.16a9.52,9.52,0,1,1,5.33-12.37A9.53,9.53,0,0,1,425.28,590.11Z"/><path id="_Téglalap_10" data-name="&lt;Téglalap&gt;" class="cls-11" d="M567.63,1060.38H740.41a8.26,8.26,0,0,1,8.26,8.26v11.73a0,0,0,0,1,0,0H559.36a0,0,0,0,1,0,0v-11.73A8.26,8.26,0,0,1,567.63,1060.38Z" transform="translate(-349.29 317.51) rotate(-21.69)"/><rect id="_Téglalap_11" data-name="&lt;Téglalap&gt;" class="cls-11" x="596.08" y="1007.25" width="87.87" height="55.81" transform="translate(-337.27 309.84) rotate(-21.69)"/><rect id="_Téglalap_12" data-name="&lt;Téglalap&gt;" class="cls-8" x="589.69" y="1008.47" width="87.87" height="21.25" transform="translate(-331.79 306.34) rotate(-21.69)"/><line id="_Görbe_22" data-name="&lt;Görbe&gt;" class="cls-6" x1="439.04" y1="982.14" x2="493.54" y2="960.46"/><line id="_Görbe_23" data-name="&lt;Görbe&gt;" class="cls-6" x1="722.42" y1="869.42" x2="749.67" y2="858.58"/><line id="_Görbe_24" data-name="&lt;Görbe&gt;" class="cls-6" x1="571.14" y1="929.59" x2="672.01" y2="889.47"/></g><g id="_Csoport_13" data-name="&lt;Csoport&gt;"><line id="_Görbe_25" data-name="&lt;Görbe&gt;" class="cls-17" x1="305.43" y1="945.68" x2="277.73" y2="956.7"/><line id="_Görbe_26" data-name="&lt;Görbe&gt;" class="cls-17" x1="287.75" y1="913.03" x2="260.37" y2="901.24"/><line id="_Görbe_27" data-name="&lt;Görbe&gt;" class="cls-17" x1="303.21" y1="1008.94" x2="315" y2="981.56"/></g><g id="_Csoport_14" data-name="&lt;Csoport&gt;"><line id="_Görbe_28" data-name="&lt;Görbe&gt;" class="cls-17" x1="778.43" y1="459.23" x2="790.23" y2="431.85"/><line id="_Görbe_29" data-name="&lt;Görbe&gt;" class="cls-17" x1="814.02" y1="469.81" x2="841.73" y2="458.79"/><line id="_Görbe_30" data-name="&lt;Görbe&gt;" class="cls-17" x1="735.28" y1="412.92" x2="746.3" y2="440.63"/></g><path id="_Görbe_31" data-name="&lt;Görbe&gt;" class="cls-6" d="M777.63,576.73a17.17,17.17,0,0,1,16.91,8.14"/><path id="_Görbe_32" data-name="&lt;Görbe&gt;" class="cls-6" d="M722,560.58s2-12.83-4.59-18.41"/><g id="_Csoport_15" data-name="&lt;Csoport&gt;"><path id="_Téglalap_13" data-name="&lt;Téglalap&gt;" class="cls-4" d="M914.08,936h61.48a7.08,7.08,0,0,1,7.08,7.08v21.38a0,0,0,0,1,0,0H906.41a0,0,0,0,1,0,0V943.7A7.67,7.67,0,0,1,914.08,936Z" transform="translate(-284.33 416.37) rotate(-21.69)"/><rect id="_Téglalap_14" data-name="&lt;Téglalap&gt;" class="cls-9" x="923.26" y="936.54" width="37.27" height="14.23" transform="translate(-282.07 414.93) rotate(-21.69)"/><rect id="_Téglalap_15" data-name="&lt;Téglalap&gt;" class="cls-8" x="932.25" y="930.18" width="11.4" height="7.11" transform="translate(-278.69 412.77) rotate(-21.69)"/></g><g id="_Csoport_16" data-name="&lt;Csoport&gt;"><line class="cls-6" x1="346.19" y1="802.48" x2="342.48" y2="803.96"/><path class="cls-18" d="M335,806.94,180,868.6a111.13,111.13,0,0,0-62.19,144.33l9.48,23.83"/><line class="cls-6" x1="128.75" y1="1040.5" x2="130.23" y2="1044.22"/></g><g id="_Csoport_17" data-name="&lt;Csoport&gt;"><g id="_Csoport_18" data-name="&lt;Csoport&gt;"><path id="_Görbe_33" data-name="&lt;Görbe&gt;" class="cls-19" d="M240.07,1055.44l-3.76-9.44L75.13,1110.11a22.36,22.36,0,1,0,16.53,41.56l161.18-64.11-3.76-9.45L96.4,1138.84l-9-22.66Z"/><rect id="_Téglalap_16" data-name="&lt;Téglalap&gt;" class="cls-6" x="86.53" y="1087.33" width="151.45" height="24.39" transform="translate(-394.89 137.82) rotate(-21.69)"/><line id="_Görbe_34" data-name="&lt;Görbe&gt;" class="cls-6" x1="232.61" y1="1071.54" x2="91.89" y2="1127.51"/></g><path id="_Görbe_35" data-name="&lt;Görbe&gt;" class="cls-20" d="M264.76,1082.81l-173.1,68.86L96.18,1163l161.19-64.11,6.51,16.37-161.19,64.12,4.53,11.37,173.1-68.85a21,21,0,0,0,11.78-27.34h0A21,21,0,0,0,264.76,1082.81Z"/></g><line id="_Görbe_36" data-name="&lt;Görbe&gt;" class="cls-6" x1="768.01" y1="954.21" x2="796.03" y2="1024.64"/><line id="_Görbe_37" data-name="&lt;Görbe&gt;" class="cls-6" x1="791.2" y1="944.99" x2="819.21" y2="1015.42"/><path id="_Görbe_38" data-name="&lt;Görbe&gt;" class="cls-21" d="M721.06,729.34l201.59-80.19a51.3,51.3,0,0,1,66.62,28.71l8.47,21.3"/><g id="_Csoport_19" data-name="&lt;Csoport&gt;"><path id="_Görbe_39" data-name="&lt;Görbe&gt;" class="cls-9" d="M173.26,764,144.09,789a114.07,114.07,0,0,1-68.82,27.38L37,818.24l-10-72.71L130.6,704.29Z"/><polygon id="_Görbe_40" data-name="&lt;Görbe&gt;" class="cls-8" points="149.43 707.05 73.83 712.49 15.14 760.46 -14.68 772.32 -10.92 781.77 98.25 773.91 183 704.63 179.25 695.19 149.43 707.05"/><polygon id="_Görbe_41" data-name="&lt;Görbe&gt;" class="cls-9" points="70.07 703.04 -14.68 772.32 94.5 764.47 179.25 695.19 70.07 703.04"/><path id="_Görbe_42" data-name="&lt;Görbe&gt;" class="cls-22" d="M35.48,807.6l35.61-1.78a114.12,114.12,0,0,0,68.82-27.37L167,755.28l-6.57-9.19L135.52,767.4A114.12,114.12,0,0,1,66.7,794.77l-32.76,1.64Z"/><polyline id="_Görbe_43" data-name="&lt;Görbe&gt;" class="cls-6" points="82.28 733.75 134.26 731.96 160.6 798.2"/><circle id="_Görbe_44" data-name="&lt;Görbe&gt;" class="cls-8" cx="158.52" cy="792.97" r="6.86"/><path id="_Görbe_45" data-name="&lt;Görbe&gt;" class="cls-8" d="M158.52,793s-6.05,12.29.22,28l9.44-3.76,9.44-3.75C171.36,797.75,158.52,793,158.52,793Z"/></g><g id="_Csoport_20" data-name="&lt;Csoport&gt;"><text class="cls-23" transform="translate(-42.86 774.31) rotate(-21.69)"><tspan class="cls-24">A</tspan><tspan x="28.35" y="0">+</tspan></text></g><g id="_Csoport_21" data-name="&lt;Csoport&gt;"><rect id="_Téglalap_17" data-name="&lt;Téglalap&gt;" class="cls-4" x="907.74" y="393.29" width="129.42" height="166.69" transform="translate(-107.31 393.16) rotate(-21.69)"/><rect id="_Téglalap_18" data-name="&lt;Téglalap&gt;" class="cls-7" x="900.06" y="410.75" width="127.33" height="160.59" transform="translate(-113.25 390.95) rotate(-21.69)"/><rect id="_Téglalap_19" data-name="&lt;Téglalap&gt;" class="cls-15" x="943.18" y="444.84" width="72.76" height="24.4" transform="translate(-99.56 394.4) rotate(-21.69)"/></g><g id="_Csoport_22" data-name="&lt;Csoport&gt;"><line class="cls-6" x1="871.02" y1="572.77" x2="874.74" y2="571.29"/><line class="cls-25" x1="881.83" y1="568.47" x2="963.41" y2="536.02"/><line class="cls-6" x1="966.96" y1="534.61" x2="970.67" y2="533.13"/></g><g id="_Csoport_23" data-name="&lt;Csoport&gt;"><line class="cls-6" x1="32.03" y1="684.42" x2="35.75" y2="682.95"/><line class="cls-26" x1="43.35" y1="679.92" x2="328.2" y2="566.62"/><polyline class="cls-6" points="332 565.11 335.72 563.63 337.19 567.35"/><line class="cls-27" x1="340.97" y1="576.85" x2="346.64" y2="591.09"/><line class="cls-6" x1="348.53" y1="595.84" x2="350.01" y2="599.56"/></g><g id="_Csoport_24" data-name="&lt;Csoport&gt;"><polygon id="_Görbe_46" data-name="&lt;Görbe&gt;" class="cls-4" points="597.24 459.61 684.33 424.97 599.28 483.39 597.24 459.61"/><polygon id="_Görbe_47" data-name="&lt;Görbe&gt;" class="cls-4" points="605.69 480.84 615.13 484.91 684.33 424.97 605.69 480.84"/></g><g id="_Csoport_25" data-name="&lt;Csoport&gt;"><polygon id="_Görbe_48" data-name="&lt;Görbe&gt;" class="cls-4" points="909.54 311.19 822.45 345.83 924.4 329.88 909.54 311.19"/><polygon id="_Görbe_49" data-name="&lt;Görbe&gt;" class="cls-4" points="917.99 332.43 913.92 341.87 822.45 345.83 917.99 332.43"/></g><line class="cls-28" x1="171" y1="1276" x2="1375" y2="796"/><text class="cls-29" transform="translate(387.33 173.91) rotate(-0.37)">...de július 1-<tspan class="cls-30" x="536.02" y="0">t</tspan><tspan x="570.59" y="0">ől megtudod</tspan></text></svg>