<svg id="Réteg_1" data-name="Réteg 1" xmlns="http://www.w3.org/2000/svg" xmlns:xlink="http://www.w3.org/1999/xlink" viewBox="0 0 1920 1080"><defs><style>.cls-1,.cls-2,.cls-3{opacity:0.39;}.cls-1{fill:url(#Névtelen_színátmenet_38);}.cls-2{fill:url(#Névtelen_színátmenet_38-2);}.cls-3{fill:url(#Névtelen_színátmenet_38-3);}.cls-29,.cls-4{fill:#fff;}.cls-10,.cls-11,.cls-14,.cls-15,.cls-16,.cls-18,.cls-19,.cls-20,.cls-21,.cls-22,.cls-25,.cls-26,.cls-27,.cls-28,.cls-4,.cls-6,.cls-7,.cls-8,.cls-9{stroke:#34508b;}.cls-10,.cls-11,.cls-14,.cls-15,.cls-16,.cls-17,.cls-18,.cls-19,.cls-20,.cls-21,.cls-22,.cls-25,.cls-26,.cls-27,.cls-4,.cls-6,.cls-7,.cls-8,.cls-9{stroke-linecap:round;stroke-linejoin:round;stroke-width:3px;}.cls-14,.cls-5{fill:#f7ab6f;}.cls-17,.cls-18,.cls-21,.cls-25,.cls-26,.cls-27,.cls-28,.cls-6{fill:none;}.cls-7{fill:#ff6aa9;}.cls-13,.cls-23,.cls-8{fill:#34508b;}.cls-9{fill:#62c3ef;}.cls-10{fill:#a5d996;}.cls-11,.cls-12{fill:#fbf8f3;}.cls-15{fill:#3bddba;}.cls-16{fill:#dcdee0;}.cls-17{stroke:#f7ab6f;}.cls-18{stroke-dasharray:8.07 8.07;}.cls-19{fill:#ffd3a2;}.cls-20{fill:#ff9f9e;}.cls-21{stroke-dasharray:8;}.cls-22{fill:#fffaad;}.cls-23{font-size:38.15px;font-family:Montserrat-Bold, Montserrat;font-weight:700;}.cls-24{letter-spacing:-0.02em;}.cls-25{stroke-dasharray:7.63 7.63;}.cls-26{stroke-dasharray:8.17 8.17;}.cls-27{stroke-dasharray:10.22 10.22;}.cls-28{stroke-miterlimit:10;stroke-width:2px;}</style><linearGradient id="Névtelen_színátmenet_38" x1="1449.37" y1="-288.27" x2="671.86" y2="1058.42" gradientUnits="userSpaceOnUse"><stop offset="0.2" stop-color="#00d49d"/><stop offset="0.56" stop-color="aqua"/><stop offset="0.81" stop-color="#21bce8"/></linearGradient><linearGradient id="Névtelen_színátmenet_38-2" x1="1480.15" y1="-265.76" x2="684.14" y2="1112.97" xlink:href="#Névtelen_színátmenet_38"/><linearGradient id="Névtelen_színátmenet_38-3" x1="1499.7" y1="-256.9" x2="691.78" y2="1142.47" xlink:href="#Névtelen_színátmenet_38"/></defs><title>t-bg-2</title><path class="cls-1" d="M2-9.36l3,570S189.9,971.45,512,767C679,661,759,588,821,570c99.27-28.82,204-24.1,326,133.15s155.85,221.54,472,160.57c45.19-8.71,164-3.42,90,138.45S1929,1109,1929,1109L1940-5Z"/><path class="cls-2" d="M-1-7,2,643.19S330.35,1099.33,596,787c79-92.88,168-145.47,219-150.44,27.81-2.72,207-10.19,329,169.17s155.85,252.7,472,183.16c45.19-9.94,164-3.9,90,157.92s220,121.84,220,121.84L1937-2Z"/><path class="cls-3" d="M-2-10.35,1,688.58S399.35,1150.75,665,815c79-99.85,127-118.65,178-124,27.81-2.92,178-20.5,300,172.31S1298.85,1135,1615,1060.2c45.19-10.68,164-4.19,90,169.77s220,131,220,131L1936-5Z"/><g id="_Csoport_" data-name="&lt;Csoport&gt;"><rect id="_Téglalap_" data-name="&lt;Téglalap&gt;" class="cls-4" x="924.88" y="665.5" width="275.41" height="164.86" transform="translate(-201.19 445.68) rotate(-21.69)"/><g id="_Csoport_2" data-name="&lt;Csoport&gt;"><g id="_Csoport_3" data-name="&lt;Csoport&gt;"><g id="_Csoport_4" data-name="&lt;Csoport&gt;"><polygon id="_Görbe_" data-name="&lt;Görbe&gt;" class="cls-5" points="1095.57 701.3 1099.83 692.56 1094.48 684.43 1103.07 679.87 1103.51 670.15 1113.14 671.51 1119.21 663.9 1126.21 670.66 1135.59 668.08 1137.28 677.66 1146.38 681.09 1142.12 689.83 1147.47 697.96 1138.88 702.52 1138.44 712.24 1128.8 710.88 1122.73 718.49 1115.74 711.72 1106.36 714.31 1104.67 704.73 1095.57 701.3"/><polygon id="_Görbe_2" data-name="&lt;Görbe&gt;" class="cls-6" points="1095.57 701.3 1099.83 692.56 1094.48 684.43 1103.07 679.87 1103.51 670.15 1113.14 671.51 1119.21 663.9 1126.21 670.66 1135.59 668.08 1137.28 677.66 1146.38 681.09 1142.12 689.83 1147.47 697.96 1138.88 702.52 1138.44 712.24 1128.8 710.88 1122.73 718.49 1115.74 711.72 1106.36 714.31 1104.67 704.73 1095.57 701.3"/></g><circle id="_Görbe_3" data-name="&lt;Görbe&gt;" class="cls-7" cx="1120.97" cy="691.19" r="11.81"/></g><rect id="_Téglalap_2" data-name="&lt;Téglalap&gt;" class="cls-8" x="941.79" y="716.52" width="92.16" height="9.83" transform="translate(-196.69 416.19) rotate(-21.69)"/><rect id="_Téglalap_3" data-name="&lt;Téglalap&gt;" class="cls-8" x="951.4" y="740.69" width="92.16" height="9.83" transform="translate(-204.94 421.45) rotate(-21.69)"/><line id="_Görbe_4" data-name="&lt;Görbe&gt;" class="cls-6" x1="970.92" y1="803.5" x2="1167.37" y2="725.37"/><line id="_Görbe_5" data-name="&lt;Görbe&gt;" class="cls-6" x1="1089.87" y1="770.69" x2="1172.35" y2="737.88"/><line id="_Görbe_6" data-name="&lt;Görbe&gt;" class="cls-6" x1="1094.65" y1="782.73" x2="1177.14" y2="749.92"/><line id="_Görbe_7" data-name="&lt;Görbe&gt;" class="cls-6" x1="1099.44" y1="794.77" x2="1181.93" y2="761.96"/></g></g><g id="_Csoport_5" data-name="&lt;Csoport&gt;"><g id="_Csoport_6" data-name="&lt;Csoport&gt;"><circle id="_Görbe_8" data-name="&lt;Görbe&gt;" class="cls-9" cx="739.81" cy="585.65" r="112.48"/><path id="_Görbe_9" data-name="&lt;Görbe&gt;" class="cls-10" d="M844.33,544.08a112.48,112.48,0,0,0-146.09-63q-2.81,1.13-5.52,2.38c-2.61,19.32,1,37.32,2.12,56.56a13.46,13.46,0,0,1,22.63,12.78c-1.84,7.17-9,11.44-13.76,17.06-8.58,10-9.39,25.91-1.88,36.76a52.09,52.09,0,0,1,4.35,6.35c1,2,1.53,4.24,2.72,6.14,3,4.78,9.61,6.28,15,4.69s9.74-5.64,13.32-10c4.77-5.79,9.51-12.92,17-13.88,6.48-.83,13.62,3.41,19.25.1,4.07-2.39,5.24-7.57,7.15-11.88s6.55-8.61,10.8-6.57a39.71,39.71,0,0,1,16.15,21c1,3.14,1.67,6.48,3.57,9.17s5.56,4.55,8.53,3.14c6.86-3.26,1-16.75,7.79-20.07,3.7-1.81,8.16,1.6,9.31,5.55s.18,8.17-.13,12.27c-.55,7.2,2.33,10.22,7.93,13.6C856.24,601.37,854.29,569.12,844.33,544.08Z"/></g><path id="_Görbe_10" data-name="&lt;Görbe&gt;" class="cls-8" d="M776.17,479.24a112.45,112.45,0,0,1-88.73,205.93,112.46,112.46,0,1,0,88.73-205.93Z"/></g><g id="_Csoport_7" data-name="&lt;Csoport&gt;"><rect id="_Téglalap_4" data-name="&lt;Téglalap&gt;" class="cls-9" x="326.59" y="657.11" width="493.98" height="357.78" rx="17.27" ry="17.27" transform="translate(-268.37 271.19) rotate(-21.69)"/><path id="_Görbe_11" data-name="&lt;Görbe&gt;" class="cls-11" d="M392.54,1049.12l4.68,11.77a35.11,35.11,0,0,0,45.6,19.64L836.58,923.91a35.1,35.1,0,0,0,19.64-45.59l-4.68-11.77Z"/><g id="_Csoport_8" data-name="&lt;Csoport&gt;"><g id="_Csoport_9" data-name="&lt;Csoport&gt;"><rect id="_Görbe_12" data-name="&lt;Görbe&gt;" class="cls-12" x="342.16" y="683.2" width="445.19" height="261.22" transform="translate(-260.79 266.35) rotate(-21.69)"/></g><g id="_Csoport_10" data-name="&lt;Csoport&gt;"><rect id="_Görbe_13" data-name="&lt;Görbe&gt;" class="cls-6" x="342.16" y="683.2" width="445.19" height="261.22" transform="translate(-260.79 266.35) rotate(-21.69)"/></g></g><circle id="_Görbe_14" data-name="&lt;Görbe&gt;" class="cls-13" cx="630.87" cy="980.03" r="10.16"/><g id="_Csoport_11" data-name="&lt;Csoport&gt;"><rect id="_Téglalap_5" data-name="&lt;Téglalap&gt;" class="cls-14" x="382.45" y="655.52" width="167.15" height="272.4" transform="translate(-259.62 228.3) rotate(-21.69)"/><rect id="_Téglalap_6" data-name="&lt;Téglalap&gt;" class="cls-14" x="537.77" y="593.75" width="167.15" height="272.4" transform="translate(-225.79 281.33) rotate(-21.69)"/></g><g id="_Csoport_12" data-name="&lt;Csoport&gt;"><rect id="_Téglalap_7" data-name="&lt;Téglalap&gt;" class="cls-4" x="395.03" y="640.58" width="148.86" height="270.03" transform="translate(-253.41 228.42) rotate(-21.69)"/><rect id="_Téglalap_8" data-name="&lt;Téglalap&gt;" class="cls-4" x="533.34" y="585.56" width="148.86" height="270.03" transform="translate(-223.29 275.65) rotate(-21.69)"/><rect id="_Téglalap_9" data-name="&lt;Téglalap&gt;" class="cls-15" x="395.39" y="680.29" width="56.32" height="77.96" transform="translate(-235.85 207.47) rotate(-21.69)"/><line id="_Görbe_15" data-name="&lt;Görbe&gt;" class="cls-6" x1="423" y1="794.07" x2="514.9" y2="757.52"/><line id="_Görbe_16" data-name="&lt;Görbe&gt;" class="cls-6" x1="432.83" y1="818.78" x2="524.73" y2="782.23"/><line id="_Görbe_17" data-name="&lt;Görbe&gt;" class="cls-6" x1="442.66" y1="843.5" x2="534.56" y2="806.94"/><line id="_Görbe_18" data-name="&lt;Görbe&gt;" class="cls-6" x1="452.49" y1="868.21" x2="544.39" y2="831.66"/></g><polygon id="_Görbe_19" data-name="&lt;Görbe&gt;" class="cls-13" points="705.03 823.91 571.9 592.83 571.49 592.99 634.98 752.6 590 869.66 705.03 823.91"/><polygon id="_Görbe_20" data-name="&lt;Görbe&gt;" class="cls-4" points="634.98 752.6 588.51 873.54 488.71 622.63 535.17 501.69 634.98 752.6"/><line id="_Görbe_21" data-name="&lt;Görbe&gt;" class="cls-6" x1="420.24" y1="956.51" x2="767.8" y2="818.27"/><path id="_Összetett_görbe_" data-name="&lt;Összetett görbe&gt;" class="cls-16" d="M414.44,658.19l-6.58-16.53-8.69,3.46a53,53,0,0,0-16.63-16.93l3.84-8.91-16.34-7-3.87,9a53,53,0,0,0-23.42-.27L339,611.61l-16.53,6.58,3.72,9.36a53,53,0,0,0-16.75,16.15l-9.35-4-7,16.34,9.21,4a53,53,0,0,0-.6,23.36L292.45,687,299,703.55l9-3.58a52.9,52.9,0,0,0,16.26,17.21l-3.77,8.75,16.34,7,3.66-8.5a52.91,52.91,0,0,0,24,.63l3.38,8.5L384.39,727l-3.31-8.33A52.83,52.83,0,0,0,398.46,702l8.31,3.58,7-16.33-8.29-3.57a52.94,52.94,0,0,0,.31-24Zm-29-1.6-22.39,8.91A11.88,11.88,0,0,0,353,661.16l-8.9-22.39A35.58,35.58,0,0,1,385.46,656.59Zm-48-15.19,8.9,22.39A11.9,11.9,0,0,0,342,673.86l-22.39,8.91A35.6,35.6,0,0,1,337.48,641.4Zm-15.2,48,22.39-8.91a11.88,11.88,0,0,0,10.08,4.34l8.9,22.39A35.61,35.61,0,0,1,322.28,689.38Zm48,15.19-8.9-22.39a11.92,11.92,0,0,0,4.34-10.07l22.39-8.91A35.6,35.6,0,0,1,370.26,704.57Z"/><path id="_Összetett_görbe_2" data-name="&lt;Összetett görbe&gt;" class="cls-16" d="M471.24,567l-5.44-13.68-9.21,3.67a30.15,30.15,0,0,0-6.2-6.54l3.87-9-13.51-5.83-3.82,8.86a30.34,30.34,0,0,0-9.18-.18l-3.55-8.91-13.67,5.44,3.54,8.91a30.33,30.33,0,0,0-6.55,6.44l-8.86-3.82-5.82,13.52,9,3.87a29.9,29.9,0,0,0,0,9l-9.21,3.67L398,596.06l9.42-3.75a30,30,0,0,0,6.18,6.19l-4.06,9.43,13.51,5.82,4.12-9.56a30,30,0,0,0,8.57.07l3.86,9.72,13.68-5.44-3.87-9.72a29.7,29.7,0,0,0,6.17-5.93l9.56,4.12L471,583.49l-9.42-4.06a30.05,30.05,0,0,0,.24-8.74Zm-36,16.16a9.52,9.52,0,1,1,5.33-12.37A9.53,9.53,0,0,1,435.28,583.11Z"/><path id="_Téglalap_10" data-name="&lt;Téglalap&gt;" class="cls-11" d="M577.63,1053.38H750.41a8.26,8.26,0,0,1,8.26,8.26v11.73a0,0,0,0,1,0,0H569.36a0,0,0,0,1,0,0v-11.73A8.26,8.26,0,0,1,577.63,1053.38Z" transform="translate(-346 320.71) rotate(-21.69)"/><rect id="_Téglalap_11" data-name="&lt;Téglalap&gt;" class="cls-11" x="606.08" y="1000.25" width="87.87" height="55.81" transform="translate(-333.97 313.04) rotate(-21.69)"/><rect id="_Téglalap_12" data-name="&lt;Téglalap&gt;" class="cls-8" x="599.69" y="1001.47" width="87.87" height="21.25" transform="translate(-328.49 309.54) rotate(-21.69)"/><line id="_Görbe_22" data-name="&lt;Görbe&gt;" class="cls-6" x1="449.04" y1="975.14" x2="503.54" y2="953.46"/><line id="_Görbe_23" data-name="&lt;Görbe&gt;" class="cls-6" x1="732.42" y1="862.42" x2="759.67" y2="851.58"/><line id="_Görbe_24" data-name="&lt;Görbe&gt;" class="cls-6" x1="581.14" y1="922.59" x2="682.01" y2="882.47"/></g><g id="_Csoport_13" data-name="&lt;Csoport&gt;"><line id="_Görbe_25" data-name="&lt;Görbe&gt;" class="cls-17" x1="315.43" y1="938.68" x2="287.73" y2="949.7"/><line id="_Görbe_26" data-name="&lt;Görbe&gt;" class="cls-17" x1="297.75" y1="906.03" x2="270.37" y2="894.24"/><line id="_Görbe_27" data-name="&lt;Görbe&gt;" class="cls-17" x1="313.21" y1="1001.94" x2="325" y2="974.56"/></g><g id="_Csoport_14" data-name="&lt;Csoport&gt;"><line id="_Görbe_28" data-name="&lt;Görbe&gt;" class="cls-17" x1="788.43" y1="452.23" x2="800.23" y2="424.85"/><line id="_Görbe_29" data-name="&lt;Görbe&gt;" class="cls-17" x1="824.02" y1="462.81" x2="851.73" y2="451.79"/><line id="_Görbe_30" data-name="&lt;Görbe&gt;" class="cls-17" x1="745.28" y1="405.92" x2="756.3" y2="433.63"/></g><path id="_Görbe_31" data-name="&lt;Görbe&gt;" class="cls-6" d="M787.63,569.73a17.17,17.17,0,0,1,16.91,8.14"/><path id="_Görbe_32" data-name="&lt;Görbe&gt;" class="cls-6" d="M732,553.58s2-12.83-4.59-18.41"/><g id="_Csoport_15" data-name="&lt;Csoport&gt;"><path id="_Téglalap_13" data-name="&lt;Téglalap&gt;" class="cls-4" d="M924.08,929h61.48a7.08,7.08,0,0,1,7.08,7.08v21.38a0,0,0,0,1,0,0H916.41a0,0,0,0,1,0,0V936.7A7.67,7.67,0,0,1,924.08,929Z" transform="translate(-281.04 419.57) rotate(-21.69)"/><rect id="_Téglalap_14" data-name="&lt;Téglalap&gt;" class="cls-9" x="933.26" y="929.54" width="37.27" height="14.23" transform="translate(-278.78 418.13) rotate(-21.69)"/><rect id="_Téglalap_15" data-name="&lt;Téglalap&gt;" class="cls-8" x="942.25" y="923.18" width="11.4" height="7.11" transform="translate(-275.39 415.97) rotate(-21.69)"/></g><g id="_Csoport_16" data-name="&lt;Csoport&gt;"><line class="cls-6" x1="356.19" y1="795.48" x2="352.48" y2="796.96"/><path class="cls-18" d="M345,799.94,190,861.6a111.13,111.13,0,0,0-62.19,144.33l9.48,23.83"/><line class="cls-6" x1="138.75" y1="1033.5" x2="140.23" y2="1037.22"/></g><g id="_Csoport_17" data-name="&lt;Csoport&gt;"><g id="_Csoport_18" data-name="&lt;Csoport&gt;"><path id="_Görbe_33" data-name="&lt;Görbe&gt;" class="cls-19" d="M250.07,1048.44l-3.76-9.44L85.13,1103.11a22.36,22.36,0,1,0,16.53,41.56l161.18-64.11-3.76-9.45L106.4,1131.84l-9-22.66Z"/><rect id="_Téglalap_16" data-name="&lt;Téglalap&gt;" class="cls-6" x="96.53" y="1080.33" width="151.45" height="24.39" transform="translate(-391.59 141.02) rotate(-21.69)"/><line id="_Görbe_34" data-name="&lt;Görbe&gt;" class="cls-6" x1="242.61" y1="1064.54" x2="101.89" y2="1120.51"/></g><path id="_Görbe_35" data-name="&lt;Görbe&gt;" class="cls-20" d="M274.76,1075.81l-173.1,68.86,4.52,11.37,161.19-64.11,6.51,16.37-161.19,64.12,4.53,11.37,173.1-68.85a21,21,0,0,0,11.78-27.34h0A21,21,0,0,0,274.76,1075.81Z"/></g><line id="_Görbe_36" data-name="&lt;Görbe&gt;" class="cls-6" x1="778.01" y1="947.21" x2="806.03" y2="1017.64"/><line id="_Görbe_37" data-name="&lt;Görbe&gt;" class="cls-6" x1="801.2" y1="937.99" x2="829.21" y2="1008.42"/><path id="_Görbe_38" data-name="&lt;Görbe&gt;" class="cls-21" d="M731.06,722.34l201.59-80.19a51.3,51.3,0,0,1,66.62,28.71l8.47,21.3"/><g id="_Csoport_19" data-name="&lt;Csoport&gt;"><path id="_Görbe_39" data-name="&lt;Görbe&gt;" class="cls-9" d="M183.26,757,154.09,782a114.07,114.07,0,0,1-68.82,27.38L47,811.24l-10-72.71L140.6,697.29Z"/><polygon id="_Görbe_40" data-name="&lt;Görbe&gt;" class="cls-8" points="159.43 700.05 83.83 705.49 25.14 753.46 -4.68 765.32 -0.92 774.77 108.25 766.91 193 697.63 189.25 688.19 159.43 700.05"/><polygon id="_Görbe_41" data-name="&lt;Görbe&gt;" class="cls-9" points="80.07 696.04 -4.68 765.32 104.5 757.47 189.25 688.19 80.07 696.04"/><path id="_Görbe_42" data-name="&lt;Görbe&gt;" class="cls-22" d="M45.48,800.6l35.61-1.78a114.12,114.12,0,0,0,68.82-27.37L177,748.28l-6.57-9.19L145.52,760.4A114.12,114.12,0,0,1,76.7,787.77l-32.76,1.64Z"/><polyline id="_Görbe_43" data-name="&lt;Görbe&gt;" class="cls-6" points="92.28 726.75 144.26 724.96 170.6 791.2"/><circle id="_Görbe_44" data-name="&lt;Görbe&gt;" class="cls-8" cx="168.52" cy="785.97" r="6.86"/><path id="_Görbe_45" data-name="&lt;Görbe&gt;" class="cls-8" d="M168.52,786s-6.05,12.29.22,28l9.44-3.76,9.44-3.75C181.36,790.75,168.52,786,168.52,786Z"/></g><g id="_Csoport_20" data-name="&lt;Csoport&gt;"><text class="cls-23" transform="translate(-32.86 767.31) rotate(-21.69)"><tspan class="cls-24">A</tspan><tspan x="28.35" y="0">+</tspan></text></g><g id="_Csoport_21" data-name="&lt;Csoport&gt;"><rect id="_Téglalap_17" data-name="&lt;Téglalap&gt;" class="cls-4" x="917.74" y="386.29" width="129.42" height="166.69" transform="translate(-104.01 396.36) rotate(-21.69)"/><rect id="_Téglalap_18" data-name="&lt;Téglalap&gt;" class="cls-7" x="910.06" y="403.75" width="127.33" height="160.59" transform="translate(-109.95 394.15) rotate(-21.69)"/><rect id="_Téglalap_19" data-name="&lt;Téglalap&gt;" class="cls-15" x="953.18" y="437.84" width="72.76" height="24.4" transform="translate(-96.26 397.6) rotate(-21.69)"/></g><g id="_Csoport_22" data-name="&lt;Csoport&gt;"><line class="cls-6" x1="881.02" y1="565.77" x2="884.74" y2="564.29"/><line class="cls-25" x1="891.83" y1="561.47" x2="973.41" y2="529.02"/><line class="cls-6" x1="976.96" y1="527.61" x2="980.67" y2="526.13"/></g><g id="_Csoport_23" data-name="&lt;Csoport&gt;"><line class="cls-6" x1="42.03" y1="677.42" x2="45.75" y2="675.95"/><line class="cls-26" x1="53.35" y1="672.92" x2="338.2" y2="559.62"/><polyline class="cls-6" points="342 558.11 345.72 556.63 347.19 560.35"/><line class="cls-27" x1="350.97" y1="569.85" x2="356.64" y2="584.09"/><line class="cls-6" x1="358.53" y1="588.84" x2="360.01" y2="592.56"/></g><g id="_Csoport_24" data-name="&lt;Csoport&gt;"><polygon id="_Görbe_46" data-name="&lt;Görbe&gt;" class="cls-4" points="607.24 452.61 694.33 417.97 609.28 476.39 607.24 452.61"/><polygon id="_Görbe_47" data-name="&lt;Görbe&gt;" class="cls-4" points="615.69 473.84 625.13 477.91 694.33 417.97 615.69 473.84"/></g><g id="_Csoport_25" data-name="&lt;Csoport&gt;"><polygon id="_Görbe_48" data-name="&lt;Görbe&gt;" class="cls-4" points="919.54 304.19 832.45 338.83 934.4 322.88 919.54 304.19"/><polygon id="_Görbe_49" data-name="&lt;Görbe&gt;" class="cls-4" points="927.99 325.43 923.92 334.87 832.45 338.83 927.99 325.43"/></g><line class="cls-28" x1="181" y1="1269" x2="1385" y2="789"/><path class="cls-29" d="M790.5,158.8a5.93,5.93,0,0,1,1.38-4,4.48,4.48,0,0,1,3.55-1.64,4.37,4.37,0,0,1,3.41,1.66,5.83,5.83,0,0,1,1.48,4,5.72,5.72,0,0,1-1.43,3.85,4.4,4.4,0,0,1-3.39,1.7,4.48,4.48,0,0,1-3.57-1.6A5.76,5.76,0,0,1,790.5,158.8Z"/><path class="cls-29" d="M809.59,158.68a6,6,0,0,1,1.37-4,4.52,4.52,0,0,1,3.56-1.65,4.44,4.44,0,0,1,3.41,1.66,5.9,5.9,0,0,1,1.48,4,5.74,5.74,0,0,1-1.43,3.86,4.43,4.43,0,0,1-3.39,1.7,4.54,4.54,0,0,1-3.58-1.6A5.75,5.75,0,0,1,809.59,158.68Z"/><path class="cls-29" d="M828.67,158.56a5.91,5.91,0,0,1,1.38-4,4.5,4.5,0,0,1,3.55-1.65,4.39,4.39,0,0,1,3.41,1.66,5.86,5.86,0,0,1,1.49,4,5.66,5.66,0,0,1-1.44,3.85,4.34,4.34,0,0,1-3.39,1.7,4.5,4.5,0,0,1-3.57-1.59A5.78,5.78,0,0,1,828.67,158.56Z"/><path class="cls-29" d="M850,146.88l-.38-58.74a2.3,2.3,0,0,1,1.11-1.9,4.27,4.27,0,0,1,2.45-.8,4.4,4.4,0,0,1,2.57.77,2.26,2.26,0,0,1,1.13,1.88l.14,22.33,14.4-.09a2.3,2.3,0,0,1,1.85.9,3.58,3.58,0,0,1,0,4.32,2.26,2.26,0,0,1-1.84.92l-14.4.09.19,30.11q0,5.43,2.34,7.57t8.11,2.11l3.12,0a3.19,3.19,0,0,1,2.41,1,3.25,3.25,0,0,1,1,2.36,3.43,3.43,0,0,1-.93,2.43,3.12,3.12,0,0,1-2.39,1.06l-3.13,0Q850.13,163.26,850,146.88Z"/><path class="cls-29" d="M879.74,149.13q-.06-8.79,6.56-12.25t19.35-3.55l5.69,0,0-2.62a17.26,17.26,0,0,0-3.3-10.44q-3.27-4.42-10-4.37A19.73,19.73,0,0,0,890,117.5a40.85,40.85,0,0,1-3.84,1.61,2.44,2.44,0,0,1-2.13-1.2,4.84,4.84,0,0,1-.8-2.63c0-1.41,1.59-2.73,4.78-3.94a29.15,29.15,0,0,1,10.26-1.85q10.49-.06,15.38,6t5,15.42l.19,29a2.59,2.59,0,0,1-1,2.07,3.84,3.84,0,0,1-2.56.85,3.47,3.47,0,0,1-2.4-.82,2.65,2.65,0,0,1-1-2.06l0-4.91q-7.42,8.64-16.8,8.7a15.89,15.89,0,0,1-11-3.67Q879.78,156.39,879.74,149.13Zm7.25-.72c0,3.12.93,5.45,2.72,7a10.49,10.49,0,0,0,7,2.24,15.48,15.48,0,0,0,10-4q4.71-3.93,4.69-7.84l0-7.15-4.68,0a70.43,70.43,0,0,0-7.54.39,34.65,34.65,0,0,0-6.07,1.26,8.75,8.75,0,0,0-4.56,2.93A8.13,8.13,0,0,0,887,148.41Z"/><path class="cls-29" d="M932.38,159.84l-.3-47.22a2.27,2.27,0,0,1,1-2,4.36,4.36,0,0,1,2.56-.74,3.66,3.66,0,0,1,2.35.78,2.34,2.34,0,0,1,1,1.91l0,5.21a16.14,16.14,0,0,1,5.77-6.14,16.78,16.78,0,0,1,9.14-2.55,18.8,18.8,0,0,1,14,6.05,20.51,20.51,0,0,1,6,14.7l.19,29.69a2.47,2.47,0,0,1-1.1,2.13,4.4,4.4,0,0,1-2.57.8,4.22,4.22,0,0,1-2.46-.77,2.46,2.46,0,0,1-1.13-2.1L966.68,130a13.86,13.86,0,0,0-4.19-9.77,13.1,13.1,0,0,0-9.85-4.28,12.89,12.89,0,0,0-9.24,4,13.61,13.61,0,0,0-3.95,10.27l.19,29.62a2.58,2.58,0,0,1-1.11,2,4,4,0,0,1-2.56.91,3.7,3.7,0,0,1-2.57-.88A2.68,2.68,0,0,1,932.38,159.84Z"/><path class="cls-29" d="M987.08,142.19l-.19-29.81a2.49,2.49,0,0,1,1-1.9,4,4,0,0,1,2.62-.91,3.88,3.88,0,0,1,2.46.87,2.48,2.48,0,0,1,1.13,1.89l.19,29.73a14,14,0,0,0,4.2,9.89,13.27,13.27,0,0,0,19.64-.13,14,14,0,0,0,4.07-9.94l-.19-29.84a2.25,2.25,0,0,1,1.1-1.9,4.42,4.42,0,0,1,2.56-.8,4.14,4.14,0,0,1,2.52.77,2.3,2.3,0,0,1,1.07,1.89l.19,29.91a20.09,20.09,0,0,1-6.21,14.72,21.18,21.18,0,0,1-36.2-14.44Z"/><path class="cls-29" d="M1044,159.12l-.51-79.58a2.37,2.37,0,0,1,1-1.91,4.12,4.12,0,0,1,2.57-.8,4.3,4.3,0,0,1,2.62.77,2.31,2.31,0,0,1,1.08,1.89l.51,79.59a2.62,2.62,0,0,1-1,2,3.9,3.9,0,0,1-2.62.91,3.75,3.75,0,0,1-2.51-.87A2.6,2.6,0,0,1,1044,159.12Z"/><path class="cls-29" d="M1066.22,159l-.31-47.22a2.33,2.33,0,0,1,1-2,4.37,4.37,0,0,1,2.57-.74,3.71,3.71,0,0,1,2.34.78,2.34,2.34,0,0,1,1,1.92l0,5.2a16.18,16.18,0,0,1,5.76-6.14,16.69,16.69,0,0,1,9.14-2.54,18.71,18.71,0,0,1,14,6,20.43,20.43,0,0,1,6,14.69l.19,29.69a2.44,2.44,0,0,1-1.1,2.13,4.37,4.37,0,0,1-2.56.8,4.16,4.16,0,0,1-2.46-.76,2.44,2.44,0,0,1-1.13-2.11l-.19-29.62a13.92,13.92,0,0,0-4.2-9.78,13.13,13.13,0,0,0-9.85-4.28,13,13,0,0,0-9.24,4,13.63,13.63,0,0,0-4,10.27l.19,29.62a2.54,2.54,0,0,1-1.1,2,4,4,0,0,1-2.56.91,3.66,3.66,0,0,1-2.58-.88A2.62,2.62,0,0,1,1066.22,159Z"/><path class="cls-29" d="M1121.15,91.71a4.42,4.42,0,0,1-1.47-3.29,4.24,4.24,0,0,1,1.43-3.24,5,5,0,0,1,3.56-1.36,4.73,4.73,0,0,1,3.41,1.31,4.34,4.34,0,0,1,1.42,3.23,4.49,4.49,0,0,1-1.37,3.3,4.64,4.64,0,0,1-3.4,1.42A5,5,0,0,1,1121.15,91.71Zm.43,66.92-.3-47.22a2.3,2.3,0,0,1,1-1.9,4,4,0,0,1,2.56-.8,4.33,4.33,0,0,1,2.63.76,2.3,2.3,0,0,1,1.07,1.89l.3,47.22a2.55,2.55,0,0,1-1.1,2,4,4,0,0,1-2.56.91,3.81,3.81,0,0,1-2.52-.88A2.58,2.58,0,0,1,1121.58,158.63Z"/></svg>