<svg id="Réteg_1" data-name="Réteg 1" xmlns="http://www.w3.org/2000/svg" xmlns:xlink="http://www.w3.org/1999/xlink" viewBox="0 0 1920 1080"><defs><style>.cls-1,.cls-2,.cls-3{opacity:0.39;}.cls-1{fill:url(#Névtelen_színátmenet_38);}.cls-2{fill:url(#Névtelen_színátmenet_38-2);}.cls-3{fill:url(#Névtelen_színátmenet_38-3);}.cls-29,.cls-4{fill:#fff;}.cls-10,.cls-11,.cls-14,.cls-15,.cls-16,.cls-18,.cls-19,.cls-20,.cls-21,.cls-22,.cls-25,.cls-26,.cls-27,.cls-28,.cls-4,.cls-6,.cls-7,.cls-8,.cls-9{stroke:#34508b;}.cls-10,.cls-11,.cls-14,.cls-15,.cls-16,.cls-17,.cls-18,.cls-19,.cls-20,.cls-21,.cls-22,.cls-25,.cls-26,.cls-27,.cls-4,.cls-6,.cls-7,.cls-8,.cls-9{stroke-linecap:round;stroke-linejoin:round;stroke-width:3px;}.cls-14,.cls-5{fill:#f7ab6f;}.cls-17,.cls-18,.cls-21,.cls-25,.cls-26,.cls-27,.cls-28,.cls-6{fill:none;}.cls-7{fill:#ff6aa9;}.cls-13,.cls-23,.cls-8{fill:#34508b;}.cls-9{fill:#62c3ef;}.cls-10{fill:#a5d996;}.cls-11,.cls-12{fill:#fbf8f3;}.cls-15{fill:#3bddba;}.cls-16{fill:#dcdee0;}.cls-17{stroke:#f7ab6f;}.cls-18{stroke-dasharray:8.07 8.07;}.cls-19{fill:#ffd3a2;}.cls-20{fill:#ff9f9e;}.cls-21{stroke-dasharray:8;}.cls-22{fill:#fffaad;}.cls-23{font-size:38.15px;font-family:Montserrat-Bold, Montserrat;font-weight:700;}.cls-24{letter-spacing:-0.02em;}.cls-25{stroke-dasharray:7.63 7.63;}.cls-26{stroke-dasharray:8.17 8.17;}.cls-27{stroke-dasharray:10.22 10.22;}.cls-28{stroke-miterlimit:10;stroke-width:2px;}</style><linearGradient id="Névtelen_színátmenet_38" x1="1446.37" y1="-288.27" x2="668.86" y2="1058.42" gradientUnits="userSpaceOnUse"><stop offset="0.2" stop-color="#00d49d"/><stop offset="0.56" stop-color="aqua"/><stop offset="0.81" stop-color="#21bce8"/></linearGradient><linearGradient id="Névtelen_színátmenet_38-2" x1="1477.15" y1="-265.76" x2="681.14" y2="1112.97" xlink:href="#Névtelen_színátmenet_38"/><linearGradient id="Névtelen_színátmenet_38-3" x1="1496.7" y1="-256.9" x2="688.78" y2="1142.47" xlink:href="#Névtelen_színátmenet_38"/></defs><title>t-bg-4</title><path class="cls-1" d="M-1-9.36l3,570S186.9,971.45,509,767C676,661,756,588,818,570c99.27-28.82,204-24.1,326,133.15s155.85,221.54,472,160.57c45.19-8.71,164-3.42,90,138.45S1926,1109,1926,1109L1937-5Z"/><path class="cls-2" d="M-4-7l3,650.17S327.35,1099.33,593,787c79-92.88,168-145.47,219-150.44,27.81-2.72,207-10.19,329,169.17s155.85,252.7,472,183.16c45.19-9.94,164-3.9,90,157.92s220,121.84,220,121.84L1934-2Z"/><path class="cls-3" d="M-5-10.35l3,698.93S396.35,1150.75,662,815c79-99.85,127-118.65,178-124,27.81-2.92,178-20.5,300,172.31S1295.85,1135,1612,1060.2c45.19-10.68,164-4.19,90,169.77s220,131,220,131L1933-5Z"/><g id="_Csoport_" data-name="&lt;Csoport&gt;"><rect id="_Téglalap_" data-name="&lt;Téglalap&gt;" class="cls-4" x="921.88" y="665.5" width="275.41" height="164.86" transform="translate(-201.4 444.57) rotate(-21.69)"/><g id="_Csoport_2" data-name="&lt;Csoport&gt;"><g id="_Csoport_3" data-name="&lt;Csoport&gt;"><g id="_Csoport_4" data-name="&lt;Csoport&gt;"><polygon id="_Görbe_" data-name="&lt;Görbe&gt;" class="cls-5" points="1092.57 701.3 1096.83 692.56 1091.48 684.43 1100.07 679.87 1100.51 670.15 1110.14 671.51 1116.21 663.9 1123.21 670.66 1132.59 668.08 1134.28 677.66 1143.38 681.09 1139.12 689.83 1144.47 697.96 1135.88 702.52 1135.44 712.24 1125.8 710.88 1119.73 718.49 1112.74 711.72 1103.36 714.31 1101.67 704.73 1092.57 701.3"/><polygon id="_Görbe_2" data-name="&lt;Görbe&gt;" class="cls-6" points="1092.57 701.3 1096.83 692.56 1091.48 684.43 1100.07 679.87 1100.51 670.15 1110.14 671.51 1116.21 663.9 1123.21 670.66 1132.59 668.08 1134.28 677.66 1143.38 681.09 1139.12 689.83 1144.47 697.96 1135.88 702.52 1135.44 712.24 1125.8 710.88 1119.73 718.49 1112.74 711.72 1103.36 714.31 1101.67 704.73 1092.57 701.3"/></g><circle id="_Görbe_3" data-name="&lt;Görbe&gt;" class="cls-7" cx="1117.97" cy="691.19" r="11.81"/></g><rect id="_Téglalap_2" data-name="&lt;Téglalap&gt;" class="cls-8" x="938.79" y="716.52" width="92.16" height="9.83" transform="translate(-196.9 415.08) rotate(-21.69)"/><rect id="_Téglalap_3" data-name="&lt;Téglalap&gt;" class="cls-8" x="948.4" y="740.69" width="92.16" height="9.83" transform="translate(-205.15 420.35) rotate(-21.69)"/><line id="_Görbe_4" data-name="&lt;Görbe&gt;" class="cls-6" x1="967.92" y1="803.5" x2="1164.37" y2="725.37"/><line id="_Görbe_5" data-name="&lt;Görbe&gt;" class="cls-6" x1="1086.87" y1="770.69" x2="1169.35" y2="737.88"/><line id="_Görbe_6" data-name="&lt;Görbe&gt;" class="cls-6" x1="1091.65" y1="782.73" x2="1174.14" y2="749.92"/><line id="_Görbe_7" data-name="&lt;Görbe&gt;" class="cls-6" x1="1096.44" y1="794.77" x2="1178.93" y2="761.96"/></g></g><g id="_Csoport_5" data-name="&lt;Csoport&gt;"><g id="_Csoport_6" data-name="&lt;Csoport&gt;"><circle id="_Görbe_8" data-name="&lt;Görbe&gt;" class="cls-9" cx="736.81" cy="585.65" r="112.48"/><path id="_Görbe_9" data-name="&lt;Görbe&gt;" class="cls-10" d="M841.33,544.08a112.48,112.48,0,0,0-146.09-63q-2.81,1.13-5.52,2.38c-2.61,19.32,1,37.32,2.12,56.56a13.46,13.46,0,0,1,22.63,12.78c-1.84,7.17-9,11.44-13.76,17.06-8.58,10-9.39,25.91-1.88,36.76a52.09,52.09,0,0,1,4.35,6.35c1,2,1.53,4.24,2.72,6.14,3,4.78,9.61,6.28,15,4.69s9.74-5.64,13.32-10c4.77-5.79,9.51-12.92,17-13.88,6.48-.83,13.62,3.41,19.25.1,4.07-2.39,5.24-7.57,7.15-11.88s6.55-8.61,10.8-6.57a39.71,39.71,0,0,1,16.15,21c1,3.14,1.67,6.48,3.57,9.17s5.56,4.55,8.53,3.14c6.86-3.26,1-16.75,7.79-20.07,3.7-1.81,8.16,1.6,9.31,5.55s.18,8.17-.13,12.27c-.55,7.2,2.33,10.22,7.93,13.6C853.24,601.37,851.29,569.12,841.33,544.08Z"/></g><path id="_Görbe_10" data-name="&lt;Görbe&gt;" class="cls-8" d="M773.17,479.24a112.45,112.45,0,0,1-88.73,205.93,112.46,112.46,0,1,0,88.73-205.93Z"/></g><g id="_Csoport_7" data-name="&lt;Csoport&gt;"><rect id="_Téglalap_4" data-name="&lt;Téglalap&gt;" class="cls-9" x="323.59" y="657.11" width="493.98" height="357.78" rx="17.27" ry="17.27" transform="translate(-268.58 270.08) rotate(-21.69)"/><path id="_Görbe_11" data-name="&lt;Görbe&gt;" class="cls-11" d="M389.54,1049.12l4.68,11.77a35.11,35.11,0,0,0,45.6,19.64L833.58,923.91a35.1,35.1,0,0,0,19.64-45.59l-4.68-11.77Z"/><g id="_Csoport_8" data-name="&lt;Csoport&gt;"><g id="_Csoport_9" data-name="&lt;Csoport&gt;"><rect id="_Görbe_12" data-name="&lt;Görbe&gt;" class="cls-12" x="339.16" y="683.2" width="445.19" height="261.22" transform="translate(-261 265.24) rotate(-21.69)"/></g><g id="_Csoport_10" data-name="&lt;Csoport&gt;"><rect id="_Görbe_13" data-name="&lt;Görbe&gt;" class="cls-6" x="339.16" y="683.2" width="445.19" height="261.22" transform="translate(-261 265.24) rotate(-21.69)"/></g></g><circle id="_Görbe_14" data-name="&lt;Görbe&gt;" class="cls-13" cx="627.87" cy="980.03" r="10.16"/><g id="_Csoport_11" data-name="&lt;Csoport&gt;"><rect id="_Téglalap_5" data-name="&lt;Téglalap&gt;" class="cls-14" x="379.45" y="655.52" width="167.15" height="272.4" transform="translate(-259.83 227.19) rotate(-21.69)"/><rect id="_Téglalap_6" data-name="&lt;Téglalap&gt;" class="cls-14" x="534.77" y="593.75" width="167.15" height="272.4" transform="translate(-226 280.22) rotate(-21.69)"/></g><g id="_Csoport_12" data-name="&lt;Csoport&gt;"><rect id="_Téglalap_7" data-name="&lt;Téglalap&gt;" class="cls-4" x="392.03" y="640.58" width="148.86" height="270.03" transform="translate(-253.63 227.31) rotate(-21.69)"/><rect id="_Téglalap_8" data-name="&lt;Téglalap&gt;" class="cls-4" x="530.34" y="585.56" width="148.86" height="270.03" transform="translate(-223.5 274.54) rotate(-21.69)"/><rect id="_Téglalap_9" data-name="&lt;Téglalap&gt;" class="cls-15" x="392.39" y="680.29" width="56.32" height="77.96" transform="translate(-236.06 206.36) rotate(-21.69)"/><line id="_Görbe_15" data-name="&lt;Görbe&gt;" class="cls-6" x1="420" y1="794.07" x2="511.9" y2="757.52"/><line id="_Görbe_16" data-name="&lt;Görbe&gt;" class="cls-6" x1="429.83" y1="818.78" x2="521.73" y2="782.23"/><line id="_Görbe_17" data-name="&lt;Görbe&gt;" class="cls-6" x1="439.66" y1="843.5" x2="531.56" y2="806.94"/><line id="_Görbe_18" data-name="&lt;Görbe&gt;" class="cls-6" x1="449.49" y1="868.21" x2="541.39" y2="831.66"/></g><polygon id="_Görbe_19" data-name="&lt;Görbe&gt;" class="cls-13" points="702.03 823.91 568.9 592.83 568.49 592.99 631.98 752.6 587 869.66 702.03 823.91"/><polygon id="_Görbe_20" data-name="&lt;Görbe&gt;" class="cls-4" points="631.98 752.6 585.51 873.54 485.71 622.63 532.17 501.69 631.98 752.6"/><line id="_Görbe_21" data-name="&lt;Görbe&gt;" class="cls-6" x1="417.24" y1="956.51" x2="764.8" y2="818.27"/><path id="_Összetett_görbe_" data-name="&lt;Összetett görbe&gt;" class="cls-16" d="M411.44,658.19l-6.58-16.53-8.69,3.46a53,53,0,0,0-16.63-16.93l3.84-8.91-16.34-7-3.87,9a53,53,0,0,0-23.42-.27L336,611.61l-16.53,6.58,3.72,9.36a53,53,0,0,0-16.75,16.15l-9.35-4-7,16.34,9.21,4a53,53,0,0,0-.6,23.36L289.45,687,296,703.55l9-3.58a52.9,52.9,0,0,0,16.26,17.21l-3.77,8.75,16.34,7,3.66-8.5a52.91,52.91,0,0,0,24,.63l3.38,8.5L381.39,727l-3.31-8.33A52.83,52.83,0,0,0,395.46,702l8.31,3.58,7-16.33-8.29-3.57a52.94,52.94,0,0,0,.31-24Zm-29-1.6-22.39,8.91A11.88,11.88,0,0,0,350,661.16l-8.9-22.39A35.58,35.58,0,0,1,382.46,656.59Zm-48-15.19,8.9,22.39A11.9,11.9,0,0,0,339,673.86l-22.39,8.91A35.6,35.6,0,0,1,334.48,641.4Zm-15.2,48,22.39-8.91a11.88,11.88,0,0,0,10.08,4.34l8.9,22.39A35.61,35.61,0,0,1,319.28,689.38Zm48,15.19-8.9-22.39a11.92,11.92,0,0,0,4.34-10.07l22.39-8.91A35.6,35.6,0,0,1,367.26,704.57Z"/><path id="_Összetett_görbe_2" data-name="&lt;Összetett görbe&gt;" class="cls-16" d="M468.24,567l-5.44-13.68-9.21,3.67a30.15,30.15,0,0,0-6.2-6.54l3.87-9-13.51-5.83-3.82,8.86a30.34,30.34,0,0,0-9.18-.18l-3.55-8.91-13.67,5.44,3.54,8.91a30.33,30.33,0,0,0-6.55,6.44l-8.86-3.82-5.82,13.52,9,3.87a29.9,29.9,0,0,0,0,9l-9.21,3.67L395,596.06l9.42-3.75a30,30,0,0,0,6.18,6.19l-4.06,9.43,13.51,5.82,4.12-9.56a30,30,0,0,0,8.57.07l3.86,9.72,13.68-5.44-3.87-9.72a29.7,29.7,0,0,0,6.17-5.93l9.56,4.12L468,583.49l-9.42-4.06a30.05,30.05,0,0,0,.24-8.74Zm-36,16.16a9.52,9.52,0,1,1,5.33-12.37A9.53,9.53,0,0,1,432.28,583.11Z"/><path id="_Téglalap_10" data-name="&lt;Téglalap&gt;" class="cls-11" d="M574.63,1053.38H747.41a8.26,8.26,0,0,1,8.26,8.26v11.73a0,0,0,0,1,0,0H566.36a0,0,0,0,1,0,0v-11.73A8.26,8.26,0,0,1,574.63,1053.38Z" transform="translate(-346.21 319.6) rotate(-21.69)"/><rect id="_Téglalap_11" data-name="&lt;Téglalap&gt;" class="cls-11" x="603.08" y="1000.25" width="87.87" height="55.81" transform="translate(-334.19 311.93) rotate(-21.69)"/><rect id="_Téglalap_12" data-name="&lt;Téglalap&gt;" class="cls-8" x="596.69" y="1001.47" width="87.87" height="21.25" transform="translate(-328.7 308.43) rotate(-21.69)"/><line id="_Görbe_22" data-name="&lt;Görbe&gt;" class="cls-6" x1="446.04" y1="975.14" x2="500.54" y2="953.46"/><line id="_Görbe_23" data-name="&lt;Görbe&gt;" class="cls-6" x1="729.42" y1="862.42" x2="756.67" y2="851.58"/><line id="_Görbe_24" data-name="&lt;Görbe&gt;" class="cls-6" x1="578.14" y1="922.59" x2="679.01" y2="882.47"/></g><g id="_Csoport_13" data-name="&lt;Csoport&gt;"><line id="_Görbe_25" data-name="&lt;Görbe&gt;" class="cls-17" x1="312.43" y1="938.68" x2="284.73" y2="949.7"/><line id="_Görbe_26" data-name="&lt;Görbe&gt;" class="cls-17" x1="294.75" y1="906.03" x2="267.37" y2="894.24"/><line id="_Görbe_27" data-name="&lt;Görbe&gt;" class="cls-17" x1="310.21" y1="1001.94" x2="322" y2="974.56"/></g><g id="_Csoport_14" data-name="&lt;Csoport&gt;"><line id="_Görbe_28" data-name="&lt;Görbe&gt;" class="cls-17" x1="785.43" y1="452.23" x2="797.23" y2="424.85"/><line id="_Görbe_29" data-name="&lt;Görbe&gt;" class="cls-17" x1="821.02" y1="462.81" x2="848.73" y2="451.79"/><line id="_Görbe_30" data-name="&lt;Görbe&gt;" class="cls-17" x1="742.28" y1="405.92" x2="753.3" y2="433.63"/></g><path id="_Görbe_31" data-name="&lt;Görbe&gt;" class="cls-6" d="M784.63,569.73a17.17,17.17,0,0,1,16.91,8.14"/><path id="_Görbe_32" data-name="&lt;Görbe&gt;" class="cls-6" d="M729,553.58s2-12.83-4.59-18.41"/><g id="_Csoport_15" data-name="&lt;Csoport&gt;"><path id="_Téglalap_13" data-name="&lt;Téglalap&gt;" class="cls-4" d="M921.08,929h61.48a7.08,7.08,0,0,1,7.08,7.08v21.38a0,0,0,0,1,0,0H913.41a0,0,0,0,1,0,0V936.7A7.67,7.67,0,0,1,921.08,929Z" transform="translate(-281.25 418.46) rotate(-21.69)"/><rect id="_Téglalap_14" data-name="&lt;Téglalap&gt;" class="cls-9" x="930.26" y="929.54" width="37.27" height="14.23" transform="translate(-278.99 417.02) rotate(-21.69)"/><rect id="_Téglalap_15" data-name="&lt;Téglalap&gt;" class="cls-8" x="939.25" y="923.18" width="11.4" height="7.11" transform="translate(-275.61 414.86) rotate(-21.69)"/></g><g id="_Csoport_16" data-name="&lt;Csoport&gt;"><line class="cls-6" x1="353.19" y1="795.48" x2="349.48" y2="796.96"/><path class="cls-18" d="M342,799.94,187,861.6a111.13,111.13,0,0,0-62.19,144.33l9.48,23.83"/><line class="cls-6" x1="135.75" y1="1033.5" x2="137.23" y2="1037.22"/></g><g id="_Csoport_17" data-name="&lt;Csoport&gt;"><g id="_Csoport_18" data-name="&lt;Csoport&gt;"><path id="_Görbe_33" data-name="&lt;Görbe&gt;" class="cls-19" d="M247.07,1048.44l-3.76-9.44L82.13,1103.11a22.36,22.36,0,1,0,16.53,41.56l161.18-64.11-3.76-9.45L103.4,1131.84l-9-22.66Z"/><rect id="_Téglalap_16" data-name="&lt;Téglalap&gt;" class="cls-6" x="93.53" y="1080.33" width="151.45" height="24.39" transform="translate(-391.8 139.91) rotate(-21.69)"/><line id="_Görbe_34" data-name="&lt;Görbe&gt;" class="cls-6" x1="239.61" y1="1064.54" x2="98.89" y2="1120.51"/></g><path id="_Görbe_35" data-name="&lt;Görbe&gt;" class="cls-20" d="M271.76,1075.81l-173.1,68.86,4.52,11.37,161.19-64.11,6.51,16.37-161.19,64.12,4.53,11.37,173.1-68.85a21,21,0,0,0,11.78-27.34h0A21,21,0,0,0,271.76,1075.81Z"/></g><line id="_Görbe_36" data-name="&lt;Görbe&gt;" class="cls-6" x1="775.01" y1="947.21" x2="803.03" y2="1017.64"/><line id="_Görbe_37" data-name="&lt;Görbe&gt;" class="cls-6" x1="798.2" y1="937.99" x2="826.21" y2="1008.42"/><path id="_Görbe_38" data-name="&lt;Görbe&gt;" class="cls-21" d="M728.06,722.34l201.59-80.19a51.3,51.3,0,0,1,66.62,28.71l8.47,21.3"/><g id="_Csoport_19" data-name="&lt;Csoport&gt;"><path id="_Görbe_39" data-name="&lt;Görbe&gt;" class="cls-9" d="M180.26,757,151.09,782a114.07,114.07,0,0,1-68.82,27.38L44,811.24l-10-72.71L137.6,697.29Z"/><polygon id="_Görbe_40" data-name="&lt;Görbe&gt;" class="cls-8" points="156.43 700.05 80.83 705.49 22.14 753.46 -7.68 765.32 -3.92 774.77 105.25 766.91 190 697.63 186.25 688.19 156.43 700.05"/><polygon id="_Görbe_41" data-name="&lt;Görbe&gt;" class="cls-9" points="77.07 696.04 -7.68 765.32 101.5 757.47 186.25 688.19 77.07 696.04"/><path id="_Görbe_42" data-name="&lt;Görbe&gt;" class="cls-22" d="M42.48,800.6l35.61-1.78a114.12,114.12,0,0,0,68.82-27.37L174,748.28l-6.57-9.19L142.52,760.4A114.12,114.12,0,0,1,73.7,787.77l-32.76,1.64Z"/><polyline id="_Görbe_43" data-name="&lt;Görbe&gt;" class="cls-6" points="89.28 726.75 141.26 724.96 167.6 791.2"/><circle id="_Görbe_44" data-name="&lt;Görbe&gt;" class="cls-8" cx="165.52" cy="785.97" r="6.86"/><path id="_Görbe_45" data-name="&lt;Görbe&gt;" class="cls-8" d="M165.52,786s-6.05,12.29.22,28l9.44-3.76,9.44-3.75C178.36,790.75,165.52,786,165.52,786Z"/></g><g id="_Csoport_20" data-name="&lt;Csoport&gt;"><text class="cls-23" transform="translate(-35.86 767.31) rotate(-21.69)"><tspan class="cls-24">A</tspan><tspan x="28.35" y="0">+</tspan></text></g><g id="_Csoport_21" data-name="&lt;Csoport&gt;"><rect id="_Téglalap_17" data-name="&lt;Téglalap&gt;" class="cls-4" x="914.74" y="386.29" width="129.42" height="166.69" transform="translate(-104.22 395.25) rotate(-21.69)"/><rect id="_Téglalap_18" data-name="&lt;Téglalap&gt;" class="cls-7" x="907.06" y="403.75" width="127.33" height="160.59" transform="translate(-110.17 393.05) rotate(-21.69)"/><rect id="_Téglalap_19" data-name="&lt;Téglalap&gt;" class="cls-15" x="950.18" y="437.84" width="72.76" height="24.4" transform="translate(-96.48 396.49) rotate(-21.69)"/></g><g id="_Csoport_22" data-name="&lt;Csoport&gt;"><line class="cls-6" x1="878.02" y1="565.77" x2="881.74" y2="564.29"/><line class="cls-25" x1="888.83" y1="561.47" x2="970.41" y2="529.02"/><line class="cls-6" x1="973.96" y1="527.61" x2="977.67" y2="526.13"/></g><g id="_Csoport_23" data-name="&lt;Csoport&gt;"><line class="cls-6" x1="39.03" y1="677.42" x2="42.75" y2="675.95"/><line class="cls-26" x1="50.35" y1="672.92" x2="335.2" y2="559.62"/><polyline class="cls-6" points="339 558.11 342.72 556.63 344.19 560.35"/><line class="cls-27" x1="347.97" y1="569.85" x2="353.64" y2="584.09"/><line class="cls-6" x1="355.53" y1="588.84" x2="357.01" y2="592.56"/></g><g id="_Csoport_24" data-name="&lt;Csoport&gt;"><polygon id="_Görbe_46" data-name="&lt;Görbe&gt;" class="cls-4" points="604.24 452.61 691.33 417.97 606.28 476.39 604.24 452.61"/><polygon id="_Görbe_47" data-name="&lt;Görbe&gt;" class="cls-4" points="612.69 473.84 622.13 477.91 691.33 417.97 612.69 473.84"/></g><g id="_Csoport_25" data-name="&lt;Csoport&gt;"><polygon id="_Görbe_48" data-name="&lt;Görbe&gt;" class="cls-4" points="916.54 304.19 829.45 338.83 931.4 322.88 916.54 304.19"/><polygon id="_Görbe_49" data-name="&lt;Görbe&gt;" class="cls-4" points="924.99 325.43 920.92 334.87 829.45 338.83 924.99 325.43"/></g><line class="cls-28" x1="178" y1="1269" x2="1382" y2="789"/><path class="cls-29" d="M540.52,163.2a4.49,4.49,0,0,1,1.05-3.07,3.41,3.41,0,0,1,2.7-1.25,3.33,3.33,0,0,1,2.6,1.26,4.5,4.5,0,0,1,1.13,3,4.37,4.37,0,0,1-1.09,2.93,3.37,3.37,0,0,1-2.58,1.3,3.4,3.4,0,0,1-2.72-1.22A4.38,4.38,0,0,1,540.52,163.2Z"/><path class="cls-29" d="M555.05,163.1A4.48,4.48,0,0,1,556.1,160a3.41,3.41,0,0,1,2.71-1.25,3.31,3.31,0,0,1,2.59,1.26,4.45,4.45,0,0,1,1.13,3,4.35,4.35,0,0,1-1.09,2.93,3.34,3.34,0,0,1-2.58,1.3,3.45,3.45,0,0,1-2.72-1.22A4.4,4.4,0,0,1,555.05,163.1Z"/><path class="cls-29" d="M569.59,163a4.54,4.54,0,0,1,1-3.07,3.47,3.47,0,0,1,2.71-1.25,3.37,3.37,0,0,1,2.6,1.27,4.47,4.47,0,0,1,1.13,3,4.37,4.37,0,0,1-1.1,2.94,3.32,3.32,0,0,1-2.58,1.29,3.45,3.45,0,0,1-2.72-1.21A4.39,4.39,0,0,1,569.59,163Z"/><path class="cls-29" d="M586.08,164.39l-.23-35.95a1.78,1.78,0,0,1,.76-1.45,3.07,3.07,0,0,1,1.95-.61,2.87,2.87,0,0,1,1.87.59,1.79,1.79,0,0,1,.78,1.46l0,4a12.58,12.58,0,0,1,11.27-6.61,12,12,0,0,1,7.32,2.31,13.81,13.81,0,0,1,4.8,6.19,15.75,15.75,0,0,1,5.57-6.43,13.59,13.59,0,0,1,17.35,2q4.29,4.31,4.33,11.53L642,164a2,2,0,0,1-.79,1.54,3,3,0,0,1-2,.69,2.89,2.89,0,0,1-1.91-.67,1.92,1.92,0,0,1-.82-1.52l-.15-22.55a10.54,10.54,0,0,0-3-7.87,9.36,9.36,0,0,0-6.78-2.84,9.67,9.67,0,0,0-6.9,3,10,10,0,0,0-3,7.52l.14,23c0,1.42-.92,2.13-2.79,2.14s-2.72-.69-2.73-2.1l-.15-22.9a10.49,10.49,0,0,0-2.89-7.48,9.06,9.06,0,0,0-6.86-3,9.8,9.8,0,0,0-7,3,10.43,10.43,0,0,0-3,7.87l.15,22.55a2,2,0,0,1-.84,1.53,3,3,0,0,1-1.95.69,2.84,2.84,0,0,1-1.92-.66A2,2,0,0,1,586.08,164.39Z"/><path class="cls-29" d="M650.77,150.63l-.06-9.52a14.81,14.81,0,0,1,4.69-11,16.44,16.44,0,0,1,22.65-.35,14.52,14.52,0,0,1,4.78,11,11,11,0,0,1-.52,3.82,3.59,3.59,0,0,1-1.77,2.05,8.77,8.77,0,0,1-2.25.78,19.63,19.63,0,0,1-2.81.18l-19.21.13,0,3.14a10,10,0,0,0,3.67,8,15.74,15.74,0,0,0,14.38,2.08,14.5,14.5,0,0,0,3.3-1.73,3.47,3.47,0,0,1,1.82-.86,2.14,2.14,0,0,1,1.67.88,2.84,2.84,0,0,1,.73,1.74q0,1.78-3.63,3.72a19.45,19.45,0,0,1-9.08,2q-8.08.06-13.21-4.37A14.79,14.79,0,0,1,650.77,150.63Zm5.48-7,17-.11a7.09,7.09,0,0,0,3.39-.57,2.58,2.58,0,0,0,.84-2.33,10.53,10.53,0,0,0-3.07-7.42,10,10,0,0,0-7.62-3.16,10.38,10.38,0,0,0-7.51,3.09,9.83,9.83,0,0,0-3,7.29Z"/><path class="cls-29" d="M691.31,163.72l-.23-36a1.79,1.79,0,0,1,.76-1.45,3.09,3.09,0,0,1,1.95-.61,3,3,0,0,1,1.87.59,1.85,1.85,0,0,1,.78,1.46l0,4.22a13.47,13.47,0,0,1,4.48-4.84,12.16,12.16,0,0,1,6.87-2l3,0a2,2,0,0,1,1.54.77,2.76,2.76,0,0,1,0,3.63,2,2,0,0,1-1.52.79l-3,0a10.71,10.71,0,0,0-7.8,3.48,12.21,12.21,0,0,0-3.34,9l.14,20.95a2,2,0,0,1-.8,1.53,3.06,3.06,0,0,1-2,.69,2.9,2.9,0,0,1-1.92-.67A2,2,0,0,1,691.31,163.72Z"/><path class="cls-29" d="M719.21,153.27l-.29-44.73a1.74,1.74,0,0,1,.84-1.45,3.18,3.18,0,0,1,1.87-.6,3.24,3.24,0,0,1,2,.58,1.74,1.74,0,0,1,.86,1.43l.11,17,11-.07a1.7,1.7,0,0,1,1.41.68,2.74,2.74,0,0,1,0,3.29,1.7,1.7,0,0,1-1.4.7l-11,.07.14,22.93q0,4.13,1.78,5.76t6.18,1.61l2.38,0a2.45,2.45,0,0,1,1.83.74,2.48,2.48,0,0,1,.73,1.79,2.61,2.61,0,0,1-.71,1.85,2.39,2.39,0,0,1-1.82.81h-2.38Q719.3,165.75,719.21,153.27Z"/><path class="cls-29" d="M761.69,163.26l-.23-35.95a1.8,1.8,0,0,1,.75-1.45,3.14,3.14,0,0,1,2-.61,3,3,0,0,1,1.87.59,1.81,1.81,0,0,1,.77,1.46l0,4a12.58,12.58,0,0,1,11.26-6.62,12.22,12.22,0,0,1,7.33,2.31,13.93,13.93,0,0,1,4.8,6.19,15.64,15.64,0,0,1,5.56-6.42,13.58,13.58,0,0,1,17.36,2q4.27,4.32,4.32,11.54l.15,22.61a2,2,0,0,1-.8,1.53,3,3,0,0,1-2,.69,2.84,2.84,0,0,1-1.92-.66,2,2,0,0,1-.82-1.52L812,140.39a10.56,10.56,0,0,0-3-7.87,9.4,9.4,0,0,0-6.77-2.84,9.7,9.7,0,0,0-6.91,3,10,10,0,0,0-3,7.53l.15,23c0,1.41-.92,2.12-2.79,2.14s-2.73-.69-2.74-2.11l-.14-22.89a10.52,10.52,0,0,0-2.9-7.49,9.13,9.13,0,0,0-6.86-3,9.74,9.74,0,0,0-7,3,10.41,10.41,0,0,0-3,7.86l.14,22.55a1.92,1.92,0,0,1-.84,1.54,3.09,3.09,0,0,1-2,.69,2.89,2.89,0,0,1-1.91-.67A2,2,0,0,1,761.69,163.26Z"/><path class="cls-29" d="M826.37,149.5l-.06-9.52A14.83,14.83,0,0,1,831,129a16.43,16.43,0,0,1,22.65-.36,14.57,14.57,0,0,1,4.79,11,11,11,0,0,1-.53,3.82,3.53,3.53,0,0,1-1.77,2,8.64,8.64,0,0,1-2.25.78,17.9,17.9,0,0,1-2.8.19l-19.21.12,0,3.14a9.92,9.92,0,0,0,3.66,8,15.74,15.74,0,0,0,14.38,2.08,15.29,15.29,0,0,0,3.31-1.72,3.44,3.44,0,0,1,1.82-.86,2.09,2.09,0,0,1,1.66.88,2.79,2.79,0,0,1,.73,1.74q0,1.78-3.63,3.72a19.55,19.55,0,0,1-9.08,2q-8.07,0-13.2-4.38A14.79,14.79,0,0,1,826.37,149.5Zm5.48-7,17-.11a7,7,0,0,0,3.4-.57,2.61,2.61,0,0,0,.83-2.33,10.51,10.51,0,0,0-3.06-7.41,10,10,0,0,0-7.63-3.16,10.34,10.34,0,0,0-7.5,3.09,9.78,9.78,0,0,0-3.06,7.28Zm4-30.12a1.55,1.55,0,0,1,.93-1.53l9.49-5.25a.89.89,0,0,1,.67-.26,1.81,1.81,0,0,1,1.5.72,2.67,2.67,0,0,1,.56,1.65,1.91,1.91,0,0,1-1,1.88l-9.06,4.9a1.65,1.65,0,0,1-.85.26,2.08,2.08,0,0,1-1.54-.71A2.41,2.41,0,0,1,835.82,112.38Z"/><path class="cls-29" d="M863.75,173.24q0-6.37,7.17-9.32-4.7-1.57-4.71-5.8,0-3.8,4.21-6.11a13.28,13.28,0,0,1-4.75-10.71l0-3.23a13.39,13.39,0,0,1,4-10.13A14.63,14.63,0,0,1,880.18,124a14.47,14.47,0,0,1,10,3.45,13.42,13.42,0,0,1,2.87-3.89,4.83,4.83,0,0,1,3.13-1.45,2.56,2.56,0,0,1,1.88.67,2.16,2.16,0,0,1,.69,1.52,1.73,1.73,0,0,1-1.44,1.88,7,7,0,0,0-4.73,3.62,12.92,12.92,0,0,1,2.43,8l0,3.24a13.47,13.47,0,0,1-4.1,10.18,14.74,14.74,0,0,1-10.6,4.07,15.45,15.45,0,0,1-6.55-1.37c-1.76,1-2.63,2.06-2.62,3.3a3,3,0,0,0,2,2.7,16.39,16.39,0,0,0,4.88,1.28l6.38.79a42.7,42.7,0,0,1,6.4,1.25,9.93,9.93,0,0,1,4.91,3.11,8.76,8.76,0,0,1,2,5.91,10.17,10.17,0,0,1-4.53,9q-4.57,3.16-12,3.22-7.65,0-12.47-3A9.38,9.38,0,0,1,863.75,173.24Zm5.36-.55a6.47,6.47,0,0,0,3.22,5.59q3.2,2.1,8.64,2.07t8.36-2.18a6.69,6.69,0,0,0,3-5.73,5.3,5.3,0,0,0-.87-3,6.07,6.07,0,0,0-2-1.94,12.18,12.18,0,0,0-3-1.18,22.21,22.21,0,0,0-3.32-.64l-3.57-.35-2.9-.27Q869.08,167.51,869.11,172.69ZM871,141.15a10.61,10.61,0,0,0,2.55,7.27,8.69,8.69,0,0,0,6.86,2.78,8.51,8.51,0,0,0,6.66-2.87,10.42,10.42,0,0,0,2.46-7.21l0-3.25a10.16,10.16,0,0,0-2.55-7.05,9.6,9.6,0,0,0-13.52.09A10.12,10.12,0,0,0,871,138Z"/><path class="cls-29" d="M922.33,162.24l-.23-36a1.75,1.75,0,0,1,.76-1.49,3.31,3.31,0,0,1,1.95-.57,2.87,2.87,0,0,1,1.79.59,1.81,1.81,0,0,1,.77,1.46l0,4a12.3,12.3,0,0,1,4.39-4.68,12.75,12.75,0,0,1,7-1.94,14.28,14.28,0,0,1,10.65,4.61A15.63,15.63,0,0,1,954,139.42l.14,22.61a1.84,1.84,0,0,1-.84,1.62,3.35,3.35,0,0,1-1.95.61,3.23,3.23,0,0,1-1.87-.58,1.86,1.86,0,0,1-.86-1.61l-.15-22.55a10.54,10.54,0,0,0-3.19-7.45,10,10,0,0,0-7.5-3.26,9.88,9.88,0,0,0-7,3,10.4,10.4,0,0,0-3,7.82l.15,22.55a2,2,0,0,1-.84,1.54,3.11,3.11,0,0,1-1.95.69,2.84,2.84,0,0,1-2-.67A2.05,2.05,0,0,1,922.33,162.24Z"/><path class="cls-29" d="M962.88,148.63l-.06-9.52a14.84,14.84,0,0,1,4.68-11,16.45,16.45,0,0,1,22.66-.35,14.52,14.52,0,0,1,4.78,11,11,11,0,0,1-.52,3.82,3.64,3.64,0,0,1-1.78,2.05,8.18,8.18,0,0,1-2.24.77,18,18,0,0,1-2.81.19l-19.21.12,0,3.15a9.93,9.93,0,0,0,3.67,8,15.14,15.14,0,0,0,17.68.35,3.47,3.47,0,0,1,1.82-.86,2.11,2.11,0,0,1,1.66.88A2.83,2.83,0,0,1,994,159q0,1.78-3.63,3.72a19.46,19.46,0,0,1-9.09,2q-8.07.06-13.2-4.37A14.79,14.79,0,0,1,962.88,148.63Zm5.48-7,17-.11a7,7,0,0,0,3.39-.56,2.59,2.59,0,0,0,.84-2.33,10.53,10.53,0,0,0-3.07-7.42,10,10,0,0,0-7.63-3.16,10.37,10.37,0,0,0-7.5,3.09,9.82,9.82,0,0,0-3,7.28Z"/><path class="cls-29" d="M1003.42,161.71l-.23-35.95a1.78,1.78,0,0,1,.76-1.45,3.09,3.09,0,0,1,1.95-.61,3,3,0,0,1,1.87.59,1.81,1.81,0,0,1,.77,1.46l0,4a12.58,12.58,0,0,1,11.26-6.62,12.16,12.16,0,0,1,7.33,2.32,13.85,13.85,0,0,1,4.8,6.18,15.58,15.58,0,0,1,5.57-6.42,13.57,13.57,0,0,1,17.35,2q4.27,4.31,4.33,11.54l.14,22.61a2,2,0,0,1-.8,1.53,2.94,2.94,0,0,1-2,.69,2.84,2.84,0,0,1-1.92-.66,2,2,0,0,1-.81-1.52l-.15-22.56a10.55,10.55,0,0,0-3-7.87,9.44,9.44,0,0,0-6.78-2.84,9.7,9.7,0,0,0-6.91,3,10,10,0,0,0-3,7.53l.15,23c0,1.41-.92,2.12-2.79,2.14s-2.72-.69-2.73-2.11l-.15-22.89a10.48,10.48,0,0,0-2.9-7.49,9.13,9.13,0,0,0-6.86-3,9.76,9.76,0,0,0-7,3,10.41,10.41,0,0,0-3,7.86l.15,22.55a2,2,0,0,1-.84,1.54,3.13,3.13,0,0,1-2,.69,2.9,2.9,0,0,1-1.92-.67A2,2,0,0,1,1003.42,161.71Z"/><path class="cls-29" d="M1086.72,161.18l-.39-60.6a1.78,1.78,0,0,1,.76-1.45,3,3,0,0,1,2-.61,3.26,3.26,0,0,1,2,.58,1.79,1.79,0,0,1,.82,1.44l.26,41.4,20.62-18.58a2.28,2.28,0,0,1,3.19.27,2.46,2.46,0,0,1,.91,1.83,1.92,1.92,0,0,1-.59,1.53l-12.42,11,14.84,21.41a2.82,2.82,0,0,1,.35,1.18,2.72,2.72,0,0,1-.93,1.88,2.86,2.86,0,0,1-2,1,2,2,0,0,1-1.71-1l-14.41-20.9-7.78,6.93.08,12.67a2,2,0,0,1-.79,1.53,3,3,0,0,1-2,.69,2.83,2.83,0,0,1-1.91-.66A2,2,0,0,1,1086.72,161.18Z"/><path class="cls-29" d="M1122.67,147.61l-.06-9.53a14.83,14.83,0,0,1,4.69-11,16.43,16.43,0,0,1,22.65-.36,14.53,14.53,0,0,1,4.79,11,11,11,0,0,1-.53,3.82,3.53,3.53,0,0,1-1.77,2,8.64,8.64,0,0,1-2.25.78,17.9,17.9,0,0,1-2.8.19l-19.21.12,0,3.15a9.91,9.91,0,0,0,3.66,8,14,14,0,0,0,9.33,3,13.64,13.64,0,0,0,5-.88,14.72,14.72,0,0,0,3.3-1.72,3.49,3.49,0,0,1,1.83-.86,2.09,2.09,0,0,1,1.66.88,2.74,2.74,0,0,1,.73,1.74q0,1.78-3.63,3.72a19.52,19.52,0,0,1-9.08,2q-8.07,0-13.2-4.38A14.78,14.78,0,0,1,1122.67,147.61Zm5.48-7,17-.11a7,7,0,0,0,3.4-.57,2.61,2.61,0,0,0,.83-2.33,10.51,10.51,0,0,0-3.06-7.41,10,10,0,0,0-7.63-3.16,10.34,10.34,0,0,0-7.5,3.09,9.78,9.78,0,0,0-3.06,7.28Zm4-30.12a1.53,1.53,0,0,1,.92-1.53l9.49-5.25a.9.9,0,0,1,.67-.26,1.81,1.81,0,0,1,1.5.72,2.61,2.61,0,0,1,.56,1.65,1.9,1.9,0,0,1-1,1.88l-9.06,4.9a1.65,1.65,0,0,1-.85.26,2.08,2.08,0,0,1-1.54-.71A2.35,2.35,0,0,1,1132.13,110.48Z"/><path class="cls-29" d="M1160.65,157.39a2.93,2.93,0,0,1,.58-1.7,1.66,1.66,0,0,1,1.35-.86,3.9,3.9,0,0,1,1.88,1,17.19,17.19,0,0,0,3.67,2,14.29,14.29,0,0,0,5.7,1q4.5,0,6.62-1.74a5.28,5.28,0,0,0,2.09-4.35,6.05,6.05,0,0,0-2.19-4.87,14.73,14.73,0,0,0-5.25-2.73l-6.17-1.83a11.56,11.56,0,0,1-5.29-3.24,8.82,8.82,0,0,1-2.21-6.23,11.25,11.25,0,0,1,3.3-8.14q3.35-3.47,10-3.51a22.31,22.31,0,0,1,7.79,1.27q3.62,1.29,3.63,2.82a3.42,3.42,0,0,1-.67,1.88,2,2,0,0,1-1.61,1,26,26,0,0,1-3.15-1.17,15.35,15.35,0,0,0-5.87-1.16q-4.25,0-6.36,2a6.07,6.07,0,0,0-2.1,4.51,4.71,4.71,0,0,0,2.23,4.07,18.8,18.8,0,0,0,5.29,2.37l6.22,1.8a10.21,10.21,0,0,1,5.3,3.67,11.38,11.38,0,0,1,2.16,7.13,9.76,9.76,0,0,1-3.56,8.06c-2.39,2-5.75,3-10,3a20.47,20.47,0,0,1-9.49-1.94Q1160.66,159.53,1160.65,157.39Z"/><path class="cls-29" d="M1192.63,160.54a3.77,3.77,0,0,1,.83-2.13l20.63-31.2-18.79.12a1.8,1.8,0,0,1-1.45-.71,2.5,2.5,0,0,1-.6-1.65,2.66,2.66,0,0,1,.58-1.75,1.81,1.81,0,0,1,1.44-.73l24.06-.16a2.16,2.16,0,0,1,1.49.59,2.07,2.07,0,0,1,.64,1.61,3.37,3.37,0,0,1-.66,2l-20.71,31.24,20.57-.13a1.81,1.81,0,0,1,1.45.7,2.67,2.67,0,0,1,.6,1.79,2.43,2.43,0,0,1-.58,1.63,1.82,1.82,0,0,1-1.44.72l-25.75.17a2.22,2.22,0,0,1-1.67-.66A2.13,2.13,0,0,1,1192.63,160.54Z"/><path class="cls-29" d="M1229.51,147.09l-.14-22.7a1.92,1.92,0,0,1,.8-1.45,3,3,0,0,1,2-.69,3,3,0,0,1,1.88.67,1.9,1.9,0,0,1,.85,1.43L1235,147a11,11,0,0,0,3,7.52,9.21,9.21,0,0,0,7.14,3.27,9.34,9.34,0,0,0,7.14-3.36,10.94,10.94,0,0,0,3-7.56l-.15-22.73a1.76,1.76,0,0,1,.84-1.45,3.32,3.32,0,0,1,2-.6,3.11,3.11,0,0,1,1.91.58,1.77,1.77,0,0,1,.82,1.44l.14,22.78a15.53,15.53,0,0,1-4.59,11.21,14.87,14.87,0,0,1-11,4.87,14.71,14.71,0,0,1-11-4.73A15.7,15.7,0,0,1,1229.51,147.09Zm7.58-38.09a2.89,2.89,0,0,1,.79-2.12,2.77,2.77,0,0,1,2-.83,2.68,2.68,0,0,1,2,.81,2.86,2.86,0,0,1,.82,2.11,3.05,3.05,0,0,1-.79,2.12,2.55,2.55,0,0,1-2,.91,2.61,2.61,0,0,1-2-.88A3.11,3.11,0,0,1,1237.09,109Zm10-.06a2.82,2.82,0,0,1,.79-2.12,2.71,2.71,0,0,1,2-.83,2.59,2.59,0,0,1,2,.8,2.93,2.93,0,0,1,.78,2.12,3.05,3.05,0,0,1-.79,2.12,2.55,2.55,0,0,1-1.95.91,2.65,2.65,0,0,1-2.05-.89A3,3,0,0,1,1247,108.94Z"/><path class="cls-29" d="M1272.86,160l-.39-60.61a1.79,1.79,0,0,1,.76-1.45,3.06,3.06,0,0,1,2-.6,3.26,3.26,0,0,1,2,.58,1.77,1.77,0,0,1,.82,1.44l.39,60.6a2,2,0,0,1-.8,1.54,3,3,0,0,1-2,.69,2.9,2.9,0,0,1-1.92-.67A2,2,0,0,1,1272.86,160Z"/><path class="cls-29" d="M1289.54,149.61l-.29-44.73a1.74,1.74,0,0,1,.84-1.44,3.19,3.19,0,0,1,1.87-.61,3.31,3.31,0,0,1,2,.58,1.74,1.74,0,0,1,.86,1.43l.11,17,11-.07a1.72,1.72,0,0,1,1.41.68,2.74,2.74,0,0,1,0,3.29,1.7,1.7,0,0,1-1.4.7l-11,.07.14,22.93q0,4.14,1.78,5.77c1.17,1.08,3.23,1.62,6.18,1.6l2.38,0a2.45,2.45,0,0,1,1.83.74,2.48,2.48,0,0,1,.73,1.8,2.62,2.62,0,0,1-.71,1.85,2.38,2.38,0,0,1-1.82.8h-2.38Q1289.61,162.09,1289.54,149.61Z"/><path class="cls-29" d="M1330.4,146.27l-.06-9.52a14.87,14.87,0,0,1,4.69-11,16.43,16.43,0,0,1,22.65-.36,14.53,14.53,0,0,1,4.79,11,10.89,10.89,0,0,1-.53,3.82,3.52,3.52,0,0,1-1.77,2,8.64,8.64,0,0,1-2.25.78,16.93,16.93,0,0,1-2.8.18l-19.21.13,0,3.14a9.92,9.92,0,0,0,3.66,8,14,14,0,0,0,9.33,3,13.85,13.85,0,0,0,5-.88,15.05,15.05,0,0,0,3.31-1.72,3.55,3.55,0,0,1,1.82-.87,2.09,2.09,0,0,1,1.66.89,2.81,2.81,0,0,1,.74,1.73q0,1.78-3.64,3.72a19.39,19.39,0,0,1-9.08,2q-8.07,0-13.2-4.38A14.8,14.8,0,0,1,1330.4,146.27Zm5.48-7,17-.11a7,7,0,0,0,3.4-.57,2.63,2.63,0,0,0,.84-2.33,10.53,10.53,0,0,0-3.07-7.41,10,10,0,0,0-7.63-3.17,10.34,10.34,0,0,0-7.5,3.09,9.84,9.84,0,0,0-3.06,7.29Z"/><path class="cls-29" d="M1371.63,159.35l-.39-60.6a1.77,1.77,0,0,1,.75-1.45,3.14,3.14,0,0,1,2-.61,3.27,3.27,0,0,1,2,.59,1.73,1.73,0,0,1,.81,1.43l.39,60.61a1.92,1.92,0,0,1-.8,1.53,3,3,0,0,1-2,.7,2.94,2.94,0,0,1-1.92-.67A2,2,0,0,1,1371.63,159.35Z"/></svg>