<svg id="Réteg_1" data-name="Réteg 1" xmlns="http://www.w3.org/2000/svg" xmlns:xlink="http://www.w3.org/1999/xlink" viewBox="0 0 1920 1080"><defs><style>.cls-1,.cls-2,.cls-3{opacity:0.39;}.cls-1{fill:url(#Névtelen_színátmenet_38);}.cls-2{fill:url(#Névtelen_színátmenet_38-2);}.cls-3{fill:url(#Névtelen_színátmenet_38-3);}.cls-29,.cls-4{fill:#fff;}.cls-10,.cls-11,.cls-14,.cls-15,.cls-16,.cls-18,.cls-19,.cls-20,.cls-21,.cls-22,.cls-25,.cls-26,.cls-27,.cls-28,.cls-4,.cls-6,.cls-7,.cls-8,.cls-9{stroke:#34508b;}.cls-10,.cls-11,.cls-14,.cls-15,.cls-16,.cls-17,.cls-18,.cls-19,.cls-20,.cls-21,.cls-22,.cls-25,.cls-26,.cls-27,.cls-4,.cls-6,.cls-7,.cls-8,.cls-9{stroke-linecap:round;stroke-linejoin:round;stroke-width:3px;}.cls-14,.cls-5{fill:#f7ab6f;}.cls-17,.cls-18,.cls-21,.cls-25,.cls-26,.cls-27,.cls-28,.cls-6{fill:none;}.cls-7{fill:#ff6aa9;}.cls-13,.cls-23,.cls-8{fill:#34508b;}.cls-9{fill:#62c3ef;}.cls-10{fill:#a5d996;}.cls-11,.cls-12{fill:#fbf8f3;}.cls-15{fill:#3bddba;}.cls-16{fill:#dcdee0;}.cls-17{stroke:#f7ab6f;}.cls-18{stroke-dasharray:8.07 8.07;}.cls-19{fill:#ffd3a2;}.cls-20{fill:#ff9f9e;}.cls-21{stroke-dasharray:8;}.cls-22{fill:#fffaad;}.cls-23{font-size:38.15px;font-family:Montserrat-Bold, Montserrat;font-weight:700;}.cls-24{letter-spacing:-0.02em;}.cls-25{stroke-dasharray:7.63 7.63;}.cls-26{stroke-dasharray:8.17 8.17;}.cls-27{stroke-dasharray:10.22 10.22;}.cls-28{stroke-miterlimit:10;stroke-width:2px;}.cls-29{font-size:120px;font-family:Dosis-Regular, Dosis;}.cls-30{letter-spacing:-0.01em;}</style><linearGradient id="Névtelen_színátmenet_38" x1="1446.37" y1="-288.27" x2="668.86" y2="1058.42" gradientUnits="userSpaceOnUse"><stop offset="0.2" stop-color="#00d49d"/><stop offset="0.56" stop-color="aqua"/><stop offset="0.81" stop-color="#21bce8"/></linearGradient><linearGradient id="Névtelen_színátmenet_38-2" x1="1477.15" y1="-265.76" x2="681.14" y2="1112.97" xlink:href="#Névtelen_színátmenet_38"/><linearGradient id="Névtelen_színátmenet_38-3" x1="1496.7" y1="-256.9" x2="688.78" y2="1142.47" xlink:href="#Névtelen_színátmenet_38"/></defs><title>t-bg-4</title><path class="cls-1" d="M-1-9.36l3,570S186.9,971.45,509,767C676,661,756,588,818,570c99.27-28.82,204-24.1,326,133.15s155.85,221.54,472,160.57c45.19-8.71,164-3.42,90,138.45S1926,1109,1926,1109L1937-5Z"/><path class="cls-2" d="M-4-7l3,650.17S327.35,1099.33,593,787c79-92.88,168-145.47,219-150.44,27.81-2.72,207-10.19,329,169.17s155.85,252.7,472,183.16c45.19-9.94,164-3.9,90,157.92s220,121.84,220,121.84L1934-2Z"/><path class="cls-3" d="M-5-10.35l3,698.93S396.35,1150.75,662,815c79-99.85,127-118.65,178-124,27.81-2.92,178-20.5,300,172.31S1295.85,1135,1612,1060.2c45.19-10.68,164-4.19,90,169.77s220,131,220,131L1933-5Z"/><g id="_Csoport_" data-name="&lt;Csoport&gt;"><rect id="_Téglalap_" data-name="&lt;Téglalap&gt;" class="cls-4" x="921.88" y="665.5" width="275.41" height="164.86" transform="translate(-201.4 444.57) rotate(-21.69)"/><g id="_Csoport_2" data-name="&lt;Csoport&gt;"><g id="_Csoport_3" data-name="&lt;Csoport&gt;"><g id="_Csoport_4" data-name="&lt;Csoport&gt;"><polygon id="_Görbe_" data-name="&lt;Görbe&gt;" class="cls-5" points="1092.57 701.3 1096.83 692.56 1091.48 684.43 1100.07 679.87 1100.51 670.15 1110.14 671.51 1116.21 663.9 1123.21 670.66 1132.59 668.08 1134.28 677.66 1143.38 681.09 1139.12 689.83 1144.47 697.96 1135.88 702.52 1135.44 712.24 1125.8 710.88 1119.73 718.49 1112.74 711.72 1103.36 714.31 1101.67 704.73 1092.57 701.3"/><polygon id="_Görbe_2" data-name="&lt;Görbe&gt;" class="cls-6" points="1092.57 701.3 1096.83 692.56 1091.48 684.43 1100.07 679.87 1100.51 670.15 1110.14 671.51 1116.21 663.9 1123.21 670.66 1132.59 668.08 1134.28 677.66 1143.38 681.09 1139.12 689.83 1144.47 697.96 1135.88 702.52 1135.44 712.24 1125.8 710.88 1119.73 718.49 1112.74 711.72 1103.36 714.31 1101.67 704.73 1092.57 701.3"/></g><circle id="_Görbe_3" data-name="&lt;Görbe&gt;" class="cls-7" cx="1117.97" cy="691.19" r="11.81"/></g><rect id="_Téglalap_2" data-name="&lt;Téglalap&gt;" class="cls-8" x="938.79" y="716.52" width="92.16" height="9.83" transform="translate(-196.9 415.08) rotate(-21.69)"/><rect id="_Téglalap_3" data-name="&lt;Téglalap&gt;" class="cls-8" x="948.4" y="740.69" width="92.16" height="9.83" transform="translate(-205.15 420.35) rotate(-21.69)"/><line id="_Görbe_4" data-name="&lt;Görbe&gt;" class="cls-6" x1="967.92" y1="803.5" x2="1164.37" y2="725.37"/><line id="_Görbe_5" data-name="&lt;Görbe&gt;" class="cls-6" x1="1086.87" y1="770.69" x2="1169.35" y2="737.88"/><line id="_Görbe_6" data-name="&lt;Görbe&gt;" class="cls-6" x1="1091.65" y1="782.73" x2="1174.14" y2="749.92"/><line id="_Görbe_7" data-name="&lt;Görbe&gt;" class="cls-6" x1="1096.44" y1="794.77" x2="1178.93" y2="761.96"/></g></g><g id="_Csoport_5" data-name="&lt;Csoport&gt;"><g id="_Csoport_6" data-name="&lt;Csoport&gt;"><circle id="_Görbe_8" data-name="&lt;Görbe&gt;" class="cls-9" cx="736.81" cy="585.65" r="112.48"/><path id="_Görbe_9" data-name="&lt;Görbe&gt;" class="cls-10" d="M841.33,544.08a112.48,112.48,0,0,0-146.09-63q-2.81,1.13-5.52,2.38c-2.61,19.32,1,37.32,2.12,56.56a13.46,13.46,0,0,1,22.63,12.78c-1.84,7.17-9,11.44-13.76,17.06-8.58,10-9.39,25.91-1.88,36.76a52.09,52.09,0,0,1,4.35,6.35c1,2,1.53,4.24,2.72,6.14,3,4.78,9.61,6.28,15,4.69s9.74-5.64,13.32-10c4.77-5.79,9.51-12.92,17-13.88,6.48-.83,13.62,3.41,19.25.1,4.07-2.39,5.24-7.57,7.15-11.88s6.55-8.61,10.8-6.57a39.71,39.71,0,0,1,16.15,21c1,3.14,1.67,6.48,3.57,9.17s5.56,4.55,8.53,3.14c6.86-3.26,1-16.75,7.79-20.07,3.7-1.81,8.16,1.6,9.31,5.55s.18,8.17-.13,12.27c-.55,7.2,2.33,10.22,7.93,13.6C853.24,601.37,851.29,569.12,841.33,544.08Z"/></g><path id="_Görbe_10" data-name="&lt;Görbe&gt;" class="cls-8" d="M773.17,479.24a112.45,112.45,0,0,1-88.73,205.93,112.46,112.46,0,1,0,88.73-205.93Z"/></g><g id="_Csoport_7" data-name="&lt;Csoport&gt;"><rect id="_Téglalap_4" data-name="&lt;Téglalap&gt;" class="cls-9" x="323.59" y="657.11" width="493.98" height="357.78" rx="17.27" ry="17.27" transform="translate(-268.58 270.08) rotate(-21.69)"/><path id="_Görbe_11" data-name="&lt;Görbe&gt;" class="cls-11" d="M389.54,1049.12l4.68,11.77a35.11,35.11,0,0,0,45.6,19.64L833.58,923.91a35.1,35.1,0,0,0,19.64-45.59l-4.68-11.77Z"/><g id="_Csoport_8" data-name="&lt;Csoport&gt;"><g id="_Csoport_9" data-name="&lt;Csoport&gt;"><rect id="_Görbe_12" data-name="&lt;Görbe&gt;" class="cls-12" x="339.16" y="683.2" width="445.19" height="261.22" transform="translate(-261 265.24) rotate(-21.69)"/></g><g id="_Csoport_10" data-name="&lt;Csoport&gt;"><rect id="_Görbe_13" data-name="&lt;Görbe&gt;" class="cls-6" x="339.16" y="683.2" width="445.19" height="261.22" transform="translate(-261 265.24) rotate(-21.69)"/></g></g><circle id="_Görbe_14" data-name="&lt;Görbe&gt;" class="cls-13" cx="627.87" cy="980.03" r="10.16"/><g id="_Csoport_11" data-name="&lt;Csoport&gt;"><rect id="_Téglalap_5" data-name="&lt;Téglalap&gt;" class="cls-14" x="379.45" y="655.52" width="167.15" height="272.4" transform="translate(-259.83 227.19) rotate(-21.69)"/><rect id="_Téglalap_6" data-name="&lt;Téglalap&gt;" class="cls-14" x="534.77" y="593.75" width="167.15" height="272.4" transform="translate(-226 280.22) rotate(-21.69)"/></g><g id="_Csoport_12" data-name="&lt;Csoport&gt;"><rect id="_Téglalap_7" data-name="&lt;Téglalap&gt;" class="cls-4" x="392.03" y="640.58" width="148.86" height="270.03" transform="translate(-253.63 227.31) rotate(-21.69)"/><rect id="_Téglalap_8" data-name="&lt;Téglalap&gt;" class="cls-4" x="530.34" y="585.56" width="148.86" height="270.03" transform="translate(-223.5 274.54) rotate(-21.69)"/><rect id="_Téglalap_9" data-name="&lt;Téglalap&gt;" class="cls-15" x="392.39" y="680.29" width="56.32" height="77.96" transform="translate(-236.06 206.36) rotate(-21.69)"/><line id="_Görbe_15" data-name="&lt;Görbe&gt;" class="cls-6" x1="420" y1="794.07" x2="511.9" y2="757.52"/><line id="_Görbe_16" data-name="&lt;Görbe&gt;" class="cls-6" x1="429.83" y1="818.78" x2="521.73" y2="782.23"/><line id="_Görbe_17" data-name="&lt;Görbe&gt;" class="cls-6" x1="439.66" y1="843.5" x2="531.56" y2="806.94"/><line id="_Görbe_18" data-name="&lt;Görbe&gt;" class="cls-6" x1="449.49" y1="868.21" x2="541.39" y2="831.66"/></g><polygon id="_Görbe_19" data-name="&lt;Görbe&gt;" class="cls-13" points="702.03 823.91 568.9 592.83 568.49 592.99 631.98 752.6 587 869.66 702.03 823.91"/><polygon id="_Görbe_20" data-name="&lt;Görbe&gt;" class="cls-4" points="631.98 752.6 585.51 873.54 485.71 622.63 532.17 501.69 631.98 752.6"/><line id="_Görbe_21" data-name="&lt;Görbe&gt;" class="cls-6" x1="417.24" y1="956.51" x2="764.8" y2="818.27"/><path id="_Összetett_görbe_" data-name="&lt;Összetett görbe&gt;" class="cls-16" d="M411.44,658.19l-6.58-16.53-8.69,3.46a53,53,0,0,0-16.63-16.93l3.84-8.91-16.34-7-3.87,9a53,53,0,0,0-23.42-.27L336,611.61l-16.53,6.58,3.72,9.36a53,53,0,0,0-16.75,16.15l-9.35-4-7,16.34,9.21,4a53,53,0,0,0-.6,23.36L289.45,687,296,703.55l9-3.58a52.9,52.9,0,0,0,16.26,17.21l-3.77,8.75,16.34,7,3.66-8.5a52.91,52.91,0,0,0,24,.63l3.38,8.5L381.39,727l-3.31-8.33A52.83,52.83,0,0,0,395.46,702l8.31,3.58,7-16.33-8.29-3.57a52.94,52.94,0,0,0,.31-24Zm-29-1.6-22.39,8.91A11.88,11.88,0,0,0,350,661.16l-8.9-22.39A35.58,35.58,0,0,1,382.46,656.59Zm-48-15.19,8.9,22.39A11.9,11.9,0,0,0,339,673.86l-22.39,8.91A35.6,35.6,0,0,1,334.48,641.4Zm-15.2,48,22.39-8.91a11.88,11.88,0,0,0,10.08,4.34l8.9,22.39A35.61,35.61,0,0,1,319.28,689.38Zm48,15.19-8.9-22.39a11.92,11.92,0,0,0,4.34-10.07l22.39-8.91A35.6,35.6,0,0,1,367.26,704.57Z"/><path id="_Összetett_görbe_2" data-name="&lt;Összetett görbe&gt;" class="cls-16" d="M468.24,567l-5.44-13.68-9.21,3.67a30.15,30.15,0,0,0-6.2-6.54l3.87-9-13.51-5.83-3.82,8.86a30.34,30.34,0,0,0-9.18-.18l-3.55-8.91-13.67,5.44,3.54,8.91a30.33,30.33,0,0,0-6.55,6.44l-8.86-3.82-5.82,13.52,9,3.87a29.9,29.9,0,0,0,0,9l-9.21,3.67L395,596.06l9.42-3.75a30,30,0,0,0,6.18,6.19l-4.06,9.43,13.51,5.82,4.12-9.56a30,30,0,0,0,8.57.07l3.86,9.72,13.68-5.44-3.87-9.72a29.7,29.7,0,0,0,6.17-5.93l9.56,4.12L468,583.49l-9.42-4.06a30.05,30.05,0,0,0,.24-8.74Zm-36,16.16a9.52,9.52,0,1,1,5.33-12.37A9.53,9.53,0,0,1,432.28,583.11Z"/><path id="_Téglalap_10" data-name="&lt;Téglalap&gt;" class="cls-11" d="M574.63,1053.38H747.41a8.26,8.26,0,0,1,8.26,8.26v11.73a0,0,0,0,1,0,0H566.36a0,0,0,0,1,0,0v-11.73A8.26,8.26,0,0,1,574.63,1053.38Z" transform="translate(-346.21 319.6) rotate(-21.69)"/><rect id="_Téglalap_11" data-name="&lt;Téglalap&gt;" class="cls-11" x="603.08" y="1000.25" width="87.87" height="55.81" transform="translate(-334.19 311.93) rotate(-21.69)"/><rect id="_Téglalap_12" data-name="&lt;Téglalap&gt;" class="cls-8" x="596.69" y="1001.47" width="87.87" height="21.25" transform="translate(-328.7 308.43) rotate(-21.69)"/><line id="_Görbe_22" data-name="&lt;Görbe&gt;" class="cls-6" x1="446.04" y1="975.14" x2="500.54" y2="953.46"/><line id="_Görbe_23" data-name="&lt;Görbe&gt;" class="cls-6" x1="729.42" y1="862.42" x2="756.67" y2="851.58"/><line id="_Görbe_24" data-name="&lt;Görbe&gt;" class="cls-6" x1="578.14" y1="922.59" x2="679.01" y2="882.47"/></g><g id="_Csoport_13" data-name="&lt;Csoport&gt;"><line id="_Görbe_25" data-name="&lt;Görbe&gt;" class="cls-17" x1="312.43" y1="938.68" x2="284.73" y2="949.7"/><line id="_Görbe_26" data-name="&lt;Görbe&gt;" class="cls-17" x1="294.75" y1="906.03" x2="267.37" y2="894.24"/><line id="_Görbe_27" data-name="&lt;Görbe&gt;" class="cls-17" x1="310.21" y1="1001.94" x2="322" y2="974.56"/></g><g id="_Csoport_14" data-name="&lt;Csoport&gt;"><line id="_Görbe_28" data-name="&lt;Görbe&gt;" class="cls-17" x1="785.43" y1="452.23" x2="797.23" y2="424.85"/><line id="_Görbe_29" data-name="&lt;Görbe&gt;" class="cls-17" x1="821.02" y1="462.81" x2="848.73" y2="451.79"/><line id="_Görbe_30" data-name="&lt;Görbe&gt;" class="cls-17" x1="742.28" y1="405.92" x2="753.3" y2="433.63"/></g><path id="_Görbe_31" data-name="&lt;Görbe&gt;" class="cls-6" d="M784.63,569.73a17.17,17.17,0,0,1,16.91,8.14"/><path id="_Görbe_32" data-name="&lt;Görbe&gt;" class="cls-6" d="M729,553.58s2-12.83-4.59-18.41"/><g id="_Csoport_15" data-name="&lt;Csoport&gt;"><path id="_Téglalap_13" data-name="&lt;Téglalap&gt;" class="cls-4" d="M921.08,929h61.48a7.08,7.08,0,0,1,7.08,7.08v21.38a0,0,0,0,1,0,0H913.41a0,0,0,0,1,0,0V936.7A7.67,7.67,0,0,1,921.08,929Z" transform="translate(-281.25 418.46) rotate(-21.69)"/><rect id="_Téglalap_14" data-name="&lt;Téglalap&gt;" class="cls-9" x="930.26" y="929.54" width="37.27" height="14.23" transform="translate(-278.99 417.02) rotate(-21.69)"/><rect id="_Téglalap_15" data-name="&lt;Téglalap&gt;" class="cls-8" x="939.25" y="923.18" width="11.4" height="7.11" transform="translate(-275.61 414.86) rotate(-21.69)"/></g><g id="_Csoport_16" data-name="&lt;Csoport&gt;"><line class="cls-6" x1="353.19" y1="795.48" x2="349.48" y2="796.96"/><path class="cls-18" d="M342,799.94,187,861.6a111.13,111.13,0,0,0-62.19,144.33l9.48,23.83"/><line class="cls-6" x1="135.75" y1="1033.5" x2="137.23" y2="1037.22"/></g><g id="_Csoport_17" data-name="&lt;Csoport&gt;"><g id="_Csoport_18" data-name="&lt;Csoport&gt;"><path id="_Görbe_33" data-name="&lt;Görbe&gt;" class="cls-19" d="M247.07,1048.44l-3.76-9.44L82.13,1103.11a22.36,22.36,0,1,0,16.53,41.56l161.18-64.11-3.76-9.45L103.4,1131.84l-9-22.66Z"/><rect id="_Téglalap_16" data-name="&lt;Téglalap&gt;" class="cls-6" x="93.53" y="1080.33" width="151.45" height="24.39" transform="translate(-391.8 139.91) rotate(-21.69)"/><line id="_Görbe_34" data-name="&lt;Görbe&gt;" class="cls-6" x1="239.61" y1="1064.54" x2="98.89" y2="1120.51"/></g><path id="_Görbe_35" data-name="&lt;Görbe&gt;" class="cls-20" d="M271.76,1075.81l-173.1,68.86,4.52,11.37,161.19-64.11,6.51,16.37-161.19,64.12,4.53,11.37,173.1-68.85a21,21,0,0,0,11.78-27.34h0A21,21,0,0,0,271.76,1075.81Z"/></g><line id="_Görbe_36" data-name="&lt;Görbe&gt;" class="cls-6" x1="775.01" y1="947.21" x2="803.03" y2="1017.64"/><line id="_Görbe_37" data-name="&lt;Görbe&gt;" class="cls-6" x1="798.2" y1="937.99" x2="826.21" y2="1008.42"/><path id="_Görbe_38" data-name="&lt;Görbe&gt;" class="cls-21" d="M728.06,722.34l201.59-80.19a51.3,51.3,0,0,1,66.62,28.71l8.47,21.3"/><g id="_Csoport_19" data-name="&lt;Csoport&gt;"><path id="_Görbe_39" data-name="&lt;Görbe&gt;" class="cls-9" d="M180.26,757,151.09,782a114.07,114.07,0,0,1-68.82,27.38L44,811.24l-10-72.71L137.6,697.29Z"/><polygon id="_Görbe_40" data-name="&lt;Görbe&gt;" class="cls-8" points="156.43 700.05 80.83 705.49 22.14 753.46 -7.68 765.32 -3.92 774.77 105.25 766.91 190 697.63 186.25 688.19 156.43 700.05"/><polygon id="_Görbe_41" data-name="&lt;Görbe&gt;" class="cls-9" points="77.07 696.04 -7.68 765.32 101.5 757.47 186.25 688.19 77.07 696.04"/><path id="_Görbe_42" data-name="&lt;Görbe&gt;" class="cls-22" d="M42.48,800.6l35.61-1.78a114.12,114.12,0,0,0,68.82-27.37L174,748.28l-6.57-9.19L142.52,760.4A114.12,114.12,0,0,1,73.7,787.77l-32.76,1.64Z"/><polyline id="_Görbe_43" data-name="&lt;Görbe&gt;" class="cls-6" points="89.28 726.75 141.26 724.96 167.6 791.2"/><circle id="_Görbe_44" data-name="&lt;Görbe&gt;" class="cls-8" cx="165.52" cy="785.97" r="6.86"/><path id="_Görbe_45" data-name="&lt;Görbe&gt;" class="cls-8" d="M165.52,786s-6.05,12.29.22,28l9.44-3.76,9.44-3.75C178.36,790.75,165.52,786,165.52,786Z"/></g><g id="_Csoport_20" data-name="&lt;Csoport&gt;"><text class="cls-23" transform="translate(-35.86 767.31) rotate(-21.69)"><tspan class="cls-24">A</tspan><tspan x="28.35" y="0">+</tspan></text></g><g id="_Csoport_21" data-name="&lt;Csoport&gt;"><rect id="_Téglalap_17" data-name="&lt;Téglalap&gt;" class="cls-4" x="914.74" y="386.29" width="129.42" height="166.69" transform="translate(-104.22 395.25) rotate(-21.69)"/><rect id="_Téglalap_18" data-name="&lt;Téglalap&gt;" class="cls-7" x="907.06" y="403.75" width="127.33" height="160.59" transform="translate(-110.17 393.05) rotate(-21.69)"/><rect id="_Téglalap_19" data-name="&lt;Téglalap&gt;" class="cls-15" x="950.18" y="437.84" width="72.76" height="24.4" transform="translate(-96.48 396.49) rotate(-21.69)"/></g><g id="_Csoport_22" data-name="&lt;Csoport&gt;"><line class="cls-6" x1="878.02" y1="565.77" x2="881.74" y2="564.29"/><line class="cls-25" x1="888.83" y1="561.47" x2="970.41" y2="529.02"/><line class="cls-6" x1="973.96" y1="527.61" x2="977.67" y2="526.13"/></g><g id="_Csoport_23" data-name="&lt;Csoport&gt;"><line class="cls-6" x1="39.03" y1="677.42" x2="42.75" y2="675.95"/><line class="cls-26" x1="50.35" y1="672.92" x2="335.2" y2="559.62"/><polyline class="cls-6" points="339 558.11 342.72 556.63 344.19 560.35"/><line class="cls-27" x1="347.97" y1="569.85" x2="353.64" y2="584.09"/><line class="cls-6" x1="355.53" y1="588.84" x2="357.01" y2="592.56"/></g><g id="_Csoport_24" data-name="&lt;Csoport&gt;"><polygon id="_Görbe_46" data-name="&lt;Görbe&gt;" class="cls-4" points="604.24 452.61 691.33 417.97 606.28 476.39 604.24 452.61"/><polygon id="_Görbe_47" data-name="&lt;Görbe&gt;" class="cls-4" points="612.69 473.84 622.13 477.91 691.33 417.97 612.69 473.84"/></g><g id="_Csoport_25" data-name="&lt;Csoport&gt;"><polygon id="_Görbe_48" data-name="&lt;Görbe&gt;" class="cls-4" points="916.54 304.19 829.45 338.83 931.4 322.88 916.54 304.19"/><polygon id="_Görbe_49" data-name="&lt;Görbe&gt;" class="cls-4" points="924.99 325.43 920.92 334.87 829.45 338.83 924.99 325.43"/></g><line class="cls-28" x1="178" y1="1269" x2="1382" y2="789"/><text class="cls-29" transform="translate(346.16 166.91) rotate(-0.37)">...mert még nem <tspan class="cls-30" x="768.35" y="0">k</tspan><tspan x="821.39" y="0">észült el</tspan></text></svg>