<svg id="Réteg_1" data-name="Réteg 1" xmlns="http://www.w3.org/2000/svg" xmlns:xlink="http://www.w3.org/1999/xlink" viewBox="0 0 1920 1080"><defs><style>.cls-1,.cls-2,.cls-3{opacity:0.39;}.cls-1{fill:url(#Névtelen_színátmenet_38);}.cls-2{fill:url(#Névtelen_színátmenet_38-2);}.cls-3{fill:url(#Névtelen_színátmenet_38-3);}.cls-29,.cls-4{fill:#fff;}.cls-10,.cls-11,.cls-14,.cls-15,.cls-16,.cls-18,.cls-19,.cls-20,.cls-21,.cls-22,.cls-25,.cls-26,.cls-27,.cls-28,.cls-4,.cls-6,.cls-7,.cls-8,.cls-9{stroke:#34508b;}.cls-10,.cls-11,.cls-14,.cls-15,.cls-16,.cls-17,.cls-18,.cls-19,.cls-20,.cls-21,.cls-22,.cls-25,.cls-26,.cls-27,.cls-4,.cls-6,.cls-7,.cls-8,.cls-9{stroke-linecap:round;stroke-linejoin:round;stroke-width:3px;}.cls-14,.cls-5{fill:#f7ab6f;}.cls-17,.cls-18,.cls-21,.cls-25,.cls-26,.cls-27,.cls-28,.cls-6{fill:none;}.cls-7{fill:#ff6aa9;}.cls-13,.cls-23,.cls-8{fill:#34508b;}.cls-9{fill:#62c3ef;}.cls-10{fill:#a5d996;}.cls-11,.cls-12{fill:#fbf8f3;}.cls-15{fill:#3bddba;}.cls-16{fill:#dcdee0;}.cls-17{stroke:#f7ab6f;}.cls-18{stroke-dasharray:8.07 8.07;}.cls-19{fill:#ffd3a2;}.cls-20{fill:#ff9f9e;}.cls-21{stroke-dasharray:8;}.cls-22{fill:#fffaad;}.cls-23{font-size:38.15px;font-family:Montserrat-Bold, Montserrat;font-weight:700;}.cls-24{letter-spacing:-0.02em;}.cls-25{stroke-dasharray:7.63 7.63;}.cls-26{stroke-dasharray:8.17 8.17;}.cls-27{stroke-dasharray:10.22 10.22;}.cls-28{stroke-miterlimit:10;stroke-width:2px;}</style><linearGradient id="Névtelen_színátmenet_38" x1="1439.37" y1="-281.27" x2="661.86" y2="1065.42" gradientUnits="userSpaceOnUse"><stop offset="0.2" stop-color="#00d49d"/><stop offset="0.56" stop-color="aqua"/><stop offset="0.81" stop-color="#21bce8"/></linearGradient><linearGradient id="Névtelen_színátmenet_38-2" x1="1470.15" y1="-258.76" x2="674.14" y2="1119.97" xlink:href="#Névtelen_színátmenet_38"/><linearGradient id="Névtelen_színátmenet_38-3" x1="1489.7" y1="-249.9" x2="681.78" y2="1149.47" xlink:href="#Névtelen_színátmenet_38"/></defs><title>t-bg-1</title><path class="cls-1" d="M-8-2.36l3,570S179.9,978.45,502,774C669,668,749,595,811,577c99.27-28.82,204-24.1,326,133.15s155.85,221.54,472,160.57c45.19-8.71,164-3.42,90,138.45S1919,1116,1919,1116L1930,2Z"/><path class="cls-2" d="M-11,0l3,650.17S320.35,1106.33,586,794c79-92.88,168-145.47,219-150.44,27.81-2.72,207-10.19,329,169.17s155.85,252.7,472,183.16c45.19-9.94,164-3.9,90,157.92s220,121.84,220,121.84L1927,5Z"/><path class="cls-3" d="M-12-3.35l3,698.93S389.35,1157.75,655,822c79-99.85,127-118.65,178-124,27.81-2.92,178-20.5,300,172.31S1288.85,1142,1605,1067.2c45.19-10.68,164-4.19,90,169.77s220,131,220,131L1926,2Z"/><g id="_Csoport_" data-name="&lt;Csoport&gt;"><rect id="_Téglalap_" data-name="&lt;Téglalap&gt;" class="cls-4" x="914.88" y="672.5" width="275.41" height="164.86" transform="translate(-204.49 442.48) rotate(-21.69)"/><g id="_Csoport_2" data-name="&lt;Csoport&gt;"><g id="_Csoport_3" data-name="&lt;Csoport&gt;"><g id="_Csoport_4" data-name="&lt;Csoport&gt;"><polygon id="_Görbe_" data-name="&lt;Görbe&gt;" class="cls-5" points="1085.57 708.3 1089.83 699.56 1084.48 691.43 1093.07 686.87 1093.51 677.15 1103.14 678.51 1109.21 670.9 1116.21 677.66 1125.59 675.08 1127.28 684.66 1136.38 688.09 1132.12 696.83 1137.47 704.96 1128.88 709.52 1128.44 719.24 1118.8 717.88 1112.73 725.49 1105.74 718.72 1096.36 721.31 1094.67 711.73 1085.57 708.3"/><polygon id="_Görbe_2" data-name="&lt;Görbe&gt;" class="cls-6" points="1085.57 708.3 1089.83 699.56 1084.48 691.43 1093.07 686.87 1093.51 677.15 1103.14 678.51 1109.21 670.9 1116.21 677.66 1125.59 675.08 1127.28 684.66 1136.38 688.09 1132.12 696.83 1137.47 704.96 1128.88 709.52 1128.44 719.24 1118.8 717.88 1112.73 725.49 1105.74 718.72 1096.36 721.31 1094.67 711.73 1085.57 708.3"/></g><circle id="_Görbe_3" data-name="&lt;Görbe&gt;" class="cls-7" cx="1110.97" cy="698.19" r="11.81"/></g><rect id="_Téglalap_2" data-name="&lt;Téglalap&gt;" class="cls-8" x="931.79" y="723.52" width="92.16" height="9.83" transform="translate(-199.98 412.99) rotate(-21.69)"/><rect id="_Téglalap_3" data-name="&lt;Téglalap&gt;" class="cls-8" x="941.4" y="747.69" width="92.16" height="9.83" transform="translate(-208.24 418.25) rotate(-21.69)"/><line id="_Görbe_4" data-name="&lt;Görbe&gt;" class="cls-6" x1="960.92" y1="810.5" x2="1157.37" y2="732.37"/><line id="_Görbe_5" data-name="&lt;Görbe&gt;" class="cls-6" x1="1079.87" y1="777.69" x2="1162.35" y2="744.88"/><line id="_Görbe_6" data-name="&lt;Görbe&gt;" class="cls-6" x1="1084.65" y1="789.73" x2="1167.14" y2="756.92"/><line id="_Görbe_7" data-name="&lt;Görbe&gt;" class="cls-6" x1="1089.44" y1="801.77" x2="1171.93" y2="768.96"/></g></g><g id="_Csoport_5" data-name="&lt;Csoport&gt;"><g id="_Csoport_6" data-name="&lt;Csoport&gt;"><circle id="_Görbe_8" data-name="&lt;Görbe&gt;" class="cls-9" cx="729.81" cy="592.65" r="112.48"/><path id="_Görbe_9" data-name="&lt;Görbe&gt;" class="cls-10" d="M834.33,551.08a112.48,112.48,0,0,0-146.09-63q-2.81,1.13-5.52,2.38c-2.61,19.32,1,37.32,2.12,56.56a13.46,13.46,0,0,1,22.63,12.78c-1.84,7.17-9,11.44-13.76,17.06-8.58,10-9.39,25.91-1.88,36.76a52.09,52.09,0,0,1,4.35,6.35c1,2,1.53,4.24,2.72,6.14,3,4.78,9.61,6.28,15,4.69s9.74-5.64,13.32-10c4.77-5.79,9.51-12.92,17-13.88,6.48-.83,13.62,3.41,19.25.1,4.07-2.39,5.24-7.57,7.15-11.88s6.55-8.61,10.8-6.57a39.71,39.71,0,0,1,16.15,21c1,3.14,1.67,6.48,3.57,9.17s5.56,4.55,8.53,3.14c6.86-3.26,1-16.75,7.79-20.07,3.7-1.81,8.16,1.6,9.31,5.55s.18,8.17-.13,12.27c-.55,7.2,2.33,10.22,7.93,13.6C846.24,608.37,844.29,576.12,834.33,551.08Z"/></g><path id="_Görbe_10" data-name="&lt;Görbe&gt;" class="cls-8" d="M766.17,486.24a112.45,112.45,0,0,1-88.73,205.93,112.46,112.46,0,1,0,88.73-205.93Z"/></g><g id="_Csoport_7" data-name="&lt;Csoport&gt;"><rect id="_Téglalap_4" data-name="&lt;Téglalap&gt;" class="cls-9" x="316.59" y="664.11" width="493.98" height="357.78" rx="17.27" ry="17.27" transform="translate(-271.66 267.98) rotate(-21.69)"/><path id="_Görbe_11" data-name="&lt;Görbe&gt;" class="cls-11" d="M382.54,1056.12l4.68,11.77a35.11,35.11,0,0,0,45.6,19.64L826.58,930.91a35.1,35.1,0,0,0,19.64-45.59l-4.68-11.77Z"/><g id="_Csoport_8" data-name="&lt;Csoport&gt;"><g id="_Csoport_9" data-name="&lt;Csoport&gt;"><rect id="_Görbe_12" data-name="&lt;Görbe&gt;" class="cls-12" x="332.16" y="690.2" width="445.19" height="261.22" transform="translate(-264.08 263.15) rotate(-21.69)"/></g><g id="_Csoport_10" data-name="&lt;Csoport&gt;"><rect id="_Görbe_13" data-name="&lt;Görbe&gt;" class="cls-6" x="332.16" y="690.2" width="445.19" height="261.22" transform="translate(-264.08 263.15) rotate(-21.69)"/></g></g><circle id="_Görbe_14" data-name="&lt;Görbe&gt;" class="cls-13" cx="620.87" cy="987.03" r="10.16"/><g id="_Csoport_11" data-name="&lt;Csoport&gt;"><rect id="_Téglalap_5" data-name="&lt;Téglalap&gt;" class="cls-14" x="372.45" y="662.52" width="167.15" height="272.4" transform="translate(-262.91 225.1) rotate(-21.69)"/><rect id="_Téglalap_6" data-name="&lt;Téglalap&gt;" class="cls-14" x="527.77" y="600.75" width="167.15" height="272.4" transform="translate(-229.08 278.13) rotate(-21.69)"/></g><g id="_Csoport_12" data-name="&lt;Csoport&gt;"><rect id="_Téglalap_7" data-name="&lt;Téglalap&gt;" class="cls-4" x="385.03" y="647.58" width="148.86" height="270.03" transform="translate(-256.71 225.22) rotate(-21.69)"/><rect id="_Téglalap_8" data-name="&lt;Téglalap&gt;" class="cls-4" x="523.34" y="592.56" width="148.86" height="270.03" transform="translate(-226.58 272.45) rotate(-21.69)"/><rect id="_Téglalap_9" data-name="&lt;Téglalap&gt;" class="cls-15" x="385.39" y="687.29" width="56.32" height="77.96" transform="translate(-239.14 204.27) rotate(-21.69)"/><line id="_Görbe_15" data-name="&lt;Görbe&gt;" class="cls-6" x1="413" y1="801.07" x2="504.9" y2="764.52"/><line id="_Görbe_16" data-name="&lt;Görbe&gt;" class="cls-6" x1="422.83" y1="825.78" x2="514.73" y2="789.23"/><line id="_Görbe_17" data-name="&lt;Görbe&gt;" class="cls-6" x1="432.66" y1="850.5" x2="524.56" y2="813.94"/><line id="_Görbe_18" data-name="&lt;Görbe&gt;" class="cls-6" x1="442.49" y1="875.21" x2="534.39" y2="838.66"/></g><polygon id="_Görbe_19" data-name="&lt;Görbe&gt;" class="cls-13" points="695.03 830.91 561.9 599.83 561.49 599.99 624.98 759.6 580 876.66 695.03 830.91"/><polygon id="_Görbe_20" data-name="&lt;Görbe&gt;" class="cls-4" points="624.98 759.6 578.51 880.54 478.71 629.63 525.17 508.69 624.98 759.6"/><line id="_Görbe_21" data-name="&lt;Görbe&gt;" class="cls-6" x1="410.24" y1="963.51" x2="757.8" y2="825.27"/><path id="_Összetett_görbe_" data-name="&lt;Összetett görbe&gt;" class="cls-16" d="M404.44,665.19l-6.58-16.53-8.69,3.46a53,53,0,0,0-16.63-16.93l3.84-8.91-16.34-7-3.87,9a53,53,0,0,0-23.42-.27L329,618.61l-16.53,6.58,3.72,9.36a53,53,0,0,0-16.75,16.15l-9.35-4-7,16.34,9.21,4a53,53,0,0,0-.6,23.36L282.45,694,289,710.55l9-3.58a52.9,52.9,0,0,0,16.26,17.21l-3.77,8.75,16.34,7,3.66-8.5a52.91,52.91,0,0,0,24,.63l3.38,8.5L374.39,734l-3.31-8.33A52.83,52.83,0,0,0,388.46,709l8.31,3.58,7-16.33-8.29-3.57a52.94,52.94,0,0,0,.31-24Zm-29-1.6-22.39,8.91A11.88,11.88,0,0,0,343,668.16l-8.9-22.39A35.58,35.58,0,0,1,375.46,663.59Zm-48-15.19,8.9,22.39A11.9,11.9,0,0,0,332,680.86l-22.39,8.91A35.6,35.6,0,0,1,327.48,648.4Zm-15.2,48,22.39-8.91a11.88,11.88,0,0,0,10.08,4.34l8.9,22.39A35.61,35.61,0,0,1,312.28,696.38Zm48,15.19-8.9-22.39a11.92,11.92,0,0,0,4.34-10.07l22.39-8.91A35.6,35.6,0,0,1,360.26,711.57Z"/><path id="_Összetett_görbe_2" data-name="&lt;Összetett görbe&gt;" class="cls-16" d="M461.24,574l-5.44-13.68-9.21,3.67a30.15,30.15,0,0,0-6.2-6.54l3.87-9-13.51-5.83-3.82,8.86a30.34,30.34,0,0,0-9.18-.18l-3.55-8.91-13.67,5.44,3.54,8.91a30.33,30.33,0,0,0-6.55,6.44l-8.86-3.82-5.82,13.52,9,3.87a29.9,29.9,0,0,0,0,9l-9.21,3.67L388,603.06l9.42-3.75a30,30,0,0,0,6.18,6.19l-4.06,9.43,13.51,5.82,4.12-9.56a30,30,0,0,0,8.57.07l3.86,9.72,13.68-5.44-3.87-9.72a29.7,29.7,0,0,0,6.17-5.93l9.56,4.12L461,590.49l-9.42-4.06a30.05,30.05,0,0,0,.24-8.74Zm-36,16.16a9.52,9.52,0,1,1,5.33-12.37A9.53,9.53,0,0,1,425.28,590.11Z"/><path id="_Téglalap_10" data-name="&lt;Téglalap&gt;" class="cls-11" d="M567.63,1060.38H740.41a8.26,8.26,0,0,1,8.26,8.26v11.73a0,0,0,0,1,0,0H559.36a0,0,0,0,1,0,0v-11.73A8.26,8.26,0,0,1,567.63,1060.38Z" transform="translate(-349.29 317.51) rotate(-21.69)"/><rect id="_Téglalap_11" data-name="&lt;Téglalap&gt;" class="cls-11" x="596.08" y="1007.25" width="87.87" height="55.81" transform="translate(-337.27 309.84) rotate(-21.69)"/><rect id="_Téglalap_12" data-name="&lt;Téglalap&gt;" class="cls-8" x="589.69" y="1008.47" width="87.87" height="21.25" transform="translate(-331.79 306.34) rotate(-21.69)"/><line id="_Görbe_22" data-name="&lt;Görbe&gt;" class="cls-6" x1="439.04" y1="982.14" x2="493.54" y2="960.46"/><line id="_Görbe_23" data-name="&lt;Görbe&gt;" class="cls-6" x1="722.42" y1="869.42" x2="749.67" y2="858.58"/><line id="_Görbe_24" data-name="&lt;Görbe&gt;" class="cls-6" x1="571.14" y1="929.59" x2="672.01" y2="889.47"/></g><g id="_Csoport_13" data-name="&lt;Csoport&gt;"><line id="_Görbe_25" data-name="&lt;Görbe&gt;" class="cls-17" x1="305.43" y1="945.68" x2="277.73" y2="956.7"/><line id="_Görbe_26" data-name="&lt;Görbe&gt;" class="cls-17" x1="287.75" y1="913.03" x2="260.37" y2="901.24"/><line id="_Görbe_27" data-name="&lt;Görbe&gt;" class="cls-17" x1="303.21" y1="1008.94" x2="315" y2="981.56"/></g><g id="_Csoport_14" data-name="&lt;Csoport&gt;"><line id="_Görbe_28" data-name="&lt;Görbe&gt;" class="cls-17" x1="778.43" y1="459.23" x2="790.23" y2="431.85"/><line id="_Görbe_29" data-name="&lt;Görbe&gt;" class="cls-17" x1="814.02" y1="469.81" x2="841.73" y2="458.79"/><line id="_Görbe_30" data-name="&lt;Görbe&gt;" class="cls-17" x1="735.28" y1="412.92" x2="746.3" y2="440.63"/></g><path id="_Görbe_31" data-name="&lt;Görbe&gt;" class="cls-6" d="M777.63,576.73a17.17,17.17,0,0,1,16.91,8.14"/><path id="_Görbe_32" data-name="&lt;Görbe&gt;" class="cls-6" d="M722,560.58s2-12.83-4.59-18.41"/><g id="_Csoport_15" data-name="&lt;Csoport&gt;"><path id="_Téglalap_13" data-name="&lt;Téglalap&gt;" class="cls-4" d="M914.08,936h61.48a7.08,7.08,0,0,1,7.08,7.08v21.38a0,0,0,0,1,0,0H906.41a0,0,0,0,1,0,0V943.7A7.67,7.67,0,0,1,914.08,936Z" transform="translate(-284.33 416.37) rotate(-21.69)"/><rect id="_Téglalap_14" data-name="&lt;Téglalap&gt;" class="cls-9" x="923.26" y="936.54" width="37.27" height="14.23" transform="translate(-282.07 414.93) rotate(-21.69)"/><rect id="_Téglalap_15" data-name="&lt;Téglalap&gt;" class="cls-8" x="932.25" y="930.18" width="11.4" height="7.11" transform="translate(-278.69 412.77) rotate(-21.69)"/></g><g id="_Csoport_16" data-name="&lt;Csoport&gt;"><line class="cls-6" x1="346.19" y1="802.48" x2="342.48" y2="803.96"/><path class="cls-18" d="M335,806.94,180,868.6a111.13,111.13,0,0,0-62.19,144.33l9.48,23.83"/><line class="cls-6" x1="128.75" y1="1040.5" x2="130.23" y2="1044.22"/></g><g id="_Csoport_17" data-name="&lt;Csoport&gt;"><g id="_Csoport_18" data-name="&lt;Csoport&gt;"><path id="_Görbe_33" data-name="&lt;Görbe&gt;" class="cls-19" d="M240.07,1055.44l-3.76-9.44L75.13,1110.11a22.36,22.36,0,1,0,16.53,41.56l161.18-64.11-3.76-9.45L96.4,1138.84l-9-22.66Z"/><rect id="_Téglalap_16" data-name="&lt;Téglalap&gt;" class="cls-6" x="86.53" y="1087.33" width="151.45" height="24.39" transform="translate(-394.89 137.82) rotate(-21.69)"/><line id="_Görbe_34" data-name="&lt;Görbe&gt;" class="cls-6" x1="232.61" y1="1071.54" x2="91.89" y2="1127.51"/></g><path id="_Görbe_35" data-name="&lt;Görbe&gt;" class="cls-20" d="M264.76,1082.81l-173.1,68.86L96.18,1163l161.19-64.11,6.51,16.37-161.19,64.12,4.53,11.37,173.1-68.85a21,21,0,0,0,11.78-27.34h0A21,21,0,0,0,264.76,1082.81Z"/></g><line id="_Görbe_36" data-name="&lt;Görbe&gt;" class="cls-6" x1="768.01" y1="954.21" x2="796.03" y2="1024.64"/><line id="_Görbe_37" data-name="&lt;Görbe&gt;" class="cls-6" x1="791.2" y1="944.99" x2="819.21" y2="1015.42"/><path id="_Görbe_38" data-name="&lt;Görbe&gt;" class="cls-21" d="M721.06,729.34l201.59-80.19a51.3,51.3,0,0,1,66.62,28.71l8.47,21.3"/><g id="_Csoport_19" data-name="&lt;Csoport&gt;"><path id="_Görbe_39" data-name="&lt;Görbe&gt;" class="cls-9" d="M173.26,764,144.09,789a114.07,114.07,0,0,1-68.82,27.38L37,818.24l-10-72.71L130.6,704.29Z"/><polygon id="_Görbe_40" data-name="&lt;Görbe&gt;" class="cls-8" points="149.43 707.05 73.83 712.49 15.14 760.46 -14.68 772.32 -10.92 781.77 98.25 773.91 183 704.63 179.25 695.19 149.43 707.05"/><polygon id="_Görbe_41" data-name="&lt;Görbe&gt;" class="cls-9" points="70.07 703.04 -14.68 772.32 94.5 764.47 179.25 695.19 70.07 703.04"/><path id="_Görbe_42" data-name="&lt;Görbe&gt;" class="cls-22" d="M35.48,807.6l35.61-1.78a114.12,114.12,0,0,0,68.82-27.37L167,755.28l-6.57-9.19L135.52,767.4A114.12,114.12,0,0,1,66.7,794.77l-32.76,1.64Z"/><polyline id="_Görbe_43" data-name="&lt;Görbe&gt;" class="cls-6" points="82.28 733.75 134.26 731.96 160.6 798.2"/><circle id="_Görbe_44" data-name="&lt;Görbe&gt;" class="cls-8" cx="158.52" cy="792.97" r="6.86"/><path id="_Görbe_45" data-name="&lt;Görbe&gt;" class="cls-8" d="M158.52,793s-6.05,12.29.22,28l9.44-3.76,9.44-3.75C171.36,797.75,158.52,793,158.52,793Z"/></g><g id="_Csoport_20" data-name="&lt;Csoport&gt;"><text class="cls-23" transform="translate(-42.86 774.31) rotate(-21.69)"><tspan class="cls-24">A</tspan><tspan x="28.35" y="0">+</tspan></text></g><g id="_Csoport_21" data-name="&lt;Csoport&gt;"><rect id="_Téglalap_17" data-name="&lt;Téglalap&gt;" class="cls-4" x="907.74" y="393.29" width="129.42" height="166.69" transform="translate(-107.31 393.16) rotate(-21.69)"/><rect id="_Téglalap_18" data-name="&lt;Téglalap&gt;" class="cls-7" x="900.06" y="410.75" width="127.33" height="160.59" transform="translate(-113.25 390.95) rotate(-21.69)"/><rect id="_Téglalap_19" data-name="&lt;Téglalap&gt;" class="cls-15" x="943.18" y="444.84" width="72.76" height="24.4" transform="translate(-99.56 394.4) rotate(-21.69)"/></g><g id="_Csoport_22" data-name="&lt;Csoport&gt;"><line class="cls-6" x1="871.02" y1="572.77" x2="874.74" y2="571.29"/><line class="cls-25" x1="881.83" y1="568.47" x2="963.41" y2="536.02"/><line class="cls-6" x1="966.96" y1="534.61" x2="970.67" y2="533.13"/></g><g id="_Csoport_23" data-name="&lt;Csoport&gt;"><line class="cls-6" x1="32.03" y1="684.42" x2="35.75" y2="682.95"/><line class="cls-26" x1="43.35" y1="679.92" x2="328.2" y2="566.62"/><polyline class="cls-6" points="332 565.11 335.72 563.63 337.19 567.35"/><line class="cls-27" x1="340.97" y1="576.85" x2="346.64" y2="591.09"/><line class="cls-6" x1="348.53" y1="595.84" x2="350.01" y2="599.56"/></g><g id="_Csoport_24" data-name="&lt;Csoport&gt;"><polygon id="_Görbe_46" data-name="&lt;Görbe&gt;" class="cls-4" points="597.24 459.61 684.33 424.97 599.28 483.39 597.24 459.61"/><polygon id="_Görbe_47" data-name="&lt;Görbe&gt;" class="cls-4" points="605.69 480.84 615.13 484.91 684.33 424.97 605.69 480.84"/></g><g id="_Csoport_25" data-name="&lt;Csoport&gt;"><polygon id="_Görbe_48" data-name="&lt;Görbe&gt;" class="cls-4" points="909.54 311.19 822.45 345.83 924.4 329.88 909.54 311.19"/><polygon id="_Görbe_49" data-name="&lt;Görbe&gt;" class="cls-4" points="917.99 332.43 913.92 341.87 822.45 345.83 917.99 332.43"/></g><line class="cls-28" x1="171" y1="1276" x2="1375" y2="796"/><path class="cls-29" d="M576.66,172.85a4.3,4.3,0,0,1,1-2.92,3.23,3.23,0,0,1,2.58-1.19,3.15,3.15,0,0,1,2.47,1.2,4.28,4.28,0,0,1,1.08,2.87,4.1,4.1,0,0,1-1,2.79,3.19,3.19,0,0,1-2.46,1.24,3.29,3.29,0,0,1-2.59-1.16A4.17,4.17,0,0,1,576.66,172.85Z"/><path class="cls-29" d="M590.51,172.76a4.3,4.3,0,0,1,1-2.92,3.23,3.23,0,0,1,2.58-1.19,3.15,3.15,0,0,1,2.47,1.2,4.28,4.28,0,0,1,1.08,2.87,4.1,4.1,0,0,1-1,2.79,3.19,3.19,0,0,1-2.46,1.24,3.29,3.29,0,0,1-2.59-1.16A4.17,4.17,0,0,1,590.51,172.76Z"/><path class="cls-29" d="M604.36,172.68a4.31,4.31,0,0,1,1-2.93,3.26,3.26,0,0,1,2.58-1.19,3.18,3.18,0,0,1,2.47,1.2,4.28,4.28,0,0,1,1.08,2.87,4.1,4.1,0,0,1-1,2.79,3.19,3.19,0,0,1-2.46,1.24,3.26,3.26,0,0,1-2.59-1.16A4.16,4.16,0,0,1,604.36,172.68Z"/><path class="cls-29" d="M618.54,161.28l0-8.83a15,15,0,0,1,4.18-10.72,13.7,13.7,0,0,1,10.22-4.52,11.93,11.93,0,0,1,10.73,6.16l-.17-27.2a1.65,1.65,0,0,1,.8-1.39,3.25,3.25,0,0,1,1.94-.57,2.76,2.76,0,0,1,1.82.55,1.71,1.71,0,0,1,.7,1.37l.37,57.68a2,2,0,0,1-.72,1.46,2.69,2.69,0,0,1-3.52,0,1.88,1.88,0,0,1-.78-1.47l0-3.61a11.62,11.62,0,0,1-4.39,4.49,12.61,12.61,0,0,1-6.67,1.89A13.28,13.28,0,0,1,622.91,172,15.38,15.38,0,0,1,618.54,161.28Zm5.27-.06a10.41,10.41,0,0,0,3,7.24,9.33,9.33,0,0,0,7.07,3.17,9.63,9.63,0,0,0,6.87-2.94q3-2.92,3-5.1l-.07-11.27a9.77,9.77,0,0,0-3-7.4,9.69,9.69,0,0,0-14,.42,10,10,0,0,0-3,7.1Z"/><path class="cls-29" d="M657.75,161l-.06-9.07a14.11,14.11,0,0,1,4.47-10.52,15.67,15.67,0,0,1,21.58-.34,13.88,13.88,0,0,1,4.57,10.52,10.47,10.47,0,0,1-.51,3.64,3.42,3.42,0,0,1-1.69,2A8.41,8.41,0,0,1,684,158a17.78,17.78,0,0,1-2.67.18l-18.31.11,0,3a9.48,9.48,0,0,0,3.49,7.63,13.41,13.41,0,0,0,8.89,2.82,13.14,13.14,0,0,0,4.82-.84,14.51,14.51,0,0,0,3.15-1.64,3.31,3.31,0,0,1,1.73-.82,2,2,0,0,1,1.59.84,2.72,2.72,0,0,1,.7,1.65q0,1.71-3.46,3.55a18.55,18.55,0,0,1-8.66,1.88q-7.69,0-12.58-4.17A14.1,14.1,0,0,1,657.75,161Zm5.22-6.68,16.2-.1a6.75,6.75,0,0,0,3.24-.54,2.5,2.5,0,0,0,.79-2.22,10,10,0,0,0-2.92-7.07,9.54,9.54,0,0,0-7.27-3,9.85,9.85,0,0,0-7.15,3,9.31,9.31,0,0,0-2.91,6.93Z"/><path class="cls-29" d="M704.6,191.92a2.6,2.6,0,0,1,.64-1.81,2.08,2.08,0,0,1,1.61-.72q3.57,0,4.68-2.65a20.81,20.81,0,0,0,1.09-7.88l-.26-39.73a1.66,1.66,0,0,1,.72-1.42,3.2,3.2,0,0,1,1.86-.54,3.13,3.13,0,0,1,1.91.56,1.69,1.69,0,0,1,.78,1.37l.25,39.85q.11,15.31-10.59,15.38a2.65,2.65,0,0,1-2-.7A2.5,2.5,0,0,1,704.6,191.92Zm7.67-67.08a3.22,3.22,0,0,1-1.07-2.38,3.1,3.1,0,0,1,1-2.36,3.71,3.71,0,0,1,2.59-1,3.38,3.38,0,0,1,2.47,1,3.1,3.1,0,0,1,1,2.34,3.26,3.26,0,0,1-1,2.4,3.32,3.32,0,0,1-2.46,1A3.58,3.58,0,0,1,712.27,124.84Z"/><path class="cls-29" d="M727.57,160.74l-.14-21.62a1.82,1.82,0,0,1,.76-1.38,2.8,2.8,0,0,1,1.9-.66,2.76,2.76,0,0,1,1.79.63,1.8,1.8,0,0,1,.81,1.37l.14,21.58a10.17,10.17,0,0,0,3,7.17,9.65,9.65,0,0,0,14.26-.09,10.17,10.17,0,0,0,3-7.21l-.14-21.66a1.67,1.67,0,0,1,.8-1.38,3.23,3.23,0,0,1,1.86-.58,3,3,0,0,1,1.83.56,1.69,1.69,0,0,1,.78,1.37l.14,21.71a15.39,15.39,0,0,1-30.78.19Zm9.17-35.53a1.46,1.46,0,0,1,.88-1.47l9-5a.86.86,0,0,1,.64-.24,1.68,1.68,0,0,1,1.43.68,2.5,2.5,0,0,1,.53,1.57,1.8,1.8,0,0,1-1,1.79l-8.64,4.67a1.23,1.23,0,0,1-.8.25,2,2,0,0,1-1.47-.68A2.22,2.22,0,0,1,736.74,125.21Z"/><path class="cls-29" d="M768.88,173l-.38-57.76a1.71,1.71,0,0,1,.72-1.38,3,3,0,0,1,1.86-.58,3.13,3.13,0,0,1,1.91.56,1.64,1.64,0,0,1,.78,1.37l.37,57.75a1.88,1.88,0,0,1-.76,1.46,2.86,2.86,0,0,1-1.9.67,2.78,2.78,0,0,1-1.83-.64A1.88,1.88,0,0,1,768.88,173Z"/><path class="cls-29" d="M784.68,124.37a3.2,3.2,0,0,1-1.07-2.38,3.11,3.11,0,0,1,1-2.36,3.66,3.66,0,0,1,2.59-1,3.42,3.42,0,0,1,2.47.95,3.17,3.17,0,0,1,1,2.35,3.26,3.26,0,0,1-1,2.39,3.37,3.37,0,0,1-2.46,1A3.59,3.59,0,0,1,784.68,124.37Zm.31,48.56-.22-34.26a1.71,1.71,0,0,1,.72-1.38,3,3,0,0,1,1.86-.58,3.13,3.13,0,0,1,1.91.55,1.72,1.72,0,0,1,.78,1.37l.22,34.27a1.87,1.87,0,0,1-.8,1.46,2.86,2.86,0,0,1-1.86.66,2.73,2.73,0,0,1-1.83-.64A1.87,1.87,0,0,1,785,172.93Z"/><path class="cls-29" d="M800,160.28l-.14-21.63a1.81,1.81,0,0,1,.76-1.38,2.9,2.9,0,0,1,1.9-.66,2.78,2.78,0,0,1,1.78.64,1.75,1.75,0,0,1,.82,1.36l.14,21.58a10.15,10.15,0,0,0,3,7.17,9.63,9.63,0,0,0,14.26-.09,10.15,10.15,0,0,0,3-7.21l-.14-21.66a1.67,1.67,0,0,1,.8-1.37,3.09,3.09,0,0,1,1.86-.58,3,3,0,0,1,1.83.55,1.72,1.72,0,0,1,.78,1.38l.14,21.7a14.63,14.63,0,0,1-4.51,10.68,15.11,15.11,0,0,1-21.67.14A14.65,14.65,0,0,1,800,160.28Z"/><path class="cls-29" d="M838.19,169.43a2.77,2.77,0,0,1,.55-1.62A1.61,1.61,0,0,1,840,167a3.65,3.65,0,0,1,1.79.92,16.6,16.6,0,0,0,3.5,1.88,13.71,13.71,0,0,0,5.43.94q4.29,0,6.31-1.66a5.08,5.08,0,0,0,2-4.15,5.82,5.82,0,0,0-2.1-4.64,13.9,13.9,0,0,0-5-2.6l-5.88-1.74a11.06,11.06,0,0,1-5-3.09,8.43,8.43,0,0,1-2.11-5.94,10.71,10.71,0,0,1,3.15-7.76q3.18-3.3,9.58-3.34a21.48,21.48,0,0,1,7.42,1.21q3.45,1.23,3.46,2.69a3.34,3.34,0,0,1-.64,1.79,1.87,1.87,0,0,1-1.53,1,24.25,24.25,0,0,1-3-1.12,14.74,14.74,0,0,0-5.6-1.1q-4,0-6.06,2a5.74,5.74,0,0,0-2,4.29,4.47,4.47,0,0,0,2.12,3.88,18,18,0,0,0,5,2.26l5.93,1.72a9.68,9.68,0,0,1,5.05,3.49,10.82,10.82,0,0,1,2.06,6.8,9.32,9.32,0,0,1-3.39,7.68c-2.28,1.87-5.48,2.83-9.58,2.85a19.44,19.44,0,0,1-9-1.84C839.43,172.08,838.2,170.78,838.19,169.43Z"/><path class="cls-29" d="M883.69,128.15a3.11,3.11,0,0,1,1.2-2.43l6.58-9.44a2.4,2.4,0,0,1,3.64-.67,1.77,1.77,0,0,1,.74,1.45l.35,55.16a1.75,1.75,0,0,1-.8,1.54,3.09,3.09,0,0,1-1.86.58,3.13,3.13,0,0,1-1.91-.55,1.86,1.86,0,0,1-.78-1.54l-.3-48-3.21,5.29a1.87,1.87,0,0,1-1.53,1,1.9,1.9,0,0,1-1.5-.68A2.41,2.41,0,0,1,883.69,128.15Z"/><path class="cls-29" d="M905.89,154.86a2.55,2.55,0,0,1,.56-1.71,1.77,1.77,0,0,1,1.45-.69l21.06-.13a1.82,1.82,0,0,1,1.42.66,2.49,2.49,0,0,1,.62,1.71,2.25,2.25,0,0,1-.6,1.6,1.9,1.9,0,0,1-1.41.64l-21.06.14Q905.91,157.1,905.89,154.86Z"/><path class="cls-29" d="M940.12,162.15l-.28-42.62a1.66,1.66,0,0,1,.81-1.38,3,3,0,0,1,1.77-.58,3.22,3.22,0,0,1,1.87.55,1.65,1.65,0,0,1,.82,1.37l.1,16.21,10.45-.07a1.63,1.63,0,0,1,1.34.65,2.39,2.39,0,0,1,.54,1.56,2.48,2.48,0,0,1-.52,1.58,1.62,1.62,0,0,1-1.33.66l-10.45.07.14,21.85c0,2.62.58,4.46,1.7,5.49S950.15,169,953,169l2.27,0a2.41,2.41,0,0,1,2.44,2.42,2.5,2.5,0,0,1-.67,1.76,2.28,2.28,0,0,1-1.74.77H953Q940.2,174.05,940.12,162.15Z"/><path class="cls-29" d="M962.05,159.08l-.06-8.83a14.55,14.55,0,0,1,4.47-10.68A14.81,14.81,0,0,1,977.21,135a15.17,15.17,0,0,1,10.88,4.39,14.3,14.3,0,0,1,4.68,10.66l.06,8.83a15.39,15.39,0,0,1-30.78.2Zm5.27-.06a10.33,10.33,0,0,0,3,7.27,9.32,9.32,0,0,0,7.11,3.14,9.56,9.56,0,0,0,7.19-3.23,10.37,10.37,0,0,0,3-7.31l-.06-8.78a10,10,0,0,0-3.08-7.07,9.65,9.65,0,0,0-7.19-3.09,9.38,9.38,0,0,0-7.07,3.18,10.07,10.07,0,0,0-2.91,7.11Zm.42-35a1.17,1.17,0,0,1,.64-1.14l7.74-5.64a1.26,1.26,0,0,1,.89-.33,1.74,1.74,0,0,1,1.3.6,1.92,1.92,0,0,1,.57,1.34,1.63,1.63,0,0,1-.71,1.46l-7.34,5.23a1.32,1.32,0,0,1-1,.41,2.05,2.05,0,0,1-1.46-.6A1.77,1.77,0,0,1,967.74,124.05Zm12.15-.08a1.17,1.17,0,0,1,.64-1.14l7.74-5.63a1.18,1.18,0,0,1,.89-.33,1.71,1.71,0,0,1,1.3.59,1.92,1.92,0,0,1,.57,1.34,1.61,1.61,0,0,1-.72,1.46L983,125.49a1.34,1.34,0,0,1-1,.41,2,2,0,0,1-1.46-.6A1.77,1.77,0,0,1,979.89,124Z"/><path class="cls-29" d="M1002.23,171.54l-.37-57.75a1.66,1.66,0,0,1,.72-1.38,2.91,2.91,0,0,1,1.86-.58,3.1,3.1,0,0,1,1.9.55,1.66,1.66,0,0,1,.78,1.37l.37,57.75a1.9,1.9,0,0,1-.76,1.47,2.9,2.9,0,0,1-1.9.66A2.78,2.78,0,0,1,1003,173,1.88,1.88,0,0,1,1002.23,171.54Z"/><path class="cls-29" d="M1034.54,171.33l-.22-34.26a1.71,1.71,0,0,1,.72-1.38,3,3,0,0,1,1.86-.58,2.77,2.77,0,0,1,1.79.56,1.75,1.75,0,0,1,.74,1.39l0,3.78a11.95,11.95,0,0,1,10.73-6.3,11.46,11.46,0,0,1,7,2.2,13.24,13.24,0,0,1,4.58,5.9,15,15,0,0,1,5.3-6.13,12.94,12.94,0,0,1,16.54,1.94q4.08,4.11,4.12,11l.14,21.55a1.88,1.88,0,0,1-.76,1.46,2.8,2.8,0,0,1-1.9.66,2.72,2.72,0,0,1-1.83-.63,1.92,1.92,0,0,1-.78-1.45l-.13-21.49a10,10,0,0,0-2.85-7.5,8.92,8.92,0,0,0-6.45-2.71,9.25,9.25,0,0,0-6.59,2.83,9.58,9.58,0,0,0-2.83,7.17l.15,21.9c0,1.35-.88,2-2.66,2s-2.6-.66-2.61-2l-.14-21.81a10,10,0,0,0-2.76-7.14,8.68,8.68,0,0,0-6.54-2.83,9.31,9.31,0,0,0-6.66,2.84,9.9,9.9,0,0,0-2.83,7.49l.14,21.49a1.87,1.87,0,0,1-.8,1.46,2.86,2.86,0,0,1-1.86.66,2.73,2.73,0,0,1-1.83-.64A1.87,1.87,0,0,1,1034.54,171.33Z"/><path class="cls-29" d="M1096.18,158.22l-.06-9.07a14.18,14.18,0,0,1,4.47-10.52,15.65,15.65,0,0,1,21.59-.34,13.88,13.88,0,0,1,4.56,10.51,10.55,10.55,0,0,1-.5,3.65,3.4,3.4,0,0,1-1.69,1.94,8.22,8.22,0,0,1-2.14.75,16.79,16.79,0,0,1-2.68.17l-18.3.12,0,3a9.45,9.45,0,0,0,3.49,7.63,13.41,13.41,0,0,0,8.89,2.82,13.08,13.08,0,0,0,4.81-.84,14,14,0,0,0,3.15-1.64,3.25,3.25,0,0,1,1.74-.82,2,2,0,0,1,1.58.84,2.64,2.64,0,0,1,.7,1.65c0,1.14-1.15,2.32-3.46,3.55a18.51,18.51,0,0,1-8.65,1.88q-7.71,0-12.59-4.17A14.13,14.13,0,0,1,1096.18,158.22Zm5.22-6.68,16.2-.1a6.75,6.75,0,0,0,3.24-.54,2.51,2.51,0,0,0,.8-2.22,10.09,10.09,0,0,0-2.92-7.07,9.52,9.52,0,0,0-7.27-3,9.87,9.87,0,0,0-7.15,2.94,9.4,9.4,0,0,0-2.92,6.94Z"/><path class="cls-29" d="M1131.8,180.83q0-6.08,6.83-8.87-4.45-1.5-4.49-5.53c0-2.41,1.32-4.35,4-5.82a12.64,12.64,0,0,1-4.53-10.2v-3.09a12.72,12.72,0,0,1,3.78-9.65,15.35,15.35,0,0,1,19.56-.47,12.57,12.57,0,0,1,2.73-3.7,4.62,4.62,0,0,1,3-1.39,2.41,2.41,0,0,1,1.78.64,2,2,0,0,1,.66,1.46,1.64,1.64,0,0,1-1.36,1.79,6.64,6.64,0,0,0-4.52,3.44,12.28,12.28,0,0,1,2.32,7.62l0,3.09a12.85,12.85,0,0,1-3.91,9.69,14,14,0,0,1-10.1,3.88,14.53,14.53,0,0,1-6.24-1.31c-1.67.92-2.5,2-2.5,3.15a2.8,2.8,0,0,0,1.88,2.57,15.11,15.11,0,0,0,4.65,1.22l6.08.75a43.07,43.07,0,0,1,6.1,1.2,9.42,9.42,0,0,1,4.68,3,8.41,8.41,0,0,1,1.9,5.64,9.72,9.72,0,0,1-4.32,8.53q-4.35,3-11.48,3.07-7.29,0-11.89-2.84A9,9,0,0,1,1131.8,180.83Zm5.1-.52a6.18,6.18,0,0,0,3.08,5.33c2,1.34,4.77,2,8.23,2s6.06-.71,8-2.08a6.36,6.36,0,0,0,2.84-5.46,5.07,5.07,0,0,0-.83-2.83,6,6,0,0,0-1.92-1.86,11.77,11.77,0,0,0-2.88-1.12,20.87,20.87,0,0,0-3.16-.61l-3.4-.33-2.76-.26Q1136.87,175.37,1136.9,180.31Zm1.84-30.05a10,10,0,0,0,2.43,6.92,8.27,8.27,0,0,0,6.54,2.65,8,8,0,0,0,6.34-2.73,9.94,9.94,0,0,0,2.34-6.87v-3.1a9.68,9.68,0,0,0-2.44-6.72,9.14,9.14,0,0,0-12.88.09,9.64,9.64,0,0,0-2.34,6.74Z"/><path class="cls-29" d="M1171.2,160.67l-.27-42.62a1.65,1.65,0,0,1,.8-1.38,3,3,0,0,1,1.78-.58,3.19,3.19,0,0,1,1.87.55,1.66,1.66,0,0,1,.82,1.37l.1,16.2,10.45-.06a1.62,1.62,0,0,1,1.34.65,2.5,2.5,0,0,1,.54,1.56,2.44,2.44,0,0,1-.52,1.57,1.61,1.61,0,0,1-1.33.67l-10.45.07.14,21.85c0,2.62.58,4.45,1.69,5.49s3.08,1.55,5.89,1.53l2.26,0a2.34,2.34,0,0,1,1.75.7,2.4,2.4,0,0,1,.7,1.72,2.53,2.53,0,0,1-.68,1.76,2.2,2.2,0,0,1-1.73.76l-2.27,0Q1171.27,172.56,1171.2,160.67Z"/><path class="cls-29" d="M1195,157.75l-.14-21.63a1.82,1.82,0,0,1,.76-1.38,3,3,0,0,1,3.69,0,1.84,1.84,0,0,1,.82,1.37l.13,21.58a10.14,10.14,0,0,0,3,7.17,9.62,9.62,0,0,0,14.25-.09,10.11,10.11,0,0,0,3-7.21l-.13-21.66a1.62,1.62,0,0,1,.8-1.38,3.18,3.18,0,0,1,1.86-.58,3,3,0,0,1,1.82.56,1.66,1.66,0,0,1,.78,1.37l.14,21.71a14.63,14.63,0,0,1-4.51,10.68A15.37,15.37,0,0,1,1195,157.75Z"/><path class="cls-29" d="M1234.12,157.33l-.06-8.82a14.94,14.94,0,0,1,4.19-10.72,13.61,13.61,0,0,1,10.21-4.52,11.93,11.93,0,0,1,10.74,6.16l-.18-27.21a1.67,1.67,0,0,1,.8-1.38,3.3,3.3,0,0,1,1.94-.58,2.78,2.78,0,0,1,1.83.55,1.75,1.75,0,0,1,.7,1.37l.37,57.68a1.93,1.93,0,0,1-.72,1.46,2.59,2.59,0,0,1-1.78.66,2.62,2.62,0,0,1-1.75-.65,1.94,1.94,0,0,1-.78-1.47l0-3.61a11.68,11.68,0,0,1-4.38,4.5,12.61,12.61,0,0,1-6.68,1.88,13.22,13.22,0,0,1-10.07-4.59A15.41,15.41,0,0,1,1234.12,157.33Zm5.26-.05a10.42,10.42,0,0,0,3,7.23,9.36,9.36,0,0,0,7.07,3.18,9.6,9.6,0,0,0,6.86-2.95q3-2.91,3-5.09l-.08-11.28a9.78,9.78,0,0,0-3-7.39,9.68,9.68,0,0,0-14,.41,10,10,0,0,0-3,7.11Z"/><path class="cls-29" d="M1273.24,157.08l-.06-8.83a14.55,14.55,0,0,1,4.47-10.68A14.84,14.84,0,0,1,1288.4,133a15.13,15.13,0,0,1,10.88,4.39,14.28,14.28,0,0,1,4.68,10.66l.06,8.83a15.39,15.39,0,0,1-30.78.19Zm5.27-.05a10.34,10.34,0,0,0,3,7.27,9.31,9.31,0,0,0,7.11,3.13,9.52,9.52,0,0,0,7.18-3.22,10.36,10.36,0,0,0,3-7.31l-.06-8.78a10,10,0,0,0-3.08-7.07,9.62,9.62,0,0,0-7.19-3.1,9.39,9.39,0,0,0-7.07,3.19,10.07,10.07,0,0,0-2.91,7.11Z"/><path class="cls-29" d="M1311.23,156.84l-.06-8.83a15,15,0,0,1,4.19-10.72,13.65,13.65,0,0,1,10.21-4.52,11.84,11.84,0,0,1,6.54,1.76,11.72,11.72,0,0,1,4.19,4.4l-.17-27.21a1.66,1.66,0,0,1,.8-1.38,3.37,3.37,0,0,1,1.94-.58,2.78,2.78,0,0,1,1.83.56,1.74,1.74,0,0,1,.7,1.37l.37,57.67a2,2,0,0,1-.72,1.47,2.74,2.74,0,0,1-3.53,0,2,2,0,0,1-.78-1.47l0-3.61a11.62,11.62,0,0,1-4.39,4.49,12.59,12.59,0,0,1-6.67,1.89,13.27,13.27,0,0,1-10.07-4.6A15.32,15.32,0,0,1,1311.23,156.84Zm5.26-.06a10.39,10.39,0,0,0,3,7.23,9.29,9.29,0,0,0,7.06,3.18,9.66,9.66,0,0,0,6.87-2.94c2-1.95,3-3.65,3-5.1l-.07-11.27a9.8,9.8,0,0,0-3-7.4,9.62,9.62,0,0,0-6.86-2.77,9.5,9.5,0,0,0-7.11,3.18,10,10,0,0,0-3,7.11Z"/></svg>