<svg id="Réteg_1" data-name="Réteg 1" xmlns="http://www.w3.org/2000/svg" xmlns:xlink="http://www.w3.org/1999/xlink" viewBox="0 0 1920 1080"><defs><style>.cls-1,.cls-2,.cls-3{opacity:0.39;}.cls-1{fill:url(#Névtelen_színátmenet_38);}.cls-2{fill:url(#Névtelen_színátmenet_38-2);}.cls-3{fill:url(#Névtelen_színátmenet_38-3);}</style><linearGradient id="Névtelen_színátmenet_38" x1="1449.37" y1="-276.27" x2="671.86" y2="1070.42" gradientUnits="userSpaceOnUse"><stop offset="0.2" stop-color="#00d49d"/><stop offset="0.56" stop-color="aqua"/><stop offset="0.81" stop-color="#21bce8"/></linearGradient><linearGradient id="Névtelen_színátmenet_38-2" x1="1480.15" y1="-253.76" x2="684.14" y2="1124.97" xlink:href="#Névtelen_színátmenet_38"/><linearGradient id="Névtelen_színátmenet_38-3" x1="1499.7" y1="-244.9" x2="691.78" y2="1154.47" xlink:href="#Névtelen_színátmenet_38"/></defs><title>t-bg</title><path class="cls-1" d="M2,2.64l3,570S189.9,983.45,512,779C679,673,759,600,821,582c99.27-28.82,204-24.1,326,133.15s155.85,221.54,472,160.57c45.19-8.71,164-3.42,90,138.45S1929,1121,1929,1121L1940,7Z"/><path class="cls-2" d="M-1,5,2,655.19S330.35,1111.33,596,799c79-92.88,168-145.47,219-150.44,27.81-2.72,207-10.19,329,169.17s155.85,252.7,472,183.16c45.19-9.94,164-3.9,90,157.92s220,121.84,220,121.84L1937,10Z"/><path class="cls-3" d="M-2,1.65,1,700.58S399.35,1162.75,665,827c79-99.85,127-118.65,178-124,27.81-2.92,178-20.5,300,172.31S1298.85,1147,1615,1072.2c45.19-10.68,164-4.19,90,169.77s220,131,220,131L1936,7Z"/></svg>