<?xml version="1.0" encoding="utf-8"?><svg id="Réteg_1" data-name="Réteg 1" xmlns="http://www.w3.org/2000/svg" viewBox="0 0 600 160"><defs><style>.cls-1{fill:#ccc;}.cls-1,.cls-2,.cls-3{fill-rule:evenodd;}.cls-2,.cls-4{fill:#a52b23;}.cls-3{fill:#8b8989;}.cls-5{fill:#231f20;}</style></defs><title>logo_fekete</title><path class="cls-1" d="M27.09,68.08H69.36V25.8H27.09Zm-9.3,9.3V16.5H78.66V77.38Z"/><path class="cls-2" d="M96,68.08h42.27V25.8H96Zm-9.3,9.3V16.5h60.87V77.38Z"/><path class="cls-3" d="M27.09,137.21H69.36V94.93H27.09Zm-9.3,9.3V85.63H78.66V146.5Z"/><path class="cls-3" d="M96,137.21h42.27V94.93H96Zm-9.3,9.3V85.63h60.87V146.5Z"/><path class="cls-4" d="M174.46,78h-3.94V44h3.94v4.72c3.15-3.35,6.23-5.64,11-5.64,4.13,0,7.94,1.31,10.37,4.86,1.64,2.43,1.71,5,1.71,7.81V78h-3.94V55.86c0-6.1-2.49-9.19-8.79-9.19a9.92,9.92,0,0,0-9.45,6.63,17.54,17.54,0,0,0-.85,6.43Z"/><path class="cls-4" d="M210.68,62c-.07,7.35,3.87,13.45,11.42,13.45,5.12,0,9.12-2.82,10.3-7.81h4.4c-2,6.43-6,11.35-14.7,11.35-10.89,0-15.62-7.74-15.62-17.78s5.91-18,15.62-18c9.32,0,15,6.63,15,18.83Zm22.18-3.28c0-6.63-3.67-12-10.76-12s-10.63,5.58-11.42,12Z"/><path class="cls-4" d="M257.93,78.17a19,19,0,0,1-4.53.79c-3.87,0-6-1.71-6-6.76V47.33h-4.79V44h4.79V34.6h3.94V44h6.36v3.28H251.3V70.62c0,3.35.13,4.79,3.41,4.79a13.57,13.57,0,0,0,3.21-.46Z"/><path class="cls-5" d="M261.73,78,280.3,30.79h5.05L303.46,78h-4.59l-5.45-14.83H271.9L266.33,78ZM273.41,59.4h18.5l-9.25-24.8Z"/><path class="cls-5" d="M334.63,54.74c-1.38-5.05-4.86-8.07-10.1-8.07-8.07,0-11.42,7.35-11.42,14.43s3.28,14.3,11.42,14.3c5.84,0,9.51-3.48,10.43-9.12h4.2C337.77,73.83,333.05,79,324.52,79c-10.83,0-15.62-7.81-15.62-17.85,0-9.45,5.45-18,15.62-18,7.81,0,12.93,3.74,14.11,11.61Z"/><path class="cls-5" d="M363.89,58.22a19.74,19.74,0,0,0,5.18-1.12c1.31-.59,1.44-2.36,1.44-3.54,0-4-2.36-6.89-8.46-6.89-5.45,0-9.19,1.77-9.91,7.68h-4c.59-8,6.56-11.22,14-11.22,6.89,0,12.34,2.69,12.34,10.56v18.5c0,3.08.79,3.81,4.13,2.62V77.9a10.9,10.9,0,0,1-3.08.66,7.71,7.71,0,0,1-1.77-.2c-2.62-.39-3.08-2.69-3.15-5.05A16.68,16.68,0,0,1,357.92,79c-6,0-11.35-3.21-11.35-9.78,0-5.71,3.94-9.19,11.88-10.24Zm6.63,2c-3.35,1.38-6.76,1.64-10.17,1.9-6,.46-9.58,2.62-9.58,7.22,0,4.13,3.61,6.1,7.35,6.1,6.23,0,12.4-3,12.4-9.91Z"/><path class="cls-5" d="M412.25,30.79h3.94V78h-3.94v-6h-.13c-2.3,4.46-7.48,6.89-11.81,6.89-11,0-15.35-7.81-15.35-17.85,0-9.51,4.79-18,15.16-18,4.79,0,9.65,2.23,12.14,6.36ZM400.76,46.67c-8.14,0-11.94,6.89-11.61,15.42.07,8.53,5,13.32,11.61,13.32,7.41,0,11.48-6.3,11.48-14.5C412.25,53.23,407.92,46.67,400.76,46.67Z"/><path class="cls-5" d="M429.77,62c-.07,7.35,3.87,13.45,11.42,13.45,5.12,0,9.12-2.82,10.3-7.81h4.4c-2,6.43-6,11.35-14.7,11.35-10.89,0-15.62-7.74-15.62-17.78s5.91-18,15.62-18c9.32,0,15,6.63,15,18.83Zm22.18-3.28c0-6.63-3.67-12-10.76-12s-10.63,5.58-11.42,12Z"/><path class="cls-5" d="M468.48,78h-3.94V44h3.94v5.12h.13a11.63,11.63,0,0,1,10.5-6c6.3,0,8.53,3,10,6.56a11.77,11.77,0,0,1,11.09-6.56c9.25,0,10.56,6.63,10.56,13.45V78H506.8V54.54c0-4.86-1.71-7.87-7.28-7.87a9.45,9.45,0,0,0-7.68,3.87c-1.71,2.23-2.23,6.36-2.23,9.19V78h-3.94V54.54c0-4.86-1.71-7.87-7.28-7.87a9.45,9.45,0,0,0-7.68,3.87c-1.71,2.23-2.23,6.36-2.23,9.19Z"/><path class="cls-5" d="M521.36,36.63V30.79h4.33v5.84Zm.2,41.4V44h3.94V78Z"/><path class="cls-5" d="M552.47,58.22a19.75,19.75,0,0,0,5.18-1.12c1.31-.59,1.44-2.36,1.44-3.54,0-4-2.36-6.89-8.46-6.89-5.45,0-9.19,1.77-9.91,7.68h-4c.59-8,6.56-11.22,14-11.22,6.89,0,12.34,2.69,12.34,10.56v18.5c0,3.08.79,3.81,4.13,2.62V77.9a10.9,10.9,0,0,1-3.08.66,7.71,7.71,0,0,1-1.77-.2c-2.62-.39-3.08-2.69-3.15-5.05A16.68,16.68,0,0,1,546.5,79c-6,0-11.35-3.21-11.35-9.78,0-5.71,3.94-9.19,11.88-10.24Zm6.63,2c-3.35,1.38-6.76,1.64-10.17,1.9-6,.46-9.58,2.62-9.58,7.22,0,4.13,3.61,6.1,7.35,6.1,6.23,0,12.4-3,12.4-9.91Z"/><path class="cls-5" d="M277,101.73h-6.85V99.26h16.67v2.47H279.9v20H277Z"/><path class="cls-5" d="M289.82,114.23c.07,4,2.6,5.61,5.54,5.61a10.62,10.62,0,0,0,4.48-.83l.5,2.1a13.09,13.09,0,0,1-5.38,1c-5,0-7.95-3.27-7.95-8.15s2.87-8.72,7.58-8.72c5.28,0,6.68,4.64,6.68,7.62a11.14,11.14,0,0,1-.1,1.37Zm8.62-2.1c0-1.87-.77-4.78-4.07-4.78-3,0-4.28,2.74-4.51,4.78Z"/><path class="cls-5" d="M303.91,110.65c0-1.9,0-3.54-.13-5h2.57l.1,3.17h.13a4.85,4.85,0,0,1,4.48-3.54,3.19,3.19,0,0,1,.83.1v2.77a4.44,4.44,0,0,0-1-.1c-2.07,0-3.54,1.57-3.94,3.77a8.28,8.28,0,0,0-.13,1.37v8.62h-2.91Z"/><path class="cls-5" d="M315.47,114.23c.07,4,2.6,5.61,5.54,5.61a10.62,10.62,0,0,0,4.48-.83l.5,2.1a13.09,13.09,0,0,1-5.38,1c-5,0-7.95-3.27-7.95-8.15s2.87-8.72,7.58-8.72c5.28,0,6.68,4.64,6.68,7.62a11.14,11.14,0,0,1-.1,1.37Zm8.62-2.1c0-1.87-.77-4.78-4.07-4.78-3,0-4.28,2.74-4.51,4.78Z"/><path class="cls-5" d="M329.57,110c0-1.67,0-3-.13-4.37H332l.13,2.61h.1a5.57,5.57,0,0,1,5.08-3,4.78,4.78,0,0,1,4.58,3.24H342a6.67,6.67,0,0,1,1.8-2.1,5.52,5.52,0,0,1,3.57-1.14c2.14,0,5.31,1.4,5.31,7v9.52h-2.87v-9.15c0-3.11-1.14-5-3.51-5a3.81,3.81,0,0,0-3.47,2.67,4.84,4.84,0,0,0-.23,1.47v10h-2.87v-9.69c0-2.57-1.14-4.44-3.37-4.44a4.38,4.38,0,0,0-3.87,4.38v9.75h-2.87Z"/><path class="cls-5" d="M360,101v4.64h4.21v2.24H360v8.72c0,2,.57,3.14,2.2,3.14a6.52,6.52,0,0,0,1.7-.2l.13,2.21a7.21,7.21,0,0,1-2.61.4,4.08,4.08,0,0,1-3.17-1.24c-.84-.87-1.14-2.31-1.14-4.21v-8.82h-2.51v-2.24h2.51v-3.87Z"/><path class="cls-5" d="M366.08,118.77a7.71,7.71,0,0,0,3.87,1.17c2.14,0,3.14-1.07,3.14-2.41s-.83-2.17-3-3c-2.91-1-4.28-2.64-4.28-4.58,0-2.61,2.1-4.74,5.58-4.74a8.06,8.06,0,0,1,4,1l-.73,2.14a6.29,6.29,0,0,0-3.31-.94c-1.74,0-2.71,1-2.71,2.2s1,1.94,3.07,2.74c2.81,1.07,4.24,2.47,4.24,4.88,0,2.84-2.2,4.84-6,4.84a9.22,9.22,0,0,1-4.54-1.1Z"/><path class="cls-5" d="M392.67,98.06V117.6c0,1.44,0,3.07.13,4.17h-2.64L390,119H390a6,6,0,0,1-5.51,3.17c-3.91,0-6.91-3.31-6.91-8.22,0-5.38,3.31-8.68,7.25-8.68a5.41,5.41,0,0,1,4.88,2.47h.07V98.06Zm-2.94,14.13a5.19,5.19,0,0,0-.13-1.24,4.32,4.32,0,0,0-4.24-3.41c-3,0-4.84,2.67-4.84,6.25,0,3.27,1.6,6,4.78,6a4.42,4.42,0,0,0,4.31-3.51,5.1,5.1,0,0,0,.13-1.27Z"/><path class="cls-5" d="M402.62,110c0-1.67,0-3-.13-4.37h2.57l.13,2.61h.1a5.57,5.57,0,0,1,5.08-3,4.78,4.78,0,0,1,4.58,3.24H415a6.67,6.67,0,0,1,1.8-2.1,5.52,5.52,0,0,1,3.57-1.14c2.14,0,5.31,1.4,5.31,7v9.52h-2.87v-9.15c0-3.11-1.14-5-3.51-5a3.81,3.81,0,0,0-3.47,2.67,4.84,4.84,0,0,0-.23,1.47v10h-2.87v-9.69c0-2.57-1.14-4.44-3.37-4.44a4.38,4.38,0,0,0-3.87,4.38v9.75h-2.87Z"/><path class="cls-5" d="M431.11,114.23c.07,4,2.6,5.61,5.54,5.61a10.62,10.62,0,0,0,4.48-.83l.5,2.1a13.09,13.09,0,0,1-5.38,1c-5,0-7.95-3.27-7.95-8.15s2.87-8.72,7.58-8.72c5.28,0,6.68,4.64,6.68,7.62a11.14,11.14,0,0,1-.1,1.37Zm8.62-2.1c0-1.87-.77-4.78-4.07-4.78-3,0-4.28,2.74-4.51,4.78Z"/><path class="cls-5" d="M459.14,105.61c-.07,1.17-.13,2.47-.13,4.44v9.39c0,3.71-.73,6-2.3,7.38a8.57,8.57,0,0,1-5.88,1.94,10.42,10.42,0,0,1-5.38-1.34l.73-2.24a9.12,9.12,0,0,0,4.74,1.27c3,0,5.21-1.57,5.21-5.64V119h-.07a5.77,5.77,0,0,1-5.14,2.71c-4,0-6.88-3.41-6.88-7.88,0-5.48,3.57-8.58,7.28-8.58a5.38,5.38,0,0,1,5,2.81h.07l.13-2.44Zm-3,6.38a4.18,4.18,0,0,0-.17-1.34,4.23,4.23,0,0,0-4.11-3.11c-2.81,0-4.81,2.37-4.81,6.11,0,3.17,1.6,5.81,4.78,5.81a4.3,4.3,0,0,0,4.07-3,5.12,5.12,0,0,0,.23-1.57Z"/><path class="cls-5" d="M477.91,121.78l-.23-2h-.1a6,6,0,0,1-4.94,2.4,4.61,4.61,0,0,1-4.94-4.64c0-3.91,3.47-6,9.72-6v-.33c0-1.34-.37-3.74-3.67-3.74a8.06,8.06,0,0,0-4.21,1.2l-.67-1.94a10,10,0,0,1,5.31-1.44c4.94,0,6.15,3.37,6.15,6.61v6a22.79,22.79,0,0,0,.27,3.88Zm-.43-8.25c-3.21-.07-6.85.5-6.85,3.64A2.6,2.6,0,0,0,473.4,120a4,4,0,0,0,3.91-2.71,3.07,3.07,0,0,0,.17-.94Z"/><path class="cls-5" d="M486.2,126.45a4.75,4.75,0,0,0,3.21-1.24c.8-.94,1.1-2.2,1.1-6.08V105.61h2.94v14.66c0,3.14-.5,5.18-1.94,6.65a7.46,7.46,0,0,1-5,1.84Zm7.58-25.38a1.73,1.73,0,0,1-1.84,1.8,1.75,1.75,0,0,1-1.8-1.8A1.8,1.8,0,0,1,492,99.23,1.74,1.74,0,0,1,493.78,101.07Z"/><path class="cls-5" d="M511.88,113.56c0,6-4.14,8.58-8,8.58-4.38,0-7.75-3.21-7.75-8.32,0-5.41,3.54-8.58,8-8.58C508.74,105.24,511.88,108.62,511.88,113.56Zm-12.83.17c0,3.54,2,6.21,4.91,6.21s4.91-2.64,4.91-6.28c0-2.74-1.37-6.21-4.84-6.21S499.06,110.65,499.06,113.73Zm.13-12.69a1.71,1.71,0,0,1,1.7-1.7,1.63,1.63,0,0,1,1.64,1.7,1.65,1.65,0,0,1-1.64,1.7A1.69,1.69,0,0,1,499.19,101Zm6.21,0a1.68,1.68,0,0,1,1.67-1.7,1.63,1.63,0,0,1,1.64,1.7,1.65,1.65,0,1,1-3.31,0Z"/><path class="cls-5" d="M515.72,105.61l3.17,9.08a41.52,41.52,0,0,1,1.3,4.14h.1c.37-1.34.83-2.67,1.37-4.14l3.14-9.08h3.07l-6.35,16.17h-2.81l-6.15-16.17Z"/><path class="cls-5" d="M544.28,113.56c0,6-4.14,8.58-8,8.58-4.38,0-7.75-3.21-7.75-8.32,0-5.41,3.54-8.58,8-8.58C541.14,105.24,544.28,108.62,544.28,113.56Zm-12.83.17c0,3.54,2,6.21,4.91,6.21s4.91-2.64,4.91-6.28c0-2.74-1.37-6.21-4.84-6.21S531.46,110.65,531.46,113.73ZM538,98.63l-3.67,4.58h-1.84l2.64-4.58Zm4.84,0-3.71,4.58h-1.84L540,98.63Z"/><path class="cls-5" d="M561,98.06V117.6c0,1.44,0,3.07.13,4.17h-2.64l-.13-2.81h-.07a6,6,0,0,1-5.51,3.17c-3.91,0-6.91-3.31-6.91-8.22,0-5.38,3.31-8.68,7.25-8.68a5.41,5.41,0,0,1,4.88,2.47H558V98.06ZM558,112.19a5.19,5.19,0,0,0-.13-1.24,4.32,4.32,0,0,0-4.24-3.41c-3,0-4.84,2.67-4.84,6.25,0,3.27,1.6,6,4.78,6a4.42,4.42,0,0,0,4.31-3.51A5.1,5.1,0,0,0,558,115Z"/><path class="cls-5" d="M564.26,120.07a2,2,0,0,1,2-2.07,2.07,2.07,0,0,1,0,4.14A2,2,0,0,1,564.26,120.07Zm.83-4.78-.47-16h3.21l-.47,16Z"/></svg>