<svg xmlns="http://www.w3.org/2000/svg" viewBox="0 0 500 500"><defs><style>.cls-1{isolation:isolate;}.cls-2{fill:#144461;}.cls-11,.cls-2{opacity:0.1;}.cls-3,.cls-7{fill:#dcdbe0;}.cls-4{fill:#f8f7fc;}.cls-5{fill:#32495e;}.cls-6{fill:#0098f0;}.cls-16,.cls-17,.cls-7{opacity:0.6;}.cls-28,.cls-8{fill:#fff;}.cls-9{opacity:0.08;mix-blend-mode:multiply;}.cls-10{fill:#b4d8f0;}.cls-12{fill:#7acaf0;}.cls-13{fill:#ade3ff;}.cls-14{fill:#1e66b3;}.cls-15{fill:#778c9e;}.cls-16{fill:#5487b3;}.cls-18{fill:#168dcf;}.cls-19{fill:#edaf79;}.cls-20{fill:#fcbe88;}.cls-21{fill:#e6ac7a;}.cls-22{fill:#5e3932;}.cls-23{fill:#c9ced1;}.cls-24{fill:#d9d9d9;}.cls-25{fill:#222a33;}.cls-26{fill:#2c3742;}.cls-27{fill:#295e8c;}.cls-28,.cls-41{opacity:0.4;}.cls-29{fill:#fc51af;}.cls-30{fill:#fcf9fb;}.cls-31{fill:#426a8c;}.cls-32,.cls-41{fill:#83c6ed;}.cls-32{opacity:0.2;}.cls-33{fill:#49b0ed;}.cls-34{fill:#3b2d28;}.cls-35{fill:#dde2e6;}.cls-36{fill:#5e473c;}.cls-37{fill:#523e34;}.cls-38{fill:#ab1616;}.cls-39{fill:#f5fbff;}.cls-40{fill:#ba2323;}.cls-42{fill:#3897d6;}.cls-43{fill:#66401a;}.cls-44{fill:#52b818;}.cls-45{fill:#217bfa;}.cls-46{fill:#471c06;}.cls-47{fill:#adcfd6;}.cls-48{fill:#c4eaf2;}.cls-49{fill:none;stroke:#ade3ff;stroke-linecap:round;stroke-linejoin:round;stroke-width:2px;}</style></defs><title>rolunk-remote</title><g class="cls-1"><g id="OBJECTS"><path class="cls-2" d="M334,317.35c0,1.85-37.63,3.35-84,3.35s-84.05-1.5-84.05-3.35S203.52,314,249.94,314,334,315.49,334,317.35Z"/><polygon class="cls-3" points="259.48 283.36 250.15 283.36 240.82 283.36 234.74 312.94 250.15 312.94 265.57 312.94 259.48 283.36"/><path class="cls-4" d="M273.45,310.7h-46.6a6.65,6.65,0,0,0-6.65,6.65h59.9A6.65,6.65,0,0,0,273.45,310.7Z"/><path class="cls-4" d="M166.82,287a7,7,0,0,0,7,7H326.48a7,7,0,0,0,7-7V271.56H166.82Z"/><path class="cls-5" d="M326.48,182H173.82a7,7,0,0,0-7,7v82.58H333.48V189A7,7,0,0,0,326.48,182Z"/><rect class="cls-6" x="173.03" y="187.47" width="154.23" height="78.38"/><path class="cls-7" d="M255.05,282.72a4.9,4.9,0,1,1-4.9-4.9A4.9,4.9,0,0,1,255.05,282.72Z"/><rect class="cls-5" x="111.15" y="227.26" width="32.02" height="32.02" rx="2" ry="2"/><path class="cls-8" d="M127.16,255.49a12.22,12.22,0,1,1,12.22-12.22A12.24,12.24,0,0,1,127.16,255.49Zm0-22.82a10.6,10.6,0,1,0,10.59,10.6A10.62,10.62,0,0,0,127.16,232.67Z"/><polygon class="cls-8" points="123.21 238.01 133.09 243.27 123.21 248.52 123.21 238.01"/><g class="cls-9"><path d="M350.59,197.73H305.43a4,4,0,0,0-4,4V225.5a4,4,0,0,0,4,4h6v8.76l8.75-8.76h30.42a4,4,0,0,0,4-4V201.72A4,4,0,0,0,350.59,197.73Z"/></g><path class="cls-8" d="M348.59,195.73H303.43a4,4,0,0,0-4,4V223.5a4,4,0,0,0,4,4h6v8.76l8.75-8.76h30.42a4,4,0,0,0,4-4V199.72A4,4,0,0,0,348.59,195.73Z"/><polygon class="cls-8" points="378.63 305.46 353.84 305.46 353.84 347.13 385.41 347.13 385.41 312.22 378.63 305.46"/><polygon class="cls-10" points="385.41 312.2 378.63 312.2 378.63 305.46 385.41 312.2"/><path class="cls-11" d="M380.5,319a.56.56,0,0,1-.55.56H359.3a.56.56,0,0,1-.55-.56h0a.56.56,0,0,1,.55-.56H380a.56.56,0,0,1,.55.56Z"/><path class="cls-11" d="M380.5,324.23a.56.56,0,0,1-.55.56H359.3a.56.56,0,0,1-.55-.56h0a.56.56,0,0,1,.55-.56H380a.56.56,0,0,1,.55.56Z"/><path class="cls-11" d="M380.5,329.44a.55.55,0,0,1-.55.55H359.3a.55.55,0,0,1-.55-.55h0a.56.56,0,0,1,.55-.56H380a.56.56,0,0,1,.55.56Z"/><path class="cls-11" d="M380.5,334.64a.56.56,0,0,1-.55.56H359.3a.56.56,0,0,1-.55-.56h0a.55.55,0,0,1,.55-.55H380a.55.55,0,0,1,.55.55Z"/><path class="cls-11" d="M380.5,339.85a.56.56,0,0,1-.55.56H359.3a.56.56,0,0,1-.55-.56h0a.56.56,0,0,1,.55-.56H380a.56.56,0,0,1,.55.56Z"/><path class="cls-8" d="M205.36,375.7a6.7,6.7,0,1,0,6.7,6.69A6.7,6.7,0,0,0,205.36,375.7Z"/><path class="cls-8" d="M224.5,385.48V379.3h-4.2a15.12,15.12,0,0,0-2.19-5.28l3-3-4.37-4.37-3,3a15.38,15.38,0,0,0-5.29-2.2v-4.19h-6.18v4.19a15.25,15.25,0,0,0-5.28,2.2l-3-3-4.37,4.37,3,3a15.33,15.33,0,0,0-2.2,5.28h-4.19v6.18h4.19a15.3,15.3,0,0,0,2.2,5.29l-3,3,4.37,4.37,3-3a15,15,0,0,0,5.28,2.19v4.2h6.18v-4.2a15.17,15.17,0,0,0,5.29-2.19l3,3,4.37-4.37-3-3a15.09,15.09,0,0,0,2.19-5.29Zm-19.14,7.87a11,11,0,1,1,11-11A11,11,0,0,1,205.36,393.35Z"/><path class="cls-8" d="M189.43,349.94a3.86,3.86,0,1,0,3.86,3.86A3.86,3.86,0,0,0,189.43,349.94Z"/><path class="cls-8" d="M200.47,355.58V352h-2.42a8.77,8.77,0,0,0-1.27-3l1.71-1.71L196,344.74l-1.72,1.71a8.77,8.77,0,0,0-3-1.27v-2.41h-3.56v2.41a8.8,8.8,0,0,0-3,1.27l-1.72-1.71-2.52,2.52,1.72,1.71a8.77,8.77,0,0,0-1.27,3H178.4v3.56h2.42a8.93,8.93,0,0,0,1.27,3.05l-1.72,1.71,2.52,2.52,1.72-1.72a8.8,8.8,0,0,0,3,1.27v2.42h3.56v-2.42a8.77,8.77,0,0,0,3-1.27l1.72,1.72,2.51-2.52-1.71-1.71a8.93,8.93,0,0,0,1.27-3.05Zm-11,4.53a6.32,6.32,0,1,1,6.32-6.31A6.31,6.31,0,0,1,189.43,360.11Z"/><path class="cls-8" d="M143.17,171.45a3.79,3.79,0,1,0,3.78,3.78A3.79,3.79,0,0,0,143.17,171.45Zm0,5.17a1.39,1.39,0,1,1,1.39-1.39A1.39,1.39,0,0,1,143.17,176.62Z"/><path class="cls-8" d="M151.65,186.29a14.11,14.11,0,0,1-17.17.33l-.54.94c-1.12,1.95-.2,3.54,2.05,3.54h14.35c2.25,0,3.17-1.59,2-3.54Z"/><path class="cls-8" d="M143.17,163.11a12.13,12.13,0,1,0,12.12,12.12A12.12,12.12,0,0,0,143.17,163.11ZM141,167.34a.82.82,0,0,1,.82-.82h2.61a.82.82,0,0,1,.82.82v.14a.82.82,0,0,1-.82.82h-2.61a.82.82,0,0,1-.82-.82ZM143.17,181a5.72,5.72,0,1,1,5.71-5.72A5.72,5.72,0,0,1,143.17,181Z"/><path class="cls-8" d="M96.07,203.5a19.06,19.06,0,1,1-19-19.06A19.05,19.05,0,0,1,96.07,203.5Z"/><path class="cls-12" d="M71.91,198.41A7.43,7.43,0,0,1,81,197.33l-2.09,2.08c-.78.94.1,1.48.55,1.46h7.23a.5.5,0,0,0,.5-.5V193.2a.79.79,0,0,0-1.43-.56l-2.08,2a11.09,11.09,0,0,0-17.64,9.44h3.71a7.41,7.41,0,0,1,2.14-5.71"/><path class="cls-12" d="M84.26,202.88A7.39,7.39,0,0,1,73,209.67l2.09-2.08c.78-.93-.1-1.48-.54-1.46H67.32a.5.5,0,0,0-.5.5v7.18a.79.79,0,0,0,1.43.55l2.08-2A11.09,11.09,0,0,0,88,202.88Z"/><path class="cls-8" d="M413,194.55h12.93a1.83,1.83,0,0,1-.24-.88,1.9,1.9,0,0,1,3.8,0,2,2,0,0,1-.24.88h12.93a1.75,1.75,0,0,1,1.74,1.75v19.24a1.74,1.74,0,0,1-1.74,1.74H431.58l2.06,7.25a.86.86,0,0,1-.68,1.09l-.81.15A1.06,1.06,0,0,1,431,225l-2.19-7.76h-2.38l-2.2,7.76a1.06,1.06,0,0,1-1.2.73l-.81-.15a.86.86,0,0,1-.67-1.09l2.05-7.25H413a1.75,1.75,0,0,1-1.75-1.74V196.3a1.75,1.75,0,0,1,1.75-1.75Zm1.57,19.33h26V197.59h-26Zm0,0"/><path class="cls-8" d="M425.16,207.54a1.89,1.89,0,0,1,0,.23,1.36,1.36,0,0,1-2.72,0,1.17,1.17,0,0,1,.08-.37l-3.5-3.16a1.27,1.27,0,0,1-.61.17,1.36,1.36,0,1,1,1.35-1.35,1.18,1.18,0,0,1-.11.5l3.43,3.09a1.37,1.37,0,0,1,.72-.23,1.29,1.29,0,0,1,.83.31l3.37-2.86a1.23,1.23,0,0,1-.1-.46,1.35,1.35,0,1,1,2.7,0,1.18,1.18,0,0,1-.09.46l6.21,4.83a1.27,1.27,0,0,1,.75-.25,1.35,1.35,0,1,1,0,2.7h0a1.36,1.36,0,0,1-1.36-1.36,1.17,1.17,0,0,1,.08-.37c-1.73-1.4-4.78-3.85-6.17-4.93a1.3,1.3,0,0,1-.76.27m8.21,6.39"/><path class="cls-8" d="M149.48,397.85a4.36,4.36,0,0,1-.56,2.1l-11.07-12.38,11-9.57a4.41,4.41,0,0,1,.68,2.33Zm-17.52-8,15.23-13.32a4.37,4.37,0,0,0-2.09-.55H118.82a4.34,4.34,0,0,0-2.09.55Zm4.24-.8-3.52,3.08a1.09,1.09,0,0,1-.72.27,1.08,1.08,0,0,1-.72-.27L127.71,389l-11.2,12.53a4.26,4.26,0,0,0,2.31.68H145.1a4.26,4.26,0,0,0,2.31-.68Zm-21.08-11a4.41,4.41,0,0,0-.68,2.33v17.52A4.25,4.25,0,0,0,115,400l11.06-12.38Z"/><rect class="cls-8" x="274.36" y="122.97" width="21.69" height="15.78" rx="1.2" ry="1.2"/><path class="cls-8" d="M278.83,121.93a3.64,3.64,0,1,0-3.63-3.64A3.64,3.64,0,0,0,278.83,121.93Z"/><path class="cls-8" d="M290.45,121.93a4.69,4.69,0,1,0-4.69-4.69A4.68,4.68,0,0,0,290.45,121.93Z"/><path class="cls-8" d="M301.3,127.71a.59.59,0,0,0-.46-.16l-3.28.32a.6.6,0,0,0-.54.59V135a.61.61,0,0,0,.54.6l3.28.31a.59.59,0,0,0,.46-.15.6.6,0,0,0,.2-.44v-7.19A.57.57,0,0,0,301.3,127.71Z"/><path class="cls-8" d="M417.07,349.07a4,4,0,0,0-2,1.17l-8.94-3.33a4.89,4.89,0,0,0-.05-.66c0-.1,0-.2-.07-.3l10-7a4.14,4.14,0,1,0-1.68-2.69c0,.06,0,.12,0,.18l-10.12,7a4.13,4.13,0,1,0,.78,6.2L414,353a4.65,4.65,0,0,0,.13,1.1,4.13,4.13,0,1,0,2.95-5.05Z"/><path class="cls-13" d="M80.84,144a2.09,2.09,0,0,0-1,.61l-4.65-1.73c0-.12,0-.23,0-.35a.83.83,0,0,0,0-.15l5.23-3.63a2.14,2.14,0,0,0,3.36-2.11,2.15,2.15,0,0,0-4.24.71.29.29,0,0,1,0,.09l-5.26,3.66a2.18,2.18,0,0,0-1.55-.33,2.15,2.15,0,0,0,.71,4.24,2.09,2.09,0,0,0,1.24-.68l4.62,1.73a2.28,2.28,0,0,0,.07.57A2.15,2.15,0,1,0,80.84,144Z"/><path class="cls-13" d="M211.25,428.75a2.15,2.15,0,0,0-1,.61l-4.65-1.73a2.07,2.07,0,0,0,0-.35l0-.15,5.22-3.63a2.18,2.18,0,0,0,1.6.37,2.15,2.15,0,1,0-2.48-1.77.29.29,0,0,1,0,.09l-5.26,3.66a2.18,2.18,0,0,0-1.55-.33,2.15,2.15,0,0,0,.72,4.24,2.1,2.1,0,0,0,1.23-.68l4.63,1.73a1.88,1.88,0,0,0,.06.57,2.15,2.15,0,1,0,1.54-2.63Z"/><path class="cls-13" d="M361.89,186.91a2.15,2.15,0,0,0-1,.6l-4.65-1.73a1.94,1.94,0,0,0,0-.34c0-.05,0-.11,0-.16l5.23-3.63a2.12,2.12,0,0,0,1.6.37,2.15,2.15,0,1,0-2.48-1.76s0,.06,0,.09L355.26,184a2.05,2.05,0,0,0-1.54-.33,2.15,2.15,0,0,0,.71,4.24,2.2,2.2,0,0,0,1.24-.68l4.62,1.72a2.22,2.22,0,0,0,.07.57,2.15,2.15,0,1,0,1.53-2.62Z"/><path class="cls-8" d="M345.05,88.75a6,6,0,0,0-2.54-4.9,14,14,0,0,0-28.06,0,6,6,0,0,0,3.25,10.9.86.86,0,0,0,.85.86h2.52a.87.87,0,0,0,.86-.86v-12a.86.86,0,0,0-.86-.85h-2.52a.85.85,0,0,0-.85.85,7.16,7.16,0,0,0-.93.12,11.76,11.76,0,0,1,23.41,0,6.8,6.8,0,0,0-.92-.12.85.85,0,0,0-.85-.85h-2.53a.85.85,0,0,0-.85.85v12a.86.86,0,0,0,.85.86h2.53a.86.86,0,0,0,.85-.86,5.89,5.89,0,0,0,1.83-.36l1.19-.59a6,6,0,0,0,2.77-5"/><rect class="cls-5" x="102.83" y="100.06" width="26.97" height="36.46" rx="1.13" ry="1.13"/><rect class="cls-14" x="104.4" y="101.99" width="23.83" height="31.62"/><path class="cls-15" d="M116.81,101.09a.5.5,0,0,1-.5.5.51.51,0,0,1-.5-.5.5.5,0,0,1,.5-.5A.5.5,0,0,1,116.81,101.09Z"/><circle class="cls-16" cx="116.31" cy="135.12" r="0.91"/><g class="cls-17"><path class="cls-8" d="M116.31,125.9a7.62,7.62,0,1,1,7.62-7.61A7.61,7.61,0,0,1,116.31,125.9Zm0-14.21a6.6,6.6,0,1,0,6.6,6.6A6.61,6.61,0,0,0,116.31,111.69Z"/><polygon class="cls-8" points="113.86 115.01 120.01 118.29 113.86 121.56 113.86 115.01"/></g><rect class="cls-5" x="390.28" y="247.14" width="31.89" height="43.12" rx="1.33" ry="1.33"/><rect class="cls-18" x="392.13" y="249.42" width="28.18" height="37.39"/><path class="cls-15" d="M406.81,248.36a.59.59,0,1,1-.59-.59A.58.58,0,0,1,406.81,248.36Z"/><path class="cls-16" d="M407.3,288.61a1.08,1.08,0,1,1-1.08-1.08A1.08,1.08,0,0,1,407.3,288.61Z"/><g class="cls-17"><path class="cls-8" d="M406.22,278.46A9.76,9.76,0,1,1,416,268.7,9.77,9.77,0,0,1,406.22,278.46Zm0-18.22a8.46,8.46,0,1,0,8.46,8.46A8.48,8.48,0,0,0,406.22,260.24Z"/><polygon class="cls-8" points="403.07 264.5 410.96 268.7 403.07 272.9 403.07 264.5"/></g><path class="cls-13" d="M290.45,106.7a8.88,8.88,0,1,1,8.87-8.87A8.88,8.88,0,0,1,290.45,106.7Zm0-16.57a7.7,7.7,0,1,0,7.69,7.7A7.71,7.71,0,0,0,290.45,90.13Z"/><polygon class="cls-13" points="287.58 94.01 294.76 97.83 287.58 101.65 287.58 94.01"/><path class="cls-19" d="M264.91,220.48c-.26,2.65.86,4.72,2.49,4.63s3.15-2.31,3.41-5-.87-4.72-2.5-4.63S265.16,217.84,264.91,220.48Z"/><path class="cls-19" d="M235,220.48c.26,2.65-.86,4.72-2.49,4.63s-3.15-2.31-3.41-5,.87-4.72,2.5-4.63S234.71,217.84,235,220.48Z"/><polygon class="cls-20" points="253.84 247.07 245.66 247.07 246.21 238.37 253.29 238.37 253.84 247.07"/><path class="cls-21" d="M245.94,242.57a10.72,10.72,0,0,0,7.62,0l-.27-4.2h-7.08Z"/><path class="cls-20" d="M249.75,201.23c-7.44,0-16.84,4.91-16.84,8.14s.7,21.33,1.26,23.58,5.48,4.91,8.42,6.45a13.2,13.2,0,0,0,14.32,0c2.94-1.54,7.86-4.21,8.42-6.45s1.26-20.35,1.26-23.58S257.19,201.23,249.75,201.23Z"/><path class="cls-22" d="M233.48,221.53c-4.3-4.38-5.3-10.91-5.3-15.53s4-8.29,5.63-8.92a8.19,8.19,0,0,0-4.22,1.59s1.95-6.29,11.65-4.22c0,0,8.53-5.74,21-.72a15.13,15.13,0,0,0-4.38.56s13.76.13,13.76,14.41c0,6.46-5.31,12.83-5.31,12.83a8.39,8.39,0,0,1-.86-5.42s-5.16-2.54-6.42-4.7a4.7,4.7,0,0,0,1.1,3.11s-4.93-.87-7-4.7c0,0-.08,3.43.86,5,0,0-6.26-2.31-7.59-6.45,0,0-.62,4,.94,6.05,0,0-5.32,0-8.52-5.81,0,0-.71,5.73-4.31,8.12A8.44,8.44,0,0,1,233.48,221.53Z"/><polygon class="cls-23" points="254.94 247.49 249.94 246.83 244.93 247.49 238.64 251 242.37 265.74 249.94 265.74 257.5 265.74 261.23 251 254.94 247.49"/><path class="cls-24" d="M255.24,247.38a.54.54,0,0,1-.48.58h-9.65a.54.54,0,0,1-.48-.58v-2.53a.54.54,0,0,1,.48-.58h9.65a.54.54,0,0,1,.48.58Z"/><path class="cls-25" d="M240.28,250l4.35,15.83H219.76s.46-4.69.54-5.84a4.09,4.09,0,0,1,2.06-2.79C223.27,256.66,240.28,250,240.28,250Z"/><path class="cls-26" d="M240.28,250s-3.59,1.4-7.56,3l2.2,6.22,3.15-.65-2,2.75,2.26,4.54h6.28Z"/><path class="cls-25" d="M259.58,250l-4.34,15.83h24.87s-.46-4.69-.54-5.84a4.09,4.09,0,0,0-2.06-2.79C276.6,256.66,259.58,250,259.58,250Z"/><path class="cls-26" d="M259.58,250s3.6,1.4,7.57,3l-2.2,6.22-3.15-.65,2,2.75-2.26,4.54h-6.28Z"/><rect class="cls-27" x="154.06" y="66.7" width="99.73" height="56.05"/><rect class="cls-5" x="154.06" y="122.75" width="99.73" height="13.28"/><path class="cls-28" d="M247.83,129.39a.54.54,0,0,1-.54.54H168.62a.54.54,0,0,1-.54-.54h0a.54.54,0,0,1,.54-.53h78.67a.54.54,0,0,1,.54.53Z"/><path class="cls-8" d="M183.55,129.39a1.65,1.65,0,1,1-1.65-1.65A1.65,1.65,0,0,1,183.55,129.39Z"/><polygon class="cls-8" points="159.38 126.96 164.18 129.39 159.38 131.82 159.38 126.96"/><path d="M220.58,88.7c-1.64-12.35-7.8-17.63-16.66-17.63s-15,5.28-16.66,17.63c-1.72,12.93,2.27,18,3.51,18.85,2.35,1.58,9,3.78,13.15,3.78s10.8-2.2,13.15-3.78C218.31,106.72,222.3,101.63,220.58,88.7Z"/><polygon class="cls-20" points="207.04 108.58 200.8 108.58 201.22 101.94 206.62 101.94 207.04 108.58"/><path class="cls-21" d="M206.62,102h-5.4l-.15,2.32a8.94,8.94,0,0,0,2.85,1.34h0a8.82,8.82,0,0,0,2.84-1.34Z"/><path class="cls-20" d="M222.16,115.41a5.3,5.3,0,0,0-2.57-3.06c-.72-.34-15.67-5.07-15.67-5.07S189,112,188.25,112.35a5.3,5.3,0,0,0-2.57,3.06,65.82,65.82,0,0,0-1.93,7.23H224.1A66.42,66.42,0,0,0,222.16,115.41Z"/><path class="cls-20" d="M215.77,80.32c-1.09-4.61-6.54-6.68-11.84-6.69h0c-5.31,0-10.76,2.08-11.85,6.69-1.28,5.42,0,12.64,3.32,18,1.46,2.29,7.41,6,8.53,6.06h0c1.11,0,7.07-3.77,8.52-6.06C215.82,93,217.05,85.74,215.77,80.32Z"/><path class="cls-29" d="M191.17,111.33s1.83,9,8.49,11.31h-9s-.76-7.43-3.12-10.06A14.91,14.91,0,0,1,191.17,111.33Z"/><path class="cls-29" d="M216.67,111.33s-1.83,9-8.48,11.31h9s.76-7.43,3.12-10.06A14.91,14.91,0,0,0,216.67,111.33Z"/><path class="cls-30" d="M205.05,109.28a1.13,1.13,0,1,1-1.13-1.12A1.13,1.13,0,0,1,205.05,109.28Z"/><circle class="cls-30" cx="201.98" cy="109.06" r="1.07"/><path class="cls-30" d="M201.12,108.43a1,1,0,1,1-1-1A1,1,0,0,1,201.12,108.43Z"/><circle class="cls-30" cx="205.86" cy="109.06" r="1.07"/><path class="cls-30" d="M206.72,108.43a1,1,0,1,0,1-1A1,1,0,0,0,206.72,108.43Z"/><path d="M218.49,82.6c-3.12-7.86-11.63-10.55-14.63-10.55s-9.48,2.48-12.36,6.89-4.32,12.6-2.64,16.79,7.31,8,7.31,8c-4-14.45,4.5-21.22,7.38-23,.53,2.37,2,6.9,5.6,9.3,0,0-.48-1.47-1-3.38a19.83,19.83,0,0,0,7.45,4.94l1.08,4.85,1.8,2.9S221.61,90.46,218.49,82.6Z"/><rect class="cls-31" x="332.11" y="113.2" width="75.03" height="49.9" rx="1.58" ry="1.58"/><polygon class="cls-5" points="407.11 163.1 374.16 163.1 332.14 163.1 323.87 167.65 374.16 167.65 415.38 167.65 407.11 163.1"/><path class="cls-31" d="M323.87,167.64v.69a2.13,2.13,0,0,0,2.13,2.13h87.25a2.13,2.13,0,0,0,2.13-2.13v-.69Z"/><polygon class="cls-32" points="334.13 164.19 330.52 166.33 408.73 166.33 405.12 164.19 334.13 164.19"/><rect class="cls-33" x="336.53" y="117.09" width="66.19" height="42.14"/><path class="cls-19" d="M378.92,132.35c-.15,1.57.51,2.8,1.48,2.75s1.87-1.37,2-2.94-.52-2.79-1.48-2.74S379.07,130.78,378.92,132.35Z"/><path class="cls-19" d="M361.17,132.35c.15,1.57-.51,2.8-1.48,2.75s-1.87-1.37-2-2.94.52-2.79,1.48-2.74S361,130.78,361.17,132.35Z"/><path class="cls-34" d="M382.16,127.87c0,6.24-5.42,13.72-12.11,13.72s-12.12-7.48-12.12-13.72,5.42-8.89,12.12-8.89S382.16,121.62,382.16,127.87Z"/><polygon class="cls-20" points="372.47 148.11 367.62 148.11 367.95 142.96 372.14 142.96 372.47 148.11"/><path class="cls-21" d="M367.79,145.44a6.26,6.26,0,0,0,4.51,0l-.16-2.48H368Z"/><path class="cls-20" d="M370.05,120.94c-4.41,0-10,2.91-10,4.83s.42,12.64.75,14,3.25,2.91,5,3.83a7.83,7.83,0,0,0,8.49,0c1.74-.92,4.66-2.5,5-3.83s.75-12.06.75-14S374.45,120.94,370.05,120.94Z"/><polygon class="cls-35" points="373.01 148.36 370.05 147.04 367.08 148.36 363.35 150.44 365.56 159.22 369.94 159.22 374.53 159.22 376.74 150.44 373.01 148.36"/><path class="cls-36" d="M364.33,149.86l2.57,9.36H352.16s.27-2.76.32-3.44a2.44,2.44,0,0,1,1.22-1.65C354.24,153.8,364.33,149.86,364.33,149.86Z"/><path class="cls-37" d="M364.33,149.86l-4.49,1.76,1.3,3.69,1.87-.38-1.17,1.62,1.34,2.67h3.72Z"/><path class="cls-36" d="M375.77,149.86l-2.58,9.36h14.74s-.27-2.76-.32-3.44a2.44,2.44,0,0,0-1.22-1.65C385.85,153.8,375.77,149.86,375.77,149.86Z"/><path class="cls-37" d="M375.77,149.86l4.48,1.76-1.3,3.69-1.87-.38,1.17,1.62-1.34,2.67h-3.72Z"/><polygon class="cls-38" points="371.82 148.83 370.05 147.03 368.27 148.83 369.43 151.16 370.05 151.16 370.66 151.16 371.82 148.83"/><polygon class="cls-39" points="370.05 147.03 368.41 150.66 366.42 148.63 367.54 146.68 370.05 147.03"/><polygon class="cls-39" points="370.05 147.03 371.68 150.66 373.67 148.63 372.55 146.68 370.05 147.03"/><polygon class="cls-40" points="370.66 151.16 370.05 151.16 369.43 151.16 368.98 159.22 370.05 159.22 371.11 159.22 370.66 151.16"/><path class="cls-34" d="M374.3,125.87s-2.37,4.52-9.5,5.82a17.65,17.65,0,0,0,4-2.91s-5.86,3.46-9.56,3c0,0-.64-5.72.28-7.2s7.84-5.07,12-4.24,8.58,3,9.23,4.61,0,6.46,0,6.46S374.86,129.47,374.3,125.87Z"/><rect class="cls-5" x="71.92" y="286.94" width="73.27" height="48.73" rx="1.54" ry="1.54"/><polygon class="cls-31" points="145.15 335.67 112.98 335.67 71.94 335.67 63.87 340.1 112.98 340.1 153.23 340.1 145.15 335.67"/><path class="cls-5" d="M63.87,340.1v.67A2.08,2.08,0,0,0,66,342.85h85.2a2.08,2.08,0,0,0,2.08-2.08v-.67Z"/><polygon class="cls-41" points="73.88 336.73 70.37 338.81 146.73 338.81 143.21 336.73 73.88 336.73"/><rect class="cls-42" x="76.23" y="290.73" width="64.63" height="41.15"/><path class="cls-43" d="M112.2,294.54s-6-4-11.68.44c-6.62,5.12-4.16,14.52-2,17.85s2.66,6.13.37,6.24a36.61,36.61,0,0,0,10.51,1.32c6.53,0,9-1.57,9-1.57s-2.7-.43-1.06-3.57c1.29-2.48,5.38-11.84,2.88-17C117.94,293.58,113.47,293.39,112.2,294.54Z"/><path class="cls-19" d="M116.33,306.88c-.13,1.47.45,2.62,1.3,2.57s1.64-1.28,1.77-2.75-.45-2.62-1.3-2.57S116.46,305.41,116.33,306.88Z"/><path class="cls-19" d="M100.76,306.88c.14,1.47-.44,2.62-1.29,2.57s-1.64-1.28-1.77-2.75.45-2.62,1.29-2.57S100.63,305.41,100.76,306.88Z"/><polygon class="cls-20" points="110.82 321.65 106.28 321.65 106.58 316.81 110.52 316.81 110.82 321.65"/><path class="cls-21" d="M110.51,316.81h-3.93l-.11,1.7a6.79,6.79,0,0,0,2.08,1h0a6.77,6.77,0,0,0,2.07-1Z"/><path class="cls-20" d="M121.84,326.62a3.91,3.91,0,0,0-1.88-2.23c-.52-.25-11.41-3.69-11.41-3.69s-10.9,3.44-11.42,3.69a3.89,3.89,0,0,0-1.87,2.23,46.54,46.54,0,0,0-1.41,5.27h29.4A48.83,48.83,0,0,0,121.84,326.62Z"/><path class="cls-20" d="M117.18,301.05c-.79-3.35-4.76-4.86-8.63-4.86h0c-3.86,0-7.83,1.51-8.62,4.86a18.21,18.21,0,0,0,2.41,13.08c1.06,1.68,5.4,4.42,6.21,4.42h0c.82,0,5.15-2.74,6.21-4.42A18.27,18.27,0,0,0,117.18,301.05Z"/><path class="cls-44" d="M117.59,323.54l-2.37,5.13a24.46,24.46,0,0,1-6.67.71,24.46,24.46,0,0,1-6.67-.71l-2.38-5.13-2,.62.33,7.73h21.48l.32-7.73Z"/><path class="cls-43" d="M116,295.84c-2.86-1.88-12.64-1.43-15.87,2s-3,9.63-3,9.63a22.06,22.06,0,0,0,8.93-3.3c-1.1,1.45-2.15,2.71-2.15,2.71,5.11-2.16,7.19-5,7.94-6.42a8.31,8.31,0,0,0,8.14,5.42C119.77,302.72,118.85,297.72,116,295.84Z"/><g class="cls-9"><path d="M58.78,280.54h30a2.65,2.65,0,0,1,2.65,2.65V299a2.65,2.65,0,0,1-2.65,2.65h-4v5.82L79,301.65H58.78A2.65,2.65,0,0,1,56.13,299V283.19A2.65,2.65,0,0,1,58.78,280.54Z"/></g><path class="cls-8" d="M56.78,278.54h30a2.65,2.65,0,0,1,2.65,2.65V297a2.65,2.65,0,0,1-2.65,2.65h-4v5.82L77,299.65H56.78A2.65,2.65,0,0,1,54.13,297V281.19A2.65,2.65,0,0,1,56.78,278.54Z"/><rect class="cls-45" x="255.62" y="365.82" width="78.49" height="44.11"/><rect class="cls-31" x="255.62" y="409.94" width="78.49" height="10.45"/><path class="cls-28" d="M329.41,415.16a.42.42,0,0,1-.42.42H267.07a.42.42,0,0,1-.42-.42h0a.42.42,0,0,1,.42-.42H329a.42.42,0,0,1,.42.42Z"/><path class="cls-8" d="M278.83,415.16a1.3,1.3,0,1,1-1.3-1.3A1.3,1.3,0,0,1,278.83,415.16Z"/><polygon class="cls-8" points="259.81 413.25 263.58 415.16 259.81 417.07 259.81 413.25"/><path class="cls-46" d="M307.44,379.65c0,7-5.63,14.4-12.58,14.4s-12.58-7.45-12.58-14.4,5.63-10.76,12.58-10.76S307.44,372.7,307.44,379.65Z"/><path class="cls-19" d="M303.77,382.78c-.15,1.57.52,2.8,1.48,2.75s1.88-1.37,2-2.95-.51-2.8-1.48-2.75S303.92,381.2,303.77,382.78Z"/><path class="cls-19" d="M286,382.78c.15,1.57-.52,2.8-1.49,2.75s-1.87-1.37-2-2.95.51-2.8,1.48-2.75S285.8,381.2,286,382.78Z"/><polygon class="cls-20" points="297.29 399.11 297.29 399.07 297.29 399.07 296.97 393.43 292.75 393.43 292.43 399.07 292.43 399.07 292.43 399.11 292.43 399.16 292.43 399.16 292.75 404.81 296.97 404.81 297.29 399.16 297.29 399.16 297.29 399.11"/><path class="cls-21" d="M292.59,395.92a8.11,8.11,0,0,0,2.27.42,8,8,0,0,0,2.26-.42l-.15-2.5h-4.22Z"/><path class="cls-20" d="M294.86,371.32c-4.43,0-10,2.92-10,4.84s.41,12.7.75,14,3.26,2.93,5,3.85a7.88,7.88,0,0,0,8.52,0c1.75-.92,4.68-2.51,5-3.85s.75-12.11.75-14S299.29,371.32,294.86,371.32Z"/><path class="cls-47" d="M312.5,406.31a2.49,2.49,0,0,0-1.23-1.67c-.54-.33-14.43-5.58-14.43-5.58l-.91.56-1.07,3.05-1.08-3.05-.9-.56s-13.89,5.25-14.43,5.58a2.46,2.46,0,0,0-1.23,1.67c-.05.68-.32,3.47-.32,3.47h35.92S312.55,407,312.5,406.31Z"/><polygon class="cls-48" points="293.92 399.58 291.51 402.75 289.75 399.83 292.11 397.6 293.92 399.58"/><polygon class="cls-48" points="295.8 399.58 298.21 402.75 299.97 399.83 297.61 397.6 295.8 399.58"/><path class="cls-46" d="M286.76,379.19l-1.64,5.56s-1.19-2.56-.63-4.54A1.48,1.48,0,0,1,286.76,379.19Z"/><path class="cls-46" d="M303,379.19l1.64,5.56s1.19-2.56.63-4.54A1.48,1.48,0,0,0,303,379.19Z"/><path class="cls-46" d="M294.94,369.09h-.05c-.1,0-.31,0,0,.08h.05C295.25,369.11,295,369.09,294.94,369.09Z"/><path class="cls-46" d="M306.47,376.15c-.62-3-5.33-5.18-8.37-6.47a8.85,8.85,0,0,0-3.21-.49h-.06a8.85,8.85,0,0,0-3.21.49c-3,1.29-7.75,3.43-8.37,6.47a7.64,7.64,0,0,0,1.32,5.59,30.85,30.85,0,0,0,10.29-7.68,30.85,30.85,0,0,0,10.29,7.68A7.64,7.64,0,0,0,306.47,376.15Z"/><g class="cls-9"><path d="M271.76,58.75H236.31a3.13,3.13,0,0,0-3.13,3.13V80.54a3.13,3.13,0,0,0,3.13,3.13H241v6.88l6.87-6.88h23.88a3.13,3.13,0,0,0,3.13-3.13V61.88A3.13,3.13,0,0,0,271.76,58.75Z"/></g><path class="cls-8" d="M269.76,56.75H234.31a3.13,3.13,0,0,0-3.13,3.13V78.54a3.13,3.13,0,0,0,3.13,3.13H239v6.88l6.87-6.88h23.88a3.13,3.13,0,0,0,3.13-3.13V59.88A3.13,3.13,0,0,0,269.76,56.75Z"/><circle class="cls-49" cx="366.42" cy="391.97" r="10.12" transform="translate(-93.06 669.07) rotate(-78.02)"/><circle class="cls-49" cx="146.26" cy="361.46" r="7.79" transform="translate(-201.15 184.4) rotate(-40.96)"/><path class="cls-49" d="M178.4,153.69a6.66,6.66,0,1,1-6.66-6.65A6.66,6.66,0,0,1,178.4,153.69Z"/><path class="cls-49" d="M374.37,88.16A6.37,6.37,0,1,1,368,81.79,6.37,6.37,0,0,1,374.37,88.16Z"/><path class="cls-13" d="M70.88,250a5.72,5.72,0,1,1-5.72-5.72A5.72,5.72,0,0,1,70.88,250Z"/><path class="cls-13" d="M426.57,310.12a4,4,0,1,1-3.95-4A4,4,0,0,1,426.57,310.12Z"/><path class="cls-13" d="M369.14,235.38a2.51,2.51,0,1,1-2.51-2.5A2.51,2.51,0,0,1,369.14,235.38Z"/><path class="cls-13" d="M377.45,235.38a2.51,2.51,0,1,1-2.5-2.5A2.5,2.5,0,0,1,377.45,235.38Z"/><path class="cls-13" d="M385.76,235.38a2.51,2.51,0,1,1-2.5-2.5A2.5,2.5,0,0,1,385.76,235.38Z"/><path class="cls-13" d="M387.45,371.76a2.51,2.51,0,1,1-2.51-2.51A2.5,2.5,0,0,1,387.45,371.76Z"/><path class="cls-13" d="M395.76,371.76a2.51,2.51,0,1,1-2.51-2.51A2.5,2.5,0,0,1,395.76,371.76Z"/><path class="cls-13" d="M404.07,371.76a2.51,2.51,0,1,1-2.5-2.51A2.5,2.5,0,0,1,404.07,371.76Z"/><path class="cls-13" d="M402.92,104.34a2.51,2.51,0,1,1-2.5-2.51A2.5,2.5,0,0,1,402.92,104.34Z"/><path class="cls-13" d="M411.23,104.34a2.51,2.51,0,1,1-2.5-2.51A2.5,2.5,0,0,1,411.23,104.34Z"/><path class="cls-13" d="M419.54,104.34a2.51,2.51,0,1,1-2.5-2.51A2.5,2.5,0,0,1,419.54,104.34Z"/><path class="cls-13" d="M158.37,409.78a2.51,2.51,0,1,1-2.5-2.51A2.51,2.51,0,0,1,158.37,409.78Z"/><circle class="cls-13" cx="164.18" cy="409.78" r="2.51"/><path class="cls-13" d="M175,409.78a2.51,2.51,0,1,1-2.5-2.51A2.51,2.51,0,0,1,175,409.78Z"/><path class="cls-13" d="M128.22,204.83a2.51,2.51,0,1,1-2.5-2.51A2.51,2.51,0,0,1,128.22,204.83Z"/><path class="cls-13" d="M136.53,204.83a2.51,2.51,0,1,1-2.5-2.51A2.51,2.51,0,0,1,136.53,204.83Z"/><path class="cls-13" d="M144.84,204.83a2.51,2.51,0,1,1-2.5-2.51A2.51,2.51,0,0,1,144.84,204.83Z"/><line class="cls-49" x1="429.65" y1="166.29" x2="429.65" y2="174.63"/><line class="cls-49" x1="425.48" y1="170.46" x2="433.83" y2="170.46"/><line class="cls-49" x1="291.41" y1="71.49" x2="291.41" y2="77.8"/><line class="cls-49" x1="288.25" y1="74.65" x2="294.57" y2="74.65"/><line class="cls-49" x1="221.89" y1="353.66" x2="221.89" y2="359.98"/><line class="cls-49" x1="218.73" y1="356.82" x2="225.05" y2="356.82"/><line class="cls-49" x1="81.57" y1="363.26" x2="81.57" y2="371.6"/><line class="cls-49" x1="77.4" y1="367.43" x2="85.74" y2="367.43"/><line class="cls-49" x1="318.24" y1="352.55" x2="328.48" y2="352.55"/><line class="cls-49" x1="295.8" y1="357.63" x2="328.48" y2="357.63"/><line class="cls-49" x1="308.72" y1="352.55" x2="313.43" y2="352.55"/><line class="cls-49" x1="303.92" y1="347.65" x2="328.48" y2="347.65"/><line class="cls-49" x1="90.54" y1="163.97" x2="100.78" y2="163.97"/><line class="cls-49" x1="68.11" y1="169.05" x2="100.78" y2="169.05"/><line class="cls-49" x1="81.03" y1="163.97" x2="85.74" y2="163.97"/><line class="cls-49" x1="76.23" y1="159.07" x2="100.78" y2="159.07"/><line class="cls-49" x1="394.02" y1="204.74" x2="404.27" y2="204.74"/><line class="cls-49" x1="371.59" y1="209.82" x2="404.27" y2="209.82"/><line class="cls-49" x1="384.51" y1="204.74" x2="389.22" y2="204.74"/><line class="cls-49" x1="379.71" y1="199.84" x2="404.27" y2="199.84"/><polyline class="cls-49" points="131.96 85.67 135.35 89.07 138.75 85.67"/><line class="cls-49" x1="135.35" y1="88.87" x2="135.35" y2="81.18"/><polyline class="cls-49" points="235.16 429.59 238.56 432.98 241.95 429.59"/><line class="cls-49" x1="238.56" y1="432.78" x2="238.56" y2="425.1"/><polyline class="cls-49" points="351.14 290.28 354.54 293.67 357.93 290.28"/><line class="cls-49" x1="354.54" y1="293.47" x2="354.54" y2="285.79"/><polyline class="cls-49" points="91.38 238.78 87.98 235.38 84.59 238.78"/><line class="cls-49" x1="87.98" y1="235.58" x2="87.98" y2="243.27"/><polyline class="cls-49" points="321.63 131.31 318.24 127.92 314.84 131.31"/><line class="cls-49" x1="318.24" y1="128.11" x2="318.24" y2="135.8"/></g></g></svg>